<?xml version="1.0" encoding="UTF-8"?>
<svg id="Layer_2" data-name="Layer 2" xmlns="http://www.w3.org/2000/svg" width="423.7" height="423.7" viewBox="0 0 423.7 423.7">
  <g>
    <g id="torso">
      <path d="M219.8,323.5c-12.85,4.76-25.84,9.53-38.69,14.29-13.71,32.62-26.71,68.86-38.11,108.41-29.01,101.91-37.1,194.3-36.95,268.06,17.61,5.49,36.67,10.54,57.02,15.01,51.25,11.12,98.02,14.87,138,15.01,1.3-87.33,2.6-174.67,4.04-262,1.01-49.95,2.02-100.04,3.03-149.98-5.34-4.47-19.49-15.3-41-18.04-23.67-2.74-41.43,6.06-47.35,9.24Z" style="fill: #818181; stroke: #000; stroke-linejoin: round; stroke-width: 3.12px;"/>
      <path d="M263.11,315.42c-14,6.93-14.44,31.18-14.87,49.51-1.15,46.91-11.84,93.68-8.95,140.46,2.89,47.2-9.09,118.66-78.09,223.6,23.39,4.47,49.22,8.37,77.23,10.83,22.09,2.02,42.87,2.89,62.36,3.03,.72-25.69,1.3-51.39,2.02-77.23,2.74-111.44,4.62-222.88,5.92-334.47-6.06-4.76-29.88-23.67-45.62-15.73Z" style="fill: #5d5d5d;"/>
    </g>
    <g id="coat_left" data-name="coat left">
      <path d="M273.79,315.85c-1.59,4.91-3.75,11.98-6.21,20.64-5.92,20.93-13.28,50.52-20.64,98.3-3.75,24.11-10.1,66.4-13.14,123.71-.72,13.86-2.02,43.31,1.44,157.49,2.17,74.05,3.32,111.15,5.49,142.33,1.56,21.97,3.36,42.89,5.34,62.95,3.78,38.63,147.8,61.27,172.34,40.66,2.99-2.51,4.22-5.65,3.19-9.49-2.5-9.21-7.17-26.93-13.09-54.07-8.82-40.48-20.43-101.9-31.66-187.28-6.5-49.66-5.2-48.94-21.36-195.31-6.35-57.45-11.69-104.37-15.16-134.83-.72-7.22-3.18-22.52-14.44-37.1-18.62-24.25-46.77-27.57-52.11-28Z" style="fill: #fff;"/>
      <path d="M313.63,333.75c3.61,14,8.52,34.93,13.14,60.48,12.85,71.17,11.55,113.75,14.44,169.9,5.2,101.77,16.17,94.41,26.13,226.92,4.62,60.63,6.93,93.4,4.76,138.87-3.32,72.03-15.88,131.07-26.85,171.92,13.14-4.04,29.16-10.25,46.05-19.92,24.68-14.15,42.58-30.46,54.28-43.31-3.32-10.54-8.23-26.27-13.71-45.33-17.18-60.2-33.63-131.79-52.26-269.51-11.12-81.85-8.66-81.99-24.68-212.49-7.65-62.36-14.58-113.46-19.2-147.82-2.6-5.49-6.35-11.84-11.69-18.62-3.46-4.62-7.07-8.23-10.39-11.12Z" style="fill: rgba(96, 96, 96, .12);"/>
      <path d="M271.34,315.99c-23.82,70.59-33.63,144.79-37.1,218.98-3.61,77.95-1.59,156.33,.58,234.28,1.3,45.62,3.03,91.09,5.05,136.7,.14,2.74,4.47,2.74,4.33,0-3.75-80.55-6.21-161.1-7.22-241.65-.87-75.06-.43-150.42,9.96-224.76,5.92-41.43,14.87-82.43,28.44-122.12,1.01-2.89-3.18-4.04-4.04-1.44Z" style="fill: #161616;"/>
      <path d="M275.81,318.88c17.18,5.05,34.07,10.68,45.47,25.12,9.67,11.98,14.44,27.14,17.47,42.15,3.61,17.47,5.05,35.51,6.78,53.27,2.02,20.21,4.04,40.56,5.92,60.92,7.51,79.68,16.6,159.37,28.29,238.62,6.64,45.33,14,90.51,22.09,135.69,.43,2.74,4.62,1.59,4.19-1.15-15.01-83.58-27.43-167.45-37.53-251.75-4.91-41.86-9.24-83.72-13.14-125.59-2.02-21.22-4.04-42.44-6.21-63.66-1.73-16.46-3.18-33.2-6.64-49.51-3.32-15.59-8.95-31.18-19.49-43.45-11.98-14-29.01-19.78-46.19-24.68-2.6-.87-3.75,3.32-1.01,4.04Z" style="fill: #161616;"/>
      <path d="M273.36,316.86c2.17,7.8,10.25,9.53,15.01,15.3,6.93,8.52,4.91,21.08,2.45,30.89-2.89,11.26-6.93,22.23-11.12,33.06-3.9,10.54-10.68,21.51-12.56,32.77-1.73,10.25,5.34,18.77,5.49,28.87,0,12.85-5.63,26.42-8.66,38.83-6.06,24.54-11.55,49.08-16.31,73.91-5.49,28.44-10.25,57.02-14.15,85.75-.43,2.74,3.75,3.9,4.19,1.15,7.07-51.82,16.74-103.36,29.16-154.17,3.03-12.41,6.93-24.68,9.24-37.24,.87-4.47,1.3-9.24,.58-13.71-.87-5.34-3.61-10.1-4.91-15.45-1.59-6.93,1.44-13.14,4.04-19.34,2.45-5.77,4.76-11.69,7.07-17.61,4.33-11.4,8.52-22.95,11.69-34.64,2.45-9.09,4.19-19.49,1.01-28.58-1.3-3.61-3.32-6.78-6.06-9.38-4.04-3.75-10.54-5.77-12.13-11.55-.58-2.74-4.76-1.59-4.04,1.15Z" style="fill: #161616;"/>
    </g>
    <g id="coat_right" data-name="coat right">
      <path d="M173.47,343.28c-4.47,3.61-12.7,10.25-18.62,17.18-4.76,5.63-8.52,11.84-13.71,24.68-7.79,19.34-11.26,34.5-14.44,47.49-6.78,27.57-7.22,24.54-13.71,50.81-8.23,32.77-13.14,60.05-19.92,99.75-10.97,64.53-16.46,96.72-19.92,123.71-2.89,22.09-14.29,114.47-14.44,239.34,0,38.83,1.01,71.45,2.02,94.84,3.46,1.73,7.36,3.46,11.69,4.76,13.57,4.33,25.84,4.33,34.36,3.46-.14-25.12,0-62.5,1.44-107.98,1.3-39.84,2.89-67.85,4.19-90.08,2.31-42.73,5.2-103.93,6.93-182.17,1.01-11.4,2.6-27.72,4.76-47.49,5.49-48.94,9.24-83.44,17.9-125.15,2.31-10.83,7.94-33.2,19.2-77.66,8.81-34.64,16.17-63.08,21.36-82.57-2.45,1.88-5.49,4.19-9.09,7.07Z" style="fill: #fff;"/>
      <path d="M181.12,336.06c-49.37,154.6-67.56,316.57-78.24,477.81-3.03,46.34-5.49,92.67-7.79,139.01-.14,2.74,4.19,2.74,4.33,0,8.37-162.11,17.18-325.23,51.25-484.45,9.53-44.32,20.93-88.2,34.64-131.36,.87-2.45-3.32-3.61-4.19-1.01Z" style="fill: #161616;"/>
      <path d="M181.26,334.76c-31.47,18.48-45.04,53.99-54.42,87.48-12.7,45.47-22.81,91.81-31.9,138.29-18.33,94.55-30.17,190.4-35.37,286.54-2.89,54.71-3.61,109.56-2.31,164.27,0,2.74,4.33,2.74,4.33,0-2.31-94.26,1.59-188.67,11.98-282.35,10.39-93.97,27.28-187.23,50.38-278.89,10.1-40.27,20.64-88.92,59.33-111.58,2.6-1.44,.43-5.2-2.02-3.75Z" style="fill: #161616;"/>
      <path d="M175.63,339.96c-16.17,9.82-23.96,28-25.41,46.34-.58,7.65,.58,15.45-1.01,22.95-1.3,6.21-4.19,11.84-6.78,17.61-5.05,11.4-8.81,23.39-11.55,35.66-5.34,24.4-6.78,49.51-7.8,74.49-1.3,29.16-2.6,58.17-3.9,87.33-.14,2.74,4.19,2.74,4.33,0,1.15-26.85,2.31-53.7,3.61-80.69,1.15-25.12,2.17-50.38,6.93-75.06,2.31-11.69,5.49-23.1,9.82-34.21,4.19-10.54,9.67-19.92,10.25-31.61,.58-11.4-.14-22.09,3.61-33.2,3.61-10.83,10.1-20.07,19.92-25.98,2.6-1.3,.29-5.05-2.02-3.61Z" style="fill: #161616;"/>
    </g>
    <g id="hand_left" data-name="hand left">
      <path d="M322.87,339.09c-4.04,11.98-8.37,28.29-9.67,48.21-1.44,22.09,1.15,40.71,4.04,53.84,4.47,3.32,11.12,9.24,15.88,18.48,5.05,9.96,6.35,20.5,4.62,37.39-2.45,24.4-5.34,51.82-25.55,78.82-15.45,20.64-34.36,31.9-46.05,38.98-8.66,5.2-16.46,8.81-22.09,11.26,7.65,10.68,8.08,13.86,7.22,14.87-1.59,1.73-7.22-3.46-16.89-6.21-13.86-3.75-16.89,2.89-29.16,0-13.42-3.18-13.71-11.98-28.15-14.29-3.9-.58-14.58-2.31-18.48,3.61-2.89,4.47-1.3,11.98,4.04,18.48-1.73,.14-4.47,.29-7.65,0-4.19-.43-5.63-1.15-7.65-.58-1.73,.58-3.9,2.17-5.63,7.22-6.06-2.89-11.84-1.01-12.85,1.59-1.01,2.45,1.59,7.22,7.22,9.67-1.15,1.3-2.45,3.18-2.02,5.05,.58,2.74,4.62,3.9,10.25,5.05,10.83,2.31,16.6,1.73,23.1,2.6,9.96,1.3,10.97,4.19,21.51,7.22,13.86,3.9,25.55,2.31,32.34,1.59,20.64-2.6,35.66-11.69,43.59-17.47,2.74,8.08,5.49,16.02,8.23,24.11,10.39-1.44,26.27-4.91,43.59-14.29,18.48-10.1,29.59-22.09,37.39-30.75,18.62-20.5,28.73-42.01,34.36-57.89,4.47-12.56,6.06-22.09,8.23-34.36,3.32-19.49,7.36-42.44,4.62-70.73-1.01-9.67-5.2-45.18-28.15-84.01-16.89-27.57-36.23-46.19-50.23-57.45Z" style="fill: #fff;"/>
      <path d="M326.91,345.15c9.53,11.55,21.94,28.87,32.33,51.68,5.63,12.41,20.93,49.22,20.5,99.31-.29,35.66-.72,79.68-32.34,116.78-27.57,32.33-64.81,42.58-83.44,46.05-12.41,1.44-26.71,2.31-42.44,1.59-30.75-1.44-56.44-8.08-75.35-14.87-10.39,.58-13.28,2.74-13.86,4.62-.72,2.17,1.59,3.9,1.59,8.66,0,3.9-1.59,4.76-1.01,6.64,.87,3.03,6.06,4.47,15.88,5.63,15.16,1.88,18.91,.72,27.14,2.6,8.81,2.02,8.52,4.33,16.46,6.64,14,4.19,26.56,.72,45.62-4.62,6.78-1.88,16.17-4.91,27.14-9.67,2.6,6.93,5.05,14,7.65,20.93,12.56-2.17,32.05-7.07,52.26-19.92,20.5-12.99,32.05-28,38.4-36.38,15.59-20.5,22.37-39.41,26.13-50.23,12.41-35.66,11.69-65.54,11.26-81.41-.58-19.78-1.59-49.22-16.89-83-16.46-35.66-40.85-58.46-57.02-71.02Z" style="fill: rgba(96, 96, 96, .12);"/>
      <path d="M314.79,336.92c47.06,32.05,76.51,83.72,81.99,140.17,5.63,58.46-5.49,122.99-47.06,167.02-20.79,21.94-47.64,37.68-77.66,42.3-2.74,.43-1.59,4.62,1.15,4.19,57.16-8.81,99.89-55.29,117.5-108.41,18.91-56.87,16.89-126.02-11.4-179.43-14.72-27.86-36.23-51.82-62.36-69.58-2.31-1.59-4.47,2.17-2.17,3.75Z" style="fill: #161616;"/>
    </g>
    <g id="hand_right" data-name="hand right">
      <path d="M151.23,367.82c-7.51,6.35-17.76,16.02-27.72,29.74-4.47,6.21-7.36,10.83-10.97,16.74-5.77,9.67-15.88,26.27-24.54,49.8-3.32,8.81-7.07,20.64-10.39,34.93-5.77,4.33-11.69,8.66-17.47,12.99-3.18,1.3-12.7,5.49-19.34,16.17-6.78,10.97-6.21,21.8-5.77,25.26-6.5,1.15-13.28,2.31-20.06,3.18-32.62,4.62-63.37,6.21-91.81,5.77,11.26,13.14,22.37,26.27,33.63,39.41-3.46,3.18-6.93,6.5-10.39,9.67,6.21,8.37,12.56,16.74,18.77,25.26,8.23-1.01,16.31-2.17,24.54-3.18,12.7,15.3,25.41,30.6,38.11,45.9,21.8-2.6,39.99-6.35,53.55-9.67,42.15-10.1,73.04-23.67,87.19-30.31,11.84-5.49,21.36-10.68,27.72-14.15-3.61-9.38-7.22-16.6-9.67-21.36-7.22-13.57-21.65-39.99-50.38-58.17-5.49-3.46-10.25-5.77-12.99-7.07-.72-19.63,.87-35.8,2.6-47.2,4.47-30.03,14.29-57.16,15.45-60.77,3.61-10.1,5.77-14.15,7.79-23.24,3.9-16.31,3.32-30.31,2.17-39.7Z" style="fill: #fff;"/>
      <path d="M138.68,382.4c-8.81,16.89-18.04,36.95-25.98,60.34-7.51,21.8-12.56,42.01-16.02,59.91-5.05-1.3-10.54,.29-14.15,4.04-3.61,3.9-4.91,9.53-3.18,14.58-4.47,.72-12.41,2.6-19.63,8.66-16.89,14.15-14,37.68-13.71,39.7-6.35,.72-13.14,1.73-20.07,3.18-28.58,6.06-51.68,17.18-69,27.86-10.83-12.85-21.65-25.55-32.48-38.4,35.37-2.45,70.59-4.91,105.96-7.36,.87-4.91,2.89-11.84,7.36-19.2,7.8-12.85,18.48-19.2,23.82-21.94,1.01-2.02,2.17-3.9,3.18-5.92,3.9-3.03,7.94-6.06,11.84-9.09,2.31-11.4,4.91-20.5,6.78-26.56,5.63-17.61,15.73-48.65,41.57-76.8,5.77-5.92,10.68-10.39,13.71-12.99Z" style="fill: rgba(96, 96, 96, .11);"/>
      <path d="M151.96,363.77c-38.69,35.22-65.54,82.28-75.93,133.67-.58,2.74,3.61,3.9,4.19,1.15,10.25-50.67,36.52-97.01,74.77-131.79,2.02-1.88-1.01-4.91-3.03-3.03Z" style="fill: #161616;"/>
    </g>
    <g id="head">
      <path d="M105.91,159.66c-.72,3.9,0,9.09,1.59,19.05,4.47,30.31,7.65,50.96,20.21,73.33,8.52,15.01,21.22,37.68,46.91,45.47,13.42,4.04,25.41,2.6,32.77,1.15,.72,4.04,2.02,8.95,4.19,14.15,5.05,11.84,12.56,19.63,17.61,24.11,3.46-.29,13.42-1.88,22.09-9.96,6.06-5.63,8.81-11.84,9.96-15.3-3.03-3.61-6.78-8.95-9.53-16.02-4.91-12.13-4.47-23.1-3.75-29.01,1.59-12.27,3.03-24.4,4.62-36.67,2.17,0,6.5-.43,10.25-3.46,6.78-5.34,8.23-16.02,3.75-23.24-2.45-4.04-8.37-9.82-14.87-8.08-5.49,1.59-7.65,7.51-8.08,8.37-.43-11.84-2.6-30.31-11.12-51.1-7.51-18.33-12.85-31.47-25.12-38.98-32.19-19.49-95.13,10.83-101.48,46.19Z" style="fill: #fff;"/>
      <path d="M105.04,170.77c4.04,43.16,16.31,94.12,53.41,121.11,17.61,12.85,40.71,14.15,60.2,4.76,19.63-9.38,32.62-28.73,37.68-49.66,.58-2.74-3.46-3.9-4.19-1.15-4.76,19.78-16.89,38.11-35.66,47.06-21.51,10.25-45.33,5.77-62.5-10.25-30.31-28.44-41-72.03-44.75-111.87,0-2.74-4.33-2.74-4.19,0Z" style="fill: #161616;"/>
      <path d="M205.66,299.68c3.46,14.58,7.94,29.74,21.65,37.96,2.45,1.44,4.62-2.31,2.17-3.75-12.7-7.51-16.46-21.94-19.63-35.37-.58-2.74-4.76-1.59-4.19,1.15Z" style="fill: #161616;"/>
      <path d="M245.06,269.22c1.44,16.17,3.46,32.91,14.87,45.33,1.88,2.02,4.91-1.01,3.03-3.03-10.54-11.55-12.27-27.43-13.57-42.3-.29-2.74-4.62-2.74-4.33,0Z" style="fill: #161616;"/>
      <path d="M229.33,338.95c15.16-1.59,27.72-11.26,32.91-25.69,1.01-2.6-3.18-3.75-4.19-1.15-4.47,12.41-15.73,21.08-28.73,22.52-2.74,.29-2.74,4.62,0,4.33Z" style="fill: #161616;"/>
      <path d="M246.36,205.13c.14-6.78,7.07-10.25,12.85-7.22,3.61,1.88,5.63,5.34,6.35,9.09,1.3,6.21-2.74,23.53-12.7,19.34-2.6-1.01-4.76,2.6-2.17,3.75,15.01,6.5,22.95-17.18,17.9-28-5.77-12.56-26.27-12.99-26.71,3.03,.14,2.89,4.47,2.89,4.47,0Z" style="fill: #161616;"/>
      <path d="M209.55,303c14-2.02,23.67-10.83,31.04-22.37,1.44-2.31-2.31-4.47-3.75-2.17-6.78,10.83-15.45,18.48-28.44,20.35-2.74,.43-1.59,4.62,1.15,4.19Z" style="fill: #161616;"/>
      <path d="M209.84,306.18c16.17-1.44,30.03-19.2,36.81-32.48,1.3-2.45-2.45-4.62-3.75-2.17-5.92,11.69-18.77,29.01-33.06,30.31-2.74,.14-2.74,4.47,0,4.33Z" style="fill: #161616;"/>
      <path d="M209.55,308.34c9.67,.29,16.89-7.94,23.24-14.29,6.35-6.35,13.57-13.42,14.58-22.81,.29-2.74-4.04-2.74-4.33,0-.72,7.94-7.94,14.44-13.28,19.78-5.34,5.49-11.98,13.14-20.21,12.99-2.89,0-2.89,4.33,0,4.33Z" style="fill: #161616;"/>
      <path d="M107.35,177.41c-4.33-5.63-12.99-18.33-12.7-35.08,.58-32.19,33.78-50.96,38.4-53.55,15.16-8.52,24.68-7.51,59.91-13.57,24.83-4.33,44.61-9.09,57.02-12.27-5.49,6.21-10.97,12.41-16.46,18.62,7.22,2.17,14.72,4.62,22.37,7.65,20.93,7.94,39.12,17.32,54.42,26.56-7.36,2.74-14.58,5.63-21.94,8.37,5.05,1.88,25.12,10.1,32.91,30.31,5.05,13.42,2.45,25.98,1.3,31.18-5.63,25.55-24.11,31.61-22.81,48.94,.43,5.2,2.74,12.85,12.7,21.94-5.92-.58-11.84-1.15-17.76-1.73,1.59,5.05,3.03,10.1,4.62,15.16-4.19,1.3-11.69,3.03-20.64,1.73-3.75-.58-23.39-3.61-29.88-19.78-4.19-10.54-.58-20.64,.87-24.11,3.32,1.44,7.94,2.74,11.84,.87,9.82-4.76,10.83-27.43,1.3-33.78-3.32-2.17-8.52-2.74-13.14-.87-4.91,2.17-7.07,6.35-7.65,7.65-4.19-1.3-10.1-3.9-15.16-9.24-14.72-15.45-8.08-38.98-7.65-40.56-5.92-.29-15.16-1.3-25.69-5.05-13.28-4.76-17.61-9.82-27.86-11.84-6.35-1.15-16.17-1.44-29.59,4.62-4.19,2.02-10.25,5.49-16.02,11.84-9.09,10.1-11.69,20.93-12.7,25.98Z" style="fill: #a6a6a6;"/>
      <path d="M200.17,147.24c8.52,17.03,13.14,31.76,15.73,42.15,4.47,18.04,11.69,49.8,.58,85.46-3.03,9.82-6.78,17.32-9.38,21.94,7.36-3.61,14.72-7.07,21.94-10.68,5.92,15.01,11.69,30.17,17.61,45.18,4.76-5.63,9.67-11.26,14.44-17.03-3.75-4.91-10.54-15.59-12.56-30.75-1.44-11.12,.29-20.21,1.88-25.69,3.18,1.88,6.35,3.75,9.38,5.63,3.46,2.17,8.81,4.76,15.73,6.35,9.53,2.02,17.47,1.01,21.94,0-1.3-5.2-2.45-10.54-3.75-15.73,6.06,.87,12.13,1.73,18.19,2.45-2.45-1.59-7.07-5.2-10.1-11.26-4.91-9.96-2.02-19.49-1.3-21.94,2.89-9.38,8.37-10.68,14.44-19.49,2.02-3.03,9.96-16.02,8.81-33.35-1.01-15.16-8.37-25.41-10.1-27.72-10.1-13.57-23.96-17.76-28.29-18.91,7.8-2.89,15.45-5.92,23.24-8.81-4.33-2.45-31.18-16.89-63.52-6.35-29.01,9.82-42.15,33.49-44.89,38.54Z" style="fill: rgba(96, 96, 96, .13);"/>
    </g>
  </g>
  <g id="Layer_3" data-name="Layer 3">
    <path d="M186.86,238.48c6.59-22.9,16.77-39.75,17-58.72,.21-4.99-2.06-8.67-5.85-12.27-5.38-4.99-26.73-22.57-47.1-10.6-19.51,12.61-10.75,24.29-6.97,25.08,5.57-26.48,41.44-15.62,45.44-11.23,4.2,4.59,5.02,8.15,4.42,13.73-1.39,13.97-13.44,50.64-16.43,64.42-.79,3.78,4.99,5.38,5.78,1.6l3.71-12.01Z" style="fill: #161616; stroke: #161616; stroke-miterlimit: 10; stroke-width: 7px;"/>
    <path d="M173.05,265.15c-2.42,2.87-2.41,7.43,.27,10.17,3.07,3.14,8.48,2.75,11.26-.54,2.42-2.87,2.41-7.43-.27-10.17-3.07-3.14-8.48-2.75-11.26,.54Z" style="fill: #161616;"/>
  </g>
</svg>