<?xml version="1.0" encoding="UTF-8" standalone="no"?>
<!DOCTYPE svg PUBLIC "-//W3C//DTD SVG 1.1//EN" "http://www.w3.org/Graphics/SVG/1.1/DTD/svg11.dtd">
<svg width="100%" height="100%" viewBox="0 0 512 512" version="1.1" xmlns="http://www.w3.org/2000/svg" xmlns:xlink="http://www.w3.org/1999/xlink" xml:space="preserve" xmlns:serif="http://www.serif.com/" style="fill-rule:evenodd;clip-rule:evenodd;stroke-linejoin:round;stroke-miterlimit:2;">
    <g id="main">
        <g id="torso" transform="matrix(1.284,0,0,1.284,-734.524,3.51909)">
            <path d="M701.1,302.4C709.5,296 719.5,289.9 731.4,284.9C785.5,262.1 838.7,280.4 857.1,287.7C861.6,306.6 867,335.4 867.9,370.9C868.242,383.76 867.89,393.791 867.336,403.277C866.593,415.995 706.825,420.927 703.822,406.56C702.722,401.302 701.665,395.486 700.7,388.6C695.6,352.4 698.2,322.2 701.1,302.4Z" style="fill:rgb(102,35,129);fill-rule:nonzero;"/>
        </g>
        <g id="hand_left" transform="matrix(1.284,0,0,1.284,-734.524,3.51909)">
            <path d="M850.6,288.5C847.5,290.5 847.4,295.3 847.4,300.9C847.4,323.6 847.4,334.9 848.5,339.6C850.3,347.3 854.2,355.1 861.9,370.3C868.667,383.703 873.19,392.704 877.975,400.304C880.545,404.385 940.6,401.9 937.2,399.4C931,394.8 926.7,390.1 923.4,386.1C918.2,379.7 914.3,373.5 908.2,362.3C898.8,344.8 899.2,343.1 890.3,326.9C889.6,325.7 890.5,327.3 876.2,304.8C873.4,300.4 871,296.5 866.2,293.1C864.5,291.7 855.5,285.4 850.6,288.5Z" style="fill:white;fill-rule:nonzero;"/>
            <path d="M847.1,303.1C848.3,306.6 849.7,310.2 851.3,313.9C852.6,316.9 853.9,319.8 855.3,322.6C857.306,332.804 865.245,368.111 894.51,396.012C898.799,400.101 889.6,415.8 882.4,406.3C871.4,391.7 865.5,378.9 860.5,367.7C855.5,356.6 852,349 849.5,337.9C846.3,323.5 846.4,311.3 847.1,303.1Z" style="fill:rgb(130,130,130);fill-opacity:0.19;fill-rule:nonzero;"/>
            <g>
                <g>
                    <path d="M851.6,287.9C868.7,290.2 876.7,308 884.1,321.4C892.6,336.8 901,352.1 909.5,367.5C915.8,379 922.2,391.2 933,399.1C943.9,407.1 943.6,404.5 931.9,394.3C920.6,384.4 914.1,369.5 907,356.6C898.9,341.9 890.8,327.1 882.7,312.4C875.7,299.9 867.1,286.9 851.7,284.9C849.6,284.6 849.7,287.6 851.6,287.9Z" style="fill:rgb(22,22,22);fill-rule:nonzero;"/>
                </g>
            </g>
            <g>
                <g>
                    <path d="M854,360C869.89,387.929 895.639,427.695 880.9,401.1C880.2,399.969 881.972,399.727 881.066,398.755C871.572,388.57 864.784,371.177 856.7,358.5C855.6,356.9 853,358.4 854,360Z" style="fill:rgb(22,22,22);fill-rule:nonzero;"/>
                </g>
            </g>
            <g>
                <g>
                    <path d="M850.1,285.4C841.4,309.8 843,336.8 854.4,360C855.3,361.7 857.8,360.2 857,358.5C845.9,336 844.5,309.8 853,286.2C853.7,284.4 850.8,283.6 850.1,285.4Z" style="fill:rgb(22,22,22);fill-rule:nonzero;"/>
                </g>
            </g>
        </g>
        <g id="hand_right" transform="matrix(1.284,0,0,1.284,-734.524,3.51909)">
            <path d="M699.1,304C695.8,303.7 692.8,307.2 686.9,316.6C673.7,337.4 667.9,351 667.9,351C653.5,385.2 652.9,388.8 647.2,400.4C640.1,414.8 690.305,410.519 695.599,399.903C697.421,396.249 699.087,392.569 700.7,388.6C707,373.1 709.3,362.2 710.3,355.7C712.7,341.3 711.7,333 711.2,329.7C710.9,328.3 707.2,304.7 699.1,304Z" style="fill:white;fill-rule:nonzero;"/>
            <path d="M709.7,320.2C708.2,329.3 705.6,341.5 701,355.4C694.63,374.37 686.727,389.601 680.177,400.463C677.266,405.29 693.061,404.37 693.835,402.891C697.119,396.619 700.325,390.04 703.4,381.3C705.6,375.1 708.5,366.7 710.2,355.7C711.4,347.5 712.3,335.2 709.7,320.2Z" style="fill:rgb(130,130,130);fill-opacity:0.18;fill-rule:nonzero;"/>
            <g>
                <g>
                    <path d="M700.4,301.1C679.3,317.4 669.5,342.5 660.1,366.5C655.573,377.928 650.826,389.191 645.573,400.248C643.747,404.091 647.498,403.159 648.47,401.13C651.353,395.109 654.082,389.032 656.7,382.9C662.3,369.7 667,356.1 673.1,343C680,328 688.8,313.7 702,303.5C703.4,302.5 701.9,299.9 700.4,301.1Z" style="fill:rgb(22,22,22);fill-rule:nonzero;"/>
                </g>
            </g>
            <g>
                <g>
                    <path d="M544.9,482.4C564.6,487.5 585,487.7 605,484.5C622.5,481.7 641.5,476.8 654.8,464.4C661.5,458.2 666.5,450.3 671.4,442.7C677,434.1 682.6,425.5 687.8,416.7C697.8,399.7 706.5,381.7 710.5,362.3C714.7,342.2 713.9,321.1 705.4,302.2C704.6,300.4 702,302 702.8,303.7C718.6,338.9 706.2,377.9 688.3,409.7C679.5,425.4 669.9,441.9 658.5,455.9C646.7,470.5 629.3,476.5 611.5,480.2C589.8,484.7 567.2,485.1 545.7,479.5C543.8,479.1 543,482 544.9,482.4Z" style="fill:rgb(22,22,22);fill-rule:nonzero;"/>
                </g>
            </g>
        </g>
        <g id="head" transform="matrix(1.284,0,0,1.284,-734.524,3.51909)">
            <path d="M714.3,148.3C713.4,153.2 715.1,158.7 713.3,174.8C713,178 712.6,180.6 712.3,182.3C711,182.3 706.7,182.5 703.4,185.6C699,189.9 699,197.2 702.2,202.2C705.3,207.1 711.3,209.6 717.3,208.5C718.7,214.4 720.6,219 722,221.9C728.5,235.4 738.1,243.8 745.2,249.8C748.5,252.6 751.4,254.8 753.2,256.1C753.5,264.1 753.9,272.2 754.2,280.2C757.2,280.6 760.6,280.8 764.5,280.7C773.2,280.3 780.2,277.9 785,275.8C784.9,268.2 784.8,260.6 784.8,253C787.3,251.1 790.9,248.2 794.8,244.1C803.6,235 803.5,231 809.9,224C820.2,212.6 826.5,216.3 833.4,206.3C838.3,199.1 838.9,191.6 839.4,184.8C840.4,170.8 836.2,160.1 832.9,151.9C827.8,139.3 824.4,131 816.4,124.9C804.1,115.6 788.8,118 770.5,120.9C760.8,122.7 717.9,129.4 714.3,148.3Z" style="fill:white;fill-rule:nonzero;"/>
            <path d="M796.7,151C797.4,155.6 798.3,162.4 798.5,170.5C798.8,181.9 799.1,200.7 790.7,221.8C784.1,238.2 774.4,250.5 765.6,259.1C769.7,257.8 773.8,256.6 777.9,255.3C777.6,263.2 777.3,271.1 777.1,279C780.3,277.9 783.5,276.8 786.7,275.7C786.1,274.6 780.2,263.4 785.9,252.1C789.5,245.1 795.5,242 797.7,241C801.4,237 806.4,231 810.4,222.5C813.9,215.2 815.5,208.6 816.4,203.6C818.3,203.7 821.6,203.7 825.2,202.2C826.8,201.5 834.6,197.8 835.1,190.6C835.2,189.8 835.5,184.3 831.3,181.4C827.9,179 822.9,179.3 819,182.3C824.2,172.9 822.6,161.7 815.7,155.4C808.2,148.6 797.7,150.8 796.7,151Z" style="fill:rgb(130,130,130);fill-opacity:0.13;fill-rule:nonzero;"/>
            <path d="M687.3,185.2C685.4,175.8 683.7,159.5 690.6,141.9C701.1,114.9 728.4,93.7 758.2,93.3C772.5,93.1 783.8,97.8 790.4,101.2C787.1,107.2 781.3,116.1 771.4,123.5C754.9,135.9 741.8,132.9 729.4,143.2C722.6,148.8 714.5,159.6 712.4,182.4C711.4,182.5 705.9,183 702.6,187.6C698.7,192.8 699.6,200.7 704.2,205.2C708.3,209.1 713.7,208.9 714.8,208.8C718.2,217 722.1,223.5 725.3,228.3C728.1,232.5 732.3,238.7 739.4,245.5C744.6,250.4 749.6,253.9 753.3,256.3C754.8,261.1 757,270.1 754.3,280.4C750.2,296.4 735.9,311.8 717.5,313.2C697.2,314.7 683.6,298.6 682,296.6C671.1,283.1 671.8,267.1 673,245.6C673.9,231.7 676.8,210.3 687.3,185.2Z" style="fill:rgb(16,112,238);fill-rule:nonzero;"/>
            <path d="M753,113C751.2,119.7 759.6,127.5 766.1,133.3C773.4,139.9 789,151.7 815.8,155.6C816.8,164.3 817.7,173 818.7,181.8C823.8,178.9 829.7,179.6 832.9,183C836.7,187.1 834.7,193.3 834.5,193.9C832.6,199.9 825.8,204 817.9,203.4C816.1,210.8 812.3,222.5 803.6,234.5C797.2,243.3 790.2,249.4 784.9,253.2C784.7,258.1 785.1,265.7 788.5,273.8C795.2,289.4 812.5,305.1 831.6,302.8C851.8,300.4 862.1,279.2 865.4,272.5C875.1,252.5 871.4,233.1 868.8,219.4C865.1,199.9 857.2,185 850.9,175.3C852,169.9 855.2,152.1 845.4,134C832.1,109.3 805.9,104.3 799.6,103.1C780.9,99.6 755.7,102.8 753,113Z" style="fill:rgb(16,112,238);fill-rule:nonzero;"/>
            <g>
                <g>
                    <path d="M712.8,148.3C711.4,172.7 710.2,198.2 720.1,221.2C728.4,240.6 744.8,255.1 765.3,260.6C767.2,261.1 768,258.2 766.1,257.7C745.1,252.1 728.9,236.7 721.4,216.4C713.3,194.6 714.6,171.1 715.9,148.3C715.9,146.4 712.9,146.4 712.8,148.3Z" style="fill:rgb(22,22,22);fill-rule:nonzero;"/>
                </g>
            </g>
            <g>
                <g>
                    <path d="M766.9,260.1C786.6,256.6 802.6,242.2 811.2,224.5C821.6,203 821.1,178.2 817.3,155.2C817,153.3 814.1,154.1 814.4,156C818.1,178.2 818.7,202.3 808.6,223C800.3,240.1 785.2,253.9 766.1,257.2C764.2,257.6 765,260.5 766.9,260.1Z" style="fill:rgb(22,22,22);fill-rule:nonzero;"/>
                </g>
            </g>
            <g>
                <g>
                    <path d="M713.1,181C704.3,176.2 699.2,188.8 699.2,195.7C699.2,204.4 706.2,211.7 715.1,210.1C717,209.7 716.2,206.9 714.3,207.2C708.6,208.3 703.7,204.1 702.5,198.7C701.5,194.3 703.9,179.5 711.5,183.6C713.3,184.6 714.8,182 713.1,181Z" style="fill:rgb(22,22,22);fill-rule:nonzero;"/>
                </g>
            </g>
            <g>
                <g>
                    <path d="M819.8,182.8C826.3,176.9 835,184.1 833.5,191.8C832.1,199.1 824.7,202.2 817.9,201.8C816,201.7 816,204.7 817.9,204.8C827.6,205.5 837.8,198.9 836.6,188.1C835.5,179 824.6,174.4 817.7,180.7C816.2,182 818.3,184.1 819.8,182.8Z" style="fill:rgb(22,22,22);fill-rule:nonzero;"/>
                </g>
            </g>
            <g>
                <g>
                    <path d="M751.8,256.2C752.2,262 752.4,267.9 753.1,273.6C753.5,276.8 754.4,279.7 757.4,281.2C761.1,283 766.6,282.4 770.5,281.9C775.9,281.2 780.9,279.6 785.8,277.2C787.5,276.3 786,273.8 784.3,274.6C777.8,277.8 768,281 760.7,279C755.4,277.5 756,272.2 755.7,267.9C755.4,264 755.1,260.1 754.8,256.2C754.6,254.3 751.6,254.3 751.8,256.2Z" style="fill:rgb(22,22,22);fill-rule:nonzero;"/>
                </g>
            </g>
            <g>
                <g>
                    <path d="M783.3,253.1C783.1,260 783.4,266.8 784.3,273.6C784.5,275.5 787.5,275.5 787.3,273.6C786.5,266.8 786.1,260 786.3,253.1C786.3,251.2 783.3,251.2 783.3,253.1Z" style="fill:rgb(22,22,22);fill-rule:nonzero;"/>
                </g>
            </g>
            <g>
                <g>
                    <path d="M753.1,170C753.1,186.6 754.1,203.2 756.1,219.7C756.3,221 758.2,221.9 758.9,220.5C761.9,214.4 763.7,208.1 764.4,201.4C764.6,199.5 761.6,199.5 761.4,201.4C760.8,207.6 759.1,213.4 756.3,219C757.2,219.3 758.2,219.5 759.1,219.8C757.1,203.3 756.1,186.7 756.1,170.1C756.1,168.1 753.1,168.1 753.1,170Z" style="fill:rgb(22,22,22);fill-rule:nonzero;"/>
                </g>
            </g>
            <g>
                <g>
                    <path d="M755.5,232.6C768.1,235.3 781.3,228.9 786.7,217.1C787.5,215.4 784.9,213.8 784.1,215.6C779.3,226.1 767.7,232.1 756.3,229.7C754.4,229.3 753.6,232.2 755.5,232.6Z" style="fill:rgb(22,22,22);fill-rule:nonzero;"/>
                </g>
            </g>
            <g>
                <g>
                    <path d="M726.5,179.1C727.5,175.1 730.3,171 734.6,169.9C740.1,168.5 743.2,174.8 744.1,179.1C744.5,181 747.4,180.2 747,178.3C745.8,172.9 741.8,166 735.4,166.6C729.4,167.2 725,172.8 723.6,178.3C723.1,180.2 726,181 726.5,179.1Z" style="fill:rgb(22,22,22);fill-rule:nonzero;"/>
                </g>
            </g>
            <g>
                <g>
                    <path d="M780.8,176.6C781.5,171.3 786.5,165.9 792.2,167.3C797.4,168.6 798.6,174.2 799.3,178.8C799.6,180.7 802.5,179.9 802.2,178C801.1,171.3 798,163.3 789.8,164C783.2,164.6 778.6,170.3 777.8,176.6C777.6,178.5 780.6,178.5 780.8,176.6Z" style="fill:rgb(22,22,22);fill-rule:nonzero;"/>
                </g>
            </g>
            <g>
                <g>
                    <path d="M728.8,193.4L728.4,193.4C727.6,193.4 726.9,194.1 726.9,194.9C726.9,195.7 727.6,196.4 728.4,196.4L728.8,196.4C729.6,196.4 730.3,195.7 730.3,194.9C730.3,194 729.6,193.4 728.8,193.4Z" style="fill:rgb(22,22,22);fill-rule:nonzero;"/>
                </g>
            </g>
            <g>
                <g>
                    <path d="M743.5,193.5C745.4,193.5 745.4,190.5 743.5,190.5C741.5,190.5 741.5,193.5 743.5,193.5Z" style="fill:rgb(22,22,22);fill-rule:nonzero;"/>
                </g>
            </g>
            <g>
                <g>
                    <path d="M741,205C742.9,205 742.9,202 741,202C739,202 739,205 741,205Z" style="fill:rgb(22,22,22);fill-rule:nonzero;"/>
                </g>
            </g>
            <g>
                <g>
                    <path d="M782.5,191.3C784.4,191.3 784.4,188.3 782.5,188.3C780.6,188.3 780.6,191.3 782.5,191.3Z" style="fill:rgb(22,22,22);fill-rule:nonzero;"/>
                </g>
            </g>
            <g>
                <g>
                    <path d="M800.8,188.1C802.7,188.1 802.7,185.1 800.8,185.1C798.9,185.1 798.9,188.1 800.8,188.1Z" style="fill:rgb(22,22,22);fill-rule:nonzero;"/>
                </g>
            </g>
            <g>
                <g>
                    <path d="M793.6,198.1C795.5,198.1 795.5,195.1 793.6,195.1C791.7,195.1 791.7,198.1 793.6,198.1Z" style="fill:rgb(22,22,22);fill-rule:nonzero;"/>
                </g>
            </g>
        </g>
    </g>
</svg>
