<?xml version="1.0" encoding="UTF-8" standalone="no"?>
<!DOCTYPE svg PUBLIC "-//W3C//DTD SVG 1.1//EN" "http://www.w3.org/Graphics/SVG/1.1/DTD/svg11.dtd">
<svg width="100%" height="100%" viewBox="0 0 512 512" version="1.1" xmlns="http://www.w3.org/2000/svg" xmlns:xlink="http://www.w3.org/1999/xlink" xml:space="preserve" xmlns:serif="http://www.serif.com/" style="fill-rule:evenodd;clip-rule:evenodd;stroke-linejoin:round;stroke-miterlimit:2;">
    <g id="hand_right" transform="matrix(3.50454,-0.742233,0.742233,3.50454,-1565.28,-12.1454)">
        <g transform="matrix(1,0,0,1,-17.8,-33.9)">
            <path d="M447.21,270.67C446.334,268.323 445.116,290.281 447.23,290.29C450.07,290.29 456.35,289.97 468.47,283.95C477.21,279.59 481.58,277.42 484,273.69C487.57,268.17 488.81,260.17 485.5,255.16C485.05,254.47 483.34,251.88 480.74,251.65C478.49,251.45 476.74,253.12 474.98,254.65C471.64,257.55 467.68,259.65 464.21,262.41C459.172,266.304 453.384,269.116 447.21,270.67Z" style="fill:white;fill-rule:nonzero;"/>
        </g>
        <g transform="matrix(1,0,0,1,-17.8,-33.9)">
            <path d="M481,251.72C475.61,251.93 471.41,256.81 467.16,259.66C461.098,263.695 446.331,269.45 442.385,275.57C441.875,276.372 443.023,277.336 443.549,276.522C446.615,271.777 458.599,266.659 463.46,263.78C465.98,262.273 468.433,260.66 470.82,258.94C473.91,256.7 476.93,253.38 481,253.22C482,253.22 482,251.69 481,251.72Z" style="fill-rule:nonzero;"/>
        </g>
        <g transform="matrix(1,0,0,1,-17.8,-33.9)">
            <path d="M440.75,290.42C446.52,292.47 454.08,290.15 459.66,288.36C466.339,286.17 472.633,282.944 478.31,278.8C479.08,278.24 478.31,276.94 477.55,277.51C472.433,281.251 466.806,284.239 460.84,286.38C455.1,288.38 447.07,291.08 441.14,288.97C440.23,288.64 439.84,290.09 440.75,290.42Z" style="fill-rule:nonzero;"/>
        </g>
    </g>
    <g transform="matrix(3.50454,-0.742233,0.742233,3.50454,-1652.83,-117.738)">
        <g id="torso">
            <path d="M488.35,250C484.707,250.389 481.158,251.404 477.86,253C466.179,258.817 460.831,271.061 457.766,280.472C456.933,283.033 507.362,299.728 508.966,291.316C514.204,263.85 511.134,257.216 507.26,253.74C504.63,251.41 499.4,248.51 488.35,250Z" style="fill:rgb(102,35,129);fill-rule:nonzero;"/>
        </g>
    </g>
    <g id="hand_left" transform="matrix(3.50454,-0.742233,0.742233,3.50454,-1565.28,-12.1454)">
        <g transform="matrix(1,0,0,1,-17.8,-33.9)">
            <path d="M501.07,251.52C499.68,251.38 495.87,251 493.07,253.37C490.27,255.74 489.99,259.37 489.82,262.04C489.647,266.315 490.465,270.573 492.21,274.48C493.275,277.266 494.308,280.882 495.728,286.434C496.561,289.692 521.064,294.309 520.448,291.442C518.711,283.366 518.067,283.359 516.96,275.02C516.238,269.736 514.742,264.588 512.52,259.74C511.376,257.291 509.567,255.211 507.3,253.74C505.431,252.513 503.294,251.752 501.07,251.52Z" style="fill:white;fill-rule:nonzero;"/>
        </g>
        <g transform="matrix(1,0,0,1,-17.8,-33.9)">
            <path d="M501.34,253.5C503.32,256.369 505.143,259.343 506.8,262.41C512.255,272.505 515.045,282.011 516.659,291.166C517.858,297.972 520.941,293.974 520.517,291.828C517.903,278.595 518.375,282.459 517.73,278.26C517.25,275.18 516,270.8 513.51,262.03C513.05,259.915 512.011,257.969 510.51,256.41C507.53,253.6 503.37,253.43 501.34,253.5Z" style="fill:rgb(145,145,145);fill-opacity:0.15;fill-rule:nonzero;"/>
        </g>
        <g transform="matrix(1,0,0,1,-17.8,-33.9)">
            <path d="M493.53,252.4C485.11,255.91 490.09,270.16 491.91,276.26C492.837,279.324 493.722,282.4 494.565,285.488C497.266,295.371 498.93,295.57 496.3,285.98C494.54,279.52 484.93,257.6 493.93,253.85C494.81,253.48 494.43,252.03 493.53,252.4Z" style="fill-rule:nonzero;"/>
        </g>
        <g transform="matrix(1,0,0,1,-17.8,-33.9)">
            <path d="M501.54,254.22C513.54,249.57 516.9,277.81 518.43,284.93C518.975,287.464 519.493,290.004 519.983,292.548C521.918,302.59 523.332,301.946 521.316,291.592C520.242,286.072 519.039,280.577 517.71,275.11C516,268.11 512.91,248.2 501.14,252.77C500.25,253.12 500.63,254.57 501.54,254.22Z" style="fill-rule:nonzero;"/>
        </g>
    </g>
    <g id="head" transform="matrix(3.50454,-0.742233,0.742233,3.50454,-1565.28,-12.1454)">
        <g transform="matrix(1,0,0,1,-17.8,-33.9)">
            <path d="M478,196C476.39,198.54 475.87,200.82 474.92,204.94C473.544,211.037 473.408,217.349 474.52,223.5C475.176,227.039 476.232,230.491 477.67,233.79C479.49,238.16 480.52,240.54 483.03,242.4C485.399,244.063 488.248,244.906 491.14,244.8L487.62,251.12C489.25,252.214 491.072,252.991 492.99,253.41C496.752,254.168 500.663,253.606 504.06,251.82C505.604,248.568 507.313,245.398 509.18,242.32C511.173,239.034 513.34,235.856 515.67,232.8C518.425,233.993 521.573,233.897 524.25,232.54C526.44,231.313 528.051,229.259 528.72,226.84C528.97,225.75 528.97,224.66 527.92,220.84C526.58,216 525.27,211.42 521.8,205.91C521.32,205.15 520.71,204.23 519.67,202.82C512.6,193.18 509.06,188.37 504.03,186.4C495.21,182.93 483,188.05 478,196Z" style="fill:white;fill-rule:nonzero;"/>
        </g>
        <g transform="matrix(1,0,0,1,-17.8,-33.9)">
            <path d="M478.67,193.08C470.97,207.54 470.61,227.96 481.15,241.32C485.7,247.09 494.67,245.78 500.86,243.7C508.244,241.206 514.515,236.182 518.56,229.52C519.07,228.7 517.78,227.94 517.27,228.76C513.551,234.87 507.866,239.539 501.15,242C498.017,243.158 494.71,243.773 491.37,243.82C485.32,243.82 482.29,241.02 479.61,235.92C472.808,222.689 472.943,206.923 479.97,193.81C480.42,192.96 479.13,192.2 478.67,193.05L478.67,193.08Z" style="fill-rule:nonzero;"/>
        </g>
        <g transform="matrix(1,0,0,1,-17.8,-33.9)">
            <path d="M516.17,232.71C520.82,235.97 526.59,233.28 528.88,228.53C530.99,224.15 529.64,218.29 523.88,218.47C523.469,218.47 523.13,218.809 523.13,219.22C523.13,219.631 523.469,219.97 523.88,219.97C529.31,219.8 529.05,225.75 526.88,229.08C524.71,232.41 520.38,233.81 516.96,231.41C516.17,230.86 515.41,232.16 516.2,232.71L516.17,232.71Z" style="fill-rule:nonzero;"/>
        </g>
        <g transform="matrix(1,0,0,1,-17.8,-33.9)">
            <path d="M515.89,230.6C510.977,237.54 506.629,244.863 502.89,252.5C502.47,253.36 503.76,254.12 504.18,253.25C507.926,245.617 512.273,238.294 517.18,231.35C517.74,230.56 516.44,229.81 515.88,230.6L515.89,230.6Z" style="fill-rule:nonzero;"/>
        </g>
        <g transform="matrix(1,0,0,1,-17.8,-33.9)">
            <path d="M490.54,244.38L487.7,249.59C487.24,250.43 488.54,251.19 489,250.34L491.83,245.14C492.29,244.29 491,243.54 490.54,244.38Z" style="fill-rule:nonzero;"/>
        </g>
        <g transform="matrix(1,0,0,1,-17.8,-33.9)">
            <path d="M497,201.63C493.147,207.958 490.622,215.005 489.58,222.34C489.51,222.83 489.9,223.51 490.5,223.26C492.211,222.591 493.771,221.588 495.09,220.31C495.79,219.65 494.73,218.59 494.03,219.25C492.955,220.421 491.604,221.304 490.1,221.82L491.02,222.74C492.036,215.532 494.514,208.607 498.3,202.39C498.367,202.275 498.403,202.144 498.403,202.01C498.403,201.597 498.063,201.257 497.65,201.257C497.383,201.257 497.135,201.399 497,201.63Z" style="fill-rule:nonzero;"/>
        </g>
        <g transform="matrix(1,0,0,1,-17.8,-33.9)">
            <path d="M488.27,231.15C485.05,226.15 492.85,226.74 495.27,226.15C496.94,225.77 497.53,225.08 498.7,223.95C500.28,222.42 502.49,220.02 504.7,223.09C506.26,225.24 504.85,228.38 503.3,230.09C500.68,232.94 496.03,234.68 492.3,233.69C492.254,233.681 492.208,233.677 492.162,233.677C491.75,233.677 491.412,234.016 491.412,234.427C491.412,234.74 491.607,235.021 491.9,235.13C496.5,236.36 502.31,234.13 505.13,230.24C507.2,227.42 507.79,221.83 503.7,220.36C502.067,219.903 500.31,220.307 499.04,221.43C497.66,222.51 497.34,223.43 495.63,224.18C493.63,225 492.01,224.57 490.01,224.96C487.809,225.23 486.136,227.12 486.136,229.337C486.136,230.252 486.421,231.144 486.95,231.89C487.46,232.7 488.76,231.95 488.24,231.13L488.27,231.15Z" style="fill-rule:nonzero;"/>
        </g>
        <g transform="matrix(1,0,0,1,-17.8,-33.9)">
            <path d="M488.64,207.1C488.65,206.468 488.913,205.866 489.37,205.43L488.09,204.9C488.182,206.092 487.825,207.277 487.09,208.22L488.46,208.4C488.427,207.405 488.666,206.42 489.15,205.55C489.53,204.67 488.24,203.91 487.85,204.79C487.198,206.017 486.91,207.405 487.02,208.79C487.12,209.52 488.02,209.4 488.39,208.97C489.285,207.806 489.726,206.355 489.63,204.89C489.617,204.482 489.278,204.154 488.87,204.154C488.677,204.154 488.491,204.228 488.35,204.36C487.617,205.081 487.197,206.062 487.18,207.09C487.18,207.501 487.519,207.84 487.93,207.84C488.341,207.84 488.68,207.501 488.68,207.09L488.64,207.1Z" style="fill-rule:nonzero;"/>
        </g>
        <g transform="matrix(1,0,0,1,-17.8,-33.9)">
            <path d="M504.08,211.35C504.179,210.485 504.596,209.686 505.25,209.11L503.97,208.58C503.945,209.076 503.854,209.567 503.7,210.04C503.64,210.26 503.38,211.18 503.15,211.28L503.9,211.28C504.03,211.41 504.07,211.37 504.04,211.16C504.081,211.033 504.149,210.917 504.24,210.82C504.82,210.05 503.52,209.3 502.94,210.06C502.536,210.598 502.416,211.299 502.62,211.94C502.725,212.357 503.102,212.651 503.532,212.651C503.7,212.651 503.865,212.606 504.01,212.52C504.493,212.076 504.84,211.504 505.01,210.87C505.286,210.136 505.444,209.363 505.48,208.58C505.467,208.172 505.128,207.844 504.72,207.844C504.527,207.844 504.341,207.918 504.2,208.05C503.276,208.914 502.702,210.09 502.59,211.35C502.49,212.35 503.99,212.35 504.09,211.35L504.08,211.35Z" style="fill-rule:nonzero;"/>
        </g>
        <g transform="matrix(1,0,0,1,-17.8,-33.9)">
            <path d="M488.25,198.52C489.17,197.23 491.1,195.71 492.51,197.3C493.15,198.02 494.21,196.96 493.57,196.24C491.46,193.86 488.42,195.71 486.96,197.77C486.4,198.55 487.7,199.3 488.25,198.52Z" style="fill-rule:nonzero;"/>
        </g>
        <g transform="matrix(1,0,0,1,-17.8,-33.9)">
            <path d="M506.63,202.71C508.31,200.71 510.38,203.07 510.84,204.78C510.93,205.105 511.228,205.332 511.565,205.332C511.978,205.332 512.317,204.993 512.317,204.58C512.317,204.512 512.308,204.445 512.29,204.38C511.97,202.824 510.946,201.5 509.52,200.8C508.16,200.213 506.568,200.556 505.57,201.65C504.95,202.38 506,203.45 506.63,202.71Z" style="fill-rule:nonzero;"/>
        </g>
        <g transform="matrix(1,0,0,1,-17.8,-33.9)">
            <path d="M475.41,203.1C470.3,202.85 465.75,200.26 464.05,196.32C461.57,190.58 465.2,182.04 473.68,179.03C474.42,170.66 477.93,168.1 478.98,167.44C485.72,163.18 499.7,168.57 511.21,183.75C526.71,186.009 537.904,200.145 536.55,215.75C538.14,216.62 543.81,219.99 545.4,226.36C547.4,234.36 542.17,244.09 532.03,248.57C529.725,251.427 526.43,253.319 522.8,253.87C516.89,254.61 510.8,251.17 507.55,245.18C509.13,239.992 512.274,235.416 516.55,232.08C517.135,232.498 517.774,232.835 518.45,233.08C520.852,233.898 523.499,233.581 525.64,232.22C529.97,229.42 529.32,223.83 529.27,223.48C529.12,222.36 528.87,220.48 527.27,219.39C526.112,218.707 524.724,218.526 523.43,218.89C516.613,206.843 507.059,196.566 495.54,188.89C489.89,190.447 484.699,193.347 480.41,197.34C478.539,199.073 476.862,201.004 475.41,203.1Z" style="fill:rgb(16,112,238);fill-rule:nonzero;"/>
        </g>
        <g transform="matrix(1,0,0,1,-17.8,-33.9)">
            <path d="M511.56,202.61C510.63,203.1 514.85,209.31 514.09,217.87C513.22,227.72 506.32,234.34 504.81,235.79C499.965,240.388 493.804,243.364 487.19,244.3C489.989,244.54 492.805,244.516 495.6,244.23C498.386,243.951 501.141,243.419 503.83,242.64C501.763,246.6 499.7,250.563 497.64,254.53C502.723,254.175 506.889,250.252 507.55,245.2C508.34,246.978 509.543,248.541 511.06,249.76C513.43,251.67 517.52,253.45 518.66,252.25C520.31,250.51 513.66,244.66 514.58,235.96C514.68,234.96 515.11,231.64 516.7,231.23C518.13,230.86 519.02,233.23 521.37,233.49C524.55,233.83 527.18,229.93 527.37,229.65C528.76,227.53 530.2,223.38 527.97,220.83C526.85,219.686 525.321,219.031 523.72,219.01C515.06,205.33 512.25,202.24 511.56,202.61Z" style="fill:rgb(145,145,145);fill-opacity:0.12;fill-rule:nonzero;"/>
        </g>
    </g>
</svg>
