<?xml version="1.0" encoding="UTF-8" standalone="no"?>
<!DOCTYPE svg PUBLIC "-//W3C//DTD SVG 1.1//EN" "http://www.w3.org/Graphics/SVG/1.1/DTD/svg11.dtd">
<svg width="100%" height="100%" viewBox="0 0 512 512" version="1.1" xmlns="http://www.w3.org/2000/svg" xmlns:xlink="http://www.w3.org/1999/xlink" xml:space="preserve" xmlns:serif="http://www.serif.com/" style="fill-rule:evenodd;clip-rule:evenodd;stroke-miterlimit:10;">
    <g id="hand_right" transform="matrix(1.43238,0,0,1.43238,-978.189,-180.581)">
        <path d="M801.2,395.8C795.1,398.2 786.3,402.7 778.8,411.2C776.4,414 769.7,422.1 763.8,450.5C757.8,479.3 754.4,506.1 754.4,506.1C753.2,515.7 792.1,518 793.2,513.6C796.6,499.9 800.8,482.2 802.6,457.3C803.8,441.4 804.1,420.5 801.2,395.8Z" style="fill:white;fill-rule:nonzero;"/>
        <g>
            <g>
                <path d="M793.4,396.9C778,405.2 769,420.8 764.4,437.3C760.207,452.264 756.425,471.269 754.373,486.827C754.128,488.679 755.617,490.521 756.568,488.178C758.677,482.978 761.759,467.591 763,459.8C766.6,436.9 772.9,411.5 795,399.6C796.7,398.6 795.1,396 793.4,396.9Z" style="fill:rgb(22,22,22);fill-rule:nonzero;"/>
            </g>
        </g>
        <path d="M799.757,489.287C798.155,501.183 778.12,510.212 782.311,489.287C784.008,480.815 785.696,471.756 787.8,461.9C792.3,440.9 796.1,422.9 799,423.2C802.6,423.5 804,453.7 800.8,480.8C800.484,483.529 800.152,486.355 799.757,489.287Z" style="fill:rgb(61,61,61);fill-opacity:0.11;fill-rule:nonzero;"/>
    </g>
    <g id="hand_left" transform="matrix(1.43238,0,0,1.43238,-978.189,-180.581)">
        <path d="M917,396.5C923,398.9 931.6,403.4 938.8,411.9C941.2,414.7 947.7,422.8 953.5,451.2C959.3,480 962.7,506.8 962.7,506.8C963.9,516.4 925.7,518.7 924.7,514.3C921.4,500.6 917.3,482.9 915.5,458C914.5,442.2 914.2,421.2 917,396.5Z" style="fill:white;fill-rule:nonzero;"/>
        <g>
            <g>
                <path d="M923.2,400.2C942.5,410.9 949.7,432.7 953.2,453.2C955.1,464.3 956.6,475.6 958.3,486.8C958.769,490.084 960.214,490.069 960.253,487.031C960.34,480.356 958.086,461.395 955.2,447.1C951.3,427.7 943,407.8 924.8,397.8C923,396.7 921.5,399.3 923.2,400.2Z" style="fill:rgb(22,22,22);fill-rule:nonzero;"/>
            </g>
        </g>
        <path d="M925.6,416.1C927.8,429.2 931.6,451.9 936.2,480.5C943.7,526.5 932.2,539.3 923.4,507.7C908.6,454.8 919.7,494 913.7,472C905,440.4 902.3,432.9 906.8,425.9C909.3,422.5 914.1,417.9 925.6,416.1Z" style="fill:rgb(61,61,61);fill-opacity:0.13;fill-rule:nonzero;"/>
    </g>
    <g id="torso" transform="matrix(1.43238,0,0,1.43238,-978.189,-180.581)">
        <path d="M793.8,401.5C784.5,415 784.2,432.1 783.8,455.8C783.589,468.245 784.546,478.716 785.982,488.254C787.269,496.802 925.721,501.751 927.055,491.195C927.676,486.28 928.223,480.971 928.7,474.3C931.4,434 932.8,413.8 923.2,399.8C899.2,365.2 818.3,365.8 793.8,401.5Z" style="fill:rgb(102,35,129);fill-rule:nonzero;stroke:rgb(22,22,22);stroke-width:3px;"/>
        <path d="M874.2,376.6C882.375,413.601 888.92,464.967 881.413,524.326C880.196,533.949 921.7,538.5 926.9,501.3C932,464.3 933.5,448.2 931,427.5C928.8,408.6 925.2,401.7 921.6,396.8C907.4,378 881.6,376.7 874.2,376.6Z" style="fill:rgb(89,32,113);fill-rule:nonzero;"/>
        <path d="M925,402.6C923.4,402.6 923.4,415.7 919.1,445.1C918.68,448.038 918.242,450.924 917.774,453.848C915.565,467.64 912.686,482.264 907.9,507.1C904.1,526.5 922.6,515.5 924.3,499.4C926.557,478.813 927.691,471.885 928.343,465.5C928.644,462.549 928.842,459.714 929,455.7C930.2,428.4 927.2,402.6 925,402.6Z" style="fill:rgb(73,27,93);fill-rule:nonzero;"/>
    </g>
    <g id="head" transform="matrix(1.43238,0,0,1.43238,-978.189,-180.581)">
        <path d="M803.7,268.1C797.5,280.9 797.8,292.1 798.4,313.6C798.9,334.3 799.3,349.9 809.6,357.3C819.3,364.3 829,357.7 838.8,367.3C840.6,369 848.1,376.4 847.4,385.3C847.1,389.4 845.2,391.6 846.5,394.7C848.6,399.6 855.8,400.7 857.4,400.9C864.7,402 870.3,398.4 871.9,397.4C874.9,395.4 876.7,393.1 877.5,392.1C885,382.1 887.7,367 891.7,358.1C900.1,339.4 915.9,345.3 925.1,326.5C932.4,311.4 928.2,295.4 926.6,289.3C922.3,273.1 912.7,263.3 904.5,254.8C892.4,242.3 882.5,232.3 867.6,229.7C841.7,225.2 814.6,245.5 803.7,268.1Z" style="fill:white;fill-rule:nonzero;"/>
        <path d="M848.2,339C848.9,338.7 849.6,339.8 851.6,341.1C855.2,343.4 860.2,344.4 864.5,343.3C868.5,342.3 871.4,339.5 873.2,337.7C876.2,334.7 876.8,332.7 878.1,332.9C880,333.2 881.6,338.5 879.9,342.6C878.9,345 877.1,346.4 875.2,347.8C874.3,348.5 870.3,351.2 864.4,351.8C861,352.1 858.5,351.6 856.5,351.2C853.4,350.6 851.8,350.3 850.5,349.1C846.9,346.2 846.7,339.7 848.2,339Z" style="fill-rule:nonzero;"/>
        <g>
            <g>
                <path d="M805.4,286.7C809.3,321.5 822.7,359.4 858,373.2C859.8,373.9 860.6,371 858.8,370.3C824.9,357.1 812.2,320 808.4,286.7C808.1,284.8 805.1,284.8 805.4,286.7Z" style="fill:rgb(22,22,22);fill-rule:nonzero;"/>
            </g>
        </g>
        <g>
            <g>
                <path d="M913.7,286.9C909.4,321.7 894.4,357.8 859,370.5C857.2,371.1 858,374 859.8,373.4C896.6,360.2 912.3,323.2 916.7,286.9C916.9,285 913.9,285 913.7,286.9Z" style="fill:rgb(22,22,22);fill-rule:nonzero;"/>
            </g>
        </g>
        <g>
            <g>
                <path d="M854.8,292.7C854,303.6 854.1,314.6 855.4,325.5C855.6,327.4 855.4,330.3 857.9,330.6C860.4,330.9 863.7,327 865.3,325.5C866.7,324.2 864.6,322.1 863.2,323.4C862.6,323.9 858.7,327.6 858.4,327.4C858.3,327.4 858.3,324.1 858.2,323.6C857.8,320.2 857.6,316.7 857.4,313.3C857.1,306.4 857.3,299.5 857.8,292.7C858,290.7 855,290.8 854.8,292.7Z" style="fill:rgb(22,22,22);fill-rule:nonzero;"/>
            </g>
        </g>
        <g>
            <g>
                <path d="M825.1,298.7C831.2,295.1 838.4,295.5 844.3,299.5C845.9,300.6 847.4,298 845.8,296.9C839.1,292.3 830.6,292.1 823.6,296.1C822,297.1 823.5,299.7 825.1,298.7Z" style="fill:rgb(22,22,22);fill-rule:nonzero;"/>
            </g>
        </g>
        <g>
            <g>
                <path d="M879.4,298.7C885.5,295.1 892.7,295.5 898.6,299.5C900.2,300.6 901.7,298 900.1,296.9C893.4,292.3 884.9,292.1 877.9,296.1C876.2,297.1 877.7,299.7 879.4,298.7Z" style="fill:rgb(22,22,22);fill-rule:nonzero;"/>
            </g>
        </g>
        <g>
            <g>
                <path d="M849.3,346.8C846.5,340.5 848.2,338.1 854.4,339.6C854.8,339.9 855.2,340.1 855.6,340.4C856.9,340.8 857.1,341.4 858.5,341.8C860.4,342.3 862.4,342 864.2,341.2C867.2,340 869.2,337.6 872,336C874.5,334.5 875.9,334.2 878.3,336.1C881.3,338.6 880.6,341.4 878.4,344.3C877.2,345.8 879.8,347.3 881,345.8C883.9,342 884.6,335.1 879.7,332.4C873.9,329.3 869.3,335.1 864.9,337.5C859.3,340.6 857.6,336.4 852.7,335.7C850.5,335.4 848.4,336.3 846.8,337.9C843.4,341.3 843.5,347.2 848,349.5C849.5,350.3 851,347.7 849.3,346.8Z" style="fill:rgb(22,22,22);fill-rule:nonzero;"/>
            </g>
        </g>
        <g>
            <g>
                <path d="M846.4,347.7C855.3,358.7 873.3,353.7 881.5,344.7C882.8,343.3 880.7,341.1 879.4,342.6C872.2,350.5 856.4,355.4 848.6,345.6C847.3,344 845.2,346.2 846.4,347.7Z" style="fill:rgb(22,22,22);fill-rule:nonzero;"/>
            </g>
        </g>
        <g>
            <g>
                <path d="M829.5,310.2C829.6,310.1 829.7,310 829.7,310C830.3,309.4 830.3,308.5 829.7,307.9C829.1,307.3 828.2,307.3 827.6,307.9C827.5,308 827.4,308.1 827.4,308.1C826.8,308.7 826.8,309.6 827.4,310.2C828,310.8 829,310.8 829.5,310.2Z" style="fill:rgb(22,22,22);fill-rule:nonzero;"/>
            </g>
        </g>
        <g>
            <g>
                <path d="M838.1,306.3L838.1,306.5C838.1,307.3 838.8,308 839.6,308C840.4,308 841.1,307.3 841.1,306.5L841.1,306.3C841.1,305.5 840.4,304.8 839.6,304.8C838.8,304.9 838.1,305.5 838.1,306.3Z" style="fill:rgb(22,22,22);fill-rule:nonzero;"/>
            </g>
        </g>
        <g>
            <g>
                <path d="M836.9,314.2L836.9,314.4C836.9,315.2 837.6,315.9 838.4,315.9C839.2,315.9 839.9,315.2 839.9,314.4L839.9,314.2C839.9,313.4 839.2,312.7 838.4,312.7C837.6,312.7 836.9,313.3 836.9,314.2Z" style="fill:rgb(22,22,22);fill-rule:nonzero;"/>
            </g>
        </g>
        <g>
            <g>
                <path d="M883.2,303.2C883.1,303.3 883,303.4 883,303.4C882.4,304 882.4,304.9 883,305.5C883.6,306.1 884.5,306.1 885.1,305.5C885.2,305.4 885.3,305.3 885.3,305.3C885.9,304.7 885.9,303.8 885.3,303.2C884.8,302.6 883.8,302.6 883.2,303.2Z" style="fill:rgb(22,22,22);fill-rule:nonzero;"/>
            </g>
        </g>
        <g>
            <g>
                <path d="M893.2,302.8L893.2,303.3C893.2,304.1 893.9,304.8 894.7,304.8C895.5,304.8 896.2,304.1 896.2,303.3L896.2,302.8C896.2,302 895.5,301.3 894.7,301.3C893.9,301.3 893.2,302 893.2,302.8Z" style="fill:rgb(22,22,22);fill-rule:nonzero;"/>
            </g>
        </g>
        <g>
            <g>
                <path d="M890.8,311.8L890.8,312C890.8,312.8 891.5,313.5 892.3,313.5C893.1,313.5 893.8,312.8 893.8,312L893.8,311.8C893.8,311 893.1,310.3 892.3,310.3C891.5,310.3 890.8,310.9 890.8,311.8Z" style="fill:rgb(22,22,22);fill-rule:nonzero;"/>
            </g>
        </g>
        <g>
            <g>
                <path d="M825.4,280.8C829.2,275 836.3,273.3 842.4,276.5C844.1,277.4 845.6,274.8 843.9,273.9C836.2,269.9 827.6,272.1 822.8,279.3C821.7,280.9 824.3,282.4 825.4,280.8Z" style="fill:rgb(22,22,22);fill-rule:nonzero;"/>
            </g>
        </g>
        <g>
            <g>
                <path d="M880,275.6C886.2,270.5 893.9,274.2 899,278.9C900.4,280.2 902.5,278.1 901.1,276.8C894.7,270.9 885.4,267.2 877.9,273.5C876.4,274.7 878.5,276.8 880,275.6Z" style="fill:rgb(22,22,22);fill-rule:nonzero;"/>
            </g>
        </g>
        <g>
            <g>
                <path d="M843.7,365.9C845.5,375.1 845.8,384.3 844.8,393.6C844.6,395.5 847.6,395.5 847.8,393.6C848.8,384 848.4,374.5 846.5,365.1C846.2,363.2 843.3,364 843.7,365.9Z" style="fill:rgb(22,22,22);fill-rule:nonzero;"/>
            </g>
        </g>
        <g>
            <g>
                <path d="M877.3,362.2C875.6,372.2 875.2,382.3 876.3,392.4C876.5,394.3 879.5,394.3 879.3,392.4C878.2,382.6 878.5,372.8 880.2,363C880.5,361.1 877.6,360.3 877.3,362.2Z" style="fill:rgb(22,22,22);fill-rule:nonzero;"/>
            </g>
        </g>
        <g>
            <g>
                <path d="M845.4,393.7C844.6,396.1 847.8,398.2 849.4,399.4C852.5,401.7 856.3,403.1 860.1,403.3C867.8,403.8 876.2,399.8 879,392.5C879.7,390.7 876.8,389.9 876.1,391.7C873.9,397.3 867.3,400.4 861.6,400.4C858.8,400.4 856.1,399.8 853.6,398.5C853,398.2 848,395.3 848.2,394.5C848.9,392.6 846,391.8 845.4,393.7Z" style="fill:rgb(22,22,22);fill-rule:nonzero;"/>
            </g>
        </g>
        <g>
            <g>
                <path d="M845.2,369.3C850.2,372.7 855.9,376 862.1,375.1C868.3,374.2 873.9,369.5 878.5,365.6C880,364.3 877.8,362.2 876.4,363.5C872.4,366.9 867.1,371.4 861.7,372.1C856.1,372.9 851.2,369.9 846.7,366.8C845.1,365.6 843.6,368.2 845.2,369.3Z" style="fill:rgb(22,22,22);fill-rule:nonzero;"/>
            </g>
        </g>
        <g>
            <g>
                <path d="M846.4,371.7C849.6,377.2 855.6,377.5 861.3,376.3C867.4,375.1 874.8,372.7 878.1,367C879.1,365.3 876.5,363.8 875.5,365.5C871.7,372.2 853.6,378.3 848.9,370.2C848,368.5 845.4,370 846.4,371.7Z" style="fill:rgb(22,22,22);fill-rule:nonzero;"/>
            </g>
        </g>
        <g>
            <g>
                <path d="M847.4,372.4C855.4,382.5 872.5,379.4 878.3,368.5C879.2,366.8 876.6,365.3 875.7,367C870.7,376.4 856.3,378.9 849.5,370.3C848.3,368.8 846.2,370.9 847.4,372.4Z" style="fill:rgb(22,22,22);fill-rule:nonzero;"/>
            </g>
        </g>
        <g>
            <g>
                <path d="M812.7,322.6C803.8,327.3 793.1,305.2 808.4,303.4C810.3,303.2 810.3,300.2 808.4,300.4C801.2,301.2 795.9,307.5 797.8,314.9C799.6,321.5 807.2,328.8 814.2,325.2C815.9,324.3 814.4,321.7 812.7,322.6Z" style="fill:rgb(22,22,22);fill-rule:nonzero;"/>
            </g>
        </g>
        <g>
            <g>
                <path d="M913.6,301.8C916.7,300.3 919.8,305.6 920.4,307.7C921.2,310.4 920.8,313.3 920,315.9C917.9,322.9 913.2,324.1 906.6,323.5C904.7,323.3 904.7,326.3 906.6,326.5C910.7,326.9 915.5,327.2 918.8,324.1C921.8,321.4 923.4,316.4 923.7,312.5C924.2,306.8 919.5,295.5 912.1,299.2C910.4,300.1 911.9,302.7 913.6,301.8Z" style="fill:rgb(22,22,22);fill-rule:nonzero;"/>
            </g>
        </g>
        <path d="M843.4,215.4C832.1,218.5 819,222.2 808.7,232.8C797.6,244.2 795.1,258.3 793.7,265.9C792.6,271.8 792.8,276.5 792.8,276.5C792.8,282.8 793.9,285.3 794.2,291.9C794.2,291.9 794.4,296.7 793.7,303.3C793.3,306.7 788.5,322.9 780.7,340.3C774.9,353.3 771.6,354 769.7,362.3C768.7,366.7 765.4,381 774,394.2C784.4,410.1 803.3,411.1 804.7,411.1C824,411.8 835.6,397.6 837.4,395.4C842.4,389.1 844.4,382.6 845.3,378.6C845.1,376.2 844.9,373.6 844.5,371C844.2,369.1 843.9,367.2 843.6,365.4C842.6,364.7 841.3,363.7 839.8,362.5C833.1,357 829,351.7 826.8,348.7C820.2,339.8 816.3,330.8 814.2,324.9C813.4,325.3 812.2,325.9 810.6,326C805.1,326.4 800,321.3 798.3,316.1C797.9,314.8 797,312 798.1,308.8C799.1,306.1 801.1,304.5 802.2,303.6C804.3,301.9 806.4,301.2 807.7,300.9C807.2,297.5 806.6,294.1 806.1,290.7C806.4,289 806.9,286.4 808.4,283.6C812.7,275.4 819.6,274.7 836.9,264.9C846.9,259.2 852.2,255.1 856.7,249.4C858.6,247 859.9,244.9 860.8,243.5C862,245.9 863.8,249.4 866.7,253.1C869.8,257.1 873.1,260 878.3,264C888.8,272 900.1,278.8 901.5,279.7C909.2,284.3 913.2,286.2 914.7,290.9C915.8,294.5 914.9,298 914,300.3C915.2,300.3 918.8,300.3 920.9,302.7C921.6,303.5 921.9,304.4 922.3,305.8C922.5,306.5 923.4,309.1 923.4,312.1C923.4,313.9 923.3,320 918.5,323.8C913.5,327.8 907.3,326.5 906.5,326.3C904.5,331.4 901.3,338.1 896.3,345.1C890.7,352.8 884.6,358.3 880,361.8C879.4,366.5 878.8,371.6 878.6,377C878.4,380.5 878.4,383.8 878.4,387C879.1,389.2 880.4,392.2 882.7,395.2C891.5,406.6 907,406.9 910.9,407C922.6,407.3 931.3,402.7 937.1,399.7C941.2,397.5 946.8,394.6 952.1,388.8C960.9,379.3 963.2,368.7 964.2,364.2C967.5,348.6 963.1,335.9 960.8,329.4C955.8,315.5 951.5,315.6 943,300.3C933.4,282.7 937.3,279.3 924.6,248.2C917.5,230.8 913,223.9 905.9,218.1C902.7,215.5 895.1,209.6 884.5,208.5C881.1,208.2 878.6,208.5 864.7,211.2C851.6,213.6 845.2,214.9 843.4,215.4Z" style="fill:rgb(16,112,238);fill-rule:nonzero;"/>
        <g>
            <g>
                <path d="M861.5,244.5C861.4,244.3 861.3,244.2 861.3,244C861.2,244.6 861.1,245.2 861.1,245.8C861.3,245.7 861.4,245.5 861.6,245.4C861,245.5 860.4,245.6 859.8,245.6C861.8,246.5 864,250.9 865.5,252.7C867.6,255.2 869.7,257.6 872,259.9C876.1,264 880.7,267.7 885.5,271C895.8,278.1 914,283.2 914.6,298.2C914.7,300.1 917.7,300.1 917.6,298.2C917.1,284 903.1,278.2 892.6,272C885.9,268.1 879.7,263.3 874.2,257.8C871.2,254.8 868.4,251.7 865.9,248.3C864.6,246.6 863.4,243.8 861.4,243C860.7,242.7 860.1,242.8 859.6,243.2C859.4,243.3 859.3,243.5 859.1,243.6C858.6,244.1 858.6,244.8 858.9,245.4C859,245.6 859.1,245.7 859.1,245.9C859.7,247.7 862.2,246.2 861.5,244.5Z" style="fill:rgb(16,112,238);fill-rule:nonzero;"/>
            </g>
        </g>
        <g>
            <g>
                <path d="M835.5,217.5C817.9,221.7 802.8,234.4 795.9,251.2C786.5,274 796.4,299.5 787.4,322.5C780,341.7 762.1,361.2 768.4,383.3C772.8,398.8 787.1,411 803.2,412.4C823.6,414.2 841.5,399 845.4,379.4C845.8,377.5 842.9,376.7 842.5,378.6C839,396.2 823.8,410 805.4,409.5C789.1,409.1 773.7,396 770.7,379.9C766.9,359.1 783.9,340.8 790.7,322.6C798.2,302.6 791.6,281.5 796,261.1C800.3,241.1 816.6,225.2 836.3,220.5C838.2,219.9 837.4,217 835.5,217.5Z" style="fill:rgb(16,112,238);fill-rule:nonzero;"/>
            </g>
        </g>
        <g>
            <g>
                <path d="M859.3,215.1C867.2,211.4 876.1,209.3 884.8,210.3C896.6,211.6 906,219.4 912.9,228.6C926.2,246.5 925.8,269.7 936,289.1C944.9,306.2 958.1,321.6 962.8,340.6C968,362 959.1,384.6 940.9,396.8C930.6,403.7 917.9,407.4 905.6,404.3C900,402.9 894.6,400.6 889.8,397.4C886.2,395 880.1,390.7 881.1,385.6C881.5,383.7 878.6,382.9 878.2,384.8C876.7,392.5 885,398.2 890.7,401.4C900,406.7 910.7,409.4 921.4,407.7C944,404.1 962.4,385 966.4,362.8C970.6,339.5 958,319.7 946.3,300.7C939.7,289.9 933.7,279 930.6,266.6C927.3,253.6 925,240.9 917.4,229.6C910.6,219.5 901,210.1 888.6,207.6C878.1,205.5 867.3,207.8 857.8,212.3C856,213.4 857.5,216 859.3,215.1Z" style="fill:rgb(16,112,238);fill-rule:nonzero;"/>
            </g>
        </g>
        <g>
            <g>
                <path d="M859.5,233.9C861.3,253 840.1,260.4 826.5,267.6C814,274.3 802.2,284.1 799.9,298.9C799.6,300.8 802.5,301.6 802.8,299.7C805.7,281 823.3,272.6 838.5,265C850.6,258.9 864,249.3 862.5,233.9C862.3,232 859.3,232 859.5,233.9Z" style="fill:rgb(16,112,238);fill-rule:nonzero;"/>
            </g>
        </g>
        <path d="M934.8,347.2C933.7,349.1 919.7,373.7 906.2,370C896,367.2 892.9,350.3 892.6,348.6C888.2,352.7 883.8,356.8 879.3,360.9C878.5,364.7 877.5,370.3 877.3,377.2C877,384.2 876.9,387.8 878.3,391.2C881.5,398.7 889.5,401.7 896.7,404.5C900.9,406.1 909.7,409.3 921.2,407.9C934,406.3 942.4,399.9 945.7,397.4C952.425,392.158 956.907,386.074 959.888,380.604C962.536,375.745 964,371.37 964.8,368.5C969.5,351.6 964.8,337.5 962.8,331.4C959.8,322.3 954.2,313.5 943.1,296C940.1,291.4 937.6,287.6 936,285.1C939.2,294 948.6,322.3 934.8,347.2Z" style="fill:rgb(61,61,61);fill-opacity:0.19;fill-rule:nonzero;"/>
        <path d="M790.1,316.5C788.3,321.6 786,330.1 786.7,340.7C787.3,349.5 788,358.6 794.9,364.2C803.1,370.9 818.7,371.6 824.8,362.8C829.2,356.5 826.7,348.1 826.2,346.5C832.6,353 838.9,359.4 845.3,365.9C845.9,369.2 846.6,374.8 845,381.6C842.9,390.5 838,396.1 835.8,398.6C829.7,405.5 823,408.5 821.5,409.1C818.5,410.4 810.2,413.9 799.7,411.8C790.2,409.9 784.3,404.6 781,401.6C777.8,398.6 770.2,391.5 768.1,379.8C766.5,371 768.7,363.9 770.5,358.4C772.8,351 775.2,348.5 780.4,338.7C782.9,333.5 786.5,326.1 790.1,316.5Z" style="fill:rgb(61,61,61);fill-opacity:0.23;fill-rule:nonzero;"/>
        <path d="M809.7,298C812.6,306.8 817.2,317.8 824.8,329.4C837,348 851.4,359.8 861.3,366.5C864.8,365.8 868.2,365 871.7,364.3C872.7,368.3 873.4,373.3 870.8,375.9C866.8,380 858.8,375.2 854.5,378.7C851.8,380.9 850.2,386.3 854.8,401C852.2,399.1 849.6,397.2 846.9,395.3C846.4,385.1 845.9,375 845.3,364.8C839.4,360.3 831.5,353.1 824.6,342.5C819.9,335.4 816.9,328.6 814.9,323C814.3,323.4 811.2,325.6 807.7,324.6C805.1,323.9 803.8,321.8 802.4,319.6C800.6,316.8 798.4,313.4 799.6,309.5C800.7,306 804.2,303.3 808.4,302.6C808.6,301.1 809.1,299.5 809.7,298Z" style="fill:rgb(61,61,61);fill-opacity:0.06;fill-rule:nonzero;"/>
    </g>
</svg>
