<?xml version="1.0" encoding="UTF-8" standalone="no"?>
<!DOCTYPE svg PUBLIC "-//W3C//DTD SVG 1.1//EN" "http://www.w3.org/Graphics/SVG/1.1/DTD/svg11.dtd">
<svg width="100%" height="100%" viewBox="0 0 512 512" version="1.1" xmlns="http://www.w3.org/2000/svg" xmlns:xlink="http://www.w3.org/1999/xlink" xml:space="preserve" xmlns:serif="http://www.serif.com/" style="fill-rule:evenodd;clip-rule:evenodd;stroke-linejoin:round;stroke-miterlimit:2;">
    <g id="hand_irght" transform="matrix(1.01639,0,0,1.01639,-519.39,45.1059)">
        <path d="M550.214,522.714C540.657,538.959 604.2,539.4 621.9,523.1C642.9,503.8 654,492.3 654,492.3C697.4,447.3 697.1,452.2 711.9,433.9C728.4,413.4 752.5,383.6 743.4,368.5C738.8,360.9 726.6,358.5 706.5,354.6C693,352 687.7,353.1 686,353.5C674.4,356.3 667.4,365.1 661.1,373.4C640,400.9 629.5,414.6 622.4,425.5C616.9,433.9 607.5,448.4 593.3,466.7C583.8,479 579.513,485.815 572.746,491.757C562.285,503.493 555.204,514.232 550.214,522.714Z" style="fill:white;fill-rule:nonzero;"/>
        <path d="M707.4,381.4C702.8,387.8 696.1,397.2 687.9,408.5C669.1,434.3 659,448.2 645.6,464.5C625.1,489.5 614.9,502.1 600.4,511.8C596.113,514.697 591.229,517.996 585.633,521.082C576.741,525.986 595.892,544.136 597.441,543.165C601.564,540.58 605.966,536.971 612.8,531.3C637.2,511.1 653.9,492.6 659.9,485.9C675.3,468.5 683,459.8 688.5,450.4C695.9,438 706.3,415.4 707.4,381.4Z" style="fill:rgb(147,147,147);fill-opacity:0.13;fill-rule:nonzero;"/>
        <g>
            <g>
                <path d="M685.6,352.1C669.8,356.6 659.1,370.5 649.6,383C638.6,397.4 629.1,412.8 619.2,428C609.3,443.2 552.088,517.08 539.888,530.58C535.7,535.18 530.098,545.792 546.572,526.888C558.03,513.74 592.285,470.266 594.5,467.6C600.1,460.9 605.3,453.9 610.2,446.7C620.7,431.6 630.2,415.8 640.5,400.6C646.7,391.5 653.1,382.6 660.3,374.2C667.5,365.8 675.5,357.9 686.4,354.8C688.3,354.4 687.5,351.5 685.6,352.1Z" style="fill:rgb(22,22,22);fill-rule:nonzero;"/>
            </g>
        </g>
        <g>
            <g>
                <path d="M623.082,520.051C617.378,525.017 625.739,521.755 627.194,520.467C642.615,506.816 656.95,492.017 670.2,476.3C686.6,456.8 701.2,435.8 713.8,413.7C714.8,412 712.2,410.5 711.2,412.2C689.6,450 662.2,484.4 630.1,513.8C627.786,515.909 625.445,517.993 623.082,520.051Z" style="fill:rgb(22,22,22);fill-rule:nonzero;"/>
            </g>
        </g>
    </g>
    <g id="torso" transform="matrix(1.01639,0,0,1.01639,-519.39,45.1059)">
        <path d="M729.9,321.8C711.9,333.7 686.8,350.3 676,381.5C668.5,403.1 671.2,422 675,448.9C676.4,458.5 680.9,486.5 698.1,525C711.8,555.7 949.225,555.16 941.993,525.671C930.308,478.028 917.124,425.765 902.3,369C894.2,338.1 885.9,307.8 859.6,293.4C812.2,267.4 743.2,313 729.9,321.8Z" style="fill:rgb(102,35,129);fill-rule:nonzero;"/>
    </g>
    <g id="hand_left" transform="matrix(1.01639,0,0,1.01639,-519.39,45.1059)">
        <path d="M870.3,323.4C868.8,324.6 865.6,327.6 861.1,345.3C852.1,380.2 859.026,384.81 859.6,401.2C865,434.9 865,469.3 868.6,503.2C869.38,510.73 869.943,518.212 870.32,525.981C871.731,555.041 936.369,541.25 936.928,528.182C937.553,513.539 937.77,499.776 937.4,483.5C936.5,446.6 934,456.6 931.9,409.2C931.9,409.2 930.8,384.9 923.1,355.6C922.2,352.2 919.9,343.8 913.6,334.9C909.6,329.2 905.3,323.1 897.2,320C888.8,316.9 877.7,317.3 870.3,323.4Z" style="fill:white;fill-rule:nonzero;"/>
        <path d="M896.9,320C898.9,332.8 901.6,350.6 904.2,372C907.835,401.91 913.246,454.349 914.339,522.885C914.569,537.298 934.741,566.858 935.673,516.779C935.956,501.575 936.167,485.031 936.4,466.4C936.5,461 933.3,431.3 926.8,372.1C926.2,366.9 925,356.8 919.2,345.5C912.6,332.7 903.2,324.6 896.9,320Z" style="fill:rgb(147,147,147);fill-opacity:0.25;fill-rule:nonzero;"/>
        <g>
            <g>
                <path d="M869,323.6C854.8,347.6 856,376.4 858.2,403.2C861,435.9 865.1,468.4 866.9,501.2C867.282,508.017 867.592,514.835 867.838,521.656C869.977,580.972 871.98,552.55 870.873,521.662C870.819,520.141 870.761,518.62 870.7,517.1C869.4,484.9 866,452.9 862.8,420.8C859.7,389.3 854.6,353.8 871.5,325.1C872.5,323.4 869.9,321.9 869,323.6Z" style="fill:rgb(22,22,22);fill-rule:nonzero;"/>
            </g>
        </g>
        <g>
            <g>
                <path d="M871.3,324.5C885.1,312 903.7,322.9 912.1,335.9C921.1,349.6 924.7,366.3 927,382.3C932.1,417.8 933.9,454 934.4,489.9C934.572,501.247 934.561,512.593 934.376,523.936C933.379,585.071 936.915,549.454 937.332,524.058C937.545,511.077 937.537,498.088 937.3,485.1C936.9,466.1 936.1,447.1 934.6,428.1C933.2,409.9 931.8,391.5 928.5,373.5C925.5,356.8 920.2,338.1 907.7,325.9C897.4,315.8 880.5,312 869.1,322.4C867.8,323.6 869.9,325.8 871.3,324.5Z" style="fill:rgb(22,22,22);fill-rule:nonzero;"/>
            </g>
        </g>
    </g>
    <g id="head" transform="matrix(1.01639,0,0,1.01639,-519.39,45.1059)">
        <path d="M692.7,119C673.3,131.9 668.1,153.8 661.8,180.9C658.2,196.1 645.7,249.7 675.3,291.7C681.5,300.5 697.3,322.9 717.8,320.7C730.5,319.4 739.2,309.2 742.9,304.3C750.9,312.9 758.9,321.6 766.9,330.2C774.2,328.8 784.8,325.7 795.7,318.8C823.7,300.9 832,270.9 836.3,255C840.4,240 849.7,206.1 832.4,172.5C824,156.2 812.9,146.8 806.6,141.6C779.5,118.9 726.9,96.4 692.7,119Z" style="fill:white;fill-rule:nonzero;"/>
        <path d="M759,158.3C763.7,166.8 770.2,181.1 771.2,199.5C772.8,227.4 761.2,248.6 750.6,267.8C744.3,279.3 733.8,295.6 717.1,312.4C724.1,311.1 733,308.7 742.8,304.2C756.4,297.8 766.1,289.6 772.2,283.6C773.5,287.5 781.7,311.1 793.1,311C797.2,310.9 800.3,307.8 802.1,305.8C843,261.5 842.2,222.7 842.2,222.7C842,212.4 840,193.5 828.5,175C824.5,168.5 820,161.4 811.7,156.3C790.4,143.3 763,156.4 759,158.3Z" style="fill:rgb(170,170,170);fill-opacity:0.27;fill-rule:nonzero;"/>
        <path d="M703.1,120.5C707.1,118.7 712.9,117 717.8,119.3C726.9,123.6 726.7,138.7 729,148.2C732.2,161.8 746.3,178.3 793.2,191.7C795,184.7 800.2,179.4 806.4,178.3C815.8,176.8 823.9,185.8 825.4,193.8C826.3,198.9 824.4,203 822.5,207.3C820.8,211.1 816.6,220.2 808.5,221.4C805.2,221.9 802.4,220.9 800.8,220.1C800.8,225.8 800.5,234.2 798.9,244.3C795.2,267.1 787.5,280.5 783.3,291.9C779.1,303.3 768.3,336.6 782.7,359.6C798,384.1 840.9,394.9 867.5,377.3C888.5,363.4 891.8,336.9 893.4,323.7C894.9,311.3 894.3,298.4 877.5,246.6C864.9,207.6 858.6,188.2 845.7,161.8C821.5,112.2 804.3,99.5 799.2,95.9C792.4,91.1 777.5,80.9 756.2,78.2C720.8,73.7 684.6,92 665.5,118.8C655.1,133.5 652.3,156.1 646.7,201.2C644.9,215.9 643.9,238.3 642,283C640.6,315.3 640.6,325.9 643.8,340.7C647.6,358.4 651.9,378.7 669.7,392.5C672.7,394.8 693.5,411 716.8,403.7C740.2,396.4 748.1,371.1 750.4,363.7C759.3,334.9 746.3,309.9 743.1,304.2C734.5,306.9 726,309.7 717.4,312.4C711.9,310.5 703.9,307 695.6,300.6C681,289.3 674.6,275.6 672,270C669.3,264.1 666.3,255.7 664.3,239.4C661.4,215.6 658.7,192.5 669,166.4C677.5,144.8 691.7,129.8 703.1,120.5Z" style="fill:rgb(16,112,238);fill-rule:nonzero;"/>
        <g>
            <g>
                <path d="M665.6,165.9C660.9,196.2 657.7,228.3 667.4,258.1C675,281.5 690.7,303 713.7,313.1C715.5,313.9 717,311.3 715.2,310.5C692.4,300.5 677.1,279.2 669.8,255.9C660.8,227.1 663.9,196.1 668.4,166.7C668.8,164.8 665.9,164 665.6,165.9Z" style="fill:rgb(22,22,22);fill-rule:nonzero;"/>
            </g>
        </g>
        <g>
            <g>
                <path d="M715.6,313.5C738.8,309.8 760.4,297.7 777,281.2C792.7,265.7 804.6,244.7 802.3,222C802.1,220.1 799.1,220.1 799.3,222C801.6,244.5 789.5,265.1 773.7,280.2C757.5,295.7 737,307.1 714.7,310.6C712.9,310.9 713.7,313.8 715.6,313.5Z" style="fill:rgb(22,22,22);fill-rule:nonzero;"/>
            </g>
        </g>
        <g>
            <g>
                <path d="M799.9,221.3C807.2,226 815.1,220.4 819.7,214.5C825.1,207.6 827.9,198.3 826.4,189.6C825,181.6 819.2,175.7 810.8,176C801.8,176.3 795.5,183.4 791.8,190.9C791,192.6 793.6,194.2 794.4,192.4C797.3,186.5 801.6,180.8 808.4,179.3C816.6,177.5 822.5,183.2 823.5,191C824.3,197.3 822.8,203.8 819.6,209.3C816.2,215.1 808.6,223.5 801.3,218.8C799.8,217.7 798.3,220.3 799.9,221.3Z" style="fill:rgb(22,22,22);fill-rule:nonzero;"/>
            </g>
        </g>
        <g>
            <g>
                <path d="M741.8,305.3C747.8,313 754.3,320.2 761.3,327C763.2,328.8 765.8,332.4 768.7,332.5C771.7,332.6 775.6,329.6 778.2,328.3C779.9,327.4 778.4,324.9 776.7,325.7C772.7,327.7 769.4,329.8 765.3,326.7C762.5,324.6 760.2,321.7 757.8,319.2C752.9,314.1 748.3,308.7 743.9,303.1C742.8,301.7 740.7,303.8 741.8,305.3Z" style="fill:rgb(22,22,22);fill-rule:nonzero;"/>
            </g>
        </g>
        <g>
            <g>
                <path d="M699.4,258.9C717.4,259.3 728.2,243.8 736.7,230.2C737.7,228.6 735.1,227 734.1,228.7C726.2,241.4 716.2,256.3 699.3,255.9C697.5,255.9 697.5,258.9 699.4,258.9Z" style="fill:rgb(22,22,22);fill-rule:nonzero;"/>
            </g>
        </g>
        <g>
            <g>
                <path d="M731.4,202.5C734.3,202.5 734.3,198 731.4,198C728.5,198 728.5,202.5 731.4,202.5Z" style="fill:rgb(22,22,22);fill-rule:nonzero;"/>
            </g>
        </g>
        <g>
            <g>
                <path d="M745.8,195.9C748.7,195.9 748.7,191.4 745.8,191.4C742.9,191.4 742.9,195.9 745.8,195.9Z" style="fill:rgb(22,22,22);fill-rule:nonzero;"/>
            </g>
        </g>
        <g>
            <g>
                <path d="M744.6,210.3C747.5,210.3 747.5,205.8 744.6,205.8C741.7,205.8 741.7,210.3 744.6,210.3Z" style="fill:rgb(22,22,22);fill-rule:nonzero;"/>
            </g>
        </g>
        <g>
            <g>
                <path d="M672.1,215L672.1,214.6C672.1,213.4 671.1,212.3 669.8,212.3C668.6,212.4 667.5,213.3 667.5,214.6L667.5,215C667.5,216.2 668.5,217.3 669.8,217.3C671.1,217.2 672.1,216.3 672.1,215Z" style="fill:rgb(22,22,22);fill-rule:nonzero;"/>
            </g>
        </g>
        <g>
            <g>
                <path d="M678.9,214C681.8,214 681.8,209.5 678.9,209.5C676,209.5 676,214 678.9,214Z" style="fill:rgb(22,22,22);fill-rule:nonzero;"/>
            </g>
        </g>
        <g>
            <g>
                <path d="M678.5,232.1C681.4,232.1 681.4,227.6 678.5,227.6C675.6,227.6 675.6,232.1 678.5,232.1Z" style="fill:rgb(22,22,22);fill-rule:nonzero;"/>
            </g>
        </g>
        <g>
            <g>
                <path d="M692,161.6C690.1,188.7 689.3,215.8 689.6,242.9C689.6,244.5 691.6,244.8 692.4,243.7C696.1,238.7 699.7,233.7 703.4,228.7C704.5,227.1 701.9,225.6 700.8,227.2C697.1,232.2 693.5,237.2 689.8,242.2C690.7,242.5 691.7,242.7 692.6,243C692.3,215.9 693.1,188.8 695,161.7C695.2,159.7 692.2,159.7 692,161.6Z" style="fill:rgb(22,22,22);fill-rule:nonzero;"/>
            </g>
        </g>
        <ellipse cx="678.9" cy="189.6" rx="3.3" ry="9.9" style="fill:rgb(22,22,22);"/>
        <ellipse cx="727.4" cy="177.6" rx="3.3" ry="9.9" style="fill:rgb(22,22,22);"/>
        <g>
            <g>
                <path d="M672.6,169.8C674.5,166 678.5,159.7 683.5,163C685.1,164.1 686.6,161.5 685,160.4C678.4,156.1 672.6,162.9 670,168.3C669.1,170 671.7,171.5 672.6,169.8Z" style="fill:rgb(22,22,22);fill-rule:nonzero;"/>
            </g>
        </g>
        <g>
            <g>
                <path d="M717.2,152.3C720.6,142.4 732.5,140.3 739.4,148C740.7,149.4 742.8,147.3 741.5,145.9C733,136.4 718.4,139.6 714.3,151.5C713.6,153.3 716.5,154.1 717.2,152.3Z" style="fill:rgb(22,22,22);fill-rule:nonzero;"/>
            </g>
        </g>
    </g>
</svg>
