<?xml version="1.0" encoding="UTF-8" standalone="no"?>
<!DOCTYPE svg PUBLIC "-//W3C//DTD SVG 1.1//EN" "http://www.w3.org/Graphics/SVG/1.1/DTD/svg11.dtd">
<svg width="100%" height="100%" viewBox="0 0 512 512" version="1.1" xmlns="http://www.w3.org/2000/svg" xmlns:xlink="http://www.w3.org/1999/xlink" xml:space="preserve" xmlns:serif="http://www.serif.com/" style="fill-rule:evenodd;clip-rule:evenodd;stroke-miterlimit:10;">
    <g transform="matrix(1.46301,0,0,1.46301,-809.61,-332.709)">
        <path d="M631.7,533.8C646.5,525.1 672.2,512.7 706.4,509.1C758.8,503.6 799,522.4 814.9,530.9C813.035,556.18 810.507,578.19 807.983,596.427C806.583,606.541 636.183,595.558 635.278,587.633C632.74,565.407 631.921,546.995 631.7,533.8Z" style="fill:rgb(102,35,129);fill-rule:nonzero;stroke:rgb(22,22,22);stroke-width:2px;"/>
    </g>
    <g transform="matrix(1.46301,0,0,1.46301,-809.61,-332.709)">
        <path d="M739.9,521C742,528.6 744.4,539.1 746,551.7C746.555,555.989 747.976,567.919 747.448,585.213C746.931,602.189 806.687,604.006 808.929,589.548C811.201,574.892 812.942,560.78 814.1,541.6C814.4,537.2 814.5,533.5 814.7,531C807.4,526.7 797.9,522 786.2,518.2C775.4,514.7 765.7,512.9 757.7,512.1C751.9,515 745.9,518 739.9,521Z" style="fill:rgb(93,31,119);fill-rule:nonzero;"/>
    </g>
    <g transform="matrix(1.46301,0,0,1.46301,-809.61,-332.709)">
        <path d="M811.8,547.3C808.314,567.031 804.131,584.399 800.071,598.994C797.608,607.847 805.397,610.162 806.587,600.988C808.559,585.793 810.491,567.752 811.8,547.3Z" style="fill:rgb(109,108,108);fill-opacity:0.17;fill-rule:nonzero;"/>
    </g>
    <g transform="matrix(1.46301,0,0,1.46301,-809.61,-332.709)">
        <path d="M631.161,534.228C618.161,543.228 601.4,556.5 586.8,577.6C584.563,580.85 582.482,584.114 580.547,587.381C570.284,604.702 631.2,606.2 638.3,599.7C635.9,577.6 633.561,556.428 631.161,534.228Z" style="fill:white;fill-rule:nonzero;stroke:rgb(22,22,22);stroke-width:2px;"/>
    </g>
    <g transform="matrix(1.46301,0,0,1.46301,-809.61,-332.709)">
        <path d="M633,555.6C624.011,565.744 616.493,575.723 610.196,585.24C596.32,606.216 637.111,591.936 636.682,588.302C635.398,577.43 634.199,566.543 633,555.6Z" style="fill:rgb(109,108,108);fill-opacity:0.13;fill-rule:nonzero;"/>
    </g>
    <g transform="matrix(1.46301,0,0,1.46301,-809.61,-332.709)">
        <path d="M816.4,531.5C831,540.4 849.8,554.3 866.1,575C870.509,580.589 874.378,586.22 877.769,591.833C887.133,607.334 816.3,603.2 808.3,596.8C811.1,575 813.8,553.3 816.4,531.5Z" style="fill:white;fill-rule:nonzero;stroke:rgb(22,22,22);stroke-width:2px;"/>
    </g>
    <g transform="matrix(1.46301,0,0,1.46301,-809.61,-332.709)">
        <path d="M815.7,555.8C822.932,563.374 831.656,573.542 840.32,586.378C846.871,596.083 815.6,601.8 807.5,595.5C810.3,582.3 813,569.1 815.7,555.8Z" style="fill:rgb(109,108,108);fill-opacity:0.16;fill-rule:nonzero;"/>
    </g>
    <g transform="matrix(1.46301,0,0,1.46301,-809.61,-332.709)">
        <path d="M709.2,453.1C703.7,459.8 709,468 708,489.9C707.5,500.8 705.7,509.6 704.3,515.5C709,517.7 717.3,520.8 728,521.1C741.2,521.4 751.2,517.3 756.1,514.9C753.9,510.5 751,503.7 749.2,494.9C744.7,472.5 752.7,462 746.1,453.7C738.4,444.1 716.6,444 709.2,453.1Z" style="fill:white;fill-rule:nonzero;stroke:rgb(22,22,22);stroke-width:2px;"/>
    </g>
    <g transform="matrix(1.46301,0,0,1.46301,-809.61,-332.709)">
        <path d="M674.3,356.9C668,373.1 670.4,387.7 671.8,394C671.2,394.1 659.5,396.6 656.3,405.6C653.1,414.7 659.7,427.6 673.5,431.8C678.5,444 690.6,467.6 716.1,480.5C720.4,482.6 724.5,484.3 728.6,485.5C732.3,484.1 737.3,481.9 743,478.6C760.8,468.3 770.7,455.5 773,452.4C777.2,446.8 782.9,437.8 786.9,425.4C789.1,425.8 793,426 796.8,424.1C805.4,419.7 809.7,406 803.7,397.1C798.7,389.7 789,389.4 787.8,389.4C789.1,384.2 793.1,365.5 783,347C771.4,325.7 746.5,314.5 723.1,317.7C688.5,322.2 674.9,355.3 674.3,356.9Z" style="fill:white;fill-rule:nonzero;stroke:rgb(22,22,22);stroke-width:2px;"/>
    </g>
    <g transform="matrix(1.46301,0,0,1.46301,-809.61,-332.709)">
        <g>
            <path d="M707.9,479.6C714,483.2 720.7,488.8 728.2,488.2C734.4,487.7 741.3,484.1 746,480.3C747.5,479.1 745.4,477 743.9,478.2C739.5,481.7 732.4,485.4 726.6,485.3C720.5,485.2 714.3,480.1 709.3,477C707.8,476 706.3,478.6 707.9,479.6Z" style="fill:rgb(22,22,22);fill-rule:nonzero;"/>
        </g>
    </g>
    <g transform="matrix(1.46301,0,0,1.46301,-809.61,-332.709)">
        <g>
            <path d="M707.5,480.9C713.2,485.8 719.7,491.3 727.7,490.9C735.5,490.5 742.8,485.3 747.9,479.7C749.2,478.3 747.1,476.2 745.8,477.6C741.4,482.4 735.2,487.1 728.4,487.8C720.9,488.5 714.9,483.4 709.6,478.8C708.2,477.5 706.1,479.6 707.5,480.9Z" style="fill:rgb(22,22,22);fill-rule:nonzero;"/>
        </g>
    </g>
    <g transform="matrix(1.46301,0,0,1.46301,-809.61,-332.709)">
        <g>
            <path d="M711.3,481.5C711.3,481.4 711.3,481.4 711.3,481.5C710.7,480.6 709.6,480.4 708.9,481.1L708.8,481.2C708.2,481.7 708.2,482.8 708.8,483.3C719.8,493.8 740,497.2 747.9,481.1C748.7,479.4 746.2,477.8 745.3,479.6C738.3,494 720.6,490.5 711,481.2L711,483.3L711.1,483.2C710.3,483.1 709.5,483 708.7,482.9L708.7,483C709.7,484.6 712.3,483.1 711.3,481.5Z" style="fill:rgb(22,22,22);fill-rule:nonzero;"/>
        </g>
    </g>
    <g transform="matrix(1.46301,0,0,1.46301,-809.61,-332.709)">
        <g>
            <path d="M723.3,389C722,405.2 722.7,421.3 725.3,437.3C725.4,438.1 726.4,438.6 727.1,438.3C731,437 733.8,434.7 735.9,431.2C736.9,429.5 734.3,428 733.3,429.7C731.6,432.6 729.5,434.3 726.3,435.4C726.9,435.7 727.5,436.1 728.1,436.4C725.5,420.7 724.9,404.8 726.2,388.9C726.5,387 723.5,387 723.3,389Z" style="fill:rgb(22,22,22);fill-rule:nonzero;"/>
        </g>
    </g>
    <g transform="matrix(1.46301,0,0,1.46301,-809.61,-332.709)">
        <path d="M705.5,404.9C705.7,405.8 707.2,411.4 705.5,412.3C703.8,413.2 699,409.6 697.5,404.9C696.3,400.9 697.3,395.9 699.2,395.5C701.2,395 704.3,400.5 705.5,404.9Z" style="fill:rgb(22,22,22);fill-rule:nonzero;stroke:rgb(22,22,22);stroke-width:1px;"/>
    </g>
    <g transform="matrix(1.46301,0,0,1.46301,-809.61,-332.709)">
        <path d="M757.1,404.9C757.3,405.8 758.8,411.4 757.1,412.3C755.4,413.2 750.6,409.6 749.1,404.9C747.9,400.9 748.9,395.9 750.8,395.5C752.8,395 755.9,400.5 757.1,404.9Z" style="fill:rgb(22,22,22);fill-rule:nonzero;stroke:rgb(22,22,22);stroke-width:1px;"/>
    </g>
    <g transform="matrix(1.46301,0,0,1.46301,-809.61,-332.709)">
        <g>
            <path d="M719.7,450.5C731.9,455.7 743,448.4 752,440.5C753.5,439.2 751.3,437.1 749.9,438.4C742.1,445.2 732.1,452.5 721.3,447.9C719.4,447.2 717.9,449.8 719.7,450.5Z" style="fill:rgb(22,22,22);fill-rule:nonzero;"/>
        </g>
    </g>
    <g transform="matrix(1.46301,0,0,1.46301,-809.61,-332.709)">
        <g>
            <path d="M754.9,420.8C756.8,420.8 756.8,417.8 754.9,417.8C753,417.8 753,420.8 754.9,420.8Z" style="fill:rgb(22,22,22);fill-rule:nonzero;"/>
        </g>
    </g>
    <g transform="matrix(1.46301,0,0,1.46301,-809.61,-332.709)">
        <g>
            <path d="M766,415.2C766.1,415.1 766.2,415 766.3,414.9C766.9,414.3 766.9,413.4 766.3,412.8C765.7,412.2 764.8,412.2 764.2,412.8C764.1,412.9 764,413 763.9,413.1C763.3,413.7 763.3,414.6 763.9,415.2C764.5,415.8 765.4,415.8 766,415.2Z" style="fill:rgb(22,22,22);fill-rule:nonzero;"/>
        </g>
    </g>
    <g transform="matrix(1.46301,0,0,1.46301,-809.61,-332.709)">
        <g>
            <path d="M762.7,422.5L763,422.5C763.8,422.5 764.5,421.8 764.5,421C764.5,420.2 763.8,419.5 763,419.5L762.7,419.5C761.9,419.5 761.2,420.2 761.2,421C761.2,421.8 761.8,422.5 762.7,422.5Z" style="fill:rgb(22,22,22);fill-rule:nonzero;"/>
        </g>
    </g>
    <g transform="matrix(1.46301,0,0,1.46301,-809.61,-332.709)">
        <g>
            <path d="M693.7,387C697.5,383.8 703.1,383.7 706.9,386.8C708.4,388 710.5,385.9 709,384.7C703.8,380.5 696.6,380.5 691.5,384.9C690.1,386.1 692.3,388.2 693.7,387Z" style="fill:rgb(22,22,22);fill-rule:nonzero;"/>
        </g>
    </g>
    <g transform="matrix(1.46301,0,0,1.46301,-809.61,-332.709)">
        <g>
            <path d="M742.5,385.9C746.8,382.1 752.9,381.4 758,384.1C759.7,385 761.2,382.4 759.5,381.5C753.2,378.1 745.7,379 740.4,383.8C738.9,385.1 741,387.2 742.5,385.9Z" style="fill:rgb(22,22,22);fill-rule:nonzero;"/>
        </g>
    </g>
    <g transform="matrix(1.46301,0,0,1.46301,-809.61,-332.709)">
        <g>
            <path d="M694.5,420.5C696.4,420.5 696.4,417.5 694.5,417.5C692.6,417.5 692.6,420.5 694.5,420.5Z" style="fill:rgb(22,22,22);fill-rule:nonzero;"/>
        </g>
    </g>
    <g transform="matrix(1.46301,0,0,1.46301,-809.61,-332.709)">
        <g>
            <path d="M705.1,419.1C707,419.1 707,416.1 705.1,416.1C703.2,416.1 703.2,419.1 705.1,419.1Z" style="fill:rgb(22,22,22);fill-rule:nonzero;"/>
        </g>
    </g>
    <g transform="matrix(1.46301,0,0,1.46301,-809.61,-332.709)">
        <g>
            <path d="M699.8,421.4C699.7,421.5 699.6,421.6 699.5,421.7C698.9,422.3 698.9,423.2 699.5,423.8C700.1,424.4 701,424.4 701.6,423.8C701.7,423.7 701.8,423.6 701.9,423.5C702.5,422.9 702.5,422 701.9,421.4C701.3,420.8 700.4,420.8 699.8,421.4Z" style="fill:rgb(22,22,22);fill-rule:nonzero;"/>
        </g>
    </g>
    <g transform="matrix(1.46301,0,0,1.46301,-809.61,-332.709)">
        <path d="M690.6,324.4C684.6,328.1 671.5,336.2 662.6,352.8C653.7,369.3 653.8,384.9 654.2,391.6C639.6,417.9 633,441.1 629.8,456.9C624.6,482 627.4,491.2 631,497.3C639.8,512.3 657.5,516 661.8,516.9C683.9,521.6 701.5,510.3 705.5,507.7C706.6,504.4 707.7,500.3 708.3,495.7C709.4,487.8 708.8,481 707.9,476.1C702.9,472 697.1,466.5 691.5,459.3C683,448.3 678.2,437.5 675.5,429.7C666.7,428.8 660.1,422.8 659.5,416.1C658.9,409.8 663.3,401.7 669.1,401.7C673.4,401.7 676.5,406.1 677.1,406.9C680.4,405 685,401.7 689.1,396.5C695,389 696,382.3 698.7,375.3C701.3,368.5 706.3,359.1 717.1,349.3C727.5,353 735.8,356.6 741.5,359.3C759.8,367.8 770.2,372.8 778.3,383.7C782.8,389.7 785.1,395.6 786.3,399.3C795.6,392.2 799.4,394.1 800.2,394.5C806.1,397.8 805.9,415.9 796.7,420.9C793.2,422.8 789.2,422.3 786.7,421.7C783.8,431.8 777.4,448.3 762.7,462.9C757.8,467.8 752.8,471.6 748.3,474.5C747.9,478.2 747.7,483.3 748.7,489.3C749.6,494.8 751.2,499.3 752.7,502.5C777,518.5 807.2,515.6 823.6,498.4C838.2,483 838.2,459.7 832.7,443.8C827.7,429.3 818,420.6 813.2,416.8C814.5,411.2 821.7,378 800.8,347.5C795.4,339.6 780.3,320.5 753.1,313.9C724.3,306.9 700.6,318.3 690.6,324.4Z" style="fill:rgb(16,112,238);fill-rule:nonzero;"/>
    </g>
    <g transform="matrix(1.46301,0,0,1.46301,-809.61,-332.709)">
        <path d="M754,365.5C765.3,379.7 768.3,392.8 769.3,399.6C773.4,428.2 756.8,451.4 748.4,463.3C741.5,473 734.4,479.9 729.3,484.4C733.7,496.2 738,507.9 742.4,519.7C746.9,518.2 751.4,516.7 755.9,515.2C753.8,511.5 751.6,506.9 749.9,501.3C746.8,491.3 746.6,482.5 746.9,476.5C752.4,472.6 758.8,467.3 765,460.3C777.4,446.3 783.6,431.9 786.8,422.2C788.8,422.6 793.1,423.1 797.2,420.8C805.8,415.9 804.4,403.7 804.3,402.9C804,400.3 803.4,396.1 800.4,394.4C796.9,392.5 791.1,394.3 786.5,399.7C785.1,394.8 781.1,383.5 770.3,374.5C764.3,369.5 758.2,366.9 754,365.5Z" style="fill:rgb(109,108,108);fill-opacity:0.17;fill-rule:nonzero;"/>
    </g>
    <g transform="matrix(1.46301,0,0,1.46301,-809.61,-332.709)">
        <path d="M724.7,389.9C724.1,389.8 722.1,398.5 716,436.9L726.5,436.9C725.8,431.8 725,424.4 724.6,415.4C724.1,400 725.3,390 724.7,389.9Z" style="fill:rgb(109,108,108);fill-opacity:0.19;fill-rule:nonzero;"/>
    </g>
    <g transform="matrix(1.46301,0,0,1.46301,-809.61,-332.709)">
        <path d="M812.6,417.8C810.9,418.8 817.3,427.4 816.4,440.2C816.1,444.2 815.5,453.3 808.3,459.4C807.8,459.8 797.1,468.6 786.5,463C780.2,459.7 776.4,452.7 776.6,445.1C773.6,450.7 768.7,458.1 761,465.3C756.2,469.8 751.5,473.1 747.4,475.6C747.1,480 747.1,486 748.7,492.8C749.6,496.5 750.7,499.7 751.8,502.3C754.9,504.3 759.5,507 765.5,509.1C769.3,510.4 790.2,517.7 810.6,507.6C814.2,505.8 822.2,501.7 828,492.9C828.7,491.8 831.3,487.9 833.2,481.3C840,458.7 830,438.3 829.1,436.6C823.6,425.5 814.7,416.6 812.6,417.8Z" style="fill:rgb(52,25,153);fill-opacity:0.54;fill-rule:nonzero;"/>
    </g>
    <g transform="matrix(1.46301,0,0,1.46301,-809.61,-332.709)">
        <path d="M675.4,430.1C674.5,430.2 676.5,438.4 674.3,446.5C672.7,452.5 667.6,462.3 658.9,464.3C649.8,466.3 638.5,459.6 633.3,447.1C630.9,452.6 627.7,461.4 627.2,472.6C626.9,479.9 626.5,487.7 630.1,495.4C638.2,512.6 662,519.3 679.7,517.7C691.5,516.6 700.4,512 705.2,508.9C706.4,505.5 707.6,501.4 708.4,496.7C709.7,488.6 709.4,481.5 708.7,476.3C700.8,470.6 695.4,464.7 692,460.4C687.2,454.3 680.7,446.1 677.4,434.7C676.9,433.4 676,430 675.4,430.1Z" style="fill:rgb(52,25,153);fill-opacity:0.35;fill-rule:nonzero;"/>
    </g>
</svg>
