<?xml version="1.0" encoding="UTF-8" standalone="no"?>
<!DOCTYPE svg PUBLIC "-//W3C//DTD SVG 1.1//EN" "http://www.w3.org/Graphics/SVG/1.1/DTD/svg11.dtd">
<svg width="100%" height="100%" viewBox="0 0 512 512" version="1.1" xmlns="http://www.w3.org/2000/svg" xmlns:xlink="http://www.w3.org/1999/xlink" xml:space="preserve" xmlns:serif="http://www.serif.com/" style="fill-rule:evenodd;clip-rule:evenodd;stroke-miterlimit:10;">
    <g transform="matrix(1.4765,0,0,1.4765,-1128.86,44.1705)">
        <path d="M875.4,339.8C861.8,342.9 816.108,353.694 821.132,333.627C824.339,320.819 827.547,310.316 827.997,309.036C833.097,294.558 837.546,274.708 856.091,263.769C862.52,259.977 858.632,261.765 867.712,257.476C868.66,257.028 869.27,257.565 870.54,256.945C868.24,285.645 877.7,311.1 875.4,339.8Z" style="fill:white;fill-rule:nonzero;stroke:rgb(22,22,22);stroke-width:3px;"/>
    </g>
    <g transform="matrix(1.4765,0,0,1.4765,-1128.86,44.1705)">
        <path d="M912.6,246.5C909.3,246.7 898.2,247.2 884,250.7C875.9,252.7 869.5,256.128 865.8,257.628C859.1,271.228 850.5,291.1 847.3,317.7C846.624,323.273 846.246,328.553 846.113,333.627C845.343,363.063 1069.56,366.843 1072.87,333.627C1075.15,310.8 1077.15,288.318 1078.9,266.2C1051.2,240.1 1027.2,233.1 1010.3,231.7C977.8,228.9 948.4,244.5 912.6,246.5Z" style="fill:rgb(102,35,129);fill-rule:nonzero;stroke:black;stroke-width:1.35px;stroke-linejoin:round;stroke-miterlimit:2;"/>
    </g>
    <g transform="matrix(1.4765,0,0,1.4765,-1128.86,44.1705)">
        <path d="M957.5,271.7C963.7,278.1 972.2,287.8 979.8,301C984.261,308.748 987.838,316.654 990.664,324.624C1010.96,381.871 1071.76,340.086 1072.9,326.7C1074.69,305.63 1076.18,284.941 1077.4,264.7C1073.5,260.9 1067.5,255.8 1059.5,250.7C1046.6,242.4 1026.3,229.5 1003.4,233.5C974.2,238.5 959.4,267.7 957.5,271.7Z" style="fill:rgb(93,34,118);fill-rule:nonzero;"/>
    </g>
    <g transform="matrix(1.4765,0,0,1.4765,-1128.86,44.1705)">
        <path d="M1072.9,287.6C1070.22,295.127 1066.76,305.008 1062.91,316.85C1059.46,327.508 1069.97,344.289 1071.51,316.85C1072.07,306.951 1072.53,297.198 1072.9,287.6Z" style="fill:rgb(61,61,61);fill-opacity:0.11;fill-rule:nonzero;"/>
    </g>
    <g transform="matrix(1.4765,0,0,1.4765,-1128.86,44.1705)">
        <path d="M1054.7,249.2C1069.6,259.5 1088,274.5 1105.7,295.5C1114.69,306.121 1122.23,316.785 1128.56,327.098C1135.83,338.925 1060.1,360.8 1050.8,333.1C1038.3,295.9 1049.8,261.6 1054.7,249.2Z" style="fill:white;fill-rule:nonzero;stroke:rgb(22,22,22);stroke-width:3px;"/>
    </g>
    <g transform="matrix(1.4765,0,0,1.4765,-1128.86,44.1705)">
        <path d="M1050.1,265.7C1062.1,278.1 1079,296.6 1097.1,320.9C1122.5,354.8 1130.99,329.787 1122.39,316.85C1113.97,304.188 1106.71,295.555 1103.1,291.4C1092.6,279.2 1076.8,263.3 1054.7,248C1053.1,253.9 1051.6,259.8 1050.1,265.7Z" style="fill:rgb(61,61,61);fill-opacity:0.18;fill-rule:nonzero;"/>
    </g>
    <g transform="matrix(1.4765,0,0,1.4765,-1128.86,44.1705)">
        <path d="M891.7,82.5C862.3,106.6 863.5,155.5 875,187.1C882.3,207.1 894,220.8 901.7,228.4C900.1,240 898.5,251.6 896.9,263.2C905.4,267.1 917.6,271.2 932.5,271.9C971.5,273.8 999.4,251 1007,244.4C1000.1,221.3 993.2,198.2 986.3,175C985.4,168.5 983.9,158.5 982.3,146.3C978,114.5 978.2,112.8 976.3,107.6C975.5,105.5 963.5,75 935.6,69.6C913.1,65.4 894.5,80.2 891.7,82.5Z" style="fill:white;fill-rule:nonzero;stroke:rgb(22,22,22);stroke-width:3px;"/>
    </g>
    <g transform="matrix(1.4765,0,0,1.4765,-1128.86,44.1705)">
        <path d="M867.5,163.9C865.8,170.6 864,181.1 865.2,193.7C866,202.1 867.4,216.7 877.9,230.8C889.2,246 904.4,251.8 910.9,253.9C910.4,252.2 909.8,250.1 909.5,247.6C909.2,245 909.3,242.6 909.5,240.8C916.4,244.6 923.4,248.3 930.3,252.1C947.8,236 953.6,221.2 955.6,210.5C957.2,202.1 958.2,186.7 961.9,158.5C962.6,153.5 963.9,144.5 969.6,142.2C972.3,141.1 975.9,141.6 978.2,143.6C985.1,149.4 978.1,166.2 979.6,166.7C981.1,167.2 993.2,150.3 989.1,131C987,121 981.2,114.1 977.8,110.7C970.2,122.7 961.8,135.1 952.5,147.8C946.6,155.9 940.7,163.5 934.9,170.9C932.7,172.1 929.4,173.4 925.6,173.1C922.6,172.8 921.6,171.8 919.4,171.2C911.2,168.9 906.8,178.6 898.7,177.3C892.1,176.2 891.5,169.1 884.2,168.9C880.7,168.8 879.3,170.4 875.7,169.7C871.9,168.6 869.2,166 867.5,163.9Z" style="fill:rgb(22,22,22);fill-rule:nonzero;stroke:rgb(22,22,22);stroke-width:3px;"/>
    </g>
    <g transform="matrix(1.4765,0,0,1.4765,-1128.86,44.1705)">
        <g>
            <path d="M901.5,135.5C899,147.1 897.4,158.8 896.7,170.6C896.6,171.8 898,172.4 899,171.9C903.1,169.8 907.3,167.6 911.4,165.5C913.1,164.6 911.6,162 909.9,162.9C905.8,165 901.6,167.2 897.5,169.3C898.3,169.7 899,170.2 899.8,170.6C900.5,159 902,147.6 904.5,136.3C904.8,134.4 901.9,133.6 901.5,135.5Z" style="fill:rgb(22,22,22);fill-rule:nonzero;"/>
        </g>
    </g>
    <g transform="matrix(1.4765,0,0,1.4765,-1128.86,44.1705)">
        <ellipse cx="885.5" cy="141.7" rx="2.3" ry="5.8" style="fill:rgb(22,22,22);stroke:rgb(22,22,22);stroke-width:3px;"/>
    </g>
    <g transform="matrix(1.4765,0,0,1.4765,-1128.86,44.1705)">
        <ellipse cx="924.3" cy="141.7" rx="3.1" ry="5.8" style="fill:rgb(22,22,22);stroke:rgb(22,22,22);stroke-width:3px;"/>
    </g>
    <g transform="matrix(1.4765,0,0,1.4765,-1128.86,44.1705)">
        <g>
            <path d="M879.9,130.4C881.8,126.9 886,127.7 889.1,128.8C890.9,129.4 891.7,126.5 889.9,125.9C885.5,124.3 879.9,124.2 877.3,128.9C876.4,130.5 879,132.1 879.9,130.4Z" style="fill:rgb(22,22,22);fill-rule:nonzero;"/>
        </g>
    </g>
    <g transform="matrix(1.4765,0,0,1.4765,-1128.86,44.1705)">
        <g>
            <path d="M917.7,126.3C922.4,121.8 929.6,122.2 933.6,127.6C934.7,129.1 937.3,127.6 936.2,126.1C931.1,119.2 921.9,118.3 915.6,124.2C914.2,125.5 916.3,127.6 917.7,126.3Z" style="fill:rgb(22,22,22);fill-rule:nonzero;"/>
        </g>
    </g>
    <g transform="matrix(1.4765,0,0,1.4765,-1128.86,44.1705)">
        <g>
            <path d="M844.3,112C886.4,114.5 928.4,118 970.2,122.6C975.9,123.2 975.9,114.2 970.2,113.6C928.3,109 886.3,105.5 844.3,103C838.5,102.7 838.5,111.7 844.3,112Z" style="fill:rgb(22,22,22);fill-rule:nonzero;"/>
        </g>
    </g>
    <g transform="matrix(1.4765,0,0,1.4765,-1128.86,44.1705)">
        <path d="M871.5,105.8C872.2,99.3 874.8,82.6 887.6,69C904.3,51.3 935.2,43.9 959.2,58.9C978,70.7 988.1,93.5 984.7,116.7C947,113.1 909.3,109.5 871.5,105.8Z" style="fill:rgb(16,112,238);fill-rule:nonzero;"/>
    </g>
    <g transform="matrix(1.4765,0,0,1.4765,-1128.86,44.1705)">
        <path d="M924.7,54.3C919.8,58.4 919.8,67.1 921.5,76.3C923.4,86.4 928.3,98.7 935.6,111.4C952,113.3 968.4,115.3 984.8,117.2C985.5,113.6 986.2,108.4 985.6,102.2C985.6,102.2 984.5,90.8 978.5,80.5C966.5,59.9 935.1,45.5 924.7,54.3Z" style="fill:rgb(19,87,176);fill-rule:nonzero;"/>
    </g>
    <g transform="matrix(1.4765,0,0,1.4765,-1128.86,44.1705)">
        <path d="M976.1,171.7C972.4,173.7 968.7,173.2 967.4,172.9C970.6,179 980.5,199.6 975.7,226.2C971.1,251.5 956.1,266.8 950.9,271.7C957.4,270.4 964.8,268.3 972.8,265.1C988,258.9 999.4,250.7 1007.1,244C999.1,215.9 991.1,187.8 983.1,159.7C983.1,160.2 982.7,168.2 976.1,171.7Z" style="fill:rgb(61,61,61);fill-opacity:0.24;fill-rule:nonzero;"/>
    </g>
    <g transform="matrix(1.4765,0,0,1.4765,-1128.86,44.1705)">
        <path d="M939.1,119.3C940.3,124.4 941.3,132.1 940.1,141.1C938,156.3 930.7,166.8 926.9,171.7C929.2,171 931.5,170.2 933.8,169.5C938.4,163.9 943.1,157.9 947.7,151.8C955.3,141.7 962.3,131.7 968.7,122.1C958.8,121.2 949,120.2 939.1,119.3Z" style="fill:rgb(61,61,61);fill-opacity:0.19;fill-rule:nonzero;"/>
    </g>
</svg>
