<?xml version="1.0" encoding="UTF-8" standalone="no"?>
<!DOCTYPE svg PUBLIC "-//W3C//DTD SVG 1.1//EN" "http://www.w3.org/Graphics/SVG/1.1/DTD/svg11.dtd">
<svg width="100%" height="100%" viewBox="0 0 512 512" version="1.1" xmlns="http://www.w3.org/2000/svg" xmlns:xlink="http://www.w3.org/1999/xlink" xml:space="preserve" xmlns:serif="http://www.serif.com/" style="fill-rule:evenodd;clip-rule:evenodd;stroke-linejoin:round;stroke-miterlimit:2;">
    <g transform="matrix(1.02642,0,0,1.02642,-0.00052,-0.00052)">
        <g>
            <g>
                <clipPath id="_clip1">
                    <rect x="0" y="0" width="512" height="512"/>
                </clipPath>
                <g clip-path="url(#_clip1)">
                    <g id="hand_left_1_" transform="matrix(1,0,0,1,-117.552,0.944859)">
                        <path d="M414.8,399.9C420.1,403.9 427.6,410 435.5,418.3C441.3,424.4 450.9,435.4 466.7,463.5C480.5,488 485.4,501.4 501.5,523.6C506.2,530.1 513.4,539.5 525.5,542.8C526.7,543.1 541.5,546.9 547.9,539.6C550,537.2 656.819,682.253 658.119,674.453C659.419,666.553 659.619,660.753 659.619,660.753C660.319,637.353 660.119,614.053 661.519,596.253C662.419,584.453 665.719,571.453 672.119,545.453C672.819,542.453 677.019,526.553 688.619,516.853C694.219,512.153 696.719,513.053 697.319,513.253C700.819,514.753 700.419,522.153 700.319,523.353C700.019,527.753 698.519,529.053 695.219,536.953C690.319,548.353 690.819,551.853 691.019,553.053C691.719,557.353 694.319,560.453 696.219,562.253C712.119,562.653 725.019,564.753 734.219,566.753C753.519,570.853 759.919,575.153 763.319,578.053C770.319,583.753 774.119,590.453 776.219,594.853C768.919,594.253 761.519,593.553 754.219,592.953C753.819,595.753 753.219,599.553 752.019,604.153C750.619,609.853 749.819,612.853 747.819,616.553C746.419,619.153 744.319,622.953 740.119,626.153C735.019,629.953 729.719,630.653 726.019,631.253C723.019,631.653 720.519,631.753 718.719,631.653C712.119,635.653 658.979,560.649 652.379,564.649C652.745,570.91 628.11,561.772 628.11,566.495C628.01,593.895 591.6,564.3 589.3,570.7C587.1,576.8 584.4,584.2 577.7,591.4C576,593.3 565.5,604.3 549.3,607C532.3,609.9 518.4,602 509.1,596.5C468.8,572.8 445.6,522.7 438.6,506.5" style="fill:white;fill-rule:nonzero;"/>
                        <path d="M445,437C469.5,475.3 482,504.5 488.9,524.9C491.3,532 496.1,546.9 509.5,559.9C515,565.3 529.3,579.2 548.6,578.4C567.5,577.7 585,563.1 593.6,542.1C593.9,548.3 593.8,558.7 589.4,570.5C587.2,576.5 583.4,586.8 573.5,595.4C572.4,596.3 557.3,608.9 537.5,607.6C516.5,606.2 502.5,590.2 493.4,579.4C455,533.8 447.1,463 445,437Z" style="fill:rgb(170,170,170);fill-opacity:0.17;fill-rule:nonzero;"/>
                        <g>
                            <g>
                                <path d="M392.7,389.9C425.2,399 446.1,428 461.4,456.4C470,472.3 477.5,488.8 486.7,504.3C494.4,517.3 503.6,531.7 516.6,540.1C528.5,547.8 545.9,548.5 554.9,535.9C556,534.3 553.4,532.8 552.3,534.4C541.6,549.4 521.3,541.8 510.6,531.4C498.8,520 490.2,505 482.5,490.6C467.8,463.2 455.6,433.7 433.3,411.3C422.2,400.1 408.9,391.3 393.6,387.1C391.6,386.5 390.8,389.4 392.7,389.9Z" style="fill:rgb(22,22,22);fill-rule:nonzero;"/>
                            </g>
                        </g>
                    </g>
                    <g id="torso" transform="matrix(1,0,0,1,-117.552,0.944859)">
                        <path d="M279.7,377.8C288.2,378.7 300.9,380 316.4,381.1C370.1,385.1 383.6,382.1 402,390C421.9,398.6 432.3,413.3 446.5,433.3C472.7,470.4 477.3,500.1 502.1,590C510,618.6 516.9,642.5 522.1,660C503.1,655 435.7,639.6 373.2,676.7C354.8,687.6 341,700.6 331,712.3C313.8,600.8 296.8,489.3 279.7,377.8Z" style="fill:rgb(102,35,129);fill-rule:nonzero;"/>
                    </g>
                    <g id="hand_right_1_" transform="matrix(1,0,0,1,-117.552,0.944859)">
                        <path d="M283.4,378.3C278.2,379.6 270.8,382.5 265,389C255.4,399.9 256.2,414.6 256.5,421.7C257.5,447.9 253.6,474.4 257.8,500.3C260.7,518.1 260.7,554 260.6,625.8C260.5,685.4 257.7,696.4 257.9,765.5C258,791.8 258.5,813.4 258.9,827.4C256.7,827 253.1,826.4 248.7,825C241.2,822.6 238.3,820.3 230.1,818.3C223.9,816.7 221.4,817 219.3,817.8C216,819 213.9,821.4 212.7,822.9C209.7,822.1 204.9,821.3 199.4,822.6C195.1,823.6 191.3,826.1 184,831C177.4,835.4 173.1,838.9 171.2,840.3C161.1,848.5 159.3,851.9 158.3,854.3C157.2,857.4 156.9,860.1 157,862.1C165.6,859.9 175.1,857.4 179.3,856.3C191.3,853.2 196.5,851.8 203.2,853.6C205.7,854.3 210.3,855.6 213.5,859.9C215.9,863.3 216.4,866.8 216.5,868.7C209.9,872 204.3,873.9 200,875.1C194.5,876.6 190.7,877.2 189.9,879.7C189,882.7 192.9,886.2 193.6,886.9C194.9,888 197.8,890.1 204.6,890.6C206.4,890.7 212.7,891 223.1,887.4C232.2,884.3 232.7,882.2 238.6,881.7C244,881.3 244.5,882.9 250.5,882.5C256.2,882.1 260.4,880.2 265,878.2C270.9,875.5 274.8,872.7 279.4,869.4C288.6,862.8 293.1,859.5 295.9,853.8C298.7,848 298.3,842.5 298.1,840C296.1,802.1 305.6,764.4 307.7,726.4C308.9,705.3 309.5,694.7 309.8,686.5C310.7,666.2 312.1,630.7 312.4,585.2C312.7,542.8 312,516.4 311.3,497.6C309.9,462 308.3,447.8 304.3,432.1C298.8,408.8 290.1,390.5 283.4,378.3Z" style="fill:white;fill-rule:nonzero;"/>
                        <path d="M284.2,379.1C282.8,394.3 280.8,418.1 280,447.1C277.7,524.8 285.4,558.9 290.9,676.1C294.2,745.5 293.4,773.6 284.2,808.6C275.8,840.6 263.8,865.6 254.6,882.2C259,880.9 265.1,878.7 271.9,874.9C279.6,870.7 290.6,864.7 296.2,854C300.4,846.1 299.8,839.3 299.6,828.8C299.3,812 301.9,795.3 302.3,778.6C302.9,751.4 305.9,745.8 309.6,709C313.4,671.1 313.7,642.7 314.1,609.4C314.3,594.9 313.6,570 312.3,520.3C311.1,472 310.4,462.3 308,448.8C302.4,418.3 292.1,394.5 284.2,379.1Z" style="fill:rgb(137,137,137);fill-opacity:0.14;fill-rule:nonzero;"/>
                        <g>
                            <g>
                                <path d="M283.8,376.9C272.6,374 264,386.1 260.3,395.1C255.2,407.4 254.9,421.4 254.5,434.5C253.5,468.3 257,501.9 258.4,535.6C261.3,603.5 257.9,671.4 256.8,739.3C256.2,777.5 256.4,815.7 258.8,853.9C258.9,855.8 261.9,855.8 261.8,853.9C257.7,789.4 260,724.7 261.5,660.2C262.2,628.6 262.8,596.9 262.2,565.3C261.6,533.1 258.9,501 257.7,468.9C257,451.8 256.8,434.5 258.4,417.4C259.1,409.8 260.4,402 263.6,395C266.8,387.9 274,377.5 283,379.9C284.9,380.3 285.7,377.4 283.8,376.9Z" style="fill:rgb(22,22,22);fill-rule:nonzero;"/>
                            </g>
                        </g>
                        <g>
                            <g>
                                <path d="M282.9,379.8C298.2,403.6 304.8,431.3 307.7,459.2C310.8,488.1 310.8,517.5 311.1,546.5C311.8,610.6 310,674.8 305.7,738.7C303.3,775 300.1,811.2 296.1,847.3C295.9,849.2 298.9,849.2 299.1,847.3C306.3,782.3 310.9,716.9 313,651.5C314,619.1 314.4,586.7 314.2,554.3C314,524.3 314,494 311.2,464.1C308.5,434 302,403.9 285.4,378.2C284.5,376.7 281.9,378.2 282.9,379.8Z" style="fill:rgb(22,22,22);fill-rule:nonzero;"/>
                            </g>
                        </g>
                    </g>
                    <g id="head_1_" transform="matrix(1,0,0,1,-117.552,0.944859)">
                        <path d="M311.9,267.7C311.7,267.1 309.6,259.3 302.5,256.9C295.5,254.6 288.9,259.4 285.8,263.6C280.9,270.2 283,278.2 283.8,281.5C285.5,288.2 289.6,292.4 293.2,296.1C295.5,298.5 297.3,300.3 300.3,301.5C305.4,303.5 310.3,302.3 312.5,301.6C312.9,304.5 313.4,309.2 313.8,315C314.3,322.1 315.1,335.7 312.8,375.3C312.6,379 312.3,384.4 311.8,391C312.7,392.8 314.1,395.2 316.7,397.2C321.2,400.7 326.3,400.8 329.7,401C336,401.3 344.5,401.9 356,403.6C357.6,401.8 359.2,399.7 360.7,397.1C366.3,387.3 366,377.4 365.5,372.5C370.8,374.3 377.5,376 385.5,376.7C390.3,377.1 394.7,377.1 398.5,376.9C402.9,374.3 409,370.2 415.1,363.8C421.4,357.3 424.8,351.4 428.5,344.9C431.2,340.1 437.5,328.6 442.3,312.3C444.2,305.9 447.1,294.7 448.4,280.3C448.7,276.5 450,261.3 447.3,241.3C445.3,226.2 444.2,218.6 439,209.4C437.7,207.1 432.128,180.38 421.328,172.48C404.028,159.78 383.2,175.6 370.9,177.7C340,182.8 312.6,219.6 311.9,267.7Z" style="fill:white;fill-rule:nonzero;"/>
                        <path d="M343.2,211.7C341.2,216.5 338.7,223.7 336.9,232.5C335,241.6 332.2,261.2 341.5,297.5C346.3,316.1 355.4,343.5 373.7,374.1C370.1,372.9 366.6,371.7 363,370.5C365.2,374.7 367.3,379.8 365.5,381.6C362.4,384.7 348.9,376.5 341.3,370.3C333.8,364.3 321.6,352 314.3,328.1C313.7,319.2 313.1,310.4 312.4,301.5C309.8,302.3 306,303.1 301.7,302.1C286.8,298.7 282.9,277.5 282.7,276.3C281.9,271.8 280.3,262.3 285.8,255.3C291.7,247.7 299.1,251.8 306.3,245.2C317.2,235.2 308.7,218 317.9,210.7C321.4,207.9 328.2,205.9 343.2,211.7Z" style="fill:rgb(170,170,170);fill-opacity:0.06;fill-rule:nonzero;"/>
                        <path d="M313.7,314.9C303.6,310.4 290,302.3 281.2,287.7C270.2,269.5 279.9,263 268,233.2C260.2,213.6 254.3,198.7 243.9,185C243.7,184.8 239.7,179.4 240.5,178.7C242.2,177.1 263.5,199.2 266.9,196.5C268.9,194.9 262.5,186.4 259.4,175.9C255.9,164.1 256,148 266.9,126C268.4,130.1 271.5,136.9 277.8,143.2C287.9,153.2 299.7,155.7 304.2,156.4C301.6,151.5 294.8,137 297.9,118.6C302.4,92 323.8,78.7 327.1,76.7C335.3,87.4 343.5,98.1 351.8,108.8C351.2,107.3 347.2,96.1 353.5,85.3C358,77.7 365,74.7 367.3,73.8C372.5,90.9 379.8,102.3 385.1,109.3C399.6,128.4 410.9,129.6 429.8,152.3C437.7,161.7 445.1,170.5 449.9,183.3C459.1,207.7 453.3,231.9 448,246.5C447.2,237 445.1,224.3 439.8,210.1C433.7,193.7 425.5,181.5 419.2,173.4C411.5,180.9 403.8,188.5 396.1,196C386.4,190.8 376.7,185.6 366.9,180.4C359,190.8 351.2,201.2 343.3,211.6C335.1,213.5 326.9,215.3 318.6,217.2C317.8,227.2 316.9,237.2 316.1,247.2C317,261.9 315.4,266.4 313.3,267C309.7,268 305.9,255.8 298.3,256.4C290.1,257.1 286.5,266 285.7,268.1C283.7,273.6 285,278.4 285.7,281.3C286.4,283.9 289.9,296 301.2,300.2C305.8,301.9 309.9,301.7 312.3,301.4C312.8,306 313.3,310.4 313.7,314.9Z" style="fill:rgb(16,112,238);fill-rule:nonzero;"/>
                        <g>
                            <g>
                                <path d="M312.6,304C314.2,314 318.5,323.1 323.4,331.8C328.3,340.6 333.2,349.6 340,357C353.7,371.8 375.4,378.1 395,378.9C396.9,379 396.9,376 395,375.9C375.6,375.1 354.1,368.8 341,353.7C334.9,346.7 330.4,338.4 326,330.3C321.2,321.7 317,312.9 315.5,303.2C315.2,301.3 312.3,302.1 312.6,304Z" style="fill:rgb(22,22,22);fill-rule:nonzero;"/>
                            </g>
                        </g>
                        <g>
                            <g>
                                <path d="M437.4,209.7C448.3,238.9 450.3,271 443.5,301.5C437.2,329.3 423,363.3 395.8,376.5C394.1,377.3 395.6,379.9 397.3,379.1C424.7,365.8 439.4,332 446,304C453.4,272.6 451.6,239.3 440.3,209C439.7,207.1 436.8,207.8 437.4,209.7Z" style="fill:rgb(22,22,22);fill-rule:nonzero;"/>
                            </g>
                        </g>
                        <g>
                            <g>
                                <path d="M311.3,303C312.8,320.7 313.3,338.5 312.5,356.2C312.1,364.7 311.4,373.3 310.5,381.8C309.9,386.9 309,393 313.3,396.7C318.1,400.8 326.8,401.8 332.8,402.9C339.7,404.2 347.4,405.6 354.4,405C359.7,404.6 360.9,400.8 362.4,396.2C364.9,388.4 366.3,380.4 366.9,372.3C367,370.4 364,370.4 363.9,372.3C363.4,379.3 362.3,386.1 360.3,392.8C359.2,396.5 358.4,401.3 353.7,402.1C350.7,402.6 347,401.9 344,401.6C337.5,401 331,399.8 324.7,398.1C321.7,397.3 317,396.5 314.8,394.2C312.4,391.6 312.8,387.7 313.1,384.5C315.8,357.3 316.6,330.3 314.2,303C314.2,301.1 311.2,301.1 311.3,303Z" style="fill:rgb(22,22,22);fill-rule:nonzero;"/>
                            </g>
                        </g>
                        <g>
                            <g>
                                <path d="M313,299.2C300.5,308.3 285.9,287.9 284.4,277.1C283.4,270.1 286.3,262.5 293,259.3C300.5,255.7 309.1,259.9 310.6,268.1C310.9,270 313.8,269.2 313.5,267.3C312.1,259.3 304.7,254 296.6,255.2C288.2,256.4 282.3,263.7 281.4,271.9C279.7,286.2 298.6,313.6 314.7,301.9C316,300.7 314.5,298.1 313,299.2Z" style="fill:rgb(22,22,22);fill-rule:nonzero;"/>
                            </g>
                        </g>
                        <g>
                            <g>
                                <path d="M352.1,231.1C354.6,224 361.1,215.3 369.6,217C377.5,218.5 381.2,226.3 382.4,233.5C382.7,235.4 385.6,234.6 385.3,232.7C383.8,223.9 378.4,214.6 368.5,213.8C359,213.1 352,222.2 349.1,230.3C348.6,232.1 351.5,232.9 352.1,231.1Z" style="fill:rgb(22,22,22);fill-rule:nonzero;"/>
                            </g>
                        </g>
                        <g>
                            <g>
                                <path d="M418.2,230.6C419.8,226 423.3,221.8 428.3,220.7C434,219.5 439.6,223.2 440.8,228.8C441.2,230.7 444.1,229.9 443.7,228C442.3,221.4 436,216.9 429.2,217.5C422.4,218.2 417.4,223.6 415.3,229.8C414.7,231.7 417.6,232.5 418.2,230.6Z" style="fill:rgb(22,22,22);fill-rule:nonzero;"/>
                            </g>
                        </g>
                        <g>
                            <g>
                                <path d="M405.4,241.7C405.5,255.7 405,269.8 404.1,283.8C403.6,290.6 403.1,297.5 402.3,304.3C401.6,310.9 401.4,318 397.6,323.7C398.5,323.8 399.4,323.9 400.3,324.1C397.7,317.6 395.8,311.1 394.4,304.3C394,302.4 391.1,303.2 391.5,305.1C392.9,311.9 394.9,318.5 397.4,324.9C397.9,326.1 399.4,326.4 400.1,325.3C403.1,320.7 403.9,315.5 404.5,310.2C405.4,302.8 406.1,295.3 406.6,287.8C407.7,272.5 408.2,257.2 408.2,241.8C408.4,239.8 405.4,239.8 405.4,241.7Z" style="fill:rgb(22,22,22);fill-rule:nonzero;"/>
                            </g>
                        </g>
                        <g>
                            <g>
                                <path d="M357.2,317.4C360.7,324 363.3,331.1 370,335.1C375.6,338.4 382.3,339.1 388.5,337.3C390.3,336.8 389.6,333.9 387.7,334.4C381.8,336.1 375.5,335.3 370.4,331.8C365,328 362.8,321.6 359.8,316C358.9,314.2 356.3,315.7 357.2,317.4Z" style="fill:rgb(22,22,22);fill-rule:nonzero;"/>
                            </g>
                        </g>
                        <ellipse cx="372.3" cy="273.6" rx="5" ry="12.6" style="fill:rgb(22,22,22);"/>
                        <ellipse cx="429.3" cy="273.6" rx="5" ry="12.6" style="fill:rgb(22,22,22);"/>
                    </g>
                </g>
            </g>
        </g>
    </g>
</svg>
