<?xml version="1.0" encoding="UTF-8" standalone="no"?>
<!DOCTYPE svg PUBLIC "-//W3C//DTD SVG 1.1//EN" "http://www.w3.org/Graphics/SVG/1.1/DTD/svg11.dtd">
<svg width="100%" height="100%" viewBox="0 0 512 512" version="1.1" xmlns="http://www.w3.org/2000/svg" xmlns:xlink="http://www.w3.org/1999/xlink" xml:space="preserve" xmlns:serif="http://www.serif.com/" style="fill-rule:evenodd;clip-rule:evenodd;stroke-linejoin:round;stroke-miterlimit:2;">
    <g transform="matrix(1.26304,0.542008,-0.542008,1.26304,-191.215,-303.979)">
        <path d="M428.1,389.6C425.5,393.4 422,398.8 417.9,405.4C411.2,416.1 399.7,434.5 389.2,456.8C386.4,462.7 387.5,460.7 364.1,527C362.6,531.3 357.5,545.5 354.5,564.7C351.6,582.4 352.7,590.7 355.6,597.9C358.2,604.2 362.1,608.9 368.4,614.9C377.2,623.2 420.347,588.83 417.07,581.458C413.347,573.08 409.623,564.704 405.9,556.3C408.1,552.3 411.4,546.3 415.3,539.1C428,515.2 432.8,504.4 439.3,492.2C445.1,481.3 454.1,466.2 467.2,449C454.1,429.2 441.1,409.4 428.1,389.6Z" style="fill:white;fill-rule:nonzero;"/>
    </g>
    <g transform="matrix(1.26304,0.542008,-0.542008,1.26304,-191.215,-303.979)">
        <g>
            <path d="M428.2,389.1C392.3,434.2 372.3,488.9 357.8,544.1C357.3,546 360.2,546.8 360.7,544.9C375,490.3 394.8,435.9 430.3,391.3C431.5,389.7 429.4,387.5 428.2,389.1Z" style="fill:rgb(22,22,22);fill-rule:nonzero;"/>
        </g>
    </g>
    <g transform="matrix(1.26304,0.542008,-0.542008,1.26304,-191.215,-303.979)">
        <g>
            <path d="M455,459.2C438.1,490.7 421.7,522.6 405.9,554.6C405,556.3 407.6,557.8 408.5,556.1C424.4,524 440.7,492.2 457.6,460.7C458.5,459 455.9,457.5 455,459.2Z" style="fill:rgb(22,22,22);fill-rule:nonzero;"/>
        </g>
    </g>
    <g transform="matrix(1.26304,0.542008,-0.542008,1.26304,-191.215,-303.979)">
        <path d="M431.3,444.3C423.4,445.7 421.3,462.5 414.5,487C409.9,503.5 403.1,523.8 392.5,546.5C401,558.8 409.4,571.2 417.9,583.5C415.2,571.7 412.5,559.9 409.8,548.1C424.2,520.8 438.5,493.4 452.9,466.1C447.1,455.7 438.7,443 431.3,444.3Z" style="fill:rgb(132,132,132);fill-opacity:0.05;fill-rule:nonzero;"/>
    </g>
    <g transform="matrix(1.26304,0.542008,-0.542008,1.26304,-191.215,-303.979)">
        <path d="M485.6,333.4C471.5,341.2 461.8,350.2 454.1,357.4C440.3,370.3 431.374,384.786 425.074,394.086C426.174,412.186 428.4,438.7 438.4,471.8C450.176,510.908 464.502,532.947 482.258,567.648C484.706,572.432 687.287,500.597 681.967,487.087C669.495,455.414 651.98,408.561 638.1,350.8C635.2,338.6 633.283,328.108 631.783,320.908C631.594,320.868 631.404,320.827 631.215,320.787C588.986,311.832 555.613,314.713 536.2,317.6C506.9,322.1 491.4,330.1 485.6,333.4Z" style="fill:rgb(102,35,129);fill-rule:nonzero;stroke:black;stroke-width:1.46px;"/>
    </g>
    <g transform="matrix(1.26304,0.542008,-0.542008,1.26304,-191.215,-303.979)">
        <path d="M632.2,321.7C628.7,327.2 625.3,333.6 622.6,341C611.4,371.1 617.3,399.1 621.3,412.7C633.2,430.9 645.2,449.3 657.1,468C660.738,473.655 664.353,479.31 667.951,484.961C675.232,496.399 730.165,470.529 720.986,451.038C720.499,450.004 720.004,448.958 719.5,447.9C717.2,443.1 716.1,440.8 699.5,408.6C699.5,408.6 690.8,391.7 673,359.5C665.7,346.3 660.2,336.7 648.7,329.2C642.4,325 636.4,322.9 632.2,321.7Z" style="fill:white;fill-rule:nonzero;"/>
    </g>
    <g transform="matrix(1.26304,0.542008,-0.542008,1.26304,-191.215,-303.979)">
        <g>
            <path d="M632.2,323.2C646.5,324 655.1,338 662.1,348.8C670.5,361.6 678.5,374.6 686.2,387.8C701.7,414.5 715.7,442 728.2,470.3C735.4,486.7 742.1,503.3 748.3,520.1C749,521.9 751.9,521.1 751.2,519.3C728.6,457.8 699,398.9 662.8,344.2C655.5,333.3 646.6,320.9 632.3,320.2C630.3,320.1 630.3,323.1 632.2,323.2Z" style="fill:rgb(22,22,22);fill-rule:nonzero;"/>
        </g>
    </g>
    <g transform="matrix(1.26304,0.542008,-0.542008,1.26304,-191.215,-303.979)">
        <g>
            <path d="M629.739,321.555C613.739,350.155 610.5,383.4 620.3,414.7C620.9,416.5 623.8,415.8 623.2,413.9C613.7,383.4 616.739,351.055 632.339,323.155C633.239,321.355 630.639,319.855 629.739,321.555Z" style="fill:rgb(22,22,22);fill-rule:nonzero;"/>
        </g>
    </g>
    <g transform="matrix(1.26304,0.542008,-0.542008,1.26304,-191.215,-303.979)">
        <path d="M629,322.8C626.4,326.4 641,339.5 653.5,353.5C653.5,353.5 683,386.4 701.9,431.9C708.547,447.916 714.072,461.168 716.775,475.129C718.342,483.222 733.33,478.44 729.471,469.681C722.991,454.972 714.567,437.068 704.1,417.2C691.3,393 674.6,364.6 653.3,333.9C651.9,331.9 649,328.2 644,325.5C639.1,322.9 630.7,320.5 629,322.8Z" style="fill:rgb(132,132,132);fill-opacity:0.13;fill-rule:nonzero;"/>
    </g>
    <g transform="matrix(1.26304,0.542008,-0.542008,1.26304,-191.215,-303.979)">
        <path d="M406.2,203.1C398.9,211.1 396.2,218.4 395.6,220.2C390.5,234.9 394.6,248.2 396.4,253.3C400.1,272 404.1,288.2 407.6,301.3C411.3,314.8 415,326.9 424.4,338.9C431.1,347.4 436.2,350.2 440.4,351.5C448.2,354 455.3,352.1 461.3,350.6C465.8,349.4 473.1,347 480.8,341.3C482.9,346.2 487.7,355.3 497.6,361.8C500.8,363.9 503.8,365.3 506.6,366.3C509.1,364.8 512.4,362.7 515.9,359.6C520.1,355.9 526,350.6 528.7,342C529.5,339.5 530.3,335.7 530.1,331C527.7,328.4 525.3,325.3 522.9,321.8C514.2,308.8 511.3,295.6 510.2,286.6C514.1,283.6 521.4,277.2 526.1,266.4C527.7,262.7 533.5,249.1 528.9,234.1C527.5,229.5 524.9,224 510.9,210.1C494.4,193.7 486.1,185.5 478.1,182.4C452.2,172.3 421.5,186.4 406.2,203.1Z" style="fill:white;fill-rule:nonzero;"/>
    </g>
    <g transform="matrix(1.26304,0.542008,-0.542008,1.26304,-191.215,-303.979)">
        <path d="M397.2,257.6C392.5,255.3 381.9,249.3 378.9,238.3C377.7,233.9 377.1,227 386.6,209.1C399.9,184.1 411.2,178.3 422.6,156.8C428.3,146 431.3,136.5 432.9,130.6C433.9,138.5 434.9,146.3 435.9,154.2C442.5,149.4 451,142.1 459.1,131.9C469,119.3 474.5,107.1 477.5,98.4C478.6,104.9 479.6,111.6 480.5,118.6C482.5,133.9 483.7,148.5 484.4,162.4C488.4,160.4 494.9,156.3 500.7,149.1C507.7,140.3 510.1,131.4 511,126.8C509.9,141.7 508.7,156.5 507.6,171.4C510.5,168.9 514.2,165.3 517.5,160.2C523,151.8 524.6,143.5 525.2,138.8C527.6,151.3 528.8,161.7 529.5,169.3C530.5,181.2 530.6,190.8 530.8,207.9C530.9,216.6 530.8,223.9 530.8,228.9C536,214.2 538.5,211.5 539.8,211.7C543,212.3 542.5,229.8 541.1,241.7C539.7,253.5 538.1,265.6 529.9,278.6C524,288 517,294.2 512.3,297.7C510.3,292.7 507.9,284.7 509.4,275.2C509.7,273.2 510.2,271.3 510.7,269.6C512.3,269.4 514.7,268.9 517.1,267.5C521.8,264.9 523.9,260.8 525.3,258.1C527.4,253.9 531.1,246.6 527.9,239.2C527.4,238.1 524.9,232.3 518.7,230.4C513.2,228.8 507,230.9 502.8,235.9C501.5,231.2 499,224.5 494,217.4C488.1,209 481.4,203.9 477.1,201.1C473.2,199.1 459.7,193 442.6,196.7C427.4,200 418.3,209.1 415.1,212.6C411.7,214.7 407,218.2 403.1,223.8C393,238 396.4,254.3 397.2,257.6Z" style="fill:rgb(16,112,238);fill-rule:nonzero;"/>
    </g>
    <g transform="matrix(1.26304,0.542008,-0.542008,1.26304,-191.215,-303.979)">
        <g>
            <path d="M393.9,247.4C396.9,265 400.3,282.5 405.6,299.6C410.2,314.4 415.9,331.2 426,343.3C447.7,369.5 484.6,343.3 499,322.4C509.4,307.2 513.8,288.6 510.8,270.3C510.5,268.4 507.6,269.2 507.9,271.1C512.8,301.5 495.4,331.5 468.6,345.7C453.2,353.8 435.6,352.9 425.5,337.5C417.3,325.1 412,310.4 407.8,296.2C403,279.9 399.8,263.3 396.9,246.6C396.4,244.7 393.5,245.5 393.9,247.4Z" style="fill:rgb(22,22,22);fill-rule:nonzero;"/>
        </g>
    </g>
    <g transform="matrix(1.26304,0.542008,-0.542008,1.26304,-191.215,-303.979)">
        <g>
            <path d="M508.8,286.5C510.6,303 517,318.2 527.6,330.8C528.8,332.3 531,330.1 529.7,328.7C519.6,316.7 513.4,302.1 511.7,286.5C511.6,284.6 508.5,284.5 508.8,286.5Z" style="fill:rgb(22,22,22);fill-rule:nonzero;"/>
        </g>
    </g>
    <g transform="matrix(1.26304,0.542008,-0.542008,1.26304,-191.215,-303.979)">
        <g>
            <path d="M478.8,340.8C485.3,350.6 492.3,360 502,366.9C503.6,368 505.1,365.4 503.5,364.3C494.3,357.7 487.6,348.6 481.4,339.3C480.3,337.7 477.7,339.2 478.8,340.8Z" style="fill:rgb(22,22,22);fill-rule:nonzero;"/>
        </g>
    </g>
    <g transform="matrix(1.26304,0.542008,-0.542008,1.26304,-191.215,-303.979)">
        <g>
            <path d="M502.4,367.2C509.7,370.4 518.4,359.5 522.3,354.6C527.2,348.3 534.6,338.9 531.6,330.4C531,328.6 528.1,329.4 528.7,331.2C531.1,338 525.2,345.5 521.4,350.8C519.4,353.5 517.3,356.1 514.9,358.4C512.9,360.3 507.3,366 504,364.6C502.1,363.8 500.6,366.4 502.4,367.2Z" style="fill:rgb(22,22,22);fill-rule:nonzero;"/>
        </g>
    </g>
    <g transform="matrix(1.26304,0.542008,-0.542008,1.26304,-191.215,-303.979)">
        <g>
            <path d="M510.4,271.4C524.4,269.3 530.4,253.8 528.7,241C527,228.5 511.9,224.4 503.4,233.2C502.1,234.6 504.2,236.7 505.5,235.3C509.5,231.2 515.5,229.8 520.5,233.1C525.3,236.2 526.2,241.5 525.7,246.8C524.8,257.1 521.1,266.9 509.7,268.6C507.7,268.8 508.5,271.7 510.4,271.4Z" style="fill:rgb(22,22,22);fill-rule:nonzero;"/>
        </g>
    </g>
    <g transform="matrix(1.26304,0.542008,-0.542008,1.26304,-191.215,-303.979)">
        <g>
            <path d="M420.4,244.1C421.9,262.3 424.6,280.4 428.3,298.2C428.6,299.6 430.9,299.6 431.2,298.2C432.8,290.9 434.4,283.6 435.9,276.3C436.3,274.4 433.4,273.6 433,275.5C431.4,282.8 429.8,290.1 428.3,297.4L431.2,297.4C427.5,279.8 424.9,262 423.4,244.1C423.3,242.2 420.3,242.2 420.4,244.1Z" style="fill:rgb(22,22,22);fill-rule:nonzero;"/>
        </g>
    </g>
    <g transform="matrix(1.26304,0.542008,-0.542008,1.26304,-191.215,-303.979)">
        <g>
            <path d="M438.9,303.3C450.6,301.4 459.7,288 461.9,277.1C462.3,275.2 459.4,274.4 459,276.3C457,286.2 448.8,298.6 438.1,300.4C436.2,300.7 437,303.6 438.9,303.3Z" style="fill:rgb(22,22,22);fill-rule:nonzero;"/>
        </g>
    </g>
    <g transform="matrix(1.35673,0.219823,-0.219823,1.35673,-315.555,-196.397)">
        <ellipse cx="411.4" cy="266.3" rx="3.3" ry="9.6" style="fill:rgb(22,22,22);"/>
    </g>
    <g transform="matrix(1.35673,0.219823,-0.219823,1.35673,-313.82,-182.568)">
        <ellipse cx="449.5" cy="249.8" rx="3.3" ry="9.6" style="fill:rgb(22,22,22);"/>
    </g>
    <g transform="matrix(1.26304,0.542008,-0.542008,1.26304,-191.215,-303.979)">
        <g>
            <path d="M400.3,244.4C400.1,242.2 400.4,238.7 402.4,237.3C404.1,236.2 407.6,236.9 409,238.2C410.4,239.5 412.5,237.4 411.1,236.1C408.9,234 404.3,232.9 401.4,234.2C398,235.7 397,241.2 397.3,244.4C397.5,246.3 400.5,246.4 400.3,244.4Z" style="fill:rgb(22,22,22);fill-rule:nonzero;"/>
        </g>
    </g>
    <g transform="matrix(1.26304,0.542008,-0.542008,1.26304,-191.215,-303.979)">
        <g>
            <path d="M436.2,222.4C437.4,218.5 441.4,216.1 445.4,216.8C449,217.5 451.7,220.2 453.4,223.3C454.3,225 456.9,223.5 456,221.8C453.5,217.2 449,213.5 443.5,213.7C438.7,213.9 434.6,217.1 433.2,221.6C432.7,223.5 435.6,224.2 436.2,222.4Z" style="fill:rgb(22,22,22);fill-rule:nonzero;"/>
        </g>
    </g>
</svg>
