<?xml version="1.0" encoding="UTF-8" standalone="no"?>
<!DOCTYPE svg PUBLIC "-//W3C//DTD SVG 1.1//EN" "http://www.w3.org/Graphics/SVG/1.1/DTD/svg11.dtd">
<svg width="100%" height="100%" viewBox="0 0 512 512" version="1.1" xmlns="http://www.w3.org/2000/svg" xmlns:xlink="http://www.w3.org/1999/xlink" xml:space="preserve" xmlns:serif="http://www.serif.com/" style="fill-rule:evenodd;clip-rule:evenodd;stroke-miterlimit:10;">
    <g transform="matrix(1.38453,0,0,1.38453,-1026.72,-24.9468)">
        <path d="M864.3,339.3C859.555,354.824 843.191,371.702 850.326,387.089C878.322,447.461 1027.93,437.997 968.461,374.875C957.985,373 974.693,328.863 960.827,328.118C949.544,327.512 937.245,327.513 924.1,328.5C900.5,330.2 880.3,334.6 864.3,339.3Z" style="fill:rgb(102,35,129);fill-rule:nonzero;"/>
    </g>
    <g transform="matrix(1.38453,0,0,1.38453,-1026.72,-24.9468)">
        <path d="M939.2,345.5C936.739,359.284 934.28,373.067 931.821,386.848C915.002,481.145 1003.01,446.256 998.927,388.634C998.578,383.707 998.202,378.829 997.8,374C990.3,358.9 982.7,343.8 975.2,328.8C965.7,328.5 956.2,328.2 946.7,328C946.9,328.2 950.8,332.6 949.2,338.1C948.1,342.2 944,345.3 939.2,345.5Z" style="fill:rgb(86,30,110);fill-rule:nonzero;"/>
    </g>
    <g transform="matrix(1.38453,0,0,1.38453,-1026.72,-24.9468)">
        <path d="M956,356.4C955.43,366.519 954.798,376.724 954.101,387.014C951.989,418.213 1007.8,511.8 978.6,415.8C972,394.2 964.3,374.4 956,356.4Z" style="fill:rgb(102,102,102);fill-opacity:0.3;fill-rule:nonzero;"/>
    </g>
    <g transform="matrix(1.38453,0,0,1.38453,-1026.72,-24.9468)">
        <path d="M950.1,328C951.585,348.608 952.794,368.01 953.781,386.033C955.518,417.773 1018.38,410.443 1009.7,385.343C1002.67,365.02 1003.57,361.476 1001.5,356.4C1001.25,345.92 985.411,326.667 970.614,325.954C961.466,325.512 955,325.7 950.1,328Z" style="fill:white;fill-rule:nonzero;stroke:rgb(22,22,22);stroke-width:2px;"/>
    </g>
    <g transform="matrix(1.38453,0,0,1.38453,-1026.72,-24.9468)">
        <path d="M893.2,341.4C890.219,354.388 886.857,369.571 883.3,386.685C878.504,409.76 813.375,441.055 833.118,386.685C834.859,381.891 836.777,376.911 838.9,371.7C846.6,352.9 855.668,345.799 864.293,338.984C886.831,327.932 905.5,326.7 906.4,330.9C907.1,333.1 902.6,336.7 893.2,341.4Z" style="fill:white;fill-rule:nonzero;stroke:rgb(22,22,22);stroke-width:2px;"/>
    </g>
    <g transform="matrix(1.38453,0,0,1.38453,-1026.72,-24.9468)">
        <path d="M843.9,184.6C834.9,179.3 827.3,169.2 829.8,164.1C832.3,158.8 843.5,163 847.8,156.4C850.8,151.7 846.5,147.6 847.2,137.8C847.4,135.2 848.4,120.4 858.1,116C864.9,112.9 874,115.7 881.2,122.4C884.5,121.9 888.9,120.7 890.8,117.3C894.7,110.5 885.7,100.8 888.9,97.4C892.2,93.9 905,100.8 908.1,102.5C915.3,106.4 920.4,110.9 923.5,114C924.2,111.5 928.6,96.8 940.8,92.8C952.7,88.9 964.2,97.6 972.2,103.7C981.6,110.8 983.4,115.6 999.8,139.6C1019.3,168.2 1024.5,172.7 1023.5,182.6C1022.9,189 1020.6,188.9 1015.2,207C1011.4,219.6 1012.1,221.1 1009.4,230.1C1007.6,236.2 1002.8,251.5 991.4,266C986.3,272.5 971,290.4 965.1,287.2C956.3,282.3 984.3,244.8 969.6,221.1C952.8,194.1 883,189.4 864.4,189.7C862.3,189.8 853,190 843.9,184.6Z" style="fill:rgb(16,112,238);fill-rule:nonzero;"/>
    </g>
    <g transform="matrix(1.38453,0,0,1.38453,-1026.72,-24.9468)">
        <path d="M898,301.6C896,308.1 905.4,314 908.7,329.7C910.7,339 909.6,347.3 908.1,353.3C913.8,352.5 921.1,350.9 929.1,347.8C936.4,345 942.3,341.6 946.8,338.6C943.6,323 940.4,307.3 937.3,291.7C908.2,291.6 899.6,296.4 898,301.6Z" style="fill:white;fill-rule:nonzero;stroke:rgb(22,22,22);stroke-width:2px;"/>
    </g>
    <g transform="matrix(1.38453,0,0,1.38453,-1026.72,-24.9468)">
        <path d="M909.3,328.4C920.9,324.8 933,318.3 941.8,309.8C943.2,308.5 941.1,306.3 939.7,307.7C931.4,315.8 919.5,322.1 908.5,325.5C906.7,326.1 907.5,329 909.3,328.4Z" style="fill:rgb(22,22,22);fill-rule:nonzero;"/>
    </g>
    <g transform="matrix(1.38453,0,0,1.38453,-1026.72,-24.9468)">
        <path d="M905.4,320.6C906.6,324 907.1,327.6 911.4,326.3C917.9,324.2 924.2,320.6 930.3,317.6C932,316.8 930.5,314.2 928.8,315C925.2,316.7 921.6,318.4 917.9,320.1C916.4,320.8 914.8,321.7 913.2,322.2C910.1,323.2 909.3,322.7 908.3,319.8C907.7,318 904.8,318.8 905.4,320.6Z" style="fill:rgb(22,22,22);fill-rule:nonzero;"/>
    </g>
    <g transform="matrix(1.38453,0,0,1.38453,-1026.72,-24.9468)">
        <path d="M907.5,322.8C914.9,322.8 921.9,321 928.5,317.5C930.2,316.6 928.7,314 927,314.9C920.9,318.1 914.5,319.8 907.6,319.8C905.5,319.9 905.5,322.9 907.5,322.8Z" style="fill:rgb(22,22,22);fill-rule:nonzero;"/>
    </g>
    <g transform="matrix(1.38453,0,0,1.38453,-1026.72,-24.9468)">
        <path d="M860.4,212.6C859.1,218.5 855.3,237.4 859.9,260.9C861.5,269.1 863.2,278.2 869.1,288.6C877.3,303 888.5,311.3 895.2,315.5C899.6,316 932,319.3 955.1,295.6C967,283.4 971,269.6 972.5,262.5C974.6,263 981.8,264.6 988.6,260.7C998.4,255 1000.9,241.6 997.1,232.5C996.8,231.8 992.1,221.2 984.6,221.8C980.3,222.1 977.4,225.9 976.5,227.2C979.5,220.1 988.6,195.9 977.4,177.1C959.5,147.1 901.5,148.3 877.2,173.5C866.7,184.4 863.5,198.8 860.4,212.6Z" style="fill:white;fill-rule:nonzero;stroke:rgb(22,22,22);stroke-width:2px;"/>
    </g>
    <g transform="matrix(1.38453,0,0,1.38453,-1026.72,-24.9468)">
        <path d="M874.5,235.2C872.8,233.6 874,228.7 874.6,226.8C874.7,226.2 874.9,225.6 875.3,225C875.4,225.6 875.6,226.3 875.6,226.9C875.8,228.2 875.8,229.6 875.7,230.9C875.6,232.1 875.1,233.5 875.1,234.7C874.5,235.4 874.6,235.8 875.3,236C875.3,235.2 875.4,234.5 875.4,233.7C875.6,230.8 876.1,228 876.8,225.1C875.8,225 874.8,224.8 873.9,224.7C873.6,228.8 873.3,232.8 873.1,236.9C873.9,236.5 874.6,236 875.4,235.6L875.4,236C875.8,234.1 872.9,233.3 872.5,235.2C872.2,236.5 872.5,237.6 873.8,238.2C874.9,238.7 876,238.1 876.1,236.9C876.4,232.8 876.7,228.8 876.9,224.7C877,223 874.4,222.7 874,224.3C873.2,227.6 872.6,230.9 872.4,234.2C872.3,235.9 872.1,238.7 874.3,239.3C879,240.7 878.9,230.1 878.7,227.6C878.6,225.8 878.5,223.1 876.9,221.8C875.6,220.7 873.8,221.3 872.9,222.6C870.7,225.8 869.3,234.3 872.4,237.2C873.8,238.6 875.9,236.5 874.5,235.2Z" style="fill:rgb(22,22,22);fill-rule:nonzero;"/>
    </g>
    <g transform="matrix(1.38453,0,0,1.38453,-1026.72,-24.9468)">
        <path d="M932.3,235.9C931.9,234 931.7,232 931.9,230.1C932,228.8 932.8,224.4 934,227.5C935.3,230.9 933.5,235.7 931.8,238.5C932.5,238.3 933.2,238.1 933.9,238C932.3,237.2 933,233.7 933.2,232.4C933.3,231.2 933.3,227.3 934.5,226.6C933.8,226.3 933,226 932.3,225.7C933.1,229.5 933,233.3 932.2,237.1C933.1,237 934,236.9 934.9,236.7C933.7,233.8 933.7,230.9 934.7,228L931.8,228C932.1,229.5 932.1,230.6 931.7,232.1C931.2,234 934.1,234.8 934.6,232.9C935.1,230.9 935.1,229.2 934.7,227.2C934.3,225.7 932.2,225.9 931.8,227.2C930.5,231 930.8,234.6 932.4,238.3C932.9,239.5 934.9,239.1 935.1,237.9C936,233.5 936,229.2 935.2,224.9C935,224 933.8,223.5 933,224C930.3,225.7 930.4,230.1 930.1,233C929.8,235.7 929.5,239.2 932.3,240.7C933,241.1 933.9,240.9 934.4,240.2C936.3,237.2 937.4,233.7 937.3,230.2C937.3,227.8 937,224 934.5,222.8C928.2,219.8 928.9,234.2 929.5,237C929.8,238.6 932.7,237.8 932.3,235.9Z" style="fill:rgb(22,22,22);fill-rule:nonzero;"/>
    </g>
    <g transform="matrix(1.38453,0,0,1.38453,-1026.72,-24.9468)">
        <path d="M896.7,240C892.6,246.7 887.6,255.6 886.9,263.5C886.3,269.3 894.7,271.3 899.2,270.8C901.1,270.6 901.1,267.6 899.2,267.8C897.2,268 893.4,268.1 891.9,266.4C889.2,263.4 891.1,259.4 892.2,256.2C894.1,251 896.5,246.1 899.4,241.4C900.3,239.9 897.7,238.4 896.7,240Z" style="fill:rgb(22,22,22);fill-rule:nonzero;"/>
    </g>
    <g transform="matrix(1.38453,0,0,1.38453,-1026.72,-24.9468)">
        <path d="M890.9,251.8C890.5,252.5 890.1,253.2 889.7,253.9C889.3,254.6 889.5,255.5 890.2,256C890.9,256.4 891.9,256.2 892.3,255.5C892.7,254.8 893.1,254.1 893.5,253.4C893.9,252.7 893.7,251.8 893,251.3C892.2,250.9 891.3,251.1 890.9,251.8Z" style="fill:rgb(22,22,22);fill-rule:nonzero;"/>
    </g>
    <g transform="matrix(1.38453,0,0,1.38453,-1026.72,-24.9468)">
        <path d="M871.1,214C875.2,215.5 878.6,218.3 880.8,222.1C881.5,223.3 883.5,222.2 882.7,221C880.1,216.7 876.3,213.6 871.6,211.9C870.3,211.4 869.7,213.5 871.1,214Z" style="fill:rgb(22,22,22);fill-rule:nonzero;"/>
    </g>
    <g transform="matrix(1.38453,0,0,1.38453,-1026.72,-24.9468)">
        <path d="M923.7,225.1C926.2,220.4 930.3,217 935.4,215.5C936.8,215.1 936.2,212.9 934.8,213.3C929.2,215 924.5,218.8 921.7,224C921.1,225.3 923.1,226.4 923.7,225.1Z" style="fill:rgb(22,22,22);fill-rule:nonzero;"/>
    </g>
    <g transform="matrix(1.38453,0,0,1.38453,-1026.72,-24.9468)">
        <path d="M906.6,318.2C906.5,318.2 906.5,318.3 906.4,318.3C907,318.4 907.6,318.5 908.2,318.5C908.1,318.4 908.1,318.4 908,318.3L908,320.4C908.8,320.2 909.5,320.1 910.3,319.9C911.9,319.8 912.5,317.2 910.7,317C909.9,316.7 909.1,316.4 908.2,316.1L908.2,318.7C908.5,318.7 908.9,318.7 909.2,318.8L909.2,315.9C908.3,315.9 907.4,315.8 906.5,315.8C904.6,315.2 904,318 905.7,318.7C909.3,320.2 913.7,318.8 917.3,318C922.2,317 926.9,315.4 931.3,313C930.7,312.2 930.1,311.4 929.5,310.6C926.5,313.6 922.2,314.5 918.3,315.9C914.5,317.2 910.6,318.6 906.8,319.9C905,320.5 905.7,323.3 907.6,322.8C916.7,320.6 929.8,319.8 936.2,312.1C937.4,310.6 935.3,308.5 934.1,310C931,313.7 926.6,315.1 922.1,316.2C917,317.5 911.9,318.7 906.8,319.9C907.1,320.9 907.3,321.8 907.6,322.8C912.6,321 917.6,319.3 922.6,317.5C925.9,316.3 929,315.2 931.6,312.7C932.8,311.5 931.3,309.5 929.8,310.3C926.1,312.3 922.3,313.7 918.2,314.6C914.8,315.4 909.8,317 906.5,315.7C906.2,316.7 906,317.6 905.7,318.6C907.3,319.1 908.4,319.1 910,318.7C911.5,318.3 911.3,316.3 910,315.8C908.5,315.2 908.2,315.3 906.7,316C905.6,316.5 905.8,318 906.7,318.6C908.3,319.6 908,319.5 909.9,319.8C910,318.8 910.2,317.8 910.3,316.9C908.7,317 907.1,317.1 905.9,318.3C905.3,318.9 905.4,319.8 905.9,320.4C906,320.5 906,320.5 906.1,320.6C906.5,321.1 907.4,321.1 907.9,320.8C908,320.8 908,320.7 908.1,320.7C909.8,320 908.3,317.4 906.6,318.2Z" style="fill:rgb(22,22,22);fill-rule:nonzero;"/>
    </g>
    <g transform="matrix(1.38453,0,0,1.38453,-1026.72,-24.9468)">
        <path d="M938.8,307.8C936.1,308.7 933.6,310 931.4,311.8C929.9,313 932,315.1 933.5,313.9C935.3,312.4 937.3,311.3 939.5,310.6C941.4,310.1 940.6,307.2 938.8,307.8Z" style="fill:rgb(22,22,22);fill-rule:nonzero;"/>
    </g>
    <g transform="matrix(1.38453,0,0,1.38453,-1026.72,-24.9468)">
        <path d="M894.3,287.3C904.6,288.1 914.9,279.4 920.6,271.5C921.4,270.3 919.5,269.2 918.7,270.4C913.5,277.6 903.8,285.8 894.4,285C892.9,284.9 892.9,287.2 894.3,287.3Z" style="fill:rgb(22,22,22);fill-rule:nonzero;"/>
    </g>
    <g transform="matrix(1.38453,0,0,1.38453,-1026.72,-24.9468)">
        <path d="M926.2,190.7C928.1,193.3 953.4,228.3 938.4,268.8C926.9,299.8 899.8,312.4 894.5,314.7C899.3,315.3 926.2,318 949,299C965.3,285.4 970.5,268.1 972.1,261.7C980.5,263.6 989.1,260.9 994.1,254.6C999.3,248.1 998.4,240.5 998,238.1C997.2,233.5 994,222.9 986.2,222.4C980.9,222.1 975.3,226.5 972.9,233.4C976.8,224.8 976,218.7 975.3,215.7C971.6,200.9 951.8,189.4 926.2,190.7Z" style="fill:rgb(102,102,102);fill-opacity:0.09;fill-rule:nonzero;"/>
    </g>
    <g transform="matrix(1.38453,0,0,1.38453,-1026.72,-24.9468)">
        <path d="M896.3,240C895.1,239.2 876.2,255.4 882.1,265.3C884.7,269.7 891.3,271.6 898.4,271.1C894.5,271.1 890.4,270.3 888.3,267.4C882.4,259.2 897.5,240.8 896.3,240Z" style="fill:rgb(102,102,102);fill-opacity:0.26;fill-rule:nonzero;"/>
    </g>
    <g transform="matrix(1.38453,0,0,1.38453,-1026.72,-24.9468)">
        <path d="M973,256.3C971.6,255.7 966.7,266.7 954.6,282.1C944,295.7 936.4,301.7 934.2,303.4C927.6,308.6 921.4,312 917.1,314.1C919.7,315.8 923.9,319 927.1,324.4C932.6,333.8 931.5,343.2 931,346C936.1,343.5 941.1,341 946.2,338.6C944.3,328 942.3,317.5 940.4,306.9C946.4,303.1 951,299.3 954.6,295.9C957.1,293.6 958.8,292 960.7,289.4C963.1,286.3 965.1,282.6 968.5,272.9C971.7,263.7 974.1,256.8 973,256.3Z" style="fill:rgb(102,102,102);fill-opacity:0.23;fill-rule:nonzero;"/>
    </g>
    <g transform="matrix(1.38453,0,0,1.38453,-1026.72,-24.9468)">
        <path d="M846.6,210.5C846.7,215.5 852.6,223.4 859.3,224.5C866.6,225.7 870.9,218.5 884,210.2C895.4,203 903.4,197.9 912.6,198.2C931.1,198.7 934.2,218.2 956.5,222.3C957.6,222.5 978.5,226 990.6,213.2C1001.5,201.7 1002.1,180.7 991.3,161.8C871.4,184 846.3,199.9 846.6,210.5Z" style="fill:rgb(22,22,22);fill-rule:nonzero;stroke:rgb(22,22,22);stroke-width:1px;"/>
    </g>
    <g transform="matrix(1.38453,0,0,1.38453,-1026.72,-24.9468)">
        <path d="M1010.1,227.5C1004.2,218.9 998.3,210.4 992.4,201.8C994.1,196.7 995.9,191.6 997.6,186.5C1003.9,192.1 1010.2,197.7 1016.5,203.4C1014.4,211.4 1012.2,219.5 1010.1,227.5Z" style="fill:rgb(22,22,22);fill-rule:nonzero;stroke:rgb(22,22,22);stroke-width:1px;"/>
    </g>
    <g transform="matrix(1.38453,0,0,1.38453,-1026.72,-24.9468)">
        <path d="M853.9,164.2C841.8,177.4 838.1,193.3 844,204.4C844.8,205.9 848.7,213.2 856.7,215.4C874.9,220.4 886.2,191.2 911.2,192.3C921.4,192.8 931.9,198.2 935.4,200C945.9,205.5 950.4,211.1 960.4,212C960.7,212 968.3,212.6 974.7,209.8C987.7,204.1 995,184.5 992.2,161.5C975.7,155.5 947,147.6 911.2,150.5C887,152.4 867.5,158.6 853.9,164.2Z" style="fill:white;fill-rule:nonzero;stroke:rgb(22,22,22);stroke-width:2px;"/>
    </g>
    <g transform="matrix(1.38453,0,0,1.38453,-1026.72,-24.9468)">
        <path d="M876,199.7C886.8,184.2 898.9,169.7 912.2,156.2C913.6,154.8 911.4,152.7 910.1,154.1C896.6,167.7 884.4,182.5 873.4,198.2C872.3,199.8 874.9,201.3 876,199.7Z" style="fill:rgb(22,22,22);fill-rule:nonzero;"/>
    </g>
    <g transform="matrix(1.38453,0,0,1.38453,-1026.72,-24.9468)">
        <path d="M905.6,190.1C910.7,183.5 915.8,177 921,170.4C922.2,168.9 920.1,166.8 918.9,168.3C913.8,174.9 908.7,181.4 903.5,188C902.3,189.5 904.4,191.7 905.6,190.1Z" style="fill:rgb(22,22,22);fill-rule:nonzero;"/>
    </g>
    <g transform="matrix(1.38453,0,0,1.38453,-1026.72,-24.9468)">
        <path d="M983.2,151.4C988.2,152.5 991.9,158.1 994.8,162C995.4,162.8 996.7,162 996.1,161.2C992.9,156.9 989.2,151.2 983.6,150C982.7,149.7 982.3,151.2 983.2,151.4Z" style="fill:rgb(22,22,22);fill-rule:nonzero;"/>
    </g>
</svg>
