<?xml version="1.0" encoding="UTF-8" standalone="no"?>
<!DOCTYPE svg PUBLIC "-//W3C//DTD SVG 1.1//EN" "http://www.w3.org/Graphics/SVG/1.1/DTD/svg11.dtd">
<svg width="100%" height="100%" viewBox="0 0 512 512" version="1.1" xmlns="http://www.w3.org/2000/svg" xmlns:xlink="http://www.w3.org/1999/xlink" xml:space="preserve" xmlns:serif="http://www.serif.com/" style="fill-rule:evenodd;clip-rule:evenodd;stroke-linejoin:round;stroke-miterlimit:2;">
    <g transform="matrix(1.48451,0,0,1.48451,-161.348,-140.785)">
        <g id="torso" transform="matrix(1,0,0,1,-769.395,0)">
            <path id="XMLID_3097_" d="M1050.6,358.4C1041.7,361.7 1032.7,365 1023.8,368.3C1014.3,390.9 1005.3,416 997.4,443.4C977.3,514 971.7,578 971.8,629.1C984,632.9 997.2,636.4 1011.3,639.5C1046.8,647.2 1079.2,649.8 1106.9,649.9C1107.8,589.4 1108.7,528.9 1109.7,468.4C1110.4,433.8 1111.1,399.1 1111.8,364.5C1108.1,361.4 1098.3,353.9 1083.4,352C1067,350.1 1054.7,356.2 1050.6,358.4Z" style="fill:rgb(102,35,129);fill-rule:nonzero;stroke:black;stroke-width:2.69px;"/>
            <path id="XMLID_3098_" d="M1080.6,352.8C1070.9,357.6 1070.6,374.4 1070.3,387.1C1069.5,419.6 1062.1,452 1064.1,484.4C1066.1,517.1 1057.8,566.6 1010,639.3C1026.2,642.4 1044.1,645.1 1063.5,646.8C1078.8,648.2 1093.2,648.8 1106.7,648.9C1107.2,631.1 1107.6,613.3 1108.1,595.4C1110,518.2 1111.3,441 1112.2,363.7C1108,360.4 1091.5,347.3 1080.6,352.8Z" style="fill:rgb(74,28,93);fill-rule:nonzero;"/>
        </g>
        <g id="coat_left" transform="matrix(1,0,0,1,-769.395,0)">
            <path id="XMLID_3077_" d="M1088,353.1C1086.9,356.5 1085.4,361.4 1083.7,367.4C1079.6,381.9 1074.5,402.4 1069.4,435.5C1066.8,452.2 1062.4,481.5 1060.3,521.2C1059.8,530.8 1058.9,551.2 1061.3,630.3C1062.8,681.6 1063.6,707.3 1065.1,728.9C1066.18,744.121 1067.43,758.612 1068.8,772.507C1071.42,799.267 1171.19,814.949 1188.19,800.674C1190.26,798.937 1191.11,796.757 1190.4,794.1C1188.67,787.718 1185.43,775.441 1181.33,756.64C1175.22,728.599 1167.18,686.046 1159.4,626.9C1154.9,592.5 1155.8,593 1144.6,491.6C1140.2,451.8 1136.5,419.3 1134.1,398.2C1133.6,393.2 1131.9,382.6 1124.1,372.5C1111.2,355.7 1091.7,353.4 1088,353.1Z" style="fill:white;fill-rule:nonzero;"/>
            <path id="XMLID_3090_" d="M1115.6,365.5C1118.1,375.2 1121.5,389.7 1124.7,407.4C1133.6,456.7 1132.7,486.2 1134.7,525.1C1138.3,595.6 1145.9,590.5 1152.8,682.3C1156,724.3 1157.6,747 1156.1,778.5C1153.8,828.4 1145.1,869.3 1137.5,897.6C1146.6,894.8 1157.7,890.5 1169.4,883.8C1186.5,874 1198.9,862.7 1207,853.8C1204.7,846.5 1201.3,835.6 1197.5,822.4C1185.6,780.7 1174.2,731.1 1161.3,635.7C1153.6,579 1155.3,578.9 1144.2,488.5C1138.9,445.3 1134.1,409.9 1130.9,386.1C1129.1,382.3 1126.5,377.9 1122.8,373.2C1120.4,370 1117.9,367.5 1115.6,365.5Z" style="fill:rgb(96,96,96);fill-opacity:0.12;fill-rule:nonzero;"/>
            <g id="XMLID_1362_">
                <g id="XMLID_1435_">
                    <path id="XMLID_1439_" d="M1086.3,353.2C1069.8,402.1 1063,453.5 1060.6,504.9C1058.1,558.9 1059.5,613.2 1061,667.2C1061.9,698.8 1063.1,730.3 1064.5,761.9C1064.6,763.8 1067.6,763.8 1067.5,761.9C1064.9,706.1 1063.2,650.3 1062.5,594.5C1061.9,542.5 1062.2,490.3 1069.4,438.8C1073.5,410.1 1079.7,381.7 1089.1,354.2C1089.8,352.2 1086.9,351.4 1086.3,353.2Z" style="fill:rgb(22,22,22);fill-rule:nonzero;"/>
                </g>
            </g>
            <g id="XMLID_1372_">
                <g id="XMLID_1443_">
                    <path id="XMLID_1448_" d="M1089.4,355.2C1101.3,358.7 1113,362.6 1120.9,372.6C1127.6,380.9 1130.9,391.4 1133,401.8C1135.5,413.9 1136.5,426.4 1137.7,438.7C1139.1,452.7 1140.5,466.8 1141.8,480.9C1147,536.1 1153.3,591.3 1161.4,646.2C1166,677.6 1171.1,708.9 1176.7,740.2C1177,742.1 1179.9,741.3 1179.6,739.4C1169.2,681.5 1160.6,623.4 1153.6,565C1150.2,536 1147.2,507 1144.5,478C1143.1,463.3 1141.7,448.6 1140.2,433.9C1139,422.5 1138,410.9 1135.6,399.6C1133.3,388.8 1129.4,378 1122.1,369.5C1113.8,359.8 1102,355.8 1090.1,352.4C1088.3,351.8 1087.5,354.7 1089.4,355.2Z" style="fill:rgb(22,22,22);fill-rule:nonzero;"/>
                </g>
            </g>
            <g id="XMLID_1432_">
                <g id="XMLID_1501_">
                    <path id="XMLID_1506_" d="M1087.7,353.8C1089.2,359.2 1094.8,360.4 1098.1,364.4C1102.9,370.3 1101.5,379 1099.8,385.8C1097.8,393.6 1095,401.2 1092.1,408.7C1089.4,416 1084.7,423.6 1083.4,431.4C1082.2,438.5 1087.1,444.4 1087.2,451.4C1087.2,460.3 1083.3,469.7 1081.2,478.3C1077,495.3 1073.2,512.3 1069.9,529.5C1066.1,549.2 1062.8,569 1060.1,588.9C1059.8,590.8 1062.7,591.6 1063,589.7C1067.9,553.8 1074.6,518.1 1083.2,482.9C1085.3,474.3 1088,465.8 1089.6,457.1C1090.2,454 1090.5,450.7 1090,447.6C1089.4,443.9 1087.5,440.6 1086.6,436.9C1085.5,432.1 1087.6,427.8 1089.4,423.5C1091.1,419.5 1092.7,415.4 1094.3,411.3C1097.3,403.4 1100.2,395.4 1102.4,387.3C1104.1,381 1105.3,373.8 1103.1,367.5C1102.2,365 1100.8,362.8 1098.9,361C1096.1,358.4 1091.6,357 1090.5,353C1090.1,351.1 1087.2,351.9 1087.7,353.8Z" style="fill:rgb(22,22,22);fill-rule:nonzero;"/>
                </g>
            </g>
        </g>
        <g id="coat_right" transform="matrix(1,0,0,1,-769.395,0)">
            <path id="XMLID_3063_" d="M1018.5,372.1C1015.4,374.6 1009.7,379.2 1005.6,384C1002.3,387.9 999.7,392.2 996.1,401.1C990.7,414.5 988.3,425 986.1,434C981.4,453.1 981.1,451 976.6,469.2C970.9,491.9 967.5,510.8 962.8,538.3C955.2,583 951.4,605.3 949,624C947,639.3 939.1,703.3 939,789.8C939,816.7 939.7,839.3 940.4,855.5C942.8,856.7 945.5,857.9 948.5,858.8C957.9,861.8 966.4,861.8 972.3,861.2C972.2,843.8 972.3,817.9 973.3,786.4C974.2,758.8 975.3,739.4 976.2,724C977.8,694.4 979.8,652 981,597.8C981.7,589.9 982.8,578.6 984.3,564.9C988.1,531 990.7,507.1 996.7,478.2C998.3,470.7 1002.2,455.2 1010,424.4C1016.1,400.4 1021.2,380.7 1024.8,367.2C1023.1,368.5 1021,370.1 1018.5,372.1Z" style="fill:white;fill-rule:nonzero;"/>
            <g id="XMLID_1441_">
                <g id="XMLID_1509_">
                    <path id="XMLID_1514_" d="M1023.8,367.1C989.6,474.2 977,586.4 969.6,698.1C967.5,730.2 965.8,762.3 964.2,794.4C964.1,796.3 967.1,796.3 967.2,794.4C973,682.1 979.1,569.1 1002.7,458.8C1009.3,428.1 1017.2,397.7 1026.7,367.8C1027.3,366.1 1024.4,365.3 1023.8,367.1Z" style="fill:rgb(22,22,22);fill-rule:nonzero;"/>
                </g>
            </g>
            <g id="XMLID_1449_">
                <g id="XMLID_1517_">
                    <path id="XMLID_1522_" d="M1023.9,366.2C1002.1,379 992.7,403.6 986.2,426.8C977.4,458.3 970.4,490.4 964.1,522.6C951.4,588.1 943.2,654.5 939.6,721.1C937.6,759 937.1,797 938,834.9C938,836.8 941,836.8 941,834.9C939.4,769.6 942.1,704.2 949.3,639.3C956.5,574.2 968.2,509.6 984.2,446.1C991.2,418.2 998.5,384.5 1025.3,368.8C1027.1,367.8 1025.6,365.2 1023.9,366.2Z" style="fill:rgb(22,22,22);fill-rule:nonzero;"/>
                </g>
            </g>
            <g id="XMLID_1465_">
                <g id="XMLID_1534_">
                    <path id="XMLID_1538_" d="M1020,369.8C1008.8,376.6 1003.4,389.2 1002.4,401.9C1002,407.2 1002.8,412.6 1001.7,417.8C1000.8,422.1 998.8,426 997,430C993.5,437.9 990.9,446.2 989,454.7C985.3,471.6 984.3,489 983.6,506.3C982.7,526.5 981.8,546.6 980.9,566.8C980.8,568.7 983.8,568.7 983.9,566.8C984.7,548.2 985.5,529.6 986.4,510.9C987.2,493.5 987.9,476 991.2,458.9C992.8,450.8 995,442.9 998,435.2C1000.9,427.9 1004.7,421.4 1005.1,413.3C1005.5,405.4 1005,398 1007.6,390.3C1010.1,382.8 1014.6,376.4 1021.4,372.3C1023.2,371.4 1021.6,368.8 1020,369.8Z" style="fill:rgb(22,22,22);fill-rule:nonzero;"/>
                </g>
            </g>
        </g>
        <g id="hand_left" transform="matrix(1,0,0,1,-769.395,0)">
            <path id="XMLID_3042_" d="M1122,369.2C1119.2,377.5 1116.2,388.8 1115.3,402.6C1114.3,417.9 1116.1,430.8 1118.1,439.9C1121.2,442.2 1125.8,446.3 1129.1,452.7C1132.6,459.6 1133.5,466.9 1132.3,478.6C1130.6,495.5 1128.6,514.5 1114.6,533.2C1103.9,547.5 1090.8,555.3 1082.7,560.2C1076.7,563.8 1071.3,566.3 1067.4,568C1072.7,575.4 1073,577.6 1072.4,578.3C1071.3,579.5 1067.4,575.9 1060.7,574C1051.1,571.4 1049,576 1040.5,574C1031.2,571.8 1031,565.7 1021,564.1C1018.3,563.7 1010.9,562.5 1008.2,566.6C1006.2,569.7 1007.3,574.9 1011,579.4C1009.8,579.5 1007.9,579.6 1005.7,579.4C1002.8,579.1 1001.8,578.6 1000.4,579C999.2,579.4 997.7,580.5 996.5,584C992.3,582 988.3,583.3 987.6,585.1C986.9,586.8 988.7,590.1 992.6,591.8C991.8,592.7 990.9,594 991.2,595.3C991.6,597.2 994.4,598 998.3,598.8C1005.8,600.4 1009.8,600 1014.3,600.6C1021.2,601.5 1021.9,603.5 1029.2,605.6C1038.8,608.3 1046.9,607.2 1051.6,606.7C1065.9,604.9 1076.3,598.6 1081.8,594.6C1083.7,600.2 1085.6,605.7 1087.5,611.3C1094.7,610.3 1105.7,607.9 1117.7,601.4C1130.5,594.4 1138.2,586.1 1143.6,580.1C1156.5,565.9 1163.5,551 1167.4,540C1170.5,531.3 1171.6,524.7 1173.1,516.2C1175.4,502.7 1178.2,486.8 1176.3,467.2C1175.6,460.5 1172.7,435.9 1156.8,409C1145.1,389.9 1131.7,377 1122,369.2Z" style="fill:white;fill-rule:nonzero;"/>
            <path id="XMLID_3049_" d="M1124.8,373.4C1131.4,381.4 1140,393.4 1147.2,409.2C1151.1,417.8 1161.7,443.3 1161.4,478C1161.2,502.7 1160.9,533.2 1139,558.9C1119.9,581.3 1094.1,588.4 1081.2,590.8C1072.6,591.8 1062.7,592.4 1051.8,591.9C1030.5,590.9 1012.7,586.3 999.6,581.6C992.4,582 990.4,583.5 990,584.8C989.5,586.3 991.1,587.5 991.1,590.8C991.1,593.5 990,594.1 990.4,595.4C991,597.5 994.6,598.5 1001.4,599.3C1011.9,600.6 1014.5,599.8 1020.2,601.1C1026.3,602.5 1026.1,604.1 1031.6,605.7C1041.3,608.6 1050,606.2 1063.2,602.5C1067.9,601.2 1074.4,599.1 1082,595.8C1083.8,600.6 1085.5,605.5 1087.3,610.3C1096,608.8 1109.5,605.4 1123.5,596.5C1137.7,587.5 1145.7,577.1 1150.1,571.3C1160.9,557.1 1165.6,544 1168.2,536.5C1176.8,511.8 1176.3,491.1 1176,480.1C1175.6,466.4 1174.9,446 1164.3,422.6C1152.9,397.9 1136,382.1 1124.8,373.4Z" style="fill:rgb(96,96,96);fill-opacity:0.12;fill-rule:nonzero;"/>
            <g id="XMLID_1473_">
                <g id="XMLID_1542_">
                    <path id="XMLID_1547_" d="M1116.4,367.7C1149,389.9 1169.4,425.7 1173.2,464.8C1177.1,505.3 1169.4,550 1140.6,580.5C1126.2,595.7 1107.6,606.6 1086.8,609.8C1084.9,610.1 1085.7,613 1087.6,612.7C1127.2,606.6 1156.8,574.4 1169,537.6C1182.1,498.2 1180.7,450.3 1161.1,413.3C1150.9,394 1136,377.4 1117.9,365.1C1116.3,364 1114.8,366.6 1116.4,367.7Z" style="fill:rgb(22,22,22);fill-rule:nonzero;"/>
                </g>
            </g>
            <g id="XMLID_1481_">
                <g id="XMLID_1550_">
                    <path id="XMLID_1555_" d="M1117.8,442.2C1127.5,447.7 1129.6,459 1131.2,469.2C1131.5,471.1 1134.4,470.3 1134.1,468.4C1132.3,457.4 1129.8,445.6 1119.3,439.6C1117.6,438.7 1116.1,441.3 1117.8,442.2Z" style="fill:rgb(22,22,22);fill-rule:nonzero;"/>
                </g>
            </g>
        </g>
        <g id="hand_right" transform="matrix(1,0,0,1,-769.395,0)">
            <path id="XMLID_3000_" d="M1003.1,389.1C997.9,393.5 990.8,400.2 983.9,409.7C980.8,414 978.8,417.2 976.3,421.3C972.3,428 965.3,439.5 959.3,455.8C957,461.9 954.4,470.1 952.1,480C948.1,483 944,486 940,489C937.8,489.9 931.2,492.8 926.6,500.2C921.9,507.8 922.3,515.3 922.6,517.7C918.1,518.5 913.4,519.3 908.7,519.9C886.1,523.1 864.8,524.2 845.1,523.9C852.9,533 860.6,542.1 868.4,551.2C866,553.4 863.6,555.7 861.2,557.9C865.5,563.7 869.9,569.5 874.2,575.4C879.9,574.7 885.5,573.9 891.2,573.2C900,583.8 908.8,594.4 917.6,605C932.7,603.2 945.3,600.6 954.7,598.3C983.9,591.3 1005.3,581.9 1015.1,577.3C1023.3,573.5 1029.9,569.9 1034.3,567.5C1031.8,561 1029.3,556 1027.6,552.7C1022.6,543.3 1012.6,525 992.7,512.4C988.9,510 985.6,508.4 983.7,507.5C983.2,493.9 984.3,482.7 985.5,474.8C988.6,454 995.4,435.2 996.2,432.7C998.7,425.7 1000.2,422.9 1001.6,416.6C1004.3,405.3 1003.9,395.6 1003.1,389.1Z" style="fill:white;fill-rule:nonzero;"/>
            <path id="XMLID_3035_" d="M994.4,399.2C988.3,410.9 981.9,424.8 976.4,441C971.2,456.1 967.7,470.1 965.3,482.5C961.8,481.6 958,482.7 955.5,485.3C953,488 952.1,491.9 953.3,495.4C950.2,495.9 944.7,497.2 939.7,501.4C928,511.2 930,527.5 930.2,528.9C925.8,529.4 921.1,530.1 916.3,531.1C896.5,535.3 880.5,543 868.5,550.4C861,541.5 853.5,532.7 846,523.8C870.5,522.1 894.9,520.4 919.4,518.7C920,515.3 921.4,510.5 924.5,505.4C929.9,496.5 937.3,492.1 941,490.2C941.7,488.8 942.5,487.5 943.2,486.1C945.9,484 948.7,481.9 951.4,479.8C953,471.9 954.8,465.6 956.1,461.4C960,449.2 967,427.7 984.9,408.2C988.9,404.1 992.3,401 994.4,399.2Z" style="fill:rgb(96,96,96);fill-opacity:0.11;fill-rule:nonzero;"/>
            <g id="XMLID_1564_">
                <g id="XMLID_1632_">
                    <path id="XMLID_1636_" d="M1003.6,386.3C976.8,410.7 958.2,443.3 951,478.9C950.6,480.8 953.5,481.6 953.9,479.7C961,444.6 979.2,412.5 1005.7,388.4C1007.1,387.1 1005,385 1003.6,386.3Z" style="fill:rgb(22,22,22);fill-rule:nonzero;"/>
                </g>
            </g>
        </g>
        <g id="head" transform="matrix(1,0,0,1,-769.395,0)">
            <path id="XMLID_2972_" d="M971.7,244.9C971.2,247.6 971.7,251.2 972.8,258.1C975.9,279.1 978.1,293.4 986.8,308.9C992.7,319.3 1001.5,335 1019.3,340.4C1028.6,343.2 1036.9,342.2 1042,341.2C1042.5,344 1043.4,347.4 1044.9,351C1048.4,359.2 1053.6,364.6 1057.1,367.7C1059.5,367.5 1066.4,366.4 1072.4,360.8C1076.6,356.9 1078.5,352.6 1079.3,350.2C1077.2,347.7 1074.6,344 1072.7,339.1C1069.3,330.7 1069.6,323.1 1070.1,319C1071.2,310.5 1072.2,302.1 1073.3,293.6C1074.8,293.6 1077.8,293.3 1080.4,291.2C1085.1,287.5 1086.1,280.1 1083,275.1C1081.3,272.3 1077.2,268.3 1072.7,269.5C1068.9,270.6 1067.4,274.7 1067.1,275.3C1066.8,267.1 1065.3,254.3 1059.4,239.9C1054.2,227.2 1050.5,218.1 1042,212.9C1019.7,199.4 976.1,220.4 971.7,244.9Z" style="fill:white;fill-rule:nonzero;"/>
            <g id="XMLID_742_">
                <g id="XMLID_1274_">
                    <path id="XMLID_1278_" d="M971.1,252.6C973.9,282.5 982.4,317.8 1008.1,336.5C1020.3,345.4 1036.3,346.3 1049.8,339.8C1063.4,333.3 1072.4,319.9 1075.9,305.4C1076.3,303.5 1073.5,302.7 1073,304.6C1069.7,318.3 1061.3,331 1048.3,337.2C1033.4,344.3 1016.9,341.2 1005,330.1C984,310.4 976.6,280.2 974,252.6C974,250.7 971,250.7 971.1,252.6Z" style="fill:rgb(22,22,22);fill-rule:nonzero;"/>
                </g>
            </g>
            <g id="XMLID_748_">
                <g id="XMLID_1282_">
                    <path id="XMLID_1286_" d="M1040.8,341.9C1043.2,352 1046.3,362.5 1055.8,368.2C1057.5,369.2 1059,366.6 1057.3,365.6C1048.5,360.4 1045.9,350.4 1043.7,341.1C1043.3,339.2 1040.4,340 1040.8,341.9Z" style="fill:rgb(22,22,22);fill-rule:nonzero;"/>
                </g>
            </g>
            <g id="XMLID_754_">
                <g id="XMLID_1290_">
                    <path id="XMLID_1295_" d="M1068.1,320.8C1069.1,332 1070.5,343.6 1078.4,352.2C1079.7,353.6 1081.8,351.5 1080.5,350.1C1073.2,342.1 1072,331.1 1071.1,320.8C1070.9,318.9 1067.9,318.9 1068.1,320.8Z" style="fill:rgb(22,22,22);fill-rule:nonzero;"/>
                </g>
            </g>
            <g id="XMLID_760_">
                <g id="XMLID_1298_">
                    <path id="XMLID_1303_" d="M1057.2,369.1C1067.7,368 1076.4,361.3 1080,351.3C1080.7,349.5 1077.8,348.7 1077.1,350.5C1074,359.1 1066.2,365.1 1057.2,366.1C1055.3,366.3 1055.3,369.3 1057.2,369.1Z" style="fill:rgb(22,22,22);fill-rule:nonzero;"/>
                </g>
            </g>
            <g id="XMLID_766_">
                <g id="XMLID_1306_">
                    <path id="XMLID_1311_" d="M1069,276.4C1069.1,271.7 1073.9,269.3 1077.9,271.4C1080.4,272.7 1081.8,275.1 1082.3,277.7C1083.2,282 1080.4,294 1073.5,291.1C1071.7,290.4 1070.2,292.9 1072,293.7C1082.4,298.2 1087.9,281.8 1084.4,274.3C1080.4,265.6 1066.2,265.3 1065.9,276.4C1066,278.4 1069,278.4 1069,276.4Z" style="fill:rgb(22,22,22);fill-rule:nonzero;"/>
                </g>
            </g>
            <g id="XMLID_767_">
                <g id="XMLID_1314_">
                    <path id="XMLID_1319_" d="M1000.8,261.5C998.8,270.7 997.3,280.1 996.8,289.6C996.7,292.1 996.4,293.8 998.3,295.6C1001,298.1 1005.8,299.2 1009.3,299.9C1011.2,300.3 1012,297.4 1010.1,297C1007.3,296.5 1002.6,295.8 1000.6,293.6C998.5,291.3 1000,285.9 1000.3,283.1C1001,276.1 1002.2,269.2 1003.7,262.3C1004.1,260.4 1001.2,259.6 1000.8,261.5Z" style="fill:rgb(22,22,22);fill-rule:nonzero;"/>
                </g>
            </g>
            <g id="XMLID_769_">
                <g id="XMLID_1323_">
                    <path id="XMLID_1327_" d="M978.1,266.8C983,269.6 988.8,269.4 993.5,266.4C995.1,265.4 993.6,262.8 992,263.8C988.2,266.3 983.6,266.4 979.6,264.2C977.9,263.3 976.4,265.9 978.1,266.8Z" style="fill:rgb(22,22,22);fill-rule:nonzero;"/>
                </g>
            </g>
            <g id="XMLID_771_">
                <g id="XMLID_1331_">
                    <path id="XMLID_1335_" d="M1012.4,252.4C1017,245.9 1026.1,247.3 1029.2,254.4C1030,256.2 1032.6,254.6 1031.8,252.9C1027.6,243.6 1015.6,242.8 1009.8,250.9C1008.7,252.5 1011.3,254 1012.4,252.4Z" style="fill:rgb(22,22,22);fill-rule:nonzero;"/>
                </g>
            </g>
            <g id="XMLID_1271_">
                <g id="XMLID_1339_">
                    <path id="XMLID_1344_" d="M983.5,267.4C982.5,272.1 983.7,276.7 986.9,280.3C988.2,281.7 990.3,279.6 989,278.2C986.6,275.4 985.6,271.8 986.4,268.2C986.8,266.3 983.9,265.5 983.5,267.4Z" style="fill:rgb(22,22,22);fill-rule:nonzero;"/>
                </g>
            </g>
            <g id="XMLID_1279_">
                <g id="XMLID_1347_">
                    <path id="XMLID_1352_" d="M986,268.2C987,271.7 987.5,275.2 987.5,278.8C987.5,280.7 990.5,280.7 990.5,278.8C990.5,274.9 989.9,271.2 988.9,267.4C988.3,265.6 985.4,266.4 986,268.2Z" style="fill:rgb(22,22,22);fill-rule:nonzero;"/>
                </g>
            </g>
            <g id="XMLID_1288_">
                <g id="XMLID_1355_">
                    <path id="XMLID_1361_" d="M985.1,268.5C984.4,271.8 984.9,275 986.6,277.9C987.6,279.5 990.2,278 989.2,276.4C987.9,274.2 987.4,271.8 988,269.3C988.4,267.4 985.5,266.6 985.1,268.5Z" style="fill:rgb(22,22,22);fill-rule:nonzero;"/>
                </g>
            </g>
            <g id="XMLID_1296_">
                <g id="XMLID_1364_">
                    <path id="XMLID_1371_" d="M989.5,280.9C990.6,279.8 991,278.3 990.7,276.8C990.6,276 989.6,275.6 988.9,275.8C988.1,276 987.7,276.8 987.9,277.6C987.9,277.4 987.9,277.9 987.9,278C987.9,277.8 987.8,278.2 987.8,278.2C987.7,278.5 987.9,278.1 987.7,278.4C987.6,278.5 987.6,278.6 987.7,278.5C987.6,278.6 987.6,278.7 987.5,278.7C986.9,279.3 986.9,280.3 987.5,280.8C988,281.5 988.9,281.5 989.5,280.9Z" style="fill:rgb(22,22,22);fill-rule:nonzero;"/>
                </g>
            </g>
            <g id="XMLID_1304_">
                <g id="XMLID_1375_">
                    <path id="XMLID_1379_" d="M1017.3,261C1015.7,265.3 1015.7,269.9 1017.3,274.2C1018,276 1020.9,275.2 1020.2,273.4C1018.7,269.6 1018.7,265.7 1020.2,261.8C1020.9,260 1018,259.2 1017.3,261Z" style="fill:rgb(22,22,22);fill-rule:nonzero;"/>
                </g>
            </g>
            <g id="XMLID_1312_">
                <g id="XMLID_1383_">
                    <path id="XMLID_1387_" d="M1017.6,262.1C1018.4,266.1 1018.7,270 1018.4,274.1C1018.3,276 1021.3,276 1021.4,274.1C1021.7,269.8 1021.4,265.5 1020.5,261.3C1020.1,259.4 1017.2,260.2 1017.6,262.1Z" style="fill:rgb(22,22,22);fill-rule:nonzero;"/>
                </g>
            </g>
            <g id="XMLID_1320_">
                <g id="XMLID_1394_">
                    <path id="XMLID_1399_" d="M999.1,307.9C1005.5,307.4 1009.9,312 1013.8,316.4C1015.1,317.8 1017.2,315.7 1015.9,314.3C1011.4,309.4 1006.2,304.4 999.1,304.9C997.2,305 997.2,308 999.1,307.9Z" style="fill:rgb(22,22,22);fill-rule:nonzero;"/>
                </g>
            </g>
            <g id="XMLID_1328_">
                <g id="XMLID_1402_">
                    <path id="XMLID_1407_" d="M1018.1,261.6C1018.9,264 1019.3,266.4 1019.4,268.9C1019.4,269.9 1019.4,270.9 1019.3,271.8C1018.6,273.5 1018.9,273.8 1020.2,272.8C1020.3,272.3 1020.3,271.9 1020.2,271.4C1020,269.5 1017,269.5 1017.2,271.4C1017.3,272.9 1016.9,274.6 1018.3,275.6C1019.4,276.4 1020.8,276.2 1021.5,275C1022.5,273.5 1022.4,270.5 1022.4,268.8C1022.4,266 1021.9,263.3 1021,260.7C1020.4,259 1017.5,259.8 1018.1,261.6Z" style="fill:rgb(22,22,22);fill-rule:nonzero;"/>
                </g>
            </g>
            <g id="XMLID_1337_">
                <g id="XMLID_1410_">
                    <path id="XMLID_1415_" d="M1043.5,344.2C1053.2,342.8 1059.9,336.7 1065,328.7C1066,327.1 1063.4,325.6 1062.4,327.2C1057.7,334.7 1051.7,340 1042.7,341.3C1040.8,341.6 1041.6,344.5 1043.5,344.2Z" style="fill:rgb(22,22,22);fill-rule:nonzero;"/>
                </g>
            </g>
            <g id="XMLID_1345_">
                <g id="XMLID_1418_">
                    <path id="XMLID_1423_" d="M1043.7,346.4C1054.9,345.4 1064.5,333.1 1069.2,323.9C1070.1,322.2 1067.5,320.7 1066.6,322.4C1062.5,330.5 1053.6,342.5 1043.7,343.4C1041.8,343.5 1041.8,346.5 1043.7,346.4Z" style="fill:rgb(22,22,22);fill-rule:nonzero;"/>
                </g>
            </g>
            <g id="XMLID_1353_">
                <g id="XMLID_1427_">
                    <path id="XMLID_1431_" d="M1043.5,347.9C1050.2,348.1 1055.2,342.4 1059.6,338C1064,333.6 1069,328.7 1069.7,322.2C1069.9,320.3 1066.9,320.3 1066.7,322.2C1066.2,327.7 1061.2,332.2 1057.5,335.9C1053.8,339.7 1049.2,345 1043.5,344.9C1041.5,344.9 1041.5,347.9 1043.5,347.9Z" style="fill:rgb(22,22,22);fill-rule:nonzero;"/>
                </g>
            </g>
            <path id="XMLID_2979_" d="M972.7,257.2C969.7,253.3 963.7,244.5 963.9,232.9C964.3,210.6 987.3,197.6 990.5,195.8C1001,189.9 1007.6,190.6 1032,186.4C1049.2,183.4 1062.9,180.1 1071.5,177.9C1067.7,182.2 1063.9,186.5 1060.1,190.8C1065.1,192.3 1070.3,194 1075.6,196.1C1090.1,201.6 1102.7,208.1 1113.3,214.5C1108.2,216.4 1103.2,218.4 1098.1,220.3C1101.6,221.6 1115.5,227.3 1120.9,241.3C1124.4,250.6 1122.6,259.3 1121.8,262.9C1117.9,280.6 1105.1,284.8 1106,296.8C1106.3,300.4 1107.9,305.7 1114.8,312C1110.7,311.6 1106.6,311.2 1102.5,310.8C1103.6,314.3 1104.6,317.8 1105.7,321.3C1102.8,322.2 1097.6,323.4 1091.4,322.5C1088.8,322.1 1075.2,320 1070.7,308.8C1067.8,301.5 1070.3,294.5 1071.3,292.1C1073.6,293.1 1076.8,294 1079.5,292.7C1086.3,289.4 1087,273.7 1080.4,269.3C1078.1,267.8 1074.5,267.4 1071.3,268.7C1067.9,270.2 1066.4,273.1 1066,274C1063.1,273.1 1059,271.3 1055.5,267.6C1045.3,256.9 1049.9,240.6 1050.2,239.5C1046.1,239.3 1039.7,238.6 1032.4,236C1023.2,232.7 1020.2,229.2 1013.1,227.8C1008.7,227 1001.9,226.8 992.6,231C989.7,232.4 985.5,234.8 981.5,239.2C975.2,246.2 973.4,253.7 972.7,257.2Z" style="fill:rgb(16,112,238);fill-rule:nonzero;"/>
            <path id="XMLID_2986_" d="M1037,236.3C1042.9,248.1 1046.1,258.3 1047.9,265.5C1051,278 1056,300 1048.3,324.7C1046.2,331.5 1043.6,336.7 1041.8,339.9C1046.9,337.4 1052,335 1057,332.5C1061.1,342.9 1065.1,353.4 1069.2,363.8C1072.5,359.9 1075.9,356 1079.2,352C1076.6,348.6 1071.9,341.2 1070.5,330.7C1069.5,323 1070.7,316.7 1071.8,312.9C1074,314.2 1076.2,315.5 1078.3,316.8C1080.7,318.3 1084.4,320.1 1089.2,321.2C1095.8,322.6 1101.3,321.9 1104.4,321.2C1103.5,317.6 1102.7,313.9 1101.8,310.3C1106,310.9 1110.2,311.5 1114.4,312C1112.7,310.9 1109.5,308.4 1107.4,304.2C1104,297.3 1106,290.7 1106.5,289C1108.5,282.5 1112.3,281.6 1116.5,275.5C1117.9,273.4 1123.4,264.4 1122.6,252.4C1121.9,241.9 1116.8,234.8 1115.6,233.2C1108.6,223.8 1099,220.9 1096,220.1C1101.4,218.1 1106.7,216 1112.1,214C1109.1,212.3 1090.5,202.3 1068.1,209.6C1048,216.4 1038.9,232.8 1037,236.3Z" style="fill:rgb(96,96,96);fill-opacity:0.13;fill-rule:nonzero;"/>
            <path id="XMLID_2993_" d="M997,294.6C995.8,295.8 995.1,297.8 995.7,299.4C997,303 1004.5,304.6 1008.8,301.6C1009.3,301.2 1011.7,299.5 1011.4,297.7C1010.8,294.1 1000.8,290.7 997,294.6Z" style="fill:rgb(96,96,96);fill-opacity:0.18;fill-rule:nonzero;"/>
        </g>
    </g>
</svg>
