<svg width="92" height="92" viewBox="0 0 92 92" fill="none" xmlns="http://www.w3.org/2000/svg">
<path d="M45.71 91.42C70.9549 91.42 91.42 70.9549 91.42 45.71C91.42 20.4651 70.9549 0 45.71 0C20.4651 0 0 20.4651 0 45.71C0 70.9549 20.4651 91.42 45.71 91.42Z" fill="url(#paint0_linear_101_22)"/>
<path d="M67.4799 23.22H24.4999C20.8799 23.22 17.9399 26.16 17.9399 29.78V61.94C17.9399 65.56 20.8799 68.5 24.4999 68.5H67.4899C71.1099 68.5 74.0499 65.56 74.0499 61.94V29.78C74.0499 26.16 71.1099 23.22 67.4899 23.22H67.4799ZM63.1199 29.63L46.0199 41.9L29.4299 29.63H63.1199V29.63ZM67.4799 62.1H24.4999C24.4199 62.1 24.3499 62.03 24.3499 61.95V33.85L45.9599 49.83L67.6299 34.29V61.95C67.6299 62.03 67.5599 62.1 67.4799 62.1V62.1Z" fill="white"/>
<defs>
<linearGradient id="paint0_linear_101_22" x1="45.71" y1="84.78" x2="45.71" y2="-6.63" gradientUnits="userSpaceOnUse">
<stop stop-color="#F29100"/>
<stop offset="1" stop-color="#F8B133"/>
</linearGradient>
</defs>
</svg>
