<?xml version="1.0" encoding="UTF-8" standalone="no"?>
<!DOCTYPE svg PUBLIC "-//W3C//DTD SVG 1.1//EN" "http://www.w3.org/Graphics/SVG/1.1/DTD/svg11.dtd">
<svg width="100%" height="100%" viewBox="0 0 1400 1200" version="1.1" xmlns="http://www.w3.org/2000/svg" xmlns:xlink="http://www.w3.org/1999/xlink" xml:space="preserve" xmlns:serif="http://www.serif.com/" style="fill-rule:evenodd;clip-rule:evenodd;stroke-miterlimit:10;">
    <g id="background" transform="matrix(-1,0,0,1,1593.85,-35.4893)">
        <g>
            <g>
                <path d="M497.2,978.6L1200.7,978.6C1202.6,978.6 1202.6,975.6 1200.7,975.6L497.2,975.6C495.3,975.6 495.3,978.6 497.2,978.6Z" style="fill:rgb(255,251,251);fill-rule:nonzero;"/>
            </g>
        </g>
        <g>
            <g>
                <path d="M1219.2,916.4C1218.4,945.2 1221.3,974 1227.9,1002.1C1228.3,1004 1231.2,1003.2 1230.8,1001.3C1224.3,973.5 1221.4,945 1222.3,916.4C1222.2,914.5 1219.2,914.5 1219.2,916.4Z" style="fill:rgb(255,251,251);fill-rule:nonzero;"/>
            </g>
        </g>
        <g>
            <g>
                <path d="M1338.3,918.7C1341.1,945.3 1339.4,972.2 1333.3,998.2C1332.9,1000.1 1335.7,1000.9 1336.2,999C1342.4,972.7 1344.2,945.6 1341.3,918.7C1341.1,916.8 1338.1,916.8 1338.3,918.7Z" style="fill:rgb(255,251,251);fill-rule:nonzero;"/>
            </g>
        </g>
        <g>
            <g>
                <path d="M1229.1,1004.9C1263.7,1013.7 1300.3,1012.5 1334.2,1001.3C1336,1000.7 1335.2,997.8 1333.4,998.4C1299.9,1009.4 1264,1010.7 1229.9,1002C1228,1001.6 1227.2,1004.5 1229.1,1004.9Z" style="fill:rgb(255,251,251);fill-rule:nonzero;"/>
            </g>
        </g>
        <g>
            <g>
                <path d="M1220.6,917.8C1259.5,926.1 1299.8,925.9 1338.6,917.3C1340.5,916.9 1339.7,914 1337.8,914.4C1299.5,922.9 1259.7,923 1221.4,914.9C1219.5,914.5 1218.7,917.4 1220.6,917.8Z" style="fill:rgb(255,251,251);fill-rule:nonzero;"/>
            </g>
        </g>
        <g>
            <g>
                <path d="M1244.3,918.9C1239.1,907.2 1243.8,892.9 1247.7,881.4C1251.7,869.5 1257.4,858.2 1264.4,847.8C1263.6,847.9 1262.8,848 1262,848.1C1264.3,850.7 1266.8,852.5 1269.9,854C1271.1,854.5 1272.4,853.7 1272.1,852.3C1270.9,846.9 1268.8,841.6 1271.2,836.2C1272.9,832.4 1275.3,828.6 1277.3,825C1276.6,825.2 1275.9,825.4 1275.2,825.5C1277.3,826.8 1279.4,828 1281.5,829.3C1282.9,830.2 1284.1,828.5 1283.6,827.2C1281.5,822.6 1280.1,818 1283,813.4C1284.7,810.6 1286.9,808.1 1288.8,805.5C1293,799.9 1297.4,794.3 1301.8,788.8C1310.2,778.3 1318.9,768.1 1327.9,758.1C1327.1,758 1326.3,757.9 1325.5,757.8C1338.3,774.6 1346.4,794.7 1348.6,815.7C1349.7,825.8 1349.4,836.2 1347.6,846.2C1346.7,851.3 1345.4,856.3 1343.8,861.2C1343.5,862.2 1343.1,863.2 1342.8,864.1C1341.7,866.9 1339.9,868.1 1337,868.7C1335,869.1 1333.9,868.8 1332.2,870.1C1331.4,870.7 1331.2,871.7 1331.9,872.5C1334.1,874.8 1335,875.2 1334.2,878.3C1333.7,880.3 1332.5,882.4 1331.6,884.4C1329.8,888.4 1327.8,892.3 1325.7,896.1C1321.4,903.9 1316.5,911.3 1311,918.3C1309.8,919.8 1311.9,921.9 1313.1,920.4C1323.7,906.8 1332.1,891.9 1338.4,875.9C1338.6,875.4 1338.4,874.8 1338,874.4C1336.7,873.1 1335.4,871.7 1334,870.4C1333.9,871.2 1333.8,872 1333.7,872.8C1336,871.2 1338.6,872.3 1341,871.3C1342.9,870.6 1343.9,869.2 1344.7,867.4C1346.9,862.7 1348.3,857.3 1349.5,852.3C1352,841.3 1352.8,830 1352,818.8C1350.3,796.2 1342,774.3 1328.2,756.3C1327.7,755.6 1326.6,755.2 1325.8,756C1314.7,768.3 1304,781 1293.8,794C1289.2,799.8 1284.3,805.6 1280.3,811.9C1276.7,817.6 1278.4,823 1280.9,828.8C1281.6,828.1 1282.3,827.4 1283,826.7C1280.9,825.4 1278.8,824.2 1276.7,822.9C1276,822.5 1275,822.7 1274.6,823.4C1272.1,828 1268.2,833.1 1266.8,838.2C1265.6,842.7 1268.1,848.6 1269.1,853C1269.8,852.4 1270.6,851.9 1271.3,851.3C1268.4,850 1266.1,848.3 1264,845.9C1263.3,845.1 1262.1,845.4 1261.6,846.2C1253.8,857.8 1247.7,870.5 1243.5,883.9C1239.9,895.5 1236.4,908.7 1241.5,920.3C1242.5,922.1 1245.1,920.6 1244.3,918.9Z" style="fill:rgb(255,251,251);fill-rule:nonzero;"/>
            </g>
        </g>
        <g>
            <g>
                <path d="M1325.7,780.8C1321.7,826.1 1290.7,862.4 1277.8,905C1277.2,906.9 1280.1,907.6 1280.7,905.8C1293.6,862.9 1324.7,826.5 1328.7,780.8C1328.9,778.8 1325.8,778.9 1325.7,780.8Z" style="fill:rgb(255,251,251);fill-rule:nonzero;"/>
            </g>
        </g>
        <g>
            <g>
                <path d="M1287.9,804.9C1291.1,821.4 1294.8,837.7 1299,853.9C1299.5,855.8 1302.4,855 1301.9,853.1C1297.7,836.9 1294,820.5 1290.8,804.1C1290.5,802.2 1287.6,803 1287.9,804.9Z" style="fill:rgb(255,251,251);fill-rule:nonzero;"/>
            </g>
        </g>
        <g>
            <g>
                <path d="M1321.7,815.5C1330.4,809.2 1337.9,801.7 1344.4,793C1345.6,791.5 1343,790 1341.8,791.5C1335.7,799.7 1328.5,806.9 1320.2,812.9C1318.7,814.1 1320.2,816.7 1321.7,815.5Z" style="fill:rgb(255,251,251);fill-rule:nonzero;"/>
            </g>
        </g>
        <g>
            <g>
                <path d="M1312.4,772.7C1315.1,781.3 1316.7,791.8 1323.3,798.3C1324.7,799.7 1326.8,797.5 1325.4,796.2C1319.3,790.1 1317.7,779.8 1315.2,771.9C1314.7,770.1 1311.8,770.9 1312.4,772.7Z" style="fill:rgb(255,251,251);fill-rule:nonzero;"/>
            </g>
        </g>
        <g>
            <g>
                <path d="M1238.3,918.1C1232.2,913.3 1228.5,906.6 1225.4,899.6C1221.9,891.4 1218.9,883 1216.2,874.5C1211.1,858.2 1207.4,841.4 1205.2,824.5C1200.7,789.1 1204.3,753.3 1200,717.8C1199.1,718.1 1198.1,718.3 1197.2,718.6C1208.4,743.8 1234.6,758.9 1256.4,773.9C1256.2,773.2 1256,772.5 1255.9,771.8C1252.9,776.1 1249.9,780.4 1246.9,784.7C1246.2,785.7 1247.1,787 1248.2,787C1252.1,787 1255.5,786.5 1259.2,785.2C1258.6,785 1258.1,784.7 1257.5,784.5C1261.2,790.2 1264.9,795.9 1268.6,801.6C1268.7,801 1268.8,800.4 1268.8,799.8C1267,801.5 1265.5,803.4 1264,805.5C1263.5,806.2 1264,807.6 1264.9,807.7C1273.1,808.9 1276,816.7 1278.1,823.7C1278.7,825.5 1281.6,824.8 1281,822.9C1278.5,815 1274.9,806.1 1265.7,804.8C1266,805.5 1266.3,806.3 1266.6,807C1267.9,805 1269.2,803.6 1270.9,802C1271.4,801.6 1271.5,800.7 1271.1,800.2C1267.4,794.5 1263.7,788.8 1260,783.1C1259.7,782.6 1259,782.2 1258.3,782.4C1254.9,783.5 1251.6,784.1 1248.1,784C1248.5,784.8 1249,785.5 1249.4,786.3C1252.4,782 1255.4,777.7 1258.4,773.4C1258.9,772.7 1258.5,771.8 1257.9,771.3C1236.5,756.6 1210.8,741.9 1199.8,717.1C1199.2,715.8 1196.8,716.4 1197,717.9C1201.4,754.7 1197.5,791.9 1202.7,828.6C1205.2,846.3 1209.3,863.7 1215,880.6C1219.6,894.3 1224.4,911 1236.1,920.3C1237.7,921.4 1239.8,919.3 1238.3,918.1Z" style="fill:rgb(255,251,251);fill-rule:nonzero;"/>
            </g>
        </g>
        <g>
            <g>
                <path d="M1197.8,720.8C1205.9,743.2 1212.7,766.8 1223.6,788.1C1229,798.6 1234.9,808.9 1240,819.6C1245.5,831.2 1250.4,843 1255.4,854.7C1256.1,856.5 1258.7,854.9 1258,853.2C1253.3,842 1248.5,830.8 1243.4,819.8C1238.4,809 1232.6,798.7 1227,788.2C1215.8,766.8 1208.9,742.8 1200.6,720.1C1200,718.2 1197.1,719 1197.8,720.8Z" style="fill:rgb(255,251,251);fill-rule:nonzero;"/>
            </g>
        </g>
        <g>
            <g>
                <path d="M1201.6,796.8C1212.4,798.1 1224.2,798.7 1232.4,806.8C1233.8,808.2 1235.9,806 1234.5,804.7C1225.7,796.1 1213.2,795.3 1201.6,793.9C1199.7,793.6 1199.7,796.6 1201.6,796.8Z" style="fill:rgb(255,251,251);fill-rule:nonzero;"/>
            </g>
        </g>
        <g>
            <g>
                <path d="M1230.5,756.3C1228.7,762.8 1227.5,769.5 1227,776.3C1226.6,782.1 1225.9,788.9 1227.9,794.5C1228.5,796.3 1231.4,795.5 1230.8,793.7C1228.9,788.4 1229.6,781.8 1230,776.2C1230.5,769.7 1231.7,763.3 1233.4,757C1233.9,755.2 1231,754.4 1230.5,756.3Z" style="fill:rgb(255,251,251);fill-rule:nonzero;"/>
            </g>
        </g>
        <g>
            <g>
                <path d="M1208.4,851.3C1216.2,851.5 1223.7,851.6 1231.3,853.7C1238.8,855.8 1246.2,858 1253.7,860.2C1255.6,860.7 1256.4,857.8 1254.5,857.3C1246.5,855 1238.6,852.5 1230.5,850.4C1223.2,848.5 1215.9,848.6 1208.4,848.4C1206.5,848.2 1206.5,851.2 1208.4,851.3Z" style="fill:rgb(255,251,251);fill-rule:nonzero;"/>
            </g>
        </g>
        <g>
            <g>
                <path d="M1317.8,915.3C1324.5,914.4 1331.1,914.4 1337.8,915.3C1337.5,914.6 1337.2,913.8 1336.9,913.1C1336.3,914 1330.3,914.1 1329.1,914.2C1326.4,914.6 1323.6,915 1320.9,915.6C1320.5,915.7 1317.8,916 1317.7,916.3C1317.9,915.8 1321.9,915.9 1322.5,915.9C1325.4,915.9 1328.3,916.2 1331.2,916.4L1331.2,913.4C1328.7,913.3 1326.5,913.6 1324,914.3C1322.4,914.7 1322.7,917.2 1324.4,917.2C1328.3,917.2 1331.8,916.4 1335.6,915.4C1337.5,914.9 1336.7,912 1334.8,912.5C1331.4,913.4 1328,914.2 1324.4,914.2C1324.5,915.2 1324.7,916.2 1324.8,917.1C1326.9,916.5 1329,916.3 1331.2,916.3C1333.1,916.3 1333.1,913.4 1331.2,913.3C1326.8,913.1 1320.4,911.5 1316.4,914C1314.8,915 1312.5,917.6 1314.6,919.2C1315.5,919.9 1316.5,919.5 1317.6,919.4C1320.6,918.8 1323.5,918.1 1326.5,917.6C1330,917 1337,917.9 1339.4,914.6C1339.9,913.9 1339.4,912.5 1338.5,912.4C1331.5,911.4 1324.7,911.4 1317.7,912.3C1315.9,912.5 1315.9,915.5 1317.8,915.3Z" style="fill:rgb(255,251,251);fill-rule:nonzero;"/>
            </g>
        </g>
        <g>
            <g>
                <path d="M1221.9,917.2C1223.3,916.8 1224.7,916.5 1226.1,916.4C1226.8,916.4 1227.4,916.3 1228.1,916.4C1228.4,916.4 1229.8,916.3 1229.9,916.4C1229.8,915.9 1229.6,915.4 1229.5,914.9C1229.5,915 1229.4,915.1 1229.4,915.1C1230,914.8 1230.6,914.4 1231.2,914.1L1231,914.1C1231.3,914.4 1231.7,914.8 1232,915.1C1232,915 1232,914.9 1231.9,914.9C1231.4,913 1228.6,913.8 1229,915.7C1229,915.8 1229,915.9 1229.1,915.9C1229.2,916.4 1229.7,916.8 1230.1,916.9L1230.3,916.9C1231.1,917.1 1231.8,916.7 1232.1,915.9C1232.1,915.8 1232.2,915.7 1232.2,915.7C1232.4,915.2 1232.2,914.6 1231.8,914.2C1230.7,913.1 1228.3,913.3 1226.9,913.3C1224.9,913.3 1222.8,913.7 1220.9,914.2C1219.3,914.8 1220.1,917.7 1221.9,917.2Z" style="fill:rgb(255,251,251);fill-rule:nonzero;"/>
            </g>
        </g>
        <g>
            <g>
                <path d="M1224.2,937.3C1260.7,943.6 1298.6,946.6 1334.6,935.8C1336.4,935.2 1335.7,932.4 1333.8,932.9C1298.4,943.5 1261,940.6 1225,934.4C1223.1,934.1 1222.3,937 1224.2,937.3Z" style="fill:rgb(255,251,251);fill-rule:nonzero;"/>
            </g>
        </g>
        <g>
            <g>
                <path d="M1349.9,978.4L1542.3,978.4C1544.2,978.4 1544.2,975.4 1542.3,975.4L1349.9,975.4C1347.9,975.4 1347.9,978.4 1349.9,978.4Z" style="fill:rgb(255,251,251);fill-rule:nonzero;"/>
            </g>
        </g>
        <g>
            <g>
                <path d="M1301.4,1042.7L1482.7,1042.7C1484.6,1042.7 1484.6,1039.7 1482.7,1039.7L1301.4,1039.7C1299.5,1039.7 1299.5,1042.7 1301.4,1042.7Z" style="fill:rgb(255,251,251);fill-rule:nonzero;"/>
            </g>
        </g>
        <g>
            <g>
                <path d="M1328.9,1042.4C1321.7,1048.4 1314.5,1054.3 1307.4,1060.3C1305.9,1061.5 1308,1063.6 1309.5,1062.4C1316.7,1056.4 1323.9,1050.5 1331,1044.5C1332.5,1043.3 1330.3,1041.1 1328.9,1042.4Z" style="fill:rgb(255,251,251);fill-rule:nonzero;"/>
            </g>
        </g>
        <g>
            <g>
                <path d="M1308.3,1063.5C1310.2,1063.5 1310.2,1060.5 1308.3,1060.5C1306.4,1060.5 1306.4,1063.5 1308.3,1063.5Z" style="fill:rgb(255,251,251);fill-rule:nonzero;"/>
            </g>
        </g>
        <g>
            <g>
                <path d="M1338.8,1060.5L1156.1,1060.5C1154.2,1060.5 1154.2,1063.5 1156.1,1063.5L1338.8,1063.5C1340.7,1063.5 1340.7,1060.5 1338.8,1060.5Z" style="fill:rgb(255,251,251);fill-rule:nonzero;"/>
            </g>
        </g>
        <g>
            <g>
                <path d="M1155.8,1091.5C1166.6,1082.5 1177.7,1073.9 1189.1,1065.6C1190.6,1064.5 1189.2,1061.9 1187.6,1063C1176,1071.4 1164.7,1080.2 1153.7,1089.3C1152.2,1090.6 1154.3,1092.7 1155.8,1091.5Z" style="fill:rgb(255,251,251);fill-rule:nonzero;"/>
            </g>
        </g>
        <g>
            <g>
                <path d="M245.4,1036.9L517.2,1036.9C519.1,1036.9 519.1,1033.9 517.2,1033.9L245.4,1033.9C243.5,1033.9 243.5,1036.9 245.4,1036.9Z" style="fill:rgb(255,251,251);fill-rule:nonzero;"/>
            </g>
        </g>
        <g>
            <g>
                <path d="M282.3,1063C291.8,1054.9 301.4,1046.8 310.9,1038.7C312.4,1037.4 310.2,1035.3 308.8,1036.6C299.3,1044.7 289.7,1052.8 280.2,1060.9C278.7,1062.1 280.9,1064.3 282.3,1063Z" style="fill:rgb(255,251,251);fill-rule:nonzero;"/>
            </g>
        </g>
        <g>
            <g>
                <path d="M247.9,1065.9L444.7,1065.9C446.6,1065.9 446.6,1062.9 444.7,1062.9L247.9,1062.9C246,1062.9 246,1065.9 247.9,1065.9Z" style="fill:rgb(255,251,251);fill-rule:nonzero;"/>
            </g>
        </g>
        <g>
            <g>
                <path d="M421.8,1065.3C414.3,1073.7 406.6,1081.9 398.8,1090.1C397.5,1091.5 399.6,1093.6 400.9,1092.2C408.7,1084 416.3,1075.8 423.9,1067.4C425.3,1066 423.1,1063.9 421.8,1065.3Z" style="fill:rgb(255,251,251);fill-rule:nonzero;"/>
            </g>
        </g>
        <g>
            <g>
                <path d="M370.6,1094.9L543.6,1094.9C545.5,1094.9 545.5,1091.9 543.6,1091.9L370.6,1091.9C368.7,1091.9 368.7,1094.9 370.6,1094.9Z" style="fill:rgb(255,251,251);fill-rule:nonzero;"/>
            </g>
        </g>
        <g>
            <g>
                <path d="M329.7,986.6L403,986.6C404.9,986.6 404.9,983.6 403,983.6L329.7,983.6C327.8,983.6 327.8,986.6 329.7,986.6Z" style="fill:rgb(255,251,251);fill-rule:nonzero;"/>
            </g>
        </g>
        <g>
            <g>
                <path d="M421.5,996.4L444.1,996.4C446,996.4 446,993.4 444.1,993.4L421.5,993.4C419.5,993.4 419.5,996.4 421.5,996.4Z" style="fill:rgb(255,251,251);fill-rule:nonzero;"/>
            </g>
        </g>
        <g>
            <g>
                <path d="M367.2,461.7L367.2,510.7C367.2,512.6 370.2,512.6 370.2,510.7L370.2,461.7C370.2,459.8 367.2,459.8 367.2,461.7Z" style="fill:rgb(255,251,251);fill-rule:nonzero;"/>
            </g>
        </g>
        <g>
            <g>
                <path d="M316.9,513.1L437.5,513.1C439.4,513.1 439.4,510.1 437.5,510.1L316.9,510.1C315,510.1 315,513.1 316.9,513.1Z" style="fill:rgb(255,251,251);fill-rule:nonzero;"/>
            </g>
        </g>
        <g>
            <g>
                <path d="M401.1,514.5L401.1,552.2C401.1,554.1 404.1,554.1 404.1,552.2L404.1,514.5C404.1,512.5 401.1,512.5 401.1,514.5Z" style="fill:rgb(255,251,251);fill-rule:nonzero;"/>
            </g>
        </g>
        <g>
            <g>
                <path d="M367.8,557.4L463.9,557.4C465.8,557.4 465.8,554.4 463.9,554.4L367.8,554.4C365.8,554.4 365.8,557.4 367.8,557.4Z" style="fill:rgb(255,251,251);fill-rule:nonzero;"/>
            </g>
        </g>
        <g>
            <g>
                <path d="M1174.8,426.6L1174.8,438.5C1174.8,440.4 1177.8,440.4 1177.8,438.5L1177.8,426.6C1177.8,424.7 1174.8,424.7 1174.8,426.6Z" style="fill:rgb(255,251,251);fill-rule:nonzero;"/>
            </g>
        </g>
        <g>
            <g>
                <path d="M1177.2,429L1383.6,429C1385.5,429 1385.5,426 1383.6,426L1177.2,426C1175.3,426 1175.3,429 1177.2,429Z" style="fill:rgb(255,251,251);fill-rule:nonzero;"/>
            </g>
        </g>
        <g>
            <g>
                <path d="M1179,440L1383.5,440C1385.4,440 1385.4,437 1383.5,437L1179,437C1177.1,437 1177.1,440 1179,440Z" style="fill:rgb(255,251,251);fill-rule:nonzero;"/>
            </g>
        </g>
        <g>
            <g>
                <path d="M1383.1,426.6C1382.7,430.7 1382.9,434.8 1383.6,438.9C1383.9,440.8 1386.8,440 1386.5,438.1C1385.8,434.3 1385.7,430.4 1386.1,426.6C1386.3,424.7 1383.3,424.7 1383.1,426.6Z" style="fill:rgb(255,251,251);fill-rule:nonzero;"/>
            </g>
        </g>
        <g>
            <g>
                <path d="M1191.3,426.7L1191.3,343C1191.3,341.1 1188.3,341.1 1188.3,343L1188.3,426.7C1188.3,428.7 1191.3,428.7 1191.3,426.7Z" style="fill:rgb(255,251,251);fill-rule:nonzero;"/>
            </g>
        </g>
        <g>
            <g>
                <path d="M1191.3,343.5C1199.8,340.1 1208.8,340.6 1216.7,345.3C1218.4,346.3 1219.9,343.7 1218.2,342.7C1209.7,337.7 1199.6,336.9 1190.5,340.6C1188.7,341.3 1189.5,344.2 1191.3,343.5Z" style="fill:rgb(255,251,251);fill-rule:nonzero;"/>
            </g>
        </g>
        <g>
            <g>
                <path d="M1216.2,344.6L1216.2,425.1C1216.2,427 1219.2,427 1219.2,425.1L1219.2,344.6C1219.2,342.7 1216.2,342.7 1216.2,344.6Z" style="fill:rgb(255,251,251);fill-rule:nonzero;"/>
            </g>
        </g>
        <g>
            <g>
                <path d="M1219.6,367C1225.7,364.5 1232.1,364.9 1237.8,368.4C1239.5,369.4 1241,366.8 1239.3,365.8C1233,362 1225.6,361.3 1218.8,364.1C1217,364.8 1217.8,367.7 1219.6,367Z" style="fill:rgb(255,251,251);fill-rule:nonzero;"/>
            </g>
        </g>
        <g>
            <g>
                <path d="M1237.2,368.3L1237.2,424.6C1237.2,426.5 1240.2,426.5 1240.2,424.6L1240.2,368.3C1240.2,366.4 1237.2,366.4 1237.2,368.3Z" style="fill:rgb(255,251,251);fill-rule:nonzero;"/>
            </g>
        </g>
        <g>
            <g>
                <path d="M1191.7,366.5C1200.2,364.6 1208.6,365.2 1216.8,368.1C1218.6,368.7 1219.4,365.8 1217.6,365.2C1208.9,362.1 1199.9,361.7 1190.9,363.6C1189.1,364 1189.9,366.9 1191.7,366.5Z" style="fill:rgb(255,251,251);fill-rule:nonzero;"/>
            </g>
        </g>
        <g>
            <g>
                <path d="M1217.5,401.2C1223.9,399.5 1230.3,399.3 1236.8,400.7C1238.7,401.1 1239.5,398.2 1237.6,397.8C1230.6,396.3 1223.7,396.4 1216.7,398.3C1214.9,398.8 1215.6,401.7 1217.5,401.2Z" style="fill:rgb(255,251,251);fill-rule:nonzero;"/>
            </g>
        </g>
        <g>
            <g>
                <path d="M1275,425.7L1275,408.9C1275,407 1272,407 1272,408.9L1272,425.7C1272,427.6 1275,427.6 1275,425.7Z" style="fill:rgb(255,251,251);fill-rule:nonzero;"/>
            </g>
        </g>
        <g>
            <g>
                <path d="M1273.5,409.8L1370.9,409.8C1372.8,409.8 1372.8,406.8 1370.9,406.8L1273.5,406.8C1271.5,406.8 1271.5,409.8 1273.5,409.8Z" style="fill:rgb(255,251,251);fill-rule:nonzero;"/>
            </g>
        </g>
        <g>
            <g>
                <path d="M1371.9,411.4C1373.8,411.4 1373.8,408.4 1371.9,408.4C1369.9,408.4 1369.9,411.4 1371.9,411.4Z" style="fill:rgb(255,251,251);fill-rule:nonzero;"/>
            </g>
        </g>
        <g>
            <g>
                <path d="M1370.4,409.9L1370.4,425.2C1370.4,427.1 1373.4,427.1 1373.4,425.2L1373.4,409.9C1373.4,408 1370.4,408 1370.4,409.9Z" style="fill:rgb(255,251,251);fill-rule:nonzero;"/>
            </g>
        </g>
        <g>
            <g>
                <path d="M1293.9,407.8L1293.9,392C1293.9,390.1 1290.9,390.1 1290.9,392L1290.9,407.8C1290.9,409.7 1293.9,409.7 1293.9,407.8Z" style="fill:rgb(255,251,251);fill-rule:nonzero;"/>
            </g>
        </g>
        <g>
            <g>
                <path d="M1292.4,393L1388.2,393C1390.1,393 1390.1,390 1388.2,390L1292.4,390C1290.5,390 1290.5,393 1292.4,393Z" style="fill:rgb(255,251,251);fill-rule:nonzero;"/>
            </g>
        </g>
        <g>
            <g>
                <path d="M1387.2,391.5L1387.2,404.7C1387.2,406.6 1390.2,406.6 1390.2,404.7L1390.2,391.5C1390.2,389.5 1387.2,389.5 1387.2,391.5Z" style="fill:rgb(255,251,251);fill-rule:nonzero;"/>
            </g>
        </g>
        <g>
            <g>
                <path d="M1369.8,410.3L1387.2,410.3C1389.1,410.3 1389.1,407.3 1387.2,407.3L1369.8,407.3C1367.8,407.3 1367.8,410.3 1369.8,410.3Z" style="fill:rgb(255,251,251);fill-rule:nonzero;"/>
            </g>
        </g>
        <g>
            <g>
                <path d="M1387,404.8C1386.8,405.9 1386.8,406.9 1387.1,407.9C1387.3,408.7 1388.2,409.2 1388.9,408.9C1389.7,408.7 1390.2,407.8 1389.9,407.1C1389.8,406.6 1389.7,406 1389.8,405.6C1389.9,404.8 1389.6,403.9 1388.8,403.8C1388.1,403.6 1387.1,404 1387,404.8Z" style="fill:rgb(255,251,251);fill-rule:nonzero;"/>
            </g>
        </g>
        <g>
            <g>
                <path d="M1315.2,392.2C1316.5,397.3 1316.8,402.5 1316.1,407.8C1315.9,409.7 1318.9,409.7 1319.1,407.8C1319.8,402.3 1319.4,396.8 1318.1,391.4C1317.6,389.6 1314.7,390.4 1315.2,392.2Z" style="fill:rgb(255,251,251);fill-rule:nonzero;"/>
            </g>
        </g>
        <g>
            <g>
                <path d="M1337.8,409.6C1338.5,414.6 1338.1,419.5 1336.9,424.3C1336.4,426.2 1339.3,427 1339.8,425.1C1341.2,419.7 1341.5,414.3 1340.7,408.8C1340.5,406.9 1337.6,407.7 1337.8,409.6Z" style="fill:rgb(255,251,251);fill-rule:nonzero;"/>
            </g>
        </g>
        <g>
            <g>
                <path d="M1318.2,531.3L1318.2,554.9C1318.2,556.8 1321.2,556.8 1321.2,554.9L1321.2,531.3C1321.2,529.3 1318.2,529.3 1318.2,531.3Z" style="fill:rgb(255,251,251);fill-rule:nonzero;"/>
            </g>
        </g>
        <g>
            <g>
                <path d="M1295,555.3L1355,555.3C1356.9,555.3 1356.9,552.3 1355,552.3L1295,552.3C1293.1,552.3 1293.1,555.3 1295,555.3Z" style="fill:rgb(255,251,251);fill-rule:nonzero;"/>
            </g>
        </g>
        <g>
            <g>
                <path d="M1260.9,218.9L1260.9,273C1260.9,274.9 1263.9,274.9 1263.9,273L1263.9,218.9C1263.9,217 1260.9,217 1260.9,218.9Z" style="fill:rgb(255,251,251);fill-rule:nonzero;"/>
            </g>
        </g>
        <g>
            <g>
                <path d="M1264.7,218.8L1333,218.8C1334.9,218.8 1334.9,215.8 1333,215.8L1264.7,215.8C1262.8,215.8 1262.8,218.8 1264.7,218.8Z" style="fill:rgb(255,251,251);fill-rule:nonzero;"/>
            </g>
        </g>
        <g>
            <g>
                <path d="M1333.1,218.4L1333.1,270.5C1333.1,272.4 1336.1,272.4 1336.1,270.5L1336.1,218.4C1336.1,216.5 1333.1,216.5 1333.1,218.4Z" style="fill:rgb(255,251,251);fill-rule:nonzero;"/>
            </g>
        </g>
        <g>
            <g>
                <path d="M1262,274.7L1334.6,274.7C1336.5,274.7 1336.5,271.7 1334.6,271.7L1262,271.7C1260.1,271.7 1260.1,274.7 1262,274.7Z" style="fill:rgb(255,251,251);fill-rule:nonzero;"/>
            </g>
        </g>
        <g>
            <g>
                <path d="M1267.6,225.1L1267.6,266.1C1267.6,268 1270.6,268 1270.6,266.1L1270.6,225.1C1270.6,223.2 1267.6,223.2 1267.6,225.1Z" style="fill:rgb(255,251,251);fill-rule:nonzero;"/>
            </g>
        </g>
        <g>
            <g>
                <path d="M1269.8,226.3L1326,226.3C1327.9,226.3 1327.9,223.3 1326,223.3L1269.8,223.3C1267.9,223.3 1267.9,226.3 1269.8,226.3Z" style="fill:rgb(255,251,251);fill-rule:nonzero;"/>
            </g>
        </g>
        <g>
            <g>
                <path d="M1324.9,225.1L1324.9,263.1C1324.9,265 1327.9,265 1327.9,263.1L1327.9,225.1C1327.9,223.2 1324.9,223.2 1324.9,225.1Z" style="fill:rgb(255,251,251);fill-rule:nonzero;"/>
            </g>
        </g>
        <g>
            <g>
                <path d="M1269.8,267.6L1325.7,267.6C1327.6,267.6 1327.6,264.6 1325.7,264.6L1269.8,264.6C1267.9,264.6 1267.9,267.6 1269.8,267.6Z" style="fill:rgb(255,251,251);fill-rule:nonzero;"/>
            </g>
        </g>
        <g>
            <g>
                <path d="M1305.2,249.6C1297.3,243.6 1309.1,231.1 1314.6,238.6C1319.7,245.4 1311.4,253.6 1304.3,249.8C1302.6,248.9 1301.1,251.5 1302.8,252.4C1307.4,254.9 1313.5,254.2 1316.8,249.9C1320.2,245.6 1319.8,238.8 1315.5,235.2C1311,231.5 1304.6,234 1301.5,238.2C1298.2,242.8 1299.2,248.8 1303.7,252.2C1305.3,253.3 1306.7,250.7 1305.2,249.6Z" style="fill:rgb(255,251,251);fill-rule:nonzero;"/>
            </g>
        </g>
        <g>
            <g>
                <path d="M1295.7,264.4C1295.3,256.5 1305,253.5 1311.1,253.5C1318.6,253.5 1321,260.2 1324.1,265.9C1325,267.6 1327.6,266.1 1326.7,264.4C1324.6,260.6 1322.6,255.6 1319.1,252.8C1315.9,250.3 1311.9,250.4 1308.1,250.8C1301.1,251.6 1292.2,255.9 1292.7,264.4C1292.8,266.3 1295.8,266.3 1295.7,264.4Z" style="fill:rgb(255,251,251);fill-rule:nonzero;"/>
            </g>
        </g>
        <g>
            <g>
                <path d="M1271.1,257.2C1273.3,253.1 1281.4,254.7 1284.4,256.3C1287.5,258 1289.3,260.8 1290.1,264.2C1290.5,266.1 1293.4,265.3 1293,263.4C1291.8,258.2 1288.2,254.1 1283,252.4C1278.6,251 1271.1,250.9 1268.6,255.6C1267.6,257.4 1270.2,258.9 1271.1,257.2Z" style="fill:rgb(255,251,251);fill-rule:nonzero;"/>
            </g>
        </g>
        <g>
            <g>
                <path d="M1276.9,249.8C1273.6,249.7 1274.4,244.8 1275.8,243.1C1277.6,240.9 1281.2,240.6 1283.3,242.7C1285,244.3 1285.5,247.3 1284.1,249.2C1283.1,250.6 1281.6,250.9 1280,250.9C1279.4,250.9 1276.9,251 1276.5,250.5C1275.4,248.9 1272.8,250.4 1273.9,252C1275.1,253.8 1277.6,253.9 1279.6,253.9C1282,254 1284.3,253.4 1286,251.6C1289.2,248.1 1288.1,242.2 1284.3,239.6C1280.2,236.9 1274.5,238.4 1272.4,242.8C1270.6,246.7 1271.9,252.6 1276.9,252.7C1278.9,252.9 1278.9,249.9 1276.9,249.8Z" style="fill:rgb(255,251,251);fill-rule:nonzero;"/>
            </g>
        </g>
    </g>
    <g id="icons" transform="matrix(-1,0,0,1,1593.85,-35.4893)">
        <g>
            <g>
                <path d="M664.9,484.7C669.6,488.5 675.4,486.9 679.8,483.2C686,478.1 689.1,469.4 690.3,461.7C693.4,442.1 685.5,423.5 682.4,404.5C676.8,369.2 692.2,331.4 720.8,310.2C734.7,299.8 757.6,288.7 752.2,267.4C751.7,265.5 748.8,266.3 749.3,268.2C754.4,288.5 730.8,298.8 717.9,308.6C706.3,317.5 696.9,329 690.2,341.9C683.6,354.4 679.6,368.3 678.5,382.4C677.2,399.5 681.7,415.4 685.4,431.9C687.6,441.9 689,452.4 687.1,462.6C686.2,467.3 684.6,471.9 682.1,476C679.3,480.4 672.6,487.2 667,482.7C665.6,481.4 663.4,483.5 664.9,484.7Z" style="fill:rgb(255,251,251);fill-rule:nonzero;"/>
            </g>
        </g>
        <g>
            <g>
                <path d="M751.1,266.2C739.8,266.7 729.9,257.9 730.5,246.3C731.1,234.2 745.4,223 757.5,226.2C768.3,229.1 776.6,241 773.9,252.1C771.2,263.2 758.7,265.6 749.1,267.2C747.2,267.5 748,270.4 749.9,270.1C762.3,268.1 776.7,263.7 777.5,248.7C778.1,236.5 767.2,223.3 754.7,222.8C741.5,222.2 728.2,233 727.5,246.4C726.9,259.6 738.2,269.8 751.1,269.3C753,269.1 753,266.1 751.1,266.2Z" style="fill:rgb(255,251,251);fill-rule:nonzero;"/>
            </g>
        </g>
        <g>
            <g>
                <path d="M736.3,258.4C741.1,246.3 766.7,244.3 769.7,258.7C770.1,260.6 773,259.8 772.6,257.9C768.9,240.3 739.2,242.9 733.4,257.6C732.7,259.4 735.6,260.1 736.3,258.4Z" style="fill:rgb(255,251,251);fill-rule:nonzero;"/>
            </g>
        </g>
        <g>
            <g>
                <path d="M751.3,244.9C749.2,243.4 748.4,240.5 749.8,238.3C751.4,235.6 754.8,235.3 757.4,236.7C759.4,237.8 759.8,240.3 758.6,242.2C757.1,244.5 753.9,244.8 751.4,244.2C749.5,243.8 748.7,246.7 750.6,247.1C754.6,248 759.4,247.1 761.4,243.2C763.2,239.7 761.9,235.5 758.3,233.8C754.3,232 749.5,232.8 747.2,236.7C744.9,240.4 746.4,245 749.8,247.4C751.4,248.7 752.9,246.1 751.3,244.9Z" style="fill:rgb(255,251,251);fill-rule:nonzero;"/>
            </g>
        </g>
        <g>
            <g>
                <path d="M793.7,214.1C804.2,186.3 834.4,172.1 862.5,170.2C881.1,168.9 899.7,171.8 917.9,175.3C935.1,178.7 953,184.1 970.6,183.5C985.1,183 1000,177 1006.8,163.5C1007.7,161.8 1005.1,160.3 1004.2,162C996.3,177.6 978.1,181.6 962,180.3C943.2,178.8 924.7,173.2 906.2,170.1C876.2,165.1 844.2,164.4 817.5,181.3C805.4,189 795.8,199.8 790.7,213.3C790.1,215.1 793,215.9 793.7,214.1Z" style="fill:rgb(255,251,251);fill-rule:nonzero;"/>
            </g>
        </g>
        <g>
            <g>
                <path d="M1018.9,161.8L1098.2,161.8C1100.1,161.8 1100.1,158.8 1098.2,158.8L1018.9,158.8C1016.9,158.8 1016.9,161.8 1018.9,161.8Z" style="fill:rgb(255,251,251);fill-rule:nonzero;"/>
            </g>
        </g>
        <g>
            <g>
                <path d="M1017.8,158.6C1013.1,154 1018.2,146.2 1021.9,142.7C1026.4,138.3 1032.6,136.6 1038.6,139C1039.1,139.2 1040.1,138.9 1040.3,138.3C1043.9,129.9 1052.4,123.8 1061.7,124.2C1071.4,124.6 1079.6,131.9 1082,141.1C1082.2,142 1083.4,142.5 1084.2,142C1088.6,139.3 1093.1,142.5 1094.9,146.6C1096.5,150.4 1096.1,154.7 1095.7,158.8C1095.5,160.7 1098.5,160.7 1098.7,158.8C1099.3,152.8 1099.7,145.7 1094.9,141.1C1091.5,137.9 1086.8,136.9 1082.8,139.4C1083.5,139.7 1084.3,140 1085,140.3C1082.3,130.3 1073.7,122.3 1063.2,121.3C1052.4,120.2 1042,126.9 1037.8,136.8C1038.4,136.6 1038.9,136.3 1039.5,136.1C1031.5,132.9 1023.1,136.3 1017.9,142.9C1014,147.8 1010.6,155.7 1015.9,160.8C1017.1,162.1 1019.2,160 1017.8,158.6Z" style="fill:rgb(255,251,251);fill-rule:nonzero;"/>
            </g>
        </g>
        <g>
            <g>
                <path d="M1074.7,173.3C1087,171.9 1094.2,184.8 1096.1,195.2C1098.1,205.9 1096.2,216.6 1095.1,227.3C1093.4,243.4 1094.5,262.8 1109.8,272.2C1111.4,273.2 1113,270.6 1111.3,269.6C1090.4,256.8 1099.1,228.3 1099.9,208.7C1100.5,193.8 1094.6,168.1 1074.7,170.3C1072.8,170.5 1072.8,173.5 1074.7,173.3Z" style="fill:rgb(255,251,251);fill-rule:nonzero;"/>
            </g>
        </g>
        <g>
            <g>
                <path d="M1126.4,255.3C1117.4,278 1108.5,300.7 1099.5,323.3C1098.8,325.1 1101.7,325.9 1102.4,324.1C1111.4,301.4 1120.3,278.7 1129.3,256.1C1130,254.3 1127.1,253.6 1126.4,255.3Z" style="fill:rgb(255,251,251);fill-rule:nonzero;"/>
            </g>
        </g>
        <g>
            <g>
                <path d="M1127.8,257.2C1143.4,256.4 1158.9,256.8 1174.4,258.6C1173.9,258 1173.4,257.3 1173,256.7C1165.6,280.4 1159.6,304.4 1154.8,328.7C1154.4,330.6 1157.3,331.4 1157.7,329.5C1162.5,305.2 1168.6,281.2 1175.9,257.5C1176.2,256.5 1175.4,255.7 1174.5,255.6C1159,253.8 1143.5,253.4 1127.9,254.2C1125.9,254.3 1125.9,257.3 1127.8,257.2Z" style="fill:rgb(255,251,251);fill-rule:nonzero;"/>
            </g>
        </g>
        <g>
            <g>
                <path d="M1100.2,326.2C1109.4,326.6 1118.5,327.1 1127.7,327.7C1136.6,328.2 1146.1,328 1154.5,331.4C1156.3,332.1 1157.1,329.2 1155.3,328.5C1147.3,325.2 1138.2,325.4 1129.7,324.9C1119.9,324.3 1110.1,323.8 1100.2,323.3C1098.3,323.1 1098.3,326.1 1100.2,326.2Z" style="fill:rgb(255,251,251);fill-rule:nonzero;"/>
            </g>
        </g>
        <g>
            <g>
                <path d="M1129.2,267.2C1138.8,267.4 1148.4,268.1 1157.9,269.4C1159.8,269.7 1160.6,266.8 1158.7,266.5C1148.9,265.1 1139.1,264.3 1129.2,264.1C1127.2,264.1 1127.2,267.1 1129.2,267.2Z" style="fill:rgb(255,251,251);fill-rule:nonzero;"/>
            </g>
        </g>
        <g>
            <g>
                <path d="M1126.3,274C1131.7,273.8 1137.1,273.9 1142.5,274.4C1144.4,274.6 1144.4,271.6 1142.5,271.4C1137.1,270.9 1131.7,270.7 1126.3,271C1124.4,271.1 1124.4,274.1 1126.3,274Z" style="fill:rgb(255,251,251);fill-rule:nonzero;"/>
            </g>
        </g>
        <g>
            <g>
                <path d="M1119.7,287.5C1131.2,286.8 1142.1,285.8 1153.4,288.6C1155.3,289.1 1156.1,286.2 1154.2,285.7C1142.6,282.9 1131.5,283.8 1119.7,284.5C1117.7,284.6 1117.7,287.6 1119.7,287.5Z" style="fill:rgb(255,251,251);fill-rule:nonzero;"/>
            </g>
        </g>
        <g>
            <g>
                <path d="M1120.2,296.3C1126.8,295.8 1133.4,295.8 1140,296.4C1141.9,296.6 1141.9,293.6 1140,293.4C1133.4,292.8 1126.8,292.8 1120.2,293.3C1118.3,293.5 1118.2,296.5 1120.2,296.3Z" style="fill:rgb(255,251,251);fill-rule:nonzero;"/>
            </g>
        </g>
        <g>
            <g>
                <path d="M1115,307.9C1124,307.3 1132.8,307.6 1141.7,308.8C1143.6,309.1 1143.6,306.1 1141.7,305.8C1132.8,304.6 1123.9,304.3 1115,304.9C1113.1,305 1113.1,308 1115,307.9Z" style="fill:rgb(255,251,251);fill-rule:nonzero;"/>
            </g>
        </g>
        <g>
            <g>
                <path d="M617.4,173.7C621.4,179.1 627.2,181.3 633.1,184C640.1,187.2 646.5,191.5 651.7,197.2C663.5,209.9 667.4,227 667.7,243.9C668.4,275.6 657.7,308.8 672.1,338.8C672.9,340.5 675.5,339 674.7,337.3C659.6,305.7 673,270.3 670.4,237.1C669.3,222.7 665.2,208.6 655.9,197.4C651.5,192.1 646.1,187.5 640.1,184.1C633.4,180.3 624.7,178.6 620,172.2C618.9,170.7 616.3,172.2 617.4,173.7Z" style="fill:rgb(255,251,251);fill-rule:nonzero;"/>
            </g>
        </g>
        <g>
            <g>
                <path d="M583.2,131.4C580.6,128.1 580.8,125.8 583.8,124.5C585.1,123.8 586.4,123.3 587.9,123C589.8,122.6 591.9,122.5 593.9,122.6C599.9,122.9 606,124.5 605.7,131.8C605.4,140.4 603.8,148.9 601.7,157.2C599.5,165.7 596.8,174 593.9,182.3C593.3,184.1 592.8,186.2 591.9,187.9C590.1,191 587.3,190.9 584.3,190.9C580.6,190.9 575.9,191.4 572.3,190.4C568.3,189.3 567.4,185.3 571.3,182.7C573.1,181.5 575.6,181.3 577.7,181.3C580.4,181.3 582.8,181.9 585.1,180.1C589.5,176.7 590.2,167.5 591.2,162.6C592.7,155.5 595.2,146.8 594.7,139.6C594.3,134.1 588.9,133.9 585,131.6C583.3,130.6 581.8,133.2 583.5,134.2C586.6,136 591.1,136.2 591.7,140.3C592.4,145.1 590.4,151.6 589.5,156.4C588.6,161 587.6,165.6 586.4,170.1C585.5,173.5 585.1,177.6 580.6,178.5C578.8,178.9 576.6,178.3 574.7,178.6C569.9,179.3 565.2,182.7 565.9,188.1C566.8,194.9 574.9,193.7 579.9,193.9C586.1,194.1 592.3,195 595.1,188.4C598.6,180.2 601.1,171.2 603.5,162.7C606,153.9 607.9,144.8 608.6,135.7C609.2,128.6 609.5,122.9 601.6,121C594.7,119.3 585.2,118.5 579.8,124.1C576.2,127.8 577.1,135.1 583.3,134.6C585.1,134.2 585.1,131.2 583.2,131.4Z" style="fill:rgb(255,251,251);fill-rule:nonzero;"/>
            </g>
        </g>
        <g>
            <g>
                <path d="M571.1,142.1C571,142 570.9,141.9 570.8,141.8C570.4,141.4 569.8,141.3 569.3,141.4C566.4,142.4 565.3,147.1 564.5,149.7C563.1,154.5 562.8,159.4 563.5,164.4C563.7,166.3 566.7,166.3 566.5,164.4C566.1,160.9 566,157.5 566.6,154C566.9,152.2 570,145.2 568.9,144.2C570.3,145.6 572.4,143.5 571.1,142.1Z" style="fill:rgb(255,251,251);fill-rule:nonzero;"/>
            </g>
        </g>
        <g>
            <g>
                <path d="M561,131.1C551.8,142.8 545.9,156.9 549.8,171.9C550.3,173.8 553.2,173 552.7,171.1C549.1,157.3 554.7,144 563.1,133.2C564.3,131.7 562.2,129.6 561,131.1Z" style="fill:rgb(255,251,251);fill-rule:nonzero;"/>
            </g>
        </g>
        <g>
            <g>
                <path d="M548.4,117.6C533.1,137.7 525.9,163.1 528.5,188.3C528.7,190.2 531.7,190.2 531.5,188.3C529,163.6 535.9,138.9 551,119.1C552.1,117.6 549.5,116.1 548.4,117.6Z" style="fill:rgb(255,251,251);fill-rule:nonzero;"/>
            </g>
        </g>
        <g>
            <g>
                <path d="M527.1,219.8C519.4,223.5 512.2,228.6 506.5,235C500.7,241.6 498.9,248.7 498,257.3C496,277 488.7,298.6 468.9,306.9C467.1,307.6 467.9,310.5 469.7,309.8C485.5,303.2 494.7,288.2 498.6,272C500.9,262.3 499.8,250.8 504.9,242.1C510.1,233.2 519.5,226.7 528.6,222.3C530.4,221.6 528.9,219 527.1,219.8Z" style="fill:rgb(255,251,251);fill-rule:nonzero;"/>
            </g>
        </g>
        <g>
            <g>
                <path d="M426.6,360C420,360.2 412.5,357.4 410.1,350.6C407.3,342.6 413.3,334.8 419.7,330.7C432.1,322.7 448.8,319.6 463.2,319.4C470.5,319.3 478.8,319.4 485.2,323.3C493.4,328.3 494.8,337.7 488.4,344.8C478.7,355.6 462,356.7 448.6,357.7C446.7,357.8 446.7,360.8 448.6,360.7C462,359.7 477,358.5 487.8,349.5C497.7,341.3 498.4,327.7 486.8,320.6C474.8,313.3 456.5,315.7 443.5,318.5C431,321.2 413.9,326.1 408.3,339C402.5,352.2 413.6,363.2 426.8,362.8C428.6,362.9 428.6,359.9 426.6,360Z" style="fill:rgb(255,251,251);fill-rule:nonzero;"/>
            </g>
        </g>
        <g>
            <g>
                <path d="M426.1,361.2C423.6,365.2 421.2,369.2 418.7,373.1C417.9,374.4 419.5,375.8 420.8,375.2C426.9,371.9 433.5,369.8 439.7,366.9C443.1,365.4 446.4,363.6 449.6,361.6C450.7,360.9 452,360.5 452.3,359.1C452.5,358.4 452.1,357.4 451.3,357.3C451.2,357.3 451.1,357.3 451,357.2C450.3,357.1 449.3,357.4 449.2,358.2L449.2,358.4C448.8,360.3 451.7,361.1 452.1,359.2L452.1,359C451.5,359.3 450.9,359.7 450.3,360C450.4,360 450.5,360 450.6,360.1C450.3,359.5 449.9,358.9 449.6,358.3C449.3,359.3 443.7,361.6 442.5,362.3C439.5,363.9 436.4,365.2 433.2,366.5C428.5,368.4 423.9,370.2 419.5,372.6C420.2,373.3 420.9,374 421.6,374.7C424.1,370.7 426.5,366.7 429,362.8C429.7,361.1 427.1,359.6 426.1,361.2Z" style="fill:rgb(255,251,251);fill-rule:nonzero;"/>
            </g>
        </g>
        <g>
            <g>
                <path d="M429.4,343.9C429.3,343.7 429.3,343.3 429.6,343.3C430.4,343.3 429.5,344.3 429.4,344.4C428.9,344.7 427.2,345.1 427.3,344.1C427.4,342.9 429.7,341.6 430.1,343.4C430.2,343.9 429.8,344.5 429.3,344.6C429,344.7 428.8,344.7 428.6,344.5C428.5,344.4 428.3,344.3 428.5,344.3C430.4,344.4 430.4,341.4 428.5,341.3C426.5,341.1 425,343.2 425.5,345.1C426,347 428.2,348 430,347.5C431.8,347 433.2,345.4 433.2,343.5C433.2,341.6 431.7,340 430,339.6C426.3,338.7 422.4,344.1 425.6,346.8C428.2,349 433.4,347 433.1,343.3C432.9,341.3 430.7,339.7 428.7,340.4C426.7,341.1 425.9,343.6 426.9,345.4C427.7,347.1 430.3,345.6 429.4,343.9Z" style="fill:rgb(255,251,251);fill-rule:nonzero;"/>
            </g>
        </g>
        <g>
            <g>
                <path d="M451.5,341.2C451.4,340.6 451.1,339.8 451.7,339.3C452,339 452.5,339 452.9,339C453.9,339.2 453.7,340.3 453,340.8C452.6,341.1 452.2,341.1 451.9,340.7C451.6,340.3 451.7,340.2 452,340C452.2,339.9 451.6,340 452.1,339.9C453.3,339.7 451.3,341.1 451.6,340.1C451,342 453.9,342.7 454.5,340.9C455,339.1 453.3,337.3 451.5,337.6C449.4,338 448.9,340.5 450.2,342C451.4,343.4 453.6,343.1 454.5,341.5C455.4,339.9 454.8,337.8 453,337.2C451.2,336.6 449.2,337.7 448.8,339.5C448.3,341.5 449.7,343.5 451.7,344C455.3,344.8 458.3,339.9 455.7,337.2C454.4,335.9 452.3,335.8 450.7,336.5C448.5,337.6 448.4,339.9 448.8,342C448.9,343.9 451.8,343.1 451.5,341.2Z" style="fill:rgb(255,251,251);fill-rule:nonzero;"/>
            </g>
        </g>
        <g>
            <g>
                <path d="M473.7,334.5C474.1,334.5 474.5,334.6 475,334.6L475,334.5C475.1,334.4 475.1,334.2 475.2,334.1C475.3,333.9 475.6,333.7 475.8,333.6C476.3,333.4 476.8,333.4 477.1,333.9C477.5,334.7 476.8,336.2 475.8,335.6C475.2,335.2 475.1,334.2 476,334.4C476.2,334.4 476.3,334.5 476.4,334.6C476.4,334.6 476.4,334.8 476.4,334.6C476.4,334.4 476.4,334.7 476.3,334.7C476,334.9 475.9,335.1 475.6,334.9C474.9,334.4 473.9,334.8 473.5,335.4C473.1,336.2 473.4,337 474,337.5C476.9,339.6 480.8,335.4 478.5,332.6C476.4,330.1 471.9,331.7 472.1,335C472.2,336.7 473.5,338.2 475.1,338.6C476.7,339 478.4,338.2 479.3,336.8C481.3,333.7 478.5,329.4 474.8,330.6C473.1,331.2 471.6,332.9 471.8,334.8C472,336.9 475,338 476.1,335.9C477.1,334.3 474.6,332.8 473.7,334.5Z" style="fill:rgb(255,251,251);fill-rule:nonzero;"/>
            </g>
        </g>
        <g>
            <g>
                <path d="M534.1,247.3C546.4,240.5 557.1,231.5 566,220.6C567.2,219.1 565.1,217 563.9,218.5C555.2,229.2 544.7,238 532.6,244.7C530.9,245.6 532.4,248.2 534.1,247.3Z" style="fill:rgb(255,251,251);fill-rule:nonzero;"/>
            </g>
        </g>
        <g>
            <g>
                <path d="M683.7,249.9C681.5,262.5 680.6,275.2 681.2,288C681.3,289.9 684.3,289.9 684.2,288C683.6,275.5 684.4,263 686.6,250.7C686.9,248.8 684,248 683.7,249.9Z" style="fill:rgb(255,251,251);fill-rule:nonzero;"/>
            </g>
        </g>
        <g>
            <g>
                <path d="M668.4,542.2C668.4,526.9 675.6,512.4 687.9,503.2C689.4,502.1 687.9,499.5 686.4,500.6C673.2,510.4 665.5,525.7 665.5,542.2C665.4,544.1 668.4,544.1 668.4,542.2Z" style="fill:rgb(255,251,251);fill-rule:nonzero;"/>
            </g>
        </g>
    </g>
    <g id="chair" transform="matrix(-1,0,0,1,1593.85,-35.4893)">
        <path d="M835.9,946C837.5,960.4 840,976.2 844,993.3C849.4,1016.4 856.3,1036.6 863.2,1053.6C861.3,1055.3 855.6,1059.8 847.2,1060.4C841.9,1060.8 837.7,1059.5 835.3,1058.6C831.7,1046.1 828.2,1033.1 825,1019.6C818.4,991.8 813.6,965.3 810.1,940.6C818.8,942.4 827.4,944.2 835.9,946Z" style="fill:rgb(25,25,25);fill-rule:nonzero;"/>
        <path d="M1060.4,936.6C1059.1,950.9 1056.9,966.8 1053.2,983.9C1048,1008.1 1041.1,1029.1 1034.1,1046.8C1035.1,1047.7 1040.8,1053.1 1049.6,1052.7C1057.2,1052.4 1062.1,1047.9 1063.3,1046.8C1065.6,1034.7 1067.8,1022.5 1070,1010.3C1074.8,983.6 1079.1,957.3 1083.2,931.3C1075.6,933 1068,934.8 1060.4,936.6Z" style="fill:rgb(25,25,25);fill-rule:nonzero;"/>
        <path d="M881.6,896.7C883.9,912 886.6,927.8 889.7,944C894.2,967.5 899.3,989.9 904.7,1011.1C902.4,1012.5 897.8,1014.8 891.5,1015.2C886.2,1015.5 882,1014.3 879.6,1013.4C876.6,999.2 873.7,984.8 870.8,970.4C865.5,943.7 860.6,917.4 855.9,891.4C864.5,893.1 873,894.9 881.6,896.7Z" style="fill:rgb(25,25,25);fill-rule:nonzero;"/>
        <path d="M1022.7,893.7C1020,908.8 1017.6,924.6 1015.5,941C1012.6,963.6 1010.6,985.2 1009.4,1005.8C1011.1,1006.9 1015.1,1009.2 1020.8,1009.5C1026.9,1009.7 1031.4,1007.3 1033.1,1006.3C1032.1,994.5 1031.7,981.4 1032.3,967.4C1033.5,936.3 1039.2,909.5 1045.5,888.4C1037.9,890.1 1030.3,891.9 1022.7,893.7Z" style="fill:rgb(25,25,25);fill-rule:nonzero;"/>
        <path d="M1200.4,559.1C1217.9,590.3 1204.4,624.8 1171.6,710.5C1155.8,751.7 1126.9,827.4 1086.1,935.3C1046,949.9 979.6,967.9 897.5,962.2C849.8,958.9 809.8,948.6 779.5,938C775,929.9 759.4,899.6 771.1,870.2C777.6,853.9 790.7,842.2 818.5,828.4C845.9,814.8 894.2,795.7 964.4,792.2C936.9,655.3 984,543.1 1057.3,517.2C1105.4,500.3 1176.3,516.2 1200.4,559.1Z" style="fill:white;fill-rule:nonzero;stroke:rgb(25,25,25);stroke-width:2px;"/>
        <g>
            <g>
                <path d="M1194,570.4C1165,607.1 1158.4,656.4 1147.3,700.5C1135.4,747.7 1121.7,794.8 1101.2,839.1C1089.9,863.4 1076.6,886.8 1060.7,908.4C1059.6,910 1062.2,911.5 1063.3,909.9C1091.2,871.9 1110.9,828.8 1126.1,784.4C1141.5,739.2 1151.7,692.6 1163.7,646.5C1170.5,620.3 1179.2,594.1 1196.2,572.6C1197.3,571 1195.2,568.9 1194,570.4Z" style="fill:rgb(25,25,25);fill-rule:nonzero;"/>
            </g>
        </g>
        <g>
            <g>
                <path d="M780.1,916.3C846.8,940.8 919.5,948 989.7,937.1C1009.8,934 1029.7,929.4 1049.2,923.4C1051,922.8 1050.3,919.9 1048.4,920.5C980.4,941.5 907.4,944.7 837.8,929.9C818.5,925.8 799.4,920.2 780.9,913.4C779.1,912.7 778.3,915.6 780.1,916.3Z" style="fill:rgb(25,25,25);fill-rule:nonzero;"/>
            </g>
        </g>
        <g>
            <g>
                <path d="M1014.9,837.7C1031.7,843.2 1046,854.3 1055.6,869.3C1056.6,870.9 1059.2,869.4 1058.2,867.8C1048.2,852.2 1033.3,840.6 1015.7,834.8C1013.8,834.2 1013,837.1 1014.9,837.7Z" style="fill:rgb(25,25,25);fill-rule:nonzero;"/>
            </g>
        </g>
    </g>
    <g id="leg_r" transform="matrix(-1,0,0,1,1593.85,-35.4893)">
        <path d="M714.1,967.2C722.1,979.2 730.1,991.3 738,1003.3C686.8,1049.3 680.2,1062.4 684,1065.6C691.6,1071.9 746.1,1043.9 751.7,1041C772,1030.6 787.3,1020.5 797.5,1013.3C793.9,1003.5 789.1,992.5 782.5,980.9C773.8,965.6 764.2,952.7 755.1,942.2C741.4,950.4 727.7,958.8 714.1,967.2Z" style="fill:rgb(25,25,25);fill-rule:nonzero;"/>
        <path d="M1013.3,731.5C1016.9,739.3 1020.7,750.4 1021.3,763.8C1022.2,784 1015.6,800.1 1010.6,809.4C1007.9,812.9 1003.1,818.7 996,825C996,825 979.9,839.2 954.3,850.1C928.2,861.3 852.3,874.8 749.2,877.4C752.2,890.2 757.6,905.9 767.2,922.8C772.5,932.1 778.3,940.3 784,947.4C780.2,952.4 769.4,965.1 747.9,973.1C727.2,980.8 708.2,979.9 700.7,979.3C689.9,969.4 678.8,957.6 668.5,943.5C638.2,901.8 631.1,861.5 629.8,835.6C637.3,830.2 648.3,822.8 662.7,814.9C692.7,798.4 720.2,789.4 742.8,782.7C781.7,771.3 818.9,763.4 904.5,748.9C931.3,744.4 968.4,738.2 1013.3,731.5Z" style="fill:white;fill-rule:nonzero;stroke:rgb(25,25,25);stroke-width:2px;"/>
        <path d="M918.3,748.7C915.4,767.8 907.2,792.6 881.8,808C857.1,823 836.4,816.9 786.9,828.9C751.3,837.5 704.2,848.9 691.1,874.2C677.4,900.8 703.3,938.3 748.6,969.1C752.4,968.6 757.2,967.6 762.3,965.6C775.4,960.4 781.8,951.9 784.2,948.2C778.4,941.2 772.4,933.1 766.9,923.8C756.5,906.4 750.9,890.2 747.7,877.1C800.7,874.9 845.2,870.3 879,865.9C919.7,860.6 947.9,855.3 974.8,840.1C997.3,827.4 1006.3,814.9 1009.5,810.1C1019.2,795.4 1020,782 1020.4,774.5C1021.4,756.2 1015.4,741.3 1010.4,731.9C979.7,737.5 949,743.1 918.3,748.7Z" style="fill:rgb(108,109,109);fill-opacity:0.19;fill-rule:nonzero;"/>
        <path d="M1011.4,734C1009.4,752.6 1002.3,782 974,805.2C956.6,819.5 937.9,825.9 864.5,845.7C832.1,854.4 792.9,864.7 748.3,875.9C805,875.3 851.1,870.6 884.2,866.1C918.5,861.4 935.3,857.3 952.7,849.8C969.2,842.7 1002.5,828.3 1016.1,798C1029.2,768.6 1016,742.2 1011.4,734Z" style="fill:rgb(108,109,109);fill-opacity:0.19;fill-rule:nonzero;"/>
        <path d="M748.6,877.4C748.2,890.6 748.8,905.7 751.3,922.3C753.7,938.7 757.6,953.4 761.8,966.2C765.2,964.2 769.1,961.5 772.9,958.2C777.5,954.2 780.9,950.4 783.4,947.1C777.6,939.5 771.7,930.7 766.2,920.8C757.3,904.8 752,890 748.6,877.4Z" style="fill:rgb(108,109,109);fill-opacity:0.22;fill-rule:nonzero;"/>
    </g>
    <g id="leg_l" transform="matrix(-1,0,0,1,1593.85,-35.4893)">
        <path d="M744,1024.6C751.7,1039.7 759.3,1054.8 767,1070C717.8,1127.8 711.4,1144.2 715.1,1148.2C722.4,1156.2 774.8,1120.9 780.2,1117.3C799.7,1104.2 814.5,1091.5 824.3,1082.5C820.8,1070.2 816.2,1056.4 809.8,1041.7C801.5,1022.5 792.2,1006.3 783.5,993C770.3,1003.6 757.1,1014.1 744,1024.6Z" style="fill:rgb(25,25,25);fill-rule:nonzero;"/>
        <path d="M1031.6,728.4C1035.1,738.3 1038.7,752.1 1039.3,769C1040.2,794.4 1033.8,814.6 1029,826.3C1026.4,830.7 1021.8,838 1015,846C1015,846 999.6,863.9 975,877.6C949.9,891.6 876.9,908.7 777.9,911.9C780.8,928 785.9,947.7 795.2,968.9C800.3,980.6 805.9,990.9 811.4,999.8C807.8,1006.1 797.4,1022 776.7,1032.1C756.8,1041.8 738.6,1040.7 731.3,1039.8C720.9,1027.4 710.2,1012.5 700.4,994.8C671.2,942.4 664.4,891.7 663.2,859.2C670.4,852.5 681,843.1 694.8,833.2C723.7,812.5 750,801.1 771.8,792.7C809.1,778.4 845,768.5 927.3,750.2C952.7,744.5 988.5,736.8 1031.6,728.4Z" style="fill:white;fill-rule:nonzero;stroke:rgb(25,25,25);stroke-width:2px;"/>
        <path d="M940.3,750C937.5,774 929.6,805.1 905.2,824.5C881.5,843.4 861.5,835.7 814,850.8C779.8,861.6 734.5,876 721.9,907.8C708.7,941.2 733.6,988.4 777.1,1027C780.8,1026.4 785.4,1025.1 790.3,1022.6C802.9,1016.1 809,1005.4 811.3,1000.7C805.7,991.9 799.9,981.7 794.6,970C784.6,948.1 779.2,927.8 776.2,911.3C827.2,908.5 869.9,902.8 902.5,897.3C941.7,890.7 968.7,884 994.6,864.9C1016.2,848.9 1024.9,833.2 1027.9,827.2C1037.2,808.7 1038,791.9 1038.4,782.5C1039.3,759.5 1033.6,740.8 1028.8,729C999.3,735.9 969.8,742.9 940.3,750Z" style="fill:rgb(108,109,109);fill-opacity:0.19;fill-rule:nonzero;"/>
        <path d="M1029.7,731.5C1027.8,754.8 1021,791.8 993.8,821C977,839 959.1,847 888.6,871.9C857.4,882.9 819.8,895.8 776.9,909.9C831.4,909.1 875.8,903.3 907.6,897.6C940.6,891.7 956.8,886.6 973.4,877.2C989.3,868.2 1021.2,850.2 1034.4,812C1046.9,775 1034.2,741.9 1029.7,731.5Z" style="fill:rgb(108,109,109);fill-opacity:0.19;fill-rule:nonzero;"/>
        <path d="M777.2,911.8C776.8,928.4 777.4,947.4 779.8,968.2C782.2,988.9 785.8,1007.3 789.9,1023.3C793.2,1020.7 796.9,1017.4 800.6,1013.2C805,1008.2 808.3,1003.4 810.7,999.3C805.1,989.7 799.4,978.7 794.2,966.2C785.6,946.2 780.4,927.5 777.2,911.8Z" style="fill:rgb(108,109,109);fill-opacity:0.22;fill-rule:nonzero;"/>
    </g>
    <g id="hand_r" transform="matrix(-1,0,0,1,1593.85,-35.4893)">
        <path d="M738.3,573C736.4,572.1 732.6,570.4 732.7,568.5C732.9,565.4 743.2,563.3 750.9,563.4C756.1,563.4 765.7,564.5 776.9,572.3C766.4,575.6 750.9,578.6 738.3,573Z" style="fill:white;fill-rule:nonzero;stroke:rgb(25,25,25);stroke-width:2px;"/>
        <path d="M978.8,443.3C959.8,440.8 942.7,469.3 941.1,471.9C935.3,481.8 934.6,488.4 930.6,506.5C920.9,550.6 915.7,573 901.3,586.5C888.3,598.6 873.1,601.5 869.1,602.1C852,604.8 836.5,598.4 806.3,585.5C780.8,574.6 777.7,570.6 763.8,569C756.7,568.2 736,565.9 722.3,579.2C713.5,587.7 709.6,601.3 712.8,604.1C716.9,607.7 733.7,595 733.9,595.3C734,595.5 728.9,597.9 724.7,603.1C722.6,605.6 719,611 720.3,612.4C722.6,615.2 736.7,598.2 752.2,601.2C762.8,603.2 764.8,612.8 777.1,614.6C784.3,615.7 790.6,613.5 794.6,611.6C801.6,619.2 813,630 829.5,638.8C839.3,644 873.9,661.9 916.2,651.5C961.1,640.5 983.7,605.4 990.8,594.4C994.8,588.1 1024.2,541.1 1010,488.4C1007.5,479.9 998.4,445.9 978.8,443.3Z" style="fill:white;fill-rule:nonzero;stroke:rgb(25,25,25);stroke-width:2px;"/>
        <path d="M976.8,443.6C970.3,447 982.9,470.6 981.3,504.4C979.8,536.9 965.9,560.9 959.7,571.9C951.3,586.6 940.2,605.8 918.1,618.3C888.4,635.1 851.6,632.6 825.4,621.2C817.6,617.8 809.7,606.8 792.5,600.1C785,597.2 779.1,596 772.2,594.6C755.3,591.3 740.3,588.3 726.4,595.3C719.8,598.7 714.3,603.9 714.7,604.6C715.1,605.3 722.8,601.4 729.6,597.7C721.4,608.6 720.1,611.7 720.7,612.3C721.4,612.9 723.9,610.6 730.3,607C737.2,603.2 742.2,600.5 748.3,601C751.4,601.3 753.8,602.3 755.2,602.9C760.7,605.3 762,608.1 767.5,610.9C770.9,612.6 773.7,613.3 775.2,613.6C778.4,614.3 785,615.2 793.7,612.1C801.3,620.1 836.2,655.5 887.3,654.8C913.6,654.4 932.9,644.6 940.5,640.7C982.2,619 998.8,580.5 1003,569.9C1016,537.1 1020.6,488.5 996.8,458C991.1,450.6 981.3,441.3 976.8,443.6Z" style="fill:rgb(108,109,109);fill-opacity:0.25;fill-rule:nonzero;"/>
        <g>
            <g>
                <path d="M714.6,604.1C718.5,598.3 723.6,593.7 729.7,590.4C731,589.7 729.8,587.8 728.6,588.5C722.2,592 716.8,596.9 712.7,603C711.8,604.2 713.8,605.3 714.6,604.1Z" style="fill:rgb(25,25,25);fill-rule:nonzero;"/>
            </g>
        </g>
        <g>
            <g>
                <path d="M715.8,591.2C719.7,585.1 726,581.9 732.3,578.8C733.6,578.2 732.5,576.2 731.2,576.9C724.5,580.1 717.9,583.6 713.8,590.1C713.1,591.3 715,592.4 715.8,591.2Z" style="fill:rgb(25,25,25);fill-rule:nonzero;"/>
            </g>
        </g>
        <path d="M1005.5,479.6C1004,489.7 1001.3,504.3 996.5,521.5C987.1,555.5 978.6,586.1 956.4,610.4C928.9,640.4 891.6,648.6 870.2,651.1C886.1,654.8 898.6,654.1 906.5,653C966.5,644.6 998.9,580.1 1007.7,551.9C1009.2,546.9 1012.4,536.6 1012.8,522.5C1013.5,503.7 1008.9,488.6 1005.5,479.6Z" style="fill:rgb(108,109,109);fill-opacity:0.29;fill-rule:nonzero;"/>
        <path d="M754.2,600C759.9,602.8 767.7,605.9 777.3,607.7C784.9,609.1 791.7,609.4 797.1,609.2C783.4,616.5 776.3,615.6 772.3,613.2C769.8,611.7 767,608.7 759.3,603.4C757.2,601.9 755.4,600.7 754.2,600Z" style="fill:rgb(108,109,109);fill-opacity:0.26;fill-rule:nonzero;"/>
    </g>
    <g id="table" transform="matrix(-1,0,0,1,1593.85,-35.4893)">
        <g>
            <g>
                <path d="M552,764.4L552,908.5C552,914.3 561,914.3 561,908.5L561,764.4C561,758.7 552,758.6 552,764.4Z" style="fill:rgb(22,22,22);fill-rule:nonzero;"/>
            </g>
        </g>
        <g>
            <g>
                <path d="M715.6,762.5L715.6,785.6C715.6,791.4 724.6,791.4 724.6,785.6L724.6,762.5C724.6,756.7 715.6,756.7 715.6,762.5Z" style="fill:rgb(22,22,22);fill-rule:nonzero;"/>
            </g>
        </g>
        <path d="M427.8,758.5C476.3,712.8 524.8,667 573.4,621.3C651.9,622.7 730.3,624.1 808.8,625.5C796,669.9 783.2,714.2 770.4,758.6C656.2,758.5 542,758.5 427.8,758.5Z" style="fill:white;fill-rule:nonzero;stroke:rgb(25,25,25);stroke-width:2px;"/>
        <g>
            <g>
                <path d="M430.7,763.7L767.4,763.7C773.2,763.7 773.2,754.7 767.4,754.7L430.7,754.7C424.9,754.7 424.9,763.7 430.7,763.7Z" style="fill:rgb(22,22,22);fill-rule:nonzero;"/>
            </g>
        </g>
        <g>
            <g>
                <path d="M456.4,762.2L456.4,1144.2C456.4,1150 465.4,1150 465.4,1144.2L465.4,762.2C465.4,756.4 456.4,756.4 456.4,762.2Z" style="fill:rgb(22,22,22);fill-rule:nonzero;"/>
            </g>
        </g>
        <g>
            <g>
                <path d="M730.7,762.2L730.7,1144.2C730.7,1150 739.7,1150 739.7,1144.2L739.7,762.2C739.7,756.4 730.7,756.4 730.7,762.2Z" style="fill:rgb(22,22,22);fill-rule:nonzero;"/>
            </g>
        </g>
        <g>
            <g>
                <path d="M460.9,947.9L732.7,947.9C738.5,947.9 738.5,938.9 732.7,938.9L460.9,938.9C455.1,938.9 455.1,947.9 460.9,947.9Z" style="fill:rgb(22,22,22);fill-rule:nonzero;"/>
            </g>
        </g>
        <g>
            <g>
                <path d="M807.6,625.5C796.2,670 783.1,714.1 768.1,757.5C766.8,761.2 772.6,762.7 773.9,759.1C788.9,715.6 802,671.6 813.4,627.1C814.3,623.4 808.6,621.8 807.6,625.5Z" style="fill:rgb(22,22,22);fill-rule:nonzero;"/>
            </g>
        </g>
        <g id="lines">
            <g>
                <g>
                    <path d="M328.8,1154L488,1154C493.8,1154 493.8,1145 488,1145L328.8,1145C323,1145 323,1154 328.8,1154Z" style="fill:rgb(22,22,22);fill-rule:nonzero;"/>
                </g>
            </g>
            <g>
                <g>
                    <path d="M510.3,1152L547,1152C552.8,1152 552.8,1143 547,1143L510.3,1143C504.5,1143 504.5,1152 510.3,1152Z" style="fill:rgb(22,22,22);fill-rule:nonzero;"/>
                </g>
            </g>
            <g>
                <g>
                    <path d="M669.5,1153.3L813,1153.3C818.8,1153.3 818.8,1144.3 813,1144.3L669.5,1144.3C663.7,1144.3 663.7,1153.3 669.5,1153.3Z" style="fill:rgb(22,22,22);fill-rule:nonzero;"/>
                </g>
            </g>
            <g>
                <g>
                    <path d="M845.7,1150.1L871.3,1150.1C877.1,1150.1 877.1,1141.1 871.3,1141.1L845.7,1141.1C839.9,1141.1 839.9,1150.1 845.7,1150.1Z" style="fill:rgb(22,22,22);fill-rule:nonzero;"/>
                </g>
            </g>
            <g>
                <g>
                    <path d="M280.6,1122.3L342.6,1122.3C348.4,1122.3 348.4,1113.3 342.6,1113.3L280.6,1113.3C274.8,1113.3 274.8,1122.3 280.6,1122.3Z" style="fill:rgb(22,22,22);fill-rule:nonzero;"/>
                </g>
            </g>
        </g>
    </g>
    <g id="laptop" transform="matrix(-1,0,0,1,1593.85,-35.4893)">
        <path d="M718,739.6C656.3,738 594.5,736.5 532.8,734.9C569.4,699.9 605.9,664.8 642.5,629.8C684.7,632 727,634.2 769.2,636.4C752.1,670.9 735.1,705.2 718,739.6Z" style="fill:white;fill-rule:nonzero;stroke:rgb(25,25,25);stroke-width:2px;"/>
        <path d="M640.4,629.1C604.5,663.8 568.6,698.6 532.7,733.3C531.1,677.7 529.4,622 527.8,566.4C564.2,543.4 600.6,520.4 637,497.4C638,541.3 639.2,585.2 640.4,629.1Z" style="fill:white;fill-rule:nonzero;stroke:rgb(25,25,25);stroke-width:2px;"/>
        <g>
            <g>
                <path d="M531.1,571.7C534,621.2 535.9,670.8 536.9,720.4C536.9,721.4 538.4,721.4 538.4,720.4C537.4,670.8 535.5,621.2 532.6,571.7C532.5,570.8 531,570.8 531.1,571.7Z" style="fill:rgb(25,25,25);fill-rule:nonzero;"/>
            </g>
        </g>
        <g>
            <g>
                <path d="M531.9,571.9C565.4,550.1 598.9,528.3 632.4,506.5C633.2,506 632.5,504.7 631.6,505.2C598.1,527 564.6,548.8 531.1,570.6C530.3,571.2 531,572.5 531.9,571.9Z" style="fill:rgb(25,25,25);fill-rule:nonzero;"/>
            </g>
        </g>
        <g>
            <g>
                <path d="M632,506.4C631.9,546.3 633.1,586.3 635.7,626.1C635.8,627.1 637.3,627.1 637.2,626.1C634.7,586.2 633.4,546.3 633.5,506.4C633.5,505.5 632,505.5 632,506.4Z" style="fill:rgb(25,25,25);fill-rule:nonzero;"/>
            </g>
        </g>
        <g>
            <g>
                <path d="M537.9,722.5C570.7,690.8 603.6,659.1 636.4,627.5C637.1,626.8 636,625.8 635.3,626.4C602.5,658.1 569.6,689.8 536.8,721.4C536.2,722.1 537.2,723.2 537.9,722.5Z" style="fill:rgb(25,25,25);fill-rule:nonzero;"/>
            </g>
        </g>
        <g>
            <g>
                <path d="M689.8,705.5C695.9,695.8 702,686 707.9,676.1C708.4,675.3 707.1,674.5 706.6,675.3C700.7,685.2 694.6,695 688.5,704.7C687.9,705.5 689.2,706.3 689.8,705.5Z" style="fill:rgb(25,25,25);fill-rule:nonzero;"/>
            </g>
        </g>
        <g>
            <g>
                <path d="M707.5,675.8C715.4,676.1 723.3,676.1 731.2,675.7C732.2,675.7 732.2,674.2 731.2,674.2C723.3,674.5 715.4,674.5 707.5,674.3C706.5,674.3 706.5,675.8 707.5,675.8Z" style="fill:rgb(25,25,25);fill-rule:nonzero;"/>
            </g>
        </g>
        <g>
            <g>
                <path d="M730.2,675.3C725.7,685.1 721.1,694.9 716.5,704.7C716.1,705.6 717.4,706.3 717.8,705.5C722.4,695.7 727,685.9 731.5,676.1C731.9,675.1 730.6,674.4 730.2,675.3Z" style="fill:rgb(25,25,25);fill-rule:nonzero;"/>
            </g>
        </g>
        <g>
            <g>
                <path d="M689.3,706.3C698.1,707.6 707.4,707 716.3,706.6C717.3,706.6 717.3,705.1 716.3,705.1C707.6,705.5 698.4,706.1 689.7,704.9C688.7,704.7 688.3,706.2 689.3,706.3Z" style="fill:rgb(25,25,25);fill-rule:nonzero;"/>
            </g>
        </g>
        <g>
            <g>
                <path d="M722.1,675.4C718.1,685.4 713.5,695.1 708.3,704.5C707.8,705.3 709.1,706.1 709.6,705.3C714.8,695.7 719.5,685.9 723.6,675.8C723.9,674.9 722.5,674.5 722.1,675.4Z" style="fill:rgb(25,25,25);fill-rule:nonzero;"/>
            </g>
        </g>
        <g>
            <g>
                <path d="M577.2,720.7C599.2,693.5 622,666.9 645.5,640.9C646.1,640.2 645.1,639.1 644.4,639.8C620.9,665.7 598.1,692.3 576.1,719.6C575.5,720.4 576.6,721.4 577.2,720.7Z" style="fill:rgb(25,25,25);fill-rule:nonzero;"/>
            </g>
        </g>
        <g>
            <g>
                <path d="M603.8,722.4C623.5,694.9 644.3,668.3 666.1,642.5C666.7,641.8 665.7,640.7 665,641.4C643.1,667.3 622.3,694 602.5,721.6C601.9,722.4 603.2,723.2 603.8,722.4Z" style="fill:rgb(25,25,25);fill-rule:nonzero;"/>
            </g>
        </g>
        <g>
            <g>
                <path d="M632.4,726.5C649.5,697.9 668.2,670.3 688.4,643.8C689,643 687.7,642.3 687.1,643C666.9,669.5 648.2,697.1 631.1,725.7C630.6,726.5 631.9,727.3 632.4,726.5Z" style="fill:rgb(25,25,25);fill-rule:nonzero;"/>
            </g>
        </g>
        <g>
            <g>
                <path d="M656.4,729C673.2,697.7 693.1,668.2 715.9,641C716.5,640.3 715.5,639.2 714.8,639.9C691.9,667.2 671.9,696.8 655,728.2C654.6,729.1 655.9,729.9 656.4,729Z" style="fill:rgb(25,25,25);fill-rule:nonzero;"/>
            </g>
        </g>
        <g>
            <g>
                <path d="M590,704.5C615.6,701.8 641.2,705 666.7,708.4C667.7,708.5 667.6,707 666.7,706.9C641.3,703.5 615.7,700.2 590,703C589.1,703.1 589.1,704.6 590,704.5Z" style="fill:rgb(25,25,25);fill-rule:nonzero;"/>
            </g>
        </g>
        <g>
            <g>
                <path d="M602.9,689.9C627.1,689 651.3,690.8 675.1,695.4C676,695.6 676.4,694.1 675.5,694C651.6,689.4 627.2,687.6 602.9,688.5C602,688.4 602,689.9 602.9,689.9Z" style="fill:rgb(25,25,25);fill-rule:nonzero;"/>
            </g>
        </g>
        <g>
            <g>
                <path d="M614.5,675.8C637.8,674.3 661.1,676.4 683.8,682C684.7,682.2 685.1,680.8 684.2,680.6C661.4,674.9 638,672.8 614.5,674.3C613.5,674.4 613.5,675.9 614.5,675.8Z" style="fill:rgb(25,25,25);fill-rule:nonzero;"/>
            </g>
        </g>
        <g>
            <g>
                <path d="M626.5,661.7C648.9,661.8 671.1,664.1 693,668.6C693.9,668.8 694.3,667.3 693.4,667.2C671.4,662.7 649,660.4 626.5,660.3C625.6,660.2 625.6,661.7 626.5,661.7Z" style="fill:rgb(25,25,25);fill-rule:nonzero;"/>
            </g>
        </g>
        <g>
            <g>
                <path d="M638.4,648.6C659.7,649 680.9,651.5 701.6,656.2C702.5,656.4 702.9,655 702,654.8C681.1,650.1 659.8,647.5 638.4,647.2C637.4,647.1 637.4,648.6 638.4,648.6Z" style="fill:rgb(25,25,25);fill-rule:nonzero;"/>
            </g>
        </g>
        <g>
            <g>
                <path d="M707,663.8C697.2,678.2 687.5,692.6 677.7,707C677.2,707.8 678.5,708.6 679,707.8C688.8,693.4 698.5,679 708.3,664.6C708.9,663.7 707.6,663 707,663.8Z" style="fill:rgb(25,25,25);fill-rule:nonzero;"/>
            </g>
        </g>
        <g>
            <g>
                <path d="M541.4,642C553.9,636.7 567.4,639.7 580.6,639.5C591.7,639.4 602.3,636.3 611.8,630.7C612.6,630.2 611.9,628.9 611,629.4C599.3,636.3 586.9,638.5 573.5,637.9C562.3,637.4 551.2,636.3 540.6,640.8C539.8,641.1 540.5,642.4 541.4,642Z" style="fill:rgb(25,25,25);fill-rule:nonzero;"/>
            </g>
        </g>
        <g>
            <g>
                <path d="M575.1,635.8C596.5,623.7 606.4,598.2 628.7,587.5C629.6,587.1 628.8,585.8 627.9,586.2C605.5,597 595.7,622.4 574.3,634.5C573.5,635 574.2,636.3 575.1,635.8Z" style="fill:rgb(25,25,25);fill-rule:nonzero;"/>
            </g>
        </g>
        <g>
            <g>
                <path d="M602.3,564.5C598.6,561.6 599.2,556.9 601.3,553.2C602.3,551.4 603.8,549.5 605.5,548.4C608.6,546.4 611.5,548 613.9,550.1C614.6,550.7 615.7,549.7 615,549C610,544.8 605.3,545.2 601.2,550.6C597.9,555 596.2,561.6 601.2,565.6C602,566.2 603.1,565.1 602.3,564.5Z" style="fill:rgb(25,25,25);fill-rule:nonzero;"/>
            </g>
        </g>
    </g>
    <g id="torso" transform="matrix(-1,0,0,1,1593.85,-35.4893)">
        <path d="M910.3,491.4C882.9,521.8 875.5,555.2 871.5,574.1C864.2,609.1 871.9,623.1 872.4,689.6C872.6,717.9 871.4,740.8 870.5,755.2C876.7,760 915.1,788.6 966.4,779.2C1004.4,772.3 1027.3,748.5 1034.5,740.4C1036.2,730.9 1038.6,716.9 1041.4,699.9C1056.2,608.2 1063.5,561.7 1054.3,528.4C1048.8,508.2 1035.2,476.2 996.6,443.1C980.4,446.5 941.5,456.9 910.3,491.4Z" style="fill:rgb(102,35,129);fill-rule:nonzero;stroke:black;stroke-width:2px;stroke-linejoin:round;stroke-miterlimit:2;"/>
        <path d="M938.2,473C947.7,501.4 952.8,525.7 955.8,543.5C963.7,590.6 975.6,661.2 942.1,729.6C931.4,751.4 918.9,767.4 910.1,777.3C921.7,780 944.7,783.7 972.1,776.6C1004.7,768.2 1025.1,749.3 1033.5,740.7C1040,703.5 1045.2,671.6 1049.2,646.7C1056.1,602.9 1057.7,589.6 1057,570.9C1056.2,546.9 1055.1,521.7 1040.7,494.5C1026.9,468.5 1007.5,452.9 995.6,444.9C985.9,446.6 972.2,450.2 957.7,458.6C949.7,463.4 943.2,468.5 938.2,473Z" style="fill:rgb(69,24,88);fill-opacity:0.19;fill-rule:nonzero;"/>
        <path d="M1051.8,520.7C1050,520.8 1053.8,548.5 1047.9,586.7C1037,657.4 1002,706.4 988.5,723.8C977.2,738.3 959.5,758.3 933.6,778C942.9,779.4 955.3,780 969.5,777.3C1003.2,771 1024.6,750.3 1032.8,741.4C1034.9,729.2 1038.3,710.1 1042.6,686.5C1052.7,631.3 1054.7,624.7 1056.3,607.5C1060.7,560.6 1053.9,520.7 1051.8,520.7Z" style="fill:rgb(42,15,54);fill-opacity:0.18;fill-rule:nonzero;"/>
    </g>
    <g id="hand_l" transform="matrix(-1,0,0,1,1593.85,-35.4893)">
        <path d="M734.1,595C732.2,593.7 728.4,591.3 728.8,589.3C729.6,586.1 741.1,585.6 749.4,587C755,587.9 765.2,590.8 775.9,600.9C763.9,602.6 746.6,603.1 734.1,595Z" style="fill:white;fill-rule:nonzero;stroke:rgb(25,25,25);stroke-width:2px;"/>
        <path d="M1016.4,499.2C996.3,493.3 972.8,520.4 970.7,523C962.7,532.5 960.8,539.3 953.3,557.7C935.1,602.7 925.6,625.4 907.6,637.2C891.5,647.8 874.6,648.2 870.1,648.2C851.2,648.1 835.6,638.7 805.2,619.9C779.6,604 777,599.2 762.2,595.2C754.7,593.2 732.7,587.2 715.6,598.9C704.7,606.3 698,620.1 701,623.6C704.8,628.1 725.2,617.5 725.3,617.9C725.4,618.1 719.4,619.8 714,624.6C711.3,626.9 706.5,631.9 707.6,633.7C709.6,637.1 727.8,621.5 744,627.3C755,631.2 755.6,641.7 768.5,645.8C776.1,648.2 783.3,646.9 787.9,645.6C794.1,654.9 804.6,668.2 820.8,680.3C830.5,687.5 864.7,712.3 912.2,708.6C962.6,704.7 993.2,671.4 1002.7,661.1C1008.2,655.2 1048.1,610.5 1042,552.3C1041.1,542.8 1037.2,505.4 1016.4,499.2Z" style="fill:white;fill-rule:nonzero;stroke:rgb(25,25,25);stroke-width:2px;"/>
        <path d="M1014.2,499.2C1006.6,501.7 1016.1,528.8 1008.4,564.3C1001.1,598.4 981.9,621.4 973.2,631.9C961.5,646 946.2,664.4 920.1,673.8C885.1,686.4 845.8,677.5 819.5,661C811.7,656 805.1,643.1 787.6,633C780,628.6 773.9,626.4 766.6,623.7C749,617.3 733.2,611.5 717.1,616.6C709.4,619 702.5,623.6 702.9,624.4C703.3,625.3 712.2,622.4 720.2,619.7C709.5,629.8 707.5,632.9 708,633.7C708.6,634.5 711.8,632.4 719.3,629.8C727.5,626.9 733.2,625 739.8,626.6C743.1,627.4 745.5,628.9 747,629.8C752.5,633.2 753.4,636.5 758.8,640.4C762.1,642.8 765.1,644 766.7,644.6C770,645.9 777,648 786.9,646.2C793.7,656 825.2,699.4 880.5,707.4C909,711.5 931.5,704.5 940.4,701.6C989.2,685.8 1013.9,648 1020.3,637.5C1040.1,605.1 1053.6,554.5 1033.2,518.1C1028.4,509 1019.4,497.5 1014.2,499.2Z" style="fill:rgb(108,109,109);fill-opacity:0.25;fill-rule:nonzero;"/>
        <g>
            <g>
                <path d="M702.8,623.9C708.1,618.4 714.3,614.4 721.5,612C722.9,611.5 722.3,609.4 720.9,609.8C713.4,612.4 706.7,616.6 701.2,622.3C700.2,623.4 701.8,625 702.8,623.9Z" style="fill:rgb(25,25,25);fill-rule:nonzero;"/>
            </g>
        </g>
        <g>
            <g>
                <path d="M706.4,610.5C711.7,604.6 719.1,602.3 726.5,600.2C727.9,599.8 727.3,597.6 725.9,598C718.2,600.3 710.4,602.8 704.9,608.9C703.8,610 705.4,611.5 706.4,610.5Z" style="fill:rgb(25,25,25);fill-rule:nonzero;"/>
            </g>
        </g>
        <path d="M1038.9,542.2C1035.5,552.6 1030,567.6 1021.9,585C1005.8,619.3 991.3,650.2 963,672.1C928.1,699.1 886.3,701.4 862.8,700.3C879.3,707 893,708.4 901.7,708.6C967.9,710 1014.3,647.3 1028.7,619.1C1031.2,614.1 1036.4,603.7 1039.4,588.9C1043.3,569 1041,552.3 1038.9,542.2Z" style="fill:rgb(108,109,109);fill-opacity:0.29;fill-rule:nonzero;"/>
        <path d="M746.4,626.3C752,630.2 759.9,634.8 770,638.4C778,641.2 785.3,642.6 791.1,643.3C775,648.6 767.5,646.5 763.6,643.3C761.2,641.3 758.7,637.6 751.2,630.7C749.3,628.8 747.6,627.3 746.4,626.3Z" style="fill:rgb(108,109,109);fill-opacity:0.26;fill-rule:nonzero;"/>
    </g>
    <g id="head" transform="matrix(-1,0,0,1,1593.85,-35.4893)">
        <path d="M861.4,297.5C860.3,303.9 859.2,310.3 858.3,317C854.4,344.2 852.8,369.9 852.7,393.8C858.2,393.2 863.6,392.6 869.1,392.1C868.5,397.4 866.8,416.8 879.2,436C890.9,454.1 907.7,460.7 912.9,462.5C912.3,472.3 911.8,482 911.2,491.8C922,482.2 936.7,470.9 955.4,460.8C969.7,453.1 983.2,447.8 994.7,444.2C981.8,428.2 976.9,413.1 974.8,404.4C971.2,389.4 971.9,376.5 972.6,365.1C973.3,353.4 975,343.7 976.5,336.9C981.2,315.5 968.9,281.6 944.4,269.4C920.2,257.3 884.1,267.5 861.4,297.5Z" style="fill:white;fill-rule:nonzero;stroke:rgb(22,22,22);stroke-width:2px;"/>
        <g>
            <g>
                <path d="M866.8,392.8C869.6,392.4 872.5,392.1 875.3,391.8C876.3,391.7 876.3,390.2 875.3,390.3C872.3,390.6 869.4,391 866.4,391.4C865.5,391.4 865.9,392.9 866.8,392.8Z" style="fill:rgb(22,22,22);fill-rule:nonzero;"/>
            </g>
        </g>
        <path d="M957,313C944.9,316.1 942.7,326.6 927.4,348.5C911.9,370.7 902.1,384.6 884.6,392.7C873.3,397.9 867.7,396.5 862.7,403.2C854.1,414.8 859.9,433.9 865,443.7C870.9,455 879.9,461.8 887.3,467.4C894.4,472.7 900.9,476.2 905.5,478.3C900.6,470.8 900.3,468.5 900.9,467.8C902.5,466.2 909.3,474.8 917.3,473.7C919.6,473.4 923.7,472.1 932.8,457.8C939,448.1 943.2,441.4 946,431.8C952.1,411.2 943.5,405.6 946,378.5C946.4,374.4 949.2,342.3 960.6,340.2C964.7,339.4 968.9,342.8 970.9,345.4C975.1,350.9 974.6,359.7 969.4,367.3C971.1,366.1 987.4,355.1 987.2,337.2C987.2,334.4 987.1,324.1 979.3,317.4C970.4,309.8 958,312.8 957,313Z" style="fill:rgb(22,22,22);fill-rule:nonzero;stroke:rgb(22,22,22);stroke-width:2px;"/>
        <ellipse cx="876.4" cy="351" rx="4.2" ry="7.5" style="fill:rgb(22,22,22);"/>
        <ellipse cx="844.4" cy="354.5" rx="4.2" ry="7.5" style="fill:rgb(22,22,22);"/>
        <g>
            <g>
                <path d="M838.1,342.2C840.8,339.1 845,338.8 848,341.8C849.4,343.2 851.5,341 850.1,339.7C846,335.7 839.7,335.8 835.9,340.1C834.8,341.6 836.9,343.7 838.1,342.2Z" style="fill:rgb(22,22,22);fill-rule:nonzero;"/>
            </g>
        </g>
        <g>
            <g>
                <path d="M870.9,337C874.4,334.1 879,334.5 882,337.8C883.3,339.2 885.4,337.1 884.1,335.7C879.9,331.2 873.4,331 868.7,334.9C867.3,336.1 869.4,338.2 870.9,337Z" style="fill:rgb(22,22,22);fill-rule:nonzero;"/>
            </g>
        </g>
        <path d="M858,309.4C859.1,302.2 861.9,290.4 869.6,278.2C872.3,273.9 878.1,264.8 887.3,258.6C904.9,246.9 932,247.8 951.7,262.2C971,276.3 980.6,301.5 976.4,326.5C936.9,320.9 897.5,315.2 858,309.4Z" style="fill:rgb(16,112,238);fill-rule:nonzero;"/>
        <g>
            <g>
                <path d="M793.4,310.3C854.1,318.1 914.9,325.9 975.6,333.6C981.3,334.3 981.3,325.3 975.6,324.6C914.9,316.8 854.1,309 793.4,301.3C787.7,300.5 787.7,309.5 793.4,310.3Z" style="fill:rgb(22,22,22);fill-rule:nonzero;"/>
            </g>
        </g>
        <path d="M909.4,251.3C925,254.7 936.8,267.3 938.8,282.4C940.6,295.6 934.8,309 923.8,317.2C941.1,319.5 958.5,321.9 975.8,324.2C976.7,319.6 977.5,312.6 976.4,304.4C973.8,285.2 962.7,272.9 959.1,269.2C955.2,265.2 941.4,251.8 920.9,250.6C916.2,250.4 912.2,250.8 909.4,251.3Z" style="fill:rgb(13,86,181);fill-rule:nonzero;"/>
    </g>
</svg>
