<svg width="92" height="92" viewBox="0 0 92 92" fill="none" xmlns="http://www.w3.org/2000/svg">
<path d="M45.71 91.42C70.9549 91.42 91.42 70.9549 91.42 45.71C91.42 20.4651 70.9549 0 45.71 0C20.4651 0 0 20.4651 0 45.71C0 70.9549 20.4651 91.42 45.71 91.42Z" fill="url(#paint0_linear_101_17)"/>
<path d="M30.9399 49.05L36.3599 64.06C36.3599 64.06 37.0399 65.46 37.7599 65.46C38.4799 65.46 49.2799 54.23 49.2799 54.23L61.2899 31.04L31.1299 45.18L30.9399 49.05V49.05Z" fill="#C1DAEA"/>
<path d="M38.13 52.9L37.09 63.96C37.09 63.96 36.65 67.35 40.04 63.96C43.43 60.57 46.67 57.96 46.67 57.96L38.12 52.9H38.13Z" fill="#9CC6D9"/>
<path d="M31.0399 49.59L19.8899 45.96C19.8899 45.96 18.5599 45.42 18.9899 44.19C19.0799 43.94 19.2599 43.72 19.7899 43.35C22.2599 41.63 65.5399 26.07 65.5399 26.07C65.5399 26.07 66.7599 25.66 67.4799 25.93C67.8099 26.06 68.0199 26.2 68.1999 26.71C68.2599 26.9 68.2999 27.3 68.2999 27.69C68.2999 27.98 68.2599 28.24 68.2399 28.66C67.9799 32.91 60.0899 64.65 60.0899 64.65C60.0899 64.65 59.6199 66.51 57.9299 66.57C57.3099 66.59 56.5699 66.47 55.6699 65.7C52.3499 62.85 40.8799 55.14 38.3499 53.44C38.2099 53.34 38.1699 53.22 38.1399 53.1C38.0999 52.92 38.2999 52.7 38.2999 52.7C38.2999 52.7 58.2699 34.95 58.7999 33.09C58.8399 32.95 58.6899 32.87 58.4799 32.94C57.1499 33.43 34.1599 47.95 31.6199 49.55C31.4699 49.64 31.0599 49.58 31.0599 49.58L31.0399 49.59Z" fill="white"/>
<defs>
<linearGradient id="paint0_linear_101_17" x1="45.71" y1="91.42" x2="45.71" y2="0" gradientUnits="userSpaceOnUse">
<stop stop-color="#0093D4"/>
<stop offset="1" stop-color="#00B0E5"/>
</linearGradient>
</defs>
</svg>
