<svg width="92" height="92" viewBox="0 0 92 92" fill="none" xmlns="http://www.w3.org/2000/svg">
<path d="M45.71 91.42C70.9549 91.42 91.42 70.9549 91.42 45.71C91.42 20.4651 70.9549 0 45.71 0C20.4651 0 0 20.4651 0 45.71C0 70.9549 20.4651 91.42 45.71 91.42Z" fill="url(#paint0_linear_103_7)"/>
<path fill-rule="evenodd" clip-rule="evenodd" d="M66.75 24.5C61.28 19.02 54 16 46.24 16C30.26 16 17.25 29 17.24 44.98C17.24 50.09 18.57 55.08 21.11 59.47L17 74.49L32.37 70.46C36.61 72.77 41.37 73.99 46.23 73.99H46.24C62.22 73.99 75.23 60.99 75.24 45C75.24 37.25 72.23 29.97 66.76 24.49L66.75 24.5ZM46.24 69.1H46.23C41.91 69.1 37.66 67.94 33.96 65.74L33.08 65.22L23.96 67.61L26.39 58.72L25.82 57.81C23.41 53.97 22.13 49.54 22.14 44.99C22.14 31.71 32.96 20.9 46.25 20.9C52.69 20.9 58.74 23.41 63.29 27.97C67.84 32.52 70.34 38.58 70.34 45.01C70.34 58.29 59.52 69.1 46.24 69.1V69.1ZM59.46 51.06C58.74 50.7 55.17 48.95 54.51 48.7C53.85 48.45 53.36 48.34 52.88 49.06C52.4 49.79 51.01 51.42 50.59 51.9C50.17 52.38 49.74 52.44 49.02 52.08C48.3 51.72 45.96 50.95 43.19 48.49C41.04 46.57 39.58 44.2 39.16 43.47C38.74 42.74 39.11 42.35 39.48 41.99C39.81 41.67 40.2 41.14 40.57 40.72C40.93 40.3 41.05 39.99 41.29 39.51C41.53 39.03 41.41 38.6 41.23 38.24C41.05 37.88 39.6 34.31 39 32.86C38.41 31.45 37.81 31.64 37.37 31.62C36.95 31.6 36.46 31.59 35.98 31.59C35.5 31.59 34.71 31.77 34.05 32.5C33.39 33.23 31.51 34.98 31.51 38.54C31.51 42.1 34.11 45.55 34.47 46.03C34.83 46.51 39.58 53.83 46.85 56.97C48.58 57.72 49.93 58.16 50.98 58.5C52.72 59.05 54.3 58.97 55.54 58.79C56.93 58.58 59.83 57.04 60.43 55.35C61.03 53.66 61.03 52.21 60.85 51.91C60.67 51.61 60.19 51.43 59.46 51.06V51.06Z" fill="white"/>
<defs>
<linearGradient id="paint0_linear_103_7" x1="45.71" y1="84.78" x2="45.71" y2="-6.63" gradientUnits="userSpaceOnUse">
<stop stop-color="#28CD45"/>
<stop offset="1" stop-color="#5BF778"/>
</linearGradient>
</defs>
</svg>
