<?xml version="1.0" encoding="UTF-8" standalone="no"?>
<!DOCTYPE svg PUBLIC "-//W3C//DTD SVG 1.1//EN" "http://www.w3.org/Graphics/SVG/1.1/DTD/svg11.dtd">
<svg width="100%" height="100%" viewBox="0 0 366 782" version="1.1" xmlns="http://www.w3.org/2000/svg" xmlns:xlink="http://www.w3.org/1999/xlink" xml:space="preserve" xmlns:serif="http://www.serif.com/" style="fill-rule:evenodd;clip-rule:evenodd;stroke-linejoin:round;stroke-miterlimit:2;">
    <g>
        <clipPath id="_clip1">
            <rect x="0" y="0" width="366" height="937"/>
        </clipPath>
        <g clip-path="url(#_clip1)">
            <path d="M206.809,180.5C197.909,183.8 188.909,187.1 180.009,190.4C170.509,213 161.509,238.1 153.609,265.5C133.509,336.1 127.909,400.1 128.009,451.2C140.209,455 153.409,458.5 167.509,461.6C203.009,469.3 235.409,471.9 263.109,472C264.009,411.5 264.909,351 265.909,290.5C266.609,255.9 267.309,221.2 268.009,186.6C264.309,183.5 254.509,176 239.609,174.1C223.209,172.2 210.909,178.3 206.809,180.5Z" style="fill:rgb(180,67,224);fill-rule:nonzero;"/>
            <path d="M236.809,174.9C227.109,179.7 226.809,196.5 226.509,209.2C225.709,241.7 218.309,274.1 220.309,306.5C222.309,339.2 214.009,388.7 166.209,461.4C182.409,464.5 200.309,467.2 219.709,468.9C235.009,470.3 249.409,470.9 262.909,471C263.409,453.2 263.809,435.4 264.309,417.5C266.209,340.3 267.509,263.1 268.409,185.8C264.209,182.5 247.709,169.4 236.809,174.9Z" style="fill:rgb(96,96,96);fill-opacity:0.12;fill-rule:nonzero;"/>
            <path d="M140.509,453.7C139.209,459 137.309,467.2 136.009,477.5C133.709,495.3 134.309,508.7 134.509,513.3C135.509,539.6 132.009,560.9 130.009,598.2C127.209,652.6 130.109,696.7 134.509,764.3C136.509,795.1 138.809,820.5 140.509,838C152.309,840.3 162.209,841.3 169.609,841.7C184.909,842.6 198.109,843.3 213.609,838C218.809,836.2 222.909,834.2 225.509,832.8C224.209,820.6 222.209,801.6 220.309,778.4C211.109,667.1 213.209,582.4 214.309,550.5C215.009,531.4 216.209,504.2 218.809,471.5C206.109,468.6 195.809,466.8 188.609,465.7C174.909,463.5 165.409,462.7 152.109,458.1C147.009,456.5 143.109,454.8 140.509,453.7Z" style="fill:white;fill-rule:nonzero;"/>
            <path d="M176.409,464.4C176.909,477.1 177.609,495.9 178.309,518.8C180.409,592.5 179.809,637 180.209,683.4C180.509,721.1 181.609,774.9 185.309,841C190.909,841.4 198.909,841.4 208.109,839.1C214.909,837.4 220.409,835 224.609,832.8C223.109,816.4 221.009,792.1 218.909,762.5C214.009,695.2 211.009,652.6 211.309,603C211.509,571 213.209,525.6 220.209,470.7C205.509,468.6 191.009,466.5 176.409,464.4Z" style="fill:rgb(96,96,96);fill-opacity:0.12;fill-rule:nonzero;"/>
            <path d="M138.609,456C128.009,554.7 125.809,654.2 132.209,753.3C134.009,781.5 136.509,809.7 139.709,837.7C139.909,839.6 142.909,839.6 142.709,837.7C131.509,739.1 128.809,639.6 134.609,540.5C136.209,512.3 138.609,484.1 141.609,456C141.809,454.1 138.809,454.1 138.609,456Z" style="fill:rgb(22,22,22);fill-rule:nonzero;"/>
            <path d="M139.409,455.1C142.909,458.1 147.409,458.6 151.809,459.5C157.809,460.8 163.909,462.1 169.909,463.4C182.009,466 194.109,468.6 206.109,471.2C208.009,471.6 208.809,468.7 206.909,468.3C196.109,466 185.309,463.7 174.509,461.4C169.409,460.3 164.309,459.2 159.209,458.1C153.909,457 145.809,456.6 141.509,453C140.109,451.8 138.009,453.9 139.409,455.1Z" style="fill:rgb(22,22,22);fill-rule:nonzero;"/>
            <path d="M211.309,560.4C206.609,631.1 211.109,701.9 217.809,772.3C219.709,792.3 221.809,812.3 223.809,832.3C224.009,834.2 227.009,834.2 226.809,832.3C219.509,761.9 212.209,691.4 212.309,620.6C212.309,600.5 213.009,580.5 214.309,560.5C214.509,558.5 211.509,558.5 211.309,560.4Z" style="fill:rgb(22,22,22);fill-rule:nonzero;"/>
            <path d="M170.209,462.5C168.509,465.1 166.309,469.3 165.809,474.6C164.809,486.8 174.109,494.7 180.509,506.2C185.709,515.5 187.609,525.1 191.509,544.4C196.209,567.9 194.409,577.1 197.009,623.8C197.609,634.6 198.209,643.2 199.509,660.4C201.309,683.9 203.709,716.1 206.909,743.2C209.809,767.1 215.009,800.7 225.109,841.6C236.209,842.3 250.909,842.2 267.709,838.8C289.509,834.5 306.409,826.4 317.509,820C316.209,813 314.009,801 311.409,786.3C297.109,703.1 290.709,637.1 286.809,596.2C284.709,574.5 283.709,563.7 283.209,553.8C282.009,530.6 282.709,518.8 279.909,498.2C278.309,486.2 276.209,476.6 274.709,470.3C240.009,467.7 205.109,465.1 170.209,462.5Z" style="fill:white;fill-rule:nonzero;"/>
            <path d="M218.009,465.6C223.409,477.1 231.409,495.1 238.909,517.7C253.009,560.4 259.909,602.6 265.009,730C266.109,757.4 267.309,793.7 268.009,836.5C276.309,835.2 286.309,833 297.109,829.1C304.809,826.3 311.509,823.2 317.209,820.2C315.609,811 313.209,797 310.509,780C303.109,733.7 291.109,657.9 283.709,562.5C282.009,540.3 279.909,509.5 278.509,472.4C258.209,470.1 238.109,467.8 218.009,465.6Z" style="fill:rgb(96,96,96);fill-opacity:0.1;fill-rule:nonzero;"/>
            <path d="M173.409,503.1C188.709,515.8 190.909,536.8 192.209,555.3C193.809,578.6 195.009,601.9 196.309,625.2C198.909,671.2 201.809,717.3 208.309,762.9C212.009,789.1 217.009,815 223.609,840.6C224.109,842.5 227.009,841.7 226.509,839.8C202.209,746.3 201.909,649.6 195.109,553.9C193.809,535 191.009,513.8 175.509,501C174.009,499.8 171.909,501.9 173.409,503.1Z" style="fill:rgb(22,22,22);fill-rule:nonzero;"/>
            <path d="M277.209,480.2C282.209,568.1 291.009,655.7 303.509,742.8C307.109,767.5 310.909,792.1 315.109,816.7C315.409,818.6 318.309,817.8 318.009,815.9C303.409,729.4 292.509,642.2 285.409,554.8C283.409,530 281.709,505.1 280.209,480.2C280.109,478.2 277.109,478.2 277.209,480.2Z" style="fill:rgb(22,22,22);fill-rule:nonzero;"/>
            <path d="M244.209,175.2C243.109,178.6 241.609,183.5 239.909,189.5C235.809,204 230.709,224.5 225.609,257.6C223.009,274.3 218.609,303.6 216.509,343.3C216.009,352.9 215.109,373.3 217.509,452.4C219.009,503.7 219.809,529.4 221.309,551C224.709,599.1 229.909,639.9 234.609,677.7C237.109,697.1 239.309,713.1 240.809,723.9C248.709,724.8 259.609,725.4 272.209,723.9C279.109,723.1 308.909,719.1 339.409,697.2C346.409,692.2 355.209,685 364.209,674.8C359.509,660.8 353.109,640.7 346.609,616.2C342.309,600.3 328.609,547.8 315.609,449C311.109,414.6 312.009,415.1 300.809,313.7C296.409,273.9 292.709,241.4 290.309,220.3C289.809,215.3 288.109,204.7 280.309,194.6C267.409,177.8 247.909,175.5 244.209,175.2Z" style="fill:white;fill-rule:nonzero;"/>
            <path d="M271.809,187.6C274.309,197.3 277.709,211.8 280.909,229.5C289.809,278.8 288.909,308.3 290.909,347.2C294.509,417.7 302.109,412.6 309.009,504.4C312.209,546.4 313.809,569.1 312.309,600.6C310.009,650.5 301.309,691.4 293.709,719.7C302.809,716.9 313.909,712.6 325.609,705.9C342.709,696.1 355.109,684.8 363.209,675.9C360.909,668.6 357.509,657.7 353.709,644.5C341.809,602.8 330.409,553.2 317.509,457.8C309.809,401.1 311.509,401 300.409,310.6C295.109,267.4 290.309,232 287.109,208.2C285.309,204.4 282.709,200 279.009,195.3C276.609,192.1 274.109,189.6 271.809,187.6Z" style="fill:rgb(96,96,96);fill-opacity:0.12;fill-rule:nonzero;"/>
            <path d="M242.509,175.3C226.009,224.2 219.209,275.6 216.809,327C214.309,381 215.709,435.3 217.209,489.3C218.109,520.9 219.309,552.4 220.709,584C220.809,585.9 223.809,585.9 223.709,584C221.109,528.2 219.409,472.4 218.709,416.6C218.109,364.6 218.409,312.4 225.609,260.9C229.709,232.2 235.909,203.8 245.309,176.3C246.009,174.3 243.109,173.5 242.509,175.3Z" style="fill:rgb(22,22,22);fill-rule:nonzero;"/>
            <path d="M245.609,177.3C257.509,180.8 269.209,184.7 277.109,194.7C283.809,203 287.109,213.5 289.209,223.9C291.709,236 292.709,248.5 293.909,260.8C295.309,274.8 296.709,288.9 298.009,303C303.209,358.2 309.509,413.4 317.609,468.3C322.209,499.7 327.309,531 332.909,562.3C333.209,564.2 336.109,563.4 335.809,561.5C325.409,503.6 316.809,445.5 309.809,387.1C306.409,358.1 303.409,329.1 300.709,300.1C299.309,285.4 297.909,270.7 296.409,256C295.209,244.6 294.209,233 291.809,221.7C289.509,210.9 285.609,200.1 278.309,191.6C270.009,181.9 258.209,177.9 246.309,174.5C244.509,173.9 243.709,176.8 245.609,177.3Z" style="fill:rgb(22,22,22);fill-rule:nonzero;"/>
            <path d="M219.609,563.2C222.909,617.2 229.709,670.9 239.809,724C240.209,725.9 243.109,725.1 242.709,723.2C232.609,670.3 225.909,616.9 222.609,563.2C222.509,561.2 219.509,561.2 219.609,563.2Z" style="fill:rgb(22,22,22);fill-rule:nonzero;"/>
            <path d="M241.809,726.9C287.109,729.5 332.509,711.4 363.509,678.2C364.809,676.8 362.709,674.7 361.409,676.1C330.909,708.7 286.409,726.5 241.809,723.9C239.909,723.8 239.909,726.8 241.809,726.9Z" style="fill:rgb(22,22,22);fill-rule:nonzero;"/>
            <path d="M331.309,554.5C339.509,595.8 349.909,636.6 362.209,676.8C362.809,678.6 365.709,677.9 365.109,676C352.709,635.8 342.409,595 334.209,553.7C333.809,551.8 330.909,552.6 331.309,554.5Z" style="fill:rgb(22,22,22);fill-rule:nonzero;"/>
            <path d="M244.509,490.1C243.709,503.7 244.609,517.3 247.409,530.6C249.909,542.2 253.409,554.8 259.909,564.9C265.609,573.7 274.209,579.1 284.909,578.3C292.809,577.7 302.409,573.5 302.609,564.4C302.709,562.5 299.709,562.5 299.609,564.4C299.309,575.9 281.509,576.9 273.809,573.7C264.809,569.9 260.109,560.4 256.809,551.8C249.209,532.2 246.209,511.1 247.509,490.2C247.609,488.2 244.609,488.2 244.509,490.1Z" style="fill:rgb(22,22,22);fill-rule:nonzero;"/>
            <path d="M250.909,491.7C257.409,500.9 265.809,508.8 276.409,513.1C281.609,515.2 287.309,516.5 292.909,516.6C296.709,516.7 302.009,516.9 304.109,513.1C305.009,511.4 302.409,509.9 301.509,511.6C299.409,515.4 288.809,513.5 285.609,512.9C281.209,512 277.009,510.5 273.009,508.3C265.109,504 258.609,497.6 253.509,490.3C252.409,488.6 249.809,490.1 250.909,491.7Z" style="fill:rgb(22,22,22);fill-rule:nonzero;"/>
            <path d="M253.009,482.9C261.709,492.8 273.409,499.3 286.409,501.5C288.309,501.8 289.109,498.9 287.209,498.6C274.609,496.5 263.509,490.3 255.109,480.8C253.909,479.3 251.809,481.4 253.009,482.9Z" style="fill:rgb(22,22,22);fill-rule:nonzero;"/>
            <path d="M243.909,175.9C245.409,181.3 251.009,182.5 254.309,186.5C259.109,192.4 257.709,201.1 256.009,207.9C254.009,215.7 251.209,223.3 248.309,230.8C245.609,238.1 240.909,245.7 239.609,253.5C238.409,260.6 243.309,266.5 243.409,273.5C243.409,282.4 239.509,291.8 237.409,300.4C233.209,317.4 229.409,334.4 226.109,351.6C222.309,371.3 219.009,391.1 216.309,411C216.009,412.9 218.909,413.7 219.209,411.8C224.109,375.9 230.809,340.2 239.409,305C241.509,296.4 244.209,287.9 245.809,279.2C246.409,276.1 246.709,272.8 246.209,269.7C245.609,266 243.709,262.7 242.809,259C241.709,254.2 243.809,249.9 245.609,245.6C247.309,241.6 248.909,237.5 250.509,233.4C253.509,225.5 256.409,217.5 258.609,209.4C260.309,203.1 261.509,195.9 259.309,189.6C258.409,187.1 257.009,184.9 255.109,183.1C252.309,180.5 247.809,179.1 246.709,175.1C246.309,173.2 243.409,174 243.909,175.9Z" style="fill:rgb(22,22,22);fill-rule:nonzero;"/>
            <path d="M174.709,194.2C171.609,196.7 165.909,201.3 161.809,206.1C158.509,210 155.909,214.3 152.309,223.2C146.909,236.6 144.509,247.1 142.309,256.1C137.609,275.2 137.309,273.1 132.809,291.3C127.109,314 123.709,332.9 119.009,360.4C111.409,405.1 107.609,427.4 105.209,446.1C103.209,461.4 95.309,525.4 95.209,611.9C95.209,638.8 95.909,661.4 96.609,677.6C99.009,678.8 101.709,680 104.709,680.9C114.109,683.9 122.609,683.9 128.509,683.3C128.409,665.9 128.509,640 129.509,608.5C130.409,580.9 131.509,561.5 132.409,546.1C134.009,516.5 136.009,474.1 137.209,419.9C137.909,412 139.009,400.7 140.509,387C144.309,353.1 146.909,329.2 152.909,300.3C154.509,292.8 158.409,277.3 166.209,246.5C172.309,222.5 177.409,202.8 181.009,189.3C179.309,190.6 177.209,192.2 174.709,194.2Z" style="fill:white;fill-rule:nonzero;"/>
            <path d="M180.009,189.2C145.809,296.3 133.209,408.5 125.809,520.2C123.709,552.3 122.009,584.4 120.409,616.5C120.309,618.4 123.309,618.4 123.409,616.5C129.209,504.2 135.309,391.2 158.909,280.9C165.509,250.2 173.409,219.8 182.909,189.9C183.509,188.2 180.609,187.4 180.009,189.2Z" style="fill:rgb(22,22,22);fill-rule:nonzero;"/>
            <path d="M180.109,188.3C158.309,201.1 148.909,225.7 142.409,248.9C133.609,280.4 126.609,312.5 120.309,344.7C107.609,410.2 99.409,476.6 95.809,543.2C93.809,581.1 93.309,619.1 94.209,657C94.209,658.9 97.209,658.9 97.209,657C95.609,591.7 98.309,526.3 105.509,461.4C112.709,396.3 124.409,331.7 140.409,268.2C147.409,240.3 154.709,206.6 181.509,190.9C183.309,189.9 181.809,187.3 180.109,188.3Z" style="fill:rgb(22,22,22);fill-rule:nonzero;"/>
            <path d="M94.009,651.1C94.109,657.5 94.109,663.9 94.209,670.4C94.209,674.1 93.609,678.8 96.509,681.6C99.109,684.1 103.409,684.2 106.809,684.6C113.309,685.4 119.909,685.8 126.509,685.9C128.409,685.9 128.409,682.9 126.509,682.9C121.909,682.9 117.309,682.7 112.709,682.3C110.209,682.1 107.709,681.8 105.309,681.4C102.009,680.9 101.209,681.1 99.109,678.2C96.309,674.4 97.309,669.2 97.209,664.6C97.209,660.1 97.109,655.6 97.109,651.1C97.009,649.2 94.009,649.2 94.009,651.1Z" style="fill:rgb(22,22,22);fill-rule:nonzero;"/>
            <path d="M176.209,191.9C165.009,198.7 159.609,211.3 158.609,224C158.209,229.3 159.009,234.7 157.909,239.9C157.009,244.2 155.009,248.1 153.209,252.1C149.709,260 147.109,268.3 145.209,276.8C141.509,293.7 140.509,311.1 139.809,328.4C138.909,348.6 138.009,368.7 137.109,388.9C137.009,390.8 140.009,390.8 140.109,388.9C140.909,370.3 141.709,351.7 142.609,333C143.409,315.6 144.109,298.1 147.409,281C149.009,272.9 151.209,265 154.209,257.3C157.109,250 160.909,243.5 161.309,235.4C161.709,227.5 161.209,220.1 163.809,212.4C166.309,204.9 170.809,198.5 177.609,194.4C179.409,193.5 177.809,190.9 176.209,191.9Z" style="fill:rgb(22,22,22);fill-rule:nonzero;"/>
            <path d="M278.209,191.3C275.409,199.6 272.409,210.9 271.509,224.7C270.509,240 272.309,252.9 274.309,262C277.409,264.3 282.009,268.4 285.309,274.8C288.809,281.7 289.709,289 288.509,300.7C286.809,317.6 284.809,336.6 270.809,355.3C260.109,369.6 247.009,377.4 238.909,382.3C232.909,385.9 227.509,388.4 223.609,390.1C228.909,397.5 229.209,399.7 228.609,400.4C227.509,401.6 223.609,398 216.909,396.1C207.309,393.5 205.209,398.1 196.709,396.1C187.409,393.9 187.209,387.8 177.209,386.2C174.509,385.8 167.109,384.6 164.409,388.7C162.409,391.8 163.509,397 167.209,401.5C166.009,401.6 164.109,401.7 161.909,401.5C159.009,401.2 158.009,400.7 156.609,401.1C155.409,401.5 153.909,402.6 152.709,406.1C148.509,404.1 144.509,405.4 143.809,407.2C143.109,408.9 144.909,412.2 148.809,413.9C148.009,414.8 147.109,416.1 147.409,417.4C147.809,419.3 150.609,420.1 154.509,420.9C162.009,422.5 166.009,422.1 170.509,422.7C177.409,423.6 178.109,425.6 185.409,427.7C195.009,430.4 203.109,429.3 207.809,428.8C222.109,427 232.509,420.7 238.009,416.7C239.909,422.3 241.809,427.8 243.709,433.4C250.909,432.4 261.909,430 273.909,423.5C286.709,416.5 294.409,408.2 299.809,402.2C312.709,388 319.709,373.1 323.609,362.1C326.709,353.4 327.809,346.8 329.309,338.3C331.609,324.8 334.409,308.9 332.509,289.3C331.809,282.6 328.909,258 313.009,231.1C301.309,212 287.909,199.1 278.209,191.3Z" style="fill:white;fill-rule:nonzero;"/>
            <path d="M281.009,195.5C287.609,203.5 296.209,215.5 303.409,231.3C307.309,239.9 317.909,265.4 317.609,300.1C317.409,324.8 317.109,355.3 295.209,381C276.109,403.4 250.309,410.5 237.409,412.9C228.809,413.9 218.909,414.5 208.009,414C186.709,413 168.909,408.4 155.809,403.7C148.609,404.1 146.609,405.6 146.209,406.9C145.709,408.4 147.309,409.6 147.309,412.9C147.309,415.6 146.209,416.2 146.609,417.5C147.209,419.6 150.809,420.6 157.609,421.4C168.109,422.7 170.709,421.9 176.409,423.2C182.509,424.6 182.309,426.2 187.809,427.8C197.509,430.7 206.209,428.3 219.409,424.6C224.109,423.3 230.609,421.2 238.209,417.9C240.009,422.7 241.709,427.6 243.509,432.4C252.209,430.9 265.709,427.5 279.709,418.6C293.909,409.6 301.909,399.2 306.309,393.4C317.109,379.2 321.809,366.1 324.409,358.6C333.009,333.9 332.509,313.2 332.209,302.2C331.809,288.5 331.109,268.1 320.509,244.7C309.109,220 292.209,204.2 281.009,195.5Z" style="fill:rgb(96,96,96);fill-opacity:0.12;fill-rule:nonzero;"/>
            <path d="M272.609,189.8C305.209,212 325.609,247.8 329.409,286.9C333.309,327.4 325.609,372.1 296.809,402.6C282.409,417.8 263.809,428.7 243.009,431.9C241.109,432.2 241.909,435.1 243.809,434.8C283.409,428.7 313.009,396.5 325.209,359.7C338.309,320.3 336.909,272.4 317.309,235.4C307.109,216.1 292.209,199.5 274.109,187.2C272.509,186.1 271.009,188.7 272.609,189.8Z" style="fill:rgb(22,22,22);fill-rule:nonzero;"/>
            <path d="M274.009,264.3C283.709,269.8 285.809,281.1 287.409,291.3C287.709,293.2 290.609,292.4 290.309,290.5C288.509,279.5 286.009,267.7 275.509,261.7C273.809,260.8 272.309,263.4 274.009,264.3Z" style="fill:rgb(22,22,22);fill-rule:nonzero;"/>
            <path d="M288.409,275.7C288.209,308 279.609,339.6 263.409,367.6C262.409,369.3 265.009,370.8 266.009,369.1C282.509,340.7 291.209,308.5 291.409,275.7C291.409,273.8 288.409,273.8 288.409,275.7Z" style="fill:rgb(22,22,22);fill-rule:nonzero;"/>
            <path d="M271.309,349.6C268.009,359.7 258.509,366.1 250.309,372C241.709,378.1 232.709,383.6 223.409,388.5C221.709,389.4 223.209,392 224.909,391.1C235.809,385.3 246.309,378.8 256.109,371.4C263.709,365.7 271.109,359.6 274.109,350.4C274.809,348.6 271.909,347.8 271.309,349.6Z" style="fill:rgb(22,22,22);fill-rule:nonzero;"/>
            <path d="M222.509,391C228.709,405.4 238.409,418.3 241.609,433.8C242.009,435.7 244.909,434.9 244.509,433C241.209,417.2 231.409,404.1 225.109,389.5C224.309,387.8 221.709,389.3 222.509,391Z" style="fill:rgb(22,22,22);fill-rule:nonzero;"/>
            <path d="M228.309,400.3C220.609,393.1 211.909,392.1 201.909,393.4C194.509,394.4 190.109,391.6 184.109,387.9C180.109,385.5 175.809,383.9 171.109,383.9C163.709,383.9 159.409,389.1 162.909,396.2C167.009,404.7 178.109,407.4 186.509,408.8C188.409,409.1 189.209,406.2 187.309,405.9C179.909,404.6 170.409,402.7 166.109,395.8C165.209,394.3 164.109,391.4 164.809,389.7C166.309,386.1 171.709,386.6 174.609,387.2C178.309,387.9 181.409,389.8 184.509,391.7C189.809,395.1 194.509,397.3 200.909,396.5C210.609,395.4 218.609,395.3 226.209,402.4C227.509,403.7 229.709,401.6 228.309,400.3Z" style="fill:rgb(22,22,22);fill-rule:nonzero;"/>
            <path d="M151.309,406.8C158.709,415.4 169.609,419.2 180.709,417.6C182.609,417.3 181.809,414.4 179.909,414.7C169.809,416.2 160.009,412.3 153.509,404.7C152.109,403.3 150.009,405.4 151.309,406.8Z" style="fill:rgb(22,22,22);fill-rule:nonzero;"/>
            <path d="M143.209,408.3C146.609,417.6 156.109,420.2 165.109,420.9C167.009,421.1 167.009,418 165.109,417.9C157.709,417.3 149.009,415.5 146.109,407.5C145.509,405.7 142.609,406.5 143.209,408.3Z" style="fill:rgb(22,22,22);fill-rule:nonzero;"/>
            <path d="M144.909,415.4C147.609,421.7 154.309,423.6 160.609,423.9C165.409,424.2 170.109,423.9 174.909,425.2C179.309,426.3 183.509,428.2 187.809,429.5C205.009,434.7 221.309,427.3 236.409,419.4C238.109,418.5 236.609,415.9 234.909,416.8C220.509,424.2 205.009,431.5 188.609,426.6C182.509,424.8 176.709,422 170.309,421.3C162.509,420.4 151.309,422.9 147.509,413.9C146.709,412.2 144.109,413.7 144.909,415.4Z" style="fill:rgb(22,22,22);fill-rule:nonzero;"/>
            <path d="M154.109,404.3C154.009,404.3 156.709,403.2 156.809,403.1C158.009,402.8 159.309,402.6 160.509,402.6C162.809,402.5 165.109,403.1 167.209,403.9C169.009,404.6 169.809,401.7 168.009,401C163.509,399.3 158.209,399 153.809,400.9C151.509,401.9 149.109,405.4 152.509,406.9C154.409,407.7 155.909,405.1 154.109,404.3Z" style="fill:rgb(22,22,22);fill-rule:nonzero;"/>
            <path d="M145.909,408.2C145.009,406.6 149.209,407.2 149.709,407.2C151.209,407.3 152.509,407.2 153.909,406.5C155.609,405.6 154.109,403 152.409,403.9C150.109,405.1 147.209,403.2 144.809,404.7C143.009,405.7 142.309,407.9 143.309,409.7C144.309,411.3 146.909,409.8 145.909,408.2Z" style="fill:rgb(22,22,22);fill-rule:nonzero;"/>
            <path d="M159.309,211.2C154.109,215.6 147.009,222.3 140.109,231.8C137.009,236.1 135.009,239.3 132.509,243.4C128.509,250.1 121.509,261.6 115.509,277.9C113.209,284 110.609,292.2 108.309,302.1C104.309,305.1 100.209,308.1 96.209,311.1C94.009,312 87.409,314.9 82.809,322.3C78.109,329.9 78.509,337.4 78.809,339.8C74.309,340.6 69.609,341.4 64.909,342C42.309,345.2 21.009,346.3 1.309,346C9.109,355.1 16.809,364.2 24.609,373.3C22.209,375.5 19.809,377.8 17.409,380C21.709,385.8 26.109,391.6 30.409,397.5C36.109,396.8 41.709,396 47.409,395.3C56.209,405.9 65.009,416.5 73.809,427.1C88.909,425.3 101.509,422.7 110.909,420.4C140.109,413.4 161.509,404 171.309,399.4C179.509,395.6 186.109,392 190.509,389.6C188.009,383.1 185.509,378.1 183.809,374.8C178.809,365.4 168.809,347.1 148.909,334.5C145.109,332.1 141.809,330.5 139.909,329.6C139.409,316 140.509,304.8 141.709,296.9C144.809,276.1 151.609,257.3 152.409,254.8C154.909,247.8 156.409,245 157.809,238.7C160.509,227.4 160.109,217.7 159.309,211.2Z" style="fill:white;fill-rule:nonzero;"/>
            <path d="M150.609,221.3C144.509,233 138.109,246.9 132.609,263.1C127.409,278.2 123.909,292.2 121.509,304.6C118.009,303.7 114.209,304.8 111.709,307.4C109.209,310.1 108.309,314 109.509,317.5C106.409,318 100.909,319.3 95.909,323.5C84.209,333.3 86.209,349.6 86.409,351C82.009,351.5 77.309,352.2 72.509,353.2C52.709,357.4 36.709,365.1 24.709,372.5C17.209,363.6 9.709,354.8 2.209,345.9C26.709,344.2 51.109,342.5 75.609,340.8C76.209,337.4 77.609,332.6 80.709,327.5C86.109,318.6 93.509,314.2 97.209,312.3C97.909,310.9 98.709,309.6 99.409,308.2C102.109,306.1 104.909,304 107.609,301.9C109.209,294 111.009,287.7 112.309,283.5C116.209,271.3 123.209,249.8 141.109,230.3C145.109,226.2 148.509,223.1 150.609,221.3Z" style="fill:rgb(96,96,96);fill-opacity:0.11;fill-rule:nonzero;"/>
            <path d="M159.809,208.4C133.009,232.8 114.409,265.4 107.209,301C106.809,302.9 109.709,303.7 110.109,301.8C117.209,266.7 135.409,234.6 161.909,210.5C163.309,209.2 161.209,207.1 159.809,208.4Z" style="fill:rgb(22,22,22);fill-rule:nonzero;"/>
            <path d="M101.309,309.8C93.509,309.3 87.809,314.9 83.409,320.8C78.109,327.9 76.409,336.4 77.409,345.2C78.009,350.3 81.909,358.2 88.409,355.7C91.409,354.5 92.809,351.1 94.109,348.4C96.109,344.1 97.909,339.7 99.609,335.3C100.309,333.5 97.409,332.7 96.709,334.5C95.609,337.3 94.509,340.2 93.309,343C92.409,345 91.609,348.2 90.209,349.7C90.009,350.1 89.709,350.5 89.509,350.9C87.009,350.7 84.509,350.4 82.009,350.2C80.909,349.2 80.609,346.5 80.409,345.1C80.109,342.6 80.209,340.1 80.309,337.6C81.009,327.4 89.109,312.2 101.209,312.9C103.309,312.9 103.309,309.9 101.309,309.8Z" style="fill:rgb(22,22,22);fill-rule:nonzero;"/>
            <path d="M96.909,312C103.709,309.4 110.009,321.6 111.509,326.6C112.109,328.4 115.009,327.7 114.409,325.8C112.409,319.2 104.909,305.8 96.109,309.1C94.309,309.8 95.109,312.7 96.909,312Z" style="fill:rgb(22,22,22);fill-rule:nonzero;"/>
            <path d="M98.409,310.6C104.909,306.5 113.009,301.9 120.209,307.2C121.809,308.3 123.309,305.7 121.709,304.6C113.609,298.6 104.309,303.3 96.909,308C95.209,309.1 96.709,311.7 98.409,310.6Z" style="fill:rgb(22,22,22);fill-rule:nonzero;"/>
            <path d="M100.109,336.3C105.409,336.4 110.109,333.8 113.009,329.4C114.109,327.8 111.509,326.3 110.409,327.9C108.109,331.4 104.309,333.4 100.109,333.3C98.109,333.2 98.109,336.2 100.109,336.3Z" style="fill:rgb(22,22,22);fill-rule:nonzero;"/>
            <path d="M0.409,346.9C8.009,356.1 15.509,365.2 23.109,374.4C24.309,375.9 26.409,373.8 25.209,372.3C17.609,363.1 10.109,354 2.509,344.8C1.209,343.3 -0.891,345.5 0.409,346.9Z" style="fill:rgb(22,22,22);fill-rule:nonzero;"/>
            <path d="M1.509,346.6C26.109,347.5 50.709,346.1 75.009,342.2C76.909,341.9 76.109,339 74.209,339.3C50.109,343.1 25.809,344.5 1.509,343.6C-0.391,343.5 -0.391,346.5 1.509,346.6Z" style="fill:rgb(22,22,22);fill-rule:nonzero;"/>
            <path d="M100.609,337.9C110.209,334.8 119.909,330.8 129.709,328.5C136.009,327 139.409,330.1 144.109,333.7C148.109,336.8 152.009,340.1 155.809,343.5C169.309,355.9 180.709,370.3 189.809,386.3C190.809,388 193.309,386.5 192.409,384.8C182.409,367.2 169.509,351.4 154.309,338.1C150.909,335.1 147.309,332.3 143.709,329.6C140.509,327.2 137.209,324.3 133.009,324.6C128.009,324.9 122.709,327.5 118.009,329.1C111.909,331 105.909,333 99.809,334.9C98.009,335.6 98.809,338.5 100.609,337.9Z" style="fill:rgb(22,22,22);fill-rule:nonzero;"/>
            <path d="M15.709,377.9C18.909,385.9 23.709,392.8 30.309,398.3C31.809,399.5 33.909,397.4 32.409,396.2C26.309,391 21.609,384.6 18.609,377.1C17.909,375.3 15.009,376.1 15.709,377.9Z" style="fill:rgb(22,22,22);fill-rule:nonzero;"/>
            <path d="M18.909,379.8C21.609,378.2 24.409,376.8 27.309,375.7C31.709,374.1 34.609,375.6 37.609,378.7C39.509,380.7 41.509,382.6 43.509,384.5C44.309,385.2 49.609,389.2 49.709,389.9C50.109,389.4 50.409,388.9 50.809,388.5C51.109,388.6 51.409,388.7 51.809,388.8C51.909,389.4 52.009,390 52.009,390.6C52.009,390.5 52.109,390.5 52.109,390.4C53.209,388.8 50.609,387.3 49.509,388.9C49.509,389 49.409,389 49.409,389.1C49.109,389.6 49.209,390.5 49.609,390.9C50.209,391.5 50.709,391.7 51.609,391.4C52.209,391.2 52.709,390.6 52.709,390C52.509,387.2 48.909,385.4 47.009,383.7C43.309,380.3 40.009,375.9 36.109,372.8C30.909,368.7 22.109,374.5 17.409,377.2C15.709,378.1 17.209,380.7 18.909,379.8Z" style="fill:rgb(22,22,22);fill-rule:nonzero;"/>
            <path d="M32.109,399C37.309,399.3 43.009,399.6 48.209,398.5C49.309,398.3 50.209,398.1 50.909,397.1C51.809,395.7 51.109,394.1 51.909,392.7C52.809,391 50.209,389.5 49.309,391.2C48.809,392 48.909,392.6 48.609,393.5C47.809,395.9 46.109,395.9 43.709,396C39.809,396.3 36.009,396.2 32.109,396C30.109,395.9 30.109,398.9 32.109,399Z" style="fill:rgb(22,22,22);fill-rule:nonzero;"/>
            <path d="M32.109,398.2C38.609,397.5 44.809,396.1 50.909,393.9C52.709,393.2 51.909,390.3 50.109,391C44.309,393.2 38.309,394.6 32.109,395.2C30.209,395.3 30.109,398.4 32.109,398.2Z" style="fill:rgb(22,22,22);fill-rule:nonzero;"/>
            <path d="M46.209,396.9C47.309,396.2 48.609,395.8 49.909,395.7C51.809,395.5 51.809,392.5 49.909,392.7C48.009,392.8 46.309,393.4 44.709,394.3C43.009,395.3 44.509,397.9 46.209,396.9Z" style="fill:rgb(22,22,22);fill-rule:nonzero;"/>
            <path d="M46.609,397.5C54.509,407.8 62.909,417.6 72.009,426.9C73.309,428.3 75.509,426.2 74.109,424.8C65.209,415.7 56.909,406.1 49.209,396C48.009,394.5 45.409,396 46.609,397.5Z" style="fill:rgb(22,22,22);fill-rule:nonzero;"/>
            <path d="M74.109,428.5C97.109,424.9 119.909,419.5 142.109,412.3C153.009,408.7 163.909,404.8 174.509,400.4C180.509,397.9 192.709,395.2 192.509,386.9C192.509,385 189.509,385 189.509,386.9C189.609,392.5 179.309,395.1 175.409,396.7C170.809,398.6 166.209,400.5 161.509,402.2C151.909,405.8 142.209,409.1 132.409,412.1C113.009,417.9 93.309,422.4 73.309,425.6C71.409,425.9 72.209,428.8 74.109,428.5Z" style="fill:rgb(22,22,22);fill-rule:nonzero;"/>
            <path d="M49.809,365.9C59.709,379.7 69.609,393.4 79.609,407.2C80.709,408.8 83.309,407.3 82.209,405.7C72.309,391.9 62.409,378.2 52.409,364.4C51.309,362.9 48.709,364.3 49.809,365.9Z" style="fill:rgb(22,22,22);fill-rule:nonzero;"/>
            <path d="M71.809,374C80.709,387.3 90.409,400 100.809,412.1C102.109,413.6 104.209,411.4 102.909,410C92.609,398.1 83.109,385.6 74.309,372.5C73.309,370.9 70.709,372.4 71.809,374Z" style="fill:rgb(22,22,22);fill-rule:nonzero;"/>
            <path d="M93.209,362.6C104.009,376.8 114.909,391 125.709,405.2C126.909,406.7 129.509,405.2 128.309,403.7C117.509,389.5 106.609,375.3 95.809,361.1C94.609,359.6 92.009,361 93.209,362.6Z" style="fill:rgb(22,22,22);fill-rule:nonzero;"/>
            <path d="M115.509,351.4C120.809,357.7 125.809,364.2 130.609,370.9C131.709,372.5 134.309,371 133.209,369.4C128.209,362.5 123.009,355.8 117.609,349.3C116.309,347.8 114.209,349.9 115.509,351.4Z" style="fill:rgb(22,22,22);fill-rule:nonzero;"/>
            <path d="M127.909,67C127.409,69.7 127.909,73.3 129.009,80.2C132.109,101.2 134.309,115.5 143.009,131C148.909,141.4 157.709,157.1 175.509,162.5C184.809,165.3 193.109,164.3 198.209,163.3C198.709,166.1 199.609,169.5 201.109,173.1C204.609,181.3 209.809,186.7 213.309,189.8C215.709,189.6 222.609,188.5 228.609,182.9C232.809,179 234.709,174.7 235.509,172.3C233.409,169.8 230.809,166.1 228.909,161.2C225.509,152.8 225.809,145.2 226.309,141.1C227.409,132.6 228.409,124.2 229.509,115.7C231.009,115.7 234.009,115.4 236.609,113.3C241.309,109.6 242.309,102.2 239.209,97.2C237.509,94.4 233.409,90.4 228.909,91.6C225.109,92.7 223.609,96.8 223.309,97.4C223.009,89.2 221.509,76.4 215.609,62C210.409,49.3 206.709,40.2 198.209,35C175.909,21.5 132.309,42.5 127.909,67Z" style="fill:white;fill-rule:nonzero;"/>
            <path d="M127.309,74.7C130.109,104.6 138.609,139.9 164.309,158.6C176.509,167.5 192.509,168.4 206.009,161.9C219.609,155.4 228.609,142 232.109,127.5C232.509,125.6 229.709,124.8 229.209,126.7C225.909,140.4 217.509,153.1 204.509,159.3C189.609,166.4 173.109,163.3 161.209,152.2C140.209,132.5 132.809,102.3 130.209,74.7C130.209,72.8 127.209,72.8 127.309,74.7Z" style="fill:rgb(22,22,22);fill-rule:nonzero;"/>
            <path d="M197.009,164C199.409,174.1 202.509,184.6 212.009,190.3C213.709,191.3 215.209,188.7 213.509,187.7C204.709,182.5 202.109,172.5 199.909,163.2C199.509,161.3 196.609,162.1 197.009,164Z" style="fill:rgb(22,22,22);fill-rule:nonzero;"/>
            <path d="M224.309,142.9C225.309,154.1 226.709,165.7 234.609,174.3C235.909,175.7 238.009,173.6 236.709,172.2C229.409,164.2 228.209,153.2 227.309,142.9C227.109,141 224.109,141 224.309,142.9Z" style="fill:rgb(22,22,22);fill-rule:nonzero;"/>
            <path d="M213.409,191.2C223.909,190.1 232.609,183.4 236.209,173.4C236.909,171.6 234.009,170.8 233.309,172.6C230.209,181.2 222.409,187.2 213.409,188.2C211.509,188.4 211.509,191.4 213.409,191.2Z" style="fill:rgb(22,22,22);fill-rule:nonzero;"/>
            <path d="M225.209,98.5C225.309,93.8 230.109,91.4 234.109,93.5C236.609,94.8 238.009,97.2 238.509,99.8C239.409,104.1 236.609,116.1 229.709,113.2C227.909,112.5 226.409,115 228.209,115.8C238.609,120.3 244.109,103.9 240.609,96.4C236.609,87.7 222.409,87.4 222.109,98.5C222.209,100.5 225.209,100.5 225.209,98.5Z" style="fill:rgb(22,22,22);fill-rule:nonzero;"/>
            <path d="M157.009,83.6C155.009,92.8 153.509,102.2 153.009,111.7C152.909,114.2 152.609,115.9 154.509,117.7C157.209,120.2 162.009,121.3 165.509,122C167.409,122.4 168.209,119.5 166.309,119.1C163.509,118.6 158.809,117.9 156.809,115.7C154.709,113.4 156.209,108 156.509,105.2C157.209,98.2 158.409,91.3 159.909,84.4C160.309,82.5 157.409,81.7 157.009,83.6Z" style="fill:rgb(22,22,22);fill-rule:nonzero;"/>
            <path d="M134.309,88.9C139.209,91.7 145.009,91.5 149.709,88.5C151.309,87.5 149.809,84.9 148.209,85.9C144.409,88.4 139.809,88.5 135.809,86.3C134.109,85.4 132.609,88 134.309,88.9Z" style="fill:rgb(22,22,22);fill-rule:nonzero;"/>
            <path d="M168.609,74.5C173.209,68 182.309,69.4 185.409,76.5C186.209,78.3 188.809,76.7 188.009,75C183.809,65.7 171.809,64.9 166.009,73C164.909,74.6 167.509,76.1 168.609,74.5Z" style="fill:rgb(22,22,22);fill-rule:nonzero;"/>
            <path d="M139.709,89.5C138.709,94.2 139.909,98.8 143.109,102.4C144.409,103.8 146.509,101.7 145.209,100.3C142.809,97.5 141.809,93.9 142.609,90.3C143.009,88.4 140.109,87.6 139.709,89.5Z" style="fill:rgb(22,22,22);fill-rule:nonzero;"/>
            <path d="M142.209,90.3C143.209,93.8 143.709,97.3 143.709,100.9C143.709,102.8 146.709,102.8 146.709,100.9C146.709,97 146.109,93.3 145.109,89.5C144.509,87.7 141.609,88.5 142.209,90.3Z" style="fill:rgb(22,22,22);fill-rule:nonzero;"/>
            <path d="M141.309,90.6C140.609,93.9 141.109,97.1 142.809,100C143.809,101.6 146.409,100.1 145.409,98.5C144.109,96.3 143.609,93.9 144.209,91.4C144.609,89.5 141.709,88.7 141.309,90.6Z" style="fill:rgb(22,22,22);fill-rule:nonzero;"/>
            <path d="M145.709,103C146.809,101.9 147.209,100.4 146.909,98.9C146.809,98.1 145.809,97.7 145.109,97.9C144.309,98.1 143.909,98.9 144.109,99.7C144.109,99.5 144.109,100 144.109,100.1C144.109,99.9 144.009,100.3 144.009,100.3C143.909,100.6 144.109,100.2 143.909,100.5C143.809,100.6 143.809,100.7 143.909,100.6C143.809,100.7 143.809,100.8 143.709,100.8C143.109,101.4 143.109,102.4 143.709,102.9C144.209,103.6 145.109,103.6 145.709,103Z" style="fill:rgb(22,22,22);fill-rule:nonzero;"/>
            <path d="M173.509,83.1C171.909,87.4 171.909,92 173.509,96.3C174.209,98.1 177.109,97.3 176.409,95.5C174.909,91.7 174.909,87.8 176.409,83.9C177.109,82.1 174.209,81.3 173.509,83.1Z" style="fill:rgb(22,22,22);fill-rule:nonzero;"/>
            <path d="M173.809,84.2C174.609,88.2 174.909,92.1 174.609,96.2C174.509,98.1 177.509,98.1 177.609,96.2C177.909,91.9 177.609,87.6 176.709,83.4C176.309,81.5 173.409,82.3 173.809,84.2Z" style="fill:rgb(22,22,22);fill-rule:nonzero;"/>
            <path d="M155.309,130C161.709,129.5 166.109,134.1 170.009,138.5C171.309,139.9 173.409,137.8 172.109,136.4C167.609,131.5 162.409,126.5 155.309,127C153.409,127.1 153.409,130.1 155.309,130Z" style="fill:rgb(22,22,22);fill-rule:nonzero;"/>
            <path d="M174.309,83.7C175.109,86.1 175.509,88.5 175.609,91C175.609,92 175.609,93 175.509,93.9C174.809,95.6 175.109,95.9 176.409,94.9C176.509,94.4 176.509,94 176.409,93.5C176.209,91.6 173.209,91.6 173.409,93.5C173.509,95 173.109,96.7 174.509,97.7C175.609,98.5 177.009,98.3 177.709,97.1C178.709,95.6 178.609,92.6 178.609,90.9C178.609,88.1 178.109,85.4 177.209,82.8C176.609,81.1 173.709,81.9 174.309,83.7Z" style="fill:rgb(22,22,22);fill-rule:nonzero;"/>
            <path d="M199.709,166.3C209.409,164.9 216.109,158.8 221.209,150.8C222.209,149.2 219.609,147.7 218.609,149.3C213.909,156.8 207.909,162.1 198.909,163.4C197.009,163.7 197.809,166.6 199.709,166.3Z" style="fill:rgb(22,22,22);fill-rule:nonzero;"/>
            <path d="M199.909,168.5C211.109,167.5 220.709,155.2 225.409,146C226.309,144.3 223.709,142.8 222.809,144.5C218.709,152.6 209.809,164.6 199.909,165.5C198.009,165.6 198.009,168.6 199.909,168.5Z" style="fill:rgb(22,22,22);fill-rule:nonzero;"/>
            <path d="M199.709,170C206.409,170.2 211.409,164.5 215.809,160.1C220.209,155.7 225.209,150.8 225.909,144.3C226.109,142.4 223.109,142.4 222.909,144.3C222.409,149.8 217.409,154.3 213.709,158C210.009,161.8 205.409,167.1 199.709,167C197.709,167 197.709,170 199.709,170Z" style="fill:rgb(22,22,22);fill-rule:nonzero;"/>
            <path d="M128.909,79.3C125.909,75.4 119.909,66.6 120.109,55C120.509,32.7 143.509,19.7 146.709,17.9C157.209,12 163.809,12.7 188.209,8.5C205.409,5.5 219.109,2.2 227.709,0C223.909,4.3 220.109,8.6 216.309,12.9C221.309,14.4 226.509,16.1 231.809,18.2C246.309,23.7 258.909,30.2 269.509,36.6C264.409,38.5 259.409,40.5 254.309,42.4C257.809,43.7 271.709,49.4 277.109,63.4C280.609,72.7 278.809,81.4 278.009,85C274.109,102.7 261.309,106.9 262.209,118.9C262.509,122.5 264.109,127.8 271.009,134.1C266.909,133.7 262.809,133.3 258.709,132.9C259.809,136.4 260.809,139.9 261.909,143.4C259.009,144.3 253.809,145.5 247.609,144.6C245.009,144.2 231.409,142.1 226.909,130.9C224.009,123.6 226.509,116.6 227.509,114.2C229.809,115.2 233.009,116.1 235.709,114.8C242.509,111.5 243.209,95.8 236.609,91.4C234.309,89.9 230.709,89.5 227.509,90.8C224.109,92.3 222.609,95.2 222.209,96.1C219.309,95.2 215.209,93.4 211.709,89.7C201.509,79 206.109,62.7 206.409,61.6C202.309,61.4 195.909,60.7 188.609,58.1C179.409,54.8 176.409,51.3 169.309,49.9C164.909,49.1 158.109,48.9 148.809,53.1C145.909,54.5 141.709,56.9 137.709,61.3C131.409,68.3 129.609,75.8 128.909,79.3Z" style="fill:rgb(39,52,67);fill-rule:nonzero;"/>
            <path d="M193.209,58.4C199.109,70.2 202.309,80.4 204.109,87.6C207.209,100.1 212.209,122.1 204.509,146.8C202.409,153.6 199.809,158.8 198.009,162C203.109,159.5 208.209,157.1 213.209,154.6C217.309,165 221.309,175.5 225.409,185.9C228.709,182 232.109,178.1 235.409,174.1C232.809,170.7 228.109,163.3 226.709,152.8C225.709,145.1 226.909,138.8 228.009,135C230.209,136.3 232.409,137.6 234.509,138.9C236.909,140.4 240.609,142.2 245.409,143.3C252.009,144.7 257.509,144 260.609,143.3C259.709,139.7 258.909,136 258.009,132.4C262.209,133 266.409,133.6 270.609,134.1C268.909,133 265.709,130.5 263.609,126.3C260.209,119.4 262.209,112.8 262.709,111.1C264.709,104.6 268.509,103.7 272.709,97.6C274.109,95.5 279.609,86.5 278.809,74.5C278.109,64 273.009,56.9 271.809,55.3C264.809,45.9 255.209,43 252.209,42.2C257.609,40.2 262.909,38.1 268.309,36.1C265.309,34.4 246.709,24.4 224.309,31.7C204.209,38.5 195.109,54.9 193.209,58.4Z" style="fill:rgb(96,96,96);fill-opacity:0.13;fill-rule:nonzero;"/>
            <path d="M153.209,116.7C152.009,117.9 151.309,119.9 151.909,121.5C153.209,125.1 160.709,126.7 165.009,123.7C165.509,123.3 167.909,121.6 167.609,119.8C167.009,116.2 157.009,112.8 153.209,116.7Z" style="fill:rgb(96,96,96);fill-opacity:0.18;fill-rule:nonzero;"/>
        </g>
    </g>
</svg>
