<?xml version="1.0" encoding="UTF-8" standalone="no"?>
<!DOCTYPE svg PUBLIC "-//W3C//DTD SVG 1.1//EN" "http://www.w3.org/Graphics/SVG/1.1/DTD/svg11.dtd">
<svg width="100%" height="100%" viewBox="0 0 605 667" version="1.1" xmlns="http://www.w3.org/2000/svg" xmlns:xlink="http://www.w3.org/1999/xlink" xml:space="preserve" xmlns:serif="http://www.serif.com/" style="fill-rule:evenodd;clip-rule:evenodd;stroke-miterlimit:10;">
    <path d="M31.46,226.002C41.363,217.942 54.771,216.775 67.01,218.998C80.085,221.333 91.99,227.613 104.063,232.894C116.525,238.397 129.21,242.343 142.896,243.01C156.527,243.733 170.157,241.787 183.399,238.452C211.049,231.504 236.419,218.164 262.957,208.104C276.253,203.046 289.995,198.655 304.126,196.654C311.804,195.542 319.537,195.264 327.271,196.098C334.614,196.876 341.791,198.599 348.968,200.378C364.824,204.324 380.624,207.77 396.87,209.716C413.616,211.717 430.529,212.384 447.386,211.828C448.443,211.772 448.443,210.105 447.386,210.16C416.787,211.272 386.188,207.993 356.479,200.6C342.292,197.043 328.216,193.374 313.473,194.097C299.175,194.819 285.044,198.599 271.58,203.212C244.597,212.495 219.228,226.113 191.855,234.395C177.946,238.563 163.537,241.454 148.961,241.509C134.162,241.565 120.253,238.119 106.734,232.227C93.381,226.446 80.307,219.276 65.786,217.053C53.435,215.163 40.25,216.664 30.291,224.779C29.457,225.501 30.625,226.724 31.46,226.002Z" style="fill:rgb(232,232,232);fill-rule:nonzero;"/>
    <path d="M331.109,175.199C369.664,191.818 413.449,189.039 452.894,176.977C474.258,170.419 495.511,161.636 518.265,161.692C541.187,161.748 562.94,169.752 585.361,173.309C605.723,176.533 628.144,176.144 645.614,163.915C646.504,163.304 645.669,161.859 644.779,162.47C628.645,173.754 608.171,174.754 589.255,172.197C567.836,169.307 547.251,161.859 525.609,160.302C503.967,158.746 483.549,165.249 463.242,171.919C442.991,178.534 422.518,183.703 401.209,184.926C377.62,186.315 353.753,183.147 331.999,173.754C330.998,173.309 330.164,174.754 331.109,175.199Z" style="fill:rgb(232,232,232);fill-rule:nonzero;"/>
    <path d="M10.207,313.768C22.391,305.097 36.801,299.761 51.711,298.316C59.166,297.593 66.677,297.871 74.02,299.15C81.642,300.484 88.986,303.04 96.274,305.597C109.794,310.266 123.202,313.824 137.444,310.544C149.739,307.709 160.866,301.317 171.771,295.259C184.623,288.088 197.975,280.751 212.885,279.417C213.942,279.306 213.942,277.639 212.885,277.75C186.292,280.14 166.319,300.094 141.505,307.709C135.219,309.655 128.654,310.655 122.089,310.266C114.022,309.766 106.177,307.265 98.611,304.652C90.989,302.04 83.367,299.205 75.356,297.704C68.457,296.426 61.391,296.037 54.437,296.482C38.303,297.482 22.558,302.985 9.373,312.378C8.482,312.934 9.317,314.379 10.207,313.768Z" style="fill:rgb(232,232,232);fill-rule:nonzero;"/>
    <path d="M157.695,335.112C179.337,312.267 211.16,302.929 241.927,302.651C259.785,302.484 277.589,305.041 295.002,308.765C311.581,312.267 327.66,316.825 344.796,314.546C362.71,312.156 379.456,304.485 395.479,296.426C396.425,295.926 395.59,294.48 394.644,294.981C379.4,302.651 363.545,309.933 346.576,312.601C337.897,313.935 329.162,313.823 320.483,312.434C311.693,311.044 303.125,308.71 294.39,306.875C262.567,300.205 228.685,297.371 197.419,308.209C182.008,313.545 167.765,322.05 156.527,333.889C155.804,334.723 156.972,335.89 157.695,335.112Z" style="fill:rgb(232,232,232);fill-rule:nonzero;"/>
    <path d="M415.563,351.731C424.632,354.9 433.923,351.954 442.212,348.007C451.503,343.561 460.238,338.058 469.752,334.111C479.265,330.165 489.502,327.497 499.85,328.775C509.308,329.943 518.043,334.167 526.332,338.669C534.177,342.949 541.91,347.618 550.255,350.898C559.546,354.511 569.561,356.234 579.519,356.011C599.937,355.567 617.295,345.395 635.933,338.503C653.347,332.055 676.547,329.165 690.511,344.283C691.234,345.061 692.403,343.894 691.679,343.116C680.719,331.277 663.25,329.943 648.228,333.111C628.645,337.224 611.732,349.174 592.037,353.01C581.522,355.066 570.507,354.788 560.103,352.287C550.422,349.953 541.743,345.395 533.064,340.559C525.22,336.168 517.264,331.61 508.64,328.998C499.683,326.274 490.337,326.219 481.268,328.442C470.197,331.166 460.016,336.557 450.057,342.004C439.764,347.563 427.859,354.344 415.897,350.175C415.007,349.786 414.562,351.398 415.563,351.731Z" style="fill:rgb(232,232,232);fill-rule:nonzero;"/>
    <path d="M562.05,378.522C585.083,379.912 604.054,364.293 625.808,359.568C631.594,358.29 637.714,357.734 643.611,358.735C648.896,359.624 653.681,361.792 658.243,364.571C666.087,369.351 673.709,375.521 683.279,376.188C694.906,376.966 705.199,369.74 713.878,362.959C714.712,362.292 713.544,361.125 712.709,361.792C704.253,368.351 694.127,375.521 682.778,374.465C672.93,373.575 665.142,366.461 656.852,361.847C637.769,351.175 617.351,359.568 599.047,367.628C587.308,372.742 575.124,377.689 562.106,376.91C560.993,376.799 560.993,378.467 562.05,378.522Z" style="fill:rgb(232,232,232);fill-rule:nonzero;"/>
    <path d="M36.912,484.798C44.979,477.127 56.94,474.126 67.678,477.072C78.916,480.129 86.149,489.8 95.162,496.47C113.132,509.755 137.611,507.642 157.361,499.805C180.672,490.578 200.089,473.903 223.344,464.51C234.694,459.896 246.989,456.95 259.34,457.784C271.357,458.618 281.594,463.787 291.108,470.791C300.566,477.739 309.467,485.965 320.539,490.356C332.389,495.025 345.741,494.025 356.868,487.855C357.814,487.355 356.98,485.909 356.034,486.41C344.684,492.69 331.109,493.246 319.259,488.021C309.356,483.63 301.233,476.293 292.61,469.846C283.764,463.231 274.362,458.062 263.235,456.506C251.774,454.949 240.091,456.895 229.242,460.508C205.486,468.456 185.902,484.853 163.37,495.359C142.563,505.086 115.802,509.643 96.052,495.025C86.204,487.744 78.471,477.35 65.786,474.904C55.049,472.847 43.644,476.071 35.743,483.63C34.965,484.353 36.133,485.576 36.912,484.798Z" style="fill:rgb(232,232,232);fill-rule:nonzero;"/>
    <path d="M250.661,515.813C259.841,509.866 270.745,507.031 281.706,507.921C291.72,508.754 301.178,512.478 310.358,516.202C319.259,519.815 328.272,523.595 337.841,525.151C347.856,526.763 357.981,525.54 367.606,522.595C379.122,519.037 389.804,513.368 400.319,507.643C401.265,507.142 400.431,505.697 399.485,506.197C380.235,516.592 359.094,527.541 336.506,523.206C317.646,519.593 301.067,507.921 281.65,506.253C270.412,505.308 259.173,508.254 249.771,514.368C248.937,514.98 249.771,516.425 250.661,515.813Z" style="fill:rgb(232,232,232);fill-rule:nonzero;"/>
    <path d="M460.683,553.499C472.812,542.16 487.722,533.989 503.8,529.82C511.979,527.708 520.38,526.652 528.836,526.708C538.238,526.819 547.585,528.319 556.932,529.209C575.069,530.932 592.482,527.875 609.451,521.26C625.641,514.979 640.885,504.085 658.299,501.417C678.661,498.304 694.406,511.811 707.369,525.651C708.092,526.43 709.26,525.262 708.537,524.484C697.855,513.09 685.281,501.306 669.036,499.472C651.233,497.471 635.043,507.92 619.577,515.091C601.773,523.373 582.579,529.042 562.829,527.93C552.982,527.375 543.245,525.596 533.342,525.096C524.942,524.651 516.485,525.262 508.251,526.985C490.058,530.71 473.09,539.492 459.515,552.22C458.736,553.054 459.904,554.221 460.683,553.499Z" style="fill:rgb(232,232,232);fill-rule:nonzero;"/>
    <path d="M134.941,202.268C150.518,214.329 170.825,208.993 187.794,203.435C208.824,196.487 230.132,192.096 252.386,191.651C253.443,191.651 253.443,189.984 252.386,189.984C231.912,190.373 211.717,193.875 192.245,200.211C174.608,205.936 152.688,213.996 136.109,201.101C135.274,200.434 134.106,201.601 134.941,202.268Z" style="fill:rgb(22,22,22);fill-rule:nonzero;"/>
    <path d="M284.932,101.217C303.737,99.828 321.874,94.603 340.067,90.212C358.983,85.598 377.954,82.541 397.482,84.653C417.177,86.766 436.259,92.713 455.565,96.937C474.147,101.05 493.007,102.94 512.034,101.995C533.454,100.939 554.595,96.437 574.568,88.766C575.569,88.377 575.124,86.766 574.123,87.155C537.793,101.106 498.126,104.052 460.071,96.159C441.1,92.213 422.518,86.432 403.324,83.653C384.797,80.985 366.716,82.486 348.468,86.488C327.326,91.101 306.574,97.882 284.932,99.494C283.875,99.661 283.875,101.328 284.932,101.217Z" style="fill:rgb(22,22,22);fill-rule:nonzero;"/>
    <path d="M586.029,240.509C602.274,234.506 619.132,243.066 635.377,244.622C644.112,245.456 652.791,244.622 661.303,242.621C669.648,240.62 677.771,237.674 686.283,236.396C695.407,235.006 705.143,235.562 713.043,240.731C713.933,241.343 714.768,239.898 713.878,239.286C699.858,230.171 682.722,235.062 667.923,239.175C658.632,241.787 649.341,243.677 639.661,243.288C630.425,242.955 621.579,240.398 612.567,238.508C603.609,236.674 594.374,235.673 585.639,238.897C584.582,239.231 585.027,240.843 586.029,240.509Z" style="fill:rgb(22,22,22);fill-rule:nonzero;"/>
    <path d="M196.862,565.227C201.369,559.891 208.323,557 215.333,557.89C219.339,558.39 223.011,560.224 226.683,561.836C229.742,563.17 232.858,564.282 236.029,565.171C249.66,568.951 264.292,568.395 277.589,563.726C278.59,563.393 278.145,561.781 277.143,562.114C262.233,567.283 245.765,567.283 230.911,561.725C224.457,559.335 218.449,555.5 211.272,556.056C205.207,556.5 199.588,559.391 195.638,564.004C194.971,564.893 196.195,566.061 196.862,565.227Z" style="fill:rgb(22,22,22);fill-rule:nonzero;"/>
    <path d="M291.553,560.669C301.678,557.723 312.082,556.278 322.653,556.334C323.71,556.334 323.71,554.666 322.653,554.666C311.971,554.61 301.4,556.111 291.108,559.057C290.106,559.391 290.496,561.003 291.553,560.669Z" style="fill:rgb(22,22,22);fill-rule:nonzero;"/>
    <path d="M304.794,128.62C314.641,136.179 324.044,144.294 333.057,152.91C333.835,153.632 335.004,152.465 334.225,151.742C325.156,143.071 315.587,134.901 305.629,127.23C304.794,126.507 303.96,127.953 304.794,128.62Z" style="fill:rgb(22,22,22);fill-rule:nonzero;"/>
    <path d="M208.323,157.912C209.269,152.688 210.27,147.463 211.216,142.182C211.439,141.126 209.825,140.682 209.603,141.738C208.657,146.962 207.655,152.187 206.71,157.468C206.543,158.524 208.156,158.968 208.323,157.912Z" style="fill:rgb(22,22,22);fill-rule:nonzero;"/>
    <path d="M529.114,191.039C530.896,191.039 532.341,189.596 532.341,187.816C532.341,186.035 530.896,184.592 529.114,184.592C527.332,184.592 525.887,186.035 525.887,187.816C525.887,189.596 527.332,191.039 529.114,191.039Z" style="fill:rgb(180,67,224);fill-rule:nonzero;"/>
    <path d="M107.513,457.284C109.633,457.284 111.351,455.567 111.351,453.449C111.351,451.33 109.633,449.613 107.513,449.613C105.393,449.613 103.674,451.33 103.674,453.449C103.674,455.567 105.393,457.284 107.513,457.284Z" style="fill:rgb(180,67,224);fill-rule:nonzero;"/>
    <path d="M88.931,109.832C93.785,109.832 97.721,105.9 97.721,101.05C97.721,96.2 93.785,92.268 88.931,92.268C84.076,92.268 80.14,96.2 80.14,101.05C80.14,105.9 84.076,109.832 88.931,109.832Z" style="fill:rgb(180,67,224);fill-rule:nonzero;"/>
    <path d="M106.567,118.337C108.195,118.337 109.515,117.018 109.515,115.391C109.515,113.764 108.195,112.445 106.567,112.445C104.938,112.445 103.618,113.764 103.618,115.391C103.618,117.018 104.938,118.337 106.567,118.337Z" style="fill:rgb(180,67,224);fill-rule:nonzero;"/>
    <path d="M275.029,612.75C278.655,612.75 281.594,609.814 281.594,606.192C281.594,602.569 278.655,599.633 275.029,599.633C271.404,599.633 268.465,602.569 268.465,606.192C268.465,609.814 271.404,612.75 275.029,612.75Z" style="fill:rgb(180,67,224);fill-rule:nonzero;"/>
    <path d="M580.132,121.283C583.327,121.283 585.918,118.694 585.918,115.502C585.918,112.309 583.327,109.721 580.132,109.721C576.936,109.721 574.346,112.309 574.346,115.502C574.346,118.694 576.936,121.283 580.132,121.283Z" style="fill:rgb(180,67,224);fill-rule:nonzero;"/>
    <path d="M587.531,108.554C589.497,108.554 591.092,106.961 591.092,104.997C591.092,103.032 589.497,101.439 587.531,101.439C585.564,101.439 583.97,103.032 583.97,104.997C583.97,106.961 585.564,108.554 587.531,108.554Z" style="fill:rgb(180,67,224);fill-rule:nonzero;"/>
    <path d="M97.777,100.605C102.631,100.605 106.567,96.673 106.567,91.823C106.567,86.973 102.631,83.041 97.777,83.041C92.922,83.041 88.986,86.973 88.986,91.823C88.986,96.673 92.922,100.605 97.777,100.605Z" style="fill:rgb(39,52,67);fill-rule:nonzero;"/>
    <path d="M93.381,462.453C95.809,462.453 97.777,460.487 97.777,458.062C97.777,455.637 95.809,453.671 93.381,453.671C90.954,453.671 88.986,455.637 88.986,458.062C88.986,460.487 90.954,462.453 93.381,462.453Z" style="fill:rgb(39,52,67);fill-rule:nonzero;"/>
    <path d="M247.88,600.022C250.03,600.022 251.774,598.28 251.774,596.131C251.774,593.982 250.03,592.24 247.88,592.24C245.729,592.24 243.985,593.982 243.985,596.131C243.985,598.28 245.729,600.022 247.88,600.022Z" style="fill:rgb(39,52,67);fill-rule:nonzero;"/>
    <path d="M558.768,101.44C563.868,101.44 568.003,97.309 568.003,92.213C568.003,87.117 563.868,82.986 558.768,82.986C553.667,82.986 549.532,87.117 549.532,92.213C549.532,97.309 553.667,101.44 558.768,101.44Z" style="fill:rgb(39,52,67);fill-rule:nonzero;"/>
    <path d="M406.717,241.176C407.823,241.176 408.72,240.28 408.72,239.175C408.72,238.07 407.823,237.174 406.717,237.174C405.611,237.174 404.714,238.07 404.714,239.175C404.714,240.28 405.611,241.176 406.717,241.176Z" style="fill:rgb(39,52,67);fill-rule:nonzero;"/>
    <path d="M386.188,122.061C385.02,124.784 383.907,127.563 382.739,130.287C382.349,131.287 383.963,131.732 384.352,130.732C385.521,128.008 386.633,125.229 387.802,122.505C388.191,121.505 386.578,121.06 386.188,122.061Z" style="fill:rgb(39,52,67);fill-rule:nonzero;"/>
    <path d="M385.91,123.395C387.968,125.562 389.582,128.008 390.639,130.787C391.028,131.788 392.642,131.343 392.252,130.342C391.028,127.285 389.304,124.617 387.078,122.227C386.355,121.449 385.131,122.616 385.91,123.395Z" style="fill:rgb(39,52,67);fill-rule:nonzero;"/>
    <path d="M383.184,131.732C384.797,134.734 386.633,137.569 388.692,140.237C389.359,141.07 390.806,140.237 390.138,139.403C388.08,136.679 386.244,133.844 384.63,130.899C384.074,129.954 382.683,130.787 383.184,131.732Z" style="fill:rgb(39,52,67);fill-rule:nonzero;"/>
    <path d="M390.75,130.898C390.083,134.011 389.471,137.124 388.803,140.236C388.58,141.293 390.194,141.737 390.416,140.681C391.084,137.568 391.696,134.456 392.364,131.343C392.586,130.343 390.973,129.898 390.75,130.898Z" style="fill:rgb(39,52,67);fill-rule:nonzero;"/>
    <path d="M542.912,360.013C541.576,362.459 540.686,365.071 540.297,367.85C540.13,368.906 541.743,369.351 541.91,368.295C542.3,365.682 543.079,363.237 544.358,360.902C544.859,359.902 543.412,359.068 542.912,360.013Z" style="fill:rgb(39,52,67);fill-rule:nonzero;"/>
    <path d="M542.8,360.513C543.913,363.459 545.193,366.294 546.639,369.018C547.14,369.962 548.586,369.129 548.086,368.184C546.695,365.571 545.471,362.848 544.414,360.069C544.024,359.068 542.411,359.513 542.8,360.513Z" style="fill:rgb(39,52,67);fill-rule:nonzero;"/>
    <path d="M539.963,369.017C541.41,371.074 542.8,373.131 544.247,375.187C544.859,376.076 546.305,375.243 545.693,374.353C544.247,372.297 542.856,370.24 541.41,368.184C540.798,367.294 539.351,368.128 539.963,369.017Z" style="fill:rgb(39,52,67);fill-rule:nonzero;"/>
    <path d="M546.027,368.74C544.859,370.352 544.303,372.186 544.303,374.131C544.303,375.187 545.972,375.187 545.972,374.131C545.972,372.464 546.472,370.907 547.474,369.573C548.086,368.684 546.639,367.85 546.027,368.74Z" style="fill:rgb(39,52,67);fill-rule:nonzero;"/>
    <path d="M77.525,517.37C76.023,520.649 74.521,523.873 73.019,527.152C72.574,528.097 74.02,528.986 74.466,527.986C75.968,524.707 77.47,521.483 78.972,518.203C79.417,517.258 78.026,516.425 77.525,517.37Z" style="fill:rgb(39,52,67);fill-rule:nonzero;"/>
    <path d="M77.804,517.814C79.25,521.26 80.697,524.706 82.143,528.153C82.533,529.153 84.146,528.708 83.757,527.708C82.31,524.262 80.864,520.816 79.417,517.369C79.028,516.369 77.414,516.814 77.804,517.814Z" style="fill:rgb(39,52,67);fill-rule:nonzero;"/>
    <path d="M72.63,528.653C74.132,531.599 75.578,534.6 77.08,537.546C77.359,538.046 78.026,538.046 78.416,537.713C79.584,536.768 80.14,535.156 80.752,533.878C81.642,532.099 82.533,530.32 83.423,528.542C83.923,527.597 82.477,526.763 81.976,527.708C81.197,529.264 80.363,530.821 79.584,532.377C78.916,533.711 78.304,535.545 77.136,536.49C77.581,536.546 78.026,536.601 78.471,536.657C76.969,533.711 75.523,530.709 74.02,527.763C73.575,526.874 72.129,527.708 72.63,528.653Z" style="fill:rgb(39,52,67);fill-rule:nonzero;"/>
    <path d="M56.551,235.618C55.327,238.286 54.159,240.954 52.935,243.622C52.49,244.566 53.936,245.456 54.381,244.455C55.605,241.787 56.774,239.119 57.998,236.451C58.443,235.506 56.996,234.617 56.551,235.618Z" style="fill:rgb(39,52,67);fill-rule:nonzero;"/>
    <path d="M53.157,245.011C54.437,248.29 55.661,251.514 56.941,254.794C57.33,255.794 58.943,255.35 58.554,254.349C57.274,251.07 56.05,247.846 54.771,244.566C54.381,243.566 52.768,244.011 53.157,245.011Z" style="fill:rgb(39,52,67);fill-rule:nonzero;"/>
    <path d="M56.551,235.729C58.276,238.73 60,241.787 61.725,244.789C62.281,245.734 63.672,244.9 63.172,243.955C61.447,240.953 59.722,237.896 57.998,234.895C57.441,233.95 55.995,234.784 56.551,235.729Z" style="fill:rgb(39,52,67);fill-rule:nonzero;"/>
    <path d="M62.115,244.066C60.334,247.401 58.777,250.847 57.441,254.349C57.052,255.349 58.665,255.794 59.055,254.794C60.334,251.403 61.836,248.068 63.561,244.9C64.062,243.955 62.615,243.121 62.115,244.066Z" style="fill:rgb(39,52,67);fill-rule:nonzero;"/>
    <path d="M475.927,286.865C477.04,284.753 479.154,283.308 481.602,283.419C483.605,283.475 485.107,284.864 486.887,285.531C490.003,286.643 490.949,284.642 493.285,283.141C496.456,281.029 499.516,285.754 502.91,285.698C504.857,285.643 506.471,284.698 506.526,282.641C506.081,282.863 505.692,283.141 505.247,283.364C506.971,284.253 508.696,285.142 510.365,286.087C511.311,286.587 512.146,285.142 511.2,284.642C509.475,283.753 507.75,282.863 506.081,281.918C505.525,281.641 504.857,281.974 504.802,282.641C504.635,286.587 496.957,280.974 495.511,280.807C492.228,280.362 490.949,284.42 488.111,283.975C485.107,283.475 483.215,281.307 479.989,281.863C477.541,282.308 475.538,283.808 474.425,286.032C474.036,286.977 475.426,287.81 475.927,286.865Z" style="fill:rgb(39,52,67);fill-rule:nonzero;"/>
    <path d="M497.235,275.582C499.739,272.803 503.689,276.304 506.526,276.638C509.809,277.027 512.368,273.525 515.539,275.304C518.154,276.805 522.939,280.362 524.83,275.804C525.22,274.804 523.606,274.359 523.217,275.36C521.882,278.583 517.097,274.081 515.484,273.414C513.314,272.469 511.867,273.247 509.92,274.192C507.584,275.304 505.915,274.915 503.689,273.914C502.688,273.47 501.686,273.081 500.574,272.914C498.849,272.692 497.291,273.025 496.067,274.359C495.344,275.193 496.512,276.36 497.235,275.582Z" style="fill:rgb(39,52,67);fill-rule:nonzero;"/>
    <path d="M452.06,144.461C452.839,143.016 453.729,142.627 454.73,143.294C455.175,143.46 455.62,143.683 456.066,143.961C456.566,144.183 457.067,144.517 457.568,144.683C458.458,144.961 459.348,145.072 460.238,144.85C462.63,144.183 463.854,141.182 466.414,141.237C468.806,141.293 470.531,143.572 473.034,142.404C474.091,141.904 474.815,141.015 475.816,140.459C478.041,139.236 480.767,139.681 482.659,141.237C483.494,141.904 484.662,140.737 483.827,140.07C481.324,138.013 477.874,137.402 474.981,139.014C473.702,139.736 472.645,141.293 470.976,141.07C470.03,140.959 469.195,140.292 468.305,139.959C466.97,139.458 465.746,139.292 464.411,139.903C462.742,140.681 461.629,142.849 459.793,143.238C457.456,143.738 455.899,141.348 453.729,141.293C451.67,141.237 449.278,143.238 450.669,145.295C451.225,146.184 452.672,145.35 452.06,144.461Z" style="fill:rgb(180,67,224);fill-rule:nonzero;"/>
    <path d="M470.531,134.622C471.198,131.01 477.485,134.511 479.71,134.122C481.157,133.9 482.214,132.899 483.549,132.399C485.663,131.565 487.722,131.899 489.669,133.066C490.615,133.622 491.449,132.177 490.504,131.621C488.835,130.62 487.054,130.12 485.163,130.287C484.328,130.343 483.549,130.565 482.826,130.843C480.601,131.788 479.71,132.844 476.929,132.177C474.258,131.51 469.696,130.176 468.973,134.178C468.695,135.234 470.308,135.679 470.531,134.622Z" style="fill:rgb(180,67,224);fill-rule:nonzero;"/>
    <path d="M49.319,335.501C50.042,331.999 54.882,336.779 55.828,337.391C56.885,338.113 58.053,338.613 59.333,338.336C61.002,338.058 62.281,336.668 64.006,336.279C66.788,335.668 69.57,336.557 71.573,338.558C72.351,339.336 73.52,338.113 72.741,337.391C71.016,335.668 68.902,334.611 66.454,334.445C65.23,334.334 64.006,334.5 62.838,334.889C61.002,335.501 59.555,337.279 57.33,336.39C54.993,335.445 54.103,333.055 51.433,332.777C49.708,332.61 48.094,333.277 47.761,335.056C47.483,336.112 49.096,336.557 49.319,335.501Z" style="fill:rgb(180,67,224);fill-rule:nonzero;"/>
    <path d="M67.845,331.499C69.069,329.831 74.688,333.166 76.301,333.555C78.916,334.167 81.587,334.167 84.257,333.833C85.314,333.667 84.869,332.055 83.812,332.221C79.195,332.833 75.634,331.61 71.461,329.942C69.57,329.22 67.678,328.942 66.398,330.665C65.786,331.499 67.233,332.333 67.845,331.499Z" style="fill:rgb(180,67,224);fill-rule:nonzero;"/>
    <path d="M203.483,448.002C204.373,446.612 205.764,445.723 207.489,445.723C208.935,445.723 209.825,446.612 211.105,447.001C212.385,447.446 213.442,447.168 214.554,446.445C216.724,445 217.781,443.221 220.73,443.333C223.4,443.388 225.959,444.667 228.296,445.834C229.242,446.334 230.076,444.889 229.131,444.389C224.736,442.165 219.395,440.053 215.166,443.666C214.22,444.444 214.109,444.667 212.663,444.944C211.049,445.278 211.216,445.056 209.992,444.555C208.935,444.111 207.934,443.944 206.765,444.055C204.707,444.277 203.094,445.445 202.036,447.112C201.48,448.057 202.927,448.891 203.483,448.002Z" style="fill:rgb(180,67,224);fill-rule:nonzero;"/>
    <path d="M222.009,451.225C224.624,448.946 229.576,453.727 232.803,453.282C234.75,453.004 235.64,451.559 236.92,450.225C239.368,447.612 243.039,447.223 246.044,449.169C246.934,449.725 247.768,448.335 246.878,447.724C244.708,446.334 242.149,445.889 239.646,446.612C238.533,446.945 237.532,447.446 236.641,448.168C235.306,449.28 234.472,451.281 232.58,451.614C228.519,452.337 224.68,446.668 220.841,450.058C220.062,450.781 221.231,451.948 222.009,451.225Z" style="fill:rgb(180,67,224);fill-rule:nonzero;"/>
    <path d="M146.123,94.714C146.568,92.879 147.625,91.434 149.406,90.656C150.964,89.989 152.243,90.434 153.857,90.378C155.637,90.267 156.972,89.378 158.029,88.044C159.643,86.043 160.7,83.986 162.981,82.652C165.596,81.151 168.6,80.874 171.493,81.763C172.55,82.096 172.939,80.484 171.938,80.151C166.597,78.539 161.312,80.596 158.085,85.098C156.805,86.876 155.859,88.655 153.411,88.711C151.909,88.766 150.63,88.433 149.183,88.933C146.735,89.767 145.066,91.823 144.51,94.269C144.232,95.325 145.845,95.77 146.123,94.714Z" style="fill:rgb(180,67,224);fill-rule:nonzero;"/>
    <path d="M153.968,101.106C151.576,94.769 163.036,95.103 166.486,93.88C170.77,92.379 174.442,89.711 178.058,87.043C178.892,86.432 178.058,84.987 177.223,85.598C174.775,87.432 172.272,89.211 169.601,90.656C166.263,92.435 163.092,92.991 159.476,93.546C155.637,94.158 150.63,96.826 152.41,101.495C152.744,102.495 154.357,102.106 153.968,101.106Z" style="fill:rgb(180,67,224);fill-rule:nonzero;"/>
    <path d="M375.84,419.765C380.068,408.704 387.245,401.478 394.644,393.974C404.381,384.136 422.462,365.849 440.877,368.74C456.566,371.185 454.842,386.248 476.372,397.198C496.679,407.592 504.468,397.309 524.719,408.482C527.723,410.149 548.92,422.211 553.76,445C555.763,454.449 555.263,467.4 551.09,468.623C546.361,470.012 544.748,442.777 525.832,432.105C511.367,423.934 491.449,427.88 489.836,433.717C488.111,439.886 508.084,443.944 519.378,465.399C524.33,474.737 525.387,483.241 526.889,494.914C528.28,505.919 529.837,528.486 524.719,529.82C520.491,530.932 518.21,515.869 502.688,503.529C494.509,497.026 485.775,494.358 468.305,489.022C452.56,484.242 444.605,481.907 440.321,485.798C433.978,491.579 438.874,506.253 439.764,508.865C445.996,527.541 461.907,535.323 460.739,537.324C459.181,539.825 430.14,532.599 406.439,509.421C386.188,489.578 363.545,451.837 375.84,419.765Z" style="fill:rgb(180,67,224);fill-rule:nonzero;"/>
    <path d="M557.488,484.186C557.265,485.743 556.097,494.414 561.216,499.972C566.89,506.086 573.789,501.417 580.743,507.476C587.141,513.034 586.307,521.372 588.254,521.205C590.48,521.038 593.873,509.755 589.089,502.918C587.586,500.75 583.915,498.805 576.626,495.025C569.171,491.134 568.17,491.301 566.223,489.189C561.382,483.964 562.106,477.127 560.381,477.127C559.046,477.127 557.877,481.24 557.488,484.186Z" style="fill:rgb(180,67,224);fill-rule:nonzero;"/>
    <path d="M509.642,549.441C506.526,554.11 506.86,559.112 507.138,564.393C507.472,569.784 507.695,574.176 510.866,578.122C514.482,582.624 520.491,584.514 521.27,583.514C521.882,582.735 519.156,580.623 516.708,576.01C516.429,575.454 512.813,568.617 512.98,560.613C513.147,550.608 519.044,544.661 517.542,543.605C516.429,542.771 512.145,545.661 509.642,549.441Z" style="fill:rgb(180,67,224);fill-rule:nonzero;"/>
    <path d="M531.951,457.284C541.298,463.454 536.18,477.738 542.3,486.076C542.912,486.91 544.358,486.076 543.746,485.242C537.404,476.571 542.8,462.453 532.786,455.839C531.896,455.227 531.061,456.672 531.951,457.284Z" style="fill:rgb(180,67,224);fill-rule:nonzero;"/>
    <path d="M528.613,417.041C538.628,424.712 545.582,435.662 548.364,447.946C548.586,449.002 550.2,448.557 549.977,447.501C547.084,434.773 539.852,423.545 529.504,415.652C528.558,414.929 527.723,416.374 528.613,417.041Z" style="fill:rgb(39,52,67);fill-rule:nonzero;"/>
    <path d="M496.345,447.835C504.357,454.394 510.643,462.787 514.538,472.403C514.927,473.403 516.541,472.958 516.151,471.958C512.09,462.064 505.803,453.449 497.513,446.667C496.735,446 495.511,447.168 496.345,447.835Z" style="fill:rgb(39,52,67);fill-rule:nonzero;"/>
    <path d="M518.432,481.574C519.934,485.576 520.936,489.633 521.325,493.858C521.437,494.914 523.106,494.914 522.994,493.858C522.549,489.467 521.548,485.242 519.99,481.129C519.712,480.129 518.098,480.573 518.432,481.574Z" style="fill:rgb(39,52,67);fill-rule:nonzero;"/>
    <path d="M432.81,490.801C431.419,499.194 433.033,507.587 437.595,514.813C438.151,515.702 439.598,514.868 439.041,513.979C434.757,507.198 433.088,499.194 434.423,491.245C434.59,490.189 432.977,489.745 432.81,490.801Z" style="fill:rgb(39,52,67);fill-rule:nonzero;"/>
    <path d="M439.82,519.371C441.823,523.039 444.382,526.318 447.442,529.153C448.221,529.876 449.389,528.709 448.61,527.986C445.662,525.207 443.214,522.039 441.267,518.537C440.766,517.592 439.319,518.426 439.82,519.371Z" style="fill:rgb(39,52,67);fill-rule:nonzero;"/>
    <path d="M375.951,434.661C375.506,439.942 376.007,445.167 377.509,450.28C377.787,451.336 379.4,450.892 379.122,449.836C377.676,444.833 377.175,439.831 377.62,434.661C377.731,433.605 376.062,433.605 375.951,434.661Z" style="fill:rgb(39,52,67);fill-rule:nonzero;"/>
    <path d="M379.178,455.95C380.068,460.285 381.682,464.287 384.018,468.067C384.575,468.956 386.021,468.123 385.465,467.233C383.239,463.565 381.682,459.729 380.791,455.505C380.569,454.505 378.955,454.949 379.178,455.95Z" style="fill:rgb(39,52,67);fill-rule:nonzero;"/>
    <path d="M233.915,108.499C232.357,112.723 230.466,118.504 228.63,125.507C226.738,132.788 222.287,151.965 222.733,177.2C223.178,201.545 227.962,219.443 232.357,235.395C239.2,260.297 247.546,278.194 252.497,288.589C252.497,288.589 268.242,321.883 294.335,357.567C298.952,363.848 304.85,371.797 304.85,371.797C309.134,377.522 312.805,382.302 315.365,385.748C317.423,388.083 320.038,390.695 323.432,393.196C329.774,397.921 336.061,400.311 340.456,401.534C347.689,395.364 354.921,389.139 362.154,382.969C365.436,386.082 368.774,389.139 372.057,392.251C376.619,387.582 380.68,383.858 383.851,381.135C397.649,369.184 409.054,363.07 411.724,361.625C414.005,360.402 415.953,359.457 417.288,358.846C415.229,354.733 413.171,350.62 411.112,346.451C414.451,343.56 418.289,340.503 422.573,337.502C428.359,333.444 433.923,330.165 438.986,327.608C438.93,322.939 438.318,315.88 435.258,308.098C432.977,302.262 430.251,298.316 429.082,296.648C416.231,278.139 454.118,329.164 404.603,258.574C385.409,231.227 375.84,217.497 371.445,211.828C357.703,193.875 346.91,181.591 339.232,172.864C324.544,156.133 317.924,149.908 312.583,145.35C305.295,139.014 297.228,132.177 285.044,125.841C277.366,121.894 271.024,119.726 261.788,116.558C250.383,112.667 240.758,110.11 233.915,108.499Z" style="fill:white;fill-rule:nonzero;"/>
    <path d="M232.19,109.499C220.118,146.684 220.118,186.815 228.797,224.723C230.966,234.228 233.693,243.622 236.919,252.793C238.533,257.462 240.48,262.02 242.205,266.633C242.817,268.245 242.928,269.857 243.651,271.469C244.708,273.97 245.821,276.471 246.934,278.973C248.992,283.642 251.162,288.255 253.443,292.868C255.724,297.426 258.506,301.762 260.564,306.375C261.343,308.098 262.011,309.932 262.901,311.6C264.069,313.712 265.794,315.324 267.018,317.381C269.577,321.661 272.025,326.052 274.696,330.276C286.88,349.897 300.733,368.406 314.92,386.582C315.587,387.416 316.756,386.248 316.088,385.415C303.57,369.351 291.33,353.065 280.315,336.001C277.589,331.777 274.974,327.552 272.415,323.217C271.191,321.16 269.967,319.048 268.798,316.936C267.63,314.879 266.072,313.434 264.848,311.433C263.847,309.766 263.123,307.987 262.4,306.208C261.399,303.818 260.064,301.651 258.84,299.372C256.503,295.092 254.333,290.756 252.275,286.365C250.105,281.752 248.046,277.083 245.988,272.414C245.098,270.357 244.764,268.189 243.929,266.077C243.039,263.798 242.093,261.519 241.203,259.185C237.81,250.236 234.861,241.12 232.413,231.838C227.517,213.051 224.68,193.763 224.402,174.309C224.123,152.465 227.128,130.621 233.915,109.777C234.082,108.943 232.469,108.498 232.19,109.499Z" style="fill:rgb(9,11,12);fill-rule:nonzero;"/>
    <path d="M232.969,109.499C242.26,110.222 251.718,113.445 260.453,116.502C269.076,119.56 277.589,122.895 285.489,127.452C301.233,136.568 315.142,148.518 327.827,161.525C340.901,174.921 352.807,189.65 364.323,204.38C375.784,219.054 386.744,234.228 397.315,249.569C408.998,266.633 420.237,284.031 431.252,301.595C431.809,302.484 433.255,301.651 432.699,300.761C412.503,268.69 391.64,237.007 368.44,206.992C346.02,177.922 321.985,148.241 290.496,128.508C281.928,123.117 272.748,119.226 263.29,115.724C253.721,112.223 243.262,108.61 233.025,107.776C231.912,107.776 231.912,109.443 232.969,109.499Z" style="fill:rgb(9,11,12);fill-rule:nonzero;"/>
    <path d="M317.312,386.082C343.238,359.68 372.39,336.501 403.936,317.158C412.837,311.711 421.85,306.598 431.085,301.817C432.031,301.317 431.197,299.872 430.251,300.372C397.482,317.492 366.771,338.558 339.121,363.07C331.221,370.074 323.543,377.355 316.144,384.915C315.365,385.693 316.533,386.86 317.312,386.082Z" style="fill:rgb(9,11,12);fill-rule:nonzero;"/>
    <path d="M315.698,387.36C322.319,394.753 330.942,399.977 340.567,402.312C341.624,402.59 342.069,400.978 341.012,400.7C331.61,398.365 323.32,393.363 316.867,386.137C316.144,385.359 314.975,386.582 315.698,387.36Z" style="fill:rgb(9,11,12);fill-rule:nonzero;"/>
    <path d="M430.807,302.262C435.147,309.877 437.65,318.27 438.207,326.996C438.262,328.053 439.931,328.053 439.876,326.996C439.319,317.936 436.704,309.321 432.254,301.428C431.753,300.483 430.306,301.317 430.807,302.262Z" style="fill:rgb(9,11,12);fill-rule:nonzero;"/>
    <path d="M341.569,401.867C371.667,374.409 404.269,349.841 439.041,328.553C439.931,327.997 439.097,326.552 438.207,327.108C403.379,348.452 370.61,373.131 340.4,400.7C339.622,401.423 340.79,402.59 341.569,401.867Z" style="fill:rgb(9,11,12);fill-rule:nonzero;"/>
    <path d="M362.543,383.969C365.603,386.971 368.663,389.972 371.723,393.029C372.057,393.363 372.613,393.363 372.891,393.029C381.904,383.469 392.03,375.02 403.101,367.961C405.771,366.238 408.498,364.626 411.279,363.07C413.06,362.07 416.453,361.125 417.51,359.235C418.623,357.345 416.954,354.788 416.064,353.176C414.506,350.342 412.67,347.729 410.667,345.283C410,344.45 408.831,345.617 409.499,346.451C411.446,348.841 413.171,351.342 414.617,354.01C414.951,354.566 415.674,355.511 415.73,356.178C415.508,357.178 415.285,358.123 415.062,359.124C414.784,359.29 414.506,359.402 414.228,359.568C413.115,360.402 411.669,360.902 410.445,361.625C405.605,364.348 400.876,367.294 396.314,370.463C387.412,376.744 379.178,383.914 371.723,391.807L372.891,391.807C369.831,388.805 366.771,385.804 363.711,382.747C362.933,382.024 361.764,383.191 362.543,383.969Z" style="fill:rgb(9,11,12);fill-rule:nonzero;"/>
    <path d="M236.141,246.956C249.827,230.837 265.85,216.886 282.262,203.601C298.73,190.317 315.977,177.866 335.282,169.029C336.283,168.584 335.393,167.139 334.447,167.583C315.309,176.31 298.229,188.65 281.872,201.767C265.182,215.218 248.881,229.392 234.972,245.734C234.249,246.623 235.417,247.79 236.141,246.956Z" style="fill:rgb(9,11,12);fill-rule:nonzero;"/>
    <path d="M335.616,176.81C333.78,176.921 333.001,173.864 335.059,173.698C335.783,173.642 336.617,173.975 336.895,174.698C337.285,175.754 336.283,176.866 335.226,176.866C334.447,176.866 334.392,178.144 335.226,178.144C336.951,178.144 338.453,176.532 338.175,174.809C337.952,173.364 336.45,172.475 335.059,172.53C333.557,172.641 332.389,173.864 332.556,175.365C332.723,176.866 334.058,178.255 335.616,178.144C336.45,178.033 336.45,176.755 335.616,176.81Z" style="fill:rgb(9,11,12);fill-rule:nonzero;"/>
    <path d="M420.57,299.761C420.626,299.761 420.626,299.761 420.682,299.705C420.515,299.705 420.348,299.65 420.181,299.65C420.793,299.927 420.459,298.76 420.403,298.593C420.403,298.427 420.459,298.204 420.515,298.038C420.682,297.704 420.96,297.371 421.294,297.204C422.017,296.87 422.796,297.426 423.018,298.149C423.463,299.594 421.349,300.317 420.793,299.038C420.459,298.316 419.402,298.927 419.736,299.65C420.403,301.206 422.684,301.317 423.797,300.15C425.077,298.76 424.131,296.426 422.406,295.925C420.57,295.425 418.79,297.371 419.235,299.149C419.402,299.872 420.348,300.761 421.071,300.039C421.627,299.483 421.071,298.26 420.237,298.593C419.513,298.871 419.847,300.039 420.57,299.761Z" style="fill:rgb(9,11,12);fill-rule:nonzero;"/>
    <path d="M233.915,108.832C242.705,114.502 254.611,122.839 267.63,134.011C275.697,140.959 296.616,159.58 322.764,195.709C351.138,234.895 365.325,254.46 368.162,276.305C369.609,287.699 371.612,320.16 342.96,360.069C354.81,351.064 366.716,342.004 378.566,333C383.74,341.504 388.858,350.008 394.032,358.512C388.469,362.626 382.905,366.683 377.342,370.796C380.068,374.076 382.794,377.3 385.52,380.579C388.858,377.355 392.864,373.909 397.482,370.518C404.603,365.294 411.446,361.569 417.344,358.846C415.118,354.566 412.948,350.23 410.723,345.951C420.292,339.67 429.861,333.333 439.431,327.052C438.93,322.328 437.762,315.491 434.702,307.82C431.141,298.816 426.635,292.813 424.91,290.478C412.448,273.637 418.512,277.694 392.419,241.065C373.67,214.718 363.322,199.989 346.743,180.924C336.116,168.695 329.051,160.636 317.757,150.686C305.74,140.07 291.163,127.452 268.909,118.226C254.723,112.445 242.26,109.999 233.915,108.832Z" style="fill:rgb(73,73,73);fill-opacity:0.15;fill-rule:nonzero;"/>
    <path d="M412.559,270.302C412.058,273.859 411.057,279.306 408.553,285.476C402.767,299.761 393.866,305.986 375.284,324.773C366.493,333.667 353.419,346.84 354.643,348.285C355.811,349.675 370.109,338.669 395.09,322.216C409.722,312.545 422.017,305.041 430.084,300.15C424.242,290.2 418.401,280.251 412.559,270.302Z" style="fill:rgb(73,73,73);fill-opacity:0.11;fill-rule:nonzero;"/>
    <path d="M431.252,301.817C430.473,301.984 432.365,308.043 430.084,315.602C428.415,321.16 425.578,323.828 418.623,332.221C415.619,335.834 411.224,341.282 405.994,348.285C416.898,340.837 427.803,333.389 438.707,325.941C433.756,306.264 431.92,301.706 431.252,301.817Z" style="fill:rgb(73,73,73);fill-opacity:0.08;fill-rule:nonzero;"/>
    <path d="M337.285,483.742C337.452,485.354 338.064,486.632 339.01,488.188C343.015,494.636 349.636,498.582 354.421,500.861C352.529,506.809 350.248,515.369 348.579,525.818C347.021,535.879 345.185,547.607 347.577,548.385C348.412,548.663 350.86,547.885 373.615,502.862C376.786,496.581 379.401,491.357 381.125,487.799C368.997,482.352 356.924,476.849 344.796,471.402C343.627,472.291 336.673,477.35 337.285,483.742Z" style="fill:rgb(22,22,22);fill-rule:nonzero;stroke:rgb(22,22,22);stroke-width:2px;"/>
    <path d="M311.915,360.791C301.679,367.906 295.058,374.798 289.161,381.024C286.768,383.525 275.308,395.698 263.235,414.818C257.894,423.267 253.944,430.715 251.218,436.329C251.552,438.608 252.33,441.887 254.389,445.167C256.67,448.835 259.229,450.447 263.235,454.005C268.131,458.34 269.911,460.897 272.748,463.787C278.256,469.457 285.99,473.737 301.234,482.13C320.372,492.635 330.664,496.47 333.836,497.637C337.73,499.027 341.013,500.083 343.349,500.806C344.462,495.636 345.797,490.134 347.466,484.353C348.968,479.184 350.582,474.348 352.195,469.846C340.345,461.175 328.161,451.448 315.81,440.442C311.526,436.663 307.409,432.827 303.459,429.048C307.465,424.212 313.084,417.875 320.205,411.039C322.264,409.038 326.603,404.924 331.888,400.589C338.565,395.197 348.635,387.972 362.543,381.302C364.936,365.349 362.098,350.453 353.363,345.617C342.459,339.614 325.88,351.12 311.915,360.791Z" style="fill:white;fill-rule:nonzero;"/>
    <path d="M300.677,369.073C280.982,385.748 264.681,406.37 253.109,429.437C251.941,431.827 250.272,434.495 250.049,437.163C249.827,439.997 251.552,442.165 253.109,444.333C256.837,449.391 261.065,454.116 265.572,458.507C275.141,467.678 286.156,475.237 297.729,481.629C311.971,489.522 327.048,495.803 342.07,502.028C343.071,502.418 343.516,500.806 342.515,500.417C317.924,490.189 292.833,479.74 272.303,462.342C267.686,458.396 263.291,454.171 259.34,449.558C257.282,447.112 255.223,444.611 253.443,441.998C252.33,440.387 251.496,438.886 251.774,436.829C252.052,434.828 253.221,432.938 254.111,431.104C259.452,420.265 265.85,409.982 273.194,400.367C281.594,389.305 291.219,379.245 301.846,370.296C302.68,369.573 301.512,368.406 300.677,369.073Z" style="fill:rgb(9,11,12);fill-rule:nonzero;"/>
    <path d="M347.856,388.249C328.773,400.589 312.082,416.208 298.563,434.439C297.951,435.329 299.398,436.162 300.01,435.273C313.362,417.264 329.886,401.812 348.69,389.639C349.58,389.139 348.746,387.694 347.856,388.249Z" style="fill:rgb(9,11,12);fill-rule:nonzero;"/>
    <path d="M302.513,429.881C318.147,444 334.225,457.562 350.804,470.513C351.639,471.18 352.807,470.013 351.973,469.346C335.393,456.395 319.259,442.832 303.682,428.714C302.903,427.992 301.734,429.159 302.513,429.881Z" style="fill:rgb(9,11,12);fill-rule:nonzero;"/>
    <path d="M350.86,470.291C347.355,480.184 344.629,490.301 342.626,500.583C342.403,501.64 344.017,502.084 344.239,501.028C346.242,490.745 349.024,480.629 352.473,470.735C352.807,469.735 351.194,469.29 350.86,470.291Z" style="fill:rgb(9,11,12);fill-rule:nonzero;"/>
    <path d="M333.446,382.024C325.769,382.691 319.983,388.305 302.124,413.095C295.281,422.6 289.55,430.882 285.155,437.441C291.497,441.887 296.505,445.556 299.676,447.946C317.423,461.23 324.878,468.678 339.955,476.794C343.238,478.572 345.964,479.851 347.577,480.573C348.857,477.072 350.137,473.57 351.361,470.068C347.132,466.4 342.904,462.787 338.62,459.118C326.826,449.113 315.142,439.442 303.515,430.048C308.355,423.267 312.917,418.153 316.255,414.652C326.102,404.369 335.894,397.421 343.516,392.085C346.131,390.25 348.356,388.805 349.803,387.86C342.626,382.358 337.007,381.691 333.446,382.024Z" style="fill:rgb(73,73,73);fill-opacity:0.11;fill-rule:nonzero;"/>
    <path d="M335.672,396.531C330.887,397.643 324.489,399.811 317.98,404.146C302.068,414.763 296.727,430.993 295.169,436.551C303.737,443.221 312.583,449.947 321.763,456.673C330.664,463.231 339.51,469.457 348.134,475.46C349.413,473.626 350.693,471.736 351.917,469.901C340.067,461.286 327.771,451.337 315.476,439.942C311.582,436.385 307.854,432.772 304.293,429.214C306.241,426.658 308.355,424.045 310.58,421.377C318.925,411.483 327.493,403.313 335.672,396.531Z" style="fill:rgb(73,73,73);fill-opacity:0.08;fill-rule:nonzero;"/>
    <path d="M440.989,465.566C446.886,471.124 452.839,476.738 458.736,482.297C457.178,517.759 460.127,526.096 463.243,526.708C468.083,527.653 476.372,510.922 479.989,497.749C482.715,487.744 482.993,478.962 482.715,473.014C473.479,464.788 464.244,456.561 455.009,448.28C450.335,454.06 445.662,459.841 440.989,465.566Z" style="fill:rgb(22,22,22);fill-rule:nonzero;stroke:rgb(22,22,22);stroke-width:2px;"/>
    <path d="M325.212,365.572C325.713,374.798 332.167,380.412 332.167,380.412C336.172,383.914 340.679,384.859 342.904,385.137C344.684,385.86 346.465,386.638 348.301,387.36C351.082,391.362 355.199,397.032 360.652,403.479C367.884,412.15 377.62,422.489 401.432,442.054C413.171,451.67 428.304,463.509 446.608,476.516C449.223,475.238 452.338,473.348 455.454,470.568C462.297,464.51 465.468,457.451 466.914,453.449C463.688,450.336 458.903,445.667 453.34,439.887C428.638,414.374 412.17,392.53 399.596,375.743C391.307,364.682 380.68,349.953 368.941,332.166C342.07,339.503 324.545,353.732 325.212,365.572Z" style="fill:white;fill-rule:nonzero;"/>
    <path d="M333.836,382.525C338.286,384.081 342.682,385.582 347.132,387.138C348.134,387.471 348.579,385.86 347.577,385.526C343.127,383.97 338.732,382.469 334.281,380.913C333.279,380.579 332.834,382.191 333.836,382.525Z" style="fill:rgb(9,11,12);fill-rule:nonzero;"/>
    <path d="M345.296,385.47C366.215,414.207 393.309,437.441 421.405,458.952C429.472,465.121 437.65,471.235 445.829,477.294C446.719,477.961 447.498,476.46 446.663,475.849C418.512,455.005 390.194,433.883 366.271,408.204C359.316,400.756 352.807,392.863 346.799,384.637C346.131,383.803 344.684,384.637 345.296,385.47Z" style="fill:rgb(9,11,12);fill-rule:nonzero;"/>
    <path d="M378.121,346.729C397.816,376.911 420.014,405.369 444.494,431.827C451.559,439.497 458.847,446.946 466.247,454.227C467.026,455.005 468.194,453.782 467.415,453.06C441.656,427.825 418.067,400.422 396.926,371.241C390.917,362.959 385.131,354.511 379.512,345.895C378.956,345.006 377.509,345.84 378.121,346.729Z" style="fill:rgb(9,11,12);fill-rule:nonzero;"/>
    <path d="M465.301,453.171C462.074,462.731 455.843,471.625 446.441,475.849C445.439,476.294 446.33,477.739 447.275,477.294C457.067,472.903 463.521,463.565 466.859,453.616C467.248,452.615 465.635,452.17 465.301,453.171Z" style="fill:rgb(9,11,12);fill-rule:nonzero;"/>
    <path d="M378.177,345.839C375.006,341.559 372.335,338.058 370.555,335.779C368.774,339.058 366.326,344.561 366.104,351.398C365.603,366.85 376.953,373.464 409.499,409.482C423.686,425.157 431.197,434.606 449.501,453.282C453.785,457.618 457.401,461.23 460.016,463.787C462.019,460.286 464.021,456.784 466.08,453.282C448.444,435.606 434.479,419.654 424.02,407.037C413.95,394.864 404.937,383.97 395.646,370.407C393.254,367.017 387.19,357.957 378.177,345.839Z" style="fill:rgb(73,73,73);fill-opacity:0.09;fill-rule:nonzero;"/>
    <path d="M388.024,361.458C388.803,365.294 390.416,371.797 393.588,379.356C402.767,400.923 416.342,410.038 440.766,436.996C445.439,442.166 452.672,450.336 461.128,460.897C463.076,458.118 465.023,455.394 466.97,452.615C465.19,450.948 462.352,448.335 458.903,445C452.561,438.886 435.369,421.822 402.545,380.19C398.984,375.743 393.977,369.296 388.024,361.458Z" style="fill:rgb(73,73,73);fill-opacity:0.09;fill-rule:nonzero;"/>
    <path d="M207.433,312.323C206.32,312.767 204.651,313.712 199.7,321.661C194.359,330.22 190.743,336.057 188.072,345.284C185.735,353.51 185.179,361.014 185.346,367.128C185.735,368.906 186.014,371.519 185.123,374.409C183.955,378.078 181.841,378.967 177.835,383.969C176.222,385.97 173.551,389.361 171.437,393.974C169.101,399.144 170.269,399.811 168.043,404.869C165.373,410.927 161.423,415.096 160.755,415.763C157.083,419.598 155.303,419.71 153.69,423.045C151.854,426.824 152.41,430.382 152.577,431.438C152.688,432.216 153.857,438.997 157.807,439.831C158.864,440.053 160.533,439.942 161.2,438.941C162.257,437.385 159.809,435.217 159.364,431.438C158.975,427.992 160.477,425.212 161.423,423.489C164.26,418.209 167.543,418.987 170.547,414.596C173.44,410.26 170.714,408.926 173.496,400.756C175.053,396.198 176.611,391.64 180.784,388.249C182.675,386.693 184.511,385.859 186.236,383.247C187.738,380.968 188.295,378.689 188.517,377.133C191.577,382.024 194.804,385.192 197.141,387.138C200.256,389.695 203.817,392.696 206.821,391.584C208.434,390.973 209.881,389.139 209.603,387.86C209.436,387.138 208.768,386.915 207.044,385.359C207.044,385.359 206.376,384.748 204.874,383.136C203.872,382.08 202.426,380.134 201.146,376.466C201.647,375.91 202.927,374.687 204.651,374.576C206.543,374.52 207.989,375.854 209.436,377.299C212.162,379.967 212.051,381.579 213.775,383.191C215.111,384.47 217.559,385.804 222.399,385.47C222.176,384.859 221.787,383.858 221.286,382.747C219.561,379.023 218.671,378.634 218.56,377.077C218.504,375.854 219.005,375.521 221.286,371.63C223.233,368.295 224.179,366.628 224.235,365.738C224.513,362.459 221.676,361.347 221.064,357.567C220.507,354.399 221.898,351.842 222.9,349.841C228.686,338.113 232.357,330.665 231.3,325.051C229.687,316.269 215.667,308.876 207.433,312.323Z" style="fill:rgb(22,22,22);fill-rule:nonzero;"/>
    <path d="M204.874,314.324C196.807,322.55 191.633,333 188.183,343.894C184.845,354.51 182.342,366.627 187.627,377.022C188.128,377.966 189.574,377.133 189.073,376.188C183.844,365.96 186.681,353.843 190.075,343.449C193.413,333.111 198.365,323.328 206.042,315.491C206.765,314.713 205.597,313.545 204.874,314.324Z" style="fill:rgb(22,22,22);fill-rule:nonzero;"/>
    <path d="M196.529,362.348C197.196,362.014 197.864,361.736 198.531,361.403C199.032,361.681 199.533,362.014 200.034,362.292C200.646,362.848 201.202,363.57 201.591,364.293C202.37,365.627 202.76,367.239 202.648,368.795C202.426,371.797 200.256,374.131 199.7,377.022C199.366,378.8 200.534,380.079 201.536,381.413C203.26,383.692 205.263,385.804 207.433,387.694C208.212,388.416 209.436,387.249 208.601,386.526C207.21,385.248 205.82,383.969 204.596,382.524C202.593,380.245 200.812,378.3 202.203,375.132C203.427,372.353 204.707,369.74 204.151,366.572C203.705,364.126 202.315,361.625 200.145,360.291C198.309,359.179 196.084,359.402 195.082,361.458C194.581,362.459 196.028,363.292 196.529,362.348Z" style="fill:rgb(22,22,22);fill-rule:nonzero;"/>
    <path d="M187.738,377.244C190.965,382.413 195.416,386.693 200.812,389.528C202.426,390.361 205.486,392.307 207.433,391.473C209.269,390.695 208.935,388.472 208.434,386.971C208.101,385.97 206.487,386.415 206.821,387.416C208.101,391.473 202.704,388.638 201.647,388.083C199.922,387.193 198.309,386.137 196.751,384.914C193.691,382.524 191.188,379.634 189.129,376.354C188.628,375.521 187.182,376.354 187.738,377.244Z" style="fill:rgb(22,22,22);fill-rule:nonzero;"/>
    <path d="M226.071,326.219C222.788,337.224 220.73,348.563 219.784,360.013C219.728,360.347 220.062,360.736 220.396,360.791C223.901,361.736 223.4,366.072 222.121,368.517C220.841,370.852 218.838,372.797 217.837,375.299C216.056,379.801 221.342,381.246 221.23,385.192C221.509,384.915 221.787,384.637 222.065,384.359C217.058,384.081 212.83,381.413 210.326,377.077C208.546,373.965 206.487,373.298 202.927,373.52C201.87,373.576 201.87,375.243 202.927,375.187C204.262,375.132 205.875,374.965 207.099,375.632C208.156,376.244 208.49,377.3 209.046,378.245C209.992,379.856 211.216,381.302 212.663,382.469C215.389,384.692 218.56,385.804 222.009,386.026C222.454,386.026 222.844,385.637 222.844,385.192C222.9,382.858 221.342,381.468 220.062,379.69C217.392,375.966 221.787,372.519 223.512,369.351C225.403,365.905 225.347,360.347 220.785,359.179C221.008,359.457 221.175,359.735 221.397,359.958C222.288,348.619 224.402,337.502 227.629,326.608C227.962,325.663 226.349,325.218 226.071,326.219Z" style="fill:rgb(22,22,22);fill-rule:nonzero;"/>
    <path d="M184.79,367.628C185.179,370.963 184.734,374.242 183.121,377.244C181.618,380.079 179.17,382.135 176.778,384.303C172.55,388.249 170.603,392.585 169.267,398.143C167.821,404.035 166.096,408.76 161.812,413.206C158.586,416.486 154.802,419.543 152.8,423.823C150.852,427.991 151.13,432.827 153.634,436.718C155.081,438.997 160.032,443.555 161.924,439.219C162.703,437.441 161.812,435.217 161.2,433.494C160.644,431.994 159.921,430.493 159.921,428.825C159.921,426.491 161.256,424.49 162.814,422.878C166.597,418.931 171.437,416.708 173.106,411.094C174.052,407.926 173.384,404.758 173.607,401.534C173.885,397.532 175.777,394.141 178.67,391.418C183.065,387.249 188.907,383.803 188.907,377.022C188.907,375.965 187.238,375.965 187.238,377.022C187.182,383.525 180.84,386.749 176.834,390.862C173.718,394.03 171.938,398.032 171.882,402.479C171.827,405.425 172.327,408.204 171.326,411.039C170.213,414.262 167.877,416.43 165.317,418.542C162.035,421.155 158.252,424.212 158.252,428.825C158.252,431.049 159.364,433.05 160.032,435.162C160.199,435.718 160.811,437.218 160.533,437.663C159.976,437.719 159.364,437.83 158.808,437.885C157.807,438.497 157.028,438.386 156.471,437.552C155.247,436.774 154.19,434.439 153.745,433.105C151.965,427.88 154.413,423.211 157.918,419.432C160.867,416.208 164.316,413.484 166.764,409.816C169.379,405.925 170.158,401.311 171.27,396.865C172.105,393.641 173.218,390.528 175.443,387.971C177.39,385.693 179.838,383.969 181.841,381.746C185.402,377.855 187.015,372.797 186.403,367.628C186.347,366.572 184.678,366.572 184.79,367.628Z" style="fill:rgb(22,22,22);fill-rule:nonzero;"/>
    <path d="M148.683,299.927C147.514,300.594 145.345,301.762 144.899,304.207C144.343,306.931 146.29,309.154 146.568,309.432C146.235,309.821 145.233,310.988 145.122,312.767C145.011,315.713 147.626,317.436 147.737,317.547C147.626,317.658 146.012,319.326 146.568,321.605C147.014,323.55 148.738,324.384 148.961,324.44C148.849,324.773 148.46,326.218 149.183,327.552C150.296,329.553 152.966,329.442 153.245,329.442C155.136,329.331 156.917,328.053 157.751,326.107C158.808,326.719 161.59,328.164 165.373,327.775C167.932,327.497 169.824,326.496 170.825,325.885C172.828,329.387 175.944,334.111 180.561,338.947C184.623,343.171 192.189,351.12 203.427,354.399C217.447,358.512 229.854,353.176 236.975,350.119C256.114,341.893 265.627,326.774 269.132,321.105C275.03,311.433 277.088,303.151 278.868,295.647C281.761,283.753 280.76,279.084 279.814,276.36C279.258,274.693 275.975,265.132 268.409,264.021C262.234,263.076 257.115,268.356 256.503,269.023C254.389,271.246 253.276,274.192 251.051,279.973C249.938,282.919 249.215,285.142 248.881,286.143C245.265,297.871 243.429,303.707 242.928,304.93C241.593,308.265 238.422,315.88 230.8,321.827C223.512,327.497 215.89,328.72 212.496,329.22C207.377,329.942 201.091,330.832 194.415,327.552C186.959,323.884 183.621,317.214 182.731,315.435C180.061,309.932 179.56,303.818 179.171,299.483C178.67,293.924 179.059,289.589 175.832,286.143C175.22,285.531 173.774,283.975 172.272,284.253C170.102,284.698 168.878,288.866 167.765,292.813C166.82,296.148 167.098,296.537 166.319,297.315C164.705,298.927 162.647,298.093 155.581,298.482C151.464,298.76 150.018,299.205 148.683,299.927Z" style="fill:white;fill-rule:nonzero;"/>
    <path d="M160.199,297.537C154.19,296.426 143.62,297.982 144.454,306.208C145.178,313.601 153.968,314.879 159.253,311.656C160.143,311.1 159.309,309.655 158.419,310.21C154.024,312.878 146.068,312.156 146.068,305.486C146.068,299.038 155.136,298.316 159.754,299.149C160.811,299.372 161.256,297.76 160.199,297.537Z" style="fill:rgb(9,11,12);fill-rule:nonzero;"/>
    <path d="M145.901,308.932C139.892,316.269 154.357,325.496 158.641,316.269C159.086,315.324 157.64,314.435 157.195,315.435C153.857,322.55 142.73,315.435 147.125,310.099C147.792,309.321 146.624,308.098 145.901,308.932Z" style="fill:rgb(9,11,12);fill-rule:nonzero;"/>
    <path d="M146.235,316.38C144.955,319.271 145.845,322.939 148.794,324.44C151.687,325.941 155.303,324.551 156.805,321.772C157.306,320.827 155.859,319.993 155.359,320.938C154.246,322.884 151.742,323.995 149.628,322.995C147.514,321.994 146.735,319.271 147.681,317.214C148.126,316.269 146.68,315.435 146.235,316.38Z" style="fill:rgb(9,11,12);fill-rule:nonzero;"/>
    <path d="M147.57,323.828C147.347,326.774 149.072,329.442 152.076,330.054C154.858,330.61 157.417,328.775 158.363,326.274C158.752,325.274 157.139,324.829 156.75,325.829C156.026,327.719 154.024,328.942 152.021,328.331C149.962,327.719 149.128,325.829 149.239,323.828C149.295,322.772 147.625,322.772 147.57,323.828Z" style="fill:rgb(9,11,12);fill-rule:nonzero;"/>
    <path d="M152.855,305.653C154.302,305.486 155.804,305.541 157.028,306.375C158.196,307.153 158.864,308.71 158.196,309.988C157.695,310.933 159.142,311.767 159.643,310.822C160.533,309.099 160.143,307.098 158.808,305.708C157.306,304.096 154.914,303.763 152.8,303.985C151.798,304.152 151.798,305.819 152.855,305.653Z" style="fill:rgb(9,11,12);fill-rule:nonzero;"/>
    <path d="M158.029,327.386C160.922,326.33 163.704,328.72 166.708,328.386C168.989,328.108 170.992,326.885 172.884,325.774C173.774,325.218 172.939,323.773 172.049,324.329C169.212,326.052 166.764,327.275 163.37,326.274C161.312,325.663 159.698,324.996 157.584,325.774C156.583,326.163 156.972,327.775 158.029,327.386Z" style="fill:rgb(9,11,12);fill-rule:nonzero;"/>
    <path d="M159.754,298.983C162.647,299.983 166.541,300.15 168.155,296.982C169.045,295.203 168.489,293.035 168.878,291.145C169.323,288.589 170.77,286.476 172.772,284.864C173.607,284.197 172.439,283.03 171.604,283.697C169.434,285.476 167.877,287.922 167.32,290.701C167.042,292.257 167.432,294.091 166.986,295.592C165.985,298.594 162.647,298.204 160.31,297.371C159.198,297.037 158.752,298.649 159.754,298.983Z" style="fill:rgb(9,11,12);fill-rule:nonzero;"/>
    <path d="M171.549,284.976C176.277,285.587 176.889,293.535 177.668,297.148C178.614,301.873 179.115,306.653 180.005,311.378C181.452,318.937 185.847,324.94 192.857,328.331C200.201,331.832 208.546,331.666 216.223,329.553C224.124,327.33 232.302,323.328 237.42,316.714C238.088,315.88 236.92,314.713 236.252,315.546C230.911,322.439 222.232,326.496 213.887,328.442C205.486,330.387 196.306,329.665 189.296,324.217C181.73,318.381 181.563,309.599 180.061,300.872C179.337,296.759 178.725,292.313 177.223,288.422C176.277,285.976 174.775,283.753 172.049,283.364C170.937,283.197 170.491,284.809 171.549,284.976Z" style="fill:rgb(9,11,12);fill-rule:nonzero;"/>
    <path d="M170.325,326.885C177.056,335.112 183.566,344.505 192.467,350.564C201.202,356.456 211.995,357.067 222.121,355.4C242.706,351.954 260.175,338.002 270.189,319.993C275.92,309.766 279.313,298.427 280.816,286.81C280.927,285.754 279.258,285.754 279.147,286.81C276.587,306.653 267.908,326.107 252.442,339.225C244.82,345.673 235.751,350.508 226.015,352.843C215.945,355.289 204.318,355.622 195.138,350.23C185.346,344.505 178.503,334.278 171.493,325.663C170.825,324.884 169.657,326.052 170.325,326.885Z" style="fill:rgb(9,11,12);fill-rule:nonzero;"/>
    <path d="M269.188,263.798C264.57,261.964 259.674,264.354 256.447,267.745C252.664,271.636 250.773,276.805 249.382,281.919C247.768,287.866 246.322,293.758 244.041,299.483C241.593,305.653 238.477,311.489 234.917,317.047C234.305,317.937 235.751,318.77 236.363,317.881C242.094,309.043 246.489,299.427 249.215,289.256C250.661,283.92 251.607,278.361 254.278,273.525C256.948,268.634 262.623,262.965 268.743,265.41C269.744,265.799 270.189,264.187 269.188,263.798Z" style="fill:rgb(9,11,12);fill-rule:nonzero;"/>
    <path d="M155.359,322.939C156.917,323.05 156.583,325.663 156.305,326.608C155.971,327.608 157.584,328.053 157.918,327.052C158.641,324.94 158.141,321.494 155.359,321.272C154.302,321.216 154.302,322.884 155.359,322.939Z" style="fill:rgb(9,11,12);fill-rule:nonzero;"/>
    <path d="M156.305,317.825C156.638,319.159 156.138,320.549 155.081,321.327C154.19,321.939 155.025,323.384 155.915,322.772C157.64,321.549 158.474,319.437 157.918,317.381C157.695,316.325 156.082,316.769 156.305,317.825Z" style="fill:rgb(9,11,12);fill-rule:nonzero;"/>
    <path d="M157.25,312.045C158.752,312.767 157.751,315.157 157.028,316.102C156.36,316.936 157.807,317.77 158.474,316.936C159.754,315.269 160.422,311.711 158.085,310.6C157.139,310.155 156.305,311.6 157.25,312.045Z" style="fill:rgb(9,11,12);fill-rule:nonzero;"/>
    <path d="M145.79,312.267C146.68,311.767 148.126,314.879 151.854,316.436C153.245,316.992 154.969,317.381 162.869,316.436C165.429,316.102 168.767,315.658 172.772,314.935C173.551,318.103 175.165,322.883 178.447,327.83C179.838,329.887 185.457,337.891 196.306,342.616C207.934,347.729 218.449,346.006 222.51,345.284C225.959,344.672 235.584,342.838 244.152,335.39C249.883,330.443 253.554,324.44 258.951,308.821C262.623,298.204 267.074,283.475 270.356,265.188C272.582,267.467 276.031,271.58 277.978,277.694C278.924,280.64 279.814,284.976 279.091,291.757C277.589,306.375 270.245,318.548 265.794,324.773C261.176,331.277 252.942,342.504 237.698,349.452C235.64,350.397 224.012,355.455 209.213,354.788C205.82,354.622 202.704,354.455 198.865,353.065C194.693,351.564 190.52,347.674 182.23,340.003C178.781,336.835 175.387,333.5 171.938,328.664C171.27,327.719 170.714,326.885 170.325,326.33C169.156,327.108 167.432,327.997 165.484,327.775C162.869,327.552 161.979,325.663 159.81,325.996C157.918,326.274 157.918,327.83 155.637,328.664C153.857,329.276 151.353,329.22 149.684,327.942C148.46,326.997 148.293,325.941 146.902,319.938C145.567,314.046 145.178,312.601 145.79,312.267Z" style="fill:rgb(73,73,73);fill-opacity:0.11;fill-rule:nonzero;"/>
    <path d="M209.38,297.815C208.323,298.038 207.934,300.15 207.266,303.429C206.877,305.43 206.71,307.153 206.654,308.376C204.429,310.989 204.206,313.379 204.151,314.324C204.095,316.269 204.763,317.77 206.042,320.549C206.932,322.55 207.878,324.106 208.546,325.162C206.153,325.718 204.484,327.275 204.373,328.942C204.262,330.554 205.708,331.832 206.265,332.277C208.768,334.445 210.604,332.833 213.775,334.556C216.335,335.946 216.112,337.502 219.84,339.558C222.176,340.837 222.9,340.559 223.178,340.392C224.124,339.781 223.79,337.78 223.623,336.446C223.4,334.834 222.733,332.388 220.897,329.553C223.066,328.775 225.236,327.997 227.35,327.275C225.793,327.441 225.459,327.497 225.459,327.497C225.459,327.441 229.298,325.885 232.58,327.275C235.306,328.442 235.529,330.887 237.81,331.054C239.089,331.165 240.536,330.443 241.148,329.387C242.427,327.219 240.035,324.051 239.479,323.328C237.198,320.327 233.86,319.437 232.358,319.159C232.858,318.048 233.415,316.269 233.526,314.046C233.637,310.266 232.079,307.487 231.356,306.32C230.355,303.04 229.409,299.761 228.407,296.426C226.85,300.039 225.125,301.15 223.79,301.428C222.288,301.762 221.453,301.039 219.005,301.428C216.668,301.817 216.557,302.54 215.222,302.484C212.106,302.151 211.049,297.482 209.38,297.815Z" style="fill:rgb(22,22,22);fill-rule:nonzero;"/>
    <path d="M210.771,315.38C211.717,316.491 213.219,317.214 214.721,316.825C216.056,316.491 216.947,315.38 217.113,314.046C217.169,313.49 216.335,313.49 216.279,314.046C216.168,315.213 215.166,316.047 213.998,316.102C212.941,316.158 212.051,315.547 211.383,314.768C210.994,314.379 210.437,314.991 210.771,315.38Z" style="fill:white;fill-rule:nonzero;"/>
    <path d="M222.677,313.546C224.068,315.547 228.574,315.713 228.407,312.545C228.352,311.989 227.517,311.989 227.573,312.545C227.74,314.824 224.346,314.49 223.4,313.101C223.066,312.656 222.343,313.101 222.677,313.546Z" style="fill:white;fill-rule:nonzero;"/>
    <path d="M220.507,319.715C220.507,319.771 220.563,319.826 220.563,319.882C220.73,319.938 220.952,319.993 221.119,320.049C221.008,319.826 220.841,319.715 220.563,319.715C220.785,319.66 220.952,319.548 221.175,319.493C221.119,319.437 221.064,319.326 221.008,319.271C220.73,319.382 220.507,319.493 220.229,319.604C220.619,320.215 220.452,321.327 220.229,321.939C219.951,322.772 218.783,323.884 218.059,322.772C217.781,322.328 217.058,322.717 217.336,323.217C218.059,324.329 219.561,324.273 220.396,323.328C221.231,322.383 221.676,320.327 220.952,319.215C220.73,318.826 220.062,319.048 220.173,319.548C220.285,319.882 220.452,320.104 220.73,320.271C220.952,320.438 221.286,320.271 221.342,320.049C221.453,319.548 221.286,318.381 220.507,318.715C219.784,318.993 220.062,320.104 220.396,320.549C220.507,320.716 220.785,320.827 220.952,320.716C221.564,320.271 221.564,319.437 220.897,319.104C220.452,318.77 220.062,319.493 220.507,319.715Z" style="fill:white;fill-rule:nonzero;"/>
    <path d="M220.563,319.882C220.785,321.16 221.231,322.717 222.733,322.939C224.235,323.161 224.68,321.716 224.68,320.549C224.68,319.993 223.845,319.993 223.845,320.549C223.845,321.383 223.567,322.55 222.455,321.994C221.62,321.605 221.509,320.493 221.397,319.66C221.286,319.159 220.452,319.382 220.563,319.882Z" style="fill:white;fill-rule:nonzero;"/>
    <path d="M205.208,315.658C206.265,309.877 210.437,304.93 216.112,303.263C221.787,301.595 228.352,303.874 230.967,309.321C231.412,310.266 232.858,309.432 232.413,308.487C229.576,302.651 222.621,300.039 216.446,301.484C209.881,303.04 204.818,308.654 203.594,315.213C203.427,316.269 205.041,316.714 205.208,315.658Z" style="fill:rgb(22,22,22);fill-rule:nonzero;"/>
    <path d="M208.156,307.265C208.101,304.486 208.601,301.706 209.77,299.205C209.881,298.983 209.992,298.816 210.048,298.594C210.437,297.927 210.493,297.816 210.159,298.26C209.825,298.538 209.881,298.76 210.382,299.094C210.493,299.261 210.66,299.483 210.771,299.65C211.606,300.984 212.329,302.373 212.941,303.819C213.33,304.819 214.944,304.374 214.554,303.374C213.998,302.04 211.439,295.259 209.269,296.759C208.212,297.482 207.544,299.928 207.21,301.095C206.598,303.096 206.376,305.208 206.432,307.32C206.543,308.321 208.212,308.321 208.156,307.265Z" style="fill:rgb(22,22,22);fill-rule:nonzero;"/>
    <path d="M225.125,302.762C225.681,301.817 226.238,300.872 226.85,299.928C227.128,299.538 227.517,299.149 227.684,298.705C228.074,298.482 228.129,298.26 227.907,297.982C227.684,297.593 227.74,297.704 228.018,298.316C228.964,300.706 229.631,303.04 229.91,305.653C230.021,306.709 231.69,306.709 231.579,305.653C231.412,303.818 231.078,302.04 230.577,300.261C230.243,299.261 229.743,296.982 228.797,296.37C228.074,295.926 227.462,296.259 226.961,296.87C225.681,298.371 224.68,300.205 223.678,301.929C223.122,302.818 224.569,303.652 225.125,302.762Z" style="fill:rgb(22,22,22);fill-rule:nonzero;"/>
    <path d="M203.706,314.768C203.316,324.106 211.773,332.11 221.175,330.165C225.514,329.276 229.52,326.441 231.579,322.495C233.748,318.326 234.972,311.711 232.135,307.598C231.523,306.709 230.076,307.543 230.688,308.432C233.192,312.156 231.968,318.27 229.965,321.994C228.129,325.385 224.513,327.775 220.73,328.553C212.329,330.221 205.041,322.995 205.375,314.768C205.375,313.657 203.706,313.657 203.706,314.768Z" style="fill:rgb(22,22,22);fill-rule:nonzero;"/>
    <path d="M204.874,329.442C206.209,324.495 212.885,324.773 216.39,326.941C220.118,329.164 222.009,333.5 222.399,337.669C222.51,338.836 222.955,340.003 221.008,339.281C220.285,339.003 219.339,337.947 218.783,337.391C217.781,336.39 216.891,335.334 215.778,334.5C214.554,333.556 213.275,333 211.773,332.722C209.436,332.277 205.208,332.555 204.985,329.22C204.929,328.164 203.26,328.164 203.316,329.22C203.483,331.388 204.874,332.833 206.877,333.556C208.434,334.111 210.159,334 211.773,334.389C213.775,334.89 215.111,335.946 216.502,337.391C217.892,338.78 220.285,341.893 222.677,341.448C224.68,341.059 224.235,338.78 224.068,337.28C223.456,331.944 220.619,326.663 215.389,324.607C210.994,322.884 204.651,323.884 203.316,329.053C202.982,330.054 204.596,330.498 204.874,329.442Z" style="fill:rgb(22,22,22);fill-rule:nonzero;"/>
    <path d="M227.072,322.217C229.353,319.16 234.527,320.382 236.92,322.439C238.31,323.606 239.256,325.218 239.701,326.997C239.813,327.553 240.091,328.72 239.924,329.331C239.368,330.943 238.199,330.443 237.198,329.665C235.807,328.609 234.75,327.108 233.025,326.441C232.191,326.107 231.356,326.052 230.466,326.107C229.631,326.107 228.853,326.33 228.018,326.219C226.46,325.996 224.29,324.551 226.905,322.55C227.74,321.883 226.571,320.716 225.737,321.383C224.457,322.383 223.79,323.884 224.346,325.496C225.125,327.608 227.128,328.053 229.186,327.942C231.245,327.831 232.58,327.886 234.249,329.276C235.028,329.943 235.696,330.721 236.586,331.332C237.754,332.166 239.479,332.944 240.758,331.777C243.707,329.053 240.313,322.995 237.977,321.105C234.639,318.381 228.519,317.603 225.737,321.438C225.014,322.217 226.46,323.05 227.072,322.217Z" style="fill:rgb(22,22,22);fill-rule:nonzero;"/>
    <path d="M208.101,324.829C211.717,323.662 217.225,325.94 219.45,328.886C219.617,329.109 219.951,328.886 219.784,328.664C217.447,325.496 211.884,323.161 207.989,324.44C207.711,324.495 207.823,324.884 208.101,324.829Z" style="fill:white;fill-rule:nonzero;"/>
    <path d="M227.462,322.439C229.075,320.549 231.412,319.715 233.86,320.215C234.138,320.271 234.249,319.882 233.971,319.826C231.412,319.326 228.853,320.16 227.183,322.161C227.017,322.383 227.295,322.661 227.462,322.439Z" style="fill:white;fill-rule:nonzero;"/>
    <path d="M210.159,298.76C210.716,300.206 211.105,301.651 211.272,303.151C211.383,303.096 211.494,303.04 211.606,302.985C211.328,302.707 211.049,302.54 210.716,302.373C210.549,302.318 210.382,302.373 210.382,302.54C210.382,303.04 210.326,303.485 210.326,303.985C210.437,303.93 210.549,303.874 210.66,303.818C209.881,302.929 209.269,304.93 209.047,305.319C208.935,305.542 209.269,305.764 209.38,305.542C209.436,305.43 210.159,303.874 210.326,304.096C210.437,304.263 210.66,304.096 210.66,303.93C210.66,303.429 210.716,302.985 210.716,302.484C210.604,302.54 210.493,302.596 210.382,302.651C210.716,302.762 210.938,302.929 211.161,303.207C211.272,303.318 211.55,303.263 211.494,303.04C211.272,301.484 210.938,299.983 210.326,298.538C210.437,298.427 210.048,298.538 210.159,298.76Z" style="fill:white;fill-rule:nonzero;"/>
    <path d="M227.35,298.038C226.738,299.205 226.405,300.372 226.293,301.706C226.293,301.817 226.46,301.929 226.571,301.929C227.35,301.706 227.462,302.318 227.517,302.985C227.517,303.151 227.74,303.263 227.851,303.151C228.129,303.596 228.352,303.985 228.63,304.43C228.574,304.708 229.019,304.819 229.019,304.541C229.131,303.763 228.63,301.762 227.573,302.874C227.684,302.929 227.795,302.985 227.907,303.04C227.851,302.54 227.74,302.095 227.629,301.595C227.629,301.484 227.517,301.428 227.406,301.428C227.017,301.428 226.738,301.484 226.405,301.595C226.516,301.651 226.571,301.706 226.683,301.817C226.738,300.595 227.072,299.483 227.684,298.371C227.851,297.982 227.462,297.76 227.35,298.038Z" style="fill:white;fill-rule:nonzero;"/>
    <path d="M262.234,265.077C263.012,270.413 264.515,278.862 267.63,288.867C274.195,309.766 281.928,318.715 292.165,342.949C294.724,349.008 298.341,358.123 301.901,369.629C308.522,371.797 320.817,374.743 335.839,372.13C360.54,367.851 375.061,351.509 379.123,346.562C370.666,330.999 362.154,314.157 353.864,296.092C345.63,278.195 338.453,260.964 332.222,244.567C326.993,242.621 313.306,238.286 296.505,242.399C276.42,247.235 265.349,260.964 262.234,265.077Z" style="fill:rgb(180,67,224);fill-rule:nonzero;"/>
    <path d="M311.081,240.509C313.195,244.956 315.866,251.014 318.703,258.351C327.605,281.696 330.831,300.873 332,307.709C334.503,321.827 336.673,343.727 333.112,371.852C340.846,371.63 346.576,369.851 350.192,368.462C360.54,364.349 368.051,357.178 375.284,350.231C376.953,348.674 378.232,347.285 379.067,346.451C376.675,342.338 373.058,335.89 368.83,327.83C356.59,304.597 348.579,285.309 341.847,268.968C339.455,263.243 336.172,255.016 332.334,245.067C329.274,243.788 325.435,242.51 320.928,241.676C317.256,240.954 313.918,240.62 311.081,240.509Z" style="fill:rgb(73,73,73);fill-opacity:0.13;fill-rule:nonzero;"/>
    <path d="M347.911,284.587C348.857,294.536 349.636,302.874 350.192,308.877C352.306,332.388 352.696,338.892 352.863,343.06C353.308,352.899 353.308,360.958 353.252,366.239C356.702,365.016 361.152,363.015 365.77,359.791C371.556,355.733 375.451,351.287 377.954,348.007C367.94,326.83 357.926,305.708 347.911,284.587Z" style="fill:rgb(73,73,73);fill-opacity:0.1;fill-rule:nonzero;"/>
    <path d="M308.41,230.726C305.74,231.505 304.293,235.34 303.403,239.286C301.623,247.346 302.569,254.238 302.903,256.628C304.516,267.245 307.409,275.193 308.355,277.806C310.803,284.253 314.141,292.869 321.429,302.04C325.602,307.265 329.162,311.767 335.727,315.102C339.566,317.103 347.522,321.161 355.7,317.937C356.09,317.77 364.101,314.491 366.16,307.487C366.605,305.931 366.716,304.374 366.883,301.317C366.994,299.483 367.05,296.259 366.66,292.257C366.104,286.977 364.936,282.864 364.045,279.918C360.095,266.856 358.148,260.352 354.031,254.683C350.637,250.014 346.799,244.678 340.456,243.955C339.9,243.9 333.502,243.288 329.719,247.735C327.104,250.848 327.271,254.683 327.326,257.24C327.493,262.131 329.385,265.633 332.333,271.024C335.282,276.36 336.45,277.027 339.955,283.364C344.74,292.035 344.239,292.869 344.017,293.091C343.071,293.925 339.288,291.312 338.453,290.701C337.674,290.145 336.562,289.367 335.171,287.866C330.831,283.03 328.272,275.749 328.272,275.749C325.991,271.247 322.987,264.855 319.927,256.739C320.873,253.127 322.319,250.57 323.488,248.902C325.379,246.234 327.493,244.4 327.994,241.065C328.216,239.787 328.105,238.675 327.994,237.952C328.94,237.063 329.218,235.729 328.717,234.617C328.105,233.339 326.603,232.727 325.157,233.172C325.157,233.005 324.99,231.56 323.71,230.782C322.653,230.115 321.206,230.226 320.149,231.004C318.48,229.726 317.09,229.392 316.088,229.337C314.92,229.281 314.363,229.559 311.582,230.059C309.245,230.671 309.078,230.56 308.41,230.726Z" style="fill:white;fill-rule:nonzero;"/>
    <path d="M322.375,254.183C323.877,250.459 325.769,247.068 327.827,243.622C328.884,241.843 330.108,239.62 328.662,237.674C325.379,233.45 320.928,238.842 319.537,241.621C319.037,242.566 320.483,243.399 320.984,242.455C321.818,240.787 322.764,238.73 324.712,238.175C325.268,237.897 325.824,237.897 326.436,238.063C326.603,239.342 326.77,240.62 326.993,241.899C326.826,242.621 325.824,243.789 325.435,244.456C323.654,247.401 322.208,250.514 320.873,253.682C320.372,254.738 321.985,255.128 322.375,254.183Z" style="fill:rgb(9,11,12);fill-rule:nonzero;"/>
    <path d="M304.182,261.353C303.348,255.405 303.236,249.347 303.904,243.399C304.516,237.952 305.684,229.67 313.251,231.227C314.308,231.449 314.753,229.837 313.696,229.615C307.743,228.392 304.015,232.616 303.014,238.008C301.512,245.845 301.456,253.849 302.569,261.797C302.736,262.854 304.349,262.409 304.182,261.353Z" style="fill:rgb(9,11,12);fill-rule:nonzero;"/>
    <path d="M311.137,235.729C311.749,234.284 312.416,232.783 313.585,231.671C315.587,229.726 318.147,230.782 320.316,231.838C321.262,232.338 322.097,230.893 321.151,230.393C318.87,229.226 316.311,228.114 313.863,229.392C311.749,230.504 310.636,232.783 309.746,234.84C309.301,235.896 310.747,236.729 311.137,235.729Z" style="fill:rgb(9,11,12);fill-rule:nonzero;"/>
    <path d="M316.088,236.229C318.147,233.561 320.873,230.782 324.433,232.894C325.379,233.45 326.214,232.005 325.268,231.449C321.04,228.948 317.479,231.671 314.92,235.006C314.252,235.896 315.42,237.063 316.088,236.229Z" style="fill:rgb(9,11,12);fill-rule:nonzero;"/>
    <path d="M319.816,237.452C320.873,236.34 321.985,235.173 323.432,234.617C325.157,233.895 328.328,234.339 327.66,236.952C327.438,238.008 328.995,238.452 329.274,237.396C329.83,235.117 328.328,233.005 326.047,232.616C322.987,232.06 320.595,234.284 318.647,236.285C317.924,237.063 319.092,238.23 319.816,237.452Z" style="fill:rgb(9,11,12);fill-rule:nonzero;"/>
    <path d="M320.483,253.349C318.536,257.517 320.928,261.742 322.597,265.577C324.934,270.969 327.382,276.36 330.386,281.363C334.281,287.922 342.737,299.705 351.583,292.98C352.418,292.313 351.583,290.867 350.749,291.534C342.236,298.038 334.336,284.92 330.887,278.861C328.884,275.304 327.104,271.636 325.435,267.912C323.766,264.187 320.038,258.351 321.985,254.182C322.375,253.238 320.928,252.348 320.483,253.349Z" style="fill:rgb(9,11,12);fill-rule:nonzero;"/>
    <path d="M327.66,249.124C322.764,265.744 337.786,278.639 343.294,292.868C343.683,293.869 345.296,293.424 344.907,292.424C339.566,278.639 324.545,265.633 329.274,249.569C329.552,248.513 327.938,248.068 327.66,249.124Z" style="fill:rgb(9,11,12);fill-rule:nonzero;"/>
    <path d="M302.513,260.908C305.351,276.471 311.971,291.201 321.707,303.707C326.436,309.71 331.833,315.547 339.288,317.992C345.63,320.049 354.365,321.105 360.262,317.27C366.716,313.156 367.55,304.763 367.829,297.815C367.884,296.759 366.215,296.759 366.16,297.815C365.826,306.764 363.823,316.658 353.197,317.937C343.405,319.104 334.281,315.213 327.66,308.154C315.365,295.092 307.298,278.028 304.071,260.463C303.96,259.407 302.346,259.852 302.513,260.908Z" style="fill:rgb(9,11,12);fill-rule:nonzero;"/>
    <path d="M328.773,251.348C330.553,244.233 339.121,243.733 344.462,246.846C349.914,250.014 353.642,255.739 356.368,261.242C359.205,267.022 361.264,273.248 363.267,279.362C365.548,286.365 367.272,293.702 366.104,301.095C365.937,302.151 367.55,302.596 367.717,301.54C369.053,293.091 366.938,284.92 364.212,276.916C361.709,269.635 359.261,262.131 355.088,255.572C351.583,250.014 346.354,244.233 339.455,243.288C334.114,242.566 328.439,245.456 327.104,250.903C326.881,251.959 328.495,252.404 328.773,251.348Z" style="fill:rgb(9,11,12);fill-rule:nonzero;"/>
    <path d="M310.469,230.004C314.92,228.225 319.259,230.17 320.316,230.671C317.201,234.784 310.58,244.733 310.024,258.796C309.189,278.806 321.151,292.09 325.379,296.815C330.831,302.873 337.953,310.766 347.132,309.655C352.306,309.043 357.202,305.597 359.706,301.206C362.209,296.815 362.043,292.035 359.038,279.695C354.421,261.019 349.358,250.069 350.081,249.736C350.804,249.402 356.813,258.796 361.319,270.58C361.764,271.802 365.492,281.696 366.827,295.314C367.662,303.707 366.938,307.153 365.214,310.21C362.543,314.935 358.204,317.047 356.535,317.77C349.803,320.605 343.349,318.604 340.289,317.547C329.329,313.879 323.488,304.986 317.59,296.037C308.522,282.196 306.018,270.357 303.626,258.963C301.957,251.07 300.844,241.899 305.017,235.173C305.74,233.783 307.353,231.282 310.469,230.004Z" style="fill:rgb(73,73,73);fill-opacity:0.1;fill-rule:nonzero;"/>
    <path d="M230.132,202.935C229.965,205.547 230.911,208.493 232.914,214.385C235.139,220.999 237.532,228.058 243.54,235.006C247.379,239.453 252.052,244.9 260.008,246.456C266.295,247.679 271.58,245.901 274.251,244.789C274.863,246.456 275.697,248.235 276.754,250.069C279.536,254.961 282.985,258.407 285.711,260.686C287.77,260.463 291.776,259.63 295.225,256.517C297.896,254.071 299.175,251.181 299.954,249.291C300.9,247.068 301.401,245.122 301.623,243.733C299.954,242.732 298.118,241.398 296.338,239.564C290.774,233.895 289.272,227.169 288.827,223.945C289.55,217.553 290.329,211.105 291.052,204.713C291.887,204.825 293.667,204.936 295.225,203.88C296.95,202.712 297.284,200.767 297.729,198.599C298.174,196.431 298.674,193.652 297.45,190.484C296.894,189.094 295.114,184.648 291.331,184.37C288.771,184.148 286.157,185.871 284.654,188.539C281.428,185.426 274.529,179.923 264.848,179.034C248.102,177.478 231.078,190.54 230.132,202.935Z" style="fill:white;fill-rule:nonzero;"/>
    <path d="M254.834,228.336C254.389,229.503 255.669,231.171 256.614,232.005C259.229,234.284 263.847,234.172 267.185,232.616C271.858,230.448 273.36,225.779 274.028,223.667C274.807,221.333 275.808,218.276 274.195,215.552C272.804,213.162 270.356,212.328 269.41,212.05C268.465,213.996 267.741,215.441 267.185,216.386C266.517,217.553 266.295,217.942 265.905,218.831C265.349,219.999 265.293,220.443 264.515,221.499C261.343,225.613 257.004,227.113 257.004,227.113C256.002,227.336 255.112,227.558 254.834,228.336Z" style="fill:rgb(9,11,12);fill-rule:nonzero;"/>
    <path d="M231.022,209.605C235.417,223.334 240.925,239.342 255.112,245.79C260.898,248.402 267.797,248.902 273.694,246.345C280.315,243.511 284.209,236.952 286.88,230.615C290.385,222.333 291.887,213.329 291.331,204.38C291.275,203.324 289.606,203.324 289.662,204.38C290.218,213.718 288.549,223.112 284.599,231.616C280.76,239.898 274.696,246.512 264.96,246.401C245.376,246.179 237.42,224.612 232.524,209.216C232.302,208.104 230.744,208.549 231.022,209.605Z" style="fill:rgb(9,11,12);fill-rule:nonzero;"/>
    <path d="M285.266,190.095C285.322,186.76 288.771,184.759 291.831,185.704C294.669,186.649 296.449,189.428 297.061,192.207C297.617,194.875 297.395,197.988 296.56,200.544C295.893,202.657 295.058,203.768 292.499,203.768C291.609,203.768 290.719,203.435 289.773,203.435C288.716,203.435 288.716,205.102 289.773,205.102C291.664,205.102 293.5,205.992 295.336,205.047C296.672,204.38 297.45,203.046 298.007,201.656C299.453,197.876 299.62,192.763 297.784,189.039C296.282,185.982 293.055,183.369 289.495,183.758C286.212,184.092 283.653,186.76 283.597,190.039C283.597,191.151 285.266,191.151 285.266,190.095Z" style="fill:rgb(9,11,12);fill-rule:nonzero;"/>
    <path d="M288.549,220.555C288.382,229.726 292.443,238.508 299.676,244.233C300.51,244.9 301.679,243.733 300.844,243.066C293.945,237.619 290.051,229.393 290.218,220.555C290.218,219.499 288.549,219.499 288.549,220.555Z" style="fill:rgb(9,11,12);fill-rule:nonzero;"/>
    <path d="M274.195,245.456C276.309,251.292 279.758,256.406 284.376,260.519C285.155,261.242 286.379,260.074 285.545,259.352C281.094,255.405 277.811,250.57 275.753,245.011C275.419,244.011 273.806,244.455 274.195,245.456Z" style="fill:rgb(9,11,12);fill-rule:nonzero;"/>
    <path d="M284.766,261.075C289.55,262.798 294.335,258.74 297.284,255.35C300.399,251.793 303.125,247.179 301.79,242.343C301.512,241.287 299.898,241.732 300.176,242.788C301.289,247.012 298.786,251.126 296.06,254.183C293.5,257.073 289.328,260.964 285.155,259.463C284.209,259.074 283.764,260.686 284.766,261.075Z" style="fill:rgb(9,11,12);fill-rule:nonzero;"/>
    <path d="M237.253,203.768C236.53,201.712 238.199,199.488 239.423,198.043C241.259,195.764 244.097,195.153 246.211,197.487C248.659,200.155 249.326,204.936 249.66,208.382C249.883,210.772 249.048,213.829 250.439,215.941C251.941,218.22 254.723,219.554 257.338,220.054C258.395,220.277 258.84,218.665 257.783,218.442C256.392,218.164 255.168,217.72 253.944,216.942C251.941,215.608 251.496,214.162 251.44,211.772C251.385,209.716 251.329,207.715 250.995,205.658C250.439,202.268 249.493,197.932 246.711,195.653C244.375,193.708 241.482,193.763 239.201,195.709C237.031,197.599 234.527,201.212 235.584,204.157C236.029,205.214 237.643,204.769 237.253,203.768Z" style="fill:rgb(9,11,12);fill-rule:nonzero;"/>
    <path d="M252.664,191.762C253.054,185.037 261.455,182.591 265.349,188.094C265.961,188.983 267.408,188.149 266.796,187.26C261.955,180.368 251.496,183.314 250.995,191.762C250.94,192.818 252.609,192.818 252.664,191.762Z" style="fill:rgb(9,11,12);fill-rule:nonzero;"/>
    <path d="M245.098,208.215C244.319,207.159 243.874,205.992 243.818,204.713C243.373,204.936 242.984,205.214 242.539,205.436C243.818,206.27 244.486,207.604 244.43,209.104C244.764,208.826 245.154,208.548 245.487,208.326C244.096,207.826 243.206,206.27 243.484,204.824C243.095,204.991 242.65,205.158 242.261,205.325C242.928,205.714 243.484,206.27 243.874,206.992C244.041,207.326 244.152,207.659 244.208,208.048C244.208,208.326 244.208,207.993 244.152,207.881C244.041,207.659 243.93,207.492 243.818,207.27C243.373,206.27 241.927,207.159 242.372,208.104C242.706,208.882 243.262,209.716 244.263,209.771C245.098,209.827 245.821,209.271 245.932,208.437C246.099,206.603 244.653,204.769 243.151,203.935C242.706,203.657 242.038,203.879 241.927,204.435C241.482,206.825 242.817,209.16 245.098,209.994C245.654,210.16 246.155,209.716 246.155,209.215C246.211,207.103 245.209,205.214 243.429,204.102C242.928,203.768 242.149,204.213 242.149,204.824C242.205,206.381 242.706,207.881 243.651,209.16C244.319,209.938 245.765,209.104 245.098,208.215Z" style="fill:rgb(9,11,12);fill-rule:nonzero;"/>
    <path d="M260.676,197.487C260.398,197.154 260.175,196.765 260.064,196.32C260.064,196.209 259.952,195.542 260.064,195.486C260.175,195.431 260.453,196.32 260.509,196.376C260.62,196.82 260.564,197.321 260.342,197.71C260.731,197.598 261.121,197.487 261.51,197.432C260.119,196.654 259.452,195.208 259.674,193.652C259.229,193.874 258.84,194.152 258.395,194.375C259.952,195.042 260.843,196.653 260.453,198.321C260.787,198.154 261.121,197.932 261.455,197.765C260.62,197.487 259.952,196.765 259.786,195.875C259.786,195.82 259.786,195.319 259.73,195.319C259.619,195.375 259.507,195.431 259.341,195.486C259.396,195.597 259.507,195.764 259.563,195.875C259.786,196.487 259.786,197.098 259.73,197.765C260.231,197.543 260.676,197.376 261.176,197.154C260.676,196.765 260.286,196.32 260.008,195.709C259.507,194.764 258.061,195.597 258.562,196.542C258.895,197.209 259.396,197.821 260.008,198.321C260.62,198.821 261.343,198.488 261.455,197.71C261.566,196.598 261.455,195.097 260.62,194.263C259.952,193.596 258.729,193.541 258.283,194.541C257.393,196.487 259.285,198.766 261.01,199.377C261.455,199.544 261.955,199.21 262.011,198.821C262.623,196.487 261.455,193.93 259.174,192.985C258.562,192.707 258.005,193.041 257.894,193.708C257.616,195.82 258.729,197.876 260.564,198.932C260.898,199.155 261.51,199.044 261.733,198.654C262.178,197.598 262.289,196.542 261.9,195.486C261.566,194.653 260.843,193.763 259.897,193.874C257.449,194.152 258.506,197.654 259.507,198.766C260.231,199.488 261.399,198.265 260.676,197.487Z" style="fill:rgb(9,11,12);fill-rule:nonzero;"/>
    <path d="M275.196,245.289C275.196,245.345 275.196,245.345 275.141,245.4C275.475,245.234 275.808,245.011 276.142,244.844C276.087,244.844 276.031,244.789 275.975,244.789C276.142,245.178 276.309,245.623 276.476,246.012C276.587,245.789 278.089,245.067 278.535,244.678C279.536,243.844 280.371,242.732 281.149,241.676C282.874,239.397 284.154,236.896 285.211,234.284C284.654,234.117 284.154,234.006 283.597,233.839C281.928,238.619 280.76,245.289 276.087,248.124C276.476,248.513 276.866,248.902 277.255,249.291C278.368,247.624 279.48,245.901 280.593,244.233C281.094,243.455 279.925,242.51 279.258,243.233C278.368,244.177 277.422,245.178 276.532,246.123C276.921,246.512 277.311,246.901 277.7,247.29C278.535,246.29 279.313,245.234 280.037,244.177C280.593,243.399 279.369,242.454 278.701,243.177C277.923,244.011 277.144,244.622 276.142,245.122C276.587,245.345 276.977,245.623 277.422,245.845C277.422,245.678 277.366,245.511 277.366,245.345C277.255,244.289 275.586,244.289 275.697,245.345C275.697,245.511 275.753,245.678 275.753,245.845C275.808,246.456 276.42,246.901 277.032,246.568C278.145,245.956 279.035,245.289 279.925,244.344C279.48,244.011 279.035,243.677 278.59,243.344C277.923,244.289 277.255,245.234 276.532,246.123C275.864,246.957 276.977,248.124 277.7,247.29C278.59,246.345 279.536,245.345 280.426,244.4C279.981,244.066 279.536,243.733 279.091,243.399C277.978,245.067 276.865,246.79 275.753,248.457C275.308,249.18 276.198,250.014 276.921,249.625C282.04,246.512 283.375,239.62 285.211,234.339C285.545,233.283 283.987,232.95 283.597,233.895C282.429,236.729 280.927,239.508 278.924,241.843C277.978,242.955 276.476,243.566 275.586,244.567C275.363,244.789 275.141,244.844 275.03,245.122C274.751,245.623 274.974,246.123 275.53,246.345C275.586,246.345 275.642,246.401 275.697,246.401C276.142,246.568 276.587,246.234 276.699,245.845C276.699,245.789 276.699,245.789 276.754,245.734C277.199,244.733 275.586,244.289 275.196,245.289Z" style="fill:rgb(9,11,12);fill-rule:nonzero;"/>
    <path d="M281.372,243.622C281.873,243.066 282.206,242.51 282.373,241.843C282.651,240.843 281.372,240.509 280.871,241.176C279.703,242.732 278.535,244.289 277.366,245.845C276.699,246.679 278.145,247.513 278.813,246.679C279.981,245.123 281.149,243.566 282.318,242.01C281.817,241.788 281.316,241.565 280.816,241.343C280.704,241.732 280.537,242.065 280.259,242.399C279.48,243.288 280.704,244.456 281.372,243.622Z" style="fill:rgb(9,11,12);fill-rule:nonzero;"/>
    <path d="M255.669,229.837C254.111,226.724 255.78,225.557 258.895,224.723C259.285,224.612 259.674,224.556 260.008,224.39C261.343,223.778 262.122,222.444 262.679,221.166C263.569,219.276 264.069,217.219 265.238,215.496C267.686,211.772 272.025,211.939 273.416,216.386C274.807,220.832 273.082,225.779 270.134,229.17C268.687,230.837 266.907,232.394 264.793,233.116C262.957,233.783 261.343,233.561 259.563,232.783C258.283,232.227 255.947,231.115 255.613,229.67C255.39,228.614 253.777,229.059 253.999,230.115C254.611,233.005 258.951,234.784 261.566,235.173C264.403,235.617 267.074,234.228 269.243,232.449C274.084,228.447 277.088,221.388 274.751,215.274C272.248,208.66 265.46,211.105 262.957,216.33C262.178,217.942 261.788,220.666 260.509,221.833C258.895,223.334 256.837,222.778 255.168,223.945C252.831,225.612 253.054,228.558 254.222,230.837C254.723,231.671 256.169,230.837 255.669,229.837Z" style="fill:rgb(9,11,12);fill-rule:nonzero;"/>
    <path d="M254.556,228.114C263.179,227.891 267.352,219.887 269.243,212.55C269.522,211.494 267.908,211.05 267.63,212.106C265.961,218.665 262.345,226.224 254.556,226.446C253.499,226.502 253.499,228.169 254.556,228.114Z" style="fill:rgb(9,11,12);fill-rule:nonzero;"/>
    <path d="M231.69,208.715C230.688,209.271 224.624,202.657 222.065,193.819C220.174,187.371 220.73,181.646 221.397,178.033C222.343,175.143 223.679,172.03 225.514,168.862C233.415,155.3 245.877,148.908 252.33,146.184C250.995,147.462 249.437,149.13 247.991,151.242C245.988,154.021 244.709,156.634 243.874,158.802C245.766,157.19 247.935,155.578 250.272,154.021C255.502,150.52 260.564,148.018 264.96,146.24C264.292,149.074 263.569,151.909 262.901,154.688C264.459,153.799 266.629,152.521 269.299,151.242C272.248,149.853 278.312,146.962 279.258,148.241C279.536,148.63 279.202,149.074 278.701,150.686C278.034,152.799 277.811,154.577 277.7,155.744C279.425,155.467 281.372,155.244 283.486,155.189C285.823,155.077 287.937,155.189 289.828,155.355C289.161,157.912 288.493,160.413 287.826,162.97C289.161,163.471 291.052,164.415 293,165.972C298.229,170.252 299.731,176.032 300.121,178.311C300.955,183.758 299.62,188.316 298.619,190.817C295.948,185.148 290.663,182.925 287.659,184.314C285.823,185.148 283.709,187.816 283.931,190.54C283.987,191.151 284.154,191.707 284.321,192.096C282.373,190.317 279.425,187.927 275.586,185.704C271.747,183.481 267.463,180.979 261.788,180.257C251.107,178.867 242.761,184.703 240.536,186.315C237.087,188.761 231.467,192.707 230.466,198.988C229.465,204.269 232.469,208.326 231.69,208.715Z" style="fill:rgb(39,52,67);fill-rule:nonzero;"/>
    <path d="M274.028,184.314C275.753,188.205 278.089,194.264 279.369,201.878C280.704,209.438 282.373,219.165 278.312,229.948C276.921,233.617 273.639,240.676 265.85,247.29C267.686,247.234 270.857,246.901 274.195,245.122C279.647,242.288 282.04,237.563 282.763,235.895C285.378,238.452 288.883,242.454 291.553,248.124C293.055,251.292 294.001,254.238 294.557,256.684C296.06,255.35 298.841,252.459 300.121,247.901C300.622,246.123 300.789,244.511 300.789,243.177C297.562,241.398 295.503,239.23 294.335,237.841C293.834,237.229 288.883,231.004 289.161,222.389C289.272,219.276 289.94,219.22 290.44,214.44C290.885,210.16 290.663,206.547 290.44,204.157C293.278,205.325 294.724,204.769 295.392,204.38C296.672,203.602 297.005,202.212 298.174,195.153C298.786,191.373 299.119,189.483 299.231,188.483C299.898,183.091 300.232,180.368 299.898,178.2C298.953,172.03 295.002,167.917 293.667,166.639C291.442,164.471 289.161,163.248 287.659,162.581C288.326,160.247 288.938,157.856 289.606,155.522C286.435,159.246 283.486,161.803 281.483,163.47C276.476,167.472 273.583,168.417 270.134,172.253C267.408,175.254 265.85,178.311 264.96,180.368C268.02,181.757 271.024,183.036 274.028,184.314Z" style="fill:rgb(73,73,73);fill-opacity:0.11;fill-rule:nonzero;"/>
    <path d="M251.107,146.795C249.215,147.629 244.764,149.964 241.649,154.911C240.87,156.133 239.145,159.19 238.644,163.47C238.088,168.195 239.256,171.919 239.924,173.753C240.146,169.14 241.259,161.692 245.71,154.021C247.435,151.131 249.326,148.741 251.107,146.795Z" style="fill:rgb(73,73,73);fill-opacity:0.17;fill-rule:nonzero;"/>
    <path d="M290.44,204.435C290.273,204.38 289.94,204.991 288.716,209.216C287.047,214.941 286.157,219.165 285.656,221.277C284.933,224.334 283.709,228.67 281.428,233.895C285.378,234.673 289.328,235.451 293.278,236.174C291.831,233.005 290.107,228.447 289.439,222.778C288.382,213.051 290.997,204.547 290.44,204.435Z" style="fill:rgb(73,73,73);fill-opacity:0.08;fill-rule:nonzero;"/>
</svg>
