<?xml version="1.0" encoding="UTF-8" standalone="no"?>
<!DOCTYPE svg PUBLIC "-//W3C//DTD SVG 1.1//EN" "http://www.w3.org/Graphics/SVG/1.1/DTD/svg11.dtd">
<svg width="100%" height="100%" viewBox="0 0 1500 1200" version="1.1" xmlns="http://www.w3.org/2000/svg" xmlns:xlink="http://www.w3.org/1999/xlink" xml:space="preserve" xmlns:serif="http://www.serif.com/" style="fill-rule:evenodd;clip-rule:evenodd;stroke-linejoin:round;stroke-miterlimit:2;">
    <g id="background" transform="matrix(1,0,0,1,-50,0)">
        <g>
            <g>
                <path d="M830,162L574.2,162C572.3,162 572.3,165 574.2,165L830,165C831.9,165 831.9,162 830,162Z" style="fill:rgb(255,251,251);fill-rule:nonzero;"/>
            </g>
        </g>
        <g>
            <g>
                <path d="M682.3,177.2L547.2,177.2C545.3,177.2 545.3,180.2 547.2,180.2L682.3,180.2C684.2,180.2 684.2,177.2 682.3,177.2Z" style="fill:rgb(255,251,251);fill-rule:nonzero;"/>
            </g>
        </g>
        <g>
            <g>
                <path d="M766.9,202.6L568.8,202.6C566.9,202.6 566.9,205.6 568.8,205.6L766.9,205.6C768.8,205.6 768.9,202.6 766.9,202.6Z" style="fill:rgb(255,251,251);fill-rule:nonzero;"/>
            </g>
        </g>
        <g>
            <g>
                <path d="M541.8,863.6L255.5,863.6C253.6,863.6 253.6,866.6 255.5,866.6L541.8,866.6C543.7,866.6 543.7,863.6 541.8,863.6Z" style="fill:rgb(255,251,251);fill-rule:nonzero;"/>
            </g>
        </g>
        <g>
            <g>
                <path d="M397.7,878.8L181.6,878.8C179.7,878.8 179.7,881.8 181.6,881.8L397.7,881.8C399.6,881.8 399.6,878.8 397.7,878.8Z" style="fill:rgb(255,251,251);fill-rule:nonzero;"/>
            </g>
        </g>
        <g>
            <g>
                <path d="M514.8,894L305.9,894C304,894 304,897 305.9,897L514.8,897C516.7,897 516.7,894 514.8,894Z" style="fill:rgb(255,251,251);fill-rule:nonzero;"/>
            </g>
        </g>
        <g>
            <g>
                <path d="M467.9,927.8L403.1,927.8C401.2,927.8 401.2,930.8 403.1,930.8L467.9,930.8C469.9,930.8 469.9,927.8 467.9,927.8Z" style="fill:rgb(255,251,251);fill-rule:nonzero;"/>
            </g>
        </g>
        <g>
            <g>
                <path d="M1377.5,924.5L1141.5,924.5C1139.6,924.5 1139.6,927.5 1141.5,927.5L1377.5,927.5C1379.4,927.5 1379.4,924.5 1377.5,924.5Z" style="fill:rgb(255,251,251);fill-rule:nonzero;"/>
            </g>
        </g>
        <g>
            <g>
                <path d="M1244.2,948.1L1074.9,948.1C1073,948.1 1073,951.1 1074.9,951.1L1244.2,951.1C1246.2,951.1 1246.2,948.1 1244.2,948.1Z" style="fill:rgb(255,251,251);fill-rule:nonzero;"/>
            </g>
        </g>
        <g>
            <g>
                <path d="M1377.5,978.6L1174,978.6C1172.1,978.6 1172.1,981.6 1174,981.6L1377.5,981.6C1379.4,981.6 1379.4,978.6 1377.5,978.6Z" style="fill:rgb(255,251,251);fill-rule:nonzero;"/>
            </g>
        </g>
        <g>
            <g>
                <path d="M1473,119.8L1222.6,119.8C1220.7,119.8 1220.7,122.8 1222.6,122.8L1473,122.8C1474.9,122.8 1474.9,119.8 1473,119.8Z" style="fill:rgb(255,251,251);fill-rule:nonzero;"/>
            </g>
        </g>
        <g>
            <g>
                <path d="M1312.7,101.2L1188.4,101.2C1186.5,101.2 1186.5,104.2 1188.4,104.2L1312.7,104.2C1314.6,104.2 1314.6,101.2 1312.7,101.2Z" style="fill:rgb(255,251,251);fill-rule:nonzero;"/>
            </g>
        </g>
        <g>
            <g>
                <path d="M1292.9,146.8L1125.4,146.8C1123.5,146.8 1123.5,149.8 1125.4,149.8L1292.9,149.8C1294.8,149.8 1294.8,146.8 1292.9,146.8Z" style="fill:rgb(255,251,251);fill-rule:nonzero;"/>
            </g>
        </g>
        <g>
            <g>
                <path d="M282.3,372.4L185.4,372.4C183.5,372.4 183.5,375.4 185.4,375.4L282.3,375.4C284.2,375.4 284.2,372.4 282.3,372.4Z" style="fill:rgb(255,251,251);fill-rule:nonzero;"/>
            </g>
        </g>
        <g>
            <g>
                <path d="M245.5,396L96.3,396C94.4,396 94.4,399 96.3,399L245.5,399C247.4,399 247.4,396 245.5,396Z" style="fill:rgb(255,251,251);fill-rule:nonzero;"/>
            </g>
        </g>
        <g>
            <g>
                <path d="M264.8,425.1L167.9,425.1C166,425.1 166,428.1 167.9,428.1L264.8,428.1C266.8,428.1 266.8,425.1 264.8,425.1Z" style="fill:rgb(255,251,251);fill-rule:nonzero;"/>
            </g>
        </g>
        <g>
            <g>
                <path d="M1453.1,1021.5L1354.3,1021.5C1352.4,1021.5 1352.4,1024.5 1354.3,1024.5L1453.1,1024.5C1455.1,1024.5 1455.1,1021.5 1453.1,1021.5Z" style="fill:rgb(255,251,251);fill-rule:nonzero;"/>
            </g>
        </g>
        <g>
            <g>
                <path d="M1172.7,905.6L1100.4,905.6C1098.5,905.6 1098.5,908.6 1100.4,908.6L1172.7,908.6C1174.6,908.6 1174.6,905.6 1172.7,905.6Z" style="fill:rgb(255,251,251);fill-rule:nonzero;"/>
            </g>
        </g>
        <g>
            <g>
                <path d="M957.6,131.4L792.9,131.4C791,131.4 791,134.4 792.9,134.4L957.6,134.4C959.5,134.4 959.5,131.4 957.6,131.4Z" style="fill:rgb(255,251,251);fill-rule:nonzero;"/>
            </g>
        </g>
        <g>
            <g>
                <path d="M506,229.8L443.6,229.8C441.7,229.8 441.7,232.8 443.6,232.8L506,232.8C507.9,232.8 507.9,229.8 506,229.8Z" style="fill:rgb(255,251,251);fill-rule:nonzero;"/>
            </g>
        </g>
        <g>
            <g>
                <path d="M1444.1,192.3L1326.8,192.3C1324.9,192.3 1324.9,195.3 1326.8,195.3L1444.1,195.3C1446,195.3 1446,192.3 1444.1,192.3Z" style="fill:rgb(255,251,251);fill-rule:nonzero;"/>
            </g>
        </g>
        <g>
            <g>
                <path d="M521,958L401.2,958C399.3,958 399.3,961 401.2,961L521,961C522.9,961 522.9,958 521,958Z" style="fill:rgb(255,251,251);fill-rule:nonzero;"/>
            </g>
        </g>
        <g>
            <g>
                <path d="M234.1,838.6L156.8,838.6C154.9,838.6 154.9,841.6 156.8,841.6L234.1,841.6C236,841.6 236,838.6 234.1,838.6Z" style="fill:rgb(255,251,251);fill-rule:nonzero;"/>
            </g>
        </g>
        <g>
            <g>
                <path d="M209.1,805.8L136.8,805.8C134.9,805.8 134.9,808.8 136.8,808.8L209.1,808.8C211.1,808.8 211.1,805.8 209.1,805.8Z" style="fill:rgb(255,251,251);fill-rule:nonzero;"/>
            </g>
        </g>
        <g>
            <g>
                <path d="M196.7,492L104.4,492C102.5,492 102.5,495 104.4,495L196.7,495C198.6,495 198.6,492 196.7,492Z" style="fill:rgb(255,251,251);fill-rule:nonzero;"/>
            </g>
        </g>
        <g>
            <g>
                <path d="M585.8,681.7L563.3,681.7C561.4,681.7 561.4,684.7 563.3,684.7L585.8,684.7C587.8,684.7 587.8,681.7 585.8,681.7Z" style="fill:rgb(255,251,251);fill-rule:nonzero;"/>
            </g>
        </g>
    </g>
    <g id="_x25_" transform="matrix(1,0,0,1,-50,0)">
        <path d="M573.2,279.8C563.6,303.7 553.4,328 542.4,352.6C511,422.8 477.4,487.4 443.1,546.2C435.2,526.7 427.3,507.2 419.4,487.7C405.1,502.2 390.7,516.7 376.4,531.2C368.5,527.1 360.7,523 352.8,519C354.3,527.4 355.8,535.8 357.3,544.3C352.1,538.2 346.9,532.1 341.7,526C340.3,535.2 339,544.5 337.6,553.7C315.4,569.5 292.5,585.4 269,601.3C229.6,627.9 190.7,652.8 152.7,676.2C160.5,665.9 168.3,655.6 176.1,645.3C174.7,638.5 173.2,631.7 171.8,624.9C180.1,627.2 188.5,629.5 196.8,631.8C213.8,609.8 232.3,587.3 252.4,564.4C294.4,516.6 336.7,474.9 377.1,438.9C371.2,433.8 365.3,428.7 359.4,423.5C370.1,423.8 380.8,424.2 391.4,424.5C381.2,415.2 371.1,406 360.9,396.7C375.9,401.5 390.8,406.2 405.8,411C413.2,401.2 420.6,391.5 427.9,381.7C438.2,399 448.4,416.4 458.7,433.7C465.9,424.2 473.1,414.6 480.2,405.1C471.8,399.8 463.4,394.4 455.1,389.1C465,389.4 474.8,389.7 484.7,389.9C473.6,381.5 462.6,373.1 451.5,364.6C468,368 484.4,371.3 500.9,374.7C525,343.2 549.1,311.5 573.2,279.8Z" style="fill:white;fill-rule:nonzero;"/>
        <path d="M419.8,702.5C421.8,699.8 424.8,696.1 428.9,692.1C435.7,685.6 439.8,681.6 443.8,682.4C448.8,683.5 450.9,691.8 451.3,696.6C452,704.6 448.6,710.8 445.9,715.8C429.2,746.4 433.9,740.5 428.1,749.5C425.8,753 416.7,766.7 401.9,783.1C394,791.8 397.1,787.3 377.9,806.9C370.2,814.7 360.9,821.1 352.8,828.5C350.3,830.8 345.9,834.8 339.8,835C339.2,835 333.7,835.1 329.8,831.5C324.4,826.6 325.9,818.2 326.9,812.9C329.4,799.2 338.3,789.3 344.3,783.9C329.1,770.4 327.6,767.2 328.2,766.4C328.9,765.6 332.6,766.1 351.5,777.1C346.2,768.4 340.8,759.6 335.5,750.9C344.3,754.5 353.1,758 361.9,761.6C355,755.7 348,749.7 341.1,743.8C350.3,746.3 359.5,748.9 368.7,751.4C376.3,743.3 383.9,735.2 391.5,727.1C387.6,721.9 383.7,716.7 379.8,711.4C379.7,710 379.5,708.5 379.4,707.1C387.3,710.2 395.1,713.3 403,716.4C394,704.9 385,693.4 376,681.9C385,688.9 394,695.9 403,702.9C401,698.5 399,694.2 396.9,689.8C404.4,694.1 412.1,698.3 419.8,702.5Z" style="fill:white;fill-rule:nonzero;"/>
        <path d="M363,140.2C365.9,139.9 370,139.9 374.4,141.4C389.7,146.7 392.9,165.7 393.2,167.9C393.9,172.6 393.9,179.1 386.9,196.3C383.4,204.9 377.7,217.2 363.2,239.6C360.9,243.1 350.9,258.5 335.2,276.1C328.4,283.8 321.2,291.1 310.7,292.4C308.8,292.6 303.3,293.2 297.2,290.7C290.8,288.1 287.5,283.6 286.1,281.7C276.1,268.3 283.7,248.9 284.5,247.1C278.5,239.2 272.5,231.4 266.5,223.5C277.2,225.5 287.9,227.5 298.7,229.5C290,220.6 281.3,211.6 272.5,202.7C282.3,206.2 292.1,209.7 301.9,213.2C308.5,198.3 315.2,183.4 321.8,168.5C318.1,161.5 314.3,154.4 310.6,147.4C321.8,150.2 333.1,153 344.3,155.8C330.7,143.8 317.2,131.8 303.6,119.8C311.2,122.1 318.7,124.5 326.3,126.8C323.3,121.5 320.4,116.2 317.4,110.9C332.6,120.7 347.8,130.5 363,140.2Z" style="fill:white;fill-rule:nonzero;"/>
        <g>
            <g>
                <path d="M573.1,279.5C546.7,341.9 517.6,403.1 485.7,462.9C476.5,480.1 467.2,497.1 457.6,514.1C456.6,515.8 459.2,517.3 460.2,515.6C493.6,456.6 524.4,396.1 552.4,334.3C560.4,316.7 568.1,298.9 575.7,281C576.4,279.3 573.9,277.8 573.1,279.5Z" style="fill:rgb(22,22,22);fill-rule:nonzero;"/>
            </g>
        </g>
        <g>
            <g>
                <path d="M571.9,279C547.8,311.3 523,343.2 497.7,374.6C496.5,376.1 498.6,378.2 499.8,376.7C525.3,345.1 550.2,313 574.5,280.5C575.7,279 573,277.5 571.9,279Z" style="fill:rgb(22,22,22);fill-rule:nonzero;"/>
            </g>
        </g>
        <g>
            <g>
                <path d="M501.9,376.8C496.3,374.6 490.8,372.3 485.2,370.1C483.4,369.4 482.6,372.3 484.4,373C490,375.2 495.5,377.5 501.1,379.7C502.9,380.4 503.7,377.5 501.9,376.8Z" style="fill:rgb(22,22,22);fill-rule:nonzero;"/>
            </g>
        </g>
        <g>
            <g>
                <path d="M493.2,378.7C480.8,374.1 468.5,369.6 456.1,365C454.3,364.3 453.5,367.2 455.3,367.9C467.7,372.5 480,377 492.4,381.6C494.2,382.3 495,379.4 493.2,378.7Z" style="fill:rgb(22,22,22);fill-rule:nonzero;"/>
            </g>
        </g>
        <g>
            <g>
                <path d="M485.4,384C479.5,381.9 473.6,379.8 467.8,377.7C466,377.1 465.2,380 467,380.6C472.9,382.7 478.8,384.8 484.6,386.9C486.4,387.5 487.2,384.6 485.4,384Z" style="fill:rgb(22,22,22);fill-rule:nonzero;"/>
            </g>
        </g>
        <g>
            <g>
                <path d="M482.7,393.8C471.6,390.1 460.7,385.8 450,380.9C448.3,380.1 446.7,382.7 448.5,383.5C459.4,388.5 470.5,392.9 481.9,396.7C483.8,397.3 484.6,394.4 482.7,393.8Z" style="fill:rgb(22,22,22);fill-rule:nonzero;"/>
            </g>
        </g>
        <g>
            <g>
                <path d="M479,403.2C476.5,402.4 473.9,401.6 471.4,400.7C469.6,400.1 468.8,403 470.6,403.6C473.1,404.4 475.7,405.2 478.2,406.1C480,406.7 480.8,403.8 479,403.2Z" style="fill:rgb(22,22,22);fill-rule:nonzero;"/>
            </g>
        </g>
        <g>
            <g>
                <path d="M471.5,411.9C466.6,418.1 461.7,424.3 456.9,430.5C455.7,432 457.8,434.1 459,432.6C463.9,426.4 468.8,420.2 473.6,414C474.8,412.5 472.7,410.4 471.5,411.9Z" style="fill:rgb(22,22,22);fill-rule:nonzero;"/>
            </g>
        </g>
        <g>
            <g>
                <path d="M458.3,429.9C447.1,414.5 437.4,398.2 429.1,381.1C428.3,379.4 425.7,380.9 426.5,382.6C434.8,399.7 444.5,416 455.7,431.4C456.9,433 459.5,431.5 458.3,429.9Z" style="fill:rgb(22,22,22);fill-rule:nonzero;"/>
            </g>
        </g>
        <g>
            <g>
                <path d="M426.5,379.3C418.3,388 410.9,397.5 404.6,407.7C403.6,409.3 406.2,410.9 407.2,409.2C413.4,399.2 420.6,389.9 428.7,381.4C429.9,380 427.8,377.8 426.5,379.3Z" style="fill:rgb(22,22,22);fill-rule:nonzero;"/>
            </g>
        </g>
        <g>
            <g>
                <path d="M407,409.3C398.9,405.8 390.8,402.4 382.7,398.9C380.9,398.1 379.4,400.7 381.2,401.5C389.3,405 397.4,408.4 405.5,411.9C407.2,412.6 408.8,410 407,409.3Z" style="fill:rgb(22,22,22);fill-rule:nonzero;"/>
            </g>
        </g>
        <g>
            <g>
                <path d="M389.4,410.2C382.1,406.7 374.9,403.3 367.6,399.8C365.9,399 364.3,401.6 366.1,402.4C373.4,405.9 380.6,409.3 387.9,412.8C389.6,413.6 391.1,411 389.4,410.2Z" style="fill:rgb(22,22,22);fill-rule:nonzero;"/>
            </g>
        </g>
        <g>
            <g>
                <path d="M389.2,422.4C384.9,420.1 380.7,417.7 376.4,415.4C374.7,414.5 373.2,417.1 374.9,418C379.2,420.3 383.4,422.7 387.7,425C389.3,425.9 390.9,423.3 389.2,422.4Z" style="fill:rgb(22,22,22);fill-rule:nonzero;"/>
            </g>
        </g>
        <g>
            <g>
                <path d="M380.1,432.6C372.9,430.5 366.3,427.1 360.4,422.5C358.9,421.3 356.8,423.4 358.3,424.6C364.6,429.6 371.6,433.2 379.4,435.5C381.2,436.1 381.9,433.2 380.1,432.6Z" style="fill:rgb(22,22,22);fill-rule:nonzero;"/>
            </g>
        </g>
        <g>
            <g>
                <path d="M371.1,440.6C325,489.5 279.3,538.7 234,588.4C221.1,602.5 208.3,616.6 195.5,630.8C194.2,632.2 196.3,634.4 197.6,632.9C242.6,583.1 288,533.6 333.9,484.5C346.9,470.5 360,456.6 373.1,442.7C374.6,441.3 372.5,439.2 371.1,440.6Z" style="fill:rgb(22,22,22);fill-rule:nonzero;"/>
            </g>
        </g>
        <g>
            <g>
                <path d="M462.6,504.5C455,517.8 448,531.4 441.8,545.4C442.7,545.5 443.6,545.6 444.5,545.8C437.9,525.6 430,506 420.6,486.9C419.7,485.2 417.2,486.7 418,488.4C427.2,507.2 435.1,526.6 441.6,546.6C442,547.7 443.8,548.2 444.3,547C450.5,533 457.5,519.4 465.1,506.1C466.2,504.4 463.6,502.9 462.6,504.5Z" style="fill:rgb(22,22,22);fill-rule:nonzero;"/>
            </g>
        </g>
        <g>
            <g>
                <path d="M417.6,488.9C403.5,502.6 389.4,516.4 375.3,530.1C373.9,531.4 376,533.6 377.4,532.2C391.5,518.5 405.6,504.7 419.7,491C421.1,489.6 419,487.5 417.6,488.9Z" style="fill:rgb(22,22,22);fill-rule:nonzero;"/>
            </g>
        </g>
        <g>
            <g>
                <path d="M374.4,532C371.4,529.6 368.5,527.2 365.5,524.8C364,523.6 361.9,525.7 363.4,526.9C366.4,529.3 369.3,531.7 372.3,534.1C373.8,535.3 375.9,533.2 374.4,532Z" style="fill:rgb(22,22,22);fill-rule:nonzero;"/>
            </g>
        </g>
        <g>
            <g>
                <path d="M363.9,531.8C358.3,528 353.4,523.4 349.3,518C348.2,516.5 345.5,518 346.7,519.5C351.1,525.3 356.3,530.3 362.4,534.4C364,535.5 365.5,532.9 363.9,531.8Z" style="fill:rgb(22,22,22);fill-rule:nonzero;"/>
            </g>
        </g>
        <g>
            <g>
                <path d="M357.5,539.5C352.6,534.6 347.6,529.7 342.7,524.8C341.3,523.4 339.2,525.6 340.6,526.9C345.5,531.8 350.5,536.7 355.4,541.6C356.7,543 358.9,540.9 357.5,539.5Z" style="fill:rgb(22,22,22);fill-rule:nonzero;"/>
            </g>
        </g>
        <g>
            <g>
                <path d="M198.9,633.3C194.5,630.4 190.1,627.5 185.6,624.6C184,623.5 182.5,626.1 184.1,627.2C188.5,630.1 192.9,633 197.4,635.9C199,637 200.5,634.4 198.9,633.3Z" style="fill:rgb(22,22,22);fill-rule:nonzero;"/>
            </g>
        </g>
        <g>
            <g>
                <path d="M182.6,631.4C179.2,628.8 175.8,626.2 172.4,623.6C170.9,622.4 169.4,625 170.9,626.2C174.3,628.8 177.7,631.4 181.1,634C182.6,635.1 184.1,632.5 182.6,631.4Z" style="fill:rgb(22,22,22);fill-rule:nonzero;"/>
            </g>
        </g>
        <g>
            <g>
                <path d="M180.8,642.2C178.8,640.6 176.7,639 174.7,637.3C173.2,636.1 171.1,638.2 172.6,639.4C174.6,641 176.7,642.6 178.7,644.3C180.2,645.5 182.3,643.4 180.8,642.2Z" style="fill:rgb(22,22,22);fill-rule:nonzero;"/>
            </g>
        </g>
        <g>
            <g>
                <path d="M336.7,552.4C276.4,595.3 214.7,636.1 151.7,674.9C150.1,675.9 151.6,678.5 153.2,677.5C216.2,638.7 277.9,597.9 338.2,555C339.8,553.9 338.3,551.2 336.7,552.4Z" style="fill:rgb(22,22,22);fill-rule:nonzero;"/>
            </g>
        </g>
        <g>
            <g>
                <path d="M363.2,802C376.1,792.9 388,782.5 398.7,770.8C408.7,759.8 419.4,747.2 424.9,733.2C426.6,728.7 429.9,719.3 426.2,715C423.2,711.5 418.4,714.1 415.7,716.6C409.2,722.5 403.6,730 397.9,736.7C392.2,743.4 386.6,750.2 381,757C375,764.4 369.1,772 363.4,779.6C358.3,786.4 353.2,793.7 353.7,802.6C353.8,803.6 354.6,804.3 355.6,804C359.2,803.1 362.2,801.8 365.2,799.7C366.8,798.6 365.3,796 363.7,797.1C360.9,799 358.1,800.3 354.9,801.1C355.5,801.6 356.2,802.1 356.8,802.5C356.3,792.6 363.3,784.7 368.9,777.3C374.5,769.9 380.3,762.6 386.1,755.4C391.7,748.6 397.3,741.8 403.1,735.1C406,731.8 408.9,728.4 411.8,725.1C413.8,722.9 422.8,711 424.6,720.3C425.5,724.7 422.7,731.1 420.8,735.1C419.1,738.8 416.9,742.3 414.7,745.7C410.1,752.6 405,759.2 399.5,765.5C388.4,778.3 375.7,789.6 361.8,799.4C360.1,800.5 361.6,803.1 363.2,802Z" style="fill:rgb(22,22,22);fill-rule:nonzero;"/>
            </g>
        </g>
        <g>
            <g>
                <path d="M402.9,784.2C412.7,773.6 421.6,762.3 429.4,750.1C437.2,738 444.8,725 449,711.2C451.3,703.8 455.8,685.4 445.6,681.4C440.8,679.5 436.3,683.5 432.8,686.4C427.4,690.9 422.6,696.1 418.4,701.7C417.2,703.2 419.8,704.7 421,703.2C424.6,698.5 428.6,694.1 433,690.2C435.1,688.4 437.4,685.8 440,684.8C445.8,682.4 448,687 448.5,691.5C449.9,703.7 444.6,716.1 439.3,726.8C429.2,747 416.1,765.5 400.7,782.1C399.5,783.5 401.6,785.6 402.9,784.2Z" style="fill:rgb(22,22,22);fill-rule:nonzero;"/>
            </g>
        </g>
        <g>
            <g>
                <path d="M421.5,703.5C413.5,698.5 405.5,693.5 397.4,688.6C395.8,687.6 394.2,690.2 395.9,691.2C403.9,696.2 411.9,701.2 420,706.1C421.6,707.1 423.1,704.5 421.5,703.5Z" style="fill:rgb(22,22,22);fill-rule:nonzero;"/>
            </g>
        </g>
        <g>
            <g>
                <path d="M404,701.3C394.1,695.5 385.1,688.8 376.8,680.9C375.4,679.6 373.3,681.7 374.7,683C383.2,691 392.5,698 402.5,703.9C404.1,704.9 405.6,702.3 404,701.3Z" style="fill:rgb(22,22,22);fill-rule:nonzero;"/>
            </g>
        </g>
        <g>
            <g>
                <path d="M403.3,711.6C398.9,708.7 394.5,705.8 390.1,702.9C388.5,701.8 387,704.4 388.6,705.5C393,708.4 397.4,711.3 401.8,714.2C403.4,715.2 404.9,712.6 403.3,711.6Z" style="fill:rgb(22,22,22);fill-rule:nonzero;"/>
            </g>
        </g>
        <g>
            <g>
                <path d="M397,718.5C390.6,715.5 385,711.4 380.2,706.1C378.9,704.7 376.8,706.8 378.1,708.2C383,713.6 388.9,717.9 395.5,721C397.2,721.9 398.8,719.3 397,718.5Z" style="fill:rgb(22,22,22);fill-rule:nonzero;"/>
            </g>
        </g>
        <g>
            <g>
                <path d="M393.2,788.1C379.9,802.6 367.2,817.9 350.3,828.4C346.1,831 341.4,833.9 336.3,834.2C329.7,834.5 325.8,829.2 325.9,823C326.1,813.2 333,802.8 338.4,795C339.5,793.4 336.9,791.9 335.8,793.5C330,802 321.8,814.5 323,825.4C323.9,834.1 331.4,838.7 339.7,836.8C350,834.4 359.9,826.2 367.7,819.3C377.7,810.5 386.4,800.1 395.4,790.3C396.6,788.8 394.5,786.6 393.2,788.1Z" style="fill:rgb(22,22,22);fill-rule:nonzero;"/>
            </g>
        </g>
        <g>
            <g>
                <path d="M362.4,757.4C354.7,753.1 347.6,748 341.2,741.9C339.8,740.6 337.7,742.7 339.1,744C345.7,750.2 353,755.5 360.9,759.9C362.6,761 364.1,758.4 362.4,757.4Z" style="fill:rgb(22,22,22);fill-rule:nonzero;"/>
            </g>
        </g>
        <g>
            <g>
                <path d="M354.7,759.7C348.4,756.6 342.7,752.6 337.6,747.8C336.2,746.5 334.1,748.6 335.5,749.9C340.7,754.9 346.7,759.1 353.2,762.3C354.9,763.2 356.4,760.6 354.7,759.7Z" style="fill:rgb(22,22,22);fill-rule:nonzero;"/>
            </g>
        </g>
        <g>
            <g>
                <path d="M351.4,773.3C344.7,769.4 338.4,765 332.4,760C330.9,758.8 328.8,760.9 330.3,762.1C336.4,767.2 343,771.8 349.9,775.8C351.5,776.8 353.1,774.2 351.4,773.3Z" style="fill:rgb(22,22,22);fill-rule:nonzero;"/>
            </g>
        </g>
        <g>
            <g>
                <path d="M345,782.7C341.1,781 337.5,778.8 334.2,776.1C332.7,774.9 330.6,777 332.1,778.2C335.6,781.1 339.4,783.4 343.5,785.3C345.3,786.1 346.8,783.5 345,782.7Z" style="fill:rgb(22,22,22);fill-rule:nonzero;"/>
            </g>
        </g>
        <g>
            <g>
                <path d="M366.4,141.6C382,141.8 392,156.6 391.8,171.1C391.6,187.2 382.8,203 375.3,216.8C368.1,230.1 359.8,242.8 350.6,254.7C345.8,260.9 340.7,267 335.4,272.8C330.5,278.2 325.5,283.8 319.2,287.6C311.2,292.4 301.7,292.4 293.9,287.4C285.8,282.2 282.2,272.7 282.7,263.3C282.8,261.4 279.8,261.4 279.7,263.3C278.9,278.5 288.8,292.8 304.6,294.2C321.6,295.8 334.1,279.2 343.9,267.7C356.1,253.4 366.9,237.9 376.1,221.5C384.7,206.1 395.2,187.7 394.7,169.5C394.2,153.9 382.7,138.9 366.3,138.7C364.4,138.6 364.4,141.6 366.4,141.6Z" style="fill:rgb(22,22,22);fill-rule:nonzero;"/>
            </g>
        </g>
        <g>
            <g>
                <path d="M357.5,216.4C365.1,204.1 369.5,190 369.4,175.5C369.4,171.3 369,166.1 364.9,163.9C360.1,161.3 354.9,164.9 351.6,168.3C340.8,179.5 332.9,194 325,207.2C317.4,219.8 309.9,232.7 308.5,247.6C308.3,249.5 311.3,249.5 311.5,247.6C312.7,235 318.5,223.9 324.9,213.2C331,202.9 337.2,192.5 344.2,182.7C347.7,177.7 351.7,170.6 357.1,167.5C366.5,162.1 366.8,173.5 366.5,179.6C365.8,192.1 361.7,204.1 355.1,214.8C353.9,216.5 356.5,218 357.5,216.4Z" style="fill:rgb(22,22,22);fill-rule:nonzero;"/>
            </g>
        </g>
        <g>
            <g>
                <path d="M362.6,145.9C347.9,133.9 333.2,122 318.5,110C317,108.8 314.9,110.9 316.4,112.1C331.1,124.1 345.8,136 360.5,148C361.9,149.2 364.1,147.1 362.6,145.9Z" style="fill:rgb(22,22,22);fill-rule:nonzero;"/>
            </g>
        </g>
        <g>
            <g>
                <path d="M348.6,143.7C340.4,137.6 332.4,131.1 324.7,124.3C323.3,123 321.1,125.1 322.6,126.4C330.5,133.4 338.6,140 347.1,146.2C348.7,147.5 350.2,144.9 348.6,143.7Z" style="fill:rgb(22,22,22);fill-rule:nonzero;"/>
            </g>
        </g>
        <g>
            <g>
                <path d="M344.5,153C331.2,141.6 317.9,130.2 304.6,118.9C303.1,117.7 301,119.8 302.5,121C315.8,132.4 329.1,143.8 342.4,155.1C343.9,156.4 346,154.3 344.5,153Z" style="fill:rgb(22,22,22);fill-rule:nonzero;"/>
            </g>
        </g>
        <g>
            <g>
                <path d="M335,166.8C327.2,160 319.4,153.2 311.6,146.4C310.2,145.1 308,147.2 309.5,148.5C317.3,155.3 325.1,162.1 332.9,168.9C334.3,170.2 336.5,168.1 335,166.8Z" style="fill:rgb(22,22,22);fill-rule:nonzero;"/>
            </g>
        </g>
        <g>
            <g>
                <path d="M322.1,171.8C315.6,183.3 309.1,194.7 302.5,206.2C301.5,207.9 304.1,209.4 305.1,207.7C311.6,196.2 318.1,184.8 324.7,173.3C325.6,171.7 323,170.2 322.1,171.8Z" style="fill:rgb(22,22,22);fill-rule:nonzero;"/>
            </g>
        </g>
        <g>
            <g>
                <path d="M301.9,213.6C297.4,211.1 293.1,208.2 289.1,205C287.6,203.8 285.5,205.9 287,207.1C291.2,210.5 295.7,213.5 300.4,216.2C302.1,217.1 303.6,214.5 301.9,213.6Z" style="fill:rgb(22,22,22);fill-rule:nonzero;"/>
            </g>
        </g>
        <g>
            <g>
                <path d="M299.1,221.2C289.7,215.8 281.2,209.4 273.5,201.7C272.1,200.3 270,202.5 271.4,203.8C279.2,211.6 288,218.2 297.6,223.7C299.3,224.8 300.8,222.2 299.1,221.2Z" style="fill:rgb(22,22,22);fill-rule:nonzero;"/>
            </g>
        </g>
        <g>
            <g>
                <path d="M289.5,231C282.9,227.1 276.4,223.1 269.8,219.2C268.1,218.2 266.6,220.8 268.3,221.8C274.9,225.7 281.4,229.7 288,233.6C289.7,234.6 291.2,232 289.5,231Z" style="fill:rgb(22,22,22);fill-rule:nonzero;"/>
            </g>
        </g>
        <g>
            <g>
                <path d="M291.3,246.4C287.4,244.4 283.8,242 280.4,239.2C278.9,238 276.8,240.1 278.3,241.3C281.9,244.3 285.7,246.9 289.8,249C291.5,249.9 293.1,247.3 291.3,246.4Z" style="fill:rgb(22,22,22);fill-rule:nonzero;"/>
            </g>
        </g>
    </g>
    <g id="hand_right" transform="matrix(1,0,0,1,-50,0)">
        <path d="M1210.6,444.8C1214.4,453.8 1220.4,468.3 1227.3,486.2C1247.9,539.5 1251.7,557.9 1271.2,571.4C1279.8,577.3 1289.1,579.5 1307.5,584C1346.9,593.6 1380.8,593.9 1403.6,592.5C1403.4,603 1403.2,613.5 1403,624C1352.9,634.4 1312.2,638.1 1283.6,639.5C1269.9,640.2 1257.9,641.2 1244.4,635.9C1210.8,622.6 1199.1,584.2 1195.4,569.2C1189.6,569.7 1183.9,570.1 1178.1,570.6C1180.7,567.1 1183.7,563.5 1187.1,559.7C1191.2,555.2 1195.2,551.3 1199,548C1190.6,551.8 1182.2,555.6 1173.8,559.4C1178.6,552.5 1183.4,545.7 1188.2,538.8C1180.3,541.2 1172.4,543.6 1164.5,546C1166.4,541 1168.3,536.1 1170.3,531.1C1161,515.5 1151.6,499.9 1142.3,484.3C1165,471.2 1187.8,458 1210.6,444.8Z" style="fill:rgb(255,242,137);fill-rule:nonzero;stroke:url(#_Linear1);stroke-width:2px;"/>
        <path d="M1401.8,592.8C1403.8,592.5 1405.8,592.1 1407.8,591.8C1409.8,589.4 1413.2,586.1 1418.1,583.2C1425.1,579.1 1431.4,578 1432.9,577.8C1436.4,577.3 1448,575.5 1458.3,582.4C1460.4,583.8 1466.1,588 1468.9,595.4C1469.4,596.6 1470.8,600.6 1470.4,607.8C1469.8,618.3 1465.8,626.9 1461.9,632.9C1461,633.6 1458,635.6 1454.4,635.1C1449.6,634.4 1445.5,629.5 1445.5,623.2C1434.6,625.6 1425.5,626.5 1419,626.8C1407.3,627.4 1404.2,626.1 1402.7,624.2C1399.5,620 1403.1,612.9 1403.9,611.4C1403.2,605.1 1402.5,598.9 1401.8,592.8Z" style="fill:white;fill-rule:nonzero;"/>
        <path d="M1520.5,679.5C1520.4,679.9 1515.1,692.8 1514.9,693.2C1508.2,709.7 1491.7,750.2 1490.2,753.8C1482.8,772 1467.8,803.3 1434.7,860.1C1421.2,863.9 1409.7,865.2 1401.7,865.7C1371.7,867.4 1347.9,859.8 1332.9,854.8C1323.5,851.7 1315.9,848.5 1310.8,846.1C1303.9,838.5 1296.5,829.6 1289.3,819.2C1283.4,810.7 1278.5,802.5 1274.4,795C1280.2,790.8 1288.5,784.7 1298.3,777C1313.9,764.7 1329.7,752.3 1340.6,740.7C1351,729.6 1365.9,709.7 1374.1,676.5C1379.7,677.3 1385.5,678.3 1391.4,679.3C1404.7,681.7 1417.2,684.6 1428.8,687.7C1441.5,684.8 1454.4,682 1467.7,679.3C1477.1,677.4 1486.4,675.6 1495.6,673.9C1492,679.5 1490.9,683.3 1492.5,685.2C1494.9,688.3 1504.3,686.4 1520.5,679.5Z" style="fill:white;fill-rule:nonzero;"/>
        <path d="M1432.9,577.8C1440.5,578.8 1444.6,586.3 1447.2,590.9C1449.7,595.4 1454.4,603.9 1450.5,612.5C1447,620.5 1438.3,623.6 1434.2,625.1C1426.6,627.8 1419.8,627.3 1415.9,626.9C1410.4,626.4 1406,625.1 1403,623.9C1403.5,618.5 1403.6,612.4 1403.2,605.7C1402.9,601 1402.4,596.7 1401.7,592.7C1404.9,592.2 1408,591.6 1411.2,591.1C1412.4,589.1 1414.5,585.9 1418.3,583C1420.7,581.2 1426.4,576.9 1432.9,577.8Z" style="fill:rgb(96,96,96);fill-opacity:0.05;fill-rule:nonzero;"/>
        <path d="M1519.9,679.9C1514.8,683.3 1508.8,686.8 1501.9,690.2C1490.2,695.8 1479.2,699.2 1470.2,701.3C1467.5,718.1 1463,737.1 1455.5,757.5C1437.2,807.1 1409,843.1 1387.4,865.9C1396.7,865.7 1407,865.1 1418.2,863.5C1425.5,862.5 1432.4,861.2 1438.7,859.8C1444.5,848.6 1452.4,833.1 1461.6,814.6C1469.4,798.8 1478.4,780.5 1487.3,760.8C1496.2,741 1507.8,713.7 1519.9,679.9Z" style="fill:rgb(96,96,96);fill-opacity:0.07;fill-rule:nonzero;"/>
        <g>
            <g>
                <path d="M1408.4,593.1C1415.8,584.7 1426.2,579.6 1437.3,578.7C1442.5,578.3 1448.1,578.5 1452.9,580.6C1456.8,582.2 1459.4,585.7 1459.9,589.9C1460.2,591 1460.1,592.1 1459.9,593.2C1457.6,593.8 1455.2,594.4 1452.9,595C1451.1,594.4 1449.5,591.6 1448.5,590.2C1447.4,588.6 1444.8,590.1 1445.9,591.7C1449.2,596.3 1457.1,603.1 1461.9,596C1466.2,589.6 1460.4,580.6 1454.4,577.9C1438.4,570.8 1417.3,578.5 1406.3,591C1405,592.5 1407.1,594.6 1408.4,593.1Z" style="fill:rgb(22,22,22);fill-rule:nonzero;"/>
            </g>
        </g>
        <g>
            <g>
                <path d="M1460.1,585.3C1464.5,589.9 1471.2,597 1466.1,603.5C1464,606.2 1460.5,608 1457.1,608.1C1452.7,608.2 1447.9,604 1450.8,599.5C1451.9,597.9 1449.3,596.4 1448.2,598C1446,601.4 1446.7,605.7 1449.7,608.6C1453.2,611.9 1458.5,611.7 1462.7,609.9C1467.5,607.8 1471.1,603.6 1470.9,598.2C1470.7,592.1 1466.3,587.5 1462.3,583.3C1460.9,581.8 1458.8,584 1460.1,585.3Z" style="fill:rgb(22,22,22);fill-rule:nonzero;"/>
            </g>
        </g>
        <g>
            <g>
                <path d="M1467.6,605.2C1472,610 1464.9,618.4 1459.9,619C1453.9,619.7 1450.6,612.9 1452.5,607.8C1453.2,606 1450.3,605.2 1449.6,607C1446.9,614.1 1452.8,624.3 1461.2,622.2C1468.4,620.4 1475.4,609.5 1469.6,603.1C1468.4,601.6 1466.3,603.8 1467.6,605.2Z" style="fill:rgb(22,22,22);fill-rule:nonzero;"/>
            </g>
        </g>
        <g>
            <g>
                <path d="M1467.6,612.7C1467.1,617.9 1468.7,626.2 1461.6,627.4C1454.6,628.6 1450.8,621.7 1450.9,615.6C1450.9,613.7 1447.9,613.7 1447.9,615.6C1447.8,623.4 1452.7,631.1 1461.3,630.4C1471,629.6 1469.9,619.7 1470.6,612.6C1470.8,610.8 1467.8,610.8 1467.6,612.7Z" style="fill:rgb(22,22,22);fill-rule:nonzero;"/>
            </g>
        </g>
        <g>
            <g>
                <path d="M1462,629.5C1463,633.2 1458.3,634.6 1455.7,633.8C1453.6,633.2 1451.9,631.4 1450.7,629.6C1448.4,626.1 1447.4,621.1 1450.4,617.7C1451.7,616.3 1449.6,614.1 1448.3,615.6C1443.1,621.3 1445.8,630.5 1451.5,634.9C1454.2,637 1457.7,637.9 1460.9,636.4C1463.9,635 1465.8,632 1464.9,628.7C1464.4,626.8 1461.5,627.6 1462,629.5Z" style="fill:rgb(22,22,22);fill-rule:nonzero;"/>
            </g>
        </g>
        <g>
            <g>
                <path d="M1448.6,605.5C1436,634.3 1421.3,662 1404.6,688.6C1403.6,690.2 1406.2,691.7 1407.2,690.1C1423.9,663.5 1438.6,635.8 1451.2,607C1452,605.3 1449.4,603.8 1448.6,605.5Z" style="fill:rgb(22,22,22);fill-rule:nonzero;"/>
            </g>
        </g>
        <g>
            <g>
                <path d="M1448.2,602.8C1424.7,628.6 1399.6,652.9 1373.1,675.5C1371.6,676.8 1373.8,678.9 1375.2,677.6C1401.8,655 1426.9,630.7 1450.3,604.9C1451.6,603.5 1449.5,601.3 1448.2,602.8Z" style="fill:rgb(22,22,22);fill-rule:nonzero;"/>
            </g>
        </g>
        <g>
            <g>
                <path d="M1521,678.8C1500.6,662.9 1482.2,644.5 1466.4,623.9C1465.2,622.4 1462.6,623.9 1463.8,625.4C1479.7,646.2 1498.2,664.8 1518.9,680.9C1520.3,682.1 1522.5,680 1521,678.8Z" style="fill:rgb(22,22,22);fill-rule:nonzero;"/>
            </g>
        </g>
        <g>
            <g>
                <path d="M1519.7,678.2C1511.3,682.6 1502.2,684.2 1492.7,683.3C1493.2,683.8 1493.7,684.3 1494.2,684.8C1494.7,681.2 1495.6,677.8 1496.9,674.4C1497.6,672.6 1494.7,671.8 1494,673.6C1492.5,677.3 1491.6,680.9 1491.2,684.8C1491.1,685.7 1492,686.2 1492.7,686.3C1502.6,687.2 1512.3,685.3 1521.2,680.7C1522.9,679.9 1521.4,677.3 1519.7,678.2Z" style="fill:rgb(22,22,22);fill-rule:nonzero;"/>
            </g>
        </g>
        <g>
            <g>
                <path d="M1496.3,673.6C1485.2,659.7 1474.1,645.7 1463,631.8C1461.8,630.3 1459.7,632.4 1460.9,633.9C1472,647.8 1483.1,661.8 1494.2,675.7C1495.4,677.2 1497.5,675.1 1496.3,673.6Z" style="fill:rgb(22,22,22);fill-rule:nonzero;"/>
            </g>
        </g>
        <g>
            <g>
                <path d="M1490.8,671.4C1472.5,676.1 1453.9,682.1 1435.3,685.3C1425.1,687 1415.9,684.7 1406,682.2C1396.7,679.9 1387.4,677.5 1378.1,675.2C1376.2,674.7 1375.4,677.6 1377.3,678.1C1387.2,680.6 1397.2,683.1 1407.1,685.6C1416.1,687.8 1424.5,689.8 1433.8,688.6C1442.9,687.3 1451.9,684.5 1460.8,682.2C1471.1,679.6 1481.3,676.9 1491.6,674.3C1493.5,673.9 1492.7,671 1490.8,671.4Z" style="fill:rgb(22,22,22);fill-rule:nonzero;"/>
            </g>
        </g>
        <g>
            <g>
                <path d="M1518.4,677.1C1484.5,702.2 1439.3,710 1398.7,698.8C1399,699.5 1399.3,700.3 1399.6,701C1401.7,697.2 1403.8,693.4 1406,689.6C1406.9,687.9 1404.3,686.4 1403.4,688.1C1401.3,691.9 1399.2,695.7 1397,699.5C1396.5,700.3 1396.9,701.4 1397.9,701.7C1439.2,713.1 1485.4,705.2 1519.9,679.7C1521.4,678.6 1519.9,676 1518.4,677.1Z" style="fill:rgb(22,22,22);fill-rule:nonzero;"/>
            </g>
        </g>
        <g>
            <g>
                <path d="M1405.4,686.2C1394.2,685.3 1383.7,681.8 1374.3,675.6C1372.7,674.5 1371.2,677.1 1372.8,678.2C1382.6,684.7 1393.7,688.3 1405.4,689.2C1407.4,689.3 1407.4,686.3 1405.4,686.2Z" style="fill:rgb(22,22,22);fill-rule:nonzero;"/>
            </g>
        </g>
        <g>
            <g>
                <path d="M1405.6,686.5C1403.1,691 1400.5,695.6 1398,700.1C1397.1,701.8 1399.6,703.3 1400.6,701.6C1403.1,697.1 1405.7,692.5 1408.2,688C1409.1,686.3 1406.5,684.8 1405.6,686.5Z" style="fill:rgb(22,22,22);fill-rule:nonzero;"/>
            </g>
        </g>
        <g>
            <g>
                <path d="M1517.7,681C1495.7,743.1 1467.4,802.8 1433.5,859.3C1432.5,861 1435.1,862.5 1436.1,860.8C1470.1,804.1 1498.5,744.1 1520.6,681.7C1521.2,680 1518.3,679.2 1517.7,681Z" style="fill:rgb(22,22,22);fill-rule:nonzero;"/>
            </g>
        </g>
        <g>
            <g>
                <path d="M1398.6,701.9C1377.1,754.1 1346.9,802.5 1309.8,845C1308.5,846.4 1310.6,848.6 1311.9,847.1C1349.4,804.1 1379.8,755.4 1401.5,702.7C1402.2,700.9 1399.3,700.1 1398.6,701.9Z" style="fill:rgb(22,22,22);fill-rule:nonzero;"/>
            </g>
        </g>
        <g>
            <g>
                <path d="M1371.6,677C1365.9,700.9 1354.2,723.1 1337.8,741.5C1328.9,751.5 1318.6,759.8 1307.9,767.8C1296.4,776.4 1285,785 1273.5,793.7C1272,794.8 1273.5,797.5 1275,796.3C1287.2,787.1 1299.4,778 1311.6,768.8C1322.1,760.8 1332.2,752.4 1340.9,742.5C1357.1,724.1 1368.7,701.8 1374.4,677.9C1375,676 1372.1,675.2 1371.6,677Z" style="fill:rgb(22,22,22);fill-rule:nonzero;"/>
            </g>
        </g>
        <g>
            <g>
                <path d="M1434.4,858.1C1413.5,863.9 1391.6,866.5 1370,863.1C1350.1,860 1331.1,852.7 1312.4,845.5C1310.6,844.8 1309.8,847.7 1311.6,848.4C1331.5,856 1351.6,863.7 1372.8,866.5C1393.7,869.3 1414.9,866.6 1435.1,861C1437,860.5 1436.3,857.6 1434.4,858.1Z" style="fill:rgb(22,22,22);fill-rule:nonzero;"/>
            </g>
        </g>
        <g>
            <g>
                <path d="M1312.2,845.2C1304,839.3 1298.2,831.1 1293,822.6C1287.5,813.5 1282.1,804.2 1276.6,795C1275.6,793.3 1273,794.8 1274,796.5C1280,806.6 1285.8,816.9 1292,826.8C1297,834.8 1302.8,842.2 1310.6,847.7C1312.3,848.9 1313.8,846.3 1312.2,845.2Z" style="fill:rgb(22,22,22);fill-rule:nonzero;"/>
            </g>
        </g>
        <g>
            <g>
                <path d="M1385.7,699.4C1373.1,737.6 1349.5,771.2 1318.7,797C1317.2,798.2 1319.3,800.4 1320.8,799.1C1352,773 1375.8,738.9 1388.5,700.2C1389.2,698.4 1386.3,697.6 1385.7,699.4Z" style="fill:rgb(22,22,22);fill-rule:nonzero;"/>
            </g>
        </g>
        <g>
            <g>
                <path d="M1424.6,623.4C1417.8,626.4 1410.3,626.1 1403.8,622.7C1402.1,621.8 1400.6,624.4 1402.3,625.3C1409.9,629.2 1418.3,629.4 1426.1,626C1427.8,625.2 1426.3,622.6 1424.6,623.4Z" style="fill:rgb(22,22,22);fill-rule:nonzero;"/>
            </g>
        </g>
        <g>
            <g>
                <path d="M1407.4,590.3C1405.4,590.6 1403.4,591 1401.4,591.3C1400.5,591.4 1400.2,592.4 1400.4,593.1C1402.1,603.3 1402.4,613.6 1401.4,623.9C1401.2,625.8 1404.2,625.8 1404.4,623.9C1405.4,613.3 1405.1,602.8 1403.3,592.3C1403,592.9 1402.6,593.5 1402.3,594.1C1404.3,593.8 1406.3,593.4 1408.3,593.1C1410.1,592.9 1409.3,590 1407.4,590.3Z" style="fill:rgb(22,22,22);fill-rule:nonzero;"/>
            </g>
        </g>
    </g>
    <g transform="matrix(1,0,0,1,-50,0)">
        <path d="M1145.3,349.6C1125.6,333.5 1108.7,319.9 1095.7,309.5C1066.6,286.3 1027.7,255.6 976.6,227.1C958.5,217 951.9,214.4 943.3,213.8C919.2,212.1 901.7,227.2 862.5,258.3C847.1,270.5 823.5,289.1 793.5,311.9C796,312.2 807.4,313.6 815.9,323C823.2,331.1 823.8,340.1 823.8,342.8C860.2,321.6 896.7,300.4 933.1,279.1C973.7,301.3 998.4,325.3 1013.5,343.2C1029.3,361.9 1034.3,373.5 1049.2,379.6C1078.8,391.7 1117.3,369.9 1145.3,349.6Z" style="fill:rgb(255,242,137);fill-rule:nonzero;stroke:black;stroke-width:2px;"/>
    </g>
    <g id="torso" transform="matrix(1,0,0,1,-50,0)">
        <path d="M1145.3,349.6C1150.6,352.8 1161.9,360.2 1177.1,380.3C1187.1,393.5 1200.8,414.8 1210.6,444.8C1204.4,453.5 1194.7,465.7 1181.1,478.7C1160.8,498 1141.6,509.5 1121,520.9C1094.3,535.7 1056.3,555.5 1007.5,576.9C986,555.7 955.1,530.2 913.3,508.8C895.5,499.7 878.4,492.7 862.7,487.3C868.4,481.1 877,472.1 887.8,461.5C915.1,434.8 934.8,419.8 951.8,405.4C969.4,390.5 993.4,368.5 1019.8,338C1059.9,329.4 1090.5,333 1107.1,336.2C1128.7,340.4 1140,346.4 1145.3,349.6Z" style="fill:rgb(255,242,137);fill-rule:nonzero;stroke:url(#_Linear2);stroke-width:2px;"/>
        <path d="M1011.7,345.5C1009.4,356.6 1006.1,368.4 1001.2,380.7C977.2,441.1 929.8,477.5 901.3,495.6C890.8,490.7 880.2,485.8 869.7,481C890.8,458.3 909.3,441.5 922,430.5C942.4,412.9 953.6,405.4 972.6,387.5C990.6,370.4 1003.7,355.2 1011.7,345.5Z" style="fill:rgb(96,96,96);fill-opacity:0.19;fill-rule:nonzero;"/>
        <g>
            <g>
                <path d="M1180,477.6C1127.8,518.9 1069.2,551.8 1007.1,575.4C1005.3,576.1 1006.1,579 1007.9,578.3C1070.6,554.5 1129.5,521.3 1182.2,479.7C1183.7,478.6 1181.5,476.4 1180,477.6Z" style="fill:rgb(22,22,22);fill-rule:nonzero;"/>
            </g>
        </g>
        <g>
            <g>
                <path d="M1012.5,342.1C1000.6,356.4 987.4,369.4 972.9,381C971.4,382.2 973.5,384.3 975,383.1C989.5,371.5 1002.7,358.5 1014.6,344.2C1015.8,342.8 1013.7,340.7 1012.5,342.1Z" style="fill:rgb(22,22,22);fill-rule:nonzero;"/>
            </g>
        </g>
        <g>
            <g>
                <path d="M986.8,385.2C971.8,383.3 956.8,382.1 941.7,381.7C939.8,381.7 939.8,384.7 941.7,384.7C956.8,385.1 971.8,386.2 986.8,388.2C988.7,388.4 988.7,385.4 986.8,385.2Z" style="fill:rgb(22,22,22);fill-rule:nonzero;"/>
            </g>
        </g>
        <g>
            <g>
                <path d="M974.3,392.8C965.7,391.6 957.1,390.4 948.6,389.2C946.7,388.9 945.9,391.8 947.8,392.1C956.4,393.3 965,394.5 973.5,395.7C975.3,395.9 976.2,393 974.3,392.8Z" style="fill:rgb(22,22,22);fill-rule:nonzero;"/>
            </g>
        </g>
        <g>
            <g>
                <path d="M967.5,405.6C960.2,404.8 952.9,404 945.6,403.2C943.7,403 943.7,406 945.6,406.2C952.9,407 960.2,407.8 967.5,408.6C969.4,408.8 969.4,405.8 967.5,405.6Z" style="fill:rgb(22,22,22);fill-rule:nonzero;"/>
            </g>
        </g>
        <g>
            <g>
                <path d="M962.3,427.6L927.6,427.6C925.7,427.6 925.7,430.6 927.6,430.6L962.3,430.6C964.2,430.6 964.2,427.6 962.3,427.6Z" style="fill:rgb(22,22,22);fill-rule:nonzero;"/>
            </g>
        </g>
        <g>
            <g>
                <path d="M934,437.3L909.5,437.3C907.6,437.3 907.6,440.3 909.5,440.3L934,440.3C935.9,440.3 935.9,437.3 934,437.3Z" style="fill:rgb(22,22,22);fill-rule:nonzero;"/>
            </g>
        </g>
        <g>
            <g>
                <path d="M916,447.1C910.4,446.6 904.9,446.2 899.3,445.7C897.4,445.5 897.4,448.5 899.3,448.7C904.9,449.2 910.4,449.6 916,450.1C917.9,450.2 917.9,447.2 916,447.1Z" style="fill:rgb(22,22,22);fill-rule:nonzero;"/>
            </g>
        </g>
        <g>
            <g>
                <path d="M900.6,448.5C887.8,458.9 875.9,470.3 865,482.7C863.7,484.1 865.8,486.3 867.1,484.8C878,472.4 889.9,461 902.7,450.6C904.3,449.4 902.1,447.3 900.6,448.5Z" style="fill:rgb(22,22,22);fill-rule:nonzero;"/>
            </g>
        </g>
        <g>
            <g>
                <path d="M952.5,531.4C938.9,520.2 923.9,510.9 907.7,503.7C899.8,500.2 891.6,497.1 883.3,494.6C878.9,493.3 874.5,492.1 870,491.1C867.8,490.6 863.3,490.8 864.6,486.8C865.3,484.6 868.3,483.1 870.3,482.1C872,481.3 870.5,478.7 868.8,479.5C865.1,481.3 856.7,488.4 863,492.2C866.7,494.5 872.6,494.7 876.8,495.8C882,497.2 887.2,498.8 892.3,500.6C913.4,508.1 933.1,519.2 950.3,533.4C951.8,534.7 954,532.6 952.5,531.4Z" style="fill:rgb(22,22,22);fill-rule:nonzero;"/>
            </g>
        </g>
        <g transform="matrix(1.11907,0,0,0.742275,-65.7014,93.1125)">
            <path d="M1023.55,320.453C1052.15,320.453 1081.57,337.639 1076.88,344.175C1071.4,351.828 1052.15,361.286 1023.55,361.286C996.208,361.286 973.781,352.921 971.869,342.337C971.781,341.853 971.737,341.363 971.737,340.87C971.737,340.117 967.69,339.416 967.289,338.905C945.783,311.455 996.864,320.453 1023.55,320.453Z" style="fill:rgb(255,242,137);"/>
        </g>
    </g>
    <g id="leg_right" transform="matrix(1,0,0,1,-50,0)">
        <path d="M875.7,486.2C862.6,505.7 854.7,523 849.9,535.6C844.2,550.4 841.2,562.3 836.2,583.2C829.4,612.3 830.2,614.4 825.8,632.1C821.3,650.5 815.6,666.1 804.3,696.5C797.9,713.8 789.2,736.5 778.2,762.9C749.1,814.5 726.1,842.1 710,857.9C705.5,862.3 684.1,882.9 655.3,912.5C650.4,917.5 646.4,921.7 643.8,924.4C652.9,925.9 659.3,929.1 663,931.4C666,933.2 681.6,942.7 684.6,960.3C685.7,966.8 684.7,972.3 683.8,975.7C696.7,967.5 714.6,955.4 734.4,939C762.1,916.2 780.3,896.2 800.9,873.3C823.5,848.2 838.8,828.8 856.2,806.5C883.9,771.1 900.9,749.4 920.1,719C934.5,696.3 953.1,664.2 971,623.4C972.9,612.5 976.9,580.2 957.6,546.4C931.9,501.2 884.2,488.4 875.7,486.2Z" style="fill:white;fill-rule:nonzero;"/>
        <path d="M643.7,924.4C647.5,925 653.2,926.3 659.4,929.4C662.5,931 678.4,939 683.4,956.3C684.4,959.9 685.8,966.8 683.8,975.7C678.6,979.1 673.3,982.5 667.9,985.8C642.9,1001.5 618.1,1015.6 593.8,1028.3C591.9,1035.3 589.6,1042.7 587.1,1050.3C584.8,1057.3 582.3,1063.9 579.8,1070.2C581.9,1070.5 590.2,1072 596.3,1079.1C601.4,1085 602.1,1091.3 602.3,1093.6C599.5,1094 595.4,1094.3 590.4,1094.2C580.7,1093.9 573.5,1091.6 568.1,1089.9C550.8,1084.3 535.6,1078.4 527.1,1075.1C528.2,1071.6 529.7,1066.4 531.1,1060.1C532.2,1054.9 533.6,1047.3 534.7,1035.1C536.5,1013.3 534.6,1006.6 538.6,991.3C540.7,983.3 542.6,979.8 546,977.3C551.8,973 557.7,974.8 567.2,972.5C571.1,971.5 573,970.5 588,961.4C619,942.5 625.6,937.9 630.1,934.7C635.8,930.5 640.5,926.9 643.7,924.4Z" style="fill:rgb(255,242,137);fill-rule:nonzero;"/>
        <path d="M941.1,683.7C932.8,698.5 923.5,713.9 913.3,729.5C893,760.6 872.1,788.1 851.7,812.1C849.1,802.4 846.2,787.8 847.2,770C848.1,753.8 849.4,730.2 865.9,711.1C891.2,682.1 934.5,683.4 941.1,683.7Z" style="fill:rgb(255,242,137);fill-rule:nonzero;"/>
        <g>
            <g>
                <path d="M842.2,553.7C835.3,579.5 829.3,605.5 824.4,631.7C824,633.6 826.9,634.4 827.3,632.5C832.2,606.3 838.1,580.2 845.1,554.5C845.6,552.6 842.7,551.8 842.2,553.7Z" style="fill:rgb(22,22,22);fill-rule:nonzero;"/>
            </g>
        </g>
        <g>
            <g>
                <path d="M828.1,631.4C817,632.6 806,633.8 794.9,635C793,635.2 793,638.2 794.9,638C806,636.8 817,635.6 828.1,634.4C830,634.2 830,631.2 828.1,631.4Z" style="fill:rgb(22,22,22);fill-rule:nonzero;"/>
            </g>
        </g>
        <g>
            <g>
                <path d="M807,640.2C800.3,640.7 793.7,641.3 787,641.8C785.1,642 785.1,645 787,644.8C793.7,644.3 800.3,643.7 807,643.2C809,643.1 809,640.1 807,640.2Z" style="fill:rgb(22,22,22);fill-rule:nonzero;"/>
            </g>
        </g>
        <g>
            <g>
                <path d="M821.5,654.8C816,655.5 810.4,656.1 804.9,656.8C803,657 803,660 804.9,659.8C810.4,659.1 816,658.5 821.5,657.8C823.4,657.6 823.4,654.6 821.5,654.8Z" style="fill:rgb(22,22,22);fill-rule:nonzero;"/>
            </g>
        </g>
        <g>
            <g>
                <path d="M818.1,687.9C809.8,687.5 801.6,687.9 793.3,689.1C791.4,689.4 792.2,692.3 794.1,692C802.1,690.9 810,690.5 818.1,690.9C820,691 820,688 818.1,687.9Z" style="fill:rgb(22,22,22);fill-rule:nonzero;"/>
            </g>
        </g>
        <g>
            <g>
                <path d="M818.1,677.3C809.2,678 800.4,678.6 791.5,679.3C789.6,679.4 789.6,682.4 791.5,682.3C800.4,681.6 809.2,681 818.1,680.3C820,680.2 820,677.2 818.1,677.3Z" style="fill:rgb(22,22,22);fill-rule:nonzero;"/>
            </g>
        </g>
        <g>
            <g>
                <path d="M940.1,686.2C925.951,708.099 911.281,729.635 896.102,750.795C873.089,782.875 848.907,814.092 823.6,844.4C802.7,869.4 781.4,894.5 757.6,916.8C734.9,938 710,956.7 684,973.8C654.6,993.1 624,1010.3 593.1,1027C591.4,1027.9 592.9,1030.5 594.6,1029.6C649.3,1000 703.9,968.6 750.6,927.2C775.1,905.5 796.7,880.8 817.8,855.8C838.9,831 859.2,805.5 878.7,779.4C901.1,749.6 922.4,718.9 942.6,687.6C943.7,686 941.1,684.5 940.1,686.2Z" style="fill:rgb(22,22,22);fill-rule:nonzero;"/>
            </g>
        </g>
        <g>
            <g>
                <path d="M780.7,782.8C745,788 709.3,793.2 673.5,798.4C671.6,798.7 672.4,801.6 674.3,801.3C710,796.1 745.7,790.9 781.5,785.7C783.4,785.4 782.6,782.5 780.7,782.8Z" style="fill:rgb(22,22,22);fill-rule:nonzero;"/>
            </g>
        </g>
        <g>
            <g>
                <path d="M765.7,794.4C749.9,795.6 734.3,797.9 718.8,801.2C716.9,801.6 717.7,804.5 719.6,804.1C734.8,800.8 750.2,798.5 765.7,797.4C767.6,797.3 767.6,794.3 765.7,794.4Z" style="fill:rgb(22,22,22);fill-rule:nonzero;"/>
            </g>
        </g>
        <g>
            <g>
                <path d="M753.5,835.9C729,838.8 704.5,842.2 680.1,846.1C678.2,846.4 679,849.3 680.9,849C705,845.1 729.2,841.7 753.5,838.9C755.4,838.7 755.4,835.7 753.5,835.9Z" style="fill:rgb(22,22,22);fill-rule:nonzero;"/>
            </g>
        </g>
        <g>
            <g>
                <path d="M744.2,827.3C733.9,829.1 723.6,831 713.3,832.8C711.4,833.1 712.2,836 714.1,835.7C724.4,833.9 734.7,832 745,830.2C746.9,829.8 746.1,826.9 744.2,827.3Z" style="fill:rgb(22,22,22);fill-rule:nonzero;"/>
            </g>
        </g>
        <g>
            <g>
                <path d="M739.2,817.4C716.3,820.4 693.6,824.6 671.2,830.3C669.3,830.8 670.1,833.7 672,833.2C694.1,827.6 716.5,823.3 739.2,820.4C741.1,820.2 741.1,817.2 739.2,817.4Z" style="fill:rgb(22,22,22);fill-rule:nonzero;"/>
            </g>
        </g>
        <g>
            <g>
                <path d="M804.7,690.6C797,715 787.8,738.9 777,762.1C776.2,763.8 778.8,765.4 779.6,763.6C790.5,740.2 799.9,716.1 807.6,691.4C808.1,689.6 805.2,688.8 804.7,690.6Z" style="fill:rgb(22,22,22);fill-rule:nonzero;"/>
            </g>
        </g>
        <g>
            <g>
                <path d="M777.4,762.3C771.2,764.1 764.9,765.9 758.7,767.7C756.8,768.2 757.6,771.1 759.5,770.6C765.7,768.8 772,767 778.2,765.2C780.1,764.6 779.3,761.7 777.4,762.3Z" style="fill:rgb(22,22,22);fill-rule:nonzero;"/>
            </g>
        </g>
        <g>
            <g>
                <path d="M710.7,850.6C714.2,854.2 698.9,867.3 696.3,870.1C690.9,875.7 685.5,881.3 680,886.8C669.2,897.6 658.1,908.2 646.6,918.2C622.9,938.7 597,956.7 568.1,969.1C566.3,969.9 567.9,972.4 569.6,971.7C601,958.1 628.9,938 654.4,915.3C667.3,903.8 679.5,891.7 691.6,879.3C697.4,873.3 703.1,867.3 708.9,861.3C712.1,858 717.2,852.9 713,848.4C711.5,847.1 709.4,849.2 710.7,850.6Z" style="fill:rgb(22,22,22);fill-rule:nonzero;"/>
            </g>
        </g>
        <g>
            <g>
                <path d="M592.4,1028.7C588.2,1041.9 584,1055.1 579.8,1068.3C579.2,1070.1 582.1,1070.9 582.7,1069.1C586.9,1055.9 591.1,1042.7 595.3,1029.5C595.9,1027.7 593,1026.9 592.4,1028.7Z" style="fill:rgb(22,22,22);fill-rule:nonzero;"/>
            </g>
        </g>
        <g>
            <g>
                <path d="M579.4,1071.6C587.8,1073.6 595.5,1078.5 600,1086C601.8,1089 602.7,1092.5 598.2,1093.4C596.6,1093.7 594.6,1093.2 593.2,1093C588.6,1092.3 583.9,1091.5 579.3,1090.6C570.4,1088.9 561.6,1086.7 552.9,1084.2C544.4,1081.7 535.4,1079.2 528.6,1073.3C527.2,1072 525,1074.2 526.5,1075.4C534.9,1082.7 546.1,1085.5 556.6,1088.4C569,1091.8 581.8,1094.8 594.6,1096.2C602.1,1097 607.3,1093.4 603.3,1085.8C598.6,1077 589.8,1071 580.2,1068.8C578.4,1068.3 577.6,1071.2 579.4,1071.6Z" style="fill:rgb(22,22,22);fill-rule:nonzero;"/>
            </g>
        </g>
        <g>
            <g>
                <path d="M567.6,967.8C564.2,971.6 558.8,971.3 554.1,972.1C550.4,972.7 547,974.1 544.2,976.7C538.3,982.2 536.7,990.8 535.9,998.5C533.3,1024 533.6,1049.8 525.6,1074.5C525,1076.3 527.9,1077.1 528.5,1075.3C535.8,1052.8 536.5,1029.1 538.3,1005.7C539,996.6 539.2,984.5 547.1,978.2C553.7,972.9 563.7,976.5 569.6,970C571,968.5 568.9,966.4 567.6,967.8Z" style="fill:rgb(22,22,22);fill-rule:nonzero;"/>
            </g>
        </g>
        <g>
            <g>
                <path d="M687.3,972.9C688,947.4 668.7,927.1 644.1,923C642.2,922.7 641.4,925.6 643.3,925.9C666.6,929.8 685,948.7 684.3,972.9C684.3,974.8 687.3,974.8 687.3,972.9Z" style="fill:rgb(22,22,22);fill-rule:nonzero;"/>
            </g>
        </g>
    </g>
    <g id="leg_left" transform="matrix(1,0,0,1,-50,0)">
        <path d="M862.3,489.2C857.8,496.8 851.9,507.6 846.3,521.1C838.1,541 833.8,551.4 834.1,566C834.6,589 846.1,605.7 850.4,611.7C860.1,625.3 870.6,632.4 882.6,640.7C896.1,650.1 915.8,665.1 955.1,695.2C997.4,727.5 1017.4,747.2 1022.4,752.2C1034.4,764.1 1043.7,774.5 1049.9,781.8C1046.8,782.8 1042.2,784.4 1037.1,787.3C1027.3,792.9 1023.6,798.7 1016.1,806.7C1002.3,821.6 998.1,819.9 983.8,835.1C976.8,842.5 972,849.2 969.2,853.3C974.6,856.2 978.4,859.3 980.9,861.6C993.5,873.1 997.6,887 999.6,894.1C1000.8,898.4 1001.4,902 1001.8,904.4C1010.9,899.2 1021.7,893.1 1033.9,886.2C1049.3,877.5 1079.9,860.4 1114.6,838.7C1132.1,827.7 1137.6,823.8 1143.2,816.6C1155.8,800.5 1157.9,782.8 1158.2,773.9C1158.6,759.7 1154.6,744.3 1132.7,712.3C1119.5,693 1105.3,675.7 1052.1,621.2C1030,598.5 1018.35,587.917 1007.25,577.817C983.647,556.317 964.4,537.4 935.3,520.4C919.2,511.1 894.9,498.8 862.3,489.2Z" style="fill:white;fill-rule:nonzero;"/>
        <g transform="matrix(1,0,0,0.782107,49.8699,95.235)">
            <path d="M1153.37,453.41C1152.37,439.076 1166.19,446.442 1157.67,456.133C1146.96,468.316 1151.08,470.468 1141.6,481.373C1134.25,489.832 1130.68,495.311 1130.68,480.729C1130.68,471.333 1140.64,475.345 1146.4,467.423C1149.58,463.051 1153.68,457.889 1153.37,453.41Z" style="fill:rgb(255,242,137);"/>
        </g>
        <path d="M969.2,853.3C973,855.4 978.1,858.7 983.1,863.7C992.8,873.4 996.4,883.8 997.9,888.6C1000,895 1000.8,900.8 1001.1,905.5C987.9,913.3 974.7,921 961.6,928.8C950.2,935.5 938.8,942.2 927.5,948.9C929.5,958.5 931.2,968.6 932.5,979.4C935.4,1003.2 935.8,1025 934.9,1044.3C933.1,1044.6 929.4,1045 925.2,1043.4C917.8,1040.6 915.4,1033.9 915,1032.8C912,1029.2 908.3,1024.4 904.3,1018.5C903,1016.6 898.9,1010.5 893.4,1000.6C891.4,997 886.4,987.8 880.4,974.1C876.1,964.2 871,951.4 866.1,936.1C869.6,932.7 873.3,929.2 877.3,925.7C884.3,919.6 891.1,914.2 897.6,909.4C893.2,901.2 888.8,892.9 884.4,884.7C891.8,888.4 899.2,892.2 906.5,895.9C901.6,888.2 896.6,880.4 891.7,872.7C900.8,879 910,885.2 919.1,891.5C916.3,886 913.6,880.6 910.8,875.1C915.9,880 921.1,884.9 926.2,889.8C940.5,877.6 954.9,865.5 969.2,853.3Z" style="fill:rgb(255,242,137);fill-rule:nonzero;"/>
        <path d="M1078.7,649C1073.5,651 1065.5,653.8 1055.4,655.5C985,667.4 924,610.4 913,600.1C877.6,567 862.3,529.2 855.4,505.2C857.8,499.2 860.2,493.2 862.6,487.3C871.8,489 885.2,492 900.4,498.2C921.6,506.8 936.9,517.5 961.4,537.8C980.3,553.4 1004.4,574.5 1031.3,601.1C1028,608.3 1024.7,615.4 1021.5,622.6C1027.4,617.8 1033.2,613 1039.1,608.1C1035.1,618.5 1031.1,628.9 1027,639.2C1035.3,632.4 1043.6,625.7 1052,618.9C1060.9,628.9 1069.8,639 1078.7,649Z" style="fill:rgb(255,242,137);fill-rule:nonzero;"/>
        <g>
            <g>
                <path d="M1017.2,749.2C1028.3,759.9 1038.9,771 1048.9,782.8C1050.1,784.3 1052.3,782.1 1051,780.7C1041.1,768.9 1030.5,757.8 1019.3,747.1C1017.9,745.7 1015.8,747.9 1017.2,749.2Z" style="fill:rgb(22,22,22);fill-rule:nonzero;"/>
            </g>
        </g>
        <g>
            <g>
                <path d="M857.6,499.6C838.6,526.3 824.4,562.2 837.9,594.3C844.4,609.9 856.8,621.9 869.7,632.5C885,645 901,656.7 916.9,668.4C936.4,682.9 956,697.4 975,712.6C976.5,713.8 978.6,711.7 977.1,710.5C946.6,686.1 914.7,663.7 883.9,639.9C870.1,629.2 855.7,618.2 846.1,603.4C836.4,588.3 833.8,570.4 837,553C840.4,534.2 849.3,516.7 860.3,501.3C861.3,499.5 858.7,498 857.6,499.6Z" style="fill:rgb(22,22,22);fill-rule:nonzero;"/>
            </g>
        </g>
        <g>
            <g>
                <path d="M892.4,912.1C885.1,917.8 877.8,923.3 870.5,928.9C869,930 870.5,932.7 872,931.5C879.6,925.8 887.1,920.1 894.5,914.3C896.1,913 893.9,910.9 892.4,912.1Z" style="fill:rgb(22,22,22);fill-rule:nonzero;"/>
            </g>
        </g>
        <g>
            <g>
                <path d="M1047.7,780.2C1042.8,782.2 1038.6,783.9 1034.6,787.5C1029.4,792.2 1024.3,797 1019.2,801.8C1008.9,811.5 998.6,821.2 988.3,830.9C968,849.9 947.3,868.6 925.3,885.7C923.8,886.9 925.9,889 927.4,887.8C948.4,871.5 968.2,853.7 987.6,835.5C997.2,826.5 1006.8,817.4 1016.4,808.4C1021.2,803.8 1026.1,799.3 1031,794.8C1033.3,792.7 1035.6,790.3 1038,788.3C1041.1,785.8 1044.7,784.6 1048.3,783.1C1050.3,782.4 1049.5,779.5 1047.7,780.2Z" style="fill:rgb(22,22,22);fill-rule:nonzero;"/>
            </g>
        </g>
        <g>
            <g>
                <path d="M1050.9,622.3C1073.3,644.9 1094.8,668.5 1115.2,693C1133.7,715.2 1153.4,739.7 1156.3,769.5C1157.7,784.6 1154.3,800 1144.9,812.1C1135.5,824.3 1122.1,832.3 1109.1,840.3C1081.3,857.4 1052.8,873.3 1024.7,889.9C1005.48,901.242 986.267,912.549 967.05,923.863C953.567,931.801 940.083,939.742 926.6,947.7C924.9,948.7 926.4,951.3 928.1,950.3C958.5,932.4 988.9,914.5 1019.3,896.6C1049.2,879 1079.4,862 1108.9,844C1121.5,836.3 1134.6,828.6 1144.4,817.4C1153.7,806.8 1158.7,793.7 1159.4,779.7C1160.7,751 1144.8,725.6 1127.7,703.9C1104.6,674.6 1079.2,646.8 1052.9,620.3C1051.7,618.8 1049.6,620.9 1050.9,622.3Z" style="fill:rgb(22,22,22);fill-rule:nonzero;"/>
            </g>
        </g>
        <g>
            <g>
                <path d="M951.4,533.4C978.9,554.9 1004.9,578.1 1030.3,602.1C1031.7,603.4 1033.8,601.3 1032.4,600C1007,576 981,552.8 953.5,531.3C952,530.1 949.9,532.2 951.4,533.4Z" style="fill:rgb(22,22,22);fill-rule:nonzero;"/>
            </g>
        </g>
        <g>
            <g>
                <path d="M925.8,950C930,970.1 932.9,990.5 934.2,1011.1C934.8,1020.4 935.8,1030.2 935,1039.5C934.2,1048.6 925,1041.7 922,1038.5C918.9,1035.2 915.9,1031.8 913.1,1028.2C902.4,1014.6 893.8,999.5 886.4,983.9C882.6,975.9 879.1,967.7 875.7,959.5C873.4,953.9 861.8,933.5 872,931.4C873.9,931 873.1,928.1 871.2,928.5C865.4,929.7 863.7,935.4 865.1,940.6C867.2,948.9 871.5,957.1 874.8,965C881.3,980.4 888.3,995.6 897,1009.9C901.3,1017 906,1023.8 911.1,1030.3C915.5,1035.9 920.6,1043.3 927.3,1046.2C932.1,1048.2 936.8,1046.5 937.9,1041.1C938.6,1037.7 938.1,1033.8 938,1030.3C937.9,1025.1 937.7,1020 937.5,1014.8C936.3,992.7 933.4,970.7 928.8,949.1C928.3,947.4 925.4,948.2 925.8,950Z" style="fill:rgb(22,22,22);fill-rule:nonzero;"/>
            </g>
        </g>
        <g>
            <g>
                <path d="M1003.2,904.1C1001.6,893 997.7,882.4 991.7,873C986.6,865 979.2,854.7 969.6,851.9C967.7,851.4 966.9,854.3 968.8,854.8C978.3,857.5 986,869.1 990.7,877.2C995.7,885.8 998.8,895.1 1000.3,904.9C1000.6,906.8 1003.5,906 1003.2,904.1Z" style="fill:rgb(22,22,22);fill-rule:nonzero;"/>
            </g>
        </g>
        <g>
            <g>
                <path d="M1017.7,742.3C1012.9,746.4 1008,750.6 1003.2,754.7C1001.7,756 1003.9,758.1 1005.3,756.8C1010.1,752.7 1015,748.5 1019.8,744.4C1021.3,743.2 1019.1,741.1 1017.7,742.3Z" style="fill:rgb(22,22,22);fill-rule:nonzero;"/>
            </g>
        </g>
        <g>
            <g>
                <path d="M1014.2,734.9C1011.6,737 1009.1,739.1 1006.5,741.2C1005,742.4 1007.1,744.5 1008.6,743.3C1011.2,741.2 1013.7,739.1 1016.3,737C1017.8,735.8 1015.7,733.7 1014.2,734.9Z" style="fill:rgb(22,22,22);fill-rule:nonzero;"/>
            </g>
        </g>
        <g>
            <g>
                <path d="M1005.9,727.7C999.5,731.6 994.1,736.6 989.7,742.7C988.6,744.3 991.2,745.8 992.3,744.2C996.4,738.6 1001.5,733.9 1007.4,730.3C1009,729.2 1007.5,726.6 1005.9,727.7Z" style="fill:rgb(22,22,22);fill-rule:nonzero;"/>
            </g>
        </g>
        <g>
            <g>
                <path d="M997.8,717.4C993,721.9 988.2,726.4 983.4,730.9C982,732.2 984.1,734.3 985.5,733C990.3,728.5 995.1,724 999.9,719.5C1001.3,718.2 999.2,716.1 997.8,717.4Z" style="fill:rgb(22,22,22);fill-rule:nonzero;"/>
            </g>
        </g>
        <g>
            <g>
                <path d="M979.9,715.2C975.1,720 970.2,724.9 965.4,729.7C964,731.1 966.2,733.2 967.5,731.8C972.3,727 977.2,722.1 982,717.3C983.4,716 981.3,713.9 979.9,715.2Z" style="fill:rgb(22,22,22);fill-rule:nonzero;"/>
            </g>
        </g>
        <g>
            <g>
                <path d="M1048.8,619.7C1042.9,624.9 1037,630.2 1031.2,635.4C1029.8,636.7 1031.9,638.8 1033.3,637.5C1039.2,632.3 1045.1,627 1050.9,621.8C1052.4,620.5 1050.3,618.4 1048.8,619.7Z" style="fill:rgb(22,22,22);fill-rule:nonzero;"/>
            </g>
        </g>
        <g>
            <g>
                <path d="M1032.3,620.4C1026,627.4 1019.8,634.3 1013.5,641.3C1012.2,642.7 1014.3,644.9 1015.6,643.4C1021.9,636.4 1028.1,629.5 1034.4,622.5C1035.8,621 1033.6,618.9 1032.3,620.4Z" style="fill:rgb(22,22,22);fill-rule:nonzero;"/>
            </g>
        </g>
        <g>
            <g>
                <path d="M1028.9,615.1C1026.3,617.9 1023.7,620.7 1021.1,623.4C1019.8,624.8 1021.9,626.9 1023.2,625.5C1025.8,622.7 1028.4,619.9 1031,617.2C1032.3,615.8 1030.2,613.6 1028.9,615.1Z" style="fill:rgb(22,22,22);fill-rule:nonzero;"/>
            </g>
        </g>
        <g>
            <g>
                <path d="M1026.7,608.8C1022.2,613.3 1017.8,617.8 1013.3,622.3C1011.9,623.7 1014.1,625.8 1015.4,624.4C1019.9,619.9 1024.3,615.4 1028.8,610.9C1030.2,609.6 1028.1,607.5 1026.7,608.8Z" style="fill:rgb(22,22,22);fill-rule:nonzero;"/>
            </g>
        </g>
        <g>
            <g>
                <path d="M926.6,888.4C921.3,883.9 916.4,879.1 911.8,874C910.5,872.6 908.4,874.7 909.7,876.1C914.3,881.3 919.2,886.1 924.5,890.5C925.9,891.8 928.1,889.7 926.6,888.4Z" style="fill:rgb(22,22,22);fill-rule:nonzero;"/>
            </g>
        </g>
        <g>
            <g>
                <path d="M918,889.7C913.1,884.8 908.3,880 903.4,875.1C902,873.7 899.9,875.9 901.3,877.2C906.2,882.1 911,886.9 915.9,891.8C917.2,893.2 919.3,891.1 918,889.7Z" style="fill:rgb(22,22,22);fill-rule:nonzero;"/>
            </g>
        </g>
        <g>
            <g>
                <path d="M890.6,873.7C896.1,880.6 901.5,887.5 907,894.4C908.2,895.9 910.3,893.8 909.1,892.3C903.6,885.4 898.2,878.5 892.7,871.6C891.5,870.1 889.4,872.2 890.6,873.7Z" style="fill:rgb(22,22,22);fill-rule:nonzero;"/>
            </g>
        </g>
        <g>
            <g>
                <path d="M889.7,888.7C893.7,891 896.6,894.5 897.9,898.9C898.4,900.7 901.3,900 900.8,898.1C899.3,893 895.9,888.8 891.2,886.1C889.5,885.2 888,887.8 889.7,888.7Z" style="fill:rgb(22,22,22);fill-rule:nonzero;"/>
            </g>
        </g>
        <path d="M1049.9,781.7C1047.2,783.3 1032.1,761.6 1005.1,736C989.4,721.2 977.3,712.1 963.4,701.6C884.4,641.6 844.7,611.1 837.3,588.6C831.7,571.6 829,541.2 860,493.9C858,511.8 857.5,539.5 869.5,569.5C871.8,575.3 880.2,595.3 911.5,629C965.6,687.3 1004.8,697 1037.5,752.4C1045.1,765.6 1052,780.5 1049.9,781.7Z" style="fill:rgb(96,96,96);fill-opacity:0.13;fill-rule:nonzero;"/>
        <path d="M1049.9,781.7C1047.7,787.9 1044.1,797.1 1038.2,807.6C1021.4,838 999.5,855.6 957.3,887.3C924.4,912.1 896.5,932.4 875.9,947.2C872.8,942.6 869.7,938.1 866.7,933.5C873.6,928.2 884.4,919.7 897.5,909.3C959.5,859.7 990.5,834.9 1001.4,821.3C1005.1,816.6 1015.6,802.9 1034.3,790.6C1040.8,786.4 1046.5,783.4 1049.9,781.7Z" style="fill:rgb(96,96,96);fill-opacity:0.13;fill-rule:nonzero;"/>
    </g>
    <g id="hand_left" transform="matrix(1,0,0,1,-50,0)">
        <path d="M792.9,313.2C796.7,313.1 802,313.6 807.5,316.2C820.5,322.6 823.2,336 823.4,337.4C823.8,339.7 823.8,341.6 823.8,342.8C822,343.9 819.3,345.8 816.4,348.4C815.2,349.5 810.9,353.4 804.9,362.1C799.1,370.4 799.2,372.4 796.1,374C791.3,376.4 785.3,374.8 781.2,373.1C778.8,373.4 774.8,373.4 770.3,372.1C762.8,369.9 758.5,365.1 756.9,363.1C755.3,361.1 753.3,358.8 750.8,356.5C748,353.9 745.2,351.9 742.8,350.3C741.2,348.5 738.9,345.5 737.4,341.4C735,334.9 735.9,329.4 736.4,326.6C737.3,321.7 738.1,316.9 742.2,313.7C744.5,311.9 747.5,311 755.8,310.8C761.8,310.7 770.1,310.9 780.1,312.7C784.4,312.9 788.6,313 792.9,313.2Z" style="fill:white;fill-rule:nonzero;"/>
        <path d="M751.4,508.2C749,512.3 745.5,518.2 740.9,525.4C729.9,542.4 723.1,550.3 706.6,571.4C682.2,602.7 666.9,624.3 662.5,630.5C657.1,638.2 652.7,644.5 649.9,648.6C645.3,648.7 636.7,648.4 627.1,644.4C616.9,640.2 610.6,633.9 607.6,630.5C604.8,630.8 600.8,630.8 596.4,629.3C588.1,626.6 583.7,620.4 579.6,614.7C561.3,589.2 567,599.3 559.7,587.7C551.8,575.2 544,562.8 535.6,544.7C531,534.9 526,522.7 521.3,508.4C524.6,506.4 529.2,503.6 534.4,500.2C540.3,496.3 556.4,485.3 574.2,468.5C593.8,450.1 608.3,431.3 618.7,415.9C624.8,416.6 630.9,417.4 637.1,418.1C638.4,415.6 639.8,413.1 641.1,410.7C655.5,426.7 667.9,440.3 677.6,450.7C697.9,472.5 704.1,478.6 712.7,485.2C727.5,496.7 741.6,503.9 751.4,508.2Z" style="fill:white;fill-rule:nonzero;"/>
        <path d="M801.1,313.4C801.1,314 774.2,308.5 763.6,320.2C758.2,326.2 758.2,334.8 759.3,341.6C760.7,350.8 762,359.9 763.4,369.1C759.5,364.5 755.9,361.3 753.3,359.2C748.7,355.5 746,354.2 742.7,350.4C739.8,347 738.2,343.7 737.3,341.5C736.3,339.2 733.4,331.5 737,323.4C737.4,322.4 740.8,314.9 749.2,311.4C755.5,308.7 759.9,310.2 772.8,311.6C788.4,313.2 801.2,313 801.1,313.4Z" style="fill:rgb(96,96,96);fill-opacity:0.18;fill-rule:nonzero;"/>
        <path d="M659.6,431.3C666,439.3 666.5,448.1 667,452C668.4,462.1 675.3,479.2 698.8,510.2C685.7,494.2 671.7,477.9 656.9,461.4C648.7,452.3 640.6,443.4 632.4,434.9C629.1,440.1 624,448 618,457.8C595.4,494.7 584.1,513.2 576.8,534.6C572,548.6 566.6,570.5 567.8,599.6C563.5,593.5 558.4,586 553,577.2C550.1,572.4 545.2,564.4 539.7,553.4C537.9,549.8 532.5,538.9 526.7,523.9C524.2,517.3 522.2,511.7 520.8,507.5C537.5,498.4 550,489.2 558.7,482.2C560.3,480.9 566.5,475.9 574,468.7C584.5,458.7 591.8,450.3 594.9,446.7C601.3,439.1 608.8,429.4 616.3,417.6C621.7,417.6 627.1,417.5 632.6,417.5C634.3,417.6 636.4,417.4 638,416.2C640.3,414.3 639.6,411.4 640.9,411C642.6,410.5 645.2,415.3 648.5,419.8C653.6,426.4 656.1,426.9 659.6,431.3Z" style="fill:rgb(96,96,96);fill-opacity:0.13;fill-rule:nonzero;"/>
        <g>
            <g>
                <path d="M823,341.5C815.2,346.7 808.5,353.3 803.6,361.4C800.9,365.9 798.6,371.1 793.8,373.7C786.8,377.5 781,371.5 776.9,366.5C775.7,365 773.6,367.1 774.8,368.6C781.2,376.4 790.4,381.9 799,373.5C803.2,369.4 805.4,363.6 808.8,358.9C813.1,353 818.5,348.1 824.5,344.1C826.1,343 824.6,340.4 823,341.5Z" style="fill:rgb(22,22,22);fill-rule:nonzero;"/>
            </g>
        </g>
        <g>
            <g>
                <path d="M792.9,311.7C784.8,311.2 776.6,310.7 768.5,310.2C761.7,309.8 753.7,308.1 747,309.8C737,312.3 735,323.3 734.4,332.1C734.3,334 737.3,334 737.4,332.1C737.7,327.6 738.2,322.7 740.4,318.6C743.7,312.6 749.5,312.1 755.8,312.5C768.2,313.2 780.5,314 792.9,314.8C794.8,314.8 794.8,311.8 792.9,311.7Z" style="fill:rgb(22,22,22);fill-rule:nonzero;"/>
            </g>
        </g>
        <g>
            <g>
                <path d="M785.1,357C782.1,358.8 779,359.7 775.5,359.6C773.6,359.6 773.6,362.6 775.5,362.6C779.5,362.7 783.2,361.7 786.6,359.6C788.2,358.6 786.7,356 785.1,357Z" style="fill:rgb(22,22,22);fill-rule:nonzero;"/>
            </g>
        </g>
        <g>
            <g>
                <path d="M777.9,351.2C773.2,354.6 770.3,360 770.8,365.9C771,367.8 774,367.8 773.8,365.9C773.4,361.1 775.4,356.6 779.4,353.8C780.9,352.6 779.4,350 777.9,351.2Z" style="fill:rgb(22,22,22);fill-rule:nonzero;"/>
            </g>
        </g>
        <g>
            <g>
                <path d="M777.9,369.8C770.3,372.6 760.5,368.6 760.6,359.4C760.7,353.9 766.1,349.7 763.8,344.1C763.1,342.3 760.2,343.1 760.9,344.9C762.8,349.3 758.2,353.7 757.7,358.1C757.3,361.5 758.3,365.1 760.3,367.9C764.5,373.7 772.3,375.2 778.7,372.8C780.5,372.1 779.7,369.2 777.9,369.8Z" style="fill:rgb(22,22,22);fill-rule:nonzero;"/>
            </g>
        </g>
        <g>
            <g>
                <path d="M759.4,362.5C753.8,360.8 749.8,354.8 752,349.1C753.4,345.4 756.3,342.9 754.3,339C753.4,337.3 750.8,338.8 751.7,340.5C753.1,343.2 749,347.5 748.5,350.3C748.1,352.4 748.4,354.7 749.1,356.7C750.7,361.1 754.1,364.1 758.5,365.4C760.5,365.9 761.3,363 759.4,362.5Z" style="fill:rgb(22,22,22);fill-rule:nonzero;"/>
            </g>
        </g>
        <g>
            <g>
                <path d="M749.2,353.5C745.5,352.4 742.4,349 743.3,344.9C743.8,342.6 745.6,340.6 746.5,338.4C747.7,335.4 747.5,332.7 745.6,330.2C744.4,328.7 742.3,330.8 743.5,332.3C746.6,336.3 739.5,342.9 740.4,347.9C741.2,352.2 744.4,355.2 748.5,356.3C750.3,356.9 751.1,354 749.2,353.5Z" style="fill:rgb(22,22,22);fill-rule:nonzero;"/>
            </g>
        </g>
        <g>
            <g>
                <path d="M741.6,344.2C740.7,344.1 739.7,344.1 738.8,344C739.3,344.4 739.8,344.7 740.2,345.1C738.3,339.9 737.6,334.7 738,329.2C738.1,327.3 735.1,327.3 735,329.2C734.6,334.9 735.3,340.5 737.3,345.9C737.5,346.6 738,347 738.7,347C739.6,347.1 740.6,347.1 741.5,347.2C743.5,347.3 743.5,344.3 741.6,344.2Z" style="fill:rgb(22,22,22);fill-rule:nonzero;"/>
            </g>
        </g>
        <g>
            <g>
                <path d="M786.5,359.1C781.6,358.3 776.5,360.5 774.3,365.1C773.5,366.8 776.1,368.4 776.9,366.6C778.4,363.3 782.1,361.4 785.7,362C787.6,362.3 788.4,359.4 786.5,359.1Z" style="fill:rgb(22,22,22);fill-rule:nonzero;"/>
            </g>
        </g>
        <g>
            <g>
                <path d="M773.4,364.2C787.2,386.2 790.1,413 784.6,438C779,463.6 765.6,486.6 750.1,507.4C748.9,509 751.6,510.4 752.7,508.9C768.9,487 783,462.6 788.2,435.5C793,410.6 789.7,384.2 776,362.6C775,361 772.4,362.5 773.4,364.2Z" style="fill:rgb(22,22,22);fill-rule:nonzero;"/>
            </g>
        </g>
        <g>
            <g>
                <path d="M735.9,336.1C697.8,351.9 663.8,376.8 638.2,409.2C637,410.7 639.1,412.8 640.3,411.3C665.6,379.3 699.1,354.5 736.7,338.9C738.5,338.3 737.7,335.4 735.9,336.1Z" style="fill:rgb(22,22,22);fill-rule:nonzero;"/>
            </g>
        </g>
        <g>
            <g>
                <path d="M750.7,506.8C743.3,512.1 735.8,517.4 728.4,522.7C726.8,523.8 728.3,526.4 729.9,525.3C737.3,520 744.8,514.7 752.2,509.4C753.8,508.2 752.3,505.6 750.7,506.8Z" style="fill:rgb(22,22,22);fill-rule:nonzero;"/>
            </g>
        </g>
        <g>
            <g>
                <path d="M729.7,522.4C722,520.5 714.4,518.5 706.7,516.6C704.8,516.1 704,519 705.9,519.5C713.6,521.4 721.2,523.4 728.9,525.3C730.7,525.7 731.5,522.9 729.7,522.4Z" style="fill:rgb(22,22,22);fill-rule:nonzero;"/>
            </g>
        </g>
        <g>
            <g>
                <path d="M706.7,517.4C679.1,483.3 650,450.5 619.5,419.1C618.2,417.7 616,419.8 617.4,421.2C647.9,452.6 677,485.5 704.6,519.5C705.8,521.1 707.9,518.9 706.7,517.4Z" style="fill:rgb(22,22,22);fill-rule:nonzero;"/>
            </g>
        </g>
        <g>
            <g>
                <path d="M749.8,506.7C729,494.2 709.4,479.6 691.6,463C683.1,455 674.9,446.7 667.3,437.9C659,428.4 651.4,418.3 642.1,409.8C640.7,408.5 638.6,410.6 640,411.9C649.3,420.5 656.9,430.5 665.2,440C673.2,449.2 681.8,458 690.8,466.3C708.4,482.6 727.8,496.9 748.3,509.3C750,510.3 751.5,507.7 749.8,506.7Z" style="fill:rgb(22,22,22);fill-rule:nonzero;"/>
            </g>
        </g>
        <g>
            <g>
                <path d="M639.6,409.4C639.7,410.9 639.9,412.7 639.3,414.1C637.9,417.6 633.6,415.9 630.9,415.2C626.9,414.1 622.8,414 618.7,414.5C618.1,414.6 617.4,414.9 617.3,415.6C616.8,418.1 617.1,419.8 618.5,421.9C619.5,423.5 622.1,422 621.1,420.4C620.8,419.1 620.5,417.7 620.2,416.4C619.7,416.8 619.2,417.1 618.8,417.5C622.9,417 627,417.1 631,418.3C633.5,419 636.1,420.5 638.7,419.4C642.6,417.9 643,413 642.8,409.4C642.5,407.5 639.5,407.5 639.6,409.4Z" style="fill:rgb(22,22,22);fill-rule:nonzero;"/>
            </g>
        </g>
        <g>
            <g>
                <path d="M702.3,518.6C679.2,563.7 645,602.4 603.6,631.5C602,632.6 603.5,635.2 605.1,634.1C646.9,604.7 681.6,565.7 704.9,520.1C705.8,518.4 703.2,516.9 702.3,518.6Z" style="fill:rgb(22,22,22);fill-rule:nonzero;"/>
            </g>
        </g>
        <g>
            <g>
                <path d="M749.5,511.3C715.8,556.5 682.1,601.6 648.4,646.8C647.2,648.3 649.8,649.8 651,648.3C684.7,603.1 718.4,558 752.1,512.8C753.2,511.3 750.6,509.8 749.5,511.3Z" style="fill:rgb(22,22,22);fill-rule:nonzero;"/>
            </g>
        </g>
        <g>
            <g>
                <path d="M773,370.3C774.1,400 766,429.1 754.2,456.1C744,479.4 730.3,502 708.1,515.5C706.5,516.5 708,519.1 709.6,518.1C732.2,504.3 746.4,481.4 756.8,457.6C768.9,430.1 777.2,400.6 776.1,370.3C775.9,368.4 772.9,368.4 773,370.3Z" style="fill:rgb(22,22,22);fill-rule:nonzero;"/>
            </g>
        </g>
        <g>
            <g>
                <path d="M739.4,341.6C715.9,350.1 693.8,362.1 672.6,375.3C662,381.9 651.5,388.9 641.1,395.8C631.9,401.9 622.8,408.1 616.2,417.1C615.1,418.7 617.7,420.2 618.8,418.6C626,408.9 636.5,402.5 646.4,395.9C656.1,389.5 665.8,383.1 675.7,376.9C696.2,364.2 717.5,352.7 740.2,344.4C742,343.9 741.2,341 739.4,341.6Z" style="fill:rgb(22,22,22);fill-rule:nonzero;"/>
            </g>
        </g>
        <g>
            <g>
                <path d="M615.1,416.7C592.2,454.1 557.9,484.8 520.5,507.2C518.8,508.2 520.4,510.8 522,509.8C559.9,487.2 594.5,456.1 617.7,418.3C618.7,416.5 616.2,415 615.1,416.7Z" style="fill:rgb(22,22,22);fill-rule:nonzero;"/>
            </g>
        </g>
        <g>
            <g>
                <path d="M604.9,631.2C592.8,627.6 584.3,618.4 576.7,608.8C568.7,598.6 561.2,587.8 554.4,576.7C541,554.8 530.2,531.4 522.2,507C521.6,505.2 518.7,506 519.3,507.8C527.7,533.5 539.2,558.2 553.6,581.2C560.6,592.3 568.1,603.2 576.4,613.3C583.8,622.4 592.4,630.7 604,634.1C606,634.7 606.8,631.8 604.9,631.2Z" style="fill:rgb(22,22,22);fill-rule:nonzero;"/>
            </g>
        </g>
        <g>
            <g>
                <path d="M649.9,647.1C634.1,645.3 614.1,642.6 607,626C606.2,624.2 603.7,625.8 604.4,627.5C611.9,645.1 633.1,648.1 649.9,650.1C651.8,650.3 651.8,647.3 649.9,647.1Z" style="fill:rgb(22,22,22);fill-rule:nonzero;"/>
            </g>
        </g>
        <g>
            <g>
                <path d="M825.4,341.1C824,324.4 809.8,311.9 793.5,310.3C791.6,310.1 791.6,313.1 793.5,313.3C808,314.7 821.2,326.2 822.4,341.1C822.5,343.1 825.5,343.1 825.4,341.1Z" style="fill:rgb(22,22,22);fill-rule:nonzero;"/>
            </g>
        </g>
    </g>
    <g id="head" transform="matrix(1,0,0,1,-50,0)">
        <path d="M1272,336.4C1272.1,342.7 1270.3,348.2 1266.7,359.2C1262.7,371.5 1259.9,380.1 1253.3,388.9C1248.6,395.3 1236.9,411 1216.1,414C1199,416.5 1185.4,408.9 1181.7,406.8C1172.1,401.3 1166.6,394.2 1163.8,390.1C1157,390.2 1150.2,390.4 1143.5,390.5C1142,388.6 1140,385.7 1138.4,381.9C1137.5,379.6 1135.3,373.4 1136.3,365.4C1137.1,359.4 1139.3,354.9 1141,352.2C1144.8,350.9 1148.7,349.6 1152.5,348.3C1153,343.9 1153.9,336.2 1154.8,326.6C1157.2,300.4 1156.5,292.4 1162.7,283.3C1164.1,281.3 1169.6,273.3 1179.7,269.4C1207.1,258.8 1240.7,290 1248.1,296.8C1257.7,305.5 1271.8,318.6 1272,336.4Z" style="fill:white;fill-rule:nonzero;"/>
        <path d="M1191.4,301.2C1190.4,307.4 1187.9,309.2 1184.1,317C1178.3,328.7 1177,338.7 1175.7,348C1172.1,374.8 1182.5,400.7 1186.1,409.1C1182.9,407.6 1178.8,405.3 1174.7,402C1169.5,397.8 1166,393.4 1163.8,390.1C1160.9,382.3 1158,374.4 1155,366.6C1149,364.7 1143,362.8 1137,360.9C1137,359.8 1137.4,355.5 1141,352.2C1146.5,347.1 1154.2,348.9 1154.7,349C1155.9,345.6 1157.4,340.5 1158.1,334.1C1159.6,321.9 1157,317.5 1156.8,303.8C1156.6,290.1 1156.4,278.6 1164.1,273.7C1168.9,270.7 1175.2,271.1 1179.3,272.7C1190.3,276.8 1193,291.6 1191.4,301.2Z" style="fill:rgb(96,96,96);fill-opacity:0.08;fill-rule:nonzero;"/>
        <path d="M1271.2,351.4C1276,349.3 1286.1,344.2 1289.5,334.2C1292.4,325.7 1289,317.9 1285.2,309.9C1271.3,280.7 1256.9,257 1255.5,254.7C1249.8,245.3 1241.7,231.1 1233.4,212.7C1231.2,223.5 1229.1,234.3 1226.9,245.1C1214.5,237.3 1200.1,226.1 1187,210.2C1183.3,205.7 1180.1,201.3 1177.3,197C1179.3,207.3 1181.4,217.8 1183.8,228.4C1185.4,235.6 1187,242.7 1188.7,249.7C1184.7,247.1 1180,243.6 1175.2,239.1C1169.7,233.9 1165.7,228.7 1162.8,224.4C1162.4,228.8 1162.2,233.5 1162.3,238.6C1162.4,249.3 1163.8,258.9 1165.5,266.9C1161.1,258.8 1155,248.8 1152,249.7C1149.9,250.3 1151.1,256.2 1150.9,266.4C1150.6,281.5 1147.6,294.7 1144.4,308.4C1141.5,320.8 1140,323.6 1141.2,329.7C1142.9,338.2 1148.2,344.4 1152.5,348.4C1154.6,342.7 1157,336.8 1159.5,330.7C1161.4,326.2 1163.4,321.8 1165.4,317.5C1163.9,315.6 1161.5,311.9 1161.1,306.9C1160.6,301.5 1162.2,293 1169.1,289.6C1169.8,289.2 1174.4,287 1178.4,288.9C1182.9,291 1185.3,297.6 1182.9,304.8C1189.5,305.1 1199.4,305.1 1211.3,303.9C1228.5,302.1 1233.1,299.4 1239.3,300.4C1249.1,301.8 1261.2,312.1 1271.2,351.4Z" style="fill:rgb(16,112,238);fill-rule:nonzero;"/>
        <g>
            <g>
                <path d="M1270.5,336C1264.6,365 1255.2,398.9 1224.3,410.2C1196.1,420.6 1164.9,400.7 1157.7,372.6C1153.2,354.9 1157.2,336.2 1165.6,320.3C1166.5,318.6 1163.9,317.1 1163,318.8C1148.2,346.9 1148.4,383.7 1175.4,404.4C1187,413.3 1201.9,417.9 1216.4,415.5C1231.1,413.1 1243.9,403.8 1252.8,392.1C1265,376.1 1269.5,356.1 1273.4,336.9C1273.8,334.9 1270.9,334.1 1270.5,336Z" style="fill:rgb(22,22,22);fill-rule:nonzero;"/>
            </g>
        </g>
        <g>
            <g>
                <path d="M1184.4,305.1C1186.7,295.8 1182.3,282.8 1170.3,287.3C1158,292 1156.8,308.1 1163.3,317.9C1164.4,319.5 1167,318 1165.9,316.4C1160.9,309 1160.6,297.8 1168.3,291.9C1172.2,288.9 1178.1,288.2 1180.9,293.1C1182.8,296.5 1182.4,300.7 1181.5,304.3C1181,306.2 1183.9,307 1184.4,305.1Z" style="fill:rgb(22,22,22);fill-rule:nonzero;"/>
            </g>
        </g>
        <g>
            <g>
                <path d="M1256.8,330.3C1253.9,348.9 1247.8,366.7 1238.8,383.3C1239.7,383.4 1240.6,383.5 1241.5,383.7C1240.3,375 1240,366.2 1240.6,357.5C1240.7,355.6 1237.7,355.6 1237.6,357.5C1237,366.6 1237.3,375.5 1238.6,384.5C1238.8,385.8 1240.8,385.9 1241.3,384.9C1250.4,368.1 1256.6,350 1259.6,331.2C1260,329.2 1257.1,328.3 1256.8,330.3Z" style="fill:rgb(22,22,22);fill-rule:nonzero;"/>
            </g>
        </g>
        <g>
            <g>
                <path d="M1217.7,376.1C1206.3,369.6 1199.9,356.4 1203.2,343.5C1203.7,341.6 1200.8,340.8 1200.3,342.7C1196.7,356.9 1203.6,371.5 1216.1,378.7C1217.9,379.7 1219.4,377.1 1217.7,376.1Z" style="fill:rgb(22,22,22);fill-rule:nonzero;"/>
            </g>
        </g>
        <g>
            <g>
                <path d="M1232.5,319.2C1231.3,323.4 1229.2,327.2 1226.3,330.4C1225,331.8 1227.1,333.9 1228.4,332.5C1231.7,328.9 1234.1,324.7 1235.4,320C1235.9,318.2 1233,317.4 1232.5,319.2Z" style="fill:rgb(22,22,22);fill-rule:nonzero;"/>
            </g>
        </g>
        <g>
            <g>
                <path d="M1245,319.5C1239.8,313.8 1236.3,307.2 1234.7,299.6C1234.3,297.7 1231.4,298.5 1231.8,300.4C1233.5,308.4 1237.3,315.6 1242.9,321.6C1244.1,323 1246.3,320.9 1245,319.5Z" style="fill:rgb(22,22,22);fill-rule:nonzero;"/>
            </g>
        </g>
        <g>
            <g>
                <path d="M1261.8,343.6C1261,346.9 1259.7,349.9 1257.9,352.8C1256.9,354.4 1259.5,355.9 1260.5,354.3C1262.4,351.2 1263.8,347.9 1264.7,344.4C1265.2,342.5 1262.3,341.7 1261.8,343.6Z" style="fill:rgb(22,22,22);fill-rule:nonzero;"/>
            </g>
        </g>
        <g>
            <g>
                <path d="M1273,335.8C1270,338.8 1265.3,339.3 1261.6,337.1C1259.9,336.1 1258.4,338.7 1260.1,339.7C1264.9,342.6 1271.2,341.9 1275.1,337.9C1276.5,336.5 1274.3,334.4 1273,335.8Z" style="fill:rgb(22,22,22);fill-rule:nonzero;"/>
            </g>
        </g>
        <g>
            <g>
                <path d="M1163.4,388.7C1156.9,390.6 1150.4,390.8 1143.9,389.1C1142,388.6 1141.2,391.5 1143.1,392C1150.2,393.8 1157.3,393.7 1164.2,391.6C1166.1,391 1165.3,388.1 1163.4,388.7Z" style="fill:rgb(22,22,22);fill-rule:nonzero;"/>
            </g>
        </g>
        <g>
            <g>
                <path d="M1153.6,345.8C1149.6,348.7 1144.1,347.7 1140.3,350.8C1137,353.4 1136,358.2 1135.3,362.1C1133.5,372.2 1135.9,382.4 1141.4,391.1C1142.4,392.7 1145,391.2 1144,389.6C1139,381.8 1136.8,372.7 1138.2,363.5C1139,358.1 1140.4,353.1 1146.2,351.5C1149.4,350.6 1152.4,350.4 1155.2,348.4C1156.7,347.3 1155.2,344.7 1153.6,345.8Z" style="fill:rgb(22,22,22);fill-rule:nonzero;"/>
            </g>
        </g>
    </g>
    <defs>
        <linearGradient id="_Linear1" x1="0" y1="0" x2="1" y2="0" gradientUnits="userSpaceOnUse" gradientTransform="matrix(261.3,0,0,195.266,1142.3,542.433)"><stop offset="0" style="stop-color:black;stop-opacity:1"/><stop offset="1" style="stop-color:black;stop-opacity:1"/></linearGradient>
        <linearGradient id="_Linear2" x1="0" y1="0" x2="1" y2="0" gradientUnits="userSpaceOnUse" gradientTransform="matrix(1,0,0,1,0,0.5)"><stop offset="0" style="stop-color:black;stop-opacity:1"/><stop offset="1" style="stop-color:black;stop-opacity:1"/></linearGradient>
    </defs>
</svg>
