<?xml version="1.0" encoding="UTF-8" standalone="no"?>
<!DOCTYPE svg PUBLIC "-//W3C//DTD SVG 1.1//EN" "http://www.w3.org/Graphics/SVG/1.1/DTD/svg11.dtd">
<svg width="100%" height="100%" viewBox="0 0 310 360" version="1.1" xmlns="http://www.w3.org/2000/svg" xmlns:xlink="http://www.w3.org/1999/xlink" xml:space="preserve" xmlns:serif="http://www.serif.com/" style="fill-rule:evenodd;clip-rule:evenodd;stroke-linejoin:round;stroke-miterlimit:2;">
    <g transform="matrix(1.93019,0,0,1.93019,-483.137,-209.849)">
        <path d="M363,140.2C365.9,139.9 370,139.9 374.4,141.4C389.7,146.7 392.9,165.7 393.2,167.9C393.9,172.6 393.9,179.1 386.9,196.3C383.4,204.9 377.7,217.2 363.2,239.6C360.9,243.1 350.9,258.5 335.2,276.1C328.4,283.8 321.2,291.1 310.7,292.4C308.8,292.6 303.3,293.2 297.2,290.7C290.8,288.1 287.5,283.6 286.1,281.7C276.1,268.3 283.7,248.9 284.5,247.1C278.5,239.2 272.5,231.4 266.5,223.5C277.2,225.5 287.9,227.5 298.7,229.5C290,220.6 281.3,211.6 272.5,202.7C282.3,206.2 292.1,209.7 301.9,213.2C308.5,198.3 315.2,183.4 321.8,168.5C318.1,161.5 314.3,154.4 310.6,147.4C321.8,150.2 333.1,153 344.3,155.8C330.7,143.8 317.2,131.8 303.6,119.8C311.2,122.1 318.7,124.5 326.3,126.8C323.3,121.5 320.4,116.2 317.4,110.9C332.6,120.7 347.8,130.5 363,140.2Z" style="fill:white;fill-rule:nonzero;"/>
    </g>
    <g transform="matrix(1.93019,0,0,1.93019,-483.137,-209.849)">
        <g>
            <path d="M366.4,141.6C382,141.8 392,156.6 391.8,171.1C391.6,187.2 382.8,203 375.3,216.8C368.1,230.1 359.8,242.8 350.6,254.7C345.8,260.9 340.7,267 335.4,272.8C330.5,278.2 325.5,283.8 319.2,287.6C311.2,292.4 301.7,292.4 293.9,287.4C285.8,282.2 282.2,272.7 282.7,263.3C282.8,261.4 279.8,261.4 279.7,263.3C278.9,278.5 288.8,292.8 304.6,294.2C321.6,295.8 334.1,279.2 343.9,267.7C356.1,253.4 366.9,237.9 376.1,221.5C384.7,206.1 395.2,187.7 394.7,169.5C394.2,153.9 382.7,138.9 366.3,138.7C364.4,138.6 364.4,141.6 366.4,141.6Z" style="fill:rgb(22,22,22);fill-rule:nonzero;"/>
        </g>
    </g>
    <g transform="matrix(1.93019,0,0,1.93019,-483.137,-209.849)">
        <g>
            <path d="M357.5,216.4C365.1,204.1 369.5,190 369.4,175.5C369.4,171.3 369,166.1 364.9,163.9C360.1,161.3 354.9,164.9 351.6,168.3C340.8,179.5 332.9,194 325,207.2C317.4,219.8 309.9,232.7 308.5,247.6C308.3,249.5 311.3,249.5 311.5,247.6C312.7,235 318.5,223.9 324.9,213.2C331,202.9 337.2,192.5 344.2,182.7C347.7,177.7 351.7,170.6 357.1,167.5C366.5,162.1 366.8,173.5 366.5,179.6C365.8,192.1 361.7,204.1 355.1,214.8C353.9,216.5 356.5,218 357.5,216.4Z" style="fill:rgb(22,22,22);fill-rule:nonzero;"/>
        </g>
    </g>
    <g transform="matrix(1.93019,0,0,1.93019,-483.137,-209.849)">
        <g>
            <path d="M362.6,145.9C347.9,133.9 333.2,122 318.5,110C317,108.8 314.9,110.9 316.4,112.1C331.1,124.1 345.8,136 360.5,148C361.9,149.2 364.1,147.1 362.6,145.9Z" style="fill:rgb(22,22,22);fill-rule:nonzero;"/>
        </g>
    </g>
    <g transform="matrix(1.93019,0,0,1.93019,-483.137,-209.849)">
        <g>
            <path d="M348.6,143.7C340.4,137.6 332.4,131.1 324.7,124.3C323.3,123 321.1,125.1 322.6,126.4C330.5,133.4 338.6,140 347.1,146.2C348.7,147.5 350.2,144.9 348.6,143.7Z" style="fill:rgb(22,22,22);fill-rule:nonzero;"/>
        </g>
    </g>
    <g transform="matrix(1.93019,0,0,1.93019,-483.137,-209.849)">
        <g>
            <path d="M344.5,153C331.2,141.6 317.9,130.2 304.6,118.9C303.1,117.7 301,119.8 302.5,121C315.8,132.4 329.1,143.8 342.4,155.1C343.9,156.4 346,154.3 344.5,153Z" style="fill:rgb(22,22,22);fill-rule:nonzero;"/>
        </g>
    </g>
    <g transform="matrix(1.93019,0,0,1.93019,-483.137,-209.849)">
        <g>
            <path d="M335,166.8C327.2,160 319.4,153.2 311.6,146.4C310.2,145.1 308,147.2 309.5,148.5C317.3,155.3 325.1,162.1 332.9,168.9C334.3,170.2 336.5,168.1 335,166.8Z" style="fill:rgb(22,22,22);fill-rule:nonzero;"/>
        </g>
    </g>
    <g transform="matrix(1.93019,0,0,1.93019,-483.137,-209.849)">
        <g>
            <path d="M322.1,171.8C315.6,183.3 309.1,194.7 302.5,206.2C301.5,207.9 304.1,209.4 305.1,207.7C311.6,196.2 318.1,184.8 324.7,173.3C325.6,171.7 323,170.2 322.1,171.8Z" style="fill:rgb(22,22,22);fill-rule:nonzero;"/>
        </g>
    </g>
    <g transform="matrix(1.93019,0,0,1.93019,-483.137,-209.849)">
        <g>
            <path d="M301.9,213.6C297.4,211.1 293.1,208.2 289.1,205C287.6,203.8 285.5,205.9 287,207.1C291.2,210.5 295.7,213.5 300.4,216.2C302.1,217.1 303.6,214.5 301.9,213.6Z" style="fill:rgb(22,22,22);fill-rule:nonzero;"/>
        </g>
    </g>
    <g transform="matrix(1.93019,0,0,1.93019,-483.137,-209.849)">
        <g>
            <path d="M299.1,221.2C289.7,215.8 281.2,209.4 273.5,201.7C272.1,200.3 270,202.5 271.4,203.8C279.2,211.6 288,218.2 297.6,223.7C299.3,224.8 300.8,222.2 299.1,221.2Z" style="fill:rgb(22,22,22);fill-rule:nonzero;"/>
        </g>
    </g>
    <g transform="matrix(1.93019,0,0,1.93019,-483.137,-209.849)">
        <g>
            <path d="M289.5,231C282.9,227.1 276.4,223.1 269.8,219.2C268.1,218.2 266.6,220.8 268.3,221.8C274.9,225.7 281.4,229.7 288,233.6C289.7,234.6 291.2,232 289.5,231Z" style="fill:rgb(22,22,22);fill-rule:nonzero;"/>
        </g>
    </g>
    <g transform="matrix(1.93019,0,0,1.93019,-483.137,-209.849)">
        <g>
            <path d="M291.3,246.4C287.4,244.4 283.8,242 280.4,239.2C278.9,238 276.8,240.1 278.3,241.3C281.9,244.3 285.7,246.9 289.8,249C291.5,249.9 293.1,247.3 291.3,246.4Z" style="fill:rgb(22,22,22);fill-rule:nonzero;"/>
        </g>
    </g>
</svg>
