<?xml version="1.0" encoding="UTF-8" standalone="no"?>
<!DOCTYPE svg PUBLIC "-//W3C//DTD SVG 1.1//EN" "http://www.w3.org/Graphics/SVG/1.1/DTD/svg11.dtd">
<svg width="100%" height="100%" viewBox="0 0 580 538" version="1.1" xmlns="http://www.w3.org/2000/svg" xmlns:xlink="http://www.w3.org/1999/xlink" xml:space="preserve" xmlns:serif="http://www.serif.com/" style="fill-rule:evenodd;clip-rule:evenodd;stroke-miterlimit:10;">
    <g id="background">
        <g id="details">
            <g transform="matrix(1,0,0,1,-8.86,-32.82)">
                <path d="M55,187.18C61.57,171.5 81.2,176.51 93.38,181C104.8,185.22 116.13,190.53 128.38,191.77C139.04,192.86 148.71,189.77 158.38,185.58C169.67,180.74 181.31,174.74 193.93,177.43C194.87,177.63 195.28,176.19 194.33,175.99C183.17,173.61 172.77,177.69 162.67,182.09C156.31,184.86 149.94,187.81 143.15,189.39C135.49,191.031 127.547,190.812 119.99,188.75C102.67,184.46 64.58,160.5 53.57,186.75C53.19,187.64 54.65,188.03 55.01,187.15L55,187.18Z" style="fill:rgb(255,251,251);fill-rule:nonzero;"/>
            </g>
            <g transform="matrix(1,0,0,1,-8.86,-32.82)">
                <path d="M142.39,469.86C163.27,443.61 204.23,446.92 233.72,451.08C265.99,455.63 298.07,461.75 329.51,449.65C345.59,443.46 360.29,434.28 374.83,425.15C375.64,424.64 374.89,423.34 374.07,423.85C360.14,432.6 346.07,441.43 330.75,447.56C314.47,454.07 297.47,456.31 280,455.39C247.49,453.66 215.24,443.17 182.52,448.15C167.19,450.48 151.26,456.32 141.33,468.8C140.73,469.55 141.78,470.62 142.39,469.86Z" style="fill:rgb(255,251,251);fill-rule:nonzero;"/>
            </g>
            <g transform="matrix(1,0,0,1,-8.86,-32.82)">
                <path d="M347,462.32C360.21,452.75 375.6,446.16 392.07,445.58C408.07,445.03 423.53,449.77 438.4,455.11C452.89,460.32 467.21,466.32 482.33,469.51C512.068,475.917 543.16,468.353 566.63,449C567.38,448.39 566.31,447.33 565.57,447.94C540.72,468.25 508,474.7 477,466.72C448.53,459.37 421.42,442.72 391.2,444.11C374.78,444.87 359.4,451.46 346.2,461.02C345.43,461.58 346.2,462.88 346.96,462.32L347,462.32Z" style="fill:rgb(255,251,251);fill-rule:nonzero;"/>
            </g>
            <g transform="matrix(1,0,0,1,-8.86,-32.82)">
                <path d="M355.54,389.62C373.65,382.62 392.97,386.62 411.22,390.9C429.47,395.18 447.83,399.9 466.56,402.03C497.69,405.65 531.75,401.35 555.43,379.03C556.13,378.36 555.07,377.3 554.37,377.96C528.47,402.41 490.77,404.58 457.37,399.29C439.25,396.42 421.59,391.53 403.68,387.68C387.68,384.23 370.85,382.14 355.17,388.21C354.28,388.55 354.67,390 355.57,389.65L355.54,389.62Z" style="fill:rgb(255,251,251);fill-rule:nonzero;"/>
            </g>
            <g transform="matrix(1,0,0,1,-8.86,-32.82)">
                <path d="M237.35,244C264.49,228.58 296.6,233.75 325.73,239.31C354.86,244.87 383.61,249.16 412.37,239.38C426.516,234.522 439.628,227.06 451.03,217.38C451.77,216.76 450.71,215.7 449.97,216.32C435.53,228.551 418.354,237.127 399.9,241.32C380,245.78 360,244 340.16,240.46C306.22,234.46 268.67,224.46 236.6,242.67C236.368,242.804 236.225,243.052 236.225,243.32C236.225,243.732 236.563,244.07 236.975,244.07C237.107,244.07 237.236,244.036 237.35,243.97L237.35,244Z" style="fill:rgb(255,251,251);fill-rule:nonzero;"/>
            </g>
            <g transform="matrix(1,0,0,1,-8.86,-32.82)">
                <path d="M318.09,199.4C326.74,204.65 336.93,203.06 346.31,200.86C357.91,198.14 369.13,194.06 380.31,189.86C402.75,181.42 425.5,172.29 449.89,172.86C450.301,172.86 450.64,172.521 450.64,172.11C450.64,171.699 450.301,171.36 449.89,171.36C427.71,170.8 406.77,178.23 386.3,185.95C375.94,189.86 365.59,193.85 354.95,196.95C343.69,200.25 329.73,204.6 318.89,198.02C318.06,197.52 317.31,198.82 318.13,199.32L318.09,199.4Z" style="fill:rgb(255,251,251);fill-rule:nonzero;"/>
            </g>
            <g transform="matrix(1,0,0,1,-8.86,-32.82)">
                <path d="M215.09,73.92C252.72,83.58 286.47,59.39 320.45,47.69C359.28,34.32 399.2,43.59 436.45,57.56C437.36,57.9 437.75,56.45 436.85,56.11C401.96,43.03 363.71,33.37 326.85,44.11C290.38,54.7 255.34,82.74 215.48,72.5C215.415,72.482 215.348,72.473 215.28,72.473C214.867,72.473 214.528,72.812 214.528,73.225C214.528,73.562 214.755,73.86 215.08,73.95L215.09,73.92Z" style="fill:rgb(255,251,251);fill-rule:nonzero;"/>
            </g>
            <g transform="matrix(1,0,0,1,-8.86,-32.82)">
                <path d="M425.18,347.73C426.13,345.34 428.02,344.52 430.83,345.26C431.44,345.74 432.06,346.19 432.69,346.64C433.402,347.11 434.237,347.36 435.09,347.36C437.03,347.23 437.6,345.67 438.99,344.66C442.59,342.03 442.99,345.39 445.99,346.06C447.99,346.52 452.99,341.91 454.08,344.33C454.48,345.2 455.77,344.44 455.37,343.57C454.37,341.38 452.12,341.67 450.23,342.63C448.34,343.59 447.29,344.9 444.92,343.63C444.25,343.26 443.86,342.32 443.15,341.95C442.406,341.464 441.491,341.312 440.63,341.53C439.18,341.87 438.69,343.24 437.63,344.01C434.01,346.52 433.5,344.47 430.56,343.38C427.43,342.22 425.47,344.55 423.91,347C423.39,347.82 424.69,348.57 425.21,347.76L425.18,347.73Z" style="fill:rgb(255,251,251);fill-rule:nonzero;"/>
            </g>
            <g transform="matrix(1,0,0,1,-8.86,-32.82)">
                <path d="M441.25,354.32C444.06,348.47 448.1,354.46 451.87,353.11C452.64,352.84 452.87,352.17 453.43,351.85C455.95,350.47 457.99,351.92 460.06,353.07C462.49,354.42 465.93,355.83 466.96,352C466.969,351.954 466.973,351.908 466.973,351.862C466.973,351.45 466.634,351.112 466.223,351.112C465.91,351.112 465.629,351.307 465.52,351.6C464.43,355.6 458.52,349.3 456.52,348.98C454.1,348.59 453.2,350.31 451.03,350.72C448.63,351.18 447.03,349.43 444.45,349.9C442.427,350.268 440.729,351.652 439.96,353.56C439.54,354.42 440.83,355.19 441.25,354.32Z" style="fill:rgb(255,251,251);fill-rule:nonzero;"/>
            </g>
            <g transform="matrix(1,0,0,1,-8.86,-32.82)">
                <path d="M42.81,215.28C43.65,208.87 49.81,215.4 52.3,214.48C55.23,213.41 54.3,208.73 58.68,211.16C60,211.89 60.68,213.33 62.43,212.73C62.93,212.56 63.24,211.98 63.65,211.73C63.861,211.362 64.048,210.981 64.21,210.59C67.09,208.42 69.1,208.73 70.21,211.49C70.75,212.29 72.05,211.49 71.51,210.74C69.43,207.69 67.44,206.14 63.99,207.8C63.54,208.02 63.51,208.92 63.15,209.13L59.72,210.13C59.269,209.649 58.777,209.207 58.25,208.81C57.25,208.51 57.03,207.93 55.86,208.18C54.48,208.47 54.32,209.57 53.53,210.45C53.406,211.394 52.549,212.083 51.6,212C50.607,212.9 49.747,212.84 49.02,211.82C48.08,211.47 47.72,210.82 46.71,210.71C43.71,210.27 41.66,212.62 41.31,215.3C41.19,216.25 42.69,216.25 42.81,215.3L42.81,215.28Z" style="fill:rgb(255,251,251);fill-rule:nonzero;"/>
            </g>
            <g transform="matrix(1,0,0,1,-8.86,-32.82)">
                <path d="M58,222C59.24,218.15 63.65,223.34 65.65,223C67.65,222.66 67.59,220.71 68.96,219.87C72.73,217.56 73.45,222.04 76.51,222.52C78.63,222.85 80.64,221.35 82.21,220.19C82.98,219.62 82.21,218.32 81.45,218.89C79.28,220.088 76.691,220.279 74.37,219.41C73.82,219.1 73.48,218.18 72.95,217.79C71.995,216.837 70.51,216.64 69.34,217.31C67.52,218.22 68.28,219.01 65.6,219.46C62.45,220 58.23,216.33 56.6,221.56C56.31,222.48 57.75,222.88 58.05,221.96L58,222Z" style="fill:rgb(255,251,251);fill-rule:nonzero;"/>
            </g>
            <g transform="matrix(1,0,0,1,-8.86,-32.82)">
                <path d="M177.42,554.77C181.13,550.5 186.55,558.87 190.99,557.94C192.48,557.63 192.75,556.94 193.83,556.09C196.69,553.77 198.24,554.2 201.36,555.89C203.36,556.97 205.43,558.06 207.64,556.89C208.38,556.51 208.87,555.45 209.55,555.13C211.42,554.23 212.45,555.3 213.95,555.82C215.16,556.23 215.46,556.61 216.82,556.36C217.82,556.18 217.37,554.73 216.42,554.91C214.35,555.3 213.02,552.54 210.94,552.71C209.56,552.82 209.54,553.51 208.49,554.07C206.41,555.17 205.41,556.07 203.07,555.07C202.07,554.67 201.17,553.93 200.2,553.46C199.099,552.805 197.841,552.46 196.56,552.46C195.533,552.554 194.571,553.003 193.84,553.73C191.61,555.65 192.84,557.56 187.29,555.52C186.235,554.94 185.231,554.271 184.29,553.52C181.69,551.97 178.57,551.15 176.38,553.66C175.75,554.39 176.8,555.46 177.44,554.72L177.42,554.77Z" style="fill:rgb(255,251,251);fill-rule:nonzero;"/>
            </g>
            <g transform="matrix(1,0,0,1,-8.86,-32.82)">
                <path d="M201.55,564.13C205.24,559.61 207.37,565.4 210.47,565.64C212.63,565.81 214.37,563.36 216.54,563.49C219.9,563.69 222.17,567.06 225.54,564.87C226.34,564.35 225.59,563.05 224.78,563.58C221.98,565.4 218.78,562.01 215.96,561.89C213.86,561.8 212.83,563.26 210.78,563.25C207.11,563.25 203.78,559.03 200.49,563.07C199.89,563.82 200.94,564.88 201.55,564.13Z" style="fill:rgb(255,251,251);fill-rule:nonzero;"/>
            </g>
            <g transform="matrix(1,0,0,1,-8.86,-32.82)">
                <path d="M475.5,429.7C475.1,427.97 482.57,430.02 483.66,429.7C485.44,429.17 486.21,427.78 488.21,427.3C491.05,426.63 493.98,427.65 496.67,428.42C498.495,429.095 500.482,429.203 502.37,428.73C505.37,428.17 507.11,427.87 510.02,428.73C511.326,429.198 512.716,429.388 514.1,429.29C515.1,429.22 515.1,427.72 514.1,427.79C510.26,428.07 507.39,425.47 503.53,426.27C501.15,426.77 499.53,427.45 497.07,426.95C496.07,426.75 495.07,426.34 494.07,426.11C492.253,425.64 490.364,425.511 488.5,425.73C485.93,426.14 484.5,427.84 481.89,427.6C480.26,427.46 478.57,426.5 476.89,426.6C474.82,426.74 473.55,428.1 474,430.05C474.21,430.99 475.66,430.59 475.45,429.65L475.5,429.7Z" style="fill:rgb(255,251,251);fill-rule:nonzero;"/>
            </g>
            <g transform="matrix(1,0,0,1,-8.86,-32.82)">
                <path d="M499.82,436.38C503.67,434.82 506.61,436.88 509.55,438.96C509.901,439.14 510.337,439.023 510.55,438.69C512.7,435.88 515.46,435.46 518.55,436.47C519.3,436.72 519.93,437.21 520.69,437.47C522.449,437.965 524.311,437.965 526.07,437.47C527.01,437.26 526.62,435.81 525.67,436.02C520.09,437.27 516.74,431.02 511.82,435.08C508.92,437.46 509.59,436.44 505.92,435C503.874,434.026 501.5,433.996 499.43,434.92C498.55,435.28 498.94,436.73 499.83,436.36L499.82,436.38Z" style="fill:rgb(255,251,251);fill-rule:nonzero;"/>
            </g>
        </g>
        <g id="papers">
            <g transform="matrix(1,0,0,1,-8.86,-32.82)">
                <path d="M63.83,102.09C63.332,106.334 63.215,110.615 63.48,114.88C63.89,121.67 64.54,132.17 71.4,141.72C73.134,144.145 75.148,146.357 77.4,148.31C82.534,149.826 87.857,150.607 93.21,150.63C105.12,150.63 113.94,146.81 122.21,143.11C130.327,139.463 137.945,134.795 144.88,129.22C144.661,126.551 144.202,123.907 143.51,121.32C138.58,102.78 123.02,92.32 115.97,88.16C113.035,91.805 109.609,95.026 105.79,97.73C101.94,100.46 94,106.08 82.64,106.46C76.1,106.635 69.623,105.13 63.83,102.09Z" style="fill:white;fill-rule:nonzero;"/>
            </g>
            <g transform="matrix(1,0,0,1,-8.86,-32.82)">
                <path d="M224.24,89C227.11,91.422 229.754,94.1 232.14,97C236.345,101.749 239.592,107.267 241.7,113.25C243.852,119.895 244.367,126.963 243.2,133.85C265.144,136.733 284.462,149.877 295.2,169.23C297.513,164.998 299.554,160.622 301.31,156.13C310.21,133.33 309.96,111.94 308.16,97.3C299.655,90.926 289.982,86.282 279.69,83.63C253.61,77 231.85,85.58 224.24,89Z" style="fill:white;fill-rule:nonzero;"/>
            </g>
            <g transform="matrix(1,0,0,1,-8.86,-32.82)">
                <path d="M275.48,508.56C276.48,511.01 278.04,514.38 280.05,518.3C282.86,523.79 287.17,532.19 293.44,539.85C304.72,553.6 318.31,560 324,562.63C331.395,566.019 339.206,568.413 347.23,569.75C353.104,566.131 358.631,561.977 363.74,557.34C374.137,547.873 382.7,536.571 389,524C384.706,523.799 380.477,522.876 376.49,521.27C367.59,517.66 362.55,511.6 358.92,507.14C348.66,494.52 345.02,480.48 343.58,472.14C316.339,472.574 290.93,486.174 275.46,508.6L275.48,508.56Z" style="fill:white;fill-rule:nonzero;"/>
            </g>
            <g transform="matrix(1,0,0,1,-8.86,-32.82)">
                <path d="M339.31,472C331.507,475.758 325.094,481.898 321,489.53C316.31,498.42 314.81,509.42 317.59,518.04C323.13,535.17 347.09,547.48 375.05,542.3C368.572,553.898 358.929,563.419 347.25,569.75C341.011,568.66 334.898,566.948 329,564.64C317.273,560.092 306.595,553.202 297.62,544.39C287.505,534.048 280.158,521.321 276.26,507.39C284.65,495.868 295.729,486.567 308.53,480.3C318.188,475.653 328.625,472.838 339.31,472Z" style="fill:rgb(158,158,158);fill-opacity:0.14;fill-rule:nonzero;"/>
            </g>
            <g transform="matrix(1,0,0,1,-8.86,-32.82)">
                <path d="M115.64,89.44C112.086,94.24 109.315,99.573 107.43,105.24C101.09,124.45 107.15,141.58 109.65,147.64C99.27,151.337 87.965,151.572 77.44,148.31C65.627,135.824 61.032,118.102 65.29,101.45C69.335,104.323 73.99,106.222 78.89,107C99.3,110.07 114.62,90.76 115.64,89.44Z" style="fill:rgb(158,158,158);fill-opacity:0.14;fill-rule:nonzero;"/>
            </g>
            <g transform="matrix(1,0,0,1,-8.86,-32.82)">
                <path d="M225.65,90.24C231.002,94.539 235.399,99.906 238.56,106C241.063,110.897 242.752,116.17 243.56,121.61C244.343,126.359 244.514,131.188 244.07,135.98C249.502,137.006 254.85,138.433 260.07,140.25C269.28,143.46 277.29,146.25 284.54,153.25C289.195,157.781 292.829,163.253 295.2,169.3C293.935,159.484 291.587,149.839 288.2,140.54C280.173,118.973 266.947,99.715 249.7,84.48L225.65,90.24Z" style="fill:rgb(158,158,158);fill-opacity:0.14;fill-rule:nonzero;"/>
            </g>
            <g transform="matrix(1,0,0,1,-8.86,-32.82)">
                <path d="M63.08,102.09C61.129,118.625 65.409,135.307 75.08,148.86C75.64,149.64 76.94,148.86 76.38,148.11C66.867,134.782 62.667,118.369 64.61,102.11C64.72,101.11 63.22,101.11 63.11,102.11L63.08,102.09Z" style="fill-rule:nonzero;"/>
            </g>
            <g transform="matrix(1,0,0,1,-8.86,-32.82)">
                <path d="M64.76,102C71.67,108.15 81.85,107.62 90.34,105.6C100.338,103.156 109.353,97.711 116.17,90C116.81,89.28 115.75,88.22 115.11,88.94C109.181,95.643 101.536,100.605 93,103.29C84.46,105.93 73,107.29 65.81,100.92C65.09,100.28 64.03,101.33 64.75,101.98L64.76,102Z" style="fill-rule:nonzero;"/>
            </g>
            <g transform="matrix(1,0,0,1,-8.86,-32.82)">
                <path d="M77.24,149C98.94,157 125.57,144.66 142.99,132C143.77,131.44 142.99,130.13 142.24,130.7C125.1,143.18 99,155.4 77.64,147.58C76.73,147.25 76.34,148.7 77.24,149.03L77.24,149Z" style="fill-rule:nonzero;"/>
            </g>
            <g transform="matrix(1,0,0,1,-8.86,-32.82)">
                <path d="M115.6,88.81C131.487,96.378 142.32,111.717 144.14,129.22C144.23,130.22 145.73,130.22 145.64,129.22C143.812,111.189 132.699,95.362 116.36,87.52C115.49,87.1 114.73,88.39 115.6,88.81Z" style="fill-rule:nonzero;"/>
            </g>
            <g transform="matrix(1,0,0,1,-8.86,-32.82)">
                <path d="M277.83,507.4C282.72,496.19 295.95,488.13 306.22,482.4C317.7,475.96 330.36,472.06 343.6,472.89C344.6,472.95 344.6,471.45 343.6,471.39C330.12,470.54 317.15,474.55 305.47,481.11C295.04,486.96 281.47,495.3 276.54,506.68C276.15,507.56 277.45,508.32 277.83,507.44L277.83,507.4Z" style="fill-rule:nonzero;"/>
            </g>
            <g transform="matrix(1,0,0,1,-8.86,-32.82)">
                <path d="M343.88,473.43C347.09,496.1 363.29,524.12 389.02,524.71C389.431,524.71 389.77,524.371 389.77,523.96C389.77,523.549 389.431,523.21 389.02,523.21C364,522.63 348.44,495 345.33,473C345.19,472.05 343.75,472.45 343.88,473.4L343.88,473.43Z" style="fill-rule:nonzero;"/>
            </g>
            <g transform="matrix(1,0,0,1,-8.86,-32.82)">
                <path d="M276.55,510.83C286.29,542.12 314.55,565.67 347.06,569.69C348.01,569.81 348,568.31 347.06,568.19C315.23,564.25 287.52,541 278,510.43C277.71,509.51 276.26,509.9 276.55,510.83Z" style="fill-rule:nonzero;"/>
            </g>
            <g transform="matrix(1,0,0,1,-8.86,-32.82)">
                <path d="M347.64,570.4C364.658,559.844 378.544,544.923 387.85,527.19C388.3,526.33 387.01,525.57 386.56,526.43C377.379,543.939 363.677,558.674 346.88,569.1C346.07,569.61 346.82,570.91 347.64,570.4Z" style="fill-rule:nonzero;"/>
            </g>
            <g transform="matrix(1,0,0,1,-8.86,-32.82)">
                <path d="M226.38,92.9C238.814,102.498 245.009,118.197 242.48,133.7C242.32,134.64 243.77,135.05 243.92,134.1C246.597,117.948 240.131,101.575 227.14,91.61C226.37,91.02 225.62,92.32 226.38,92.9Z" style="fill-rule:nonzero;"/>
            </g>
            <g transform="matrix(1,0,0,1,-8.86,-32.82)">
                <path d="M232.1,88.34C258.1,82.53 288.32,81.14 308.81,101.25C309.5,101.93 310.56,100.87 309.87,100.19C289,79.7 258.26,81 231.7,86.89C230.76,87.1 231.16,88.55 232.1,88.34Z" style="fill-rule:nonzero;"/>
            </g>
            <g transform="matrix(1,0,0,1,-8.86,-32.82)">
                <path d="M247.32,137.75C266.22,142.01 287.57,149.35 294.45,169.48C294.548,169.798 294.844,170.016 295.176,170.016C295.438,170.016 295.681,169.881 295.82,169.66C308.03,148.59 308.58,123.82 308.75,100.13C308.75,99.719 308.411,99.38 308,99.38C307.589,99.38 307.25,99.719 307.25,100.13C307.08,123.56 306.6,148.07 294.52,168.9L295.89,169.08C288.83,148.4 267.19,140.69 247.72,136.3C246.78,136.09 246.38,137.54 247.32,137.75Z" style="fill-rule:nonzero;"/>
            </g>
            <g transform="matrix(1,0,0,1,-8.86,-32.82)">
                <path d="M320.27,527.12C325.136,524.18 329.598,520.617 333.54,516.52C334.21,515.82 333.15,514.76 332.48,515.46C328.617,519.469 324.247,522.955 319.48,525.83C318.65,526.33 319.41,527.63 320.23,527.12L320.27,527.12Z" style="fill:rgb(102,35,129);fill-rule:nonzero;"/>
            </g>
            <g transform="matrix(1,0,0,1,-8.86,-32.82)">
                <path d="M322.92,517C325.345,521.588 328.546,525.723 332.38,529.22C333.09,529.87 334.16,528.81 333.44,528.16C329.701,524.75 326.579,520.721 324.21,516.25C323.76,515.39 322.47,516.15 322.92,517Z" style="fill:rgb(102,35,129);fill-rule:nonzero;"/>
            </g>
            <g transform="matrix(1,0,0,1,-8.86,-32.82)">
                <path d="M262.27,113.24C268.982,113.725 275.237,116.847 279.66,121.92C280.3,122.64 281.36,121.58 280.72,120.86C276.012,115.511 269.378,112.232 262.27,111.74C261.27,111.66 261.32,113.16 262.27,113.24Z" style="fill:rgb(102,35,129);fill-rule:nonzero;"/>
            </g>
            <g transform="matrix(1,0,0,1,-8.86,-32.82)">
                <path d="M272,105.32L270,120.6C269.87,121.6 271.38,121.54 271.5,120.6L273.5,105.32C273.62,104.37 272.12,104.38 272,105.32Z" style="fill:rgb(102,35,129);fill-rule:nonzero;"/>
            </g>
            <g transform="matrix(1,0,0,1,-8.86,-32.82)">
                <path d="M95.35,126.33C100.633,124.286 105.757,121.853 110.68,119.05C110.911,118.915 111.053,118.667 111.053,118.4C111.053,117.987 110.713,117.647 110.3,117.647C110.166,117.647 110.035,117.683 109.92,117.75C105.105,120.499 100.091,122.882 94.92,124.88C94.03,125.23 94.41,126.68 95.31,126.33L95.35,126.33Z" style="fill:rgb(102,35,129);fill-rule:nonzero;"/>
            </g>
            <g transform="matrix(1,0,0,1,-8.86,-32.82)">
                <path d="M99.79,114.16L109.64,128.63C110.18,129.42 111.48,128.63 110.94,127.87L101.08,113.4C100.54,112.61 99.24,113.4 99.79,114.16Z" style="fill:rgb(102,35,129);fill-rule:nonzero;"/>
            </g>
        </g>
    </g>
    <g id="guy">
        <g transform="matrix(1,0,0,1,-8.86,-32.82)">
            <g id="torso">
                <path d="M148.23,310.1C138.6,323.678 130.451,338.248 123.92,353.56C110.531,385.303 104.156,419.566 105.23,454C112.583,463.31 122.233,470.548 133.23,475C163.23,486.89 191.01,471.89 195.23,469.52C196.262,459.152 197.855,448.846 200,438.65C206.505,407.371 214.952,392.859 218.54,375.284C219.448,370.839 220.044,366.198 220.22,361.04C220.58,350.32 219.22,334.57 210.38,315.04L148.23,310.1Z" style="fill:rgb(102,35,129);fill-rule:nonzero;"/>
            </g>
        </g>
        <g id="head">
            <g transform="matrix(1,0,0,1,-8.86,-32.82)">
                <path d="M149.52,249.71C148.538,246.588 148.092,243.321 148.2,240.05C148.413,235.101 149.831,230.277 152.33,226C159.24,214.35 172.2,211.78 173.96,211.46C182.623,210.018 191.516,212.006 198.74,217C202.98,214.56 207.618,212.888 212.44,212.06C217.49,211.21 221.97,210.46 224.66,213.06C227.72,216.06 226.66,221.56 226.3,223.31C225.6,226.85 223.73,231.19 215.47,238.73C208.47,245.16 201.94,251.08 191.01,254.81C186.62,256.31 180.71,256.81 168.9,257.93C164.37,258.34 160.77,258.53 156.9,256.65C153.83,255.086 151.27,252.678 149.52,249.71Z" style="fill:rgb(255,242,137);fill-rule:nonzero;"/>
            </g>
            <g transform="matrix(1,0,0,1,-8.86,-32.82)">
                <path d="M179.35,255.34C181.293,257.445 182.902,259.837 184.12,262.43C186.24,267.01 186.01,270.18 186.75,275.68C187.642,283.166 189.404,290.522 192,297.6C194.14,303.12 195.26,305.93 198,308.46C203.59,313.55 210.89,313.62 213.23,313.65C216.5,313.65 220.84,313.72 224.74,310.84C228.35,308.16 229.54,304.47 230.99,299.97C232.44,295.47 233.88,290.97 232.22,285.39C230.935,281.341 228.408,277.796 225,275.26C221.67,272.698 217.683,271.127 213.5,270.73C208.707,267.77 203.833,264.62 198.88,261.28C195.88,259.28 192.957,257.257 190.11,255.21L179.35,255.34Z" style="fill-rule:nonzero;"/>
            </g>
            <g transform="matrix(1,0,0,1,-8.86,-32.82)">
                <path d="M151.54,253.6C151.75,255.18 152.05,257.51 152.34,260.32C153.2,268.55 154.53,281.21 153.48,295.59C152.666,306.425 150.626,317.134 147.4,327.51C164.067,336.065 184.55,332.388 197.2,318.57L196,305.45C194.433,302.959 193.095,300.332 192,297.6C188.3,288.16 189.4,282.27 187.33,272.79C186.118,267.315 184.184,262.026 181.58,257.06C171.44,259.096 160.912,257.885 151.5,253.6L151.54,253.6Z" style="fill:white;fill-rule:nonzero;"/>
            </g>
            <g transform="matrix(1,0,0,1,-8.86,-32.82)">
                <path d="M191.24,254.47C191.903,257.091 192.814,259.642 193.96,262.09C196.11,266.7 197.53,269.74 200.62,271.52C205.2,274.17 210.62,272.41 212.3,271.79L216.07,271.79C215.403,269.123 214.62,266.4 213.72,263.62C211.845,257.652 209.631,251.796 207.09,246.08L191.24,254.47Z" style="fill:white;fill-rule:nonzero;"/>
            </g>
            <g transform="matrix(1,0,0,1,-8.86,-32.82)">
                <path d="M177.46,259.82C175.006,264.279 172.996,268.968 171.46,273.82C168.17,284.32 168.58,291.03 167.56,297C166.28,304.5 162.05,315 148.31,326.72C150.133,319.757 151.515,312.687 152.45,305.55C153.289,299.088 153.763,292.585 153.87,286.07C153.979,279.497 153.719,272.924 153.09,266.38L177.46,259.82Z" style="fill:rgb(158,158,158);fill-opacity:0.17;fill-rule:nonzero;"/>
            </g>
            <g transform="matrix(1,0,0,1,-8.86,-32.82)">
                <path d="M151.5,254.84C151.81,256.84 152.25,259.69 152.71,263.17C155.51,284.55 154.25,292.17 156.61,293.01C158.97,293.85 164.89,287.69 180.15,257.33C170.535,258.679 160.738,257.828 151.5,254.84Z" style="fill-rule:nonzero;"/>
            </g>
            <g transform="matrix(1,0,0,1,-8.86,-32.82)">
                <path d="M207.54,250.22C210.833,257.214 213.448,264.507 215.35,272L216.27,271.07C214.679,270.788 213.065,270.661 211.45,270.69C211.039,270.69 210.7,271.029 210.7,271.44C210.7,271.851 211.039,272.19 211.45,272.19C212.932,272.089 214.42,272.201 215.87,272.52C215.93,272.535 215.991,272.542 216.052,272.542C216.469,272.542 216.812,272.199 216.812,271.782C216.812,271.721 216.805,271.66 216.79,271.6C214.853,263.989 212.191,256.582 208.84,249.48C208.43,248.6 207.13,249.36 207.54,250.23L207.54,250.22Z" style="fill-rule:nonzero;"/>
            </g>
            <g transform="matrix(1,0,0,1,-8.86,-32.82)">
                <path d="M190.29,255C192.46,260.37 194.18,267.67 199.02,271.34C202.99,274.264 208.296,274.687 212.68,272.43C213.55,272.01 212.79,270.71 211.93,271.13C207.089,273.605 201.114,272.246 197.82,267.92C194.91,264.11 193.52,259.01 191.74,254.6C191.38,253.72 189.93,254.1 190.29,255Z" style="fill-rule:nonzero;"/>
            </g>
            <g transform="matrix(1,0,0,1,-8.86,-32.82)">
                <path d="M217.1,272.36C234.33,276.7 236.59,297.43 225.63,309.27C224.97,309.97 226.03,311.04 226.69,310.33C238.41,297.67 235.82,275.53 217.5,270.91C217.435,270.892 217.368,270.883 217.3,270.883C216.887,270.883 216.548,271.222 216.548,271.635C216.548,271.972 216.775,272.27 217.1,272.36Z" style="fill-rule:nonzero;"/>
            </g>
            <g transform="matrix(1,0,0,1,-8.86,-32.82)">
                <path d="M181.74,259.63C191.21,275.76 184.74,299.09 200.65,311.81C201.39,312.41 202.46,311.36 201.71,310.75C186.08,298.22 192.42,274.85 183.03,258.87C182.891,258.663 182.657,258.539 182.408,258.539C181.997,258.539 181.658,258.878 181.658,259.289C181.658,259.408 181.686,259.524 181.74,259.63Z" style="fill-rule:nonzero;"/>
            </g>
            <g transform="matrix(1,0,0,1,-8.86,-32.82)">
                <path d="M150.78,255C154.707,278.801 153.623,303.161 147.6,326.52C147.582,326.585 147.573,326.652 147.573,326.72C147.573,327.133 147.912,327.472 148.325,327.472C148.662,327.472 148.96,327.245 149.05,326.92C155.13,303.301 156.21,278.67 152.22,254.61C152.06,253.66 150.62,254.06 150.78,255Z" style="fill-rule:nonzero;"/>
            </g>
            <g transform="matrix(1,0,0,1,-8.86,-32.82)">
                <path d="M147.86,249.37C150.07,255.37 156.08,257.53 161.96,258.37C170.651,259.526 179.489,258.844 187.9,256.37C204.215,251.519 217.952,240.38 226.07,225.42C226.54,224.58 225.25,223.82 224.78,224.67C214.127,244.602 193.379,257.181 170.78,257.41C163.54,257.49 152.34,257.09 149.34,249C149.01,248.11 147.56,248.49 147.9,249.4L147.86,249.37Z" style="fill-rule:nonzero;"/>
            </g>
            <g transform="matrix(1,0,0,1,-8.86,-32.82)">
                <path d="M150.24,249.51C145.82,234.371 154.37,218.24 169.38,213.4C184,208.53 199.38,215.01 208.08,227.23C208.64,228.01 209.94,227.23 209.38,226.47C199.96,213.25 183.14,206.47 167.54,212.47C152.539,218.091 144.305,234.531 148.79,249.91C149.07,250.83 150.52,250.44 150.24,249.51Z" style="fill-rule:nonzero;"/>
            </g>
            <g transform="matrix(1,0,0,1,-8.86,-32.82)">
                <path d="M201.25,217.38C205.142,215.021 209.422,213.372 213.89,212.51C216.78,211.97 221.4,211.12 223.89,213.34C227.3,216.34 226.37,221.8 224.53,225.26C224.07,226.11 225.36,226.87 225.82,226.01C228.35,221.28 228.74,212.92 222.48,210.75C215.81,208.44 206.09,212.75 200.48,216.09C200.273,216.229 200.149,216.463 200.149,216.712C200.149,217.123 200.488,217.462 200.899,217.462C201.018,217.462 201.134,217.434 201.24,217.38L201.25,217.38Z" style="fill-rule:nonzero;"/>
            </g>
            <g transform="matrix(1,0,0,1,-8.86,-32.82)">
                <path d="M201,253.58C201.745,254.754 202.216,256.08 202.38,257.46L203.78,257.08C202.766,255.713 202.097,254.121 201.83,252.44C201.67,251.44 200.23,251.89 200.38,252.83C200.675,254.639 201.395,256.353 202.48,257.83C202.86,258.35 203.98,258.28 203.88,257.45C203.701,255.806 203.162,254.222 202.3,252.81C201.79,251.99 200.49,252.74 201,253.57L201,253.58Z" style="fill-rule:nonzero;"/>
            </g>
            <g transform="matrix(1,0,0,1,-8.86,-32.82)">
                <path d="M182.64,264.37C178.25,263.05 174.92,267.89 174.8,271.82C174.795,271.935 174.792,272.05 174.792,272.165C174.792,276.197 178.11,279.515 182.142,279.515C182.382,279.515 182.621,279.503 182.86,279.48C183.81,279.37 183.86,277.87 182.86,277.98C173.47,278.98 175.52,263.79 182.24,265.81C182.286,265.819 182.332,265.823 182.378,265.823C182.79,265.823 183.128,265.484 183.128,265.073C183.128,264.76 182.933,264.479 182.64,264.37Z" style="fill-rule:nonzero;"/>
            </g>
            <g transform="matrix(1,0,0,1,-8.86,-32.82)">
                <path d="M200.56,311.65C207.69,314.83 221.04,316.71 227,310.02C227.64,309.3 226.58,308.24 225.93,308.96C220.47,315.1 207.79,313.24 201.32,310.36C200.45,309.97 199.68,311.26 200.56,311.65Z" style="fill-rule:nonzero;"/>
            </g>
            <g transform="matrix(1,0,0,1,-8.86,-32.82)">
                <path d="M201.72,259.71C202.571,258.611 203.98,258.093 205.34,258.38C206.28,258.58 206.68,257.14 205.74,256.93C203.861,256.498 201.89,257.165 200.66,258.65C200.06,259.39 201.11,260.46 201.72,259.71Z" style="fill-rule:nonzero;"/>
            </g>
            <g transform="matrix(1,0,0,1,-8.86,-32.82)">
                <path d="M195.25,305.25C194.904,307.707 194.806,310.193 194.96,312.67C195.02,313.67 196.52,313.67 196.46,312.67C196.302,310.335 196.379,307.99 196.69,305.67C196.82,304.73 195.38,304.32 195.25,305.27L195.25,305.25Z" style="fill-rule:nonzero;"/>
            </g>
        </g>
        <g id="hand">
            <g transform="matrix(1,0,0,1,-8.86,-32.82)">
                <path d="M193.53,324.09C196.382,320.927 199.895,318.432 203.82,316.78C210.43,314.04 216.89,314.42 224.29,315.91C238.16,318.71 247.69,323.91 255.18,327.6C267.213,333.553 279.658,338.633 292.42,342.8C300.29,338.66 308.64,333.86 317.28,328.28C324.05,323.91 330.28,319.51 336.03,315.19C337.752,305.272 346.142,297.782 356.19,297.19C364.546,301.632 373.847,304.005 383.31,304.11C382.31,309.34 381.89,312.84 382.49,313.01C383.09,313.18 384.29,311.26 383.9,310.58C383.07,309.11 373.64,312.31 349.47,323.72C339.67,334.27 331.09,342.9 324.47,349.38C312.38,361.18 306.35,366.73 298.47,372.38C293.62,375.87 289.38,378.51 286.37,380.3C283.683,380.669 280.973,380.849 278.26,380.84C270.241,380.736 262.317,379.089 254.92,375.99C245.63,372.41 232.14,368.27 211.48,363.15L193.53,324.09Z" style="fill:white;fill-rule:nonzero;"/>
            </g>
            <g transform="matrix(1,0,0,1,-8.86,-32.82)">
                <path d="M192,320.92C195.28,323.65 200.35,327.8 206.67,332.66C241.83,359.72 260.04,373.38 277.67,370.14C281.75,369.39 289.41,362.79 304.72,349.6C333.72,324.6 341.72,313.09 359.79,308.21C367.304,306.234 375.122,305.677 382.84,306.57C384.21,309.75 383.84,311.62 383.32,312.69C380.53,318.69 367.43,314.2 354.47,320.76C352,322 350.83,323 341.78,331.91C325,348.34 320.11,353.71 314.47,359C305.808,367.105 296.343,374.306 286.22,380.49C279.22,380.1 271.83,379.36 264.04,378.15C245.21,375.213 226.818,369.942 209.29,362.46L192,320.92Z" style="fill:rgb(158,158,158);fill-opacity:0.24;fill-rule:nonzero;"/>
            </g>
            <g transform="matrix(1,0,0,1,-8.86,-32.82)">
                <path d="M198.63,320.65C212.68,310.22 229.94,318.03 244.12,323.86L290.35,342.86C291.24,343.22 291.63,341.77 290.75,341.41C273.54,334.33 256.35,327.18 239.1,320.18C225.98,314.85 210.42,310.03 197.87,319.35C197.11,319.92 197.87,321.22 198.63,320.64L198.63,320.65Z" style="fill-rule:nonzero;"/>
            </g>
            <g transform="matrix(1,0,0,1,-8.86,-32.82)">
                <path d="M287,346.92C299.94,339.12 313.22,331.86 326.15,324.05C330.49,321.43 334.8,318.41 337.73,314.19C339.28,311.97 340.09,309.46 341.26,307.05C343.102,302.94 346.707,299.876 351.06,298.72C351.348,298.609 351.54,298.33 351.54,298.02C351.54,297.609 351.201,297.27 350.79,297.27C350.75,297.27 350.71,297.274 350.67,297.28C346.166,298.441 342.37,301.48 340.25,305.62C338.43,309.16 337.44,312.56 334.72,315.57C332.36,318.058 329.668,320.208 326.72,321.96C313.51,330.26 299.64,337.57 286.27,345.62C286.039,345.755 285.897,346.003 285.897,346.27C285.897,346.683 286.237,347.023 286.65,347.023C286.784,347.023 286.915,346.987 287.03,346.92L287,346.92Z" style="fill-rule:nonzero;"/>
            </g>
            <g transform="matrix(1,0,0,1,-8.86,-32.82)">
                <path d="M209.1,363.19C223.314,368.278 237.78,372.633 252.44,376.24C259.46,377.973 266.523,379.52 273.63,380.88C278.81,381.88 283.95,382.7 288.81,380.15C294.17,377.33 299.05,373.01 303.72,369.2C309.25,364.68 314.58,359.92 319.72,355.01C330.1,345.16 339.87,334.69 349.64,324.23C350.29,323.52 349.23,322.46 348.57,323.17C330.69,342.33 312.57,362.3 290.77,377.17C283.84,381.88 277.03,380.11 269.37,378.55C262.59,377.163 255.847,375.617 249.14,373.91C235.73,370.5 222.5,366.42 209.46,361.77C208.55,361.45 208.16,362.89 209.07,363.22L209.1,363.19Z" style="fill-rule:nonzero;"/>
            </g>
            <g transform="matrix(1,0,0,1,-8.86,-32.82)">
                <path d="M361,299.74C364.829,301.606 368.898,302.936 373.09,303.69C374.705,303.97 376.334,304.16 377.97,304.26C380.46,304.41 380.8,303.79 382.27,306.34C383.63,308.72 383.42,309.93 382.66,312.49C382.651,312.536 382.647,312.582 382.647,312.628C382.647,313.04 382.986,313.378 383.397,313.378C383.71,313.378 383.991,313.183 384.1,312.89C384.99,309.89 386.1,304.45 382.52,302.89C381.529,302.722 380.52,302.688 379.52,302.79C377.493,302.727 375.472,302.533 373.47,302.21C369.402,301.483 365.452,300.205 361.73,298.41C360.86,298 360.1,299.29 360.98,299.7L361,299.74Z" style="fill-rule:nonzero;"/>
            </g>
            <g transform="matrix(1,0,0,1,-8.86,-32.82)">
                <path d="M350.11,324.13C354.4,318.13 366.78,322.4 372.98,321.49C378.16,320.73 380.98,318.05 383.14,313.43C383.55,312.56 382.26,311.8 381.85,312.68C377.54,321.84 369.15,320.06 360.62,319.68C356.36,319.51 351.5,319.56 348.82,323.34C348.26,324.13 349.56,324.88 350.11,324.09L350.11,324.13Z" style="fill-rule:nonzero;"/>
            </g>
        </g>
        <g id="window">
            <g transform="matrix(1,0,0,1,-8.86,-32.82)">
                <path d="M9.78,225.34C10.39,226.92 39.07,433.81 39.07,433.81L220,537C215.46,464.373 210.923,391.74 206.39,319.1L9.78,225.34Z" style="fill:white;fill-rule:nonzero;stroke:black;stroke-width:1px;"/>
            </g>
            <g transform="matrix(1,0,0,1,-8.86,-32.82)">
                <path d="M91,264.06C86.568,278.509 83.925,293.447 83.13,308.54C76.83,430.76 196.91,520.36 220,537L39,433.8C29.287,364.32 19.547,294.833 9.78,225.34L91,264.06Z" style="fill:rgb(158,158,158);fill-opacity:0.18;fill-rule:nonzero;"/>
            </g>
        </g>
    </g>
    <g id="girl">
        <g id="window-2">
            <g transform="matrix(1,0,0,1,-8.86,-32.82)">
                <path d="M348.75,57.62C352.28,69.24 355.5,81.48 358.27,94.31C372.89,162.06 370.16,223.46 362.34,272.31L549.89,287.25L555.32,68.46L348.75,57.62Z" style="fill:white;fill-rule:nonzero;stroke:black;stroke-width:1px;"/>
            </g>
            <g transform="matrix(1,0,0,1,-8.86,-32.82)">
                <path d="M457.6,171.46C456.821,159.642 457.412,147.773 459.36,136.09C462.6,116.71 464.45,105.61 473.8,97.93C485.33,88.46 504.8,87.02 518.66,96.06C534.66,106.53 530.75,133.2 529.88,154.01C528.54,185.74 531.35,230.54 549.88,287.28L505,278C504.4,275.92 503.78,273.85 503.13,271.77C492.209,236.561 476.913,202.86 457.6,171.46Z" style="fill:rgb(158,158,158);fill-opacity:0.18;fill-rule:nonzero;"/>
            </g>
        </g>
        <g id="hand_right">
            <g transform="matrix(1,0,0,1,-8.86,-32.82)">
                <path d="M417.06,176C416.2,177.09 414.98,178.68 413.62,180.67C412.62,182.09 408.36,188.37 406.31,193.89C404.2,199.57 404.39,204.66 405.03,211.47C406.23,223.963 408.234,236.365 411.03,248.6C405.909,252.553 400.999,256.772 396.32,261.24C390.78,266.52 390.2,267.72 384.8,272.57C377.94,278.72 374.52,281.8 369.04,284.62C365.25,286.57 363.23,287.01 358.97,289.81C352.92,293.81 351.45,296.55 350.83,298.04C349.48,301.34 349.36,305.66 350.83,306.37C352.3,307.08 355.66,303.76 357.63,301.73C358.691,300.646 359.667,299.483 360.55,298.25C364.081,301.118 368.453,302.758 373,302.92C376.326,303.019 379.627,302.312 382.62,300.86C383.219,298.403 384.169,296.046 385.44,293.86C388.57,288.46 392.62,285.97 400.25,280.86C410.31,274.18 415.32,270.51 416.51,269.64C425.26,263.21 428.09,260.32 430.14,256.24C431.72,253.12 432.23,250.49 432.93,246.85C433.977,240.526 434.202,234.092 433.6,227.71C432.54,217.11 427.37,198.37 417.06,176Z" style="fill:white;fill-rule:nonzero;"/>
            </g>
            <g transform="matrix(1,0,0,1,-8.86,-32.82)">
                <path d="M357.83,319.13C359.071,317.664 360.169,316.084 361.11,314.41C363.46,310.57 363.52,309.32 365.67,306.53C366.79,305.09 368.25,303.2 369.09,303.53C370.21,303.95 369.63,307.98 369.44,309.22C370.28,305.84 373.73,304.34 375.94,305.33C377.81,306.17 378.94,308.9 378.04,311.57C380.27,310.57 380.99,311.05 381.23,311.26C382.41,312.32 380.77,315.92 379.7,317.7C378.731,319.417 377.383,320.891 375.76,322.01C373.99,323.19 372.27,323.62 361.85,323.73C356.76,323.78 354.85,323.73 354.6,322.9C354.35,322.07 355.77,321.47 357.83,319.13Z" style="fill:white;fill-rule:nonzero;"/>
            </g>
            <g transform="matrix(1,0,0,1,-8.86,-32.82)">
                <path d="M422.27,188C422.57,192.15 422.98,198.31 423.36,205.78C424.07,219.66 424.43,226.6 424.09,229.9C423.61,234.61 421.32,251.04 409.43,263.58C402.43,270.97 398.26,270.49 387.31,281.58C383.484,285.424 379.982,289.578 376.84,294C374.834,296.829 372.982,299.763 371.29,302.79C372.856,303.866 374.745,304.374 376.64,304.23C379.016,303.983 381.188,302.767 382.64,300.87C383.775,297.029 385.635,293.441 388.12,290.3C391.39,286.19 394.36,284.69 402.78,279.19C410.29,274.27 414.05,271.8 417.54,268.95C423.45,264.09 428.34,260.08 431.28,253.7C434.14,247.47 433.96,241.54 433.35,235.3C431.64,217.81 426.88,201 422.27,188Z" style="fill:rgb(158,158,158);fill-opacity:0.2;fill-rule:nonzero;"/>
            </g>
            <g transform="matrix(1,0,0,1,-8.86,-32.82)">
                <path d="M359.75,323.7C362.03,323.186 364.184,322.217 366.08,320.85C373.53,315.4 373.97,305.14 375.94,305.31C376.6,305.37 377.39,306.6 378.04,311.55C379.73,310.87 380.79,310.77 381.23,311.24C382.177,312.26 380.267,315.927 375.5,322.24L359.75,323.7Z" style="fill:rgb(158,158,158);fill-opacity:0.22;fill-rule:nonzero;"/>
            </g>
            <g transform="matrix(1,0,0,1,-8.86,-32.82)">
                <path d="M413.09,180.1C395.32,199.1 408.96,226.52 410.32,248.56C410.38,249.56 411.88,249.56 411.82,248.56C410.49,227 396.82,199.73 414.15,181.16C414.81,180.46 413.75,179.39 413.09,180.1Z" style="fill-rule:nonzero;"/>
            </g>
            <g transform="matrix(1,0,0,1,-8.86,-32.82)">
                <path d="M412.91,248.53C404.14,250.33 396.4,260.03 390.36,266.06C382.23,274.17 374.14,281.31 363.76,286.41C357.02,289.72 348.56,294.95 349.44,303.73C350.44,313.96 358.84,301.48 361.13,298.73C361.75,297.99 360.69,296.93 360.07,297.67C358.72,299.28 353.61,307.6 351.14,304.79C349.41,302.79 352.05,297.62 353.14,295.96C354.524,294.021 356.269,292.367 358.28,291.09C364.45,286.95 371.42,284.57 377.37,279.98C383.04,275.61 388.03,270.46 393.09,265.42C398.49,260.05 405.59,251.54 413.29,249.97C414.24,249.77 413.84,248.33 412.89,248.52L412.91,248.53Z" style="fill-rule:nonzero;"/>
            </g>
            <g transform="matrix(1,0,0,1,-8.86,-32.82)">
                <path d="M432.37,234.51C432.76,242.77 432.87,251.58 427.84,258.61C423.21,265.07 415.84,269.26 409.4,273.7C398.89,280.95 385.4,287.33 381.91,300.7C381.892,300.765 381.883,300.832 381.883,300.9C381.883,301.313 382.222,301.652 382.635,301.652C382.972,301.652 383.27,301.425 383.36,301.1C385.73,291.92 392.55,287.18 399.97,282.1C406.73,277.43 413.67,272.94 420.25,268.01C424.9,264.53 429.25,260.53 431.58,255.12C434.39,248.68 434.19,241.45 433.87,234.59C433.87,233.59 432.32,233.59 432.37,234.59L432.37,234.51Z" style="fill-rule:nonzero;"/>
            </g>
            <g transform="matrix(1,0,0,1,-8.86,-32.82)">
                <path d="M354.86,322.59C357.431,320.844 359.574,318.54 361.13,315.85C362.54,313.57 365.94,304.59 368.9,304.42C369.9,304.37 369.9,302.87 368.9,302.92C366.16,303.08 364.2,307.28 363.05,309.32C360.54,313.73 358.5,318.42 354.11,321.32C353.3,321.85 354.05,323.14 354.86,322.61L354.86,322.59Z" style="fill-rule:nonzero;"/>
            </g>
            <g transform="matrix(1,0,0,1,-8.86,-32.82)">
                <path d="M368.45,303.89C369.69,305.89 367.17,310.76 366.4,312.46C365.461,314.537 364.371,316.542 363.14,318.46C362.62,319.28 363.92,320.03 364.44,319.22C366.266,316.362 367.784,313.318 368.97,310.14C369.75,308 371.1,305.29 369.74,303.14C369.23,302.32 367.93,303.07 368.45,303.89Z" style="fill-rule:nonzero;"/>
            </g>
            <g transform="matrix(1,0,0,1,-8.86,-32.82)">
                <path d="M369.15,310.69C371.265,308.143 373.966,306.146 377.02,304.87L376.02,304.6C378.54,308.97 374.49,315.38 371.95,319.05C371.4,319.84 372.7,320.59 373.25,319.8C376.13,315.65 380.2,308.8 377.32,303.8C377.104,303.471 376.672,303.355 376.32,303.53C373.147,304.86 370.344,306.94 368.15,309.59C367.53,310.32 368.58,311.39 369.21,310.65L369.15,310.69Z" style="fill-rule:nonzero;"/>
            </g>
            <g transform="matrix(1,0,0,1,-8.86,-32.82)">
                <path d="M375.22,305.11C373.382,310.171 370.959,315.001 368,319.5C367.46,320.3 368.76,321.06 369.29,320.25C372.33,315.643 374.82,310.696 376.71,305.51C377.04,304.6 375.6,304.21 375.27,305.11L375.22,305.11Z" style="fill-rule:nonzero;"/>
            </g>
            <g transform="matrix(1,0,0,1,-8.86,-32.82)">
                <path d="M378.57,312.08C380.57,312 381.21,311.66 380.51,311.08C380.39,311.58 380.25,312.08 380.11,312.55C379.753,313.7 379.316,314.822 378.8,315.91C377.844,317.913 376.645,319.79 375.23,321.5C374.62,322.24 375.68,323.3 376.29,322.56C378.71,319.61 381.55,315.41 381.96,311.48C382.26,308.63 378.78,310 377.51,311.06C376.76,311.68 377.83,312.74 378.57,312.12L378.57,312.08Z" style="fill-rule:nonzero;"/>
            </g>
            <g transform="matrix(1,0,0,1,-8.86,-32.82)">
                <path d="M354.4,323.6C360.74,325.99 369.02,323.87 375.5,323.01C376.44,322.89 376.5,321.38 375.5,321.51C369.16,322.35 360.97,324.51 354.8,322.15C353.89,321.81 353.5,323.26 354.4,323.6Z" style="fill-rule:nonzero;"/>
            </g>
        </g>
        <g transform="matrix(1,0,0,1,-8.86,-32.82)">
            <g id="torso-2">
                <path d="M409.23,177.67C410.7,181.72 412.98,188.29 415.23,196.56C420.42,215.4 419.15,219.56 424.18,227.45C428.58,234.35 430.18,232.14 441.6,244.91C448.76,252.91 452.6,257.43 455.32,263.91C456.847,267.625 457.896,271.52 458.44,275.5L519.28,281.83C512.893,253.784 502.35,226.849 488,201.92C481.051,189.875 473.23,178.354 464.6,167.45C457,165.38 438,161.45 419.48,170.85C415.816,172.727 412.377,175.015 409.23,177.67Z" style="fill:rgb(255,242,137);fill-rule:nonzero;stroke:black;stroke-width:2px;stroke-linejoin:round;stroke-miterlimit:2;"/>
            </g>
        </g>
        <g id="hand_left">
            <g transform="matrix(1,0,0,1,-8.86,-32.82)">
                <path d="M458.05,178.39C459.262,176.414 460.728,174.605 462.41,173.01C464.81,170.74 468.16,167.58 473.14,167.06C478.93,166.46 483.35,169.81 484.9,170.98C488.07,173.39 489.66,176.12 491.68,179.81C498.68,192.67 500.83,198.12 500.83,198.12C505.26,209.38 507.48,215.02 510.83,225.78C513.74,235.13 517.18,247.31 520.4,261.86C519.572,264.361 518.172,266.635 516.31,268.5C514.043,270.639 511.253,272.143 508.22,272.86C482.02,279.86 447.94,278.95 447.94,278.95C444.24,278.85 438.94,278.68 432.44,278.35C430.385,278.943 428.227,279.093 426.11,278.79C422.51,278.25 421.24,276.62 417.49,275.01C413.947,273.518 410.134,272.769 406.29,272.81C400.35,272.96 395.61,275.38 394.54,273.72C394.311,273.316 394.21,272.852 394.25,272.39C394.446,271.385 395.091,270.522 396,270.05C396.314,269.512 396.672,269 397.07,268.52C397.529,267.958 398.041,267.442 398.6,266.98C398.732,266.296 398.93,265.626 399.19,264.98C399.704,263.762 400.424,262.642 401.32,261.67C403.25,259.72 406.62,259.94 410.64,260.25C413.727,260.498 416.776,261.092 419.73,262.02C419.9,260.12 420.37,259.02 421.15,258.72C422.903,258.053 426.21,261.387 431.07,268.72C436.672,268.22 442.23,267.311 447.7,266C453.819,264.521 459.82,262.585 465.65,260.21C472.19,257.54 474.06,256.12 479.93,254.31C483.597,253.182 487.349,252.353 491.15,251.83C488.07,244.02 485.38,237.51 483.36,232.71C474.87,212.57 467.89,198.11 466,194.22C462.77,187.62 460,182.16 458.05,178.39Z" style="fill:white;fill-rule:nonzero;"/>
            </g>
            <g transform="matrix(1,0,0,1,-8.86,-32.82)">
                <path d="M477.45,166.85C480.549,170.259 483.406,173.882 486,177.69C500.69,199.26 502.48,220.51 503.65,236.86C504.95,254.98 502.21,258.95 500.65,260.72C497.15,264.67 493.83,264.12 474.91,267.1C463.29,268.94 442.75,272.59 432.33,272.63C428.945,272.625 425.563,272.432 422.2,272.05C419.67,271.73 418.27,271.35 417.06,271.24C411.075,270.696 405.04,271.225 399.24,272.8C404.987,271.783 410.9,272.258 416.41,274.18C419.686,275.338 422.757,277.009 425.51,279.13L433.24,278.01C445.97,278.69 456.75,278.67 464.95,278.45C485.62,277.91 493.45,276.08 496.95,275.15C503.531,273.435 509.916,271.039 516,268L520.08,261.35C519.65,259.4 518.97,256.35 518.08,252.72C513.838,234.661 508.249,216.944 501.36,199.72C493.36,179.94 493.28,185.56 488.45,175.13C487.602,173.16 486.32,171.406 484.7,170C482.615,168.311 480.108,167.222 477.45,166.85Z" style="fill:rgb(158,158,158);fill-opacity:0.21;fill-rule:nonzero;"/>
            </g>
            <g transform="matrix(1,0,0,1,-8.86,-32.82)">
                <path d="M457.4,178.77C469.529,202.319 480.467,226.462 490.17,251.11C490.52,252 491.97,251.61 491.62,250.71C481.871,225.937 470.884,201.67 458.7,178C458.25,177.14 456.96,177.89 457.4,178.75L457.4,178.77Z" style="fill-rule:nonzero;"/>
            </g>
            <g transform="matrix(1,0,0,1,-8.86,-32.82)">
                <path d="M495.44,252.73C492.93,250.47 489.79,251.18 486.73,251.9C480.73,253.32 475.16,255.9 469.49,258.25C457.058,263.304 443.945,266.488 430.58,267.7C429.63,267.79 429.58,269.29 430.58,269.2C441.351,268.252 451.972,266.03 462.22,262.58C467.31,260.84 472.22,258.66 477.22,256.67C481.22,255.05 490.65,250.41 494.41,253.79C495.13,254.44 496.19,253.38 495.47,252.73L495.44,252.73Z" style="fill-rule:nonzero;"/>
            </g>
            <g transform="matrix(1,0,0,1,-8.86,-32.82)">
                <path d="M484.88,171.86C495.25,184.09 500.97,199.5 506.24,214.43C511.503,229.395 515.785,244.688 519.06,260.21C519.26,261.15 520.71,260.76 520.51,259.81C516.977,243.044 512.262,226.55 506.4,210.45C501.28,196.45 495.69,182.3 485.94,170.8C485.32,170.07 484.26,171.13 484.88,171.86Z" style="fill-rule:nonzero;"/>
            </g>
            <g transform="matrix(1,0,0,1,-8.86,-32.82)">
                <path d="M433.56,279.28C451.03,279.87 468.61,280.45 486.01,278.28C497.09,276.89 515.2,275.55 520.67,263.83C521.07,262.96 519.78,262.19 519.37,263.07C516.23,269.8 509.03,272.12 502.32,273.79C494.519,275.671 486.581,276.929 478.58,277.55C463.58,278.8 448.58,278.3 433.58,277.79C432.58,277.79 432.58,279.26 433.58,279.29L433.56,279.28Z" style="fill-rule:nonzero;"/>
            </g>
            <g transform="matrix(1,0,0,1,-8.86,-32.82)">
                <path d="M432.23,277.63C425.23,280.23 419.84,274.11 413.42,272.5C407.42,271 400.55,272.5 394.53,272.97C393.53,273.05 393.53,274.55 394.53,274.47C403.28,273.78 410.97,272.47 419.1,276.59C423.52,278.82 427.68,280.91 432.63,279.08C433.53,278.74 433.14,277.29 432.23,277.63Z" style="fill-rule:nonzero;"/>
            </g>
            <g transform="matrix(1,0,0,1,-8.86,-32.82)">
                <path d="M431.31,267.28C429.819,264.078 427.41,261.391 424.39,259.56C423.39,258.95 421.91,258.01 420.67,258.48C419.975,258.721 419.507,259.379 419.507,260.115C419.507,260.325 419.545,260.533 419.62,260.73C419.94,261.63 421.39,261.24 421.07,260.33C420.87,259.77 422.74,260.33 422.83,260.41C423.288,260.641 423.732,260.898 424.16,261.18C425.05,261.759 425.878,262.43 426.63,263.18C428.03,264.574 429.171,266.206 430,268C430.42,268.87 431.71,268.11 431.3,267.25L431.31,267.28Z" style="fill-rule:nonzero;"/>
            </g>
            <g transform="matrix(1,0,0,1,-8.86,-32.82)">
                <path d="M429.17,267.44C422.155,260.203 411.61,257.541 402,260.58C401.08,260.87 401.48,262.32 402.4,262.03C411.5,259.104 421.514,261.62 428.15,268.5C428.83,269.19 429.89,268.13 429.21,267.44L429.17,267.44Z" style="fill-rule:nonzero;"/>
            </g>
            <g transform="matrix(1,0,0,1,-8.86,-32.82)">
                <path d="M394.49,273.39C396.61,269.95 403.24,270.39 406.75,269.92C407.7,269.81 407.75,268.31 406.75,268.42C402.55,268.93 395.75,268.48 393.2,272.63C392.69,273.46 393.99,274.21 394.49,273.39Z" style="fill-rule:nonzero;"/>
            </g>
            <g transform="matrix(1,0,0,1,-8.86,-32.82)">
                <path d="M396.45,270.23C399.87,267.17 404.55,267.06 408.9,267.03C409.311,267.03 409.65,266.691 409.65,266.28C409.65,265.869 409.311,265.53 408.9,265.53C404.11,265.53 399.13,265.82 395.39,269.17C394.67,269.82 395.73,270.87 396.45,270.23Z" style="fill-rule:nonzero;"/>
            </g>
            <g transform="matrix(1,0,0,1,-8.86,-32.82)">
                <path d="M399.2,267C400.14,263.86 406.93,264.2 409.43,264.33C410.43,264.38 410.43,262.88 409.43,262.83C406.07,262.65 399,262.46 397.75,266.6C397.47,267.53 398.92,267.92 399.2,267Z" style="fill-rule:nonzero;"/>
            </g>
            <g transform="matrix(1,0,0,1,-8.86,-32.82)">
                <path d="M400.54,264C401.133,262.513 402.794,261.726 404.32,262.21C405.24,262.51 405.64,261.06 404.72,260.77C402.406,260.072 399.917,261.325 399.1,263.6C398.76,264.51 400.21,264.9 400.54,264Z" style="fill-rule:nonzero;"/>
            </g>
            <g transform="matrix(1,0,0,1,-8.86,-32.82)">
                <path d="M464.91,171.6C467.91,169.82 470.99,167.93 474.52,167.68C478.52,167.39 481.46,169.42 484.52,171.63C485.3,172.2 486.05,170.9 485.27,170.33C482.19,168.11 479.02,166 475.07,166.1C471.12,166.2 467.48,168.32 464.15,170.3C463.33,170.8 464.08,172.1 464.91,171.6Z" style="fill-rule:nonzero;"/>
            </g>
        </g>
        <g id="head-2">
            <g transform="matrix(1,0,0,1,-8.86,-32.82)">
                <path d="M386.6,126.7C385.778,132.094 385.7,137.575 386.37,142.99C387.118,149.588 389.237,155.958 392.59,161.69C396.531,168.227 402.028,173.69 408.59,177.59C410.36,177.403 412.115,177.089 413.84,176.65C417.536,175.71 421.072,174.223 424.33,172.24C426.089,173.725 427.996,175.025 430.02,176.12C434.603,178.562 439.681,179.93 444.87,180.12C449.347,174.756 452.877,168.669 455.31,162.12C457.53,156.12 463.68,139.48 455.79,124.49C452.91,119.01 449.28,115.91 445.11,112.35C436.76,105.23 425.84,95.91 412.11,98.52C396.89,101.41 388.55,116.96 387.11,123.87C387,124.2 386.81,125.29 386.6,126.7Z" style="fill:white;fill-rule:nonzero;"/>
            </g>
            <g transform="matrix(1,0,0,1,-8.86,-32.82)">
                <path d="M411.57,106.52C424.356,116.864 429.891,133.837 425.66,149.73C422.01,165.14 411.56,174.3 407.48,177.52C410.34,176.88 413.4,176.07 416.63,175.03C419.39,174.15 421.96,173.2 424.31,172.24C426.07,173.723 427.977,175.023 430,176.12C432.784,177.614 435.768,178.701 438.86,179.35C445.679,171.712 450.836,162.738 454,153C456.91,143.94 459.53,135.75 455.89,127.5C452.16,119.05 443.95,115.3 436.53,111.92C428.685,108.377 420.178,106.536 411.57,106.52Z" style="fill:rgb(158,158,158);fill-opacity:0.26;fill-rule:nonzero;"/>
            </g>
            <g transform="matrix(1,0,0,1,-8.86,-32.82)">
                <path d="M387.09,123.89C392.819,115.096 400.976,108.147 410.57,103.89C411.286,106.032 412.19,108.107 413.27,110.09C420,122.38 432,127.8 437.85,130C440.21,127.07 443.85,125.84 446.77,126.89C450.41,128.2 451.35,132.4 451.6,133.54C452.134,136.123 451.733,138.814 450.47,141.13C448.27,144.97 443.61,147.13 438.59,146.75C437.12,147.75 430.45,152.52 428.89,161.29C427.28,170.29 432.04,178.82 438.59,183.38C446.927,188.991 457.95,188.774 466.06,182.84C473.61,177.28 475.16,168.84 475.48,166.84C481.38,171.35 488.75,172.06 493.7,168.84C499.46,165.07 500.54,156.84 498.91,151.3C496.3,142.37 487.65,143.3 473.33,128.7C468.09,123.37 465.7,120.56 462.97,116.22C456.47,105.85 457.14,99.22 446.97,93.95C427.17,83.69 405.07,93.58 402.52,94.76C391.288,100.099 382.103,108.964 376.37,120C378.612,126.583 379.629,133.521 379.37,140.47C378.77,154.11 373.37,158.14 373.44,170.64C373.44,175.87 373.53,187.99 382.06,195.42C390.81,203.03 407.39,204.78 416.81,195.15C425.09,186.68 423.07,174.29 422.81,172.82L409.28,177.64C404.214,174.855 399.733,171.12 396.08,166.64C382.3,149.57 386.27,127.94 387.09,123.89Z" style="fill:rgb(102,35,129);fill-rule:nonzero;"/>
            </g>
            <g transform="matrix(1,0,0,1,-8.86,-32.82)">
                <path d="M386.34,123.89C383.83,144.33 389.01,166.28 407.11,178.17C407.91,178.7 408.67,177.4 407.86,176.87C390.22,165.29 385.4,143.76 387.86,123.87C387.98,122.87 386.48,122.93 386.36,123.87L386.34,123.89Z" style="fill-rule:nonzero;"/>
            </g>
            <g transform="matrix(1,0,0,1,-8.86,-32.82)">
                <path d="M408.57,178.34C416.157,177.515 423.281,174.275 428.89,169.1C429.6,168.45 428.54,167.39 427.82,168.04C422.508,172.952 415.76,176.037 408.57,176.84C407.62,176.95 407.57,178.45 408.57,178.34Z" style="fill-rule:nonzero;"/>
            </g>
            <g transform="matrix(1,0,0,1,-8.86,-32.82)">
                <path d="M400.38,130.52C400.566,139.034 401.554,147.511 403.33,155.84C403.425,156.163 403.723,156.386 404.059,156.386C404.258,156.386 404.448,156.308 404.59,156.17C406.124,154.513 407.525,152.738 408.78,150.86C409.32,150.06 408.02,149.3 407.49,150.1C406.289,151.869 404.952,153.54 403.49,155.1L404.74,155.43C402.991,147.233 402.02,138.889 401.84,130.51C401.84,129.51 400.31,129.51 400.34,130.51L400.38,130.52Z" style="fill-rule:nonzero;"/>
            </g>
            <g transform="matrix(1,0,0,1,-8.86,-32.82)">
                <path d="M404.55,161.94C410.68,162.201 416.649,159.887 421,155.56C421.69,154.88 420.63,153.82 419.94,154.5C415.885,158.55 410.305,160.708 404.58,160.44C403.58,160.44 403.58,161.9 404.58,161.94L404.55,161.94Z" style="fill-rule:nonzero;"/>
            </g>
            <g transform="matrix(1,0,0,1,-8.86,-32.82)">
                <path d="M391.15,124.53C391.851,123.525 393.001,122.924 394.226,122.924C395.494,122.924 396.679,123.567 397.37,124.63C397.91,125.42 399.21,124.63 398.67,123.87C397.711,122.352 396.036,121.429 394.24,121.429C392.616,121.429 391.081,122.184 390.09,123.47C389.51,124.22 390.56,125.29 391.15,124.53Z" style="fill-rule:nonzero;"/>
            </g>
            <g transform="matrix(1,0,0,1,-8.86,-32.82)">
                <path d="M410,123.69C412.595,121.189 416.681,120.987 419.51,123.22C420.26,123.82 421.33,122.76 420.58,122.16C417.156,119.363 412.127,119.566 408.94,122.63C408.25,123.3 409.31,124.36 410,123.69Z" style="fill-rule:nonzero;"/>
            </g>
            <g transform="matrix(1,0,0,1,-8.86,-32.82)">
                <path d="M438.38,130.48C440.45,128.56 442.87,127.12 445.76,127.48C449.95,128.01 450.94,131.7 450.9,135.18C450.83,141.38 447.11,144.71 441.11,145.12C440.11,145.18 440.11,146.68 441.11,146.62C449.16,146.07 453.64,140.42 452.22,132.35C450.8,124.28 442.22,124.82 437.32,129.35C436.61,130.01 437.68,131.07 438.38,130.42L438.38,130.48Z" style="fill-rule:nonzero;"/>
            </g>
            <ellipse cx="386.77" cy="103.99" rx="1.31" ry="3.78"/>
            <ellipse cx="405.02" cy="103.42" rx="1.31" ry="3.78"/>
            <g transform="matrix(1,0,0,1,-8.86,-32.82)">
                <path d="M416.79,144.1L416.65,144.1C416.239,144.1 415.9,144.439 415.9,144.85C415.9,145.261 416.239,145.6 416.65,145.6L416.79,145.6C417.201,145.6 417.54,145.261 417.54,144.85C417.54,144.439 417.201,144.1 416.79,144.1Z" style="fill-rule:nonzero;"/>
            </g>
            <g transform="matrix(1,0,0,1,-8.86,-32.82)">
                <path d="M423.2,141.9C423.611,141.9 423.95,141.561 423.95,141.15C423.95,140.739 423.611,140.4 423.2,140.4C422.789,140.4 422.45,140.739 422.45,141.15C422.45,141.561 422.789,141.9 423.2,141.9Z" style="fill-rule:nonzero;"/>
            </g>
            <g transform="matrix(1,0,0,1,-8.86,-32.82)">
                <path d="M423.34,148C423.751,148 424.09,147.661 424.09,147.25C424.09,146.839 423.751,146.5 423.34,146.5C422.929,146.5 422.59,146.839 422.59,147.25C422.59,147.661 422.929,148 423.34,148Z" style="fill-rule:nonzero;"/>
            </g>
            <g transform="matrix(1,0,0,1,-8.86,-32.82)">
                <path d="M423.78,172.77C427.849,175.968 432.39,178.515 437.24,180.32C438.14,180.66 438.53,179.21 437.63,178.87C433.02,177.158 428.705,174.739 424.84,171.7C424.09,171.12 423.02,172.17 423.78,172.77Z" style="fill-rule:nonzero;"/>
            </g>
        </g>
    </g>
</svg>
