<?xml version="1.0" encoding="UTF-8" standalone="no"?>
<!DOCTYPE svg PUBLIC "-//W3C//DTD SVG 1.1//EN" "http://www.w3.org/Graphics/SVG/1.1/DTD/svg11.dtd">
<svg width="100%" height="100%" viewBox="0 0 114 110" version="1.1" xmlns="http://www.w3.org/2000/svg" xmlns:xlink="http://www.w3.org/1999/xlink" xml:space="preserve" xmlns:serif="http://www.serif.com/" style="fill-rule:evenodd;clip-rule:evenodd;stroke-linejoin:round;stroke-miterlimit:2;">
    <g transform="matrix(1,0,0,1,-1199.7,-230.9)">
        <ellipse cx="1252.7" cy="286" rx="53" ry="52.1" style="fill:rgb(255,251,251);"/>
    </g>
    <g transform="matrix(1,0,0,1,-1199.7,-230.9)">
        <path d="M1313.6,286C1313.6,286 1313.5,287.3 1313.4,289.7C1313.4,290.3 1313.4,291 1313.3,291.7C1313.2,292.4 1313.1,293.3 1312.9,294.1C1312.7,295 1312.7,295.9 1312.5,296.9C1312.3,297.9 1312,299 1311.7,300.1C1310.5,304.5 1308.7,309.9 1305.2,315.4C1304.4,316.8 1303.3,318.1 1302.4,319.5C1301.9,320.2 1301.3,320.9 1300.7,321.5C1300.1,322.2 1299.5,322.9 1298.9,323.6C1297.7,325 1296.3,326.2 1294.9,327.5C1293.4,328.7 1291.9,330 1290.2,331.1C1283.6,335.7 1275.2,339 1266,340C1264.9,340.2 1263.7,340.1 1262.5,340.2C1261.9,340.2 1261.3,340.2 1260.7,340.3L1258.9,340.3C1256.6,340.1 1254.3,340.1 1251.9,339.5C1247,338.8 1242.4,337.2 1237.8,335.1C1236.7,334.5 1235.6,334 1234.5,333.4C1233.9,333.1 1233.4,332.8 1232.9,332.4L1229.7,330.4C1229.2,330 1228.7,329.6 1228.2,329.3C1227.2,328.5 1226.2,327.8 1225.2,327C1221.3,323.6 1217.9,319.8 1214.9,315.5C1214.2,314.4 1213.5,313.3 1212.8,312.2L1212.3,311.4L1211.9,310.5L1210.1,306.9C1209.8,306.3 1209.6,305.7 1209.4,305.1C1208.9,303.9 1208.4,302.7 1208,301.4L1206.9,297.6L1206.6,296.6L1206.4,295.6L1206.1,293.6C1205.9,292.3 1205.6,291 1205.6,289.7L1205.3,285.7L1205.4,281.8C1205.4,281.1 1205.4,280.5 1205.5,279.8L1206.1,275.8L1206.2,274.8L1206.4,273.8L1207.3,269.9C1208.8,264.8 1211.1,259.9 1214,255.4C1217,251 1220.5,247.1 1224.5,243.7C1225.5,242.9 1226.6,242.1 1227.6,241.3C1228.1,240.9 1228.6,240.5 1229.2,240.2L1232.4,238.2C1232.9,237.9 1233.5,237.5 1234.1,237.3C1235.3,236.7 1236.4,236.2 1237.5,235.6C1242.2,233.6 1247,232.1 1251.8,231.5C1254.2,231 1256.6,231 1259,230.9L1259.7,230.9C1259.7,230.9 1260,230.9 1259.9,230.9L1260.8,230.9C1261.4,230.9 1261.9,231 1262.5,231C1263.1,231 1263.6,231.1 1264.2,231.1C1264.8,231.1 1265.3,231.1 1265.9,231.3C1267.1,231.5 1268.2,231.7 1269.4,231.8C1270,231.9 1270.6,232 1271.1,232.1C1271.7,232.2 1272.2,232.4 1272.7,232.5C1273.8,232.8 1274.9,233.1 1276,233.4C1277.1,233.7 1278.1,234.2 1279.1,234.5C1283.2,236 1286.9,238.1 1290.2,240.4C1291.8,241.6 1293.4,242.8 1294.9,244.1C1296.3,245.5 1297.7,246.7 1298.9,248.1C1299.5,248.8 1300.1,249.5 1300.7,250.2C1301.3,250.9 1301.9,251.5 1302.3,252.2C1303.3,253.6 1304.3,255 1305.1,256.3C1308.6,261.8 1310.3,267.2 1311.6,271.6C1311.9,272.7 1312.1,273.8 1312.4,274.8C1312.6,275.8 1312.7,276.8 1312.8,277.6C1312.9,278.5 1313,279.3 1313.2,280C1313.3,280.7 1313.3,281.4 1313.3,282C1313.5,284.7 1313.6,286 1313.6,286ZM1313.2,286C1313.2,286 1313.1,284.7 1313,282.3C1312.9,281.7 1313,281 1312.8,280.3C1312.7,279.6 1312.5,278.8 1312.4,277.9C1312.2,277 1312.1,276.1 1311.9,275.1C1311.6,274.1 1311.3,273.1 1311,272C1310.8,271.5 1310.7,270.9 1310.5,270.3C1310.3,269.7 1310.1,269.2 1309.8,268.6C1309.6,268 1309.3,267.4 1309.1,266.8C1308.9,266.2 1308.6,265.6 1308.3,265C1307.7,263.8 1307,262.5 1306.3,261.3C1305.5,260.1 1304.6,258.8 1303.8,257.5C1300.1,252.5 1295,247.4 1288.6,243.5C1285.3,241.6 1281.8,239.7 1278,238.5C1277,238.2 1276.1,237.8 1275.1,237.5C1274.1,237.3 1273.1,237 1272.1,236.8C1271.6,236.7 1271.1,236.5 1270.6,236.4C1270.1,236.3 1269.6,236.2 1269.1,236.2C1268.1,236.1 1267,235.9 1266,235.8C1265.5,235.7 1264.9,235.7 1264.4,235.7C1263.8,235.7 1263.3,235.7 1262.7,235.6C1262.1,235.6 1261.6,235.6 1261,235.5L1259.4,235.5C1257.2,235.7 1254.9,235.6 1252.7,236C1248.2,236.5 1243.8,238 1239.4,239.7C1238.3,240.2 1237.3,240.7 1236.2,241.2C1235.6,241.4 1235.1,241.7 1234.6,242L1233.1,242.9L1231.5,243.8C1231,244.1 1230.5,244.5 1230,244.8C1229,245.5 1228,246.2 1227.1,246.9C1223.3,250 1220,253.6 1217.1,257.6C1214.3,261.7 1212.1,266.2 1210.4,271C1208.8,275.8 1208,280.7 1207.7,286C1207.7,291 1208.3,296.2 1209.6,301.1C1211.1,306 1213.3,310.7 1216.1,314.9C1216.8,315.9 1217.6,316.9 1218.4,317.9C1219.1,318.9 1220,319.8 1220.9,320.8L1222.2,322.2C1222.4,322.4 1222.6,322.7 1222.8,322.9L1223.5,323.5C1224.4,324.3 1225.4,325.1 1226.3,326C1227.3,326.8 1228.3,327.4 1229.3,328.2C1229.8,328.5 1230.3,328.9 1230.8,329.2L1234,331C1234.5,331.3 1235,331.6 1235.6,331.8C1236.7,332.3 1237.8,332.8 1238.9,333.3C1239.4,333.6 1240,333.8 1240.6,333.9L1242.3,334.5C1243.4,334.9 1244.5,335.3 1245.7,335.5C1246.8,335.8 1248,336 1249.1,336.3C1250.2,336.5 1251.4,336.6 1252.5,336.8C1254.7,337.2 1257.1,337.1 1259.4,337.2L1260.1,337.2C1260.2,337.2 1260,337.2 1260.1,337.2L1260.9,337.1C1261.5,337.1 1262,337 1262.6,337C1263.7,336.9 1264.8,336.9 1265.9,336.7C1274.5,335.6 1282.3,332.6 1288.8,328.6C1295.3,324.6 1300.4,319.6 1304,314.5C1304.9,313.2 1305.7,311.9 1306.5,310.7C1307.2,309.4 1307.8,308.2 1308.5,306.9C1308.8,306.3 1309.1,305.7 1309.3,305.1C1309.5,304.5 1309.8,303.9 1310,303.3C1310.2,302.7 1310.5,302.1 1310.7,301.6C1310.9,301 1311,300.5 1311.2,299.9C1311.5,298.8 1311.8,297.8 1312.1,296.8C1312.4,295.8 1312.5,294.9 1312.6,294C1312.7,293.1 1312.9,292.3 1313,291.6C1313.1,290.9 1313.1,290.2 1313.2,289.6C1313.1,287.3 1313.2,286 1313.2,286Z" style="fill:rgb(22,22,22);fill-rule:nonzero;"/>
    </g>
</svg>
