<?xml version="1.0" encoding="UTF-8" standalone="no"?>
<!DOCTYPE svg PUBLIC "-//W3C//DTD SVG 1.1//EN" "http://www.w3.org/Graphics/SVG/1.1/DTD/svg11.dtd">
<svg width="100%" height="100%" viewBox="0 0 377 743" version="1.1" xmlns="http://www.w3.org/2000/svg" xmlns:xlink="http://www.w3.org/1999/xlink" xml:space="preserve" xmlns:serif="http://www.serif.com/" style="fill-rule:evenodd;clip-rule:evenodd;stroke-miterlimit:10;">
    <path d="M164.824,643.4C171.524,638 180.624,636.9 188.024,640.6C196.724,645 201.424,655.3 199.224,665.6C197.424,679.3 195.624,693.1 193.824,706.8C230.324,723.5 247.724,734.4 246.224,739.4C244.424,745.5 214.824,742.9 157.324,731.8C159.824,702.3 162.324,672.9 164.824,643.4Z" style="fill:rgb(25,25,25);fill-rule:nonzero;"/>
    <path d="M189.225,318.799C190.625,338.899 192.925,371.499 196.825,411.899C201.625,462.599 203.625,513.699 210.425,564.199C217.425,616.599 225.125,652.499 207.425,664.999C201.025,669.499 193.325,669.499 187.825,668.799C182.025,667.299 176.225,665.699 170.425,664.199C164.725,666.999 157.025,669.699 150.825,666.499C132.625,657.199 149.825,609.499 148.525,541.099C147.625,495.999 138.925,450.999 127.325,391.899C118.525,346.799 111.825,323.399 124.325,311.899C139.525,297.799 173.225,311.299 189.225,318.799Z" style="fill:white;fill-rule:nonzero;stroke:rgb(22,22,22);stroke-width:2px;"/>
    <path d="M160.524,309.399C156.724,327.099 152.424,353.899 152.724,386.499C153.224,439.099 165.524,472.299 174.424,511.799C182.524,547.599 190.324,599.799 186.824,667.099C181.524,666.099 176.124,664.999 170.824,663.999C169.624,664.899 164.724,668.199 157.924,667.599C156.924,667.499 150.324,666.799 146.024,661.899C140.724,655.899 141.824,646.999 142.424,642.699C144.724,623.999 145.224,605.099 147.124,586.299C149.124,566.499 148.824,551.099 148.724,541.799C148.624,534.799 148.124,521.699 145.624,500.399C141.224,463.299 137.224,456.999 128.524,403.099C121.924,362.499 124.824,369.899 122.324,360.699C120.024,352.499 116.124,340.599 118.224,325.499C119.224,318.399 121.024,314.399 123.924,311.499C129.924,305.599 138.824,305.699 144.124,305.799C151.224,305.899 157.024,307.899 160.524,309.399Z" style="fill:rgb(109,108,108);fill-opacity:0.14;fill-rule:nonzero;"/>
    <path d="M132.024,411.4C139.524,428 147.424,449.8 152.224,476.1C160.624,522.5 152.324,546.1 159.424,595.7C162.024,614 166.924,637 176.524,663C172.924,663.5 169.324,664 165.624,664.6C160.224,666.5 153.424,667.9 148.524,664.6C139.724,658.7 142.724,641.4 144.924,621.1C144.924,621.1 147.624,596.1 148.024,548.6C148.224,522.3 145.824,502.9 142.324,474.6C139.224,449.2 135.424,427.7 132.024,411.4Z" style="fill:rgb(109,108,108);fill-opacity:0.1;fill-rule:nonzero;"/>
    <path d="M38.624,635.801C45.324,630.401 54.424,629.301 61.824,633.001C70.524,637.401 75.224,647.701 73.024,658.001C71.224,671.701 69.424,685.501 67.624,699.201C104.124,715.901 121.524,726.801 120.024,731.801C118.224,737.901 88.624,735.301 31.124,724.201C33.724,694.701 36.224,665.301 38.624,635.801Z" style="fill:rgb(25,25,25);fill-rule:nonzero;"/>
    <path d="M75.924,315.701C70.124,363.201 63.924,412.201 57.324,463.101C52.824,498.101 51.724,506.401 48.224,520.001C42.224,543.601 34.124,563.701 27.124,600.201C23.824,617.201 22.124,631.001 30.024,641.401C35.924,649.201 47.424,655.401 50.024,653.001C51.124,651.901 50.424,649.101 49.424,646.601C51.824,648.901 67.024,663.201 79.124,658.201C86.224,655.301 89.124,647.001 90.524,642.501C104.724,599.001 107.024,555.401 107.024,555.401C107.924,538.601 110.124,521.401 114.424,486.901C117.624,461.601 123.624,425.001 136.524,380.501C138.424,379.301 157.024,366.901 158.224,344.001C158.324,342.301 159.024,325.001 148.124,313.301C133.724,297.801 102.924,296.701 75.924,315.701Z" style="fill:white;fill-rule:nonzero;stroke:rgb(22,22,22);stroke-width:2px;"/>
    <path d="M156.624,327.7C160.224,338.1 161.224,349.8 155.524,359.7C150.624,368.2 142.724,377.5 133.124,380.5C131.324,381.1 130.524,378.2 132.324,377.6C141.124,374.9 148.524,366 152.924,358.2C158.224,349 157.024,338.2 153.724,328.5C153.024,326.7 155.924,325.9 156.624,327.7Z" style="fill:white;fill-rule:nonzero;"/>
    <path d="M159.625,346.3C158.725,361.9 148.725,374.9 133.525,379.2C131.625,379.7 130.825,376.8 132.725,376.3C146.525,372.4 155.725,360.6 156.625,346.3C156.725,344.4 159.725,344.4 159.625,346.3Z" style="fill:white;fill-rule:nonzero;"/>
    <path d="M115.324,302.699C112.724,310.499 108.724,323.099 104.324,338.699C91.524,383.899 69.424,462.199 68.024,556.399C67.824,572.099 67.224,651.999 60.024,652.399C58.324,652.499 55.524,648.099 51.724,649.099C49.124,649.799 49.024,652.199 46.724,653.099C41.724,654.999 33.424,646.399 29.424,640.099C28.024,637.899 24.824,632.899 24.124,625.799C23.724,622.599 24.024,620.299 25.124,613.499C26.724,602.999 27.524,597.799 28.124,595.199C32.424,574.899 40.124,555.399 46.424,527.899C49.124,516.299 50.924,505.899 53.124,493.899C53.824,490.099 55.724,478.999 57.824,465.199C62.524,433.599 64.024,411.899 67.124,384.199C68.824,369.099 71.424,347.799 75.424,321.899C76.424,319.699 78.224,316.299 81.424,313.199C82.524,312.199 85.924,309.099 95.124,306.199C99.624,304.599 106.524,302.899 115.324,302.699Z" style="fill:rgb(109,108,108);fill-opacity:0.14;fill-rule:nonzero;"/>
    <path d="M50.325,513C44.825,538.6 41.125,560.5 38.625,577.7C34.625,605.7 34.425,615.9 39.625,626.7C47.425,643 63.625,652.7 62.625,654C62.225,654.5 59.625,653.5 50.625,647.7C50.325,650.1 49.625,652.8 47.625,653.7C42.525,655.9 31.225,644.9 26.325,634.4C19.625,619.9 24.525,605 29.025,590.7C34.625,572.6 42.125,546.8 50.325,513Z" style="fill:rgb(109,108,108);fill-opacity:0.2;fill-rule:nonzero;"/>
    <path d="M183.325,145.699C193.125,144.399 202.125,157.199 219.625,182.699C231.625,200.099 240.025,215.399 245.525,225.999C257.425,225.399 269.325,224.799 281.225,224.099C292.325,223.499 303.425,222.899 314.525,222.199C318.925,220.699 325.525,218.499 333.625,216.599C346.725,213.399 373.825,208.099 375.525,212.799C376.025,214.299 374.225,217.399 362.625,224.699C363.425,226.699 366.325,235.099 362.625,244.799C362.025,246.299 358.725,254.399 350.925,258.599C340.925,263.899 327.125,260.999 317.025,251.099C309.225,255.799 266.925,280.499 227.125,263.599C214.125,258.099 205.025,249.699 196.925,242.299C182.225,228.799 162.925,211.099 162.425,186.499C162.025,168.699 171.425,147.299 183.325,145.699Z" style="fill:white;fill-rule:nonzero;stroke:rgb(22,22,22);stroke-width:2px;"/>
    <path d="M376.324,214.001C372.424,217.901 368.624,222.101 364.224,225.401C359.924,228.601 355.024,230.401 350.024,232.101C348.624,232.601 348.024,230.401 349.424,229.901C354.724,228.101 359.824,226.101 364.224,222.501C368.024,219.401 371.324,215.801 374.724,212.401C375.724,211.401 377.324,213.001 376.324,214.001Z" style="fill:rgb(22,22,22);fill-rule:nonzero;"/>
    <path d="M329.024,224.3C332.824,225.7 336.324,227.9 339.024,230.9C340.924,233 343.724,236.3 343.024,239.3C342.324,242.7 338.124,242.7 335.324,242.7C330.824,242.6 326.524,241.3 322.624,239C321.424,238.3 322.524,236.3 323.724,237.1C326.224,238.6 328.924,239.7 331.824,240.2C334.324,240.6 341.624,241.5 340.324,236.8C339.024,232 332.624,228.1 328.324,226.5C327.124,226 327.724,223.8 329.024,224.3Z" style="fill:rgb(22,22,22);fill-rule:nonzero;"/>
    <path d="M363.924,226.5C366.024,233.2 366.024,239.7 358.824,242.9C353.524,245.3 345.824,244.1 343.124,238.4C342.524,237.1 344.424,236 345.024,237.3C347.224,242 353.524,242.8 357.924,240.8C364.024,238.1 363.424,232.6 361.724,227.1C361.324,225.7 363.424,225.1 363.924,226.5Z" style="fill:rgb(22,22,22);fill-rule:nonzero;"/>
    <path d="M364.425,241.3C364.025,247 360.525,252.6 354.525,253.7C349.225,254.7 344.325,251.5 342.425,246.7C341.925,245.4 344.025,244.8 344.625,246.1C346.225,250.1 350.725,252.5 355.025,251.3C359.425,250 361.925,245.6 362.225,241.3C362.225,239.9 364.525,239.9 364.425,241.3Z" style="fill:rgb(22,22,22);fill-rule:nonzero;"/>
    <path d="M342.824,247.801C335.024,246.401 337.624,260.301 343.324,259.801C344.724,259.701 344.724,261.901 343.324,262.101C338.524,262.501 335.924,256.601 335.624,252.601C335.324,248.201 339.124,245.001 343.424,245.801C344.824,245.901 344.224,248.001 342.824,247.801Z" style="fill:rgb(22,22,22);fill-rule:nonzero;"/>
    <path d="M343.424,239.7C343.424,239.6 343.324,239.6 343.324,239.5C343.724,239.6 344.024,239.7 344.424,239.8C343.624,240 343.524,242.6 343.624,243.1C343.724,244.4 344.224,245.6 345.224,246.6C346.224,247.6 344.624,249.2 343.624,248.2C342.124,246.7 341.324,244.6 341.424,242.4C341.524,240.8 342.024,238 343.924,237.6C344.324,237.5 344.724,237.6 345.024,237.9C345.024,238 345.124,238 345.124,238.1C345.924,239.2 344.424,240.8 343.424,239.7Z" style="fill:rgb(22,22,22);fill-rule:nonzero;"/>
    <path d="M348.825,232.301C346.425,232.401 344.925,234.701 345.525,237.001C345.925,238.401 343.725,239.001 343.325,237.601C342.325,233.901 344.825,230.201 348.725,230.101C350.325,230.001 350.325,232.301 348.825,232.301Z" style="fill:rgb(22,22,22);fill-rule:nonzero;"/>
    <path d="M168.524,161.801C171.424,170.301 176.224,181.801 183.824,194.401C191.624,207.301 200.324,221.601 217.224,233.601C223.424,238.001 242.124,251.001 269.824,252.001C295.924,252.901 315.124,242.701 322.724,238.101C328.724,242.601 332.824,242.901 335.524,242.301C337.924,241.701 338.824,240.501 343.024,239.201C346.624,238.101 349.524,237.901 351.124,237.801C356.924,237.401 362.924,237.001 364.524,239.701C366.624,243.401 359.824,251.301 354.524,255.601C352.124,257.501 347.924,260.801 342.024,261.701C328.124,263.901 317.824,251.801 317.224,251.101C313.824,253.201 308.924,256.101 302.724,258.901C292.624,263.601 278.324,270.101 259.324,270.001C237.724,270.001 222.124,261.501 218.924,259.701C215.124,257.501 208.024,251.301 193.924,238.801C180.824,227.201 176.024,222.101 171.624,215.101C169.024,211.001 165.724,205.701 163.824,198.401C159.724,182.801 165.224,168.601 168.524,161.801Z" style="fill:rgb(109,108,108);fill-opacity:0.12;fill-rule:nonzero;"/>
    <path d="M163.225,173.801C165.125,180.401 168.425,189.701 174.125,200.001C179.425,209.601 193.425,234.301 223.125,249.501C231.925,254.001 247.125,261.601 268.225,261.201C291.625,260.701 308.425,250.701 315.525,245.901C319.525,248.401 325.525,251.601 333.325,253.701C343.725,256.401 351.225,255.501 351.425,257.001C351.625,258.501 344.425,261.701 336.925,261.501C326.425,261.201 319.025,254.301 316.325,251.501C309.425,256.501 283.625,274.101 249.825,269.601C223.725,266.101 207.225,251.401 192.725,238.401C181.925,228.701 169.425,217.201 164.625,198.001C162.125,188.201 162.525,179.601 163.225,173.801Z" style="fill:rgb(109,108,108);fill-opacity:0.15;fill-rule:nonzero;"/>
    <path d="M193.924,146.099C195.924,148.399 199.424,153.299 202.424,176.699C206.424,208.499 204.324,233.699 202.424,252.499C200.224,274.799 197.124,301.699 192.624,332.299C175.224,337.699 146.324,343.799 111.624,338.299C95.924,335.799 82.524,331.499 71.724,326.999C74.024,301.999 73.724,281.799 73.024,268.499C69.624,199.799 66.524,180.699 66.524,180.699C64.224,166.999 62.124,158.499 67.224,150.799C72.324,142.899 82.025,140.199 112.924,138.199C159.824,134.999 183.424,133.699 193.924,146.099Z" style="fill:rgb(255,242,137);fill-rule:nonzero;stroke:url(#_Linear1);stroke-width:2px;stroke-linejoin:round;stroke-miterlimit:2;"/>
    <path d="M126.425,138.4C123.325,149.4 120.725,161.1 118.525,173.5C107.125,238.7 115.125,296.5 126.425,339.6C120.625,339.2 114.525,338.5 108.025,337.4C94.225,335.1 82.125,331.5 72.125,327.8C73.525,307.9 73.925,290.9 73.925,277.4C73.825,239.7 70.525,210.9 69.125,199.4C67.325,185.4 65.425,173.7 63.825,165.2C63.425,162.8 63.025,158.4 65.125,153.8C67.525,148.5 72.025,145.7 73.925,144.6C80.425,140.7 87.025,140.7 90.625,140.7C99.225,140.4 110.625,139.9 126.425,138.4Z" style="fill:rgb(36,48,62);fill-opacity:0.14;fill-rule:nonzero;"/>
    <path d="M64.625,162C82.325,207.9 86.025,240.7 85.625,262.8C85.525,271.1 84.625,291 95.225,311.9C101.725,324.6 110.225,333.5 116.725,339.1C110.725,338.3 104.125,337.1 97.025,335.2C87.925,332.8 80.025,329.8 73.325,326.9C74.225,301.1 74.125,273.1 72.425,243.2C70.925,214 68.125,186.9 64.625,162Z" style="fill:rgb(25,35,44);fill-opacity:0.16;fill-rule:nonzero;"/>
    <path d="M78.224,146.4C65.924,141 49.224,156.8 38.424,166.9C26.624,178 2.724,200.5 1.524,237.3C0.524,268 15.824,290.2 23.424,299.5C35.324,314 48.824,321.6 56.824,325.3C56.924,328.7 57.424,334.1 59.724,340C61.024,343.2 67.624,360 80.224,360.7C81.924,360.8 87.724,360.8 94.424,354.5C94.824,354.5 96.824,354.2 98.124,352.4C99.324,350.7 99.424,348.2 98.224,346.2C98.524,346 101.124,344.7 101.724,341.6C102.424,338.2 100.124,335.7 99.924,335.6C99.824,333.9 99.424,331.7 97.824,330.6C96.024,329.4 94.124,330.4 91.224,330.2C89.324,330 86.624,329.3 83.424,326.5C87.024,325.5 95.124,322.9 94.924,320C94.824,316.6 83.124,314.6 80.524,314.1C74.124,313 68.624,313.2 64.924,313.5C62.724,309.5 59.524,303.6 55.724,296.5C49.324,284.5 46.124,278.5 44.224,274.2C40.624,266.2 36.624,254.1 35.524,237.2C40.024,232.8 46.924,226.5 55.724,219.6C74.724,204.8 81.124,204.5 86.324,196.1C96.124,180.4 91.424,152.2 78.224,146.4Z" style="fill:white;fill-rule:nonzero;stroke:rgb(22,22,22);stroke-width:2px;"/>
    <path d="M100.924,334.401C99.324,342.201 87.324,340.401 82.524,337.601C81.324,336.901 82.424,334.901 83.624,335.701C87.124,337.801 97.524,340.101 98.724,333.901C99.024,332.401 101.224,333.001 100.924,334.401Z" style="fill:rgb(22,22,22);fill-rule:nonzero;"/>
    <path d="M99.725,346.901C93.725,351.201 84.925,349.201 78.625,346.301C77.325,345.701 78.425,343.801 79.725,344.401C85.325,346.901 93.225,348.701 98.525,345.001C99.725,344.101 100.825,346.101 99.725,346.901Z" style="fill:rgb(22,22,22);fill-rule:nonzero;"/>
    <path d="M95.224,355.7C89.024,358.7 81.824,358.3 76.124,354.3C74.924,353.5 76.024,351.5 77.224,352.4C82.224,355.9 88.524,356.5 94.024,353.8C95.324,353.1 96.524,355 95.224,355.7Z" style="fill:rgb(22,22,22);fill-rule:nonzero;"/>
    <path d="M82.524,150.199C84.524,156.999 61.124,163.499 40.624,185.499C33.524,193.099 19.024,208.599 15.624,231.599C11.324,260.099 26.224,282.899 31.724,291.099C42.324,307.199 55.224,316.699 63.024,321.599C63.024,324.399 63.424,334.599 71.224,343.199C72.824,344.999 79.124,351.899 88.324,352.899C93.624,353.499 98.424,351.999 98.624,352.599C98.724,353.199 95.024,353.999 90.224,357.299C87.124,359.399 87.024,360.299 85.524,360.999C79.324,363.899 69.524,355.099 68.424,354.199C58.224,344.899 57.024,331.099 56.824,325.999C54.524,324.699 51.424,322.899 47.824,320.499C44.124,317.999 33.224,310.799 24.624,301.299C22.324,298.799 10.624,285.499 4.924,264.199C2.924,256.699 -2.576,234.999 6.224,211.299C10.124,200.999 15.124,194.299 24.124,182.599C32.124,172.099 38.024,166.899 49.424,156.799C57.624,149.499 62.524,146.099 69.124,145.699C73.624,145.399 81.424,146.499 82.524,150.199Z" style="fill:rgb(109,108,108);fill-opacity:0.18;fill-rule:nonzero;"/>
    <path d="M14.024,196C10.624,204.4 5.724,219.7 6.424,239.2C7.124,260.4 14.024,275.8 16.724,281.1C29.124,306.1 48.724,319.5 58.324,325.1C50.524,322.2 39.224,316.7 28.524,306.4C-2.776,276.2 1.824,233.6 2.224,230.6C4.024,215.6 9.424,203.9 14.024,196Z" style="fill:rgb(109,108,108);fill-opacity:0.18;fill-rule:nonzero;"/>
    <path d="M128.624,69.401C122.624,89.501 120.424,101.201 111.924,119.601C107.924,128.201 104.124,135.001 101.424,139.501C110.124,143.601 124.224,148.901 142.324,149.601C153.024,150.001 162.224,148.601 169.324,147.001C168.624,141.501 168.224,134.601 168.724,126.801C169.424,117.001 171.524,108.701 173.524,102.601C183.124,101.401 192.824,100.101 202.424,98.901C204.324,94.701 206.224,90.401 208.124,86.201C210.724,86.101 213.424,86.001 216.024,85.901C214.024,80.101 211.024,71.001 207.524,59.701C201.024,38.401 201.124,35.401 197.624,30.601C187.924,17.501 166.224,9.101 151.924,16.201C143.424,20.301 138.424,36.701 128.624,69.401Z" style="fill:white;fill-rule:nonzero;stroke:rgb(22,22,22);stroke-width:2px;"/>
    <path d="M215.824,87.5C210.824,87.6 205.924,87.2 201.024,86.5C199.124,86.2 199.924,83.3 201.824,83.6C206.524,84.3 211.124,84.6 215.824,84.5C217.724,84.5 217.724,87.5 215.824,87.5Z" style="fill:rgb(22,22,22);fill-rule:nonzero;"/>
    <path d="M217.725,49.3C214.925,47.8 211.225,48.6 209.425,51.2C208.325,52.8 205.725,51.3 206.825,49.7C209.625,45.7 214.925,44.4 219.225,46.7C220.925,47.6 219.425,50.2 217.725,49.3Z" style="fill:rgb(22,22,22);fill-rule:nonzero;"/>
    <path d="M194.125,52.801C190.525,51.701 186.625,52.901 184.525,56.101C183.425,57.701 180.825,56.201 181.925,54.601C184.825,50.401 190.025,48.401 194.925,50.001C196.725,50.501 196.025,53.401 194.125,52.801Z" style="fill:rgb(22,22,22);fill-rule:nonzero;"/>
    <path d="M193.425,64C193.525,62.9 193.324,61.8 192.724,60.8C192.624,60.6 192.424,60.3 192.224,60.1C192.624,59.6 192.824,59.5 192.724,60C192.924,60.2 192.825,61.2 192.925,61.5C193.025,62 193.225,62.5 193.425,63C193.525,63.2 193.624,63.4 193.724,63.5C193.224,64.4 192.924,64.5 192.724,63.8C192.324,63.4 192.124,62.5 191.824,62C191.524,61.4 191.225,60.8 190.925,60.2C190.125,58.7 192.024,57.2 193.324,58.4C194.024,59.1 194.424,59.8 194.724,60.7C195.224,62.6 192.324,63.4 191.824,61.5C191.724,61 191.524,60.8 191.224,60.5C192.024,59.9 192.824,59.3 193.624,58.7C194.324,60.1 195.124,61.5 195.724,63C196.224,64.1 196.124,65.4 195.024,66.1C192.324,67.8 190.624,64.3 190.124,62.2C189.724,60.2 189.724,56 193.024,56.9C195.624,57.7 196.624,61.5 196.524,63.8C196.324,65.9 193.325,65.9 193.425,64Z" style="fill:rgb(22,22,22);fill-rule:nonzero;"/>
    <path d="M201.124,35.8C200.424,31.5 198.724,24.3 194.024,16.9C192.324,14.3 188.824,8.8 183.124,5.1C172.224,-2 155.524,-1.4 143.424,7.3C131.524,15.8 125.624,31 128.224,46.2C152.424,42.8 176.824,39.3 201.124,35.8Z" style="fill:rgb(102,35,129);fill-rule:nonzero;"/>
    <path d="M240.925,36.099C203.425,40.799 166.025,45.499 128.525,50.199C122.825,50.899 122.825,41.899 128.525,41.199C166.025,36.499 203.425,31.799 240.925,27.099C246.725,26.399 246.625,35.399 240.925,36.099Z" style="fill:rgb(22,22,22);fill-rule:nonzero;"/>
    <path d="M152.424,45.199C159.024,47.599 162.924,52.199 167.324,57.499C176.724,68.899 173.924,73.099 180.524,80.199C191.024,91.499 201.724,84.799 211.124,95.899C219.124,105.299 218.024,117.999 217.724,120.899C217.424,123.699 216.024,134.999 206.724,142.799C198.624,149.499 187.824,150.999 187.124,149.499C186.924,148.999 187.724,147.599 193.724,143.599C192.024,144.799 189.224,146.299 185.724,146.999C181.624,147.699 177.724,146.999 177.724,146.399C177.724,145.899 179.924,145.999 181.624,144.199C182.624,143.099 183.024,141.899 183.324,140.799C180.024,142.899 175.924,144.799 172.024,143.599C161.324,140.399 159.424,116.699 158.824,108.799C156.824,83.399 164.124,69.499 155.224,60.499C154.524,59.699 150.924,56.099 146.924,56.899C141.924,57.799 138.124,65.499 139.724,70.599C141.124,74.999 146.124,76.199 145.824,77.099C145.324,78.099 136.924,76.499 129.824,70.899C127.224,68.899 125.124,67.199 124.024,64.199C122.124,58.899 124.324,52.899 127.324,49.299C133.524,42.099 145.224,42.599 152.424,45.199Z" style="fill:rgb(22,22,22);fill-rule:nonzero;stroke:rgb(22,22,22);stroke-width:2px;"/>
    <path d="M142.524,78C144.124,78.2 146.424,78.2 146.524,77.7C146.624,77.4 146.024,77 146.024,77C146.024,77 147.924,79.4 150.324,79.7C151.424,79.8 152.424,79.5 153.124,79.1C148.924,88 144.624,98.7 140.924,111.1C136.924,124.7 134.624,137 133.324,147.6C129.024,147.6 122.924,147.1 115.924,144.9C110.224,143.1 105.724,140.7 102.324,138.6C111.324,124.5 115.924,113.2 118.524,105.5C119.724,101.9 122.324,93.4 123.524,89.2C125.824,81.6 127.724,75.3 128.924,71.1C129.524,71.7 130.624,72.6 131.924,73.5C133.824,74.9 137.524,77.5 142.524,78Z" style="fill:rgb(109,108,108);fill-opacity:0.22;fill-rule:nonzero;"/>
    <path d="M169.425,0.699C159.725,2.599 152.425,10.399 151.225,19.499C149.925,30.399 157.925,37.899 158.725,38.499C148.325,39.799 138.025,40.999 127.625,42.299C127.425,39.899 127.325,36.599 128.025,32.799C130.025,20.599 137.225,12.999 138.725,11.499C141.125,9.099 149.625,0.999 162.325,0.299C165.225,0.199 167.725,0.499 169.425,0.699Z" style="fill:rgb(71,29,89);fill-rule:nonzero;"/>
    <defs>
        <linearGradient id="_Linear1" x1="0" y1="0" x2="1" y2="0" gradientUnits="userSpaceOnUse" gradientTransform="matrix(140.627,0,0,204.44,64.0753,238.241)"><stop offset="0" style="stop-color:black;stop-opacity:1"/><stop offset="1" style="stop-color:black;stop-opacity:1"/></linearGradient>
    </defs>
</svg>
