<?xml version="1.0" encoding="UTF-8" standalone="no"?>
<!DOCTYPE svg PUBLIC "-//W3C//DTD SVG 1.1//EN" "http://www.w3.org/Graphics/SVG/1.1/DTD/svg11.dtd">
<svg width="100%" height="100%" viewBox="0 0 575 1032" version="1.1" xmlns="http://www.w3.org/2000/svg" xmlns:xlink="http://www.w3.org/1999/xlink" xml:space="preserve" xmlns:serif="http://www.serif.com/" style="fill-rule:evenodd;clip-rule:evenodd;stroke-linejoin:round;stroke-miterlimit:2;">
    <path d="M287.054,948.114L287.054,981.979C207.143,1013.74 190.861,1025.06 192.06,1029.17C192.36,1030.17 194.457,1033.18 236.41,1028.27C277.964,1023.36 311.626,1016.24 335,1010.43C330.905,987.289 326.709,964.145 322.614,941C310.727,943.405 298.84,945.809 287.054,948.114Z" style="fill:rgb(22,22,22);fill-rule:nonzero;"/>
    <path d="M323.428,470.263C321.138,474.562 320.341,478.061 320.142,478.861C305.898,539.646 287.272,575.537 275.12,646.019C251.912,781.786 271.933,936.047 273.825,950.544C280.2,953.343 292.451,957.542 308.089,956.942C321.835,956.342 332.493,952.243 338.569,949.344C336.278,905.055 338.568,850.369 353.808,790.084C372.434,716.202 396.041,691.708 417.257,605.33C432.994,541.345 451.222,466.864 419.747,444.769C395.642,427.574 339.166,440.171 323.428,470.263Z" style="fill:rgb(255,242,137);fill-rule:nonzero;stroke:url(#_Linear1);stroke-width:2px;"/>
    <path d="M378.738,501.607C362.775,574.67 347.909,652.537 335.337,734.908C323.465,812.375 314.585,886.539 308,957C318.497,956.085 328.054,952.796 338.131,950.695C336.834,919.568 338.231,893.045 340.226,872.727C342.621,847.505 348.707,788.755 373.151,730.104C376.344,722.598 380.434,713.49 387.119,696.375C398.393,668.05 406.574,643.83 410.266,632.42C427.626,577.973 436.306,514.818 439,494C418.846,496.402 398.792,499.004 378.738,501.607Z" style="fill:rgb(36,48,62);fill-opacity:0.2;fill-rule:nonzero;"/>
    <g transform="matrix(1,0,0,1,1.03311,1.99988)">
        <path d="M411,629C371.842,680.006 353.561,726.221 344.371,757.264C335.98,785.512 332.284,810.466 327.489,842.806C320.696,888.722 318.04,926.345 316.941,953.894C323.534,952.297 330.819,949.169 337.412,947.572C336.313,908.943 338.277,878.441 341.574,852.688C345.57,822.145 350.165,786.71 366.148,744.088C371.942,728.617 374.739,724.225 387.925,690.786C398.114,664.634 405.905,643.174 411,629Z" style="fill:rgb(25,35,44);fill-opacity:0.19;fill-rule:nonzero;"/>
    </g>
    <path d="M502.994,936.843C508.594,950.652 514.295,964.461 519.895,978.369C472.891,1008.07 450.69,1025.36 453.19,1030.43C456.29,1036.68 496.893,1024.27 575,993.37C566.699,966.547 558.399,939.823 550.098,913C534.397,920.948 518.695,928.895 502.994,936.843Z" style="fill:rgb(22,22,22);fill-rule:nonzero;"/>
    <path d="M464.697,470.745C489.173,493.152 488.374,524.562 491.471,576.579C491.471,576.579 499.063,704.519 524.538,807.351C530.932,833.059 542.521,872.972 564,920.787C560.404,925.388 550.613,936.592 533.43,942.494C515.847,948.496 500.862,945.295 495.267,943.794C464.697,891.578 443.018,847.064 429.032,816.254C364.195,674.009 359,599.086 359,559.973C359,519.761 359.699,471.546 389.57,455.441C412.048,443.337 445.016,452.74 464.697,470.745Z" style="fill:rgb(255,242,137);fill-rule:nonzero;stroke:url(#_Linear2);stroke-width:2px;"/>
    <path d="M395,486.409C406.054,529.127 418.004,572.546 430.75,616.564C464.011,730.812 500.159,838.757 538.1,940C541.785,938.099 547.268,936.204 551.849,932.703C556.529,929.101 561.212,924.107 564,920.905C558.822,908.8 549.652,891.98 542.083,870.471C530.632,837.557 513.391,777.233 503.731,696.599C494.47,619.166 491.498,580.727 490.275,555.748C489.326,536.367 490.898,494.813 465.007,472.804C459.629,468.302 454.351,465.601 450.667,464C432.045,471.503 413.522,479.006 395,486.409Z" style="fill:rgb(36,48,62);fill-opacity:0.15;fill-rule:nonzero;"/>
    <g transform="matrix(1,0,0,1,1,0.55878)">
        <path d="M490.456,582C485.853,628.461 484.352,690.708 495.559,762.647C506.866,834.986 527.045,893.22 545.557,936.184C552.052,931.853 557.297,925.527 563,920.731C556.196,904.645 547.29,884.345 538.385,856.968C521.275,804.312 513.87,763.247 507.466,726.378C500.962,688.61 494.158,639.751 490.456,582Z" style="fill:rgb(25,35,44);fill-opacity:0.22;fill-rule:nonzero;"/>
    </g>
    <path d="M23.511,106C19.479,107.965 13.935,111.404 9.6,117.3C7.282,120.346 4.459,124.375 4.056,130.074C3.955,132.334 3.653,137.247 6.879,140.49C7.786,141.473 10.205,143.339 22.1,142.946C32.684,142.553 38.026,142.357 40.748,139.606C45.989,134.299 44.074,124.277 40.748,118.283C35.506,108.751 25.224,106.393 23.511,106Z" style="fill:white;fill-rule:nonzero;stroke:rgb(22,22,22);stroke-width:2px;stroke-linejoin:miter;stroke-miterlimit:10;"/>
    <path d="M83.453,130.704C97.515,146.803 120.054,156.403 161.442,173.503C213.6,195.102 239.729,205.902 270.645,209.702C304.055,213.802 321.906,209.502 328.09,220.402C336.168,234.501 317.219,260.901 297.672,283C283.112,279.8 268.053,275.8 252.495,270.6C167.226,242.301 105.593,192.502 65.103,151.103C60.017,152.203 51.341,153.303 41.467,150.303C32.99,147.803 21.023,141.403 21.721,136.304C22.619,130.104 44.26,129.004 45.556,128.904C38.974,126.204 29.5,121.604 19.228,114.104C16.236,111.904 -0.918,99.205 1.177,95.205C2.972,91.705 18.53,96.505 33.19,101.004C46.554,105.104 55.828,108.004 66.001,115.004C75.774,121.604 81.459,128.404 83.453,130.704Z" style="fill:white;fill-rule:nonzero;stroke:rgb(22,22,22);stroke-width:2px;stroke-linejoin:miter;stroke-miterlimit:10;"/>
    <path d="M14.445,106.799C16.839,109.499 17.338,113.099 19.433,115.899C21.229,118.399 23.823,120.199 26.516,121.699C34.597,126.199 43.176,129.899 51.456,133.999C52.853,134.699 54.649,132.799 53.252,131.599C48.962,127.899 44.373,124.599 39.585,121.599C37.989,120.599 36.393,123.199 38.088,124.199C42.677,127.099 47.067,130.199 51.157,133.699C51.756,132.899 52.354,132.099 52.953,131.299C45.072,127.499 37.191,123.799 29.409,119.699C25.718,117.799 22.426,115.599 20.531,111.799C19.234,109.199 18.535,106.699 16.54,104.499C15.243,103.299 13.148,105.399 14.445,106.799Z" style="fill:white;fill-rule:nonzero;"/>
    <path d="M22.227,117.3C26.816,119.3 31.205,121.9 35.196,125C36.692,126.2 38.787,124.1 37.29,122.9C33.1,119.6 28.611,116.9 23.723,114.7C21.927,113.9 20.431,116.5 22.227,117.3Z" style="fill:white;fill-rule:nonzero;"/>
    <path d="M10.455,105C14.246,111.1 19.234,116.1 25.12,120.1C26.716,121.2 28.212,118.6 26.616,117.5C21.129,113.8 16.54,109.1 13.049,103.4C12.051,101.9 9.457,103.4 10.455,105Z" style="fill:white;fill-rule:nonzero;"/>
    <path d="M14.943,113.199C16.938,115.899 19.133,118.399 21.627,120.599C23.423,122.199 31.304,127.899 27.214,130.799C26.416,131.299 27.214,132.599 28.012,132.099C30.805,130.199 29.708,126.799 28.012,124.499C26.715,122.799 24.919,121.499 23.223,119.999C20.63,117.699 18.335,115.199 16.24,112.499C15.642,111.599 14.345,112.399 14.943,113.199Z" style="fill:rgb(22,22,22);fill-rule:nonzero;"/>
    <path d="M12.849,123.6C15.842,127.7 21.529,133.5 27.115,131.8C28.013,131.5 27.614,130.1 26.716,130.4C21.928,131.9 16.64,126.4 14.146,122.9C13.548,122.1 12.251,122.8 12.849,123.6Z" style="fill:rgb(22,22,22);fill-rule:nonzero;"/>
    <path d="M8.459,130.6C11.751,135.1 16.539,137.7 22.126,138C23.124,138.1 23.124,136.6 22.126,136.5C17.138,136.2 12.749,133.8 9.756,129.8C9.157,129 7.86,129.8 8.459,130.6Z" style="fill:rgb(22,22,22);fill-rule:nonzero;"/>
    <path d="M5.267,139.6C9.955,144.5 17.737,144.6 22.425,139.6C23.124,138.9 22.026,137.8 21.328,138.5C17.238,142.9 10.454,142.8 6.364,138.5C5.666,137.8 4.568,138.9 5.267,139.6Z" style="fill:rgb(22,22,22);fill-rule:nonzero;"/>
    <path d="M6.265,104.8C17.338,112.1 25.319,124.4 39.186,126.8C40.083,127 40.582,125.5 39.585,125.4C25.917,123.1 17.937,110.8 7.063,103.6C6.165,102.9 5.466,104.2 6.265,104.8Z" style="fill:rgb(22,22,22);fill-rule:nonzero;"/>
    <path d="M5.487,137.285C1.897,132.388 4.889,121.894 13.565,112C23.338,117.697 33.011,123.493 42.783,129.19C40.988,129.19 25.232,129.39 24.135,134.287C23.936,135.086 24.135,136.285 25.631,137.984C30.617,140.383 38.994,143.581 49.764,143.881C55.348,143.981 60.235,143.281 64.024,142.382C84.368,162.969 120.168,194.051 172.821,216.637C219.092,236.425 260.576,242.122 288,243.721C287.102,255.514 286.205,267.207 285.308,279C240.133,267.007 178.904,244.221 118.074,198.448C97.331,182.858 79.581,166.767 64.423,151.276C50.462,153.575 41.786,151.177 36.302,148.378C31.615,145.98 28.623,142.981 22.44,142.482C18.352,142.182 14.861,143.181 10.374,140.983C9.875,140.783 6.983,139.284 5.487,137.285Z" style="fill:rgb(109,108,108);fill-opacity:0.2;fill-rule:nonzero;"/>
    <path d="M134,208C147.963,215.49 164.121,223.079 182.573,229.57C222.768,243.85 259.173,248.344 287,249.343C286.601,259.528 286.302,269.814 285.903,280C256.979,273.209 220.673,261.326 182.174,239.756C163.722,229.47 147.764,218.585 134,208Z" style="fill:rgb(109,108,108);fill-opacity:0.14;fill-rule:nonzero;"/>
    <path d="M291.565,236.196C285.873,249.119 285.573,259.839 285.074,279.073C284.675,293.6 285.673,309.228 293.462,350.302C302.948,399.992 307.441,408.006 308.939,434.354C310.137,454.991 308.539,471.922 307.042,483.142C319.623,490.054 340.692,499.471 368.251,501.575C416.979,505.282 453.025,483.743 465.407,475.528C466.904,444.071 468.402,412.514 470,381.058C464.508,354.209 458.018,333.171 453.325,319.346C438.547,275.767 424.767,255.13 433.554,233.291C438.447,221.169 448.132,213.755 454.822,209.648C450.129,206.041 400.902,169.475 347.182,188.41C341.59,190.313 306.243,202.836 291.565,236.196Z" style="fill:white;fill-rule:nonzero;stroke:rgb(22,22,22);stroke-width:2px;stroke-linejoin:miter;stroke-miterlimit:10;"/>
    <path d="M347,189.18C361.876,213.152 370.207,234.327 374.967,249.11C374.967,249.11 398.273,320.428 381.215,416.118C377.545,436.494 371,465.461 358.108,498.623C363.066,499.721 369.017,500.62 375.76,500.92C375.76,500.92 386.174,501.42 397.876,499.921C412.157,498.023 436.653,490.332 465.512,475.549C466.008,442.088 466.504,408.726 467,375.265C459.661,346.998 452.223,324.324 446.669,308.442C433.281,270.586 423.86,252.806 431.595,234.028C436.653,221.742 446.967,214.151 455,209.756C444.488,202.764 425.05,191.876 398.471,187.681C376.554,184.285 358.504,186.682 347,189.18Z" style="fill:rgb(109,108,108);fill-opacity:0.19;fill-rule:nonzero;"/>
    <path d="M360,186C376.07,205.806 394.835,234.716 406.413,272.828C439.252,381.663 385.253,477.093 372.776,498C383.256,497.9 395.534,497 408.909,494.399C432.764,489.797 451.828,481.595 465.503,474.292C466.002,443.082 466.501,411.872 467,380.762C458.516,351.853 450.531,324.444 439.651,287.232C432.265,261.724 426.476,240.818 437.355,224.112C442.646,216.01 450.032,211.508 455.621,208.907C423.781,201.205 391.84,193.602 360,186Z" style="fill:rgb(109,108,108);fill-opacity:0.11;fill-rule:nonzero;"/>
    <path d="M352.798,391C352.498,369.57 352.299,348.241 352,326.811C403.139,324.207 454.278,321.604 505.517,319C507.312,338.828 509.106,358.655 511,378.483C458.266,382.688 405.532,386.794 352.798,391Z" style="fill:white;fill-rule:nonzero;stroke:rgb(22,22,22);stroke-width:2px;stroke-linejoin:miter;stroke-miterlimit:10;"/>
    <path d="M337,384L337,360.723C402.801,355.848 468.602,350.874 534.402,346C534.902,355.55 535.401,365.199 536,374.749C469.7,377.733 403.3,380.916 337,384Z" style="fill:white;fill-rule:nonzero;stroke:rgb(22,22,22);stroke-width:2px;stroke-linejoin:miter;stroke-miterlimit:10;"/>
    <path d="M343,348.675C343.797,360.15 344.593,371.525 345.29,383C406.029,378.111 466.668,373.121 527.407,368.232C527.905,357.855 528.403,347.477 529,337C466.967,340.892 404.934,344.783 343,348.675Z" style="fill:white;fill-rule:nonzero;stroke:rgb(22,22,22);stroke-width:2px;stroke-linejoin:miter;stroke-miterlimit:10;"/>
    <path d="M328,374.287C329.793,419.858 331.587,465.429 333.48,511C401.228,503.405 468.975,495.91 536.723,488.314C538.816,443.543 540.908,398.771 543,354C471.267,360.796 399.633,367.491 328,374.287Z" style="fill:white;fill-rule:nonzero;stroke:rgb(22,22,22);stroke-width:2px;stroke-linejoin:miter;stroke-miterlimit:10;"/>
    <path d="M339.565,392.2C370.391,388.1 401.217,385.2 432.243,383.4C433.639,383.3 433.639,381.1 432.243,381.1C401.217,382.9 370.291,385.8 339.565,389.9C338.168,390.1 338.168,392.4 339.565,392.2Z" style="fill:rgb(22,22,22);fill-rule:nonzero;"/>
    <path d="M373.982,398.3C397.625,395.3 421.269,392.2 445.012,389.2C446.408,389 446.408,386.8 445.012,386.9C421.368,389.9 397.725,393 373.982,396C372.585,396.3 372.585,398.5 373.982,398.3Z" style="fill:rgb(22,22,22);fill-rule:nonzero;"/>
    <path d="M487.608,462.3C487.209,468.6 487.209,475 487.808,481.3C487.907,482.7 490.202,482.7 490.102,481.3C489.504,475 489.404,468.6 489.903,462.3C490.002,460.9 487.708,460.9 487.608,462.3Z" style="fill:rgb(22,22,22);fill-rule:nonzero;"/>
    <path d="M488.607,462.5C500.978,462.8 513.248,462.1 525.519,460.5C525.12,460.1 524.721,459.7 524.421,459.4C524.222,465.2 524.421,470.9 524.82,476.6C524.92,478 527.215,478 527.115,476.6C526.616,470.9 526.516,465.1 526.716,459.4C526.716,458.8 526.217,458.2 525.618,458.3C513.348,459.9 501.077,460.5 488.707,460.3C487.111,460.2 487.111,462.4 488.607,462.5Z" style="fill:rgb(22,22,22);fill-rule:nonzero;"/>
    <path d="M489.505,483.1C501.775,483.3 513.846,482 525.817,479.3C527.214,479 526.615,476.8 525.219,477.1C513.447,479.7 501.576,481 489.505,480.8C488.108,480.8 488.108,483 489.505,483.1Z" style="fill:rgb(22,22,22);fill-rule:nonzero;"/>
    <path d="M494.194,469.5C501.776,470 509.258,469.6 516.84,468.4C518.236,468.2 517.638,466 516.241,466.2C508.959,467.4 501.576,467.7 494.194,467.2C492.797,467.1 492.797,469.4 494.194,469.5Z" style="fill:rgb(22,22,22);fill-rule:nonzero;"/>
    <path d="M498.982,475.8C506.863,475.6 514.445,474.1 521.927,471.4C523.224,470.9 522.725,468.7 521.328,469.2C514.145,471.9 506.663,473.3 498.982,473.6C497.585,473.5 497.485,475.8 498.982,475.8Z" style="fill:rgb(22,22,22);fill-rule:nonzero;"/>
    <path d="M360,506C361.794,463.71 363.588,421.42 365.282,379.03C423.488,374.32 481.794,369.71 540,365C538.704,405.085 537.309,445.171 536.013,485.256C477.309,492.171 418.704,499.085 360,506Z" style="fill:rgb(109,108,108);fill-opacity:0.2;fill-rule:nonzero;"/>
    <path d="M518.93,338C519.233,349.593 518.628,363.384 515.604,378.675C508.145,416.252 490.202,443.335 478.005,458.626C486.271,469.519 494.536,480.412 502.903,491.305C477.602,494.204 452.301,497.102 427,500C431.032,454.228 435.064,408.457 439.096,362.785C437.786,356.788 436.374,350.792 435.064,344.796C462.986,342.397 491.008,340.199 518.93,338Z" style="fill:rgb(109,108,108);fill-opacity:0.2;fill-rule:nonzero;"/>
    <path d="M449.239,207.117C470.158,204.315 495.08,252.351 504.989,286.876C516.399,326.605 511.394,360.931 507.291,379.044C499.283,414.57 482.669,439.589 472.26,453.099C473.861,458.403 477.564,472.813 471.459,488.625C462.451,511.742 438.029,522.85 436.128,520.749C435.527,520.048 436.728,517.146 446.237,506.238C444.235,508.339 429.822,522.65 413.608,519.248C410.805,518.647 407.302,517.947 405.301,515.145C400.596,508.339 408.403,492.928 425.018,475.815C406.902,480.319 402.098,479.118 401.197,477.116C398.895,472.313 417.411,458.703 424.117,453.699C434.026,446.394 442.934,441.39 449.039,438.288C466.154,402.762 465.253,375.041 463.752,362.032C461.55,342.817 454.344,321.902 452.943,317.899C448.939,306.39 447.037,303.789 439.03,283.073C426.119,249.849 426.119,244.145 426.619,239.741C428.421,226.532 437.329,208.718 449.239,207.117Z" style="fill:white;fill-rule:nonzero;stroke:rgb(22,22,22);stroke-width:2px;stroke-linejoin:miter;stroke-miterlimit:10;"/>
    <path d="M405.606,512.4C416.679,506.1 426.356,498 434.437,488.2C435.634,486.7 433.539,484.6 432.342,486.1C424.461,495.7 414.983,503.7 404.109,509.9C402.413,510.7 403.91,513.3 405.606,512.4Z" style="fill:rgb(22,22,22);fill-rule:nonzero;"/>
    <path d="M415.382,519.099C426.356,513.399 435.733,505.499 443.315,495.699C444.512,494.199 441.918,492.699 440.721,494.199C433.539,503.599 424.361,511.099 413.886,516.499C412.19,517.399 413.686,519.999 415.382,519.099Z" style="fill:rgb(22,22,22);fill-rule:nonzero;"/>
    <path d="M440.903,211.976C421.006,229.307 502.193,305.343 488.295,391.697C478.797,450.903 439.403,489.572 439.403,489.572C428.405,500.591 407.708,514.116 410.207,518.824C412.007,522.23 424.505,519.125 429.005,517.722C437.503,515.117 443.402,510.71 446.702,507.804C441.703,513.414 436.004,520.327 437.203,521.729C438.903,523.532 453.101,516.119 462,505.701C477.397,487.668 475.198,462.624 473.698,452.405C477.297,447.697 481.996,441.085 486.796,432.67C491.195,425.157 503.893,401.715 509.392,369.858C519.091,313.457 499.194,268.978 491.195,251.547C483.996,236.019 471.798,210.273 453.301,209.171C450.901,208.871 444.802,208.57 440.903,211.976Z" style="fill:rgb(109,108,108);fill-opacity:0.17;fill-rule:nonzero;"/>
    <path d="M508,368C502.581,383.71 496.159,400.221 488.532,417.533C483.113,429.841 477.594,441.349 471.974,452.256C469.165,461.262 463.846,474.771 453.309,488.68C442.271,503.29 430.128,512.196 422,517.299C424.308,517.399 427.118,517.199 430.229,516.398C438.056,514.597 443.274,510.294 445.883,507.693C442.873,511.495 439.762,515.197 436.751,519C439.16,518.6 442.973,517.899 447.188,515.998C469.265,506.091 473.881,479.174 474.182,477.372C474.985,472.469 475.487,464.064 472.476,453.657C479.701,445.151 488.833,432.443 496.159,415.331C504.287,396.519 506.997,379.608 508,368Z" style="fill:rgb(109,108,108);fill-opacity:0.22;fill-rule:nonzero;"/>
    <path d="M268.516,141.162C252.615,159.598 263.577,185.348 265.059,188.855C270.59,201.881 284.91,220.417 303.082,218.914C316.316,217.712 324.711,206.39 326.785,203.384C341.402,182.042 336.562,141.262 311.872,130.742C298.243,124.93 279.478,128.337 268.516,141.162Z" style="fill:rgb(93,28,121);fill-rule:nonzero;"/>
    <path d="M309.045,157.843C309.738,165.749 317.953,167.451 323.495,180.461C327.454,189.868 327.454,199.075 326.761,205.68C333.195,206.281 345.072,206.581 358.533,201.377C369.123,197.274 376.546,191.369 381,187.266C378.922,182.562 375.853,175.657 372.191,167.451C356.355,132.524 353.782,129.521 349.922,128.02C334.482,122.116 307.758,143.132 309.045,157.843Z" style="fill:white;fill-rule:nonzero;stroke:rgb(22,22,22);stroke-width:2px;stroke-linejoin:miter;stroke-miterlimit:10;"/>
    <path d="M251.777,55.096C248.403,59.892 246.319,65.788 246.021,91.068C245.823,112.651 247.014,132.336 248.999,149.823C253.465,147.225 257.93,144.627 262.396,142.029C264.381,146.925 267.755,153.62 273.511,160.115C284.924,173.005 298.818,177.401 304.971,179C311.421,177.401 327.499,172.405 339.705,157.117C347.744,146.925 350.324,136.833 350.92,134.534C354.591,119.446 351.019,106.956 349.133,101.76C351.515,100.661 355.187,98.562 357.966,94.765C363.821,86.771 365.409,72.482 358.164,67.686C352.805,64.089 343.278,66.187 336.133,73.582C334.545,69.884 332.064,64.788 328.094,59.492C327.102,58.193 319.659,48.401 310.528,43.305C292.963,33.113 263.885,37.909 251.777,55.096Z" style="fill:white;fill-rule:nonzero;stroke:rgb(22,22,22);stroke-width:2px;stroke-linejoin:miter;stroke-miterlimit:10;"/>
    <path d="M243.95,85.902C239.953,85.202 232.557,83.103 229.059,77.006C223.062,66.71 231.857,51.016 234.056,47.118C235.855,43.819 240.652,35.923 261.041,21.629C276.532,10.733 284.328,5.335 292.723,2.736C322.507,-6.16 349.792,9.234 354.889,12.133C365.583,18.23 372.38,24.827 377.777,30.025C386.072,38.022 395.367,47.218 405.761,57.814C432.447,92.399 441.841,123.986 445.639,142.878C449.937,164.269 454.335,186.06 441.542,198.855C428.749,211.65 405.362,209.051 391.069,202.953C371.18,194.457 362.685,176.464 356.089,162.57C344.895,138.78 344.195,115.989 345.295,101.196C355.289,98.297 360.386,88.901 358.088,81.804C356.289,76.206 349.592,70.608 342.696,72.607C337.399,74.107 333.601,79.605 333.901,86.002C329.104,85.902 316.311,84.802 304.117,75.606C295.222,68.909 290.725,60.912 288.626,56.514C283.129,57.214 272.135,59.213 261.041,67.21C251.746,73.607 246.549,81.304 243.95,85.902Z" style="fill:rgb(102,35,129);fill-rule:nonzero;"/>
    <path d="M309.865,105.401C321.956,119.871 325.784,135.139 325.784,135.139C329.714,152.304 324.071,166.873 321.553,172.761C327.9,167.971 334.349,163.181 340.697,158.391C345.13,172.96 349.463,187.43 353.896,202C357.221,201.701 364.073,200.503 370.924,195.713C376.164,192.021 379.287,187.73 381,185.035C372.839,177.551 357.221,160.985 350.067,134.94C346.641,122.366 346.138,111.189 346.541,102.807C355.71,99.114 360.445,90.233 358.531,82.848C357.12,77.46 351.579,70.973 344.425,71.971C338.48,72.869 333.543,78.657 333.644,85.742C329.109,85.742 318.429,85.243 307.245,78.557C295.658,71.672 290.116,62.092 288,58C288.504,77.16 294.448,88.237 299.789,94.823C303.315,99.314 304.927,99.513 309.865,105.401Z" style="fill:rgb(109,108,108);fill-opacity:0.24;fill-rule:nonzero;"/>
    <path d="M263.746,101C262.649,105 262.748,109.1 264.245,113C264.744,114.4 266.639,114.5 267.138,113C268.335,109.4 268.335,105.6 267.238,102C266.639,100.2 263.746,100.9 264.345,102.8C265.342,106 265.242,109.1 264.245,112.3L267.138,112.3C265.841,108.9 265.641,105.4 266.639,101.9C267.138,99.9 264.345,99.1 263.746,101Z" style="fill:rgb(22,22,22);fill-rule:nonzero;"/>
    <path d="M260.155,94.8C262.749,93.2 265.941,93.5 268.136,95.6C269.533,96.9 271.628,94.8 270.231,93.5C267.139,90.5 262.35,89.9 258.659,92.2C257.063,93.2 258.559,95.8 260.155,94.8Z" style="fill:rgb(22,22,22);fill-rule:nonzero;"/>
    <path d="M270.93,120.199C272.825,120.199 272.825,117.199 270.93,117.199C268.935,117.199 268.935,120.199 270.93,120.199Z" style="fill:rgb(22,22,22);fill-rule:nonzero;"/>
    <path d="M277.514,111.5L277.514,111.8C277.514,112.6 278.212,113.3 279.01,113.3C279.808,113.3 280.506,112.6 280.506,111.8L280.506,111.5C280.506,110.7 279.808,110 279.01,110C278.212,110 277.514,110.6 277.514,111.5Z" style="fill:rgb(22,22,22);fill-rule:nonzero;"/>
    <path d="M277.812,119C279.708,119 279.708,116 277.812,116C275.917,116 275.917,119 277.812,119Z" style="fill:rgb(22,22,22);fill-rule:nonzero;"/>
    <path d="M236.711,105.6C235.514,109.6 235.613,113.7 237.01,117.6C237.509,119 239.404,119 239.903,117.6C241.1,114 241.2,110.2 240.202,106.6C239.703,104.7 236.81,105.5 237.309,107.4C238.207,110.6 238.107,113.7 237.01,116.8L239.903,116.8C238.706,113.4 238.506,109.9 239.604,106.4C240.103,104.5 237.209,103.7 236.711,105.6Z" style="fill:rgb(22,22,22);fill-rule:nonzero;"/>
    <path d="M235.016,98.1C237.111,97 240.004,97.5 241.401,99.5C242.498,101 245.092,99.5 243.994,98C241.5,94.7 237.211,93.6 233.519,95.5C231.824,96.4 233.32,99 235.016,98.1Z" style="fill:rgb(22,22,22);fill-rule:nonzero;"/>
    <path d="M268.634,152.499C276.315,151.099 282.999,146.999 287.987,140.899C288.885,139.799 287.289,138.199 286.391,139.299C281.702,145.099 275.417,148.899 268.035,150.299C266.639,150.599 267.237,152.799 268.634,152.499Z" style="fill:rgb(22,22,22);fill-rule:nonzero;"/>
    <path d="M284.197,139.5C285.993,140.1 287.489,141 288.786,142.3C289.784,143.3 291.38,141.7 290.382,140.7C288.786,139.1 286.891,138 284.796,137.3C283.399,136.9 282.801,139.1 284.197,139.5Z" style="fill:rgb(22,22,22);fill-rule:nonzero;"/>
    <path d="M346,9C358.681,26.56 374.956,51.404 390.433,83.133C406.808,116.657 418.79,141.9 409.504,151.878C397.223,165.148 354.787,144.095 347.997,140.603C349.395,149.683 352.89,164.15 363.174,178.618C368.366,185.901 377.452,198.772 394.227,204.759C404.312,208.351 413.298,208.151 416.793,207.852C421.486,207.552 426.878,207.153 432.769,203.96C432.769,203.96 440.457,199.87 445.649,191.489C453.537,178.717 449.344,161.456 443.752,139.805C437.062,113.864 428.076,96.603 419.289,79.541C417.092,75.35 414.496,70.461 410.303,64.774C406.109,58.987 403.014,55.894 390.033,43.422C370.763,24.765 367.767,22.071 361.976,18.179C355.586,13.789 349.894,10.896 346,9Z" style="fill:rgb(77,32,96);fill-opacity:0.45;fill-rule:nonzero;"/>
    <path d="M321.95,179C322.74,181.307 324.519,187.828 321.95,195.05C318.096,205.784 307.425,209.395 305.745,209.897C293.592,213.91 278.276,207.59 268,193.847C269.383,197.458 272.446,203.878 278.77,209.496C281.932,212.305 290.528,219.828 302.682,218.925C304.757,218.725 318.096,217.722 324.222,205.985C328.669,197.659 327.681,187.226 321.95,179Z" style="fill:rgb(96,27,125);fill-opacity:0.43;fill-rule:nonzero;"/>
    <defs>
        <linearGradient id="_Linear1" x1="0" y1="0" x2="1" y2="0" gradientUnits="userSpaceOnUse" gradientTransform="matrix(173,0,0,520,264,697)"><stop offset="0" style="stop-color:black;stop-opacity:1"/><stop offset="1" style="stop-color:black;stop-opacity:1"/></linearGradient>
        <linearGradient id="_Linear2" x1="0" y1="0" x2="1" y2="0" gradientUnits="userSpaceOnUse" gradientTransform="matrix(205,0,0,496,359,698)"><stop offset="0" style="stop-color:white;stop-opacity:0.01"/><stop offset="0.15" style="stop-color:rgb(133,133,133);stop-opacity:0.49"/><stop offset="0.33" style="stop-color:rgb(35,35,35);stop-opacity:0.87"/><stop offset="1" style="stop-color:black;stop-opacity:1"/></linearGradient>
    </defs>
</svg>
