<?xml version="1.0" encoding="UTF-8"?><svg id="a" xmlns="http://www.w3.org/2000/svg" viewBox="0 0 1100 900"><g id="b"><g id="c"><g id="d"><path d="M68.1,833.5c55.8-19.8,115.5-10.6,171.9,1.8,28.4,6.3,56.9,13.4,85.8,17.9,28.3,4.4,56.8,7.2,85.4,8.4,33.4,1.7,66.8,1.7,100.2,1.8,.7,0,1.3-.6,1.3-1.3s-.6-1.3-1.3-1.3c-60.7-.2-121.7-.3-181.8-9.6-57.2-8.8-112.8-27.8-170.9-31.4-30.9-1.9-61.9,.8-91.3,11.1-1.5,.6-.9,3,.7,2.6h0Z" style="isolation:isolate; opacity:.15;"/><path d="M352.9,820.7c34.9,10.7,71.3,12.4,107.5,12.3,38.7-.1,77.4-.8,116-2.1,39.1-1.3,78.1-3.8,117-8.5,37.3-4.6,74.4-11.1,111.5-17.1,44.3-7.2,88.8-13.6,133.7-15.3,1.7,0,1.7-2.6,0-2.5-75.7,2.9-149.7,19.2-224.5,29.7-77.9,10.9-156.5,12.2-235,13.2-42.2,.5-84.8,.5-125.5-12.1-1.6-.5-2.3,1.9-.7,2.4h0Z" style="isolation:isolate; opacity:.15;"/><path d="M504.3,884.7c112.4,15.9,224-11.7,335.5-22.6,32.4-3.4,65-4.7,97.5-3.8,.7,0,1.3-.6,1.3-1.3s-.6-1.3-1.3-1.3c-112.5-3.4-222.3,26.4-334.3,30.9-32.7,1.5-65.5,0-98-4.3-1.6-.2-2.3,2.2-.7,2.4h0Z" style="isolation:isolate; opacity:.15;"/><path d="M510.9,774.7c51.6,17.7,106.8,15.4,160.1,8.2,57.6-7.8,114.3-18.4,172.6-20.3,33.4-1,66.9-.1,100.2,2.9,1.7,.1,1.7-2.4,0-2.5-57.3-5.1-115.1-4.2-172.2,2.6-55.5,6.7-110.5,19.6-166.5,20.3-31.7,.4-63.3-3.2-93.4-13.6-1.6-.6-2.3,1.9-.8,2.4h0Z" style="isolation:isolate; opacity:.15;"/><path d="M28.8,580.7c14.6,75,61.2,137.6,106.3,197.3,.9,1.3,3.1,0,2.2-1.3-45.1-59.6-91.5-121.9-106.1-196.7-.3-1.6-2.8-.9-2.4,.7h0Z" style="isolation:isolate; opacity:.15;"/><path d="M33.2,581.8c11-5.1,22.9-7.9,35-8.2,12.9-.2,25.1,3.1,37.7,5.9,22.4,5,45.4,6.7,68.3,5,1.7-.1,1.7-2.6,0-2.5-27.5,1.9-53.4-1.9-80.2-7.9-21.4-4.8-42.1-3.7-62.1,5.4-1.4,.8-.1,2.9,1.3,2.3h0Z" style="isolation:isolate; opacity:.15;"/><path d="M113.5,580.9c23.3-7.6,43.5-21.7,65.9-31,25.3-10.4,52.6-15,79.9-13.3,1.7,.1,1.7-2.4,0-2.5-26-1.6-52.1,2.4-76.4,11.7-24.1,9.3-45.3,24.7-70,32.7-1.5,.5-.8,2.9,.6,2.4h0Z" style="isolation:isolate; opacity:.2;"/><path d="M138.2,778.3c62.5-10.2,120.6-39,166.6-82.5,1.2-1.1-.6-2.9-1.8-1.8-45.8,43.2-103.4,71.7-165.5,81.9-1.6,.3-.8,2.7,.7,2.4h0Z" style="isolation:isolate; opacity:.15;"/><path d="M257,535.8c30.9,46.9,55.6,100.8,47.6,158.2-.2,1.6,2.2,2.3,2.4,.7,8-58.1-16.6-112.7-47.9-160.2-.8-1.3-3,0-2.1,1.3h0Z" style="isolation:isolate; opacity:.15;"/><path d="M150.9,636.6c29.3-5.7,59.4-5.7,88.7,.1,1.6,.3,2.2-2.1,.7-2.4-29.8-5.9-60.3-5.9-90.1-.1-1.7,.3-.9,2.7,.7,2.4h0Z" style="isolation:isolate; opacity:.2;"/><path d="M276.6,562.6c8.1,.8,15.4-1.3,23.2-3,9.3-2,18.7-3.2,28.2-3.5,18.1-.5,36.2,1.9,53.5,7.3,1.6,.5,2.2-2,.7-2.4-23.9-7.5-49.2-9.4-74-5.5-10.5,1.7-20.8,5.5-31.5,4.5-1.7,0-1.6,2.5-.1,2.6h0Z" style="isolation:isolate; opacity:.15;"/><path d="M251.9,737.2c26.8,.4,53.5-1.6,79.9-6,13.7-2.3,27.2-5.2,40.6-8.8,9.6-2.6,19-5.3,26.3-12.4,1.1-1.1-.6-2.9-1.8-1.8-8.8,8.4-21.5,10.9-32.9,13.7-11.9,2.9-23.9,5.4-36,7.3-25.2,4-50.6,5.8-76.1,5.4-.7,0-1.3,.6-1.3,1.3s.6,1.3,1.3,1.3h0Z" style="isolation:isolate; opacity:.15;"/><path d="M380.7,563.1c11.8,23.6,18.3,49.6,18.9,76,.5,24.8-9.1,50-4.3,74.5,.3,1.6,2.7,.9,2.4-.7-3.1-15.6,.7-30.7,2.8-46.1,1.6-12.1,2-24.3,1.2-36.4-1.7-23.9-8.1-47.2-18.9-68.6-.7-1.5-2.8-.2-2.1,1.3h0Z" style="isolation:isolate; opacity:.15;"/><path d="M316,640.8c20.2-12.6,41.7-23,64.1-31.1,1.5-.5,.9-3-.7-2.4-22.6,8.1-44.3,18.7-64.7,31.4-1.4,.8-.1,3,1.3,2.1h0Z" style="isolation:isolate; opacity:.15;"/><path d="M791.8,510.8c-16.6,40.1-26.2,82.7-28.1,126.1-.1,1.7,2.4,1.7,2.5,0,2-43.1,11.5-85.5,28.1-125.4,.6-1.5-1.8-2.2-2.5-.7h0Z" style="isolation:isolate; opacity:.15;"/><path d="M792.3,513.7c50.8-14,104.7-11.7,154.2,6.3,1.5,.5,2.2-1.9,.7-2.4-49.9-18.2-104.2-20.4-155.5-6.3-.7,.2-1.1,.9-.9,1.5s.8,1.1,1.5,.9h0Z" style="isolation:isolate; opacity:.15;"/><path d="M764.6,640.6c50.2,26.2,108.8,31.5,163,14.8,1.5-.5,.9-2.9-.7-2.4-53.5,16.5-111.3,11.3-161-14.6-1.4-.7-2.7,1.5-1.3,2.2h0Z" style="isolation:isolate; opacity:.15;"/><path d="M947.8,519.6c1,47.5-17.3,92.4-22.5,139.3-.2,1.6,2.3,1.6,2.5,0,5.2-46.9,23.4-91.7,22.5-139.3,0-.7-.6-1.3-1.3-1.3s-1.2,.6-1.2,1.3h0Z" style="isolation:isolate; opacity:.15;"/><path d="M820.8,607.9c20.7-17.3,43.6-31.7,68.2-42.7,1.5-.7,.2-2.8-1.3-2.2-24.8,11.1-47.9,25.6-68.7,43-1.2,1.2,.6,2.9,1.8,1.9h0Z" style="isolation:isolate; opacity:.15;"/><path d="M869.5,502.9c3.3-14.5,8.9-28.4,16.5-41.2,.3-.6,.1-1.4-.5-1.7-.6-.3-1.3-.1-1.6,.4-7.7,13-13.4,27.1-16.7,41.8-.4,1.6,2,2.3,2.3,.7h0Z" style="isolation:isolate; opacity:.15;"/><path d="M888.2,463.5c59.1-7.2,118.9,3.5,171.8,30.7,1.4,.7,2.7-1.4,1.3-2.2-53.3-27.4-113.6-38.1-173.1-30.9-1.6,.1-1.6,2.6,0,2.4h0Z" style="isolation:isolate; opacity:.15;"/><path d="M1060.2,495.8c-10.8,53-27.7,104.7-50.3,153.8-.7,1.5,1.5,2.7,2.2,1.3,22.8-49.3,39.8-101.2,50.6-154.4,.3-1.6-2.1-2.3-2.5-.7Z" style="isolation:isolate; opacity:.15;"/><path d="M811.2,662.6c9.9,9.6,23,12.6,36.2,15,16.6,2.9,33.5,4.7,50.3,5.3,34.8,1.2,69.5-2.4,103.3-10.7,1.6-.4,.9-2.8-.7-2.4-31.5,7.8-63.9,11.4-96.3,10.8-16.7-.3-33.3-1.8-49.8-4.4-14.6-2.3-30.3-4.6-41.3-15.3-1.1-1.2-2.9,.6-1.7,1.7h0Z" style="isolation:isolate; opacity:.15;"/><path d="M943,579.2c13.5-17.5,31.7-30.7,52.5-38,1.5-.5,.8-3-.7-2.4-21.2,7.4-39.9,20.9-53.6,38.7-1,1.1,.8,2.9,1.8,1.7h0Z" style="isolation:isolate; opacity:.2;"/><path d="M83.4,320.8c60.5-27.1,122.8,10.5,180.6,26.6,60.2,16.7,123.4,11.4,184.4,2.3,1.6-.2,.9-2.6-.7-2.4-66.1,9.8-133.4,14.2-198-6.9-53.4-17.4-111.7-46.9-167.6-21.8-1.4,.7-.2,2.9,1.3,2.2h0Z" style="isolation:isolate; opacity:.15;"/><path d="M341.8,293c127.8,54,264.3-.6,392.4-23.6,40-7.2,80.5-11.4,121.2-9,1.7,.1,1.7-2.4,0-2.5-137.2-7.7-265.4,59.3-402.3,55.5-37.7-1-75.1-7.8-110-22.5-1.5-.7-2.8,1.5-1.3,2.1h0Z" style="isolation:isolate; opacity:.15;"/><path d="M624.7,371.9c65-15,130.3-29.2,197.4-28.5,60.2,.7,123,8.3,179.3-18.1,1.5-.7,.2-2.9-1.3-2.2-59,27.6-125,17.5-187.8,17.7-63.9,.2-126.3,14.3-188.2,28.5-1.7,.5-1,2.9,.6,2.6h0Z" style="isolation:isolate; opacity:.15;"/><path d="M110,25.1c48.9,36.1,107.7,54.9,166,69.2,58.4,14.4,117.9,23.7,177.9,27.8,121,8.5,242.6-3.6,359.6-35.8,65.4-18.1,128.9-42.5,189.5-73,1.5-.7,.2-2.9-1.3-2.2-108.2,54.2-224.9,89.2-345,103.4-119.3,14.4-240.1,8.5-357.5-17.4-65.7-14.6-133.2-33.7-188-74.2-1.2-.9-2.4,1.3-1.2,2.2Z" style="fill:#5e5e5e;"/><path d="M197.2,115.5c-12.4-5.6-14.9-20.4-8.9-31.8s20.9-12.7,31-6.1c9,5.9,12.3,18,8.6,27.8-2,5.6-6.4,9.9-12,11.8-6.1,1.9-17.3,1.4-22.2-3.1-1.2-1.1-3,.7-1.8,1.8,9.5,8.6,28.1,5.9,35.4-4.2,7.7-10.7,5.3-26.6-5-34.9-9.9-8-27.2-8.2-34.9,3.1-8.5,12.6-6.2,31.3,8.4,37.9,1.6,.6,2.8-1.6,1.4-2.3h0Z" style="fill:#5e5e5e;"/><path d="M324.4,139.9c0-10.7,3.8-22.1,13.7-27.4,12.8-6.9,28.3,.7,29.1,15.6,1.4,25.1-33.7,35.4-44.4,11.9-.7-1.5-2.8-.2-2.2,1.3,12.4,27.1,53.6,12.8,48.8-15.9-1.6-11.5-12.3-19.6-23.8-18-1,.1-1.9,.3-2.8,.6-14.5,3.6-20.9,18.2-21,31.9,0,.7,.6,1.3,1.3,1.3s1.2-.6,1.3-1.3h0Z" style="fill:#5e5e5e;"/><path d="M477.2,155.9c-6-12-1.4-27.5,12-32,12.5-4.2,26.2,2.7,28.3,16.1,4.3,25.9-31.8,37.6-43.3,13.9-.7-1.5-2.9-.2-2.2,1.3,5.6,11.6,19.4,17.9,31.7,13.1,13.1-5.1,20.7-21.8,14.6-34.8-5.7-12.1-20.6-16.5-32.4-11-13.3,6.2-17.2,22.1-10.9,34.7,.8,1.4,2.9,.1,2.2-1.3h0Z" style="fill:#5e5e5e;"/><path d="M626.8,148.3c-17.8-21.3,23.5-42.9,34.3-19.8,4.1,8.9,0,19.6-8.1,24.7-9.6,6-21.6,3-28.5-5.8-1-1.3-3.2,0-2.2,1.3,7.5,9.8,21,13.5,31.8,6.7,10-6.4,14.7-20.6,7.5-30.9-15.5-22.1-55.7,2.9-36.8,25.5,1,1.2,2.8-.5,1.8-1.8l.2,.1h0Z" style="fill:#5e5e5e;"/><path d="M764.4,130.3c-23.3-10.8,6.9-45.4,25.7-28.6,8.2,7.1,9.2,19.4,2.2,27.7-7.8,9.1-20.6,9.2-29.3,1.4-1.2-1.1-3,.7-1.8,1.8,9.7,8.7,24.3,8.9,33.1-1.4,7.8-9.5,6.7-23.4-2.6-31.5-21.6-18.8-55.2,20.5-28.6,32.8,1.5,.6,2.7-1.5,1.3-2.2h0Z" style="fill:#5e5e5e;"/><path d="M870.9,90.7c-10.3-20.9,21.6-41.6,35.8-23.7,6.7,8.4,3.6,22.6-5,28.3-7,4.7-26.5,6.9-30.3-3.8-.5-1.5-3-.8-2.4,.7,3.8,10.6,20.9,11,29.7,7.5,11.8-4.9,17.4-18.6,12.5-30.4-.2-.4-.3-.8-.5-1.2-5.4-10.8-20.3-11.7-30.1-7.3-12.3,5.6-17.7,19.2-11.7,31.2,.7,1.5,2.9,.2,2.2-1.3h-.2Z" style="fill:#5e5e5e;"/><path d="M969.2,56.3c-14.7-26.1,32.6-49,38.1-22,1.7,8.7-2,19.4-8.3,25.6-10.4,10.3-24.7,5.3-32.5-5.5-.9-1.3-3.1,0-2.2,1.3,8.2,11.3,22.3,17.4,34.4,7.8,9.1-7.2,15-23.4,9.6-34.4-6.1-12.4-22.1-11.4-31.9-4.6-11.3,7.8-16.4,20.6-9.4,33.1,.3,.6,1.1,.8,1.7,.5,.6-.4,.8-1.2,.5-1.8h0Z" style="fill:#5e5e5e;"/><circle cx="120.5" cy="159.3" r="8.8" style="fill:#1770f2;"/><circle cx="517.5" cy="46.38" r="7.4" transform="translate(244.56 488.49) rotate(-63.43)" style="fill:#1770f2;"/><circle cx="448.9" cy="182.1" r="6" style="fill:none; stroke:#1770f2; stroke-miterlimit:10;"/><circle cx="1044.8" cy="810.4" r="8.9" style="fill:#1770f2;"/><circle cx="466.7" cy="778.4" r="9.9" style="fill:none; stroke:#1770f2; stroke-miterlimit:10;"/><circle cx="59.4" cy="876.8" r="6.9" style="fill:#b242e6;"/><circle cx="850" cy="174.1" r="5.5" style="fill:#b242e6;"/><circle cx="433.1" cy="54.2" r="7.8" style="fill:none; stroke:#b242e6; stroke-miterlimit:10;"/><circle cx="763.48" cy="683.13" r="7" style="fill:none; stroke:#b242e6; stroke-miterlimit:10;"/><path d="M43.6,831.3c1.4,0,2.5-1.1,2.5-2.5s-1.1-2.5-2.5-2.5-2.5,1.1-2.5,2.5,1.1,2.5,2.5,2.5Z" style="fill:#b242e6;"/><path d="M238.5,172.3c1.2-7,13.4,0,17.4-.7,3.2-.5,3.5-2.2,5.9-4l6.1-3.5c1.8,.7,3.5,1.4,5.2,2.2,.8,.3,1.6,.6,2.5,.8,5.4,.8,10.7-2.3,15.9,1.1,1.4,.9,2.6-1.3,1.3-2.2-4.8-3.1-6.7-3.1-11.9-2.8-12.7,.6-5,.3-10.3-.9-1.2-.5-2.5-.8-3.8-.9-1.2,0-2.5,.3-3.5,1-2,1.2-2.7,4.1-4.6,5.1-4.9,2.9-10-1.1-14.7-1.4-4.1-.3-7.1,1.5-7.8,5.6-.4,1.6,2.1,2.2,2.3,.6h0Z" style="fill:#b242e6;"/><path d="M266,181c6.7-10.9,12.7,3.4,19.5-1.4,3.2-2.1,.7-4.8,7.5-2.5,1.3,.4,2.5,1.9,3.8,2.4,2,1.1,4.5,1.1,6.5-.2,1.4-.8,.1-2.9-1.3-2.2-4.5,2.5-8.1-4.3-12.5-3.8-3.2,.4-1,.9-3.7,1.8-1.3,2.5-3.6,2.8-6.8,.8-.3-.3-.6-.5-1-.6-5.8-1.8-10.8-1.4-14.3,4.3-.8,1.5,1.4,2.8,2.3,1.4h0Z" style="fill:#b242e6;"/><path d="M556,162.8c-.4-7.1,7.9-2.3,10.8-2.7,2.2-.3,3.3-2.1,5-3.1,5.7-3.4,8.2-.5,13.2,.2,4,.6,9.3-4.4,12.9-.9,1.1,1.1,2.9-.6,1.8-1.8-3.5-3.5-5.8-1.1-10-.7-6,.6-11-4.3-16.5-1.1-3.2,1.8-5.4,4.4-9.7,4.2-2.5-.1-2.3-1.8-4.9-1.3-3.7,.7-5.2,3.9-5,7.3-.1,1.6,2.4,1.6,2.4-.1h0Z" style="fill:#b242e6;"/><path d="M582.3,169.1c.4-1.4,8.5-1.4,9.4-1.5,.3,0,.7,.6,1,.5,3-.1,5-1.7,8-2,6-.6,11.3,2.6,17.3,1.1,1.6-.4,.9-2.8-.7-2.4-5.4,1.3-9.8-1.6-15.1-1.8-4.2-.2-7.4,1.8-11.6,.6-4.8-1.4-9.3-.9-10.8,4.8-.2,.7,.2,1.4,.9,1.6,.7,.1,1.4-.3,1.6-.9h0Z" style="fill:#b242e6;"/><path d="M1020.6,229c4,.2,2.3,11.2,6.5,13.7,4.2,2.5,6.2,.7,8.4,7.2,1.6,4.5,2.1,9.9,3.1,14.6,.3,1.6,2.7,.9,2.4-.7-1.2-5.5-1.4-12.9-3.9-17.9-1.5-3-2.6-3.1-5.4-4.4l-2.4-.6c-2.3-1.9-3.5-4.9-3.1-7.9-.1-1.3-.5-2.5-.9-3.7-.9-1.8-2.7-2.9-4.7-2.9-1.8,.1-1.8,2.5,0,2.6h0Z" style="fill:#b242e6;"/><path d="M1042.3,231.9c-2.1,3.2-4.7,7.6-3,11.7,.8,1.5,1.9,2.7,3.3,3.6,4.2,3.4,6.7,6.9,7,12.4,.1,1.7,2.6,1.7,2.5,0-.1-3.6-1.3-7.1-3.3-10-1.1-1.3-2.4-2.5-3.7-3.7-4.6-4.6-3.6-8.1-.6-12.6,.9-1.4-1.3-2.6-2.2-1.3v-.1h0Z" style="fill:#b242e6;"/></g><g id="e"><path d="M712.5,727c-83.9,34.4-178,34.4-261.9,0v-234.5h261.9v234.5Z" style="fill:#fff; stroke:#000; stroke-miterlimit:10; stroke-width:2px;"/><path d="M712.5,492.1c.2,11.6-68.6,24.6-129.4,24.9-63.9,.4-134.8-13.1-134.7-24.9,.2-11.7,73.2-22.1,132.4-22.1,59.2,.1,131.6,10.3,131.7,22.1h0Z" style="fill:#fff; stroke:#000; stroke-miterlimit:10; stroke-width:2px;"/></g></g></g><g id="f"><path d="M921,746.8c5.3,6.3,10.6,12.6,16,18.9,4.8,52.6,9.1,78.9,13.1,78.8,4.2-.1,7.9-29.7,11.1-89-9-8.9-18.1-17.7-27.1-26.6-4.4,6-8.7,12-13.1,17.9h0Z"/><path d="M962.2,548.3c-18.8,7-34.2,12.1-44.9,15.5-16.2,5.1-32,11.3-48.3,16.1-7,2-14.2,4-22.5,9.6-5,3.3-13.5,9-18.2,19.4-5,10.9-3.2,21.2-1.6,29.9,2,11,5.8,19,15.9,36.6,11,19.2,16.5,28.8,26.3,43.1,8.4,12.2,19.7,27.4,34.2,44.2,4.4-1,9.5-2.7,14.7-5.6,19.2-11,25.6-31,27.3-37.2-5.4-7.5-10.9-15.9-16.2-25.1-10.6-18.2-18.2-35.5-23.7-50.8,13.4-8,27.6-16,42.5-23.8,21.2-11.2,41.8-21.1,61.5-29.8,1.6-1.5,20.6-19.3,16-32.4-4.6-12.8-30.5-20.6-63-9.7h0Z" style="fill:#fff;"/><path d="M1000.8,569.4c-19,11.7-38.2,23.6-57.5,35.8-19.2,12.1-38,24.2-56.6,36.3,4.2,7.9,8.4,15.9,12.6,24.2,13,25.9,24.1,51.2,33.7,75.5,3.7-7,7.3-14.1,11-21.2-7.3-12.5-14.7-26.3-21.9-41.2-6.3-13.1-11.7-25.7-16.4-37.7,11.4-5.6,22.9-11.2,34.3-16.8,20.9-10.3,41.8-20.6,62.5-30.9l-1.7-24h0Z" style="fill:#9e9e9e; isolation:isolate; opacity:.3;"/><path d="M948.5,552.6c-22,7.3-43.9,14.6-65.9,22-9.1,3-18.4,5.8-27.2,9.6-7.8,3.3-15.5,7.7-21.2,14-6.2,6.8-9.3,15.5-9.8,24.7-.5,10.2,2.2,20.3,6.1,29.6s9,18.9,14.1,28,10.3,18,16,26.7c11.2,17.5,23.6,34.2,37,50.1,1.7,2,3.3,3.9,5,5.8,.6,.7,1.7-.3,1.1-1.1-13.5-15.5-25.9-31.8-37.3-48.8-11.3-16.9-21.7-34.6-30.6-52.9-8.4-17.3-15.3-39.3-3.6-56.9,9.8-14.8,28.7-20,44.6-25.3,21.4-7.1,42.8-14.3,64.2-21.4,2.7-.9,5.4-1.8,8.1-2.7,.7-.3,.3-1.7-.6-1.4h0Z"/><path d="M988.4,600.6c-22.8,9.5-45.1,20.2-66.8,32-6.1,3.3-12.1,6.8-18.1,10.3-.8,.5-.1,1.8,.8,1.3,21.1-12.4,42.9-23.7,65.2-33.7,6.4-2.9,12.9-5.7,19.4-8.4,.8-.4,.4-1.9-.5-1.5h0Z"/><path d="M904.3,642.5c8.4,23.7,19.5,46.4,33,67.7,1.9,2.9,3.8,5.8,5.7,8.7,.6,.8,1.4,2.1,2.6,1.5,.8-.4,1-1.4,.4-2.1-.7-.7-1.7,.3-1.1,1.1-.2-.3-.5-1-.8-1.4-.2-.3-.4-.6-.6-.9-.3-.5-.7-1-1-1.5-.8-1.3-1.7-2.5-2.5-3.8-1.5-2.3-2.9-4.6-4.3-6.9-2.9-4.8-5.7-9.6-8.4-14.5-5.4-9.9-10.3-20-14.7-30.4-2.5-5.8-4.8-11.8-6.9-17.8-.3-1-1.7-.6-1.4,.3h0Z"/><path d="M903.1,763.1c8.2,.2,15.2-5.1,20.9-10.6,6-5.8,11-12.4,15-19.7,2.2-4.1,4.1-8.3,5.6-12.7,.3-.9-1.1-1.3-1.5-.4-2.6,7.5-6.2,14.5-10.8,20.9s-10.2,12.5-16.7,16.8c-3.7,2.5-8,4.2-12.5,4.1-.9,.1-.9,1.6,0,1.6h0Z"/><path d="M1008.8,678c13.7,5.6,27.4,11.3,41.2,16.9,11,60.5,14.6,91.2,10.7,92.2-3.6,.9-13.8-24.4-30.6-75.9-8.7-2.4-17.3-4.8-26-7.1,1.6-8.7,3.1-17.4,4.7-26.1h0Z"/><path d="M991.7,543.3c-24.8,14.8-45.8,24.7-60.8,31.2-16.7,7.2-27.4,13-48.7,24.5-6.7,3.6-15.2,8.3-23.5,17.5-5.5,6-12.2,13.6-14.2,25.5-.5,3-2.2,15.2,4.5,27.3,5.4,9.7,13.7,14.6,19.3,17.7,27.1,14.8,54.8,20.7,63.9,22.7,15.4,3.4,39,8.8,68.9,16.6,2.3-4,4.6-8.7,6.3-14.1,6.9-22.1,.1-42-3.4-50.3-18.4-5-36.8-10.1-55.2-15.1,18.4-9.6,33.9-15.8,45-19.8,13.3-4.7,25.2-8,37.6-19,4.7-4.2,9.2-8.3,12.5-15.2,2.4-5.1,3.9-11.4,1.9-36.6-.6-6.9-1.4-16-2.9-26.7-17.1,4.5-34.2,9.2-51.2,13.8h0Z" style="fill:#fff;"/><path d="M1025.7,545.8c-.9,7.2-3.2,18-9.8,28.9-11,17.8-26.8,24.2-50.8,37-40.6,21.5-61,32.2-61.3,41.5-.4,11,20.8,26.2,106.1,46.4,.8-5.2,1.7-15.4-2.7-26.5-1.9-4.9-4.4-8.8-6.6-11.7-17-4.6-34-9.2-51-13.8,14.9-8.3,27.5-13.7,36.2-17.2,2.1-.8,19.8-7.8,39-18.1,3.7-2,9.2-5,13.8-11.2,2.7-3.5,5.5-8.6,7.3-17.7,3.8-18.9,0-38-2.3-47.4-5.9,3.3-11.9,6.6-17.9,9.8h0Z" style="fill:#9e9e9e; isolation:isolate; opacity:.3;"/><path d="M1044.6,544.7c.3,10.7,.9,21.5,.9,32.2,0,5.1-.4,10.3-2.3,15.2-1.6,4.1-4.2,7.8-7.4,10.9-6.8,6.8-15.6,11.2-24.2,15.2-9.8,4.5-19.9,8.7-29.8,13.1-11.4,5-22.8,10-34.3,14.9-.9,.4-.1,1.7,.8,1.3,20.6-9,41.3-17.7,61.8-26.9,8.9-4,17.9-8.4,25.2-14.9,3.2-2.9,6.1-6.3,8.1-10.1,2.2-4.3,3.2-9,3.6-13.8,.4-6,0-12.1-.2-18.1-.2-6.3-.4-12.6-.6-19-.1-1-1.6-1-1.6,0h0Z"/><path d="M948.4,647.6c18.8,4.8,37.4,10.2,55.8,16.1,.9,.3,1.3-1.2,.4-1.5-18.5-5.9-37.1-11.2-55.8-16.1-.9-.1-1.3,1.3-.4,1.5h0Z"/><path d="M1003.4,663.1c7.1,15.4,8,33.3,3,49.4-1.5,4.6-3.4,9.1-5.8,13.3-.5,.8,.8,1.6,1.3,.8,8.6-15.1,11.2-33.4,7.5-50.3-1.1-4.8-2.7-9.5-4.7-13.9-.4-.9-1.7-.1-1.3,.7h0Z"/><path d="M967.3,558.3c-22.6,8.8-44.7,18.7-66.3,29.8-18.8,9.6-39.9,19.8-51.2,38.5-5.2,8.5-8.2,18.7-6.9,28.7,1.3,9.9,7,18.6,14.4,25.1,8.3,7.3,18.6,11.8,28.9,15.6,11.4,4.2,22.9,8,34.5,11.4,23.4,6.9,47.2,12.4,71,17.8,3,.7,6,1.3,8.9,2,.9,.2,1.3-1.2,.4-1.5-23.3-5.2-46.7-10.5-69.8-16.9-11.4-3.2-22.8-6.6-34-10.5-10.7-3.7-21.6-7.4-31.2-13.4-8.5-5.3-16.2-12.8-19.8-22.4s-2.3-20.2,1.8-29.5c8.8-19.7,28.6-30.6,46.9-40.2,21.1-11,42.7-21.1,64.8-30,2.7-1.1,5.3-2.1,8-3.2,.9-.2,.5-1.6-.4-1.3h0Z"/><path d="M948.2,385.4c-4.8,1.5-12.1,4.3-19.1,10.3-4.4,3.7-7.1,7.3-8.9,9.7-10.9,15.1-17.9,31.2-19,33.9-4.3,10-11.5,24-23.7,40.3-8.1-4-16.6-8.4-25.3-13.5-18.6-10.8-34.5-22.3-48-33.3-2.4-.4-5.6-.6-9.2-.3-5.3,.5-9.5,2-12.3,3.3-1.9-5.5-3.8-11-5.8-16.5,2.2-1.7,5.8-4.8,8.5-9.8,3.4-6.2,3.6-12,3.7-14.6,.1-2.5-.1-7.8-7.2-25-2.4-5.9-4.7-10.6-6.2-13.8-4.1-.1-9.7,.2-16.1,1.9-7,1.8-11.9,4.3-16.9,6.9-3.9,2-8.8,4.9-14.3,8.9,.6,3,1.6,7.3,3.3,12.3,1.6,4.7,4.1,12,9.6,19.7,3.8,5.4,6.4,9.1,11.2,12,8.2,5,17.1,4.2,21.1,3.6,2.1,5.8,4.2,11.6,6.4,17.4-.8,1.6-1.8,4.1-2,7.1-.3,3.9,.9,5.4,2.6,12.1,2.8,10.4,1.2,11.2,3.6,14.4,1.1,1.5,3.2,3.5,4.8,7.3,.5,1.2,.8,2.2,1,3,1.3-2.4,2.7-4.7,4-7,1.5,4.1,2.9,8.2,4.4,12.4,.4,1.3,.9,2.6,1.3,3.9-2.3,1.1-5.6,3-8.9,6.2-1.6,1.6-4.4,4.4-3.8,5.4,.4,.6,1.7,.4,14.7-4.3,6.2-2.2,9.5-3.5,13.3-6.3,1.8-1.3,3.1-2.5,4-3.4-1.2-.8-3.1-1.9-5.6-2.5-5.1-1.1-9.3,.7-10.8,1.4-2.8-7-5.6-14-8.3-21,3.7-.4,6.7-.3,8.7-.1,3.3,.3,5.3,.9,8,0,1.9-.7,3.2-1.8,4.1-2.7,2.4,2.1,6.1,5.1,10.5,8.9,13.3,11.1,20.2,16.9,28.6,23,5.4,3.9,13.3,9.4,23.3,15.2,2.5,.1,6.3,0,10.4-1.4,6.5-2.2,10.5-6.4,13.6-9.8,12.9-14.2,20.4-25.3,20.4-25.3,5.7-8.4,10.2-15,15.6-25,7.9-14.8,11.9-22.2,13.5-32.5,1.2-6.7,1.9-18-2.8-32.4h0Z" style="fill:#fff;"/><path d="M943,415.9c-3.9,12.5-11.1,31-24.3,50.7s-22.9,34.1-36.2,34.4c-6.7,.1-19-9.6-43.6-29.2-9.4-7.5-14.1-11.7-22.7-14.7-6.5-2.3-9.8-2.1-14.2-5.9-5-4.4-6.6-9.9-11.6-10.6-2.1-.3-4,.4-5.1,.9,3.5,8.7,7,17.5,10.4,26.2,2.5,.6,7,1.4,12.5,0,3-.8,5.4-2,7.1-3,3.4,3.1,6.8,6.1,10.4,9.2,17.5,14.9,35,27.3,51.9,37.7,3.5-.1,9-.8,14.7-3.8,2.2-1.2,4.7-2.8,9.4-7.4,7.4-7.2,12.2-13.6,13.6-15.4,7-9.4,11.6-17.1,15.7-23.9,20-33.4,22.8-39.5,20.2-42.9-1-1.2-3-2.6-8.2-2.3h0Z" style="fill:#9e9e9e; isolation:isolate; opacity:.24;"/><path d="M730.3,381.6c2.1,7.5,5,13.3,7.2,17.3,4.5,7.9,9.6,17,20,21.4,2.7,1.1,8.4,3.4,14.7,1.5,9.9-2.9,17.2-14.7,14.2-20.3-1.7-3.1-6.5-4.2-9.8-4.1-7.4,.3-9.2,6.7-17.3,7.5-1.7,.1-6.1,.5-9.5-2-6.9-5.3-1.6-17.4-7.5-21.7-1.8-1.4-5.2-2.2-12,.4h0Z" style="fill:#b242e6;"/><path d="M941.9,388.8c-13.4,2.4-21.8,14.2-28,25.4-7.5,13.6-14.8,27.3-22.2,41-4.2,7.7-8.3,15.4-12.5,23.2-.5,.9,.8,1.6,1.3,.8,7.3-13.5,14.6-27.1,22-40.6,3.6-6.7,7.2-13.3,10.8-20,3.3-6,6.6-12.1,11.2-17.3s10.8-9.6,17.9-10.9c.9-.4,.5-1.8-.5-1.6h0Z"/><path d="M803.6,433.4c17.6,14.3,36.5,27.1,56.3,38,5.6,3.1,11.3,6,17.1,8.9,.9,.4,1.6-.9,.8-1.3-20.3-9.9-39.7-21.5-57.9-34.8-5.2-3.8-10.3-7.8-15.3-11.8-.7-.7-1.7,.3-1,1h0Z"/><path d="M804.1,432.4c-8.6-2-17.8,.2-24.6,6-.2,.2-.3,.7-.1,.9,1.6,2.2,4.4,2.3,6.9,2.2,4-.2,8-.3,12-.5,1,0,1-1.5,0-1.5-3.4,.1-6.8,.3-10.1,.4-2.3,.1-6,.8-7.5-1.4l-.1,.9c6.3-5.4,15-7.5,23.1-5.6,.9,.3,1.3-1.2,.4-1.4h0Z"/><path d="M784.5,441.7c5.8,15.9,11.6,31.8,17.3,47.7,.3,.9,1.8,.5,1.5-.4-5.8-15.9-11.6-31.8-17.3-47.7-.4-.9-1.9-.5-1.5,.4h0Z"/><path d="M780,439.8c6.7,17.3,13,34.8,19,52.4,.3,.9,1.8,.5,1.5-.4-6-17.6-12.4-35-19-52.4-.4-.9-1.9-.5-1.5,.4h0Z"/><path d="M798.6,491.2c-4.3,2.5-8.2,5.9-11.2,9.9-.5,.7-1.3,1.5-1.2,2.5s1.2,1.1,2,1.1c2.7-.1,5.5-1.6,8-2.6,5.1-1.9,10.3-3.7,15.2-6.1,2.2-1.1,4.3-2.3,6.1-3.9,1.1-.9,4-3,2.8-4.8-.6-1-2-.9-3-1-1.7-.1-3.3-.1-5-.1-3.2,.2-6.4,.7-9.5,1.6-.9,.3-.5,1.7,.4,1.5,4.5-1.3,9.1-1.9,13.8-1.5,.5,0,1.5-.1,1.7,.4s-.3,.9-.7,1.3c-.7,.7-1.5,1.4-2.3,2-1.6,1.2-3.3,2.2-5,3-3.8,1.9-8,3.3-12,4.9-2.2,.9-4.5,1.7-6.7,2.6-1,.4-2,.8-3.1,1-.1,0-1.2,.2-1.2,.1,0-.3,.9-1.3,1.1-1.5,2.9-3.7,6.5-6.8,10.5-9.1,.9-.5,.2-1.8-.7-1.3h0Z"/><path d="M776.2,419.6c1.9,5.5,3.8,11,5.8,16.5,.3,.9,1.8,.5,1.5-.4-1.9-5.5-3.8-11-5.8-16.5-.4-.9-1.8-.5-1.5,.4h0Z"/><path d="M773.8,422c2.2,5.2,4.1,10.6,5.6,16,.3,.9,1.7,.5,1.5-.4-1.5-5.6-3.5-11-5.7-16.4-.5-.8-1.8-.1-1.4,.8h0Z"/><path d="M727.5,376.6c3.3,10.1,7.7,19.9,13,29.2,2.3,4,4.9,7.7,8.5,10.5,3.2,2.5,7,4.4,10.9,5.5,4.6,1.2,9.4,1.4,14,.4,.9-.2,.5-1.6-.4-1.5-8,1.7-16.5-.3-23-5.1-3.6-2.7-6.2-6.1-8.4-10-2.5-4.3-4.8-8.8-6.9-13.3-2.4-5.3-4.5-10.6-6.3-16.1-.3-.9-1.7-.5-1.4,.4h0Z"/><path d="M728.9,375.6c-.1-2,1.7-3.3,3.3-4.2,1.8-1.1,3.7-2.1,5.6-3.1,4-2.1,8.1-4,12.3-5.8s8.1-3.2,12.2-4.5,8.8-2.2,13.3-1.1c.9,.2,1.3-1.2,.4-1.5-4.6-1.2-9.4-.4-13.8,1s-9.1,3.1-13.5,5-8.9,4-13.3,6.4c-3,1.6-8.1,3.6-8,7.7,0,1.1,1.5,1.1,1.5,.1h0Z"/><path d="M775.8,356.9c3.7,8.5,7,17.1,9.9,25.9,1.4,4.3,2.6,8.7,2.8,13.3s-.8,8.4-3,12.2c-2.3,4-5.5,7.3-8.7,10.5-.7,.7,.4,1.8,1.1,1.1,5.8-6,11.6-12.3,12.2-21.1,.3-4.6-.7-9.3-2-13.7s-3-9.1-4.7-13.6c-1.9-5.1-4-10.2-6.2-15.2-.5-1-1.8-.3-1.4,.6h0Z"/><path d="M731,374.2c0,3.5,6.1,1.4,7.8,1,4-.9,7.9-2.1,11.7-3.5,7.7-2.8,15.1-6.6,21.9-11.2,.8-.5,0-1.8-.8-1.3-6,4-12.4,7.5-19.1,10.1-3.3,1.3-6.6,2.4-10,3.3-1.7,.5-3.4,.9-5.1,1.3-.5,.1-5.1,1.4-5.1,.2,.2-.9-1.4-.9-1.3,.1h0Z"/><path d="M778.6,441.3c-2.4,3.2-1.1,7.7,.4,11,.8,1.7,1.7,3.9,3.2,5.1,1.3,1,3.2,1.1,4.2-.4,.5-.8-.8-1.6-1.3-.8-.3,.5-1,.5-1.4,.3-.7-.3-1.2-1-1.6-1.6-.9-1.4-1.7-2.9-2.2-4.4-1-2.6-1.8-6,.1-8.4,.5-.9-.8-1.6-1.4-.8h0Z"/><path d="M778.1,452.5c.7,2.4,1.4,4.8,2.3,7.1,.8,2.1,1.6,4.2,2.8,6.1,.5,.9,1.2,1.7,1.9,2.5,.6,.7,1.4,1.4,2.4,1.4,.9,0,1.6-.7,2-1.5,.5-1,.2-2.2-.1-3.2-.3-.9-1.7-.5-1.5,.4,.2,.7,.7,2-.1,2.6s-1.6-.6-2-1c-1.1-1.2-2-2.8-2.7-4.3-1.5-3.4-2.7-6.9-3.7-10.5-.1-.9-1.6-.5-1.3,.4h0Z"/><path d="M780.4,461.6c.6,2.9,1.4,5.7,2.3,8.5,.4,1.3,.9,2.6,1.4,3.8s1,2.6,1.7,3.9c.4,.8,1.2,1.6,2.2,1.4s1.5-1.5,1.8-2.4c1-2.3,1.2-4.9,.6-7.4-.2-.9-1.7-.5-1.5,.4,.5,2,.3,4.1-.4,6-.2,.5-.4,1-.7,1.5-.1,.2-.2,.4-.3,.4-.2,0-.3-.3-.4-.4-.6-.9-1-2.1-1.4-3.1-1.7-4.2-3-8.5-3.9-12.9-.2-1-1.6-.6-1.4,.3h0Z"/><path d="M788.1,478.1c.1,1.2,.3,2.5,.8,3.6,.3,.9,1,3,2.5,2.3,.6-.3,.8-.9,1-1.5s.4-1.2,.6-1.9c.4-1.2,.6-2.5,.8-3.7,.1-.4-.1-.8-.5-.9s-.9,.1-.9,.5c-.2,1-.4,2-.7,3.1-.1,.5-.3,1-.5,1.5s-.4,1-.5,1.5v.1h.3l-.2-.3c-.2-.4-.4-.9-.5-1.3-.3-.9-.5-1.9-.6-2.9,0-.4-.3-.8-.8-.8-.5,0-.9,.4-.8,.7h0Z"/><path d="M795.4,468.5c1.6,.7,3.2-.1,4.8-.4,1.9-.4,3.8,.1,5.7,.4,3.3,.4,6.5-.3,9-2.6,.7-.7-.3-1.7-1.1-1.1-1.1,1-2.4,1.7-3.8,2.1-1.6,.4-3.3,.2-4.9,0-1.5-.2-3-.5-4.5-.3s-3.2,1.1-4.7,.5c-.9-.5-1.3,1-.5,1.4h0Z"/><path d="M814.6,465.1c15.8,13.3,31.6,26.8,48.5,38.7,4.6,3.2,9.3,6.3,14.4,8.6,.9,.4,1.6-.9,.8-1.3-9-4.1-17-10.3-24.9-16.3s-16.4-12.8-24.3-19.5c-4.5-3.7-9-7.5-13.4-11.3-.8-.6-1.9,.5-1.1,1.1h0Z"/><path d="M877.4,512.4c6.3,1.7,12.3-1.8,17.3-5.3s9.7-7.9,13.8-12.6c8.5-9.5,15.3-20.4,22-31.2,4.5-7.2,8.9-14.4,13.2-21.7,.5-.8-.8-1.6-1.3-.8-7,11.7-14,23.5-21.6,34.9-6.7,10.1-14.1,20-23.6,27.6-5.2,4.2-12.3,9.6-19.4,7.7-1-.3-1.4,1.1-.4,1.4h0Z"/><path d="M796.7,445.2c1.2,2.4,2.8,4.7,4.8,6.5,.7,.7,1.8-.4,1.1-1.1-1.9-1.8-3.4-3.9-4.5-6.2-.2-.4-.7-.5-1-.3-.6,.3-.6,.7-.4,1.1h0Z"/><path d="M948.6,384.4c-3.1,7.6-6.8,18.4-8.8,31.6-3.5,22.8-.4,40.4,.4,44.8,3.6,18.9,10.8,33.2,16.4,42.4l-3.3,44.7c16.7,1.3,36.1,1.7,57.6-.3,13-1.2,25.1-3,36-5.2-5.5-39.8-8-70.3-9.3-92.2-.9-15.2-1.9-37.2-16.2-57.7-3.8-5.4-9.3-13.1-19.2-17.6-24-11-50.7,7.4-53.6,9.5h0Z" style="fill:#b242e6;"/><path d="M1010.2,412.4c.1,24.9,.2,49.8,.3,74.7-2.6,4.6-6.1,10.4-10.7,16.7-1.6,2.2-6.8,9.3-15.3,18.2-6.9,7.2-16.8,16.7-30.3,26.4-1.7-1.4-4.1-2.8-7.1-3.6-11-2.7-20.3,6.4-21.2,7.3-3.6,1.5-7.7,3.6-12,6.3-4.7,2.9-12.7,7.3-12,9,.1,.3,.7,.7,2.4,.6-.3,.6-1,2.1-.5,3.4,.8,2,4.1,3.2,7.8,1.9-.2,.9-.6,2.6,.3,3.5,1.2,1.2,3.7,.6,5,.2,8-2.3,18.4-6.8,22.1-8.3,6-2.4,5.1-1.2,16.9-5.2,1-.3,7.8-2.7,13.6-5,13.2-5.5,23-12,30.6-17.2,8-5.4,16.4-11.2,25.9-20.9,3.9-4,6.9-7.6,9.1-10.2,.7-7.9,1.4-14.3,1.9-18.7,4.5-36.8,8.1-56.6,8.1-56.6,1-5.4,2-10.6,1.3-17.7-.5-5.1-1.5-14.4-8.5-21.9-2.3-2.5-6.1-6.5-12.1-7.2-9.1-1-15.8,6.5-16.5,7.4,.4,5.6,.6,11.3,.9,16.9h0Z" style="fill:#fff;"/><path d="M1039.5,395.6c.1,8.1,.1,20.3-.7,35-2,35.3-3.2,53.3-13,69.4-6.5,10.6-15,17.1-31.8,30-15.5,11.9-29.3,19.3-46.8,28.5-14.6,7.7-27.1,13.5-36,17.4,.9,.6,2.2,1.4,3.9,1.6,2.7,.4,4.8-.9,7.7-2.3,2.8-1.3,5.8-2.2,8.6-3.5,7.9-3.7,19-6.3,23-7.6,22.9-7.5,42.5-20.6,45.7-22.8,9.5-6.4,22.2-16.4,35-31.2,1.5-10.2,2.7-18.8,3.6-24.7,5.9-42.7,3.4-32.8,5.9-47,1.7-9.9,2.9-14.8,1.9-22.6-1.2-8.8-4.5-15.7-7-20.2h0Z" style="fill:#9e9e9e; isolation:isolate; opacity:.25;"/><path d="M1008.9,394.7c.8,24,1.1,48.1,1,72.1,0,6.8-.1,13.6-.2,20.4,0,1,1.5,1,1.5,0,.3-24,.3-48.1-.2-72.1-.1-6.8-.3-13.6-.5-20.4-.1-.9-1.6-1-1.6,0h0Z"/><path d="M1012.1,486.3c-3.9,4-6.9,8.8-10.1,13.4s-6.6,8.9-10.2,13.2c-7,8.4-14.8,16.2-23.1,23.4-4.8,4.1-9.7,8-14.8,11.6-.8,.6,0,1.9,.8,1.3,17.9-12.8,33.7-28.4,46.7-46.1,3.9-5.3,7.2-11,11.8-15.7,.6-.8-.4-1.8-1.1-1.1h0Z"/><path d="M954.8,548.2c-3.2-3.5-8.2-4.7-12.8-4.2-5.6,.6-10.6,3.4-15.5,6.1-.8,.5-.1,1.8,.8,1.3,4.5-2.5,9.1-5.3,14.3-5.9,4.3-.5,9,.5,12.1,3.8,.7,.6,1.7-.4,1.1-1.1h0Z"/><path d="M927.8,550.5c-6.7,3.1-13.2,6.6-19.4,10.4-1.5,1-3,1.9-4.5,2.9-1,.7-2.3,1.5-2.6,2.8-.7,2.7,2.6,3,4.4,2.7,1-.2,.5-1.6-.4-1.5-.8,.1-3.3,.2-2.3-1.3,.7-1.1,2.4-1.9,3.5-2.6,2.4-1.5,4.8-3,7.2-4.4,4.9-2.8,9.9-5.4,15-7.8,.8-.4,0-1.7-.9-1.2h0Z"/><path d="M923.3,558.7c-3.6,1.5-7.2,3-10.8,4.5-2.5,1-5,2.2-7,4.1-.9,.8-1.6,1.9-2.1,3-.2,.5-.5,1.2-.2,1.6s1,.8,1.4,1c1.4,.6,3.2,.5,4.7,.5,1.6,0,3.3-.2,4.9-.4,3.8-.6,7.5-2,10.8-4,.8-.5,.1-1.8-.8-1.3-3,1.8-6.3,3-9.8,3.7-1.7,.3-3.5,.5-5.2,.5-1.5,0-3.8,.2-4.9-1l.2,.7c.8-3.3,4-5.1,6.9-6.4,4-1.8,8.2-3.5,12.3-5.2,.9-.3,.5-1.7-.4-1.3h0Z"/><path d="M904.8,572.5c6.4-3.6,13.2-6.6,20.3-8.8,.9-.3,.5-1.7-.4-1.5-7.2,2.2-14.1,5.2-20.6,8.9-.9,.6-.1,1.9,.7,1.4h0Z"/><path d="M925.5,566.9c-4.1,1-8,2.7-11.5,5.1-1.2,.8-3.4,2-3.6,3.5-.2,1.7,2,2.5,3.3,2.6,2,.2,4-.5,5.9-1.2,2.3-.9,4.6-1.8,6.9-2.6,4.7-1.8,9.3-3.6,14-5.3,.9-.3,.5-1.8-.4-1.5-7.4,2.8-14.7,5.8-22.1,8.4-1.4,.5-3.9,1.4-5.4,.4-1.3-.9,.6-1.9,1.2-2.4s1.4-1,2.1-1.4c3.1-1.9,6.4-3.3,9.9-4.1,1.1-.3,.7-1.7-.3-1.5h0Z"/><path d="M941.8,569.5c13.5-3.9,26.6-9.1,39-15.7,12.5-6.6,24.2-14.4,35.1-23.4,6.1-5.1,11.9-10.5,17.4-16.2,.7-.7-.4-1.8-1.1-1.1-9.7,10.1-20.3,19.2-31.8,27.1-11.5,7.9-23.8,14.6-36.7,20-7.3,3-14.7,5.7-22.3,7.8-.9,.3-.5,1.8,.4,1.5h0Z"/><path d="M1015.6,391.1c6.7-4.3,15.8-2.3,21.3,3,6.1,5.8,8.5,14.5,8.8,22.6,.3,9.8-1.5,19.6-2.8,29.3-1.3,9.9-2.5,19.8-3.8,29.7-1.4,11.1-2.9,22.3-4.3,33.4-.1,1,1.4,1,1.5,0,2.7-20.8,5.3-41.6,8-62.4,.7-5.2,1.4-10.4,2-15.6s1.1-10.3,.8-15.5c-.4-8.1-2.9-16.6-8.9-22.5s-16-8.2-23.4-3.5c-.7,.7,0,2,.8,1.5h0Z"/><path d="M913,291.1c-2.2,6.7-5,17.5-4.9,30.8,.1,12,.3,40.6,18.2,49.5,11.9,5.9,26,.3,31.9-2.6,2.2,3.5,4.3,6.9,6.5,10.4,3.2-.3,8-1.2,13.4-3.4,3.6-1.5,21.9-9.4,28.5-29.4,3.1-9.3,5.7-27.7-3-34.8-3.9-3.2-10.5-4.5-11.2-9.3-.4-2.5,1.1-3.6,.7-5.8-1-5.2-11-7.4-13.5-7.9-18.7-4.1-57.9,1.3-66.6,2.5h0Z" style="fill:#fff;"/><path d="M967.6,308.3c2,2.9,5.2,8.5,5.9,16,.2,1.9,.7,9.7-4.2,19.6-9.2,18.6-28.2,25.7-27.2,27.6,.4,.7,3.6,.3,15.4-4.2,1.2,1.9,2.3,3.8,3.5,5.7,4.3-.3,10.9-1.2,18.1-4.6,18.4-8.6,25.1-25.7,26.6-30,2.6-7.4,5.3-14.8,2-21.2-4.8-9.4-21-13.6-40.1-8.9h0Z" style="fill:#9e9e9e; isolation:isolate; opacity:.29;"/><path d="M945.1,273.9c-2.3,12.8,1.7,20.4,3.4,23.2,8.3,13.5,29.9,20.8,41.6,17.1,1.4-.4,4.9-1.7,7.5,0,3.7,2.3,3.2,8.9,3.1,10-.1,1.6-.5,7.5-5.7,11.3-4.7,3.4-9.9,2.6-10.9,2.4-.4,2.4-1.2,5.2-2.5,8.1-4,8.9-10.8,13.9-14.4,16.1-1.2,3.9-.7,6.8-.2,8.5,2.4,8.2,13,14,26.5,13.8,12.3,7.9,27,9.1,36.3,2.7,13.3-9.2,16.7-35-.7-54.1-.2-9.7-2-28.1-14.1-45.7-6.7-9.8-18.7-27.3-38.3-27.9-16.5-.5-28.5,11.2-31.6,14.5h0Z" style="fill:#461eb8;"/><path d="M960.6,279.6c-5.8,5-14.4,11.5-26.2,16.5-8.4,3.6-16,5.4-22.2,6.5-1,4.4-2.1,10.8-1.8,18.4,.2,5.1,.6,15,6.1,25.9,2.5,4.9,7.8,15.5,19.6,21.5,3.3,1.7,6.2,2.5,8.3,3,3.8-1,7.7-2,11.5-3,3,3.6,5.9,7.3,8.9,10.9-1.9,3.1-5.7,8.4-12.3,12.3-14.2,8.4-32.8,4.2-44.4-4.7-6.3-4.9-9.8-10.6-11.7-14.2-12,5.4-18,4.3-21.1,2-13.6-9.9-1.5-58.4,25.9-89,7.3-8.2,24.6-27.4,49.3-27.6,6.8-.1,12.4,1.3,16.3,2.6l-6.2,18.9h0Z" style="fill:#461eb8;"/><path d="M912.1,299.7c-3,11.7-3.5,24.1-.6,35.9,2.5,10,7.7,19.4,15.1,26.6,4.1,4,8.9,7.2,14.2,9.5,.9,.4,1.6-.9,.8-1.3-9.1-3.9-16.7-10.8-21.9-19.1-5.8-9.4-8.6-20.3-8.7-31.3-.1-6.7,.8-13.3,2.5-19.8,.3-1.1-1.2-1.5-1.4-.5h0Z"/><path d="M942.1,372.4c14.8-1.3,28.7-9.3,37.3-21.4,2.6-3.7,4.9-7.8,5.2-12.4,.1-1-1.4-1-1.5,0-.2,4.1-2.3,7.7-4.5,11-2,2.9-4.3,5.5-6.8,7.9-5.1,4.8-11.3,8.5-18,10.9-3.8,1.3-7.7,2.2-11.7,2.5-1,.1-1,1.6,0,1.5h0Z"/><path d="M983.7,338.6c2.7,1.4,5.9,1.2,8.6-.1,2.9-1.4,5-4.1,6.5-6.9,2.8-5.3,5.1-13.5-.6-17.9-2.5-1.9-6.1-2-8.6,0-.7,.6,.3,1.7,1.1,1.1,2.7-2.3,6.6-.8,8.3,2,1.9,3.1,1.4,6.9,.2,10.2-1.1,3.1-2.7,6.3-5.2,8.5s-6.3,3.5-9.5,1.8c-.9-.4-1.7,.9-.8,1.3h0Z"/><path d="M957.6,369.2c1.7,3.8,3.9,7.4,6.6,10.5,.6,.7,1.7-.3,1.1-1.1-2.6-3.1-4.8-6.5-6.4-10.2-.2-.4-.7-.5-1-.3-.4,.3-.5,.8-.3,1.1h0Z"/><path d="M934.5,311.8c-1.3,10.6-1.4,21.4-.2,32.1,.1,.5,.6,1,1.1,.6,2.7-1.6,4.9-3.8,6.6-6.5,.5-.8-.8-1.6-1.3-.8-1.6,2.4-3.6,4.5-6.1,6l1.1,.6c-1.2-10.7-1.1-21.4,.2-32.1,.2-.9-1.3-.9-1.4,.1h0Z"/><path d="M936.9,351.9c3,3.1,7.7,2,10.8-.2,3.5-2.6,6.3-6.1,8.2-10.1,.4-.9-.9-1.6-1.3-.8-1.6,3.4-3.9,6.5-6.8,8.9-2.7,2.2-7,4-9.8,1.1-.7-.7-1.8,.4-1.1,1.1h0Z"/><path d="M920,307.5c.8-1.5,2.3-2.6,4-2.7s3.5,.8,4.4,2.2c.5,.8,1.8,0,1.3-.8-1.2-1.9-3.5-3.1-5.7-3s-4.3,1.4-5.3,3.4c-.4,1,.9,1.7,1.3,.9h0Z"/><path d="M942.1,305.3c1.4-1.3,3.2-2.9,5.2-2.9,1.9,.1,3.2,1.9,4.2,3.3,.5,.8,1.8,0,1.3-.8-1.3-1.9-2.8-3.8-5.3-4s-4.8,1.6-6.4,3.3c-.8,.7,.3,1.7,1,1.1h0Z"/><path d="M921.1,339.3c1,0,1-1.5,0-1.5s-1,1.5,0,1.5h0Z"/><path d="M927.3,337.7c1,0,1-1.5,0-1.5s-.9,1.5,0,1.5h0Z"/><path d="M925.2,343.4c1,0,1-1.5,0-1.5s-1,1.5,0,1.5h0Z"/><path d="M953.3,333.9c1,0,1-1.5,0-1.5s-1,1.5,0,1.5h0Z"/><path d="M959.5,330.3c1,0,1-1.5,0-1.5s-.9,1.5,0,1.5h0Z"/><path d="M958.5,335.5c1,0,1-1.5,0-1.5s-1,1.5,0,1.5h0Z"/><ellipse cx="923.1" cy="325" rx="2" ry="4.5"/><ellipse cx="948.4" cy="323.2" rx="2" ry="4.5"/><path d="M754.3,337.5c-3-15.3-4.6-30.8-4.5-46.3,0-.7-.6-1.3-1.3-1.3s-1.3,.6-1.3,1.3c0,15.8,1.5,31.5,4.6,47,.4,1.6,2.8,.9,2.5-.7h0Z" style="fill:#b242e6;"/><path d="M745.3,345c-10.8-10.2-20-22-27.1-35-.8-1.4-3-.1-2.2,1.3,7.2,13.2,16.5,25.2,27.5,35.5,1.2,1.1,3-.7,1.8-1.8h0Z" style="fill:#b242e6;"/><path d="M765.9,334.9l21.8-29.9c1-1.3-1.2-2.6-2.2-1.3l-21.8,29.9c-.9,1.4,1.2,2.6,2.2,1.3h0Z" style="fill:#b242e6;"/></g><g id="g"><path d="M194.69,750.9c-7.5-2-15-3.9-22.5-5.8-29,20.6-44.3,29.9-45.9,27.9-1.9-2.3,14.5-19.5,49.1-51.8,12,5.2,24,10.5,36,15.8-5.6,4.6-11.1,9.3-16.7,13.9h0Z"/><path d="M161.19,588.1c-2.5,5.8-.2,16.7,4.5,38.2,3.1,14.3,4.8,22.2,7.7,31,4.3,13.3,14.1,37.8,37.6,66-3.1,1.9-6.5,4.3-9.7,7.4-14.2,13.7-16.7,31.8-17.2,39.3,6.6,2.5,16.3,6,28.3,9.8,23.4,7.5,38.9,12.4,57.6,14.3,12.3,1.3,31,1.8,54.4-3.4,3.2-1.2,8.6-3.7,13.6-8.8,2-2,10.2-10.5,10.8-22.9,.3-6.5-2.1-11.8-6.9-22.1-4.3-9.3-7.4-13.6-13.2-23.4-9-15.2-8.5-16.5-15.6-28.6-7.1-12-13.1-20.2-21.1-31-10.3-13.8-14.9-18.6-33.7-41.1-31.4-37.4-32.4-40.4-40.2-43.2-21.3-7.2-49.9,2.1-56.9,18.5h0Z" style="fill:#fff;"/><path d="M162.59,585.5c-1.2,7-2.2,17.3-1.1,29.7,1.4,15,5.2,25,11.9,42.2,11.2,28.9,23.3,46.7,26,50.7,4.5,6.5,8.6,11.7,11.6,15.3-3.2,1.9-6.5,4.3-9.7,7.4-14.5,14-17.1,32.7-17.6,40.3,17.6,6.2,32.4,10.4,43.1,13.2,5,1.3,31.7,8.1,66.9,10.6,15.7,1.1,26.2,.9,35.6-5.8,1.7-1.2,10.8-7.6,12.3-16.5,3.4-19.7-32-41.1-41.3-47-30.9-19.4-75.8-57.6-137.7-140.1h0Z" style="fill:#9e9e9e; isolation:isolate; opacity:.19;"/><path d="M254.19,614.3c9.5,5.6,16.6,14.1,23.4,22.5,7.2,9,14.2,18.3,20.8,27.8,13.1,18.8,25,38.5,35.6,58.9,2.6,5.1,5.2,10.2,7.7,15.4s5.3,10.8,6,16.7-1.1,11.2-3.9,16.2c-2.5,4.6-5.6,9.3-9.5,12.9-2,1.9-4.3,3.4-6.9,4.4s-5.4,1.5-8.1,1.9c-6.2,.9-12.4,1.7-18.6,2.4-12.3,1.3-24.6,1.2-36.9-.7-11.9-1.9-23.6-5.1-35.2-8.6-11.9-3.6-23.9-7.3-35.8-11-3-.9-6-1.8-9-2.8-.9-.3-1.3,1.2-.4,1.5,12.4,3.8,24.9,7.6,37.3,11.5s23.8,7.2,35.9,9.7c12.3,2.4,24.7,3.4,37.2,2.5,6.3-.4,12.5-1.2,18.7-2,5.7-.8,11.8-1.1,17-3.6,4.7-2.2,8.2-6.2,11.1-10.4,3.1-4.4,6.1-9.3,7.6-14.5,3.3-11.5-3.2-22.5-8.1-32.4-10.4-21.4-22.2-41.9-35.4-61.5-6.5-9.7-13.4-19.2-20.5-28.4s-13.9-18.2-22.8-25.3c-2-1.6-4.2-3.1-6.4-4.5-.9-.4-1.7,.9-.8,1.4h0Z"/><path d="M184.69,770c1-8,2.2-16.2,5.3-23.7,1.5-3.7,3.6-7.3,6.3-10.3,3.1-3.4,7-5.9,10.9-8.4,.8-.5,.1-1.8-.8-1.3-3.1,2-6.3,4-9,6.5-2.4,2.2-4.5,4.8-6.1,7.6-3.3,5.6-5.1,12-6.3,18.3-.7,3.7-1.2,7.5-1.7,11.2-.2,1.1,1.3,1.1,1.4,.1h0Z"/><path d="M168.59,644.9c4.5,15.4,10.7,30.4,18.4,44.5s17,27.3,27.6,39.4c6,6.9,12.5,13.3,19.3,19.4,.7,.6,1.8-.4,1.1-1.1-12-10.6-22.8-22.5-32.2-35.5s-17.3-26.9-23.6-41.5c-3.6-8.3-6.7-16.9-9.2-25.6-.3-.9-1.7-.5-1.4,.4h0Z"/><path d="M129.49,707.3c-19.2-9-38.3-18.1-57.5-27.1-44.5,42.8-65.2,66.1-62.1,69.9,2.8,3.4,24.1-8.4,63.9-35.4,15.8,5.2,31.6,10.4,47.4,15.6,2.8-7.7,5.5-15.4,8.3-23Z"/><path d="M109.59,572c-.8,1.7-2,4.2-3.4,7.3-2.3,5.1-7,15.8-9.4,24.8,0,0-3.8,14.1-2.4,29.8,2.8,31,28.3,53,33.8,57.6-2.4,1.1-5.7,3.1-9.1,6.2-6,5.6-8.4,11.8-9.9,15.5-5.7,14.9-2.6,30-1.2,35.5,5.8,3.5,13.7,8.1,23.3,13.2,9,4.8,22.6,11.7,65.9,29.7,38.1,15.8,49.6,19.6,66.1,19.3,6.2-.1,11.3-.7,14.7-1.3,4.2-3.1,10.5-8.4,15.7-16.8,7-11.2,8.4-21.6,9-26.8,2-16.6-2.3-29.7-5.4-38.4-4.4-12.5-10-21.2-12.2-24.6-22.2-33.8-51.4-66.8-69.2-88.7-9-11.1-21.6-27.4-35.6-48.4-23.5,2.1-47.1,4.1-70.7,6.1h0Z" style="fill:#fff;"/><path d="M114.29,568.1c-.2,4.8-.2,12,1.1,20.7,4.9,30.8,22.7,52,33.9,64.3,58.1,64.2,100,71.4,117.1,118.8,5.8,16.2,6.4,30.5,6.3,38.5-7.8-.4-19.4-1.5-33.3-4.5-17.2-3.8-29.1-8.6-50.8-17.5-3.8-1.6-20-8.2-41.6-18.8-15.8-7.7-29.1-14.9-39.2-20.5-1.5-3.6-6.3-16.6-1.6-32.3,4.7-15.5,15.7-23.6,18.9-25.8-4.5-5.1-10.4-12.4-16.3-22-5.9-9.8-11.7-21.8-14-30.2-8.3-30.8,14.4-63.6,19.5-70.7h0Z" style="fill:#9e9e9e; isolation:isolate; opacity:.38;"/><path d="M105.49,578.9c-5.2,12-10.4,24.3-12.1,37.3-1.6,12.4,.6,24.7,5.5,36.1,10.3,24,30.6,41.8,49,59.5,11.5,11,22.9,22,34.4,33,.7,.7,1.8-.4,1.1-1.1-10-9.6-20.1-19.2-30.1-28.9-9.5-9.1-19.2-18.1-28.3-27.7-16.7-17.7-31.9-40-30.7-65.5,.7-14.8,6.7-28.7,12.4-42.1,.5-.7-.8-1.5-1.2-.6h0Z"/><path d="M123.19,693c-12.6,10.2-19.4,26.6-18.6,42.6,.2,4.6,1.1,9.1,2.6,13.4,.3,.9,1.8,.5,1.4-.4-5.2-14.9-2.4-32,6.5-44.9,2.5-3.6,5.6-6.9,9-9.7,.9-.6-.1-1.7-.9-1h0Z"/><path d="M218.39,620.2c10.4,12.5,20.7,25,31.1,37.5,9.7,11.7,19.6,23.3,28.5,35.7,16.3,22.9,29.5,51.7,22.8,80.3-3.2,13.7-10.8,26.5-22.6,34.4-.8,.5,0,1.8,.8,1.3,10.5-7,17.8-17.8,21.7-29.7,4.3-13.2,4.2-27.3,1-40.7-7-30-27.5-53.9-46.7-77-11.8-14.3-23.7-28.6-35.5-42.9-.6-.6-1.7,.4-1.1,1.1h0Z"/><path d="M107.49,749.5c20.6,12.1,42,23,64,32.5,21.9,9.5,44.3,17.6,67.2,24.4,12.7,3.8,26.4,7.6,39.6,4,.9-.2,.5-1.7-.4-1.5-11.9,3.2-24.2,.2-35.7-3.1-11.4-3.3-22.6-6.9-33.7-10.9-22.3-7.9-44.1-17.2-65.2-27.8-11.9-5.9-23.5-12.3-35-19-.9-.4-1.7,.9-.8,1.4h0Z"/><path d="M237.09,387.2c3.9,1.5,9.3,4.3,14,9.6,5.1,5.8,6.8,11.8,8.3,16.9,4.8,16.1-3.8-17.4,12.1,33.6,3.9,12.7,8.4,27.2,13.1,43.4,4.8-2.1,11.2-5.4,18.5-10,3.3-2.1,5.9-3.9,9.2-6.5,8.5-7,9.3-10.9,15.7-16,2.9-2.3,7.5-5.3,14.4-7.5,.7-4,1.5-8,2.2-12-1.9-.6-5.7-2.2-9-6.1-2.3-2.7-3.4-5.5-4-7.2,.6-5.7,1.6-12,3.2-18.8,2.9-12,7.1-22.1,11.1-30,1.5-.9,3.9-2.2,6.9-3,3.1-.8,8.3-1.5,22.1,3,11.2,3.7,16.8,5.5,18.6,9.4,1.3,2.7,.8,7.2-.3,16.2-.6,5.1-.9,7.6-1.8,10.8-1.7,6.1-4.3,10.3-8.2,16.8-3.2,5.3-4.8,7.9-6.2,9.1-6.7,5.9-17.1,4.7-23.1,3.4-2,4.2-4,8.5-5.9,12.7,1.6,1.9,3.8,5,5.4,9,1.7,4.3,1.9,7.7,2.3,14.2,.3,5.1,.6,11.2-.6,19.1-1.2,7.3-1.9,11.6-4.4,12.4-4.7,1.5-12.2-10.8-12.6-11.4-2.9,12.3-5.8,24.6-8.8,36.8,3.2,.8,8.6,2.5,13.7,6.8,2.5,2.1,4.4,4.3,5.7,6.2-33.3-2.3-50-4.7-50-7.3,0-1.7,7.5-3.5,22.5-5.4,2.9-12.3,5.9-24.5,8.8-36.8-8.6,7.9-15.1,14.9-19.5,19.8-6.6,7.5-11,11.8-19.8,20.3-1.8,1.7-5.6,5.3-11.6,7.7-2.5,1-6,2.3-10,1.9-4.9-.5-8.8-3.5-12.7-7.9-8-9.1-10.9-19.1-13.8-27.7-7.2-21.9-8-16.8-17.6-45.1-5.5-16.2-8.2-24.2-8.6-28.9-.5-9.1,.5-27.8,20.7-51.5h0Z" style="fill:#fff;"/><path d="M233.89,391.2c-3.8,4.7-8.4,11.4-12.3,20.3-3.7,8.5-5.4,16.2-6.3,22,1.2,5.1,3.2,12.6,6,21.7,4,12.9,5.4,14.9,14.3,38.8,3.9,10.4,8.5,20.4,12.3,30.9,2.5,6.9,4.5,12.8,10.4,17.4,1.4,1.1,7.4,5.6,15.3,5,4.8-.3,8.5-2.4,13-5.6,11.1-7.9,17.3-15.9,24-23.5,4.2-4.8,10.7-11.8,19.5-19.8,8.5-24.3,9.4-30.4,8.3-30.9-1.6-.7-6.6,11.1-18.5,25.2-10.2,12.1-20.9,24.8-34,25.1-13.2,.3-23.3-12-29.1-19.4-28.2-35.2-25.5-85-22.9-107.2h0Z" style="fill:#9e9e9e; isolation:isolate; opacity:.21;"/><path d="M331.89,422.7c2.9-1.5,7.5-3.3,13-2.9,12.2,1,17.9,12.4,23.1,10.2,4.9-2,1.3-12.8,8.1-20.7,4.5-5.2,11.5-6.8,17.1-7.3,0,1.9,0,4.8-.8,8.3-1.3,6.4-4,10.8-9.3,19.3-3.7,5.9-5.6,8.9-7.8,10.3-4.7,3.1-10,3.1-14.8,3.1-3.1,0-7.6,0-12.9-2-3.4-1.2-12.4-4.5-15-12.6-.7-2.2-.8-4.3-.7-5.7h0Z" style="fill:#b242e6;"/><path d="M239.49,389.1c6,1.5,10.1,6.2,13.1,11.3,3.6,6.1,6,12.9,8.5,19.4,5.7,14.9,10.6,30,15.2,45.2,2.6,8.6,5.1,17.3,7.6,25.9,.3,.9,1.7,.5,1.5-.4-4.6-15.8-9.2-31.6-14.4-47.3-2.6-7.9-5.3-15.6-8.3-23.4-2.5-6.6-5-13.4-8.5-19.6-3.2-5.7-7.8-11-14.3-12.6-1-.2-1.4,1.2-.4,1.5h0Z"/><path d="M214.59,433.8c4.5,17.7,9.9,35.1,16.2,52.2,3.1,8.5,6.5,16.9,10.1,25.2,1.8,4.2,3.7,8.3,5.6,12.4,1.9,4.1,3.6,7.9,5.8,11.7,4.2,7.4,11.5,14.7,20.7,13.5,1-.1,1-1.6,0-1.5-8.5,1-15.1-5.5-19.1-12.2-2.1-3.6-3.8-7.4-5.6-11.2-1.9-4-3.7-8.1-5.5-12.2-7.1-16.2-13.3-32.8-18.6-49.7-3-9.5-5.7-19-8.2-28.7-.2-.8-1.7-.4-1.4,.5h0Z"/><path d="M272.99,501.7c8.6-11,22.6-15.1,33.8-22.5,6.5-4.3,11.4-10.1,16.7-15.7s11.5-11.1,19.4-12.3c1.3-.2,5-.6,5.1,1.5,0,1.1-1,2.2-1.6,3s-1.3,1.7-2,2.5c-2.8,3.3-6.2,6-10,8-.9,.5-.1,1.8,.8,1.3,3.5-1.9,6.7-4.3,9.4-7.2,1.3-1.4,2.6-3,3.6-4.6,.9-1.3,1.9-3,1-4.6-1.7-2.8-6.5-1.7-9-1-3.8,1-7.3,3-10.5,5.5-7,5.4-12,12.8-18.6,18.5-5.8,4.9-12.7,8.2-19.3,11.7-7.3,3.9-14.6,8.1-19.8,14.7-.7,.9,.4,2,1,1.2h0Z"/><path d="M351.59,463.5c-3.9,3.3-7.4,7.1-10.3,11.4-1.4,2.1-2.7,4.3-3.9,6.5s-2.2,4.5-1.8,7c.3,1.8,1.7,3.6,3.5,4,2.2,.5,4-1.3,5.4-2.7,3.4-3.6,6.2-7.8,8.1-12.4,1.1-2.5,1.9-5.1,2.5-7.8,.4-2.2,.5-4.5-1.2-6.2-.7-.7-1.8,.4-1.1,1.1,1.5,1.4,1.1,3.7,.7,5.5-.4,2-1,3.9-1.8,5.7-1.5,3.9-3.7,7.6-6.4,10.9-1.2,1.5-2.9,3.8-4.8,4.4-2.4,.8-3.7-2.2-3.5-4.1,.2-2.2,1.5-4.3,2.6-6.2s2.1-3.6,3.4-5.4c2.8-3.9,6-7.4,9.7-10.5,.7-.8-.4-1.9-1.1-1.2h0Z"/><path d="M354.49,472.7c.8,3.3,.5,6.8-.3,10.1-.6,2.8-1.4,5.7-2.5,8.4-.9,2.2-2.5,4.6-5,5-1.9,.3-4.5-.5-4.7-2.8-.1-1-1.6-1-1.5,0,.2,2.4,2.2,3.9,4.5,4.2,2.9,.4,5.2-1.1,6.8-3.5,1.9-2.9,2.7-6.6,3.5-9.9,1-3.9,1.5-8,.6-12-.2-.8-1.7-.4-1.4,.5h0Z"/><path d="M354.69,482.5c1.2,3.8,1.3,7.9,.4,11.7-.4,1.7-.9,3.7-2.1,5-.8,.9-3,1.7-3.6,.1-.4-.9-1.8-.5-1.5,.4,.7,1.6,2.5,2.3,4.1,1.9,2-.6,3.1-2.7,3.8-4.5,1.8-4.8,1.8-10.2,.3-15-.3-.9-1.7-.5-1.4,.4h0Z"/><path d="M355.09,494.8c0,3.1-.5,6.1-1.5,9-.5,1.4-1,2.8-1.9,4-.3,.5-.8,1.1-1.4,1.1-.4,0-1-.4-.9-.8,.3-.9-1.1-1.3-1.5-.4-.5,1.5,1,2.8,2.5,2.7,1.8-.1,2.8-2.1,3.5-3.5,1.8-3.8,2.7-7.9,2.7-12,0-1.1-1.6-1.1-1.5-.1h0Z"/><path d="M338.49,463.8c-4.2,18.2-8.3,36.5-12.5,54.7l-3.5,15.5c-.2,.9,1.2,1.3,1.5,.4,4.2-18.2,8.3-36.5,12.5-54.7l3.5-15.5c.2-1-1.3-1.4-1.5-.4h0Z"/><path d="M339.59,489c-4,15.2-7.6,30.4-11,45.7-.2,.9,1.2,1.3,1.5,.4,3.4-15.3,7.1-30.5,11-45.7,.2-.9-1.2-1.3-1.5-.4h0Z"/><path d="M322.99,535c-4.9-.3-9.9-.6-14.9,.3-2.3,.4-4.5,1.1-6.6,2.1-1.4,.7-4.2,2-3.5,4,.7,1.9,3.6,1.9,5.2,2.2,2.9,.5,5.8,.9,8.7,1.3,5.6,.8,11.3,1.5,17,2.1,6.6,.7,13.2,1.3,19.8,1.8,.6,0,1-.7,.6-1.1-4.5-6.9-12-11.3-20.1-12-1-.1-1,1.4,0,1.5,7.6,.6,14.7,4.8,18.9,11.2l.6-1.1c-10.2-.8-20.4-1.8-30.5-3.1-5.1-.7-10.2-1.4-15.3-2.2-.8-.1-2.4-.1-3-.7-1.1-1,1.1-1.9,1.9-2.3,1.9-1,4-1.7,6.2-2.1,5-1,10.1-.7,15.1-.3,.9-.1,.9-1.6-.1-1.6h0Z"/><path d="M352.09,441.6c-3.5,10.2-6.9,20.5-10.3,30.7-.3,.9,1.1,1.3,1.5,.4,3.5-10.2,6.9-20.5,10.3-30.7,.3-1-1.1-1.3-1.5-.4h0Z"/><path d="M353.69,442.8c7.5,1.1,16.4,2.2,22.8-2.7,3.5-2.7,5.6-6.8,7.7-10.7,2.4-4.4,4.6-9,6.7-13.5,1.1-2.4,2.2-4.8,3.1-7.3,.8-2,1.4-4.2,.1-6.1-.5-.8-1.8,0-1.3,.8,1.2,1.7,.2,3.9-.5,5.6-.9,2.2-1.9,4.4-2.8,6.5-1.9,4.1-3.8,8.1-6,12.1-1.9,3.6-3.8,7.6-6.8,10.5-2.7,2.6-6.4,3.8-10,4.1-4.2,.4-8.5-.1-12.6-.7-.9-.2-1.4,1.3-.4,1.4h0Z"/><path d="M344.49,439c-.8,3.1-1.5,6.2-2.2,9.3-.2,.9,1.2,1.3,1.5,.4,.8-3.1,1.5-6.2,2.2-9.3,.2-.9-1.3-1.3-1.5-.4h0Z"/><path d="M340.69,384.6c-3.1,8.6-5.7,17.4-7.6,26.4-.9,4.3-2.1,8.8-2.2,13.2-.1,3.5,1.2,6.7,3.7,9.2,2.7,2.7,6.3,4.4,9.9,5.8,.9,.4,1.3-1.1,.4-1.5-3-1.2-6.1-2.7-8.5-4.8-2.8-2.5-4.1-5.7-3.9-9.4,.2-4.2,1.3-8.5,2.2-12.5s1.9-8.2,3.1-12.3c1.3-4.6,2.8-9.1,4.4-13.6,.2-1-1.2-1.4-1.5-.5h0Z"/><path d="M341.89,386.3c1.2-4.2,2.8-9.2,7.1-11.3,2.4-1.1,5.3-1.1,8-1s5.4,.3,8.1,.7c5.2,.8,10.3,2.3,15.1,4.5s9.5,4.8,13.2,8.3c2.3,2.2,3.4,5,3.2,8.1s-1.5,6.2-2.7,9.1c-.4,.9,.9,1.6,1.3,.8,2.1-5,4.5-11.1,1.5-16.2-1.4-2.4-3.6-4.1-5.8-5.7-2.4-1.7-5-3.3-7.6-4.6-5.1-2.6-10.6-4.4-16.2-5.5-2.9-.5-5.8-.9-8.6-1s-5.9-.2-8.6,.7c-5.5,1.8-7.6,7.6-9.1,12.7-.6,.9,.9,1.3,1.1,.4h0Z"/><path d="M352.39,376.7c-3,1.1-2.2,4.9-.1,6.4,1.6,1.1,3.7,1.6,5.5,2.2,2.4,.8,4.9,1.6,7.3,2.4,4.7,1.6,9.4,3.1,14.1,4.7,2.4,.8,4.7,1.6,7,2.4,1.6,.5,3.3,1.1,4.7-.1,.7-.6-.3-1.7-1.1-1.1-1.2,1-4.1-.5-5.3-1-1.7-.6-3.4-1.1-5.2-1.7-3.7-1.2-7.4-2.5-11-3.7s-7.2-2.4-10.8-3.6c-1.5-.5-3.3-.9-4.6-2-.9-.8-1.8-2.9-.2-3.5,1-.2,.6-1.7-.3-1.4h0Z"/><path d="M273.59,548c8.9-.1,15.5-7.4,21.4-13.1,7.3-7.1,14.4-14.4,21.4-21.8,4-4.2,7.9-8.5,11.8-12.9,.6-.7-.4-1.8-1.1-1.1-6.6,7.4-13.3,14.6-20.2,21.7-3.4,3.5-6.9,7-10.4,10.5-3.3,3.2-6.5,6.5-10,9.5s-8,5.7-12.9,5.7c-1,0-1,1.5,0,1.5h0Z"/><path d="M338.59,498.8c1.9,4.8,5.6,8.5,10.4,10.4,.4,.1,.8-.2,.9-.5,.1-.4-.1-.8-.5-.9-4.2-1.6-7.7-5.1-9.3-9.3-.1-.4-.5-.6-.9-.5-.5,0-.8,.5-.6,.8h0Z"/><path d="M121.79,371.6c10.2-4.5,25.2-9.6,43.9-10.9,35.4-2.4,62.3,10.6,74.1,17.3,5.5,12.4,10.4,26.4,14,42,16.9,74.2-8.3,138.4-23.1,168.7-19.8,1.3-44.8,1-73.2-4.1-18.9-3.4-35.5-8.2-49.4-13.2,4.5-66.6,9.1-133.2,13.7-199.8h0Z" style="fill:#461eb8;"/><path d="M129.49,369.6c-2.9,1.1-7.1,3.1-10.9,6.9-8.2,8.3-8.8,19.7-9.2,25.2-2.6,40.6-7.3,34.7-6.4,63.3,.5,17.7,3.1,43,12,72.4,3.1,2.8,8.4,7.3,15.2,12.6,2.2,1.7,36.4,27.9,69.6,41.9,3.2,1.4,12.1,5,23.4,11.3,5.8,3.2,9.6,5.7,11.8,7,18.9,11.8,46.7,23.5,48.8,20.2,.7-1.2-1.4-4.7-14.3-15.5,2.4,1.7,23.9,16.5,30.7,10.6,1.6-1.4,2.6-4.2,2.1-6.6-.8-4-5.6-7.2-12.3-7.8,14.5-.8,15.7-3.2,15.8-4,.4-3.1-10.6-7.2-16.6-9-10.2-3-19.1-2.9-24.7-2.5,6.8-3.4,10-5.8,9.6-7.4-.6-2.5-10.2-2.8-28.8-1-14.4-9.4-25-18.7-32.2-25.5-12.6-12-18.9-18-25.5-28-4.9-7.4-9.9-16.8-21.3-26.1-2.7-2.2-5.1-3.8-6.7-4.9-3.9-25.3-5.3-45-5.9-58.6-.5-10.4-1.2-16.4-2.6-28.2-2.3-19-4.3-26.8-9.4-34.3-4.1-5.8-8.9-9.7-12.2-12h0Z" style="fill:#fff;"/><path d="M133.49,372.7c-3.5,9.4-7.7,22.8-10,39.1-1.8,12.9-6.1,45.1,6.2,79.9,2.1,6,10.7,29,42.1,61.8,19.7,20.5,55.4,52.4,112.2,76.9-9.9-2.3-21.9-6-34.8-12.3-8.3-4-15.5-8.3-21.5-12.5-13.1-5.5-26.9-12.1-41.2-20-28.5-15.6-52.2-32.6-71.4-48.4-5.4-16.4-8.3-30.3-10-40,0,0-8.4-49,5.7-102.1,3.2-12.2,7.7-24.5,15-25.4,3.1-.2,5.8,1.5,7.7,3h0Z" style="fill:#9e9e9e; isolation:isolate; opacity:.31;"/><path d="M125.49,369.2c-8.2,5.1-12.3,14.3-14.7,23.3-1.4,5.1-2.3,10.4-3.2,15.6-1,5.9-1.9,11.8-2.7,17.8-3.1,24-3.8,48.5-.4,72.5,1.9,13.4,5.1,26.6,9.9,39.3,.3,.9,1.8,.5,1.4-.4-8.3-22.3-11.8-46.1-12-69.8-.1-11.9,.6-23.7,1.9-35.5s2.9-23,5.3-34.3c2.2-10.2,5.8-21.4,15.2-27.2,.9-.5,.1-1.8-.7-1.3h0Z"/><path d="M135.19,375.3c11,10.1,13.5,25.8,14.9,39.9,1.9,18.5,3.4,37,5.1,55.5,1,10.7,1.9,21.4,2.9,32.1,.1,1,1.6,1,1.5,0-1.8-19.3-3.5-38.7-5.3-58-.9-9.4-1.7-18.9-2.6-28.3-.7-7.3-1.6-14.6-3.6-21.7-2.2-7.7-5.9-15.1-11.9-20.6-.6-.6-1.7,.4-1,1.1h0Z"/><path d="M152.19,503c3.9-2.5,8.4,.4,11.3,3,3.1,2.8,5.8,6.2,8.5,9.4,5.5,6.4,10.8,13,16.2,19.5,10.7,12.9,21.7,25.8,34.5,36.6,7.1,6,14.8,11.3,23.1,15.5,.9,.4,1.6-.9,.8-1.3-15.4-7.8-28.4-19.3-40.1-31.9-11.8-12.7-22.4-26.5-33.6-39.7-3.1-3.6-6.1-7.6-9.9-10.5-3.3-2.5-7.8-4.5-11.6-2-.8,.6,0,1.9,.8,1.4h0Z"/><path d="M114.59,537.9c13,11.8,27.3,22.2,42.3,31.5s30.8,17.5,46.6,25.3c9,4.4,18.1,8.7,27.2,12.9,.9,.4,1.6-.9,.8-1.3-16-7.5-31.9-15-47.5-23.3-15.5-8.2-30.7-17.2-45-27.4-8.1-5.8-15.9-12.1-23.3-18.8-.8-.7-1.9,.4-1.1,1.1h0Z"/><path d="M245.79,588c7.4-.2,14.8-.3,22.2-.5,1.4,0,3-.3,4.4,.2,2,.7,.8,2.5-.6,3.2-2.1,1-4.8,.7-6.1,3.1-.5,.8,.8,1.6,1.3,.8,.8-1.4,2.5-1.6,3.9-2,1.3-.3,2.6-.9,3.4-2,.8-1,.9-2.3,.2-3.3s-2-1.3-3.2-1.4c-1.9-.2-3.9,0-5.8,.1l-6.5,.1c-4.4,.1-8.8,.2-13.2,.3-.9-.1-1,1.4,0,1.4h0Z"/><path d="M230.79,608.4c9.3,6.2,19.2,11.5,29.6,15.7,5.2,2.1,10.4,3.9,15.8,5.5,1.3,.4,2.6,.7,3.9,1.1,1.1,.3,2.5,.9,3.7,.7,1.9-.3,2.5-2.4,1.8-4-.5-1.1-1.5-1.9-2.4-2.7-1.3-1-2.6-2-3.9-3-2.8-2.2-5.6-4.3-8.5-6.5-.8-.6-1.5,.7-.8,1.3,4.2,3.3,8.6,6.4,12.8,9.8,.8,.6,1.8,1.6,1.5,2.7-.4,1.5-3,.4-4,.1-2.3-.6-4.6-1.3-6.8-2-9.5-3-18.7-6.8-27.5-11.5-4.9-2.6-9.7-5.5-14.3-8.6-.9-.5-1.7,.8-.9,1.4h0Z"/><path d="M265.69,596.2c9.9,.6,19.7,2.3,29.2,5.2,2.1,.6,4.2,1.2,6.2,2.2,.9,.4,1.8,.9,2.5,1.5,.6,.5,1.7,1.5,1.7,2.4,0,1.1-2.1,1.1-3,1.2-1.4,.2-2.7,.3-4.1,.3-2.6,.1-5.3-.2-7.9-.7-.9-.2-1.4,1.3-.4,1.5,4.4,.8,8.8,.9,13.2,.2,1.4-.2,3.7-.3,3.6-2.2,0-1.4-1.1-2.9-2.2-3.8-2.8-2.4-6.8-3.3-10.2-4.3-4.4-1.3-8.9-2.4-13.4-3.2-5-.9-10.2-1.5-15.3-1.8-.8-.1-.8,1.4,.1,1.5h0Z"/><path d="M270.29,617.3c7.3,4.2,15.3,7.2,23.6,8.9,3.4,.7,7.9,1.2,9.9-2.4,1.7-3.1-1.5-6.6-3.6-8.7-2.9-2.9-6.6-4.9-10.5-5.9-.9-.2-1.3,1.2-.4,1.5,3.9,1,7.5,3,10.3,5.9,1.2,1.3,3.4,3.5,3.2,5.5-.2,2.7-3.6,3.3-5.8,3.1-4.5-.4-9.1-1.8-13.3-3.3s-8.6-3.5-12.6-5.8c-.9-.6-1.6,.7-.8,1.2h0Z"/><path d="M270.49,609c10.9,2.6,21.3,7.5,30.2,14.4,.8,.6,1.8-.5,1.1-1.1-9.1-7-19.6-12.1-30.8-14.8-1-.2-1.4,1.2-.5,1.5h0Z"/><path d="M189.29,306.7c-.8-.2-5.2-1.3-9.4,1.4-.4,.2-5.7,3.8-5.4,10,.2,4.4,3.1,8.2,7.4,9.8-3.7,8.1-7.5,16.3-11.2,24.5,1.3,3,3.3,7.2,6.2,11.7,3.8,5.8,11.7,17.5,26.6,24.4,15.2,7,29.3,5.2,35.1,4.2,3.4-6.2,19.2-35.9,23.1-64.8,.4-3.1,1.8-14.2,.6-28.7-.9-11-1.4-16.5-4-19-10.8-10.9-54.9,17.2-69,26.5h0Z" style="fill:#fff;"/><path d="M188.99,308.9c-.7,.2-5.3,1.5-6.8,5.6-1.7,4.5,1,10.7,7.1,13.6-3,6-4,11.4-4.3,15.5-2,27.2,25,46.3,27.7,48.1-5.2-1.7-12-4.5-18.9-9.5-14-10.1-20.4-23.2-23.1-29.8,3.6-7.7,7.2-15.3,10.8-23-1.2-.8-4.9-3.4-6.3-8.4-.3-1-1.1-3.9-.1-7.2,.4-1.3,1.9-6.5,6.4-7.5,3.9-.9,7.2,2.2,7.5,2.6h0Z" style="fill:#9e9e9e; isolation:isolate; opacity:.24;"/><path d="M245.69,297.4c-1.6,10.5-3.2,20.9-4.9,31.4,2.7,1.9,5.5,3.8,8.2,5.7-1.1-12.4-2.2-24.8-3.3-37.1h0Z" style="fill:#9e9e9e; isolation:isolate; opacity:.24;"/><path d="M261.39,293c.5,12.3,.3,24.7-.6,37-.1,1,1.4,1,1.5,0,.8-12.3,1-24.7,.6-37-.1-.9-1.6-.9-1.5,0h0Z"/><path d="M246.49,297.9c.6,12.2,1.2,24.4,1.8,36.6l1.1-.6c-2.7-1.5-5.3-3.1-7.9-4.7-.8-.5-1.6,.8-.8,1.3,2.6,1.6,5.2,3.2,7.9,4.7,.5,.3,1.2-.1,1.1-.6-.6-12.2-1.2-24.4-1.8-36.6,0-1.1-1.5-1.1-1.4-.1h0Z"/><path d="M202.29,293.3c.6,8.5,2.9,16.7,6.9,24.2,3.7,6.9,8.9,13.2,17.1,14.3,4.7,.6,9.4-.3,14-1.3,.9-.2,.5-1.7-.4-1.5-7.6,1.8-16,2.8-22.3-2.8-2.8-2.5-4.8-5.6-6.6-8.8-1.9-3.4-3.5-7.1-4.7-10.9-1.4-4.3-2.2-8.8-2.5-13.3,0-.8-1.5-.8-1.5,.1h0Z"/><path d="M250.19,332.8c3.1-1.5,6.5-2.1,9.9-2,1,0,1-1.5,0-1.5-3.7-.1-7.4,.6-10.7,2.2-.8,.4,0,1.7,.8,1.3h0Z"/><path d="M223.89,298.7c2.4-3.8,7.8-4.6,11.2-1.6,.7,.6,1.8-.4,1.1-1.1-2-1.8-4.7-2.6-7.4-2.2-2.5,.4-4.8,2-6.1,4.1-.6,.9,.7,1.7,1.2,.8h0Z"/><path d="M251.89,298.4c1.8-1.8,5.3-1.5,6.8,.7,.5,.8,1.8,0,1.3-.8-2-3-6.6-3.5-9.1-1-.7,.8,.3,1.8,1,1.1h0Z"/><path d="M189.39,308.2c-4.8-3.2-11.4-1.7-14.4,3.2-1.4,2.4-1.8,5.2-1.1,7.9,.8,2.9,2.4,6.2,4.7,8.2,2.6,2.2,6.1,2.6,9.3,2.3,.9-.1,1-1.6,0-1.5-3.2,.3-6.7-.1-9-2.6-1.2-1.3-2-3-2.7-4.5s-1.2-3.2-1.1-4.9c.1-3,1.9-5.9,4.5-7.3,2.8-1.5,6.4-1.2,9,.5,.9,.6,1.6-.7,.8-1.3h0Z"/><path d="M181.09,327.7c-3.1,8.6-6.8,17-11,25-.4,.9,.9,1.6,1.3,.8,4.3-8.2,8.1-16.7,11.2-25.4,.3-.9-1.2-1.3-1.5-.4h0Z"/><path d="M169.89,352.5c6.2,14.7,17.2,27.2,31,35.2,3.9,2.2,7.9,4.1,12.1,5.6,.9,.3,1.3-1.1,.4-1.5-14.6-5.2-27.3-15.3-35.9-28.2-2.4-3.7-4.5-7.6-6.2-11.6-.3-.7-1.8-.4-1.4,.5h0Z"/><path d="M189.09,304.4c.3,16,.9,32.1,4.5,47.8,3,13.3,8.4,26.1,16.9,36.8,4.6,5.8,10.1,10.9,16.5,14.7,.8,.5,1.6-.8,.8-1.3-11.2-6.9-19.6-17.5-25.3-29.2-6.4-13.2-9.3-27.9-10.6-42.4-.8-8.8-1-17.6-1.2-26.5-.1-.9-1.6-.9-1.6,.1h0Z"/><path d="M261.89,330.3c5.1,5.7,7,14,4.9,21.3-1.1,3.7-3.9,7.1-3.4,11.1,.3,2,1.3,3.7,2.3,5.4,1.1,1.8,2,3.6,2.7,5.6,2.8,7.7,2.6,16.7-1.4,24-3.6,6.5-10,11.4-17.3,12.7-8.2,1.5-17.3-2-22.1-8.9-.6-.8-1.9,0-1.3,.8,4.4,6.3,11.8,9.9,19.4,10s15.2-4,20-10c5.2-6.5,7-15,5.7-23.1-.7-4.4-2.4-8.3-4.6-12.2-1.3-2.2-2.4-4.5-1.7-7.2,.6-2.1,1.8-4,2.5-6.1,3.2-8.2,1.2-18-4.7-24.5-.6-.7-1.6,.4-1,1.1h0Z"/><ellipse cx="232.49" cy="313.4" rx="2" ry="7"/><ellipse cx="255.19" cy="313.4" rx="2" ry="7"/><path d="M188.69,301.7c.3,2.9,.9,7.5,1.4,13.1,2.8,26.2,2.5,29.5,4.1,36.9,3.2,15.4,9.7,26.5,12,30.3,5.6,9.1,13.7,22.2,29,27,3.9,1.2,11.9,3.8,20.7,.2,8.2-3.3,15.4-11.3,16.2-20,.4-4.1-.5-9.4-2.4-14-1.2-2.8-1.9-3.5-2.7-6.3-.7-2.4-.9-5.3-.4-11.9,.5-6.4,1.8-8.1,1.7-11.9,0-3.6-1.3-8.8-6.9-15-3.9,.2-7.8,.5-11.7,.8-.3,1.2-.7,2.4-1,3.6-2.9-1.6-5.8-3.1-8.7-4.7-3.7,.7-12.1,1.7-20.1-2.8-10.2-5.8-13.4-16.8-14.4-19.9-2.9-9.7-.5-16.1-3.2-17.2-1.6-.9-5.2,.6-13.6,11.8h0Z"/><path d="M175.59,311.9c-3.2-5.1-8-14.5-6.7-25.8,2.6-22.2,27.4-39.9,51.4-38.9,28.9,1.2,43.8,28.9,44.5,30.2-25.2,9.8-50.5,19.5-75.7,29.2-4.4,1.8-8.9,3.6-13.5,5.3h0Z" style="fill:#b242e6;"/><path d="M186.29,307.6c1.5-3.3,4.4-8.8,9.3-14.2,29.1-31.9,92.8-22.2,94.5-12.3,.5,2.9-3.9,7.8-27.8,17-1.4-2.7-3.1-4.8-4.9-6.3-13.1-11.2-41.3-3.9-71.1,15.8h0Z" style="fill:#b242e6;"/><path d="M394.29,371.5l34.7-12.7c1.5-.5,.4-2.8-1.1-2.3l-34.7,12.7c-1.5,.6-.4,2.8,1.1,2.3h0Z" style="fill:#b242e6;"/><path d="M383.19,367.2c6-14.4,13.4-28.1,22.1-41,.4-.6,.2-1.4-.3-1.7s-1.4-.2-1.7,.3c-8.8,13.1-16.3,27-22.4,41.6-.7,1.5,1.7,2.2,2.3,.8h0Z" style="fill:#b242e6;"/><path d="M371.59,368.4c-3.3-14.5-4.3-29.4-3-44.2,.1-1.6-2.4-1.8-2.5-.1-1.4,15-.3,30.1,3,44.8,.4,1.5,2.9,1.1,2.5-.5h0Z" style="fill:#b242e6;"/></g><g id="h"><path d="M453.56,287.49c.78-7.66,211.82-13.68,234.17-4.99,8.16,3.17,18.57,149.92,18.57,185.7,0,0-178,28.08-242.33,4.53-9.16-3.35-17.68-114.14-10.41-185.27h0v.04Z" style="fill:#fff;"/><g><path d="M484.42,308.44c8.37-1.57,15.79,.89,27.62,1,6.49,.07,27.26-3.28,32.61-2.64" style="fill:none; stroke:#273443; stroke-linecap:round; stroke-miterlimit:10; stroke-width:2px;"/><path d="M484.42,328.33c5.17,2.82,25.55,.86,31.43-2.67" style="fill:none; stroke:#273443; stroke-linecap:round; stroke-miterlimit:10; stroke-width:2px;"/><path d="M670.77,280.72c4.28-2.35,11.05,0,14.72,2.17,8.2,4.92,9.3,14.29,10.33,24.62,1.96,19.42,2.92,29.11,3.71,46.9,.96,21.67,1.43,32.5,3.1,43.48,2.25,14.75,4.13,18.5,4.03,29.79-.07,12.9-2.57,15.32-.5,25.27,1.46,6.98,.39,9.66-2.42,12.86-2.39,2.71-3.24,4.21-12.12,4.67,0,0-3.88,.21-25.05,1.96-11.72,.96-12.47,1.64-32.29,3.6-4.85,.46-8.48,.82-13.47,1.21-14.01,1.03-28.12,2.1-28.54,.39-.43-1.75,13.65-6.06,23.23-8.41,13.36-3.28,17.53-2.74,32.96-5.99,15.15-3.17,22.74-4.78,26.69-8.13,6.98-5.95,6.59-13.58,7.23-35.28,1.1-38.52,2.82-32.54,1.89-43.69-1.03-12.37-2.6-13.36-11.12-51.53-6.81-30.43-8.23-40.77-2.42-43.94h.04v.04Z" style="isolation:isolate; opacity:.1; stroke:#000; stroke-miterlimit:10;"/><path d="M586.56,487.91l-.86-6.74c-2.17-.14-5.2-.07-6.34,1.43h.07c-1.25,1.67,.93,3.53,0,6.06-.93,2.6-3.92,2.67-6.74,4.99-3.49,2.92-5.67,8.55-3.39,13.19,2.49,5.1,9.98,8.34,16.86,6.77,6.45-1.5,9.91-6.7,10.51-11.05,.82-5.84-3.21-11.8-10.12-14.65Zm5.74,16.04c-2.42,4.42-9.16,9.02-14.97,6.7-4.53-1.78-6.7-7.09-5.17-11.15,1.46-3.81,5.81-5.35,8.27-6.24,2.32-.86,7.52-2.67,10.83-.46,3.49,2.32,2.89,7.8,1.03,11.15Z" style="fill:#273443; stroke:#273443; stroke-miterlimit:10; stroke-width:.5px;"/><g><path d="M486.74,450.45c-16.71-31.5-10.3-59.66-10.3-91.51l12.97,14.82" style="fill:none; stroke:#273443; stroke-miterlimit:10; stroke-width:2px;"/><line x1="468.17" y1="372.62" x2="476.44" y2="358.94" style="fill:none; stroke:#273443; stroke-miterlimit:10; stroke-width:2px;"/></g><path d="M505.98,452.66c-2.28-14.08,1.82-29.26-5.95-42.62-1.96-3.35,34.6-3.6,37.99,.36,9.16,10.73,3.21,26.3,3.21,39.63" style="fill:#ffdfe1; stroke:#000; stroke-miterlimit:10; stroke-width:.5px;"/><path d="M562.47,451.2c-2.07-43.33-5.7-62.26-7.8-87.06,0,0,40.02,1.46,40.48,3.71,5.2,24.09,9.34,37.77,12.47,86.7" style="fill:#ffdfe1; stroke:#000; stroke-miterlimit:10; stroke-width:.5px;"/><path d="M624.83,451.2c-6.31-59.9-5.81-95.01-5.81-110.15,0-3.46,45.97,1.39,45.97,1.39-.5,20.31-4.35,58.87,.96,108.44" style="fill:#ffdfe1; stroke:#000; stroke-miterlimit:10; stroke-width:.5px;"/><g><path d="M468.74,456.01c75.23-11.65,156.55-4.03,221.02-6.49" style="fill:none; stroke:#273443; stroke-miterlimit:10; stroke-width:2px;"/><path d="M667.67,462.68c14.97-12.79,18.89-13.83,21.03-12.97" style="fill:none; stroke:#273443; stroke-miterlimit:10; stroke-width:2px;"/><path d="M688.69,449.7c-7.73-5.2-16.86-4.21-25.3-6.31" style="fill:none; stroke:#273443; stroke-miterlimit:10; stroke-width:2px;"/></g><g><path d="M486.1,393.58c17.71-18.82,22.66-18.03,36.78-36.81,4.03-5.38,10.16,7.23,16.61,4.67,27.58-11.05,19.46-21.1,37.67-36.81,3.81-3.28,34.78,13.36,42.16,9.69,9.41-4.67,21.77-27.33,40.84-39.56l-5.63,18.53" style="fill:none; stroke:#273443; stroke-miterlimit:10; stroke-width:2px;"/><line x1="660.15" y1="294.72" x2="641.08" y2="299.57" style="fill:none; stroke:#273443; stroke-miterlimit:10; stroke-width:2px;"/></g><path d="M459.48,283.92c95.19-10.8,231.35-8.62,233.7,1.82,14.33,62.93,9.51,94.44,13.26,146.75" style="fill:none; stroke:#273443; stroke-miterlimit:10; stroke-width:2px;"/><path d="M453.56,287.49c1.28,71.45-9.37,138.52,4.92,181.57,5.84,17.57,160.54,17.28,247.71-1" style="fill:none; stroke:#273443; stroke-miterlimit:10; stroke-width:2px;"/></g></g></svg>