<svg width="87" height="437" viewBox="0 0 87 437" fill="none" xmlns="http://www.w3.org/2000/svg">
<g clip-path="url(#clip0_197_33236)">
<path d="M40.4827 99.4254C28.4891 128.117 27.0305 161.502 31.3956 193.007C33.7751 210.207 38.232 226.597 42.6084 243.118C47.2703 260.682 50.8235 278.38 51.531 296.949C52.3004 317.77 49.9987 338.587 44.7429 358.349C44.5654 359.017 45.4036 359.298 45.5811 358.637C54.4217 325.316 54.6214 289.59 46.7509 255.93C42.7544 238.828 37.4306 222.252 34.2074 204.865C31.154 188.458 29.5492 171.546 30.0875 154.688C30.6958 135.652 34.1697 116.885 41.2406 99.9751C41.4991 99.3577 40.7469 98.8079 40.4884 99.4253L40.4827 99.4254Z" fill="#E8E8E8" fill-opacity="0.8"/>
<path d="M66.4397 106.577C57.986 132.416 60.8601 161.102 66.0509 187.519C71.8966 217.316 80.1375 246.367 79.3956 277.471C78.975 295.25 76.4051 312.796 73.6038 330.175C73.4958 330.901 74.3339 331.153 74.442 330.463C76.8163 315.719 79.0228 300.889 79.912 285.865C80.786 271.065 80.1003 256.183 77.8737 241.604C73.4269 212.232 64.2582 184.112 62.3052 154.139C61.2569 138.068 62.3685 121.818 67.2778 106.807C67.49 106.16 66.6518 105.879 66.4396 106.526L66.4397 106.577Z" fill="#E8E8E8" fill-opacity="0.8"/>
<path d="M51.0782 209.498C55.8147 224.284 61.1116 239.056 64.8363 254.311C68.5609 269.566 67.3874 284.832 65.8379 300.328C65.7728 301.01 64.9063 301.052 64.9715 300.326C66.5566 284.423 67.6326 268.86 63.6891 253.351C59.9229 238.553 54.8619 224.187 50.2457 209.779C50.0393 209.133 50.8775 208.852 51.084 209.491L51.0782 209.498Z" fill="#E8E8E8" fill-opacity="0.8"/>
<path d="M60.396 79.498C55.6594 94.2837 50.3625 109.056 46.6378 124.311C42.9132 139.566 44.0867 154.832 45.6362 170.328C45.7013 171.01 46.5678 171.052 46.5026 170.326C44.9175 154.423 43.8415 138.86 47.785 123.351C51.5512 108.553 56.6122 94.1871 61.2284 79.779C61.4348 79.1327 60.5966 78.8517 60.3902 79.4907L60.396 79.498Z" fill="#E8E8E8" fill-opacity="0.8"/>
</g>
<defs>
<clipPath id="clip0_197_33236">
<rect width="436.126" height="85.4862" fill="white" transform="translate(85.4863 0.128906) rotate(89.8663)"/>
</clipPath>
</defs>
</svg>
