<?xml version="1.0" encoding="UTF-8" standalone="no"?>
<!DOCTYPE svg PUBLIC "-//W3C//DTD SVG 1.1//EN" "http://www.w3.org/Graphics/SVG/1.1/DTD/svg11.dtd">
<svg width="100%" height="100%" viewBox="0 0 248 248" version="1.1" xmlns="http://www.w3.org/2000/svg" xmlns:xlink="http://www.w3.org/1999/xlink" xml:space="preserve" xmlns:serif="http://www.serif.com/" style="fill-rule:evenodd;clip-rule:evenodd;stroke-linejoin:round;stroke-miterlimit:2;">
    <g transform="matrix(1,0,0,1,-187.894,-863.999)">
        <g id="backpack">
            <path d="M434.3,1027.9C433.4,1025.5 431.7,1022 428.7,1018.5C425.4,1014.6 422.6,1013.2 420.4,1011.6C416.5,1008.6 415,1004.9 408.6,977.2C405.6,964 405.3,962.5 405.8,959.8C407.1,952.8 410.8,950.4 412.7,941.4C413.6,937.1 413.6,934 413.4,928.2C413.1,919.4 412.9,910.4 409.2,900.1C405.9,890.6 402.1,880.1 392.2,875.4C385.3,872.2 378.5,873.3 372.4,874.4C360.1,876.6 357.4,881.2 344.6,886.9C338.2,889.7 319.8,897.9 298,896.6C288.3,896 282.9,893.9 276.8,897.6C270.4,901.6 267.7,909.2 265.7,915C263.2,922.1 262.6,928.3 262.6,932.4C261.3,936.7 259.3,943.2 257,951.2C250.6,974 250.6,978.2 246.2,990.5C241.8,1003 239,1010.8 232.3,1019.7C230.1,1022.6 230,1022.3 209.7,1041.9C199.3,1051.9 193.8,1057.4 191.3,1066.6C190.3,1070.2 188.7,1075.9 191.6,1079.8C192.5,1080.9 195.4,1084.2 213.1,1083.6C221.3,1083.3 222.4,1082.6 230.8,1081.9C246.3,1080.6 258.4,1081.9 264.5,1082.6C270.3,1083.2 275.1,1084.1 278.4,1084.7C281.6,1085 286.4,1085.6 292,1087.1C302.1,1089.9 305.2,1093 314.2,1096.8C319.7,1099.1 331,1103.8 344.8,1103.4C354.2,1103.1 361.8,1100.6 366.7,1098.5C373.9,1099.6 379.8,1099.1 383.7,1098.5C390.5,1097.4 395.7,1095.2 400,1093.3C405.2,1091 404.9,1090.5 411.5,1087.4C423,1081.8 424.9,1082.8 428.2,1079.8C430.6,1077.6 432.8,1074.1 434.1,1059.6C435,1051.9 435.5,1041.1 434.3,1027.9ZM269,1055.5C269.8,1061 271.4,1065.4 269,1067.8C265.9,1070.8 260.6,1066.5 247.2,1067.2C245,1067.3 243.7,1067.5 237.2,1068C231.5,1068.4 231.7,1068.3 228.1,1068.6C222.3,1069.1 221.8,1069.4 219.4,1069.2C215.1,1068.8 212.9,1068.7 211.1,1067.1C208.2,1064.6 207.7,1060 208.3,1056.9C209.3,1050.7 214.4,1048.1 223.5,1040.6C227.3,1037.5 232.8,1032.7 239,1026C242.7,1021.1 246.3,1016 250,1010.7C251.7,1008.2 253.3,1005.8 254.9,1003.3C256.4,999.2 258.3,993.5 260.2,986.6C265.2,968.4 265.3,957.1 267,957C269,957 270.7,971.8 271.4,979.9C272.2,990.3 272,998.9 271.6,1004.7C272.6,1006.6 274,1009.8 274.4,1014C274.9,1018.7 274,1022.5 273.3,1024.6C267.9,1038.1 267.9,1048.4 269,1055.5Z" style="fill:white;fill-rule:nonzero;"/>
            <g>
                <g>
                    <path d="M269.5,903C256.2,924.6 264.7,950 268.5,973.1C269.6,979.9 270.2,986.7 269.9,993.5C269.7,996.7 269.3,999.9 269.7,1003.2C270.1,1006.2 271.2,1008.9 271.9,1011.8C273.8,1019.3 271.1,1026.9 269.6,1034.2C268.3,1040.5 267,1046.8 266.8,1053.2C266.4,1063.3 268.9,1074.1 276.2,1081.4C284.3,1089.5 296.1,1088.2 305.8,1093.3C315.9,1098.7 325.4,1103.2 337,1104.3C342.7,1104.8 348.6,1104.6 354.2,1103.6C360.2,1102.6 365.8,1099.7 371.8,1098.7C377.5,1097.8 383,1099.8 388.7,1098.3C395.1,1096.7 401.3,1093.1 407.3,1090.4C413.5,1087.6 419.7,1084.7 426,1081.9C430.1,1080 433.8,1078.3 434.8,1073.5C436.1,1067.5 435.4,1060.4 435.5,1054.3C435.7,1047.9 436.2,1041.5 435.8,1035.1C435.6,1031 435,1026.9 433.3,1023.2C430.7,1017.4 425.2,1015.6 421.6,1010.8C414.5,1001 410.9,987.3 408.9,975.5C408.3,971.8 407.9,968.1 407.6,964.4C407.4,960.6 408.7,958.2 410.1,954.9C412.1,950.2 413.4,945.2 414,940.2C415.6,928.6 414.1,916.7 411.4,905.4C409.1,895.8 406,885.1 398.3,878.3C378.1,860.5 351.6,881.4 332.9,890.2C326,893.4 318.8,895.5 311.2,895.5C303.9,895.5 296.7,894.1 289.4,894.6C279.7,895.2 269.6,899.6 266.3,909.3C265.7,911.1 268.6,911.9 269.2,910.1C273.2,898.4 287.1,897.1 297.6,897.7C308.8,898.4 319,899.1 329.6,894.9C347.8,887.7 366.7,869.5 387.8,875.9C399.4,879.4 404.3,890.7 407.3,901.5C410.3,912.3 412.2,923.5 411.6,934.7C411.3,940.2 410.3,945.7 408.5,951C407.7,953.4 406.6,955.8 405.4,958.1C404.1,960.7 404.4,962.6 404.6,965.6C405.3,976.4 407.6,987 411.5,997.1C413.2,1001.5 415.1,1005.9 417.4,1010.1C419.9,1014.5 423.3,1016.3 426.8,1019.7C434.8,1027.3 432.7,1040.8 432.4,1050.7C432.2,1057 432,1063.3 431.8,1069.6C431.7,1073.8 430.8,1076.2 427.2,1078.3C424.3,1080 421,1081.2 417.9,1082.5C412.3,1085.1 406.6,1087.6 401,1090.2C394.6,1093.1 388.2,1096.8 380.9,1096.4C376.1,1096.2 372.2,1095.6 367.5,1096.9C361.7,1098.6 356.2,1100.7 350.2,1101.4C338.7,1102.8 326.8,1101 316.4,1096C312,1093.9 307.9,1091.1 303.4,1089.1C298.7,1087 293.8,1086.5 288.8,1085.3C277,1082.5 270.7,1071.3 269.7,1059.9C268.5,1046.3 273.7,1033.6 275.3,1020.3C276.2,1013.6 272.7,1008 272.2,1001.4C271.8,994.7 272.9,988.1 272.2,981.3C269.7,956.2 257.2,928.3 271.7,904.6C273.2,902.8 270.6,901.3 269.5,903Z" style="fill:rgb(22,22,22);fill-rule:nonzero;"/>
                </g>
            </g>
            <g>
                <g>
                    <path d="M271.4,902.7C288.9,900.1 302.6,914.1 309.9,928.3C316.9,941.7 320.5,956.6 328.2,969.7C334.7,980.7 344.2,989.9 357,992.7C368.3,995.2 380.8,992.8 390.1,985.8C402.6,976.4 408,960.9 410.8,946.1C411.2,944.2 408.3,943.4 407.9,945.3C405.3,958.8 400.7,973.3 389.7,982.3C378.6,991.4 362.2,993.3 349.3,986.8C322.6,973.5 322.4,937.2 305.4,915.8C297,905.2 284.2,897.8 270.4,899.8C268.7,900.1 269.5,903 271.4,902.7Z" style="fill:rgb(22,22,22);fill-rule:nonzero;"/>
                </g>
            </g>
            <g>
                <g>
                    <path d="M377.1,998.1C377.2,998.3 377.3,998.4 377.4,998.6C377.5,998 377.6,997.4 377.6,996.8C377.4,997 377.3,997.1 377.1,997.3C377.7,997.2 378.3,997.1 378.9,997.1C377.2,996.2 376.4,992.4 375.8,990.7C374.9,988.1 374.3,985.3 373.8,982.6C373.5,980.5 372.1,964.8 376.5,966.3C377.8,966.8 378.8,972.2 379.2,973.6C379.9,976.3 380.3,979.1 380.6,981.9C380.9,984.6 380.9,987.3 381,989.9C381,991.1 381.1,992.3 381.1,993.5C381.1,994.1 381.1,994.7 381,995.3C381.2,996 380.9,996.5 380.2,996.8C380.4,994.9 377.4,994.9 377.2,996.8C377,998.8 378.6,1000.4 380.7,1000.2C383.6,999.9 384,996.7 384,994.4C384.2,989 383.9,983.3 383.1,978C382.5,973.6 381.6,967.3 378.4,963.9C372.5,957.5 370.5,970 370.4,973.4C370.1,978.7 370.8,984 372.2,989C373.1,992 374.4,998.1 377.5,999.7C378.1,1000 378.8,1000 379.3,999.5C379.5,999.3 379.6,999.2 379.8,999C380.3,998.5 380.4,997.7 380,997.2C379.9,997 379.8,996.9 379.7,996.7C378.7,994.9 376.1,996.4 377.1,998.1Z" style="fill:rgb(22,22,22);fill-rule:nonzero;"/>
                </g>
            </g>
            <g>
                <g>
                    <path d="M353.1,1052.3C353.6,1068.3 355,1084.3 357.3,1100.1C357.6,1102 360.5,1101.2 360.2,1099.3C358,1083.7 356.6,1068 356.1,1052.3C356,1050.4 353,1050.4 353.1,1052.3Z" style="fill:rgb(22,22,22);fill-rule:nonzero;"/>
                </g>
            </g>
            <g>
                <g>
                    <path d="M355.2,1053C362.3,1043 375,1038.8 386,1035C398.1,1030.8 410.4,1027.6 423,1025.3C424.9,1025 424.1,1022.1 422.2,1022.4C407.8,1025 393.6,1028.9 379.9,1034C369.6,1037.9 359.1,1042.3 352.5,1051.5C351.5,1053.1 354.1,1054.6 355.2,1053Z" style="fill:rgb(22,22,22);fill-rule:nonzero;"/>
                </g>
            </g>
            <g>
                <g>
                    <path d="M355.7,1053.6C367.5,1059.9 379,1064.7 392.6,1061.1C405.6,1057.6 417.7,1050.3 427.9,1041.8C429.4,1040.6 427.3,1038.5 425.8,1039.7C416.3,1047.6 405.3,1054.2 393.5,1057.8C380.1,1061.9 369,1057.5 357.2,1051.1C355.5,1050.1 354,1052.7 355.7,1053.6Z" style="fill:rgb(22,22,22);fill-rule:nonzero;"/>
                </g>
            </g>
            <g>
                <g>
                    <path d="M402.3,1051.2C403.1,1055.1 403.9,1059.1 404.7,1063C405.1,1064.9 408,1064.1 407.6,1062.2C406.8,1058.3 406,1054.3 405.2,1050.4C404.8,1048.5 401.9,1049.3 402.3,1051.2Z" style="fill:rgb(22,22,22);fill-rule:nonzero;"/>
                </g>
            </g>
            <g>
                <g>
                    <path d="M409,1048.4C409.4,1052.1 409.7,1055.8 410.1,1059.5C410.3,1061.4 413.3,1061.4 413.1,1059.5C412.7,1055.8 412.4,1052.1 412,1048.4C411.8,1046.5 408.8,1046.4 409,1048.4Z" style="fill:rgb(22,22,22);fill-rule:nonzero;"/>
                </g>
            </g>
            <g>
                <g>
                    <path d="M272.1,1026.7C270.2,1032.2 272.1,1037.2 278.6,1036.1C280.2,1035.8 281.6,1035.1 283.2,1034.6C284.1,1034.3 285.4,1033.8 286.4,1033.9C291.5,1034.6 288.6,1036.3 289.9,1038.1C291.4,1040.1 292.3,1041.1 295,1041.1C298.6,1041 305.7,1037.6 308.1,1042C309,1043.8 308.1,1048.6 308.1,1050.8C308.1,1053.4 308.2,1056 308.2,1058.6C308.4,1070 308.7,1081.4 309.1,1092.7C309.2,1094.6 312.2,1094.6 312.1,1092.7C311.4,1075.2 311.1,1057.6 311,1040C311,1039.5 310.7,1038.9 310.3,1038.7C307,1037.2 303.7,1036.5 300.1,1037C297.6,1037.3 296.5,1038.3 294.1,1036.9C291.8,1035.6 292.6,1034.8 291.2,1033C289.7,1031.1 287.5,1030.7 285.2,1031C283.6,1031.2 282.3,1031.9 280.8,1032.4C280,1032.7 279,1033.2 278.1,1033.2C275.9,1033.1 274.3,1029.7 275.1,1027.6C275.6,1025.7 272.7,1024.9 272.1,1026.7Z" style="fill:rgb(22,22,22);fill-rule:nonzero;"/>
                </g>
            </g>
            <g>
                <g>
                    <path d="M265.5,927.6C265.6,916.1 269.3,895.3 285.7,899.3C287.6,899.8 288.4,896.9 286.5,896.4C279.6,894.7 272.8,897.7 268.5,903.2C263.1,910 262.5,919.2 262.5,927.6C262.5,929.6 265.5,929.6 265.5,927.6Z" style="fill:rgb(22,22,22);fill-rule:nonzero;"/>
                </g>
            </g>
            <g>
                <g>
                    <path d="M262.8,921.3C260.6,925.9 263.7,930.6 266.5,934.4C269.4,938.4 273.8,942 279,940.9C281.9,940.3 283.9,937.7 286.8,937.2C290,936.5 293.1,939.3 296.3,939.2C303.1,938.9 307.2,932.4 312.1,928.8C313.6,927.7 312.2,925.1 310.6,926.2C306.7,929 303.7,933.4 299.2,935.3C294.5,937.3 291.7,933.8 287.2,934.1C282.7,934.4 280.1,939 275.3,937.8C271.3,936.8 263.3,927.6 265.5,922.8C266.2,921.1 263.6,919.5 262.8,921.3Z" style="fill:rgb(22,22,22);fill-rule:nonzero;"/>
                </g>
            </g>
            <g>
                <g>
                    <path d="M263.6,919.5C258.8,940.5 253.2,961.3 246.9,981.8C243.9,991.5 241.1,1001.6 236.1,1010.6C231.8,1018.3 225.9,1024.8 219.6,1030.9C208.6,1041.5 195.9,1051.5 189.7,1065.9C187.2,1071.7 186.5,1077.7 192.2,1081.8C198.5,1086.4 207.8,1086.2 215.1,1085.5C226.3,1084.4 237.4,1080.9 248.7,1081.8C259.5,1082.7 269.8,1087.1 280.6,1083.9C282.4,1083.3 281.7,1080.5 279.8,1081C270.1,1083.9 260.6,1080.2 250.9,1079C242.9,1078 234.9,1079.3 227.1,1080.6C217.7,1082.2 207.1,1084.5 197.8,1081.2C192,1079.2 189.5,1074.9 191.6,1069C193,1065.1 195.1,1061.4 197.5,1058.1C206,1045.9 218.4,1037.1 228.4,1026.2C239.6,1013.9 244.7,999.2 249.6,983.5C256,962.6 261.7,941.5 266.6,920.2C267,918.4 264.1,917.6 263.6,919.5Z" style="fill:rgb(22,22,22);fill-rule:nonzero;"/>
                </g>
            </g>
            <g>
                <g>
                    <path d="M263.7,952.7C261.9,971.6 259.9,991 250.6,1008C246.5,1015.6 241.2,1022.5 235,1028.4C229.3,1033.8 222.7,1038.1 216.8,1043.2C212.4,1047 206.1,1052.7 205.7,1059C205.3,1064.7 210.1,1069.2 215.2,1070.7C223.4,1073.2 233.3,1070.2 241.7,1069.7C251.5,1069.2 261.4,1069.5 271.2,1070.5C273.1,1070.7 273.1,1067.7 271.2,1067.5C262.1,1066.5 252.9,1066.2 243.7,1066.6C239.8,1066.8 235.8,1067.1 231.9,1067.5C227.3,1068 222.4,1069.1 217.8,1068.2C212.1,1067.1 207.2,1062.6 209.6,1056.4C211.1,1052.7 214.3,1049.5 217.2,1046.8C222.5,1041.8 228.7,1037.9 234.1,1033.1C244.4,1024.2 252.5,1012.7 257.6,1000.1C263.7,985 265.2,968.6 266.8,952.5C266.9,950.8 263.9,950.8 263.7,952.7Z" style="fill:rgb(22,22,22);fill-rule:nonzero;"/>
                </g>
            </g>
            <g>
                <g>
                    <path d="M289.5,1038C290.4,1046.9 291.8,1055.6 293.8,1064.3C294.2,1066.2 297.1,1065.4 296.7,1063.5C294.8,1055.1 293.4,1046.6 292.5,1037.9C292.3,1036.1 289.3,1036.1 289.5,1038Z" style="fill:rgb(22,22,22);fill-rule:nonzero;"/>
                </g>
            </g>
            <g>
                <g>
                    <path d="M314.5,911.7C330.5,924 356.3,931.1 375,920.7C376.7,919.8 375.2,917.2 373.5,918.1C355.7,927.9 331.1,920.7 316.1,909.1C314.4,907.9 312.9,910.5 314.5,911.7Z" style="fill:rgb(22,22,22);fill-rule:nonzero;"/>
                </g>
            </g>
            <g>
                <g>
                    <path d="M265.8,924.5C265.2,917.3 266.6,908.9 271.6,903.4C276.6,898 284.4,898.5 291.2,898.5C303.7,898.7 316.3,900 328.2,895.6C330,894.9 329.2,892 327.4,892.7C312.1,898.4 296.4,893.9 280.7,895.9C267,897.7 261.8,912.1 262.8,924.5C262.9,926.4 265.9,926.5 265.8,924.5Z" style="fill:rgb(22,22,22);fill-rule:nonzero;"/>
                </g>
            </g>
            <g>
                <g>
                    <path d="M266.4,927.4C267.4,920.5 269.6,914 273.4,908.1C275.4,905 277.5,902.1 281,900.8C284.4,899.5 288.4,900 292,900C304.1,900.2 316.5,900.6 327.5,894.8C329.2,893.9 327.7,891.3 326,892.2C318.8,896 310.9,897 302.9,897.1C296.1,897.2 288.8,896 282.1,897.3C270.4,899.6 265,916.4 263.5,926.5C263.2,928.4 266.1,929.3 266.4,927.4Z" style="fill:rgb(22,22,22);fill-rule:nonzero;"/>
                </g>
            </g>
            <g>
                <g>
                    <path d="M265.5,924.8C266.2,915.7 267.3,904 276.3,899C281.2,896.3 287.6,896.9 293,896.8C297.7,896.8 302.4,896.9 307.2,896.8C316.3,896.6 325.4,895.9 334.1,892.9C342.4,890 350.1,885.5 357.6,881C359.3,880 357.8,877.4 356.1,878.4C347,883.8 337.7,889.3 327.3,891.7C315.8,894.4 303.9,893.7 292.2,893.8C283.6,893.9 275.3,893.9 269.5,901.2C264.2,907.9 263.4,916.6 262.7,924.8C262.4,926.7 265.4,926.7 265.5,924.8Z" style="fill:rgb(22,22,22);fill-rule:nonzero;"/>
                </g>
            </g>
            <path d="M333.9,893.9C338.2,897.9 332.6,905.5 336.5,912.3C341.6,921.1 356.3,922.2 367.5,921.7C361.6,923.3 352.6,927 347.6,935.3C338.8,949.9 344.9,974.3 366,991.5C367.9,1006.5 369.8,1021.6 371.8,1036.6C366.2,1041.5 360.6,1046.4 355,1051.3C355.2,1068.1 355.3,1084.9 355.5,1101.7C350.5,1103.5 342.7,1105.5 333.5,1104.3C324.3,1103.2 322.2,1100 304.6,1092.8C288.3,1086.1 285.9,1087.2 280.5,1082.3C270.5,1073.4 268.6,1060.9 268.4,1059.7C267.1,1050.5 270.8,1049.3 272.6,1030.8C273.5,1021.2 273.3,1013.6 273.1,1010.9C272.7,1002 271.6,998.7 270.5,988.9C269.1,977.2 269.8,974.8 268.9,963.7C266.7,935.1 260.8,929.9 264.7,915.4C266.3,909.5 268.2,902.1 274.7,898.1C282.8,893 288.7,899 305.7,897.6C322,896.2 329.5,889.6 333.9,893.9Z" style="fill:rgb(109,108,108);fill-opacity:0.05;fill-rule:nonzero;"/>
            <path d="M278.3,900.7C267.2,902.8 259.5,920.2 264.7,930.6C266.4,934 270.3,938.4 275.2,939C279.2,939.5 280.2,936.9 286.2,936.4C292.3,935.9 293.4,938.3 298.3,937.4C301.9,936.8 307.2,934.3 308.8,930.1C311.6,922.6 301.4,913.5 297.8,910.2C292.1,905.1 285.7,899.3 278.3,900.7Z" style="fill:rgb(109,108,108);fill-opacity:0.11;fill-rule:nonzero;"/>
            <path d="M271.5,967.4C273.9,967 279.4,999.9 290.9,1032C301.7,1061.9 315.4,1084.8 326.1,1100.2C317.5,1095.9 310.2,1093.3 305.1,1091.8C298.4,1089.8 293.5,1089 286.7,1085.5C281.7,1082.9 278,1080.1 275.7,1078.2C273.5,1075.4 270.4,1070.8 269.4,1064.6C269,1062.3 269.1,1061.2 269.9,1051C271,1036.2 271,1035.7 271.5,1033.2C273,1025 274.3,1025.1 274.6,1019.6C275,1014.4 273.9,1013.4 272.5,1003.3C271.3,994.5 271.1,987.8 270.9,983.4C270.7,973.4 270.5,967.5 271.5,967.4Z" style="fill:rgb(109,108,108);fill-opacity:0.14;fill-rule:nonzero;"/>
        </g>
    </g>
</svg>
