<?xml version="1.0" encoding="UTF-8" standalone="no"?>
<!DOCTYPE svg PUBLIC "-//W3C//DTD SVG 1.1//EN" "http://www.w3.org/Graphics/SVG/1.1/DTD/svg11.dtd">
<svg width="100%" height="100%" viewBox="0 0 1608 1208" version="1.1" xmlns="http://www.w3.org/2000/svg" xmlns:xlink="http://www.w3.org/1999/xlink" xml:space="preserve" xmlns:serif="http://www.serif.com/" style="fill-rule:evenodd;clip-rule:evenodd;stroke-miterlimit:10;">
    <g>
        <path d="M233.101,624.599C234.501,629.399 239.801,629.999 244.001,628.599C248.501,627.099 252.401,622.099 257.501,624.699C260.201,626.099 261.901,629.099 264.901,629.999C271.201,631.999 274.001,625.199 278.901,622.999C285.801,619.899 292.401,627.999 299.501,626.799C302.301,626.399 304.001,624.599 306.001,622.799C310.301,618.899 313.301,620.499 317.301,623.699C320.901,626.599 324.801,630.399 329.801,629.499C337.501,627.999 338.801,617.799 348.101,620.499C354.001,622.199 359.401,627.099 365.901,625.999C369.301,625.399 371.701,623.199 374.101,620.899C378.101,617.099 381.601,615.099 387.301,616.599C394.101,618.299 400.501,622.599 407.601,619.399C409.301,618.599 407.801,615.999 406.101,616.799C399.501,619.899 392.301,614.199 385.701,613.199C379.901,612.299 376.101,614.999 372.001,618.799C368.801,621.799 365.701,623.899 361.201,622.799C357.601,621.899 354.401,619.799 351.001,618.399C346.501,616.599 342.001,616.199 337.901,619.399C335.401,621.299 333.701,624.599 330.901,625.999C326.901,628.099 323.201,624.799 320.301,622.399C317.201,619.899 313.501,616.499 309.101,617.499C306.701,617.999 305.201,619.699 303.501,621.299C299.301,625.099 295.601,623.899 290.801,621.899C286.001,619.899 281.201,618.099 276.501,621.199C273.301,623.199 270.901,627.699 266.801,627.199C263.301,626.799 261.601,623.099 258.401,621.699C255.601,620.499 252.901,620.899 250.201,622.099C247.301,623.399 238.101,630.299 236.201,623.899C235.401,621.899 232.501,622.699 233.101,624.599Z" style="fill:rgb(255,251,251);fill-rule:nonzero;"/>
        <path d="M323.3,604.199C326.9,599.199 335.4,608.599 340.3,607.999C346.3,607.299 347.1,599.599 354.1,601.499C358.7,602.699 362.7,606.199 367.7,605.899C373.5,605.599 377.1,598.899 383.1,600.399C387.2,601.399 390.8,605.199 395.2,604.699C397.2,604.499 398.1,603.399 399.5,602.199C401.3,600.599 400.2,597.699 405.2,599.399C406.8,599.999 408.1,601.899 409.2,603.099C412,606.299 415,608.799 419.4,607.199C423,605.899 425.7,603.899 429.7,603.799C434.2,603.699 438.3,605.099 441.8,607.899C443.3,609.099 445.4,606.999 443.9,605.799C439.4,602.199 434,600.399 428.3,600.899C425.5,601.199 423.3,602.199 420.8,603.099C413.4,605.899 412.8,601.199 408.3,597.799C404,594.599 401.2,595.599 397.9,599.099C396,601.199 395.1,601.999 392.2,601.099C390.6,600.599 389.1,599.599 387.7,598.899C385.7,597.899 383.6,596.999 381.3,596.999C374.8,596.899 371.4,604.099 364.5,602.499C359.6,601.299 355,596.999 349.7,598.199C347.3,598.699 345.8,600.299 344.2,601.999C342.3,604.099 339.5,604.899 336.6,604.299C334.8,603.899 333.1,601.999 331.4,601.199C327.7,599.399 323.4,599.099 320.8,602.699C319.6,604.199 322.2,605.699 323.3,604.199Z" style="fill:rgb(255,251,251);fill-rule:nonzero;"/>
        <path d="M1235,103.6C1236.8,98.9 1243.1,105.4 1244.8,106.5C1246.7,107.8 1248.6,108.6 1251,108.3C1254.2,108 1256.8,106 1260,105.8C1263.1,105.7 1266.1,106.8 1269,107.6C1273.5,108.9 1278.5,110.3 1282.9,107.8C1286.2,105.9 1287.8,103.4 1291.8,105.5C1293.9,106.6 1295.2,108 1297.6,108.3C1302.5,108.9 1306.5,105.5 1311,104.4C1316.4,103.2 1318.3,109.4 1323.8,107.9C1327.4,106.9 1329.6,104.7 1333.6,104.7C1336.8,104.7 1339.9,105.6 1343,106.4C1348.5,107.8 1353.7,109.2 1359.4,108.1C1361.3,107.7 1360.5,104.8 1358.6,105.2C1351.1,106.6 1344.1,102.9 1336.7,102C1334.4,101.7 1332.1,101.6 1329.8,102.1C1326.4,102.8 1323.3,106.2 1319.6,104.3C1317.4,103.1 1316.9,101.5 1314.1,101.2C1312.2,101 1310.2,101.5 1308.4,102.1C1305.9,103 1303.6,104.4 1301,105C1296.4,106.1 1294.7,103 1290.8,101.7C1285.4,99.9 1282.3,106.2 1277.1,106.3C1270.7,106.4 1265,102.2 1258.5,102.9C1254.7,103.3 1251.4,106 1247.4,104.7C1244.9,103.8 1243.2,100.9 1240.7,99.801C1237.3,98.301 1233.3,99.001 1231.9,102.7C1231.4,104.7 1234.3,105.4 1235,103.6Z" style="fill:rgb(255,251,251);fill-rule:nonzero;"/>
        <path d="M1285,96.2C1289.3,92.7 1296.1,96.8 1300.8,97.3C1302.7,97.5 1304.5,97.4 1306.3,96.7C1309.6,95.5 1311.8,92.6 1315.6,92.5C1321,92.3 1325.3,97 1330.8,97C1333.3,97 1335.7,96.1 1338.1,95.3C1342.4,93.8 1345.3,93.4 1349.2,96.2C1352.6,98.6 1355,98.9 1358.7,97.2C1362.6,95.4 1364.8,94.3 1368.8,96.6C1371,97.8 1372.8,99.5 1375.1,100.4C1380.2,102.5 1385.2,100.8 1390,98.7C1395.2,96.4 1404.9,92.3 1408.2,99.8C1409,101.6 1411.6,100 1410.8,98.3C1405.5,86.2 1390.6,96.6 1382.7,98.2C1375,99.7 1371.2,91.8 1364,92.1C1361.6,92.2 1359.8,93.4 1357.8,94.4C1352.9,96.8 1351.2,93 1347.3,91.5C1341.5,89.3 1336.5,94.2 1330.8,94C1324.6,93.9 1319.7,87.9 1313.2,89.6C1310.5,90.3 1308.7,92.4 1306.2,93.5C1302.5,95.2 1298.8,93.9 1295.1,92.9C1290.7,91.8 1286.6,91 1282.9,94.1C1281.4,95.3 1283.5,97.4 1285,96.2Z" style="fill:rgb(255,251,251);fill-rule:nonzero;"/>
        <path d="M1269.6,1042.8C1273.7,1035.7 1284,1045 1289.5,1045.3C1296.6,1045.7 1302.2,1038 1309.3,1041.5C1314.6,1044.1 1318.1,1047.3 1324.4,1046.4C1331.9,1045.3 1338.4,1040 1346.1,1039.8C1348.2,1039.8 1350.4,1040.1 1352.2,1041.2C1353,1041.7 1354.7,1043.5 1355.8,1043.9C1357.8,1044.6 1359.1,1044.6 1360.9,1043.5C1363.7,1041.7 1365.6,1038.9 1368.7,1037.4C1371.9,1035.8 1375.5,1035.1 1379,1035.3C1385.4,1035.6 1390.6,1040.5 1397.1,1039.5C1400.6,1038.9 1403.6,1036.8 1407,1035.9C1411.5,1034.8 1415.8,1036 1419.4,1038.8C1420.9,1040 1422.4,1037.4 1420.9,1036.2C1415.6,1032.1 1409.4,1031.6 1403.3,1034C1397.5,1036.2 1394.2,1037.2 1388.2,1034.7C1385.6,1033.6 1383.1,1032.7 1380.3,1032.4C1374.2,1031.7 1367.9,1033.5 1363.2,1037.3C1362.2,1038.1 1361.2,1039.7 1360.1,1040.2C1356.8,1041.8 1354.9,1039 1352.4,1037.9C1349.9,1036.7 1347.1,1036.6 1344.3,1036.9C1335.9,1037.8 1327.8,1045.2 1319.2,1043.3C1312.5,1041.9 1309.1,1035.8 1301.7,1037.9C1298.5,1038.8 1295.8,1041 1292.5,1041.8C1287.4,1043.1 1283.7,1039.7 1279.2,1038.1C1274.8,1036.5 1269.4,1036.7 1266.8,1041.1C1266,1042.9 1268.6,1044.4 1269.6,1042.8Z" style="fill:rgb(255,251,251);fill-rule:nonzero;"/>
        <path d="M1324.8,1028.4C1327,1020.9 1338,1027.7 1342.5,1028C1347.1,1028.3 1350.8,1025.9 1354.6,1023.6C1357.4,1021.9 1360.1,1020.4 1363.5,1021.1C1366.7,1021.7 1369.2,1023.9 1372,1025.3C1375.6,1027.1 1379.3,1027.6 1383.1,1026.3C1387.3,1024.9 1390.7,1022 1394.7,1020C1401.5,1016.6 1406.4,1019.7 1413.3,1020.3C1417.4,1020.7 1420.3,1019.3 1423.5,1016.7C1429.6,1011.7 1436.4,1009.6 1443.8,1013.2C1445.5,1014 1447.1,1011.5 1445.3,1010.6C1440.5,1008.2 1435.1,1007.6 1430,1009.2C1423.1,1011.4 1419.8,1018.5 1411.8,1017C1406.2,1015.9 1401.5,1014 1395.9,1016.2C1390.8,1018.2 1386.6,1022.5 1381.2,1023.8C1374.4,1025.4 1370.1,1019.2 1363.9,1018.1C1358.9,1017.2 1354.8,1020.1 1350.7,1022.5C1346.7,1024.8 1343.4,1025.6 1338.8,1024.2C1336,1023.3 1333.4,1022.1 1330.4,1022.1C1326.5,1022.1 1323,1023.9 1321.8,1027.7C1321.4,1029.5 1324.3,1030.3 1324.8,1028.4Z" style="fill:rgb(255,251,251);fill-rule:nonzero;"/>
        <path d="M321.4,312.8C327.2,306.2 336.3,303.1 344.9,305.4C351.9,307.3 357.3,312.2 364.9,310.4C371.8,308.7 376.8,303.1 383.5,300.9C391,298.4 398.3,302.2 405.2,304.7C411,306.8 416.9,308.2 422.8,305.7C427.4,303.8 430.7,301 436,302C439.5,302.7 442.8,304.4 446.2,305.6C454.9,308.6 462.6,305.6 471.3,304.6C481.2,303.6 491,304.5 500.6,306.9C502.5,307.4 503.3,304.5 501.4,304C492.2,301.6 482.7,300.7 473.1,301.4C468.5,301.8 464.1,302.7 459.7,303.5C453.9,304.5 449.4,303.6 444,301.5C436.5,298.6 431.6,297.9 424.3,301.6C415.8,305.9 408.9,302.8 400.6,299.7C394.3,297.3 387.9,295.9 381.4,298.4C374.5,301.1 368.4,308.2 360.5,307.8C355.7,307.5 351.5,304.4 347.1,302.9C343.8,301.8 340.2,301.4 336.7,301.7C329.9,302.3 323.8,305.6 319.3,310.6C318.1,312.1 320.2,314.2 321.4,312.8Z" style="fill:rgb(255,251,251);fill-rule:nonzero;"/>
        <path d="M431.401,284.8C438.701,276.1 450.201,286.9 457.501,289.8C465.801,293.1 472.001,289.2 479.801,286.8C485.601,285 489.401,287.1 494.601,289.5C497.601,290.8 500.601,291.5 503.701,290.1C507.801,288.2 510.701,284.3 514.901,282.3C520.201,279.9 525.901,279.4 531.601,280.6C533.501,281 534.301,278.1 532.401,277.7C523.901,275.9 515.001,277.6 508.101,282.9C504.901,285.3 502.401,288.7 497.801,287.6C495.401,287 493.201,285.3 490.901,284.3C486.901,282.6 483.101,282.6 479.001,283.9C474.101,285.4 469.401,288.4 464.101,288.3C458.301,288.2 453.501,284.1 448.701,281.5C442.601,278.3 434.201,276.6 429.201,282.6C428.001,284.2 430.201,286.3 431.401,284.8Z" style="fill:rgb(255,251,251);fill-rule:nonzero;"/>
        <path d="M167.701,833.7C175.401,836.9 186.201,840.8 199.601,843.5C225.301,848.5 245.601,846.1 255.901,844.7C268.701,843 305.601,836.9 361.001,805.3C415.701,774.2 451.501,739.4 478.401,712.9C507.601,684.2 528.601,658.7 534.801,651C572.101,605.3 583.101,580.7 623.001,542.3C647.001,519.2 660.201,511.5 667.901,507.5C675.401,503.6 697.301,493 745.801,488.7C778.401,485.8 801.701,487.7 841.601,491.1C886.501,494.9 921.101,500.6 948.501,505.1C978.901,510.1 1004.4,515.1 1022.8,519C1028.6,508.2 1037.2,490.6 1044.5,467.8C1054.6,436.4 1053.9,421 1065.5,353.9C1070.9,322.6 1073.6,306.7 1077.7,293.2C1088.5,257.5 1104.2,230.5 1116.1,212.9C1120.5,224.7 1124.9,236.4 1129.4,248.2C1134.1,242.4 1141.1,234.9 1150.9,227.9C1161.1,220.6 1170.8,216.3 1178,213.7C1176.9,218.5 1175.6,227.1 1177.7,237.4C1179.5,246.1 1183,252.6 1185.5,256.5C1190,252.8 1194.6,249 1199.1,245.3C1210.3,236.1 1221.5,226.9 1232.7,217.7C1235.3,223 1237.8,228.3 1240.4,233.6C1245.4,244 1250.4,254.3 1255.5,264.7C1263.9,257 1272.5,248.6 1281.2,239.5C1286.3,234.1 1291.2,228.8 1295.8,223.5C1298.9,228.5 1302.1,234.1 1305.1,240.4C1310.5,251.7 1314.1,262.4 1316.5,271.6C1319.5,266.7 1323.4,261.3 1328.2,256.1C1345,237.8 1364.8,229.8 1376.9,226.2C1375.7,231 1374.7,235.9 1373.8,241.1C1370.3,260.9 1369.8,279.1 1370.7,294.8C1373.3,292.4 1377,289.3 1381.7,286C1394.1,277.2 1406,272.6 1414.1,270.2C1420,268.4 1427.9,266.5 1437.5,265.7C1431.8,272.1 1424.2,281.6 1416.7,294.2C1408.3,308.4 1401.9,323.5 1396.2,344.5C1385.1,385 1384.1,419.2 1383,464.8C1382.6,481.4 1382.7,493.4 1382.9,517.4C1383.1,536.1 1383.4,569.6 1385.2,605.1C1388.1,661 1391.8,666.1 1396.1,735.8C1399,782.6 1398.3,796.6 1397.4,807.7C1394,846.5 1384.7,875.2 1379.4,889.5C1373.9,904.5 1367.2,922.5 1352.8,943C1340.8,960.2 1329,976.6 1307.2,985.5C1292.2,991.6 1278.4,991.7 1269.8,991C1248.9,992 1223.4,992.3 1194.4,990.6C1184.8,990 1161,988.5 1130,984C1074.2,975.9 1034.5,963.9 1021.6,959.9C1011.4,956.7 997.701,951.3 970.401,940.5C961.001,936.8 954.601,934.2 946.901,928.7C941.801,925.1 930.201,916.7 922.001,901C921.001,899.1 916.501,890.2 914.401,877.5C912.001,862.7 914.201,851.3 916.501,840.2C918.601,830 922.601,815.6 931.001,799.4C920.301,811.1 906.901,826.6 892.301,845.6C868.001,877.1 852.701,902.4 849.601,907.5C836.901,928.6 835.301,934.5 813.101,979.4C786.001,1034.2 772.201,1062 757.801,1081.2C733.001,1114.4 708.301,1134.3 700.301,1140.6C674.301,1160.9 649.401,1173.4 630.901,1181.1C634.901,1175.5 641.101,1165.4 644.201,1151.4C647.201,1137.8 646.101,1126.3 644.901,1119.6C639.701,1124.3 633.601,1129.2 626.601,1133.9C605.801,1147.8 585.301,1154.3 570.001,1157.6C572.801,1148.7 575.501,1138.3 577.201,1126.5C580.001,1108 579.701,1091.7 578.601,1078.8C572.301,1086.3 564.001,1094.9 553.301,1103.2C535.001,1117.3 517.101,1125 504.101,1129.3C508.301,1122.2 513.101,1112.5 516.401,1100.3C521.301,1082.4 520.901,1066.8 519.901,1056.7C515.101,1061.3 508.801,1066.4 500.901,1070.7C476.301,1084.3 451.701,1082.8 440.501,1081.3C443.901,1076.4 447.601,1070.3 450.801,1062.9C457.301,1047.5 458.501,1033.4 458.401,1024.2C453.501,1029.2 447.601,1034.5 440.401,1039.4C415.801,1056.3 390.301,1060 375.601,1060.7C379.401,1056 383.401,1050.3 387.101,1043.5C395.301,1028.4 398.301,1014.1 399.501,1004.1C388.001,1010.4 377.901,1015.1 370.101,1018.4C346.201,1028.6 337.001,1029.3 329.001,1026.7C325.801,1025.6 323.301,1024.3 321.701,1023.2C327.401,1016.7 333.401,1008.9 339.301,999.9C349.701,983.7 356.401,968.3 360.701,955.7C357.001,957.4 350.401,960.3 341.901,962.7C325.901,967.3 313.401,967.6 270.901,967.8C258.501,967.9 248.601,967.9 243.101,967.9C251.201,964.2 260.201,959.3 269.501,952.9C285.201,942.3 297.001,930.8 305.501,921.1C301.601,921.9 296.501,922.7 290.401,923.3C286.301,923.7 272.701,925 256.401,923.6C233.201,921.6 213.901,915 202.201,910.2C209.301,907.9 215.001,905.5 219.101,903.8C229.801,899.2 236.701,896.2 244.001,890C248.601,886.1 251.801,882.2 253.701,879.6C244.101,877.7 232.801,874.7 220.701,869.6C195.901,858.9 178.501,844.4 167.701,833.7Z" style="fill:white;fill-rule:nonzero;"/>
        <path d="M937.899,790.1C934.999,795.1 930.599,803.1 926.299,813.2C918.099,832.4 910.899,849.2 912.999,870.6C914.499,886 920.199,897.3 922.099,900.8C923.399,903.2 927.799,911.1 935.799,919.2C951.899,935.6 971.699,942.1 984.699,946.2C1032.6,961.3 1056.6,968.9 1062.8,970.4C1087.3,976.1 1123.8,984.5 1173.5,988.8C1202.3,991.3 1236.9,992.6 1276,990.4C1270.4,989.6 1261.2,987.6 1252.3,981C1249.8,979.2 1239.3,971.1 1232.4,950.2C1226.3,931.8 1226.3,913.8 1229.3,893.6C1235.1,855 1249.1,826.1 1264.8,794.6C1274.4,775.3 1278.2,770.3 1292.4,741.1C1301.8,721.8 1308.9,706.2 1313.7,685.2C1317.9,667.2 1318,656.1 1316.5,646.2C1315.5,639.7 1313.9,629.6 1307.1,618.7C1299.4,606.4 1289.2,599.7 1283.6,596.6C1270,596.9 1252.1,598.1 1231.4,601.4C1214.2,604.2 1177.8,611.2 1135.4,629.8C1085.8,651.5 1053.7,677.9 1024.3,702.4C1000.6,722 969.599,750.8 937.899,790.1Z" style="fill:rgb(155,151,151);fill-opacity:0.18;fill-rule:nonzero;"/>
        <path d="M170.701,834.899C241.601,869.399 325.801,831.299 386.101,791.599C450.001,749.399 502.801,692.699 551.101,633.799C563.501,618.699 575.601,603.399 587.601,588.099C599.901,572.399 611.901,556.199 625.601,541.599C639.401,526.999 655.201,514.699 673.601,506.299C691.901,497.999 711.801,493.599 731.701,491.299C773.701,486.599 816.801,489.899 858.701,493.999C903.601,498.399 948.201,505.699 992.401,514.899C1080.8,533.299 1167.4,559.499 1253.3,587.099C1264.1,590.599 1274.9,594.099 1285.7,597.599C1287.5,598.199 1288.3,595.299 1286.5,594.699C1200.7,566.799 1114.5,539.599 1026.5,519.299C941.601,499.699 853.401,485.099 766.001,486.199C728.501,486.699 689.401,491.799 656.801,511.599C623.501,531.799 601.201,565.799 577.501,595.799C530.001,655.999 480.101,715.399 419.701,763.199C389.501,787.099 356.601,807.799 321.301,823.299C284.301,839.599 241.801,850.299 201.401,842.099C191.201,839.999 181.401,836.699 172.001,832.099C170.501,831.499 168.901,834.099 170.701,834.899Z" style="fill-rule:nonzero;"/>
        <path d="M166.6,834.7C191.1,857.6 221,874.1 253.5,882.6C255.4,883.1 256.2,880.2 254.3,879.7C222.3,871.4 192.9,855.2 168.7,832.6C167.3,831.3 165.2,833.4 166.6,834.7Z" style="fill-rule:nonzero;"/>
        <path d="M251.401,882.1C238.901,897.1 219.901,903.1 201.801,908.5C200.301,909 200.501,910.8 201.801,911.4C234.901,925.3 271.501,929 306.701,922.1C306.101,921.4 305.601,920.6 305.001,919.9C290.801,942.8 265.901,955 242.401,966.3C241.001,967 241.701,969.1 243.201,969.1C265.301,969 287.501,969.6 309.501,968.5C328.801,967.6 348.201,964.4 365.101,954.3C366.801,953.3 365.201,950.7 363.601,951.7C346.201,962.1 326.101,964.9 306.101,965.6C285.201,966.4 264.201,966 243.201,966C243.501,966.9 243.701,967.9 244.001,968.8C268.001,957.3 293.201,944.7 307.701,921.3C308.401,920.1 307.201,918.9 306.001,919.1C271.301,925.8 235.301,922 202.701,908.4L202.701,911.3C221.201,905.8 240.801,899.6 253.601,884.1C254.701,882.7 252.601,880.6 251.401,882.1Z" style="fill-rule:nonzero;"/>
        <path d="M359.6,955.999C354.7,971.399 347.5,985.899 338.2,998.999C333.7,1005.3 328.5,1010.9 323.4,1016.7C320.8,1019.7 318.6,1023.9 322.8,1026.6C327.3,1029.5 335.2,1027.6 340.1,1027C347.3,1026.1 354.3,1024.7 361.3,1022.7C376.1,1018.4 390.1,1011.5 402.6,1002.4C404.2,1001.3 402.7,998.699 401.1,999.799C389.9,1007.9 377.6,1014.2 364.5,1018.5C358.3,1020.5 352,1022.1 345.5,1023.2C341.7,1023.8 337.9,1024.3 334.1,1024.6C331.8,1024.8 326.1,1026 324.2,1024C321.4,1021.1 328.1,1015.9 330,1013.9C332,1011.6 334,1009.2 335.9,1006.8C339.6,1002.1 343.1,997.199 346.2,992.099C353.1,980.999 358.4,969.099 362.4,956.699C363,954.899 360.2,954.099 359.6,955.999Z" style="fill-rule:nonzero;"/>
        <path d="M399.101,1003.4C396.301,1024.1 387.801,1043.4 374.401,1059.4C373.601,1060.3 374.101,1062 375.501,1062C407.601,1060.6 438.301,1046.9 460.801,1024C462.201,1022.6 460.001,1020.5 458.701,1021.9C436.801,1044.3 406.901,1057.7 375.501,1059.1C375.901,1060 376.201,1060.8 376.601,1061.7C390.401,1045.3 399.201,1025.6 402.101,1004.4C402.301,1002.3 399.401,1001.4 399.101,1003.4Z" style="fill-rule:nonzero;"/>
        <path d="M456.001,1025.6C456.201,1045.2 450.301,1064.1 439.101,1080.2C438.501,1081 439.101,1082.2 440.001,1082.4C469.701,1091 499.301,1075.5 522.101,1057.6C523.601,1056.4 521.501,1054.3 520.001,1055.5C498.001,1072.8 469.401,1087.8 440.801,1079.5C441.101,1080.2 441.401,1081 441.701,1081.7C453.201,1065.2 459.201,1045.7 459.001,1025.6C458.901,1023.7 455.901,1023.7 456.001,1025.6Z" style="fill-rule:nonzero;"/>
        <path d="M519.7,1060.5C520.3,1084.2 514.5,1107.5 502.8,1128.2C502.2,1129.3 503.2,1130.8 504.5,1130.4C533.6,1120.9 559.5,1103.4 579.2,1079.9C580.4,1078.4 578.3,1076.3 577.1,1077.8C557.7,1100.9 532.3,1118.1 503.7,1127.5C504.3,1128.2 504.8,1129 505.4,1129.7C517.4,1108.6 523.4,1084.8 522.7,1060.5C522.6,1058.6 519.6,1058.6 519.7,1060.5Z" style="fill-rule:nonzero;"/>
        <path d="M577.701,1080.5C579.301,1106.3 576.201,1132.1 568.501,1156.8C568.101,1158 569.301,1158.8 570.301,1158.6C597.601,1153.8 622.901,1140.9 642.901,1121.7C644.301,1120.4 642.201,1118.2 640.801,1119.6C621.101,1138.5 596.301,1151 569.501,1155.7C570.101,1156.3 570.701,1156.9 571.301,1157.5C579.101,1132.6 582.301,1106.5 580.601,1080.4C580.501,1078.6 577.501,1078.6 577.701,1080.5Z" style="fill-rule:nonzero;"/>
        <path d="M644.601,1120.8C645.601,1141.6 640.501,1162.1 629.701,1180C628.901,1181.3 630.501,1182.7 631.801,1182.1C659.301,1168 686.901,1153.5 711.101,1134C731.901,1117.2 749.301,1096.7 764.101,1074.5C794.401,1029 814.001,977.7 839.201,929.5C868.001,874.4 907.901,826.1 949.001,779.8C990.201,733.2 1035.7,689.5 1088.7,656.6C1141.2,624 1201.6,601.7 1263.9,600.3C1271.4,600.1 1278.9,600.3 1286.4,600.7C1288.3,600.8 1288.3,597.8 1286.4,597.7C1225.3,594.3 1164.9,611.4 1111.4,640C1057.1,669 1010.2,709.8 968.201,754.3C946.701,777.1 926.401,801 906.601,825.3C886.601,849.9 867.101,875 850.901,902.3C822.701,949.8 803.301,1001.8 775.901,1049.7C762.401,1073.3 746.701,1095.9 727.501,1115.3C705.301,1137.6 678.401,1154.2 650.801,1168.9C644.001,1172.5 637.101,1176.1 630.201,1179.6C630.901,1180.3 631.601,1181 632.301,1181.7C643.301,1163.4 648.601,1142.4 647.601,1121C647.501,1118.9 644.501,1118.9 644.601,1120.8Z" style="fill-rule:nonzero;"/>
        <path d="M1282.9,597.801C1299.7,606.001 1310.3,622.701 1314.1,640.701C1318.8,663.101 1313,686.301 1305.3,707.401C1290.2,748.101 1266.3,784.701 1248.7,824.301C1232.4,861.001 1220.9,902.101 1229,942.401C1232.2,958.301 1238.9,975.201 1253.2,984.201C1268,993.501 1287,991.901 1302.8,986.101C1334.9,974.301 1356.6,944.801 1370.7,914.901C1388.2,877.801 1397.6,836.501 1399.9,795.601C1402.4,750.601 1392.3,706.901 1389.3,662.201C1386.3,616.001 1385.3,569.501 1384.6,523.201C1384,480.701 1383.6,437.701 1388.4,395.401C1392.5,358.601 1401.3,321.301 1421.3,289.601C1426.3,281.601 1432.1,274.101 1438.4,267.201C1439.7,265.801 1437.6,263.601 1436.3,265.101C1385.5,320.801 1382.3,402.101 1381.5,473.501C1381,519.201 1382.5,565.001 1384.1,610.701C1384.9,633.501 1385.6,656.301 1387.7,679.101C1389.8,701.401 1393.8,723.501 1395.9,745.901C1400,788.901 1395.7,832.601 1383.1,874.001C1372.5,908.801 1356.4,945.201 1327.5,968.601C1313.5,980.001 1295.6,988.101 1277.4,987.901C1256,987.601 1241.7,973.501 1235.2,954.001C1221.7,913.601 1233.1,868.801 1249.2,831.001C1265.6,792.601 1288.4,757.301 1304.3,718.601C1318.2,684.601 1328.7,641.601 1303,610.201C1297.9,604.001 1291.7,599.001 1284.5,595.501C1282.7,594.301 1281.2,596.901 1282.9,597.801Z" style="fill-rule:nonzero;"/>
        <path d="M930.899,799.8C917.799,827.1 904.799,859.5 915.199,889.9C923.699,914.8 946.199,930.6 969.099,941.3C997.499,954.5 1028.4,963.3 1058.7,971C1091.8,979.4 1125.4,985.4 1159.4,989C1198.2,993.2 1237.2,994.1 1276.1,992C1278,991.9 1278,988.9 1276.1,989C1210.5,992.6 1144.6,987.3 1080.4,973.1C1049,966.2 1017.9,957.3 987.899,946C964.199,937.1 938.699,924.8 924.699,902.7C904.399,870.9 918.799,832.4 933.599,801.5C934.299,799.5 931.699,798 930.899,799.8Z" style="fill-rule:nonzero;"/>
        <path d="M1024.1,519.699C1067,445.599 1057.7,355.999 1084.3,276.599C1091.8,254.099 1102.4,232.599 1117.2,213.899C1118.4,212.399 1116.3,210.299 1115.1,211.799C1061.7,279.199 1067.2,369.999 1048,449.499C1042.2,473.499 1034,496.799 1021.6,518.199C1020.5,519.899 1023.1,521.399 1024.1,519.699Z" style="fill-rule:nonzero;"/>
        <path d="M1116,213C1118.5,225.5 1122.6,237.5 1128.1,248.9C1128.5,249.7 1129.9,249.9 1130.5,249.2C1143.2,233.7 1159.7,222 1178.5,215.2C1177.9,214.6 1177.3,214 1176.7,213.4C1173.4,228.6 1176.1,244.2 1184.4,257.3C1185,258.2 1186,258.2 1186.8,257.6C1202.5,244.7 1218.3,231.7 1234,218.8C1233.2,218.7 1232.4,218.6 1231.6,218.5C1239.2,234.2 1246.8,249.8 1254.4,265.5C1254.8,266.4 1256.1,266.4 1256.8,265.8C1270.9,252.8 1284.4,239 1297,224.6C1296.2,224.5 1295.4,224.4 1294.6,224.3C1303.8,239.1 1310.7,255.1 1315.2,272C1315.5,273.3 1317.3,273.4 1317.9,272.4C1331.4,250.6 1352.7,234.6 1377.4,227.7C1376.8,227.1 1376.2,226.5 1375.6,225.9C1370.2,248.5 1368.1,271.7 1369.3,295C1369.4,296.3 1370.9,296.9 1371.9,296.1C1390.1,279.6 1413.2,269.5 1437.7,267.4C1439.6,267.2 1439.6,264.2 1437.7,264.4C1412.4,266.7 1388.6,277 1369.8,294C1370.7,294.4 1371.5,294.7 1372.4,295.1C1371.1,272.1 1373.2,249.2 1378.6,226.8C1378.9,225.7 1377.9,224.6 1376.8,225C1351.4,232.2 1329.5,248.7 1315.5,271.1C1316.4,271.2 1317.3,271.3 1318.2,271.5C1313.6,254.4 1306.6,238.2 1297.3,223.1C1296.8,222.3 1295.6,222 1294.9,222.8C1282.2,237.3 1268.8,251 1254.7,264C1255.5,264.1 1256.3,264.2 1257.1,264.3C1249.5,248.6 1241.9,233 1234.3,217.3C1233.8,216.4 1232.6,216.4 1231.9,217C1216.2,229.9 1200.4,242.9 1184.7,255.8C1185.5,255.9 1186.3,256 1187.1,256.1C1179.2,243.7 1176.5,228.9 1179.7,214.5C1179.9,213.5 1179,212.2 1177.9,212.7C1158.6,219.7 1141.6,231.6 1128.6,247.5C1129.4,247.6 1130.2,247.7 1131,247.8C1125.6,236.6 1121.7,224.8 1119.2,212.6C1118.5,210.3 1115.6,211.1 1116,213Z" style="fill-rule:nonzero;"/>
        <path d="M1092.6,367.099C1138.7,374.499 1184.9,381.799 1231,389.199C1232.9,389.499 1233.7,386.599 1231.8,386.299C1185.7,378.899 1139.5,371.599 1093.4,364.199C1091.5,363.899 1090.7,366.799 1092.6,367.099Z" style="fill-rule:nonzero;"/>
        <path d="M1320.6,385.5C1319,393.9 1317.9,402.3 1317.6,410.9C1317.5,412.8 1320.5,412.8 1320.6,410.9C1321,402.6 1321.9,394.4 1323.5,386.3C1323.8,384.4 1320.9,383.6 1320.6,385.5Z" style="fill-rule:nonzero;"/>
        <path d="M1334.6,390.701C1336.2,388.701 1337.9,387.701 1340.4,387.301C1339.8,386.801 1339.1,386.301 1338.5,385.901C1339.5,394.201 1336.3,402.201 1329.4,407.201C1328.9,407.601 1328.5,408.201 1328.7,408.901C1329.8,413.001 1332.7,417.101 1337.4,417.201C1341.6,417.301 1345,413.801 1344.6,409.601C1344.4,407.701 1341.4,407.701 1341.6,409.601C1341,410.901 1340.3,412.301 1339.7,413.601C1337.2,414.601 1335.3,414.201 1334,412.401C1332.6,411.201 1332,409.801 1331.6,408.001C1331.4,408.601 1331.1,409.101 1330.9,409.701C1338.5,404.101 1342.6,395.301 1341.5,385.801C1341.4,384.701 1340.6,384.201 1339.6,384.401C1336.6,384.801 1334.3,386.101 1332.4,388.501C1331.3,390.101 1333.4,392.301 1334.6,390.701Z" style="fill-rule:nonzero;"/>
        <path d="M1368.7,392.899C1367.4,388.799 1363.1,386.999 1359.1,388.599C1355.7,389.899 1349.4,395.699 1351.3,399.799C1352.1,401.399 1353.6,401.799 1355.2,402.199C1359.1,403.199 1362,403.299 1363.6,407.599C1367.4,418.199 1351.4,420.499 1349.5,410.599C1349.1,408.699 1346.3,409.499 1346.6,411.399C1348.3,420.499 1362.7,423.899 1366.4,414.399C1368,410.399 1366.8,405.399 1363.8,402.399C1362.2,400.799 1360.5,400.299 1358.4,399.599C1356,398.799 1354,398.499 1355.3,395.699C1356.7,392.599 1363.8,387.799 1365.7,393.699C1366.4,395.599 1369.3,394.799 1368.7,392.899Z" style="fill-rule:nonzero;"/>
        <path d="M1356.8,377.2C1357.3,381.3 1357.9,385.5 1358.4,389.6C1358.6,391.5 1361.6,391.5 1361.4,389.6C1360.9,385.5 1360.3,381.3 1359.8,377.2C1359.6,375.3 1356.5,375.3 1356.8,377.2Z" style="fill-rule:nonzero;"/>
        <path d="M1355.6,423.3C1356.1,427 1355.7,430.6 1354.5,434.1C1353.9,435.9 1356.8,436.7 1357.4,434.9C1358.7,431.1 1359.1,427.2 1358.6,423.3C1358.4,421.4 1355.4,421.4 1355.6,423.3Z" style="fill-rule:nonzero;"/>
        <path d="M1079.3,435.099C1096.2,436.299 1112.7,439.599 1128.7,444.999C1130.5,445.599 1131.3,442.699 1129.5,442.099C1113.2,436.599 1096.4,433.299 1079.3,432.099C1077.3,431.899 1077.3,434.899 1079.3,435.099Z" style="fill-rule:nonzero;"/>
        <path d="M1154.9,448.399C1188.2,457.299 1222,464.399 1256,469.699C1257.9,469.999 1258.7,467.099 1256.8,466.799C1222.7,461.399 1189,454.299 1155.7,445.499C1153.8,444.999 1153,447.899 1154.9,448.399Z" style="fill-rule:nonzero;"/>
        <path d="M1310.2,476.399C1309.3,471.899 1310,467.399 1312.5,463.499C1314.2,460.899 1318.8,458.299 1320.9,461.699C1322,463.599 1322.5,466.099 1322.6,468.199C1322.8,472.099 1321.8,477.199 1317.8,478.799C1314.4,480.199 1309.4,478.399 1309.4,474.299C1309.4,472.399 1306.4,472.399 1306.4,474.299C1306.3,479.799 1312,482.999 1317,482.099C1323.9,480.899 1326.1,472.999 1325.4,466.899C1324.8,461.799 1321.5,453.999 1314.9,456.999C1307.8,460.299 1305.8,470.199 1307.2,477.099C1307.7,479.099 1310.6,478.299 1310.2,476.399Z" style="fill-rule:nonzero;"/>
        <path d="M1331,482.1C1332.9,482.1 1332.9,479.1 1331,479.1C1329.1,479.1 1329.1,482.1 1331,482.1Z" style="fill-rule:nonzero;"/>
        <path d="M1331.4,479.399C1331.4,479.199 1331.5,479.399 1331.4,479.399C1331.1,479.799 1331.2,479.799 1330.9,479.999C1330.8,480.099 1330.9,480.099 1330.8,479.999C1330.6,479.899 1330.8,479.999 1330.9,479.999C1331,479.999 1331,479.999 1330.8,479.999L1330.9,479.999C1330.9,479.999 1331.1,480.099 1330.9,479.999L1331.1,480.099C1331.1,480.099 1330.8,479.799 1330.9,479.999C1331,480.099 1330.8,479.999 1330.9,479.899C1330.9,479.799 1330.9,480.099 1330.9,480.099C1330.8,480.299 1330.7,480.499 1330.6,480.599C1330.3,481.099 1329.8,481.499 1329.3,481.799L1331.4,481.799C1331,481.399 1330.8,480.699 1331,480.199C1331.3,479.499 1331.2,478.599 1330.5,478.099C1329.9,477.699 1328.8,477.899 1328.4,478.599C1327.6,480.399 1327.9,482.399 1329.3,483.899C1329.9,484.499 1330.8,484.399 1331.4,483.899C1332.3,483.099 1333.3,482.199 1333.7,480.999C1334.1,479.799 1333.8,478.499 1332.8,477.699C1331.2,476.399 1328.2,476.899 1328.3,479.399C1328.5,481.299 1331.5,481.299 1331.4,479.399Z" style="fill-rule:nonzero;"/>
        <path d="M1345.1,461C1349.1,460.4 1353,460.7 1356.8,461.8C1358.7,462.3 1359.5,459.4 1357.6,458.9C1353.2,457.6 1348.8,457.4 1344.3,458.1C1342.4,458.4 1343.2,461.3 1345.1,461Z" style="fill-rule:nonzero;"/>
        <path d="M1343.3,461.9C1343.3,465.1 1342.9,468.2 1342.1,471.3C1341.8,472.3 1342.6,473.2 1343.5,473.2C1347.8,473.3 1354,476.9 1352.5,482.2C1351.4,486.1 1345.9,487.7 1343.2,484.7C1341.9,483.3 1339.8,485.4 1341.1,486.8C1345.1,491.3 1352.8,489.3 1355.1,483.9C1358.3,476.5 1350.2,470.3 1343.6,470.2C1344.1,470.8 1344.6,471.5 1345,472.1C1346,468.7 1346.4,465.5 1346.4,461.9C1346.2,460 1343.2,460 1343.3,461.9Z" style="fill-rule:nonzero;"/>
        <path d="M1064,490.4C1120,500.9 1175.4,514.6 1229.8,531.5C1231.6,532.1 1232.4,529.2 1230.6,528.6C1176.2,511.7 1120.8,497.9 1064.8,487.5C1062.9,487.2 1062.1,490.1 1064,490.4Z" style="fill-rule:nonzero;"/>
        <path d="M1310,540.8C1311,537.3 1311.4,533.9 1311.3,530.3C1311.2,528.4 1308.3,528.4 1308.3,530.3L1308.3,550.4C1308.3,552.3 1311.3,552.3 1311.3,550.4L1311.3,530.3L1308.3,530.3C1308.4,533.7 1308.1,536.8 1307.1,540.1C1306.6,541.9 1309.5,542.7 1310,540.8Z" style="fill-rule:nonzero;"/>
        <path d="M1330.6,551.299C1328.4,548.499 1327.3,545.299 1327.5,541.699C1327.8,537.399 1330.7,530.599 1336.1,532.499C1341.3,534.299 1340.9,541.099 1339.6,545.399C1338.4,549.399 1332.8,557.299 1328.4,551.299C1327.3,549.799 1324.7,551.299 1325.8,552.799C1329.5,557.799 1336.2,556.699 1339.8,551.999C1343.6,546.899 1345.4,537.599 1341,532.399C1336.9,527.499 1330.7,528.399 1327.2,533.399C1323.2,539.299 1323.7,547.299 1328,552.799C1329.2,554.299 1331.8,552.799 1330.6,551.299Z" style="fill-rule:nonzero;"/>
        <path d="M1354.6,527.1C1355.4,529.6 1356.1,532.1 1356.9,534.6C1357.5,536.4 1360.4,535.7 1359.8,533.8C1359,531.3 1358.3,528.8 1357.5,526.3C1356.9,524.5 1354,525.3 1354.6,527.1Z" style="fill-rule:nonzero;"/>
        <path d="M1366.1,537.999C1366.1,529.599 1354.1,533.399 1352.1,538.899C1351,541.999 1353.9,543.399 1356.4,543.999C1359.1,544.599 1361.9,546.399 1360.9,549.699C1359.9,553.099 1355.4,552.899 1353.5,550.599C1352.2,549.099 1350.1,551.299 1351.4,552.699C1355.2,557.199 1363.4,555.599 1364.1,549.299C1364.4,546.599 1363.1,543.699 1360.8,542.299C1359.5,541.399 1357.8,541.599 1356.5,540.899C1355.1,540.799 1354.9,540.199 1356,538.899C1356.5,538.399 1357,537.999 1357.5,537.599C1358.8,536.599 1363.3,534.299 1363.3,537.999C1363.1,539.899 1366.1,539.899 1366.1,537.999Z" style="fill-rule:nonzero;"/>
        <path d="M1355.7,556.601L1355.7,562.801C1355.7,564.701 1358.7,564.701 1358.7,562.801L1358.7,556.601C1358.7,554.701 1355.7,554.701 1355.7,556.601Z" style="fill-rule:nonzero;"/>
        <path d="M763.5,517.4C811.6,525.2 859,536.4 905.6,550.8C907.4,551.4 908.2,548.5 906.4,547.9C859.9,533.5 812.4,522.4 764.3,514.5C762.4,514.2 761.6,517.1 763.5,517.4Z" style="fill-rule:nonzero;"/>
        <path d="M984,572.501C1001.9,577.301 1019.4,583.301 1036.6,590.301C1038.4,591.001 1039.2,588.101 1037.4,587.401C1020.2,580.401 1002.7,574.401 984.8,569.601C982.9,569.101 982.1,572.001 984,572.501Z" style="fill-rule:nonzero;"/>
        <path d="M1093.9,592.4C1094.8,590.9 1095.8,590.9 1096.9,592.4C1099.8,593.5 1099.3,595.1 1095.4,597.1C1094,597.8 1092.3,597.6 1090.8,597.5C1089.1,597.4 1088.7,600.1 1090.4,600.4C1094.8,601.3 1095.9,606.4 1093.5,609.8C1091.9,612.2 1089,613.6 1086.2,614.3C1079.9,615.9 1069.1,611.8 1073.2,603.6C1074.1,601.9 1071.5,600.4 1070.6,602.1C1065,613.4 1079.1,619.9 1088.3,616.8C1092.7,615.3 1097.1,612 1097.7,607.1C1098.3,602.6 1095.5,598.3 1091,597.4C1090.9,598.4 1090.7,599.4 1090.6,600.3C1095.4,600.5 1102.3,598.3 1101.2,592.2C1100.9,590.4 1099.7,588.4 1098,587.7C1095.2,586.4 1093.7,588.3 1091.6,590C1090.3,591.6 1092.4,593.7 1093.9,592.4Z" style="fill-rule:nonzero;"/>
        <path d="M1128.9,591.099C1128.6,592.999 1127.5,594.399 1125.8,595.199C1125.1,595.499 1124.9,596.599 1125.3,597.299C1125.7,598.099 1126.6,598.199 1127.4,597.799C1129.7,596.699 1131.5,594.499 1131.9,591.999C1132,591.199 1131.7,590.399 1130.9,590.199C1130.1,589.899 1129.1,590.299 1128.9,591.099Z" style="fill-rule:nonzero;"/>
        <path d="M1135.4,601.5C1129.6,594.6 1118.4,594.7 1112.7,601.7C1112,602.6 1112.2,603.9 1113.4,604.2C1117.3,605.3 1120.4,607.1 1123.4,609.9C1123.3,609.3 1123.2,608.7 1123.2,608.1C1119.8,612.9 1113.9,614.7 1108.3,612.8C1106.5,612.2 1105.7,615.1 1107.5,615.7C1114.4,618 1121.5,615.5 1125.7,609.6C1126.1,609.1 1125.9,608.2 1125.5,607.8C1122.2,604.7 1118.5,602.6 1114.2,601.3C1114.4,602.1 1114.6,603 1114.9,603.8C1119.7,598 1128.5,597.9 1133.4,603.6C1134.5,605.1 1136.6,603 1135.4,601.5Z" style="fill-rule:nonzero;"/>
        <path d="M1110.6,612.899C1107.6,615.699 1104.5,618.499 1101.5,621.199C1100.1,622.499 1102.2,624.599 1103.6,623.299C1106.6,620.499 1109.7,617.699 1112.7,614.999C1114.2,613.699 1112.1,611.599 1110.6,612.899Z" style="fill-rule:nonzero;"/>
        <path d="M618.9,627.101C683.8,651.601 749.1,674.701 815,696.301C833.6,702.401 852.3,708.401 871,714.301C872.8,714.901 873.6,712.001 871.8,711.401C805.7,690.601 740,668.301 674.8,644.601C656.4,637.901 638,631.101 619.6,624.101C617.9,623.501 617.1,626.401 618.9,627.101Z" style="fill-rule:nonzero;"/>
        <path d="M563.3,714.2C640.3,738.3 716.6,764.5 792.1,792.8C793.9,793.5 794.7,790.6 792.9,789.9C717.3,761.6 641,735.4 564,711.3C562.2,710.7 561.4,713.6 563.3,714.2Z" style="fill-rule:nonzero;"/>
        <path d="M862.601,787.1C852.501,787.4 841.201,792.9 833.901,799.9C829.401,804.3 827.001,813.8 834.601,816.6C840.201,818.7 850.501,815.6 850.401,808.5C850.301,805.3 848.001,802.6 845.101,801.4C840.301,799.3 835.101,801.5 830.701,803.5C828.901,804.3 830.501,806.9 832.201,806.1C835.401,804.7 839.301,802.7 843.001,803.8C846.601,804.8 847.701,807.3 846.301,811.4C845.201,812.4 844.001,813.2 842.601,813.6C840.101,814.4 836.101,814.9 834.001,812.8C831.301,810 832.901,805.7 835.001,803.2C838.001,799.6 842.901,797.1 846.901,794.9C851.901,792.2 856.901,790.4 862.601,790.2C864.501,790.1 864.501,787.1 862.601,787.1Z" style="fill-rule:nonzero;"/>
        <path d="M883.801,793.499C881.301,795.999 878.801,798.499 876.401,800.999C875.001,802.399 877.201,804.499 878.501,803.099C881.001,800.599 883.501,798.099 885.901,795.599C887.201,794.299 885.101,792.199 883.801,793.499Z" style="fill-rule:nonzero;"/>
        <path d="M885.901,806.7C881.001,803.8 875.501,802.4 869.701,803.1C866.501,803.5 860.101,804.6 858.601,808.1C856.901,811.9 861.901,813.8 864.201,815.5C867.801,818 872.401,823.2 866.801,826.7C861.901,829.8 856.701,825.7 853.601,822.2C852.301,820.8 850.201,822.9 851.501,824.3C855.001,828.1 860.001,831.8 865.601,830.4C869.701,829.4 873.101,825.8 872.601,821.4C871.901,815.9 866.901,814.8 863.601,811.4C861.601,809.3 862.401,808.2 865.001,807.3C867.301,806.4 869.701,806 872.101,805.9C876.501,805.8 880.701,807 884.401,809.3C886.001,810.3 887.501,807.7 885.901,806.7Z" style="fill-rule:nonzero;"/>
        <path d="M856.4,829.799C853.9,832.699 851.4,835.599 848.9,838.499C847.6,839.999 849.8,842.099 851,840.599C853.5,837.699 856,834.799 858.5,831.899C859.8,830.399 857.7,828.299 856.4,829.799Z" style="fill-rule:nonzero;"/>
        <path d="M415.199,808.899C493.599,868.799 579.999,917.999 671.399,954.899C697.299,965.399 723.599,974.799 750.199,983.299C751.999,983.899 752.799,980.999 750.999,980.399C656.999,950.499 567.099,907.999 484.399,854.099C461.199,838.999 438.699,823.099 416.699,806.299C415.199,805.199 413.699,807.799 415.199,808.899Z" style="fill-rule:nonzero;"/>
        <path d="M383.301,856.4C407.801,881.4 435.901,902.6 466.801,919.2C468.501,920.1 470.001,917.5 468.301,916.6C437.701,900.2 409.701,879.2 385.401,854.3C384.101,852.9 381.901,855 383.301,856.4Z" style="fill-rule:nonzero;"/>
        <path d="M659,986.6C665.6,988.4 672.2,990.2 678.8,991.9C680.7,992.4 681.5,989.5 679.6,989C673,987.2 666.4,985.4 659.8,983.7C657.9,983.2 657.1,986.1 659,986.6Z" style="fill-rule:nonzero;"/>
        <path d="M657.801,985.699C654.901,990.099 652.501,994.599 650.501,999.499C650.001,1000.8 651.701,1001.7 652.701,1001.2C658.101,998.299 659.001,1005.3 658.301,1008.2C657.701,1010.7 656.101,1012.7 654.001,1014.1C649.301,1017.2 643.301,1015.8 640.001,1011.3C638.901,1009.8 636.201,1011.3 637.401,1012.8C642.901,1020.1 653.701,1021 659.301,1013.1C661.701,1009.7 662.701,1004.7 660.401,1001C658.401,997.599 654.601,996.799 651.201,998.599C651.901,999.199 652.701,999.699 653.401,1000.3C655.301,995.699 657.601,991.399 660.401,987.299C661.501,985.599 658.901,984.099 657.801,985.699Z" style="fill-rule:nonzero;"/>
        <path d="M691.1,999.801C687.4,1002.7 682.8,1005.5 679.5,1009C678.2,1010.4 677.5,1011.9 678.9,1013.5C680.8,1015.6 685.2,1016.6 687.8,1017.2C691.9,1018.2 696.2,1018.4 700.4,1017.9C702.3,1017.7 702.3,1014.7 700.4,1014.9C695.1,1015.5 687.4,1015.5 682.8,1012.3C681.4,1011.3 681.4,1012 682.2,1010.6C682.8,1009.6 684.5,1008.8 685.4,1008.1C688,1006.1 690.5,1004 693.1,1002C694.8,1000.7 692.6,998.601 691.1,999.801Z" style="fill-rule:nonzero;"/>
        <path d="M705.6,1005.4C697.3,1015.4 689,1025.3 680.7,1035.3C679.5,1036.8 681.6,1038.9 682.8,1037.4C691.1,1027.4 699.4,1017.5 707.7,1007.5C708.9,1006.1 706.8,1003.9 705.6,1005.4Z" style="fill-rule:nonzero;"/>
        <path d="M734.301,1005.5C731.801,1008.4 729.401,1011.4 726.901,1014.3C725.701,1015.8 727.801,1017.9 729.001,1016.4C731.501,1013.5 733.901,1010.5 736.401,1007.6C737.701,1006.1 735.601,1004 734.301,1005.5Z" style="fill-rule:nonzero;"/>
        <path d="M737.6,1021.6C733.7,1017.7 728.3,1015.9 722.8,1016.7C719.3,1017.2 711.6,1020.1 711.9,1024.7C712,1026.3 712.9,1027.1 714.3,1027.7C718.8,1029.8 724.8,1028.6 724.2,1036C723.3,1047.3 707.7,1047.1 702.2,1039.8C701.1,1038.3 698.5,1039.8 699.6,1041.3C706.5,1050.5 723.7,1050.7 727,1038C728.4,1032.4 725.1,1026.9 719.5,1025.6C717.9,1025.3 714.8,1025.7 716.1,1023C717.1,1021.1 721,1020.1 723,1019.7C727.6,1018.9 732.2,1020.3 735.5,1023.7C736.9,1025.1 739,1023 737.6,1021.6Z" style="fill-rule:nonzero;"/>
        <path d="M703.9,1046C703,1048.5 702.1,1051 701.3,1053.4C700.7,1055.2 703.6,1056 704.2,1054.2C705.1,1051.7 706,1049.2 706.8,1046.8C707.4,1044.9 704.5,1044.1 703.9,1046Z" style="fill-rule:nonzero;"/>
        <path d="M469.5,895.2C508.2,923.3 548.4,949.4 589.9,973.2C591.6,974.2 593.1,971.6 591.4,970.6C549.9,946.8 509.7,920.7 471,892.6C469.4,891.5 467.9,894.1 469.5,895.2Z" style="fill-rule:nonzero;"/>
        <path d="M656.999,192.9C679.532,192.9 697.799,172.573 697.799,147.5C697.799,122.426 679.532,102.1 656.999,102.1C634.466,102.1 616.199,122.426 616.199,147.5C616.199,172.573 634.466,192.9 656.999,192.9Z" style="fill:white;fill-rule:nonzero;stroke:black;stroke-width:2px;"/>
        <path d="M666.198,192.9C688.732,192.9 706.998,172.573 706.998,147.5C706.998,122.426 688.732,102.1 666.198,102.1C643.665,102.1 625.398,122.426 625.398,147.5C625.398,172.573 643.665,192.9 666.198,192.9Z" style="fill:white;fill-rule:nonzero;stroke:black;stroke-width:2px;"/>
        <path d="M665.398,115.499C665.398,119.699 665.398,123.899 665.498,128.199C665.498,130.099 668.498,130.099 668.498,128.199C668.498,123.999 668.498,119.799 668.398,115.499C668.398,113.599 665.398,113.599 665.398,115.499Z" style="fill-rule:nonzero;"/>
        <path d="M678.9,127.5C672,125.8 664.4,125.8 658.6,130.5C654.3,134 650.7,140.9 654.7,145.9C659.6,151.9 668,148.3 674.4,149.9C683.7,152.2 679.9,161.5 673.4,164.7C668.5,167.1 663,166.9 658.6,163.6C657.1,162.4 655.6,165 657.1,166.2C662.5,170.3 669.7,170.1 675.5,167C680.5,164.3 685.5,158.2 682.5,152.3C679.2,145.9 671.4,146.8 665.4,146.7C662.7,146.7 657.8,146.4 656.5,143.4C654.8,139.4 657.6,135.2 660.6,132.8C665.6,128.8 672.2,128.9 678.1,130.4C680,130.9 680.8,128 678.9,127.5Z" style="fill-rule:nonzero;"/>
        <path d="M667.799,168.999L667.799,178.099C667.799,179.999 670.799,179.999 670.799,178.099L670.799,168.999C670.799,167.099 667.799,167.099 667.799,168.999Z" style="fill-rule:nonzero;"/>
        <path d="M646.499,69C651.299,76.8 656.099,84.6 660.899,92.3C661.599,93.4 663.299,93.2 663.599,91.9C668.799,74.2 675.399,57 683.399,40.3C684.199,38.6 681.599,37 680.799,38.8C672.699,55.7 665.999,73.1 660.699,91.1C661.599,91 662.499,90.9 663.399,90.7C658.599,82.9 653.799,75.1 648.999,67.4C648.099,65.8 645.499,67.3 646.499,69Z" style="fill:rgb(96,96,96);fill-rule:nonzero;"/>
        <path d="M620,233.699C617.8,234.799 620.3,244.499 622,249.699C624.2,256.199 628.5,265.499 637.9,275.299C639,279.299 641.1,285.199 645.4,291.199C650,297.699 655.1,301.299 659.8,304.699C663.6,307.499 669,310.899 676.1,313.899C676.5,317.699 677.5,326.399 678,330.299C691.1,445.099 683.8,374.899 689.7,425.099C691.8,443.099 692.5,450.299 696.1,461.399C700.7,475.599 706.8,486.399 711.4,493.299C714.3,494.399 718.3,495.799 723.3,496.999C726.5,497.699 739.6,500.599 757.2,497.999C777.1,494.999 791.1,486.799 811.6,474.699C828.2,464.899 839.1,456.099 846.6,449.999C863.5,436.199 868.9,428.899 870.6,426.499C876.9,417.599 879.4,410.499 883.5,398.999C887.4,388.199 887.7,383.399 885.9,378.999C884,374.399 880.5,371.599 877.9,370.099C873.3,371.299 867.6,372.999 861,375.399C854.3,377.899 845.6,381.599 836.4,386.799C832.1,389.199 825.6,393.199 810,405.399C784.9,425.099 782.1,430.199 768.6,437.799C758.2,443.699 748.8,446.899 742.8,448.599C741.7,444.999 739.9,439.399 737.3,432.699C731.8,418.799 728.7,415.899 724.8,405.899C721.4,397.399 720.1,389.799 717.6,374.699C715.5,362.399 714.3,355.099 714.2,344.699C714,329.499 714,321.899 716.1,312.399C717.3,306.999 718.9,301.899 717,295.499C716.3,293.099 714.1,290.099 709.8,284.299C705.1,277.899 699.9,271.899 695.7,265.299C691,257.899 689.5,253.799 685.2,252.999C683.2,252.599 680.5,252.999 679.2,254.599C677,257.199 678.3,262.999 683.4,268.399C680.1,267.699 675.2,266.299 670.2,262.999C664.6,259.399 661.5,255.199 655.8,247.399C652.2,242.499 646.5,234.099 643.6,229.799C639.5,223.799 637.3,220.299 635.3,220.799C633.4,221.199 632.6,225.299 632.3,228.199C631.8,227.899 628.2,225.799 626.1,227.099C623.9,228.499 623.5,233.599 626.9,238.999C624.2,235.999 621.4,232.999 620,233.699Z" style="fill:white;fill-rule:nonzero;"/>
        <path d="M676.398,317.6C676.898,322.8 677.698,329.8 678.898,338.1C681.898,358.1 685.598,374.3 690.298,392C701.698,435.7 707.698,457.7 716.898,466C718.698,467.7 735.098,482 757.698,481.7C776.198,481.4 788.898,471.3 809.398,454.7C844.698,426 867.998,406.9 881.998,395.4C881.498,400.9 880.098,409.1 875.798,417.8C871.498,426.6 865.798,432.8 857.498,440.2C846.098,450.4 834.298,457.8 811.298,472.2C790.698,485.1 780.298,491.6 773.298,493.9C751.798,501.2 735.998,499.1 732.598,498.6C722.798,497.2 715.098,494.1 710.098,491.6C707.398,487.2 703.598,480.6 699.998,472C691.898,452.8 690.298,436.6 689.398,428.4C686.698,404 681.998,366 676.398,317.6Z" style="fill:rgb(155,151,151);fill-opacity:0.18;fill-rule:nonzero;"/>
        <path d="M744,449.5C756.8,446.8 767.9,439.8 778.5,432.4C790.6,423.9 802.6,415.2 814.4,406.2C836.5,389.4 861,367.2 891,371.6C892.9,371.9 893.7,369 891.8,368.7C864,364.6 840.9,382 820.2,398C807.5,407.8 794.7,417.3 781.6,426.6C769.8,435 757.7,443.5 743.3,446.6C741.3,447.1 742.1,449.9 744,449.5Z" style="fill-rule:nonzero;"/>
        <path d="M745.099,450.999C742.699,438.899 736.199,428.299 731.299,417.099C725.999,404.899 721.999,392.099 719.299,379.099C713.899,352.999 714,325.899 719.4,299.799C719.8,297.899 716.9,297.099 716.5,298.999C711.2,324.499 710.9,350.899 715.7,376.499C718.2,389.699 722,402.699 727.2,415.099C732.3,427.299 739.6,438.799 742.2,451.899C742.6,453.699 745.499,452.899 745.099,450.999Z" style="fill-rule:nonzero;"/>
        <path d="M717.899,300.599C720.299,293.099 712.799,286.099 708.699,280.599C702.499,272.299 696.499,263.699 690.099,255.499C687.199,251.799 682.899,249.199 679.099,253.599C674.499,258.999 678.999,265.199 682.899,269.499C684.199,270.899 686.299,268.799 684.999,267.399C683.399,265.599 680.699,262.999 680.399,260.499C680.599,259.099 680.799,257.699 680.899,256.299C682.599,255.999 684.299,255.699 686.099,255.399C686.999,255.799 688.099,257.899 688.699,258.699C691.999,263.099 695.299,267.599 698.599,271.999C701.699,276.199 704.799,280.399 707.899,284.499C710.899,288.599 716.799,294.299 715.099,299.899C714.399,301.699 717.299,302.499 717.899,300.599Z" style="fill-rule:nonzero;"/>
        <path d="M676.8,312.5C666.6,307.4 655.8,301.8 648.5,292.8C639.2,281.4 639.7,264.7 638.6,250.7C638.3,247.4 638,244 637.9,240.7C637.9,239 637.9,237.3 638,235.6C638.1,234.9 638.9,228.7 639.9,228.3C643.1,227 645.2,246.2 645.4,248C646.9,258.7 649.3,270 658.3,277C659.8,278.2 661.9,276.1 660.4,274.9C646.6,264.2 649.9,245 645.1,230.1C644.1,227 642,221.8 638.2,225.4C633.8,229.6 634.7,239.6 635.1,244.8C635.7,254.2 636.6,263.5 637.8,272.8C638.6,279.3 640.1,285.5 643.7,291.1C651.1,302.4 663.7,309.1 675.4,315C677,316 678.5,313.4 676.8,312.5Z" style="fill-rule:nonzero;"/>
        <path d="M640.699,276.4C633.299,267.3 625.599,257.9 622.499,246.3C621.799,243.6 620.799,240 621.199,237.1C621.399,235.8 620.899,235 622.699,235.4C623.499,235.6 624.899,238.8 625.399,239.5C628.799,244.7 632.199,249.8 635.499,255C636.599,256.6 639.199,255.1 638.099,253.5C635.399,249.4 632.799,245.4 630.099,241.3C628.199,238.5 626.099,232.9 623.099,231.1C618.699,228.3 618.199,234.4 618.199,237.3C618.199,253.5 628.799,266.8 638.499,278.6C639.799,280 641.899,277.9 640.699,276.4Z" style="fill-rule:nonzero;"/>
        <path d="M629.899,240.299C629.099,238.399 628.399,236.399 627.899,234.399C627.699,233.499 626.199,228.799 626.999,228.199C627.799,227.599 634.299,236.299 634.999,237.199C636.199,238.699 638.299,236.599 637.099,235.099C634.899,232.399 632.799,229.499 630.399,226.899C629.099,225.399 626.999,224.099 625.099,225.599C623.599,226.799 623.799,228.899 623.999,230.599C624.499,234.199 625.499,237.699 626.899,240.999C627.799,242.799 630.699,241.999 629.899,240.299Z" style="fill-rule:nonzero;"/>
        <path d="M635.499,232.799C635.599,230.699 634.799,228.899 634.199,226.899C633.899,225.999 633.599,225.099 633.699,224.099C633.799,223.499 633.799,222.999 634.299,222.599C634.399,222.499 636.099,221.799 635.799,222.799C635.299,224.699 638.199,225.499 638.699,223.599C639.599,220.099 635.099,217.899 632.399,219.999C628.199,223.299 632.599,228.799 632.399,232.699C632.399,234.699 635.399,234.699 635.499,232.799Z" style="fill-rule:nonzero;"/>
        <path d="M639.7,224.5C647.6,244.7 662.3,261.4 681.3,271.8C683,272.7 684.5,270.1 682.8,269.2C664.5,259.2 650.2,243.2 642.5,223.7C641.9,221.9 639,222.7 639.7,224.5Z" style="fill-rule:nonzero;"/>
        <path d="M674.1,314.799C679.1,348.599 683.4,382.499 687.1,416.399C690,443.299 693.2,471.699 710,493.999C711.1,495.499 713.8,493.999 712.6,492.499C694.9,469.099 692.6,438.899 689.5,410.799C685.9,378.499 681.8,346.199 677.1,314.099C676.8,312.099 673.9,312.899 674.1,314.799Z" style="fill-rule:nonzero;"/>
        <path d="M711.499,494.4C741.899,507.7 775.199,497.7 802.499,481.8C817.199,473.2 831.299,463.2 844.799,452.9C856.899,443.7 868.399,433.4 876.199,420.2C885.099,405.1 888.699,387.3 886.699,369.9C886.499,368 883.499,368 883.699,369.9C885.399,385.1 882.899,400.6 875.999,414.3C869.299,427.7 858.599,438.3 846.999,447.4C834.999,456.9 822.399,465.7 809.499,473.9C796.099,482.5 781.799,490.1 766.399,494.2C748.899,498.9 729.999,499.1 713.099,491.7C711.199,491.1 709.699,493.6 711.499,494.4Z" style="fill-rule:nonzero;"/>
        <path d="M621.701,829.6C627.001,846.3 632.301,863 637.601,879.8C622.601,892.4 609.301,900.8 599.501,906.4C587.501,913.3 573.901,919.6 568.001,933.4C567.201,935.4 564.501,941.4 567.001,944.1C569.501,946.9 576.201,944.8 581.001,943.1C599.201,936.6 613.501,928 618.001,925.3C640.201,912.1 643.001,914.5 669.301,898.6C676.701,894.1 682.701,890.1 686.701,887.4C685.401,881.1 683.401,872.3 680.901,861.9C678.101,850.2 675.201,838.2 670.501,823C668.301,816 665.301,806.6 661.201,795.5C648.001,806.8 634.901,818.2 621.701,829.6Z" style="fill-rule:nonzero;"/>
        <path d="M584.499,829.599C587.499,831.099 591.899,832.999 597.299,834.599C614.299,839.399 628.499,836.699 638.099,834.699C665.599,829.099 686.599,814.499 696.999,806.299C693.799,791.499 690.899,775.999 688.499,759.699C684.199,731.899 681.699,705.699 680.399,681.399C686.699,685.499 695.499,691.099 706.299,696.999C721.499,705.399 732.799,711.599 748.299,716.499C760.799,720.499 774.599,724.799 792.899,723.499C797.099,723.199 815.299,721.699 835.499,710.299C844.699,705.199 872.599,689.599 881.899,657.599C884.199,649.499 888.199,635.899 882.799,622.099C874.499,600.699 847.199,587.199 814.399,588.399C805.999,584.899 792.399,579.199 775.599,571.899C748.099,559.999 736.099,554.199 714.899,546.299C685.099,535.099 674.399,533.699 667.299,533.099C656.499,532.299 643.799,531.399 629.099,537.299C611.799,544.299 602.099,556.399 598.399,561.199C592.799,568.399 587.899,577.199 581.899,599.499C575.399,623.599 572.599,644.499 570.999,662.699C569.699,677.999 567.599,702.499 569.399,734.799C570.699,759.899 574.599,792.399 584.499,829.599Z" style="fill:white;fill-rule:nonzero;"/>
        <path d="M697.1,805.099C689.6,810.099 682.1,815.099 674.6,820.099C674,805.099 673.6,789.699 673.4,773.999C673,736.099 674.1,699.999 676.2,665.699C683.7,669.799 694.5,675.199 707.9,680.499C725,687.199 749,696.699 777.5,698.099C792.3,698.799 822.5,697.999 858.4,679.799C854.6,689.399 847,703.099 832.6,711.799C825.4,716.199 818.6,718.099 812,719.899C812,719.899 794.7,724.599 776.1,724.099C753.5,723.499 716.1,709.799 679,679.099C685.1,721.099 691.1,763.099 697.1,805.099Z" style="fill:rgb(155,151,151);fill-opacity:0.19;fill-rule:nonzero;"/>
        <path d="M586,829.199C568.3,763.099 565.3,693.399 577.6,626.099C582.6,598.999 589.1,567.399 611.6,548.999C637.2,527.899 673,532.799 702,543.099C720.9,549.799 739.2,558.199 757.7,566.099C776.3,573.999 795,581.899 813.6,589.799C815.4,590.499 816.9,587.999 815.1,587.199C780.9,572.699 746.9,557.399 712.3,543.799C683.8,532.599 650.5,524.599 621.5,538.999C595.5,551.899 584.5,580.499 578.3,607.099C570.4,641.299 566.8,676.599 567,711.699C567.2,751.599 572.6,791.499 582.9,829.999C583.6,831.799 586.5,830.999 586,829.199Z" style="fill-rule:nonzero;"/>
        <path d="M584.301,831.299C623.401,849.999 665.001,829.499 697.801,807.499C699.401,806.399 697.901,803.799 696.301,804.899C664.501,826.099 623.801,846.799 585.801,828.699C584.101,827.799 582.601,830.399 584.301,831.299Z" style="fill-rule:nonzero;"/>
        <path d="M698.6,804.699C689,760.199 682.8,715.099 680.1,669.599C680,667.699 677,667.699 677.1,669.599C679.9,715.299 686.1,760.699 695.7,805.499C696.1,807.399 699,806.599 698.6,804.699Z" style="fill-rule:nonzero;"/>
        <path d="M679.6,682.499C702.8,697.799 728.3,711.799 754.9,720.199C779.8,728.099 806.4,726.299 829.8,714.399C831.5,713.499 830,710.899 828.3,711.799C804.3,723.999 777.5,724.799 752.2,716.199C727.1,707.599 703.2,694.499 681.1,679.999C679.5,678.899 678,681.499 679.6,682.499Z" style="fill-rule:nonzero;"/>
        <path d="M623,838.5C628.6,852 633,865.9 636.2,880.1C636.4,879.5 636.7,879 636.9,878.4C621.5,888 606.7,898.6 592.6,910C585.5,915.8 578.5,921.7 571.7,927.9C568,931.3 561,936 563.5,941.9C566,947.8 573.1,947.8 578.2,945.9C586.6,942.8 594.7,938.4 602.7,934.5C620.3,926 637.7,917 655,907.8C664.6,902.7 674.4,897.8 683.9,892.4C685.7,891.4 688.1,890 686.9,887.6C686.2,886.1 684.7,885.9 683.3,886.7C681.6,887.7 683.1,890.3 684.8,889.3C683.6,889.1 682.4,889.5 681.5,890.3C680.4,890.9 679.2,891.5 678.1,892.1C675.8,893.3 673.6,894.5 671.3,895.7C667.3,897.8 663.4,899.9 659.4,902C651.5,906.2 643.5,910.4 635.5,914.5C619,923.1 602.3,931.4 585.5,939.2C581.2,941.2 574.9,945.3 569.9,943.7C561,940.9 569.8,933.4 573,930.4C579.8,924.2 586.7,918.2 593.8,912.5C607.9,901 622.8,890.5 638.2,880.8C638.8,880.4 639,879.8 638.9,879.1C635.7,864.8 631.3,850.9 625.7,837.5C625.1,835.9 622.2,836.7 623,838.5Z" style="fill-rule:nonzero;"/>
        <path d="M668.999,823.4C674.399,844.9 679.799,866.3 685.199,887.8C685.699,889.7 688.599,888.9 688.099,887C682.699,865.5 677.299,844.1 671.899,822.6C671.399,820.7 668.499,821.5 668.999,823.4Z" style="fill-rule:nonzero;"/>
        <path d="M907.8,348.699C891.7,358.699 881.8,370.099 873.8,379.499C848.5,408.899 838.1,439.899 833.6,457.199C828.4,477.399 831.3,479.899 827,500.099C820,532.899 805.8,557.399 795.1,572.799C809.7,586.999 835.6,608.499 873.3,623.499C904.6,635.899 932.6,639.299 951.5,639.999C958.1,618.999 966.3,591.399 974.6,558.499C990.2,497.099 985.8,498.099 1001,431.899C1016.7,363.899 1024,351.099 1014.2,339.399C996,317.499 941.6,327.799 907.8,348.699Z" style="fill:rgb(255,242,137);fill-rule:nonzero;stroke:black;stroke-width:2px;stroke-linejoin:round;stroke-miterlimit:2;"/>
        <path d="M700.4,849.899C707,863.899 713.7,877.899 720.3,891.899C711.8,899.999 705.2,907.499 700.2,913.499C685.7,931.199 677.7,946.099 676.1,949.299C672.6,955.899 670.1,961.699 668.4,965.899C673.5,964.899 680.9,962.999 689.2,959.399C702.9,953.399 711.8,945.899 717.9,940.699C733.4,927.399 751.6,911.599 772,893.199C768.1,885.399 764.3,877.299 760.5,868.899C753.1,852.499 746.6,836.599 740.8,821.199C727.3,830.799 713.8,840.399 700.4,849.899Z" style="fill-rule:nonzero;"/>
        <path d="M647.301,844.001C642.901,835.501 637.501,824.401 632.101,811.401C625.801,796.301 618.001,775.701 611.401,750.501C603.901,722.001 600.201,696.401 598.301,675.501C595.601,645.201 594.001,627.901 599.301,604.501C603.101,588.001 607.401,570.101 622.901,555.101C637.501,540.901 654.401,536.701 662.801,534.701C685.501,529.401 703.901,533.801 725.501,539.001C749.501,544.801 767.101,553.101 774.501,556.901C781.601,560.501 790.901,565.701 838.201,600.101C849.401,608.301 858.635,613.833 865.135,618.633C876.935,623.733 890.562,629.001 907.062,632.801C916.862,635.101 926.062,636.601 934.462,637.501C932.462,644.001 930.101,653.601 925.601,663.101C923.801,666.801 916.601,681.701 902.701,699.601C893.701,711.201 885.301,721.801 871.101,731.801C860.001,739.601 852.001,742.301 848.101,743.501C838.401,746.401 830.401,746.401 827.301,746.301C817.901,746.101 808.901,743.801 794.201,736.801C779.801,730.001 767.801,722.401 753.501,712.201C742.601,704.401 728.201,693.401 711.901,679.101C715.101,688.901 718.601,698.801 722.401,708.901C734.601,741.801 748.101,771.901 762.101,799.401C762.101,803.501 761.401,810.501 757.501,817.701C754.401,823.401 750.201,827.501 743.801,831.901C723.101,846.301 700.301,849.801 700.301,849.801C676.501,853.601 657.201,847.801 647.301,844.001Z" style="fill:white;fill-rule:nonzero;"/>
        <path d="M694.5,632.1C695,645.7 695.9,659.8 697.6,674.5C704.6,737.4 721.6,791.2 740.2,834.4C743,833.1 752.2,828.6 757.6,817.9C761.8,809.7 761.5,802 761.3,798.7C746.7,762.2 732.1,725.7 717.4,689.2C709.7,670.1 702.1,651.1 694.5,632.1Z" style="fill:rgb(155,151,151);fill-opacity:0.22;fill-rule:nonzero;"/>
        <path d="M694.5,632.1C699.4,637.7 706.8,645.7 716.3,654.8C741.2,678.2 773.5,708.7 810.2,714.9C867.7,724.5 918.2,671.2 925.6,663.3C920.4,674.2 912.7,687.6 901.3,701.5C889.5,715.9 879.7,728.6 862,737.7C855.6,741 847.1,745.2 835.4,746.1C831,746.4 820.3,746.8 793.3,734.6C787.6,732 766.3,722.2 735.5,700.3C725.6,693.3 717.8,687.2 712.5,683C706.6,665.9 700.5,649 694.5,632.1Z" style="fill:rgb(155,151,151);fill-opacity:0.22;fill-rule:nonzero;"/>
        <path d="M648.6,843.3C615.6,779.1 596.5,705.5 598,633.1C598.7,600.2 607.7,563.1 637.8,544.8C653.1,535.5 671.6,534.5 689.1,535.3C705.8,536.1 722.2,539.1 738.2,544C775,555.2 808.4,575.8 837.2,601.2C838.6,602.5 840.8,600.4 839.3,599.1C813.2,576.1 783.5,557.1 750.8,545.1C734.6,539.2 717.8,535.1 700.7,533.2C683.3,531.3 664.2,530.8 647.6,536.8C616.4,548.1 600.7,580.8 596.6,611.8C594.1,630.5 594.8,649.5 596.2,668.2C597.6,686.9 600.1,705.5 603.8,723.9C612.2,765.9 626.5,806.6 646.1,844.7C646.9,846.5 649.5,845 648.6,843.3Z" style="fill-rule:nonzero;"/>
        <path d="M693.099,632.5C712.099,689.8 734.699,745.9 760.899,800.4C761.699,802.1 764.299,800.6 763.499,798.9C737.399,744.7 714.899,688.9 695.999,631.8C695.299,629.8 692.499,630.6 693.099,632.5Z" style="fill-rule:nonzero;"/>
        <path d="M646.901,846.6C670.301,857.9 697.001,853.1 720.501,844.6C740.601,837.3 766.801,823.9 762.601,798.2C762.301,796.3 759.401,797.1 759.701,799C763.901,824.7 734.301,837 714.801,843.4C693.401,850.5 669.301,854.2 648.301,844C646.701,843.2 645.101,845.8 646.901,846.6Z" style="fill-rule:nonzero;"/>
        <path d="M712.001,681.799C740.901,707.699 772.101,734.099 810.401,744.199C830.001,749.299 848.701,748.499 866.001,737.299C881.901,726.999 895.201,712.199 906.501,697.199C919.601,679.599 929.801,659.999 936.701,639.199C937.301,637.399 934.401,636.599 933.801,638.399C922.101,673.099 901.001,705.999 872.301,728.999C864.501,735.199 855.801,740.599 846.101,742.999C835.701,745.599 824.801,744.399 814.501,741.999C796.301,737.699 779.301,729.399 763.701,719.199C746.001,707.599 729.901,693.699 714.101,679.599C712.701,678.399 710.501,680.499 712.001,681.799Z" style="fill-rule:nonzero;"/>
        <path d="M699.101,850.7C705.701,864.7 712.401,878.7 719.001,892.7C719.801,894.4 722.401,892.9 721.601,891.2C715.001,877.2 708.301,863.2 701.701,849.2C700.801,847.4 698.201,849 699.101,850.7Z" style="fill-rule:nonzero;"/>
        <path d="M719.001,892.2C696.301,912.3 678.501,937.4 666.901,965.4C666.201,967.2 669.101,968 669.801,966.2C681.201,938.6 698.801,914.1 721.201,894.3C722.601,893.1 720.401,891 719.001,892.2Z" style="fill-rule:nonzero;"/>
        <path d="M667.8,966.7C677.1,970.1 686.5,962.8 694.1,958.2C703.9,952.2 713.4,945.8 722.7,939C740.8,925.6 757.6,910.6 773.1,894.3C774.4,892.9 772.3,890.8 771,892.2C756.5,907.5 740.8,921.6 724,934.4C716,940.4 707.8,946.1 699.4,951.5C694.9,954.3 690.4,957.1 685.8,959.8C680.6,962.8 674.8,966.1 668.7,963.9C666.8,963.1 666,966 667.8,966.7Z" style="fill-rule:nonzero;"/>
        <path d="M744.999,832.099C751.799,853.099 760.199,873.399 770.199,892.999C771.099,894.699 773.699,893.199 772.799,891.499C762.899,872.099 754.599,851.999 747.899,831.299C747.299,829.399 744.399,830.199 744.999,832.099Z" style="fill-rule:nonzero;"/>
        <path d="M905,197.601C900.6,201.201 896.8,206.701 889.3,217.801C880.2,231.201 870.8,244.401 866.1,263.401C864.1,271.501 860.9,285.201 863.3,302.501C866.7,327.101 879.3,344.201 886.3,352.301C891.3,351.901 897,351.201 903.1,349.801C911.6,348.001 919,345.501 925,343.001C927.2,347.801 929.8,352.901 932.8,358.101C937.5,366.401 942.4,373.601 947,379.901C949.7,377.501 953.7,373.801 958.3,369.001C968.5,358.201 972.6,351.001 978,343.901C994,322.901 1002.4,327.501 1013.1,311.001C1022.7,296.201 1023.5,281.001 1023.8,273.901C1025.3,246.001 1012.4,226.201 1008.8,220.701C1004.3,213.901 995.4,201.101 978.7,192.801C955.8,181.301 924.6,181.501 905,197.601Z" style="fill:white;fill-rule:nonzero;"/>
        <path d="M972.999,239.2C971.799,246.2 969.599,256.1 964.899,267.4C955.799,289.3 942.799,303 929.299,316.9C919.699,326.8 905.699,339.7 886.699,352.3C891.899,351.9 897.599,351.1 903.599,349.8C925.099,344.9 941.199,334.9 951.599,326.8C954.099,332 956.799,337.2 959.499,342.5C962.499,348.3 965.499,354 968.499,359.5C970.799,355.5 974.499,349.3 979.499,342C989.099,328.2 994.199,324.1 1004.3,310.8C1015.6,296.1 1021.2,288.7 1023.2,280.6C1024.1,276.9 1030.1,253.3 1014.7,240.4C1004.2,231.4 987.299,230.8 972.999,239.2Z" style="fill:rgb(155,151,151);fill-opacity:0.19;fill-rule:nonzero;"/>
        <path d="M874,242.3C876.3,235.4 882,221 896.3,209.4C921.7,188.8 952.6,194.6 957.2,195.5C957.6,203.1 959.6,218.4 969.6,234.2C976.8,245.5 985.3,252.6 991,256.7C992.8,256.7 999.2,256.7 1004.2,261.4C1011.4,268.3 1009,279 1008.6,280.5C1008.1,282.5 1006.9,287.7 1002.2,291.6C993.2,299.2 980.5,294.5 980,294.3C977.8,297.1 974.5,301.9 973,308.4C970.9,317.3 972.9,325.2 976,333.1C985.3,356.9 993.2,377.2 1013,384.7C1039.3,394.7 1073.3,377.4 1086.6,352.5C1102,323.6 1082.7,289.2 1069.4,264.9C1060.5,248.5 1050.5,236.7 1043.5,229.2C1041.5,220.4 1035.8,200.2 1017.9,182.5C1014.2,178.8 989.3,155.1 951.7,155.8C919.8,156.4 879.4,174.6 871.1,207.9C867.8,221.7 871.1,234.4 874,242.3Z" style="fill:rgb(16,112,238);fill-rule:nonzero;"/>
        <path d="M869.701,326.6C868.501,333.1 867.401,342.6 868.601,354C869.801,365.4 871.701,383.2 882.001,390.5C894.601,399.5 919.801,392.9 941.501,372.5C936.801,362.3 932.101,352.1 927.501,341.9C921.901,344.3 915.301,346.7 907.801,348.7C900.301,350.7 893.401,351.8 887.401,352.5C881.501,343.8 875.601,335.2 869.701,326.6Z" style="fill:rgb(16,112,238);fill-rule:nonzero;"/>
        <path d="M895.2,208.301C877.1,228.601 863.9,253.701 861.4,281.101C859,307.201 867,334.201 885.2,353.401C886.5,354.801 888.6,352.701 887.3,351.301C869.6,332.701 862,306.501 864.4,281.201C866.8,254.701 879.8,230.201 897.3,210.601C898.6,209.001 896.5,206.901 895.2,208.301Z" style="fill-rule:nonzero;"/>
        <path d="M886.799,353.7C926.099,351.7 960.899,327.9 981.399,295C982.399,293.4 979.799,291.9 978.799,293.5C958.799,325.4 924.999,348.8 886.699,350.7C884.899,350.8 884.799,353.8 886.799,353.7Z" style="fill-rule:nonzero;"/>
        <path d="M972.1,305.1C970.5,316.8 972.1,328.3 977,339.1C977.8,340.9 980.4,339.3 979.6,337.6C975.1,327.6 973.5,316.8 975,305.9C975.2,304 972.3,303.2 972.1,305.1Z" style="fill-rule:nonzero;"/>
        <path d="M925.601,344C929.701,357.6 936.701,369.9 946.101,380.5C947.401,381.9 949.501,379.8 948.201,378.4C939.101,368.2 932.401,356.3 928.401,343.2C928.001,341.3 925.101,342.1 925.601,344Z" style="fill-rule:nonzero;"/>
        <path d="M947.4,381.299C955,378.499 960.5,372.999 965.3,366.699C971.5,358.499 976.8,349.699 981.5,340.599C982.4,338.899 979.8,337.399 978.9,339.099C974.9,346.699 970.6,354.099 965.7,361.099C960.7,368.199 955.1,375.299 946.7,378.399C944.8,379.099 945.5,381.999 947.4,381.299Z" style="fill-rule:nonzero;"/>
        <path d="M915.6,221.9C901.7,242 891.2,264.1 884.6,287.6C884.2,289.1 886,290 887.1,289.1C892.9,283.8 898.7,278.5 904.5,273.1C905.9,271.8 903.8,269.7 902.4,271C896.6,276.3 890.8,281.6 885,287C885.8,287.5 886.7,288 887.5,288.5C894.1,265.3 904.5,243.4 918.2,223.5C919.3,221.9 916.7,220.4 915.6,221.9Z" style="fill-rule:nonzero;"/>
        <path d="M883.901,302.201C890.401,306.801 898.101,305.101 904.801,301.801C912.201,298.101 919.301,293.301 923.001,285.701C923.901,284.001 921.301,282.501 920.401,284.201C915.301,294.501 896.501,307.601 885.401,299.601C883.901,298.501 882.401,301.101 883.901,302.201Z" style="fill-rule:nonzero;"/>
        <path d="M897.715,235.041C899.263,231.199 899.521,227.683 898.291,227.188C897.062,226.693 894.81,229.406 893.263,233.248C891.715,237.09 891.458,240.607 892.687,241.102C893.917,241.597 896.168,238.884 897.715,235.041Z" style="fill-rule:nonzero;"/>
        <path d="M942.047,246.721C943.595,242.879 943.853,239.363 942.623,238.867C941.394,238.372 939.142,241.086 937.595,244.928C936.047,248.77 935.79,252.286 937.019,252.781C938.249,253.277 940.5,250.563 942.047,246.721Z" style="fill-rule:nonzero;"/>
        <path d="M897.8,214.801C901.7,211.201 908.1,210.501 910.8,215.901C911.7,217.601 914.2,216.101 913.4,214.401C909.9,207.201 900.9,207.801 895.7,212.701C894.3,214.001 896.4,216.101 897.8,214.801Z" style="fill-rule:nonzero;"/>
        <path d="M937.901,224.299C945.901,219.199 955.201,220.599 957.801,230.699C958.301,232.599 961.201,231.799 960.701,229.899C957.601,217.999 946.101,215.599 936.401,221.699C934.801,222.799 936.301,225.399 937.901,224.299Z" style="fill-rule:nonzero;"/>
        <path d="M935.101,263.4C937.001,263.4 937.001,260.4 935.101,260.4C933.201,260.4 933.201,263.4 935.101,263.4Z" style="fill-rule:nonzero;"/>
        <path d="M947,260.6C948.9,260.6 948.9,257.6 947,257.6C945,257.6 945,260.6 947,260.6Z" style="fill-rule:nonzero;"/>
        <path d="M941.699,272C943.599,272 943.599,269 941.699,269C939.699,269 939.699,272 941.699,272Z" style="fill-rule:nonzero;"/>
        <path d="M879.3,252.301C881.2,252.301 881.2,249.301 879.3,249.301C877.4,249.301 877.4,252.301 879.3,252.301Z" style="fill-rule:nonzero;"/>
        <path d="M887.601,252.801C889.501,252.801 889.501,249.801 887.601,249.801C885.701,249.801 885.701,252.801 887.601,252.801Z" style="fill-rule:nonzero;"/>
        <path d="M882.3,261.6C884.2,261.6 884.2,258.6 882.3,258.6C880.4,258.6 880.4,261.6 882.3,261.6Z" style="fill-rule:nonzero;"/>
        <path d="M990.999,258.2C1003.9,257.6 1010.4,270.2 1006.8,281.6C1003.5,291.9 992.099,298.8 982.299,292C980.699,290.9 979.199,293.5 980.799,294.6C992.199,302.5 1005.9,294.5 1009.7,282.4C1013.8,269.1 1005.9,254.5 991.099,255.2C989.099,255.3 989.099,258.3 990.999,258.2Z" style="fill-rule:nonzero;"/>
        <path d="M999,329.799C992.8,333.299 989.1,338.399 985.1,345.599C975.1,363.799 971.9,380.599 970.9,385.499C960.8,438.199 963.7,415.799 959.8,440.999C956.9,459.799 953.4,484.899 950.2,514.899C946.9,521.299 943.2,529.599 940.5,539.799C937.4,551.399 936.8,560.599 936.4,567.299C933.8,612.299 935.4,614.199 933.4,638.499C932.3,652.199 933.8,665.999 932,679.599C931.5,683.499 930.4,691.499 934.5,699.399C935.3,700.899 938.1,706.099 944,709.599C949.3,712.799 954.9,712.799 965.9,712.699C974,712.599 980.5,711.899 984.6,711.399C995.2,709.999 1001.5,709.799 1008.6,706.499C1011.3,705.199 1015.7,703.199 1015.5,700.899C1015.4,700.299 1014.9,698.599 1007.1,696.299C1002.7,694.999 996.4,693.599 988.5,693.399C989.7,691.799 991.7,689.699 994.6,687.899C995.6,687.299 998.3,685.799 1007.9,684.499C1013.5,683.699 1016.6,683.299 1021,683.499C1028.5,683.699 1030,685.199 1034.7,683.999C1037.5,683.299 1039.3,682.299 1043.1,680.099C1047.3,677.699 1049.8,676.199 1051.7,673.199C1053.4,670.599 1053.8,667.899 1054,666.199C1051.7,662.999 1047.4,657.999 1040.6,654.199C1037.3,652.399 1029.5,648.099 1019.6,649.399C1012.6,650.299 1007.8,653.499 1003.4,656.599C996.9,660.999 992.6,665.999 990,669.499C983.5,670.899 976.9,672.399 970.4,673.799C976.9,641.499 982.6,614.099 987,593.099C993.1,564.299 1000.5,529.199 1010.8,483.499C1011.8,478.999 1015.2,464.599 1021.9,435.699C1026,418.099 1027.7,399.999 1032.9,382.699C1033.9,379.299 1037.3,368.499 1036.8,354.699C1036.5,347.299 1035.2,341.199 1031.5,335.599C1030,333.399 1027.8,329.999 1023.6,327.699C1013,321.999 1000.6,328.799 999,329.799Z" style="fill:white;fill-rule:nonzero;"/>
        <path d="M1033.8,339.9C1031.9,350.8 1028.7,368.5 1024,390.1C1009,459.8 1000.4,471.6 986.901,534.3C978.701,572.4 973.301,607.8 969.501,632.4C966.401,653 964.001,670.6 962.301,683.9C972.401,677.9 982.601,671.8 992.701,665.8C985.801,667.5 978.801,669.1 971.901,670.8C976.201,647.2 980.301,628 983.301,614.6C987.501,595.8 990.501,584.4 994.101,564.9C997.001,549.1 998.901,536 1000.1,527.2C1006,503.1 1012.5,476 1019.5,446.3C1023.8,428.1 1025.1,409.2 1031.1,391.6C1033.4,384.8 1038.2,371.9 1036.7,355C1036.1,348.6 1034.8,343.4 1033.8,339.9Z" style="fill:rgb(155,151,151);fill-opacity:0.25;fill-rule:nonzero;"/>
        <path d="M994.6,687.799C997.2,686.899 1000.9,685.699 1005.5,684.799C1013.2,683.299 1019.5,683.399 1020.9,683.399C1029.4,683.599 1030.2,685.199 1034.6,683.899C1036.6,683.299 1035.6,683.199 1044.4,678.599C1049.2,676.099 1051.2,675.099 1051.7,673.099C1052.1,671.199 1050.9,669.299 1049.8,668.099C1043.7,666.199 1037.2,664.399 1030.4,662.799C1026.4,661.799 1022.5,660.999 1018.7,660.199C1015.3,664.099 1012,668.099 1008.5,671.999C1003.8,677.299 999.2,682.599 994.6,687.799Z" style="fill:rgb(155,151,151);fill-opacity:0.35;fill-rule:nonzero;"/>
        <path d="M947.7,513.8C935.9,539.4 934.3,567.7 933.3,595.4C932.2,627.3 931.2,659.2 930.1,691C930,692.9 933,692.9 933.1,691C934.1,660.3 935.1,629.7 936.2,599C937.1,570.6 938.2,541.5 950.3,515.3C951.1,513.6 948.5,512 947.7,513.8Z" style="fill-rule:nonzero;"/>
        <path d="M951.699,514.9C954.399,486.1 958.299,457.5 963.499,429.1C965.999,415.4 968.8,401.8 971.9,388.2C975,374.9 978.499,361.6 984.799,349.5C989.899,339.6 998.299,328.7 1010,326.6C1024.2,324.1 1033.6,337.7 1035.1,350.3C1036.6,364 1032.3,378.4 1029.7,391.7C1027,405.4 1024.1,419.1 1021.1,432.8C1014.3,463.9 1006.8,494.9 998.699,525.8C998.199,527.7 1001.1,528.5 1001.6,526.6C1009.7,495.8 1017.2,464.8 1024,433.6C1027.3,418.3 1030.5,403.1 1033.6,387.7C1036.2,374.4 1040.3,359.9 1037.6,346.3C1035.7,336.9 1029.5,327.4 1020,324.3C1009.8,321 999.599,326.4 992.599,333.5C983.799,342.5 978.7,354.7 974.9,366.5C970.3,380.7 967.4,395.4 964.4,410C957.4,444.6 952.299,479.6 948.999,514.8C948.499,516.8 951.499,516.8 951.699,514.9Z" style="fill-rule:nonzero;"/>
        <path d="M999.2,524.1C989.1,574.7 978.899,625.2 968.799,675.8C968.399,677.7 971.3,678.5 971.7,676.6C981.8,626 991.999,575.5 1002.1,524.9C1002.5,523 999.6,522.2 999.2,524.1Z" style="fill-rule:nonzero;"/>
        <path d="M930.5,691.099C931.8,701.099 938.5,709.999 948.3,713.099C955.1,715.299 962.6,714.299 969.6,713.799C976.9,713.299 984.3,712.899 991.6,712.199C997.5,711.699 1003.2,710.499 1008.6,707.899C1011.3,706.599 1017.5,704.199 1016.9,700.299C1016.3,696.499 1009.8,693.899 1006.7,692.999C1003.9,692.099 1000.9,691.699 998,691.899C993.7,692.199 989.6,693.699 985.3,692.299C983.5,691.699 982.7,694.599 984.5,695.199C989.1,696.699 993.3,695.199 998,694.899C1002.7,694.599 1008.6,695.899 1012.2,699.199C1015.1,701.999 1011.3,703.299 1008.7,704.599C1006.3,705.799 1003.8,706.899 1001.2,707.599C996.1,709.099 990.8,709.299 985.5,709.699C975.5,710.399 964.9,712.199 954.9,711.299C943.9,710.299 935.1,702.099 933.6,691.099C933.3,689.199 930.3,689.199 930.5,691.099Z" style="fill-rule:nonzero;"/>
        <path d="M989.6,693.999C998.9,686.199 1006.4,676.899 1013.8,667.399C1016.4,663.999 1017.5,661.499 1022.6,662.199C1025.6,662.599 1028.8,663.899 1031.7,664.699C1038.1,666.399 1044.5,668.199 1050.8,669.899C1052.7,670.399 1053.5,667.499 1051.6,666.999C1044.3,664.999 1037,662.999 1029.7,660.999C1024.8,659.699 1019.4,656.699 1015.2,660.599C1010.3,665.199 1006.6,671.699 1002.2,676.899C997.6,682.299 992.8,687.299 987.4,691.799C986,693.099 988.1,695.199 989.6,693.999Z" style="fill-rule:nonzero;"/>
        <path d="M986.401,672.5C991.501,668.9 996.301,665.1 1000.9,661C1006.9,655.6 1011.8,648.3 1020.8,650.1C1032.8,652.5 1044.9,657.6 1052.9,667.3C1054.1,668.8 1056.2,666.7 1055,665.2C1046.5,654.8 1032.8,649 1019.7,646.9C1013.1,645.8 1008.9,649.3 1004.4,653.6C998.301,659.6 991.8,665 984.8,670C983.3,671 984.801,673.6 986.401,672.5Z" style="fill-rule:nonzero;"/>
        <path d="M973.201,673.101C979.301,672.001 985.301,670.601 991.301,669.001C993.201,668.501 992.401,665.601 990.501,666.101C984.501,667.701 978.501,669.101 972.401,670.201C970.501,670.601 971.301,673.401 973.201,673.101Z" style="fill-rule:nonzero;"/>
        <path d="M1012.6,670.799C1021.1,666.399 1030.1,669.899 1038.7,672.099C1043.7,673.399 1049.9,675.099 1054,670.799C1055.3,669.399 1053.2,667.299 1051.9,668.699C1046.8,674.099 1033.3,666.999 1027.2,665.999C1021.6,665.099 1016.2,665.399 1011.2,668.099C1009.3,669.099 1010.8,671.699 1012.6,670.799Z" style="fill-rule:nonzero;"/>
        <path d="M1005.2,679.499C1012.2,670.299 1025,676.799 1033.9,678.599C1040.6,679.999 1047.9,679.499 1052.8,674.099C1054.1,672.699 1052,670.599 1050.7,671.999C1037.8,685.999 1015.4,661.199 1002.7,677.899C1001.4,679.499 1004,680.999 1005.2,679.499Z" style="fill-rule:nonzero;"/>
        <path d="M995,689.3C1000.3,688 1005.6,686.5 1010.9,685.3C1016.1,684.1 1020.4,685.2 1025.5,685.7C1032.8,686.5 1040.3,685.3 1045.5,679.7C1046.8,678.3 1044.7,676.2 1043.4,677.6C1036.7,684.9 1027.6,682.6 1019,681.7C1010.8,680.8 1002,684.5 994.2,686.5C992.3,686.8 993.1,689.7 995,689.3Z" style="fill-rule:nonzero;"/>
    </g>
</svg>
