<?xml version="1.0" encoding="UTF-8" standalone="no"?>
<!DOCTYPE svg PUBLIC "-//W3C//DTD SVG 1.1//EN" "http://www.w3.org/Graphics/SVG/1.1/DTD/svg11.dtd">
<svg width="100%" height="100%" viewBox="0 0 111 111" version="1.1" xmlns="http://www.w3.org/2000/svg" xmlns:xlink="http://www.w3.org/1999/xlink" xml:space="preserve" xmlns:serif="http://www.serif.com/" style="fill-rule:evenodd;clip-rule:evenodd;stroke-miterlimit:10;">
    <g transform="matrix(1,0,0,1,-602.15,-92.0501)">
        <ellipse cx="653" cy="147.5" rx="40.8" ry="45.4" style="fill:white;stroke:black;stroke-width:2px;"/>
    </g>
    <g transform="matrix(1,0,0,1,-602.15,-92.0501)">
        <ellipse cx="662.2" cy="147.5" rx="40.8" ry="45.4" style="fill:white;stroke:black;stroke-width:2px;"/>
    </g>
    <g transform="matrix(1,0,0,1,-602.15,-92.0501)">
        <g>
            <path d="M661.4,115.5C661.4,119.7 661.4,123.9 661.5,128.2C661.5,130.1 664.5,130.1 664.5,128.2C664.5,124 664.5,119.8 664.4,115.5C664.4,113.6 661.4,113.6 661.4,115.5Z" style="fill-rule:nonzero;"/>
        </g>
    </g>
    <g transform="matrix(1,0,0,1,-602.15,-92.0501)">
        <g>
            <path d="M674.9,127.5C668,125.8 660.4,125.8 654.6,130.5C650.3,134 646.7,140.9 650.7,145.9C655.6,151.9 664,148.3 670.4,149.9C679.7,152.2 675.9,161.5 669.4,164.7C664.5,167.1 659,166.9 654.6,163.6C653.1,162.4 651.6,165 653.1,166.2C658.5,170.3 665.7,170.1 671.5,167C676.5,164.3 681.5,158.2 678.5,152.3C675.2,145.9 667.4,146.8 661.4,146.7C658.7,146.7 653.8,146.4 652.5,143.4C650.8,139.4 653.6,135.2 656.6,132.8C661.6,128.8 668.2,128.9 674.1,130.4C676,130.9 676.8,128 674.9,127.5Z" style="fill-rule:nonzero;"/>
        </g>
    </g>
    <g transform="matrix(1,0,0,1,-602.15,-92.0501)">
        <g>
            <path d="M663.8,169L663.8,178.1C663.8,180 666.8,180 666.8,178.1L666.8,169C666.8,167.1 663.8,167.1 663.8,169Z" style="fill-rule:nonzero;"/>
        </g>
    </g>
</svg>
